<?xml version="1.0" encoding="UTF-8"?>
<svg xmlns="http://www.w3.org/2000/svg" viewBox="0 0 250 250" role="img" aria-label="Ares Management logo">
<title>Ares Management</title>
<g transform="translate(-0.9843 85.8268) scale(0.1969)">
<path fill="#56a0d3" fill-rule="evenodd" d="M303 11L295 7L287 5L266 6L249 11L226 22L201 39L180 36L159 36L132 40L112 46L90 56L66 72L46 91L32 109L21 128L11 154L5 186L5 214L10 243L19 268L27 282L21 304L17 333L18 353L22 368L26 376L36 386L51 392L70 392L94 385L114 375L135 361L153 364L186 364L205 361L226 355L252 343L270 331L291 312L304 296L313 282L322 264L328 247L334 216L334 184L331 165L327 150L320 132L311 116L318 93L322 65L321 43L318 31L313 21ZM33 292L43 306L63 326L84 341L108 353L88 364L66 370L51 369L41 364L34 356L30 348L28 340L28 313ZM307 136L316 154L323 177L326 196L326 221L323 240L316 263L301 291L290 305L269 325L253 336L230 347L210 353L191 356L165 356L151 354L147 352L171 332L195 308L235 260L269 209L292 166L304 138ZM237 73L251 80L265 89L275 97L291 113L277 149L262 179L245 208L222 242L201 269L180 293L147 325L121 345L98 333L83 322L64 303L57 294L43 270L42 261L48 246L69 204L84 179L103 151L143 101L180 64L184 61L204 63L221 67ZM172 62L131 104L97 147L66 195L57 211L39 249L36 251L32 235L30 220L31 188L35 169L40 154L47 139L57 123L64 114L83 95L103 81L121 72L135 67L158 62L169 61ZM212 39L239 24L254 19L274 18L284 22L292 29L296 35L300 48L300 75L297 91L295 93L278 76L256 60L235 49L215 42Z"/>
<path fill="#0065a4" fill-rule="evenodd" d="M1083 109L1055 113L935 113L935 115L937 117L948 117L956 119L961 124L964 135L964 321L962 340L959 349L955 353L946 355L930 354L923 352L909 344L897 334L866 300L824 248L824 244L842 227L853 212L860 198L864 183L865 170L864 161L861 151L852 136L842 126L829 119L820 116L797 112L689 113L690 117L701 117L709 119L715 125L717 134L717 329L716 338L712 350L708 353L694 356L695 360L748 359L749 360L778 360L780 359L779 355L764 354L755 351L752 348L749 341L747 321L748 255L794 255L796 256L860 337L874 350L880 354L891 358L902 360L1009 359L1038 361L1078 361L1083 359L1087 353L1089 344L1091 327L1090 316L1087 316L1084 329L1081 335L1074 342L1067 345L1054 347L1020 347L1006 344L998 337L995 327L996 235L1031 235L1055 237L1062 240L1066 244L1068 250L1069 260L1072 260L1074 254L1075 228L1078 216L1077 212L1075 212L1069 218L1065 220L1049 222L995 221L995 127L997 125L1043 126L1062 129L1066 131L1071 136L1073 144L1073 151L1076 153L1079 148L1079 138ZM749 125L766 123L779 123L798 127L811 134L821 144L826 152L830 162L833 177L832 205L825 225L820 232L810 240L794 244L781 244L755 241L750 239L747 236L747 127ZM1266 112L1253 111L1248 109L1233 107L1203 107L1191 109L1173 115L1163 121L1154 129L1147 139L1141 156L1140 172L1142 184L1148 198L1159 213L1170 224L1225 266L1241 283L1247 297L1248 310L1246 321L1242 330L1232 341L1226 345L1207 351L1185 351L1166 346L1156 340L1148 332L1143 323L1141 315L1141 305L1139 303L1136 304L1134 318L1133 348L1134 352L1137 355L1150 360L1171 364L1214 363L1224 361L1241 354L1251 347L1261 337L1266 330L1271 319L1274 306L1274 287L1272 278L1266 263L1256 249L1243 236L1184 193L1174 183L1169 176L1164 161L1164 150L1169 137L1180 127L1188 123L1200 120L1228 121L1246 128L1254 136L1261 156L1264 156L1265 154ZM516 64L501 102L420 326L414 338L404 349L393 354L375 356L375 358L377 360L408 360L409 359L461 360L463 357L462 355L448 354L441 349L440 347L440 335L442 326L469 248L472 246L557 246L561 251L597 346L597 350L594 354L591 355L591 358L605 360L668 360L670 359L670 355L655 354L645 350L636 342L629 332L620 314L598 259L526 71L521 63ZM513 121L516 125L550 221L552 232L476 229L477 223L509 126L511 122Z"/>
</g>
</svg>
