<?xml version="1.0" encoding="UTF-8"?>
<!-- Generated by Pixelmator Pro 3.8 -->
<svg width="250" height="78" viewBox="0 0 250 78" xmlns="http://www.w3.org/2000/svg">
    <g id="Group">
        <path id="Path" fill="#56a0d3" fill-rule="evenodd" stroke="none" d="M 58.676399 1.992706 L 57.1012 1.205093 L 55.526001 0.811295 L 51.391102 1.008194 L 48.0438 1.992706 L 43.515099 4.1586 L 38.592602 7.505905 L 34.457699 6.915207 L 30.3228 6.915207 L 25.0065 7.702805 L 21.068501 8.884201 L 16.7367 10.853195 L 12.0111 14.003601 L 8.0731 17.744705 L 5.3165 21.288895 L 3.1506 25.029999 L 1.1816 30.149399 L 0.0002 36.450203 L 0.0002 41.963402 L 0.9847 47.6735 L 2.7568 52.596001 L 4.332 55.3526 L 3.1506 59.684402 L 2.363 65.394501 L 2.5599 69.332497 L 3.3475 72.286003 L 4.1351 73.861198 L 6.1041 75.8302 L 9.0576 77.011597 L 12.7987 77.011597 L 17.5243 75.633301 L 21.462299 73.664299 L 25.5972 70.9077 L 29.141399 71.498398 L 35.639099 71.498398 L 39.380199 70.9077 L 43.515099 69.726303 L 48.634499 67.363503 L 52.178699 65.000702 L 56.313599 61.259598 L 58.873299 58.1092 L 60.645401 55.3526 L 62.4175 51.808403 L 63.5989 48.461098 L 64.780296 42.357201 L 64.780296 36.056396 L 64.189598 32.315308 L 63.402 29.361801 L 62.023701 25.817596 L 60.251598 22.667206 L 61.629902 18.138504 L 62.4175 12.625305 L 62.2206 8.293503 L 61.629902 5.930695 L 60.645401 3.9617 Z M 5.5134 57.321602 L 7.4824 60.078201 L 11.4204 64.016197 L 15.5553 66.969704 L 20.280899 69.332497 L 16.342899 71.498398 L 12.0111 72.679802 L 9.0576 72.482903 L 7.0886 71.498398 L 5.7103 69.923203 L 4.9227 68.348 L 4.5289 66.772797 L 4.5289 61.456497 Z M 59.464001 26.605194 L 61.236099 30.149399 L 62.614399 34.678101 L 63.205101 38.419197 L 63.205101 43.341698 L 62.614399 47.082802 L 61.236099 51.611504 L 58.2826 57.124702 L 56.116699 59.881302 L 51.9818 63.819298 L 48.831402 65.985199 L 44.3027 68.1511 L 40.3647 69.332497 L 36.6236 69.923203 L 31.5042 69.923203 L 28.747601 69.529404 L 27.959999 69.135597 L 32.6856 65.197601 L 37.411201 60.472 L 45.287201 51.020798 L 51.9818 40.978897 L 56.510502 32.512207 L 58.873299 26.998993 Z M 45.681 14.2005 L 48.437599 15.578796 L 51.194199 17.350906 L 53.1632 18.926102 L 56.313599 22.076508 L 53.556999 29.164902 L 50.6035 35.071899 L 47.256199 40.781998 L 42.727501 47.476601 L 38.592602 52.7929 L 34.457699 57.518501 L 27.959999 63.819298 L 22.840599 67.757301 L 18.311899 65.394501 L 15.3584 63.2286 L 11.6173 59.487503 L 10.239 57.715401 L 7.4824 52.989799 L 7.2855 51.217697 L 8.4669 48.264198 L 12.6018 39.9944 L 15.5553 35.071899 L 19.2964 29.558701 L 27.1724 19.713699 L 34.457699 12.428406 L 35.2453 11.837708 L 39.1833 12.231506 L 42.530602 13.019104 Z M 32.8825 12.034607 L 24.809601 20.304398 L 18.115 28.771103 L 12.0111 38.222298 L 10.239 41.372704 L 6.6948 48.854897 L 6.1041 49.248703 L 5.3165 46.098297 L 4.9227 43.144798 L 5.1196 36.844002 L 5.9072 33.102905 L 6.8917 30.149399 L 8.27 27.195908 L 10.239 24.045502 L 11.6173 22.273407 L 15.3584 18.532303 L 19.2964 15.775696 L 22.840599 14.003601 L 25.5972 13.019104 L 30.1259 12.034607 L 32.291801 11.837708 Z M 40.758499 7.505905 L 46.074799 4.552399 L 49.028301 3.567902 L 52.966301 3.371002 L 54.935299 4.1586 L 56.510502 5.536896 L 57.2981 6.718307 L 58.085701 9.278 L 58.085701 14.594299 L 57.494999 17.744705 L 57.1012 18.138504 L 53.753899 14.791199 L 49.4221 11.640793 L 45.287201 9.474899 L 41.349201 8.096603 Z"/>
        <path id="path1" fill="#0065a4" fill-rule="evenodd" stroke="none" d="M 212.258408 21.288895 L 206.745193 22.076508 L 183.117203 22.076508 L 183.117203 22.470306 L 183.511002 22.864105 L 185.676895 22.864105 L 187.252106 23.257904 L 188.236603 24.242401 L 188.827301 26.408295 L 188.827301 63.0317 L 188.433502 66.772797 L 187.842804 68.544899 L 187.055206 69.332497 L 185.283096 69.726303 L 182.132706 69.529404 L 180.754395 69.135597 L 177.997803 67.560402 L 175.634995 65.5914 L 169.531097 58.896797 L 161.261307 48.657997 L 161.261307 47.870399 L 164.805496 44.523102 L 166.971405 41.569603 L 168.349701 38.813004 L 169.137299 35.859497 L 169.334198 33.299805 L 169.137299 31.527695 L 168.5466 29.558701 L 166.774506 26.605194 L 164.805496 24.6362 L 162.245804 23.257904 L 160.473694 22.667206 L 155.945007 21.879593 L 134.679794 22.076508 L 134.876694 22.864105 L 137.042603 22.864105 L 138.617798 23.257904 L 139.799194 24.439301 L 140.192993 26.211395 L 140.192993 64.606903 L 139.996094 66.378998 L 139.208496 68.741798 L 138.420898 69.332497 L 135.664307 69.923203 L 135.861206 70.7108 L 146.296906 70.513901 L 146.493805 70.7108 L 152.203903 70.7108 L 152.597702 70.513901 L 152.400803 69.726303 L 149.447296 69.529404 L 147.675201 68.938698 L 147.084503 68.348 L 146.493805 66.969704 L 146.100006 63.0317 L 146.296906 50.036301 L 155.354294 50.036301 L 155.748093 50.2332 L 168.349701 66.182098 L 171.106293 68.741798 L 172.287704 69.529404 L 174.453598 70.317001 L 176.619507 70.7108 L 197.687805 70.513901 L 203.397903 70.9077 L 211.273895 70.9077 L 212.258408 70.513901 L 213.046005 69.332497 L 213.439804 67.560402 L 213.833603 64.213097 L 213.636703 62.047203 L 213.046005 62.047203 L 212.455307 64.606903 L 211.864594 65.7883 L 210.486298 67.166603 L 209.108002 67.757301 L 206.548294 68.1511 L 199.853699 68.1511 L 197.097107 67.560402 L 195.521896 66.182098 L 194.931198 64.213097 L 195.128098 46.098297 L 202.019608 46.098297 L 206.745193 46.492104 L 208.123505 47.082802 L 208.911102 47.870399 L 209.304901 49.051804 L 209.501801 51.020798 L 210.092499 51.020798 L 210.486298 49.839401 L 210.683197 44.720001 L 211.273895 42.357201 L 211.076996 41.569603 L 210.683197 41.569603 L 209.501801 42.750999 L 208.714203 43.144798 L 205.563797 43.538597 L 194.931198 43.341698 L 194.931198 24.833099 L 195.324997 24.439301 L 204.382401 24.6362 L 208.123505 25.226898 L 208.911102 25.620697 L 209.895599 26.605194 L 210.289398 28.180405 L 210.289398 29.558701 L 210.880096 29.952499 L 211.470795 28.968002 L 211.470795 26.998993 Z M 146.493805 24.439301 L 149.841095 24.045502 L 152.400803 24.045502 L 156.141907 24.833099 L 158.701599 26.211395 L 160.670593 28.180405 L 161.655106 29.7556 L 162.442703 31.724594 L 163.033401 34.678101 L 162.836502 40.191299 L 161.458206 44.129303 L 160.473694 45.507599 L 158.5047 47.082802 L 155.354294 47.870399 L 152.794601 47.870399 L 147.675201 47.279701 L 146.690704 46.885902 L 146.100006 46.295197 L 146.100006 24.833099 Z M 248.291107 21.879593 L 245.7314 21.682693 L 244.746902 21.288895 L 241.793396 20.895096 L 235.886398 20.895096 L 233.523605 21.288895 L 229.979401 22.470306 L 228.010406 23.651703 L 226.238297 25.226898 L 224.860001 27.195908 L 223.678604 30.543198 L 223.481705 33.693604 L 223.875504 36.056396 L 225.0569 38.813004 L 227.222794 41.766502 L 229.388702 43.932404 L 240.218201 52.202202 L 243.368607 55.5495 L 244.550003 58.306099 L 244.746902 60.865799 L 244.353104 63.0317 L 243.565506 64.803802 L 241.596497 66.969704 L 240.4151 67.757301 L 236.673996 68.938698 L 232.342194 68.938698 L 228.601105 67.954201 L 226.632095 66.772797 L 225.0569 65.197601 L 224.072403 63.425499 L 223.678604 61.850304 L 223.678604 59.881302 L 223.284805 59.487503 L 222.694107 59.684402 L 222.300293 62.441002 L 222.103394 68.348 L 222.300293 69.135597 L 222.891006 69.726303 L 225.450699 70.7108 L 229.585602 71.498398 L 238.052307 71.301498 L 240.021301 70.9077 L 243.368607 69.529404 L 245.337601 68.1511 L 247.306595 66.182098 L 248.291107 64.803802 L 249.275604 62.637901 L 249.866302 60.078201 L 249.866302 56.337097 L 249.472504 54.565002 L 248.291107 51.611504 L 246.322098 48.854897 L 243.762405 46.295197 L 232.145294 37.828499 L 230.1763 35.859497 L 229.191803 34.481201 L 228.207306 31.527695 L 228.207306 29.361801 L 229.191803 26.802094 L 231.357697 24.833099 L 232.932907 24.045502 L 235.2957 23.454803 L 240.808899 23.651703 L 244.353104 25.029999 L 245.928299 26.605194 L 247.306595 30.543198 L 247.897293 30.543198 L 248.094193 30.149399 Z M 100.616096 12.428406 L 97.662598 19.910599 L 81.713699 64.016197 L 80.532303 66.378998 L 78.563301 68.544899 L 76.3974 69.529404 L 72.853203 69.923203 L 72.853203 70.317001 L 73.247002 70.7108 L 79.350899 70.7108 L 79.547798 70.513901 L 89.786598 70.7108 L 90.180397 70.120102 L 89.983498 69.726303 L 87.226898 69.529404 L 85.848602 68.544899 L 85.651703 68.1511 L 85.651703 65.7883 L 86.045502 64.016197 L 91.361801 48.657997 L 91.952499 48.264198 L 108.689003 48.264198 L 109.476601 49.248703 L 116.565002 67.954201 L 116.565002 68.741798 L 115.974297 69.529404 L 115.383598 69.726303 L 115.383598 70.317001 L 118.140198 70.7108 L 130.544907 70.7108 L 130.938705 70.513901 L 130.938705 69.726303 L 127.985199 69.529404 L 126.016197 68.741798 L 124.244102 67.166603 L 122.865799 65.197601 L 121.093697 61.653397 L 116.761902 50.823898 L 102.585098 13.806702 L 101.600601 12.231506 Z M 100.025398 23.651703 L 100.616096 24.439301 L 107.310699 43.341698 L 107.704498 45.507599 L 92.740097 44.916901 L 92.936996 43.735497 L 99.237801 24.6362 L 99.631599 23.848602 Z"/>
    </g>
</svg>
