<?xml version="1.0" encoding="UTF-8"?>
<svg xmlns="http://www.w3.org/2000/svg" viewBox="0 0 250 250" role="img" aria-label="Bain &amp; Company logo">
<title>Bain &amp; Company</title>
<g transform="translate(0 111.2671) scale(0.1221)">
<path fill="#cb2026" fill-rule="evenodd" d="M1612 49L1658 122L1658 175L1681 175L1681 122L1727 49L1702 49L1672 96L1669 98L1639 49ZM1229 49L1229 175L1253 174L1254 128L1261 129L1282 126L1295 120L1301 115L1309 102L1310 80L1303 65L1294 57L1286 53L1270 49ZM1254 67L1275 70L1285 79L1286 95L1284 99L1276 106L1266 109L1253 108ZM257 49L257 175L281 175L281 49ZM0 49L0 175L44 175L56 173L71 167L78 161L85 146L85 133L80 121L72 113L61 108L72 99L77 88L77 74L73 65L64 56L48 50ZM25 121L41 121L55 126L61 137L58 148L54 152L43 156L24 155ZM25 67L43 69L52 75L55 88L53 94L48 99L40 102L24 101ZM1476 47L1476 175L1499 175L1500 102L1583 178L1583 49L1559 49L1558 122ZM1062 47L1030 176L1054 175L1066 114L1069 108L1108 178L1145 109L1148 109L1162 175L1187 175L1154 47L1109 131ZM336 47L337 176L359 176L360 102L443 178L443 49L420 49L419 122ZM1383 46L1322 175L1346 175L1358 148L1407 148L1418 174L1444 175ZM1383 92L1398 127L1367 127ZM773 48L753 58L737 76L728 98L727 122L729 132L737 150L751 165L770 175L785 178L811 176L830 167L844 152L826 137L816 150L802 157L783 157L771 152L759 141L753 130L750 114L752 96L759 83L768 74L782 67L802 67L814 73L827 85L844 70L830 57L811 48L801 46L783 46ZM559 55L552 65L550 79L553 91L563 107L554 113L546 121L542 128L539 147L544 162L556 173L570 178L588 178L598 175L607 170L614 163L624 176L652 176L627 147L648 116L625 116L615 132L595 110L606 103L619 88L622 80L622 70L617 59L608 51L594 46L574 47ZM571 123L576 121L600 148L595 155L585 159L576 159L567 154L562 146L562 137L565 130ZM592 63L596 65L601 72L600 81L590 92L582 95L573 83L572 74L575 68L580 64ZM165 46L103 175L128 174L141 147L187 147L200 175L226 175ZM163 94L166 94L178 128L149 126ZM933 45L915 49L901 56L885 71L873 96L872 123L881 147L896 164L905 170L920 176L942 178L955 176L973 168L989 154L994 147L1002 128L1003 98L996 78L991 70L980 59L957 47ZM933 66L949 67L964 74L973 84L980 102L980 123L973 138L958 152L943 157L927 156L914 150L903 138L898 127L896 115L898 98L907 81L917 72ZM1954 27L1898 100L1975 117ZM1921 0L1894 7L1878 15L1858 30L1847 42L1837 57L1826 84L1823 101L1823 122L1826 140L1834 161L1848 183L1864 199L1886 213L1907 221L1925 224L1946 224L1963 221L1990 210L2005 200L2023 182L2037 160L2043 144L2047 126L2047 98L2039 68L2030 51L2021 39L1997 18L1980 9L1966 5L1969 19L1985 27L2002 40L2014 54L2024 73L2030 97L2030 116L2026 134L2020 149L2006 169L1992 182L1971 194L1955 199L1940 201L1915 199L1895 192L1877 181L1858 161L1846 139L1842 126L1840 110L1842 87L1847 71L1855 56L1864 44L1876 33L1904 18L1921 14L1944 13L1952 1Z"/>
</g>
</svg>
