<?xml version="1.0" encoding="UTF-8"?>
<!-- Generated by Pixelmator Pro 3.8 -->
<svg width="250" height="28" viewBox="0 0 250 28" xmlns="http://www.w3.org/2000/svg">
    <g id="Group">
        <path id="Path" fill="#cb2026" fill-rule="evenodd" stroke="none" d="M 196.825195 6.25 L 202.441803 15.1633 L 202.441803 21.634598 L 205.250107 21.634598 L 205.250107 15.1633 L 210.866699 6.25 L 207.814194 6.25 L 204.151199 11.988701 L 203.784897 12.232903 L 200.121902 6.25 Z M 150.060898 6.25 L 150.060898 21.634598 L 152.991302 21.512497 L 153.113403 15.895897 L 153.968094 16.017998 L 156.532196 15.651703 L 158.119507 14.919098 L 158.852097 14.308601 L 159.828903 12.721298 L 159.951004 10.035095 L 159.096298 8.203598 L 157.997406 7.226807 L 157.020599 6.738403 L 155.067001 6.25 Z M 153.113403 8.4478 L 155.677505 8.814102 L 156.898499 9.912994 L 157.020599 11.8666 L 156.776398 12.355003 L 155.799606 13.209702 L 154.578598 13.575996 L 152.991302 13.453903 Z M 31.3797 6.25 L 31.3797 21.634598 L 34.310101 21.634598 L 34.310101 6.25 Z M 0 6.25 L 0 21.634598 L 5.3724 21.634598 L 6.8376 21.390404 L 8.6691 20.657799 L 9.5238 19.925201 L 10.3785 18.093697 L 10.3785 16.506401 L 9.768 15.041199 L 8.7912 14.0644 L 7.4481 13.453903 L 8.7912 12.355003 L 9.4017 11.011902 L 9.4017 9.302505 L 8.9133 8.203598 L 7.8144 7.104706 L 5.8608 6.372101 Z M 3.0525 15.041199 L 5.0061 15.041199 L 6.7155 15.651703 L 7.4481 16.994797 L 7.0818 18.337898 L 6.5934 18.826302 L 5.2503 19.314697 L 2.9304 19.192596 Z M 3.0525 8.4478 L 5.2503 8.692001 L 6.3492 9.424606 L 6.7155 11.011902 L 6.4713 11.744499 L 5.8608 12.355003 L 4.884 12.721298 L 2.9304 12.599197 Z M 180.219604 6.005798 L 180.219604 21.634598 L 183.027893 21.634598 L 183.149994 12.721298 L 193.284302 22.0009 L 193.284302 6.25 L 190.353897 6.25 L 190.231796 15.1633 Z M 129.670197 6.005798 L 125.763 21.756699 L 128.693405 21.634598 L 130.1586 14.186501 L 130.524902 13.453903 L 135.286804 22.0009 L 139.804504 13.575996 L 140.170807 13.575996 L 141.880203 21.634598 L 144.932693 21.634598 L 140.903397 6.005798 L 135.408905 16.262199 Z M 41.0256 6.005798 L 41.147701 21.756699 L 43.8339 21.756699 L 43.956001 12.721298 L 54.090302 22.0009 L 54.090302 6.25 L 51.282001 6.25 L 51.159901 15.1633 Z M 168.864304 5.883698 L 161.416199 21.634598 L 164.346603 21.634598 L 165.811798 18.337898 L 171.794693 18.337898 L 173.137802 21.512497 L 176.312393 21.634598 Z M 168.864304 11.500298 L 170.695801 15.773804 L 166.910706 15.773804 Z M 94.383301 6.127899 L 91.941299 7.348907 L 89.987701 9.546707 L 88.888802 12.232903 L 88.766701 15.1633 L 89.010902 16.3843 L 89.987701 18.5821 L 91.697098 20.413597 L 94.016998 21.634598 L 95.848503 22.0009 L 99.023102 21.756699 L 101.343002 20.657799 L 103.052399 18.826302 L 100.854599 16.994797 L 99.633598 18.5821 L 97.924202 19.436798 L 95.604301 19.436798 L 94.139099 18.826302 L 92.673897 17.4832 L 91.941299 16.140099 L 91.574997 14.186501 L 91.819199 11.988701 L 92.673897 10.401398 L 93.772797 9.302505 L 95.482201 8.4478 L 97.924202 8.4478 L 99.389397 9.180405 L 100.9767 10.645599 L 103.052399 8.814102 L 101.343002 7.226807 L 99.023102 6.127899 L 97.802101 5.883698 L 95.604301 5.883698 Z M 68.253899 6.982605 L 67.3992 8.203598 L 67.154999 9.912994 L 67.521301 11.378197 L 68.742302 13.331802 L 67.643402 14.0644 L 66.666603 15.041199 L 66.1782 15.895897 L 65.811897 18.215797 L 66.422401 20.047302 L 67.887604 21.390404 L 69.597 22.0009 L 71.7948 22.0009 L 73.0158 21.634598 L 74.1147 21.024101 L 74.969398 20.169403 L 76.190399 21.756699 L 79.6092 21.756699 L 76.556702 18.215797 L 79.120796 14.430702 L 76.3125 14.430702 L 75.091499 16.3843 L 72.649498 13.698097 L 73.992599 12.843399 L 75.579903 11.011902 L 75.946198 10.035095 L 75.946198 8.814102 L 75.335701 7.470993 L 74.236801 6.494202 L 72.527397 5.883698 L 70.085403 6.005798 Z M 69.719101 15.2854 L 70.329597 15.041199 L 73.260002 18.337898 L 72.649498 19.192596 L 71.428497 19.681 L 70.329597 19.681 L 69.230698 19.070503 L 68.620201 18.093697 L 68.620201 16.994797 L 68.986504 16.140099 Z M 72.283203 7.959396 L 72.771599 8.203598 L 73.382103 9.058304 L 73.260002 10.157196 L 72.039001 11.500298 L 71.062202 11.8666 L 69.963303 10.401398 L 69.841202 9.302505 L 70.207497 8.569901 L 70.818001 8.081497 Z M 20.1465 5.883698 L 12.5763 21.634598 L 15.6288 21.512497 L 17.216101 18.215797 L 22.832701 18.215797 L 24.42 21.634598 L 27.594601 21.634598 Z M 19.9023 11.744499 L 20.2686 11.744499 L 21.733801 15.895897 L 18.1929 15.651703 Z M 113.919296 5.761597 L 111.721497 6.25 L 110.0121 7.104706 L 108.058502 8.936203 L 106.5933 11.988701 L 106.471199 15.2854 L 107.570099 18.215797 L 109.401604 20.291496 L 110.500504 21.024101 L 112.332001 21.756699 L 115.018204 22.0009 L 116.605499 21.756699 L 118.803299 20.7799 L 120.756897 19.070503 L 121.367401 18.215797 L 122.3442 15.895897 L 122.466301 12.232903 L 121.611603 9.790894 L 121.001099 8.814102 L 119.657997 7.470993 L 116.849701 6.005798 Z M 113.919296 8.325699 L 115.872902 8.4478 L 117.704399 9.302505 L 118.803299 10.523499 L 119.657997 12.721298 L 119.657997 15.2854 L 118.803299 17.116898 L 116.971802 18.826302 L 115.140297 19.436798 L 113.186699 19.314697 L 111.599403 18.5821 L 110.256302 17.116898 L 109.645798 15.773804 L 109.401604 14.308601 L 109.645798 12.232903 L 110.744698 10.157196 L 111.965698 9.058304 Z M 238.583405 3.563797 L 231.745804 12.477097 L 241.147507 14.552803 Z M 234.554092 0.267105 L 231.257401 1.121796 L 229.303802 2.098602 L 226.861801 3.930099 L 225.518707 5.395294 L 224.297699 7.226807 L 222.954605 10.523499 L 222.588303 12.599197 L 222.588303 15.1633 L 222.954605 17.361099 L 223.931396 19.925201 L 225.640793 22.611397 L 227.594406 24.565002 L 230.280594 26.274399 L 232.844696 27.251198 L 235.042496 27.6175 L 237.606598 27.6175 L 239.682297 27.251198 L 242.979004 25.908096 L 244.810501 24.687103 L 247.008301 22.489304 L 248.717697 19.803101 L 249.450302 17.849503 L 249.938705 15.651703 L 249.938705 12.232903 L 248.961899 8.569901 L 247.863007 6.494202 L 246.764099 5.029007 L 243.833694 2.464905 L 241.757996 1.365997 L 240.048599 0.877594 L 240.414902 2.587006 L 242.3685 3.563797 L 244.444199 5.151093 L 245.909393 6.860504 L 247.130402 9.180405 L 247.863007 12.110802 L 247.863007 14.430702 L 247.374603 16.628502 L 246.641998 18.459999 L 244.932602 20.902 L 243.223206 22.489304 L 240.659103 23.954498 L 238.705505 24.565002 L 236.873993 24.809196 L 233.821503 24.565002 L 231.379501 23.710297 L 229.181702 22.367203 L 226.861801 19.925201 L 225.396606 17.238998 L 224.908203 15.651703 L 224.664001 13.698097 L 224.908203 10.889801 L 225.518707 8.936203 L 226.495499 7.104706 L 227.594406 5.639496 L 229.059601 4.296402 L 232.478394 2.464905 L 234.554092 1.976501 L 237.362396 1.854401 L 238.339203 0.389206 Z"/>
    </g>
</svg>
