<?xml version="1.0" encoding="UTF-8"?>
<!-- Generated by Pixelmator Pro 3.8 -->
<svg width="250" height="70" viewBox="0 0 250 70" xmlns="http://www.w3.org/2000/svg">
    <g id="Group">
        <path id="Path" fill="#cb2026" fill-rule="evenodd" stroke="none" d="M 196.825195 27.25 L 202.441803 36.1633 L 202.441803 42.634598 L 205.250107 42.634598 L 205.250107 36.1633 L 210.866699 27.25 L 207.814194 27.25 L 204.151199 32.988701 L 203.784897 33.232903 L 200.121902 27.25 Z M 150.060898 27.25 L 150.060898 42.634598 L 152.991302 42.512497 L 153.113403 36.895897 L 153.968094 37.017998 L 156.532196 36.651703 L 158.119507 35.919098 L 158.852097 35.308601 L 159.828903 33.721298 L 159.951004 31.035095 L 159.096298 29.203598 L 157.997406 28.226807 L 157.020599 27.738403 L 155.067001 27.25 Z M 153.113403 29.4478 L 155.677505 29.814102 L 156.898499 30.912994 L 157.020599 32.8666 L 156.776398 33.355003 L 155.799606 34.209702 L 154.578598 34.575996 L 152.991302 34.453903 Z M 31.3797 27.25 L 31.3797 42.634598 L 34.310101 42.634598 L 34.310101 27.25 Z M 0 27.25 L 0 42.634598 L 5.3724 42.634598 L 6.8376 42.390404 L 8.6691 41.657799 L 9.5238 40.925201 L 10.3785 39.093697 L 10.3785 37.506401 L 9.768 36.041199 L 8.7912 35.0644 L 7.4481 34.453903 L 8.7912 33.355003 L 9.4017 32.011902 L 9.4017 30.302505 L 8.9133 29.203598 L 7.8144 28.104706 L 5.8608 27.372101 Z M 3.0525 36.041199 L 5.0061 36.041199 L 6.7155 36.651703 L 7.4481 37.994797 L 7.0818 39.337898 L 6.5934 39.826302 L 5.2503 40.314697 L 2.9304 40.192596 Z M 3.0525 29.4478 L 5.2503 29.692001 L 6.3492 30.424606 L 6.7155 32.011902 L 6.4713 32.744499 L 5.8608 33.355003 L 4.884 33.721298 L 2.9304 33.599197 Z M 180.219604 27.005798 L 180.219604 42.634598 L 183.027893 42.634598 L 183.149994 33.721298 L 193.284302 43.0009 L 193.284302 27.25 L 190.353897 27.25 L 190.231796 36.1633 Z M 129.670197 27.005798 L 125.763 42.756699 L 128.693405 42.634598 L 130.1586 35.186501 L 130.524902 34.453903 L 135.286804 43.0009 L 139.804504 34.575996 L 140.170807 34.575996 L 141.880203 42.634598 L 144.932693 42.634598 L 140.903397 27.005798 L 135.408905 37.262199 Z M 41.0256 27.005798 L 41.147701 42.756699 L 43.8339 42.756699 L 43.956001 33.721298 L 54.090302 43.0009 L 54.090302 27.25 L 51.282001 27.25 L 51.159901 36.1633 Z M 168.864304 26.883698 L 161.416199 42.634598 L 164.346603 42.634598 L 165.811798 39.337898 L 171.794693 39.337898 L 173.137802 42.512497 L 176.312393 42.634598 Z M 168.864304 32.500298 L 170.695801 36.773804 L 166.910706 36.773804 Z M 94.383301 27.127899 L 91.941299 28.348907 L 89.987701 30.546707 L 88.888802 33.232903 L 88.766701 36.1633 L 89.010902 37.3843 L 89.987701 39.5821 L 91.697098 41.413597 L 94.016998 42.634598 L 95.848503 43.0009 L 99.023102 42.756699 L 101.343002 41.657799 L 103.052399 39.826302 L 100.854599 37.994797 L 99.633598 39.5821 L 97.924202 40.436798 L 95.604301 40.436798 L 94.139099 39.826302 L 92.673897 38.4832 L 91.941299 37.140099 L 91.574997 35.186501 L 91.819199 32.988701 L 92.673897 31.401398 L 93.772797 30.302505 L 95.482201 29.4478 L 97.924202 29.4478 L 99.389397 30.180405 L 100.9767 31.645599 L 103.052399 29.814102 L 101.343002 28.226807 L 99.023102 27.127899 L 97.802101 26.883698 L 95.604301 26.883698 Z M 68.253899 27.982605 L 67.3992 29.203598 L 67.154999 30.912994 L 67.521301 32.378197 L 68.742302 34.331802 L 67.643402 35.0644 L 66.666603 36.041199 L 66.1782 36.895897 L 65.811897 39.215797 L 66.422401 41.047302 L 67.887604 42.390404 L 69.597 43.0009 L 71.7948 43.0009 L 73.0158 42.634598 L 74.1147 42.024101 L 74.969398 41.169403 L 76.190399 42.756699 L 79.6092 42.756699 L 76.556702 39.215797 L 79.120796 35.430702 L 76.3125 35.430702 L 75.091499 37.3843 L 72.649498 34.698097 L 73.992599 33.843399 L 75.579903 32.011902 L 75.946198 31.035095 L 75.946198 29.814102 L 75.335701 28.470993 L 74.236801 27.494202 L 72.527397 26.883698 L 70.085403 27.005798 Z M 69.719101 36.2854 L 70.329597 36.041199 L 73.260002 39.337898 L 72.649498 40.192596 L 71.428497 40.681 L 70.329597 40.681 L 69.230698 40.070503 L 68.620201 39.093697 L 68.620201 37.994797 L 68.986504 37.140099 Z M 72.283203 28.959396 L 72.771599 29.203598 L 73.382103 30.058304 L 73.260002 31.157196 L 72.039001 32.500298 L 71.062202 32.8666 L 69.963303 31.401398 L 69.841202 30.302505 L 70.207497 29.569901 L 70.818001 29.081497 Z M 20.1465 26.883698 L 12.5763 42.634598 L 15.6288 42.512497 L 17.216101 39.215797 L 22.832701 39.215797 L 24.42 42.634598 L 27.594601 42.634598 Z M 19.9023 32.744499 L 20.2686 32.744499 L 21.733801 36.895897 L 18.1929 36.651703 Z M 113.919296 26.761597 L 111.721497 27.25 L 110.0121 28.104706 L 108.058502 29.936203 L 106.5933 32.988701 L 106.471199 36.2854 L 107.570099 39.215797 L 109.401604 41.291496 L 110.500504 42.024101 L 112.332001 42.756699 L 115.018204 43.0009 L 116.605499 42.756699 L 118.803299 41.7799 L 120.756897 40.070503 L 121.367401 39.215797 L 122.3442 36.895897 L 122.466301 33.232903 L 121.611603 30.790894 L 121.001099 29.814102 L 119.657997 28.470993 L 116.849701 27.005798 Z M 113.919296 29.325699 L 115.872902 29.4478 L 117.704399 30.302505 L 118.803299 31.523499 L 119.657997 33.721298 L 119.657997 36.2854 L 118.803299 38.116898 L 116.971802 39.826302 L 115.140297 40.436798 L 113.186699 40.314697 L 111.599403 39.5821 L 110.256302 38.116898 L 109.645798 36.773804 L 109.401604 35.308601 L 109.645798 33.232903 L 110.744698 31.157196 L 111.965698 30.058304 Z M 238.583405 24.563797 L 231.745804 33.477097 L 241.147507 35.552803 Z M 234.554092 21.267105 L 231.257401 22.121796 L 229.303802 23.098602 L 226.861801 24.930099 L 225.518707 26.395294 L 224.297699 28.226807 L 222.954605 31.523499 L 222.588303 33.599197 L 222.588303 36.1633 L 222.954605 38.361099 L 223.931396 40.925201 L 225.640793 43.611397 L 227.594406 45.565002 L 230.280594 47.274399 L 232.844696 48.251198 L 235.042496 48.6175 L 237.606598 48.6175 L 239.682297 48.251198 L 242.979004 46.908096 L 244.810501 45.687103 L 247.008301 43.489304 L 248.717697 40.803101 L 249.450302 38.849503 L 249.938705 36.651703 L 249.938705 33.232903 L 248.961899 29.569901 L 247.863007 27.494202 L 246.764099 26.029007 L 243.833694 23.464905 L 241.757996 22.365997 L 240.048599 21.877594 L 240.414902 23.587006 L 242.3685 24.563797 L 244.444199 26.151093 L 245.909393 27.860504 L 247.130402 30.180405 L 247.863007 33.110802 L 247.863007 35.430702 L 247.374603 37.628502 L 246.641998 39.459999 L 244.932602 41.902 L 243.223206 43.489304 L 240.659103 44.954498 L 238.705505 45.565002 L 236.873993 45.809196 L 233.821503 45.565002 L 231.379501 44.710297 L 229.181702 43.367203 L 226.861801 40.925201 L 225.396606 38.238998 L 224.908203 36.651703 L 224.664001 34.698097 L 224.908203 31.889801 L 225.518707 29.936203 L 226.495499 28.104706 L 227.594406 26.639496 L 229.059601 25.296402 L 232.478394 23.464905 L 234.554092 22.976501 L 237.362396 22.854401 L 238.339203 21.389206 Z"/>
    </g>
</svg>
