<svg xmlns="http://www.w3.org/2000/svg" role="img" aria-label="Banca d'Italia logo" viewBox="0 0 250 250">
<title>Banca d'Italia</title>
<path fill="#005195" fill-rule="evenodd" d="M0 131.445L0.781 137.695L1.367 138.867L3.711 140.625L7.031 140.625L9.57 138.867L8.594 137.695L6.25 139.258L2.734 138.672L1.367 137.305L1.367 136.328L3.711 137.695L6.055 137.695L7.812 136.719L7.031 135.742L3.516 136.133L2.148 135.547L1.172 134.57L1.758 133.594L3.711 132.227L5.859 131.836L7.617 132.422L9.57 134.375L18.359 146.094L16.406 147.461L14.844 147.656L14.062 146.484L14.258 143.164L13.281 142.383L12.695 143.164L12.305 146.094L11.328 143.555L11.719 141.016L10.742 140.039L9.961 141.406L10.156 144.922L10.938 146.289L13.086 147.656L14.062 149.023L16.992 150.391L19.922 150.195L21.875 149.219L23.828 150.195L26.953 150.391L29.297 149.414L33.008 146.094L33.594 144.922L33.984 142.188L33.203 140.039L32.031 141.016L32.422 143.945L31.445 146.289L30.664 142.383L29.492 143.164L29.883 145.508L29.297 147.461L27.539 147.461L25.586 146.094L34.375 134.18L35.938 132.617L37.891 131.836L39.648 132.031L42.383 133.984L42.578 134.766L41.016 135.938L36.914 135.742L36.133 136.719L37.695 137.695L40.039 137.695L42.578 136.133L42.578 137.109L41.016 138.672L37.5 139.258L35.156 137.695L34.18 138.867L36.719 140.625L39.258 140.82L41.211 140.039L42.773 138.281L43.75 133.984L43.359 129.883L41.406 127.344L38.867 126.367L34.57 126.953L31.25 129.492L21.875 141.992L12.891 129.883L8.789 126.758L4.883 126.367L2.734 127.148L0.977 128.906ZM0 116.016L0.391 119.727L2.148 122.266L5.078 123.438L9.18 122.852L12.695 120.117L21.875 107.812L31.25 120.312L33.789 122.461L36.523 123.438L39.844 123.242L42.578 121.289L43.75 118.75L43.75 115.82L42.773 111.523L40.039 109.18L36.328 109.375L34.375 111.133L35.156 112.109L37.5 110.547L41.016 111.133L42.578 112.695L42.578 113.672L40.039 112.109L37.109 112.305L36.133 113.281L36.914 114.062L41.016 113.867L42.383 114.844L42.383 115.82L40.234 117.578L37.891 117.969L36.523 117.578L34.375 115.625L25.586 103.516L27.344 102.344L29.102 102.148L29.883 104.297L29.492 106.641L30.469 107.422L31.25 106.25L31.445 103.516L32.422 105.859L32.031 108.789L33.008 109.766L33.984 107.617L33.398 104.297L29.297 100.391L26.953 99.414L23.828 99.609L21.875 100.586L18.945 99.414L16.992 99.414L14.844 100.195L13.086 102.148L11.523 102.93L10.156 104.883L10.352 109.375L10.742 109.766L11.719 108.789L11.328 106.25L12.305 103.711L13.086 107.422L14.453 106.445L14.062 103.516L14.844 102.148L16.406 102.344L18.359 103.711L9.57 115.43L7.617 117.383L5.859 117.969L3.711 117.578L1.758 116.211L1.172 115.234L3.32 113.672L6.836 114.062L7.812 113.086L6.055 112.109L3.711 112.109L1.367 113.477L1.367 112.5L2.734 111.133L6.25 110.547L8.594 112.109L9.57 110.938L7.617 109.375L4.492 108.984L2.539 109.766L1.367 110.938ZM148.047 105.664L148.047 105.859L148.242 105.859L148.828 106.445L148.828 106.641L149.023 106.836L149.023 107.422L149.219 107.617L149.219 120.703L149.023 120.898L149.023 121.484L148.828 121.68L148.828 121.875L147.852 122.852L147.656 122.852L147.656 123.047L148.633 123.047L148.828 122.852L153.516 122.852L153.711 123.047L156.25 123.047L156.445 122.852L157.812 122.852L158.008 122.656L158.594 122.656L158.789 122.461L159.18 122.461L159.375 122.266L159.57 122.266L159.766 122.07L160.742 121.68L161.133 121.289L161.328 121.289L162.695 119.922L162.695 119.727L163.086 119.336L163.086 119.141L163.867 117.773L163.867 117.383L164.062 117.188L164.062 116.797L164.258 116.602L164.258 115.82L164.453 115.625L164.453 112.305L164.258 112.109L164.258 111.523L164.062 111.328L164.062 110.938L163.867 110.742L163.867 110.352L163.672 110.156L163.477 109.57L162.5 108.398L162.5 108.203L161.914 107.617L161.719 107.617L160.547 106.641L160.352 106.641L159.766 106.25L158.789 106.055L158.594 105.859L158.008 105.859L157.812 105.664ZM54.492 105.664L54.492 105.859L54.688 105.859L55.273 106.445L55.273 106.641L55.469 106.836L55.469 107.617L55.664 107.812L55.664 119.531L55.469 119.727L55.469 121.094L55.273 121.289L55.273 121.68L55.078 121.875L54.883 122.461L54.688 122.656L54.102 122.852L54.102 123.047L54.688 123.047L54.883 122.852L59.766 122.852L59.961 123.047L62.695 123.047L62.891 122.852L64.648 122.852L64.844 122.656L65.43 122.656L65.625 122.461L66.211 122.266L66.602 121.875L66.797 121.875L67.773 120.898L67.773 120.703L68.164 120.312L68.164 119.922L68.359 119.727L68.359 119.336L68.555 119.141L68.555 117.188L68.359 116.992L68.359 116.602L68.164 116.406L68.164 116.211L67.578 115.625L67.578 115.43L67.383 115.43L66.797 114.844L66.602 114.844L65.625 114.258L65.234 114.258L65.039 114.062L64.258 114.062L64.062 113.867L63.281 113.867L63.086 113.672L63.281 113.477L63.867 113.477L64.062 113.281L65.039 113.086L65.43 112.695L65.625 112.695L66.016 112.305L66.211 112.305L66.797 111.523L66.797 111.328L67.188 110.742L67.188 110.156L67.383 109.961L67.383 109.18L67.188 108.984L67.188 108.398L66.992 108.203L66.992 107.812L66.406 107.227L66.406 107.031L66.211 107.031L65.82 106.641L65.625 106.641L65.039 106.25L64.648 106.25L64.453 106.055L64.062 106.055L63.867 105.859L62.891 105.859L62.695 105.664ZM150.977 106.055L155.859 106.055L156.055 106.25L157.422 106.25L157.617 106.445L158.008 106.445L158.203 106.641L158.594 106.641L158.789 106.836L159.375 107.031L159.766 107.422L159.961 107.422L160.742 108.203L160.742 108.398L161.133 108.789L161.133 108.984L161.523 109.57L161.523 109.961L161.719 110.156L161.719 110.547L161.914 110.742L161.914 111.719L162.109 111.914L162.109 116.211L161.914 116.406L161.914 117.383L161.719 117.578L161.719 118.164L161.523 118.359L161.523 118.75L161.328 118.945L161.328 119.141L161.133 119.336L160.938 119.922L159.18 121.68L158.984 121.68L158.789 121.875L158.398 121.875L158.203 122.07L157.812 122.07L157.617 122.266L156.836 122.266L156.641 122.461L152.734 122.461L152.539 122.266L151.953 122.266L151.172 121.484L151.172 121.094L150.977 120.898L150.977 119.727L150.781 119.531L150.781 106.25ZM21.289 114.258L21.094 114.453L21.875 115.039L22.266 116.211L22.07 123.828L18.945 123.633L18.945 116.797L21.68 116.602L21.484 116.016L16.211 116.211L16.992 116.992L17.383 118.555L17.383 129.102L16.992 131.836L15.82 133.203L21.289 133.008L21.484 132.617L19.727 132.422L19.141 131.836L18.945 124.414L22.07 124.219L22.266 124.414L22.07 132.422L21.484 134.18L20.703 134.961L21.68 134.766L25.586 134.961L24.805 134.18L24.219 132.227L24.219 124.609L24.805 124.414L26.758 125.391L27.93 127.344L27.93 129.688L27.344 131.055L26.562 131.836L24.805 132.422L25 133.008L26.758 132.812L28.711 131.641L29.688 130.273L30.078 128.516L29.883 127.148L28.32 125.195L24.805 124.023L27.148 123.047L28.32 121.875L28.711 120.898L28.711 118.945L27.93 117.578L27.148 116.992L24.805 116.406L24.805 116.992L25.586 117.383L26.562 118.555L26.758 121.094L26.367 122.07L25.195 123.242L24.414 123.438L24.219 115.82L25.195 114.258L24.023 114.453ZM57.227 114.062L57.422 113.867L61.328 113.867L61.523 114.062L63.086 114.062L63.281 114.258L63.672 114.258L63.867 114.453L64.258 114.453L64.453 114.648L64.648 114.648L65.039 115.039L65.234 115.039L65.625 115.43L65.625 115.625L66.016 116.016L66.016 116.211L66.406 116.797L66.406 117.773L66.602 117.969L66.602 118.555L66.406 118.75L66.406 119.727L66.211 119.922L66.211 120.312L66.016 120.508L66.016 120.703L64.844 121.875L64.648 121.875L64.453 122.07L64.062 122.07L63.867 122.266L63.086 122.266L62.891 122.461L58.594 122.461L58.398 122.266L58.008 122.266L57.617 121.875L57.617 121.68L57.422 121.484L57.422 120.703L57.227 120.508ZM1.562 129.688L2.734 128.711L2.93 128.711L3.906 128.125L4.492 128.125L4.688 127.93L7.227 127.93L7.422 128.125L8.008 128.125L8.203 128.32L8.398 128.32L8.594 128.516L9.57 128.906L10.156 129.492L10.352 129.492L11.523 130.664L11.523 130.859L12.305 131.641L12.305 131.836L12.891 132.422L12.891 132.617L13.477 133.203L13.477 133.398L14.062 133.984L14.062 134.18L15.234 135.547L15.234 135.742L15.625 136.133L15.625 136.328L16.211 136.914L16.211 137.109L16.797 137.695L16.797 137.891L17.383 138.477L17.383 138.672L18.555 140.039L18.555 140.234L18.945 140.625L18.945 140.82L19.531 141.406L19.531 141.602L20.117 142.188L20.117 142.383L20.898 143.164L20.898 143.359L20.508 143.75L20.508 143.945L19.531 144.922L19.336 144.922L18.555 144.141L18.555 143.945L17.969 143.359L17.969 143.164L16.797 141.797L16.797 141.602L16.406 141.211L16.406 141.016L15.82 140.43L15.82 140.234L15.234 139.648L15.234 139.453L14.648 138.867L14.648 138.672L13.477 137.305L13.477 137.109L13.086 136.719L13.086 136.523L12.5 135.938L12.5 135.742L11.914 135.156L11.914 134.961L11.328 134.375L11.328 134.18L10.742 133.594L10.742 133.398L10.156 132.812L10.156 132.617L9.18 131.641L8.984 131.641L8.008 130.859L7.617 130.859L7.031 130.469L5.859 130.469L5.664 130.273L5.273 130.273L5.078 130.469L4.297 130.469L4.102 130.664L3.711 130.664L3.516 130.859L2.93 131.055L1.758 132.031L1.758 132.227L1.367 132.617L1.367 132.812L0.781 133.789L0.586 133.594L0.586 133.008L0.391 132.812L0.391 132.227L0.586 132.031L0.586 131.445L0.781 131.25L0.781 130.859L0.977 130.664L0.977 130.469L1.562 129.883ZM20.508 105.859L20.508 106.055L20.898 106.445L20.898 106.641L20.117 107.422L20.117 107.617L19.531 108.203L19.531 108.398L18.359 109.766L18.359 109.961L17.969 110.352L17.969 110.547L17.383 111.133L17.383 111.328L16.797 111.914L16.797 112.109L16.211 112.695L16.211 112.891L15.039 114.258L15.039 114.453L14.648 114.844L14.648 115.039L14.062 115.625L14.062 115.82L13.477 116.406L13.477 116.602L12.891 117.188L12.891 117.383L12.305 117.969L12.305 118.164L11.523 118.945L11.523 119.141L9.57 120.898L9.375 120.898L8.008 121.68L7.422 121.68L7.227 121.875L4.883 121.875L4.688 121.68L4.102 121.68L3.906 121.484L3.516 121.484L3.32 121.289L2.734 121.094L1.562 120.117L1.562 119.922L0.781 118.945L0.781 118.555L0.586 118.359L0.586 117.773L0.391 117.578L0.391 116.797L0.586 116.602L0.586 116.211L0.781 116.016L0.977 116.211L1.367 117.188L1.953 117.773L1.953 117.969L2.148 118.164L2.344 118.164L2.93 118.75L3.125 118.75L3.711 119.141L5.664 119.531L5.859 119.336L7.031 119.336L7.617 118.945L8.008 118.945L8.398 118.555L8.594 118.555L8.984 118.164L9.18 118.164L10.156 117.188L10.156 116.992L10.742 116.406L10.742 116.211L11.328 115.625L11.328 115.43L12.5 114.062L12.5 113.867L12.891 113.477L12.891 113.281L13.477 112.695L13.477 112.5L14.062 111.914L14.062 111.719L14.648 111.133L14.648 110.938L15.82 109.57L15.82 109.375L16.211 108.984L16.211 108.789L16.797 108.203L16.797 108.008L17.383 107.422L17.383 107.227L17.969 106.641L17.969 106.445L18.555 105.859L18.555 105.664L19.141 105.078L19.141 104.883L19.336 104.688ZM22.852 106.445L23.438 105.859L23.438 105.664L24.414 104.688L24.609 104.883L24.609 105.078L25.977 106.641L25.977 106.836L26.562 107.422L26.562 107.617L27.148 108.203L27.148 108.398L27.539 108.789L27.539 108.984L28.125 109.57L28.125 109.766L28.711 110.352L28.711 110.547L29.297 111.133L29.297 111.328L29.883 111.914L29.883 112.109L30.469 112.695L30.469 112.891L31.055 113.477L31.055 113.672L31.445 114.062L31.445 114.258L32.031 114.844L32.031 115.039L32.617 115.625L32.617 115.82L33.203 116.406L33.203 116.602L35.156 118.555L35.352 118.555L36.328 119.141L36.719 119.141L36.914 119.336L37.695 119.336L37.891 119.531L38.672 119.531L38.867 119.336L39.648 119.336L39.844 119.141L40.234 119.141L40.43 118.945L40.625 118.945L41.016 118.555L41.211 118.555L42.188 117.578L42.188 117.383L42.578 116.992L42.578 116.797L42.969 116.211L43.359 116.602L43.359 117.969L43.164 118.164L43.164 118.555L42.969 118.75L42.578 119.727L41.406 120.898L41.211 120.898L40.82 121.289L40.43 121.289L39.844 121.68L39.258 121.68L39.062 121.875L36.523 121.875L36.328 121.68L35.742 121.68L35.547 121.484L34.57 121.094L34.18 120.703L33.984 120.703L31.641 118.359L31.641 118.164L31.055 117.578L31.055 117.383L30.469 116.797L30.469 116.602L29.883 116.016L29.883 115.82L28.711 114.453L28.711 114.258L28.32 113.867L28.32 113.672L27.734 113.086L27.734 112.891L27.148 112.305L27.148 112.109L26.562 111.523L26.562 111.328L25.391 109.961L25.391 109.766L25 109.375L25 109.18L24.414 108.594L24.414 108.398L23.828 107.812L23.828 107.617L23.047 106.836L23.047 106.641ZM42.383 129.883L42.383 130.078L42.773 130.469L42.773 130.664L43.164 131.25L43.164 131.641L43.359 131.836L43.359 133.203L42.969 133.594L42.773 133.398L42.578 132.812L42.188 132.422L42.188 132.227L41.211 131.25L41.016 131.25L39.648 130.469L38.672 130.469L38.477 130.273L38.281 130.273L38.086 130.469L36.914 130.469L36.719 130.664L36.328 130.664L36.133 130.859L35.156 131.25L33.203 133.203L33.203 133.398L32.617 133.984L32.617 134.18L32.031 134.766L32.031 134.961L30.859 136.328L30.859 136.523L30.469 136.914L30.469 137.109L29.883 137.695L29.883 137.891L29.297 138.477L29.297 138.672L28.711 139.258L28.711 139.453L27.539 140.82L27.539 141.016L27.148 141.406L27.148 141.602L26.562 142.188L26.562 142.383L25.977 142.969L25.977 143.164L25.391 143.75L25.391 143.945L24.609 144.727L24.609 144.922L24.414 145.117L23.828 144.531L23.828 144.336L22.852 143.359L23.047 143.164L23.047 142.969L24.414 141.406L24.414 141.211L25 140.625L25 140.43L25.586 139.844L25.586 139.648L25.977 139.258L25.977 139.062L26.562 138.477L26.562 138.281L27.148 137.695L27.148 137.5L27.734 136.914L27.734 136.719L28.32 136.133L28.32 135.938L28.906 135.352L28.906 135.156L29.297 134.766L29.297 134.57L29.883 133.984L29.883 133.789L30.469 133.203L30.469 133.008L31.055 132.422L31.055 132.227L31.641 131.641L31.641 131.445L33.984 129.102L34.18 129.102L34.57 128.711L34.766 128.711L35.742 128.125L36.328 128.125L36.523 127.93L39.062 127.93L39.258 128.125L39.844 128.125L40.039 128.32L40.234 128.32L40.43 128.516L41.406 128.906ZM88.281 105.664L89.258 106.445L89.648 107.422L89.648 120.117L89.062 122.07L87.891 123.047L89.062 123.047L89.258 122.852L91.602 123.047L90.82 122.266L90.234 120.703L90.234 108.008L90.43 107.812L94.922 113.672L100.781 122.266L101.367 123.438L101.562 123.438L101.562 122.852L101.758 122.656L101.758 108.008L102.148 106.641L103.125 105.664L99.609 105.664L100.586 106.641L101.172 108.398L101.172 118.75L100.977 118.945L94.336 109.57L93.164 108.203L91.602 105.664ZM241.992 105.078L241.211 106.641L241.211 107.031L240.82 107.617L240.82 108.008L240.234 108.984L240.234 109.375L239.844 109.961L239.844 110.352L239.258 111.328L239.258 111.719L238.867 112.305L238.867 112.695L238.281 113.672L238.281 114.062L237.891 114.648L237.891 115.039L237.305 116.016L237.305 116.406L236.914 116.992L236.914 117.383L236.328 118.359L236.328 118.75L234.961 121.484L233.789 122.852L233.984 123.047L234.375 123.047L234.57 122.852L236.719 122.852L237.109 123.047L237.305 122.852L236.914 122.656L236.328 121.875L236.328 120.117L236.523 119.922L236.523 119.336L236.719 119.141L236.914 118.164L237.305 117.578L237.305 117.188L237.891 116.211L237.891 115.82L238.281 115.234L238.281 114.844L238.672 114.453L243.75 114.453L244.336 115.234L244.531 116.211L244.922 116.797L244.922 117.188L245.508 118.359L245.508 118.75L245.703 118.945L245.703 119.336L246.094 120.117L246.094 120.703L246.289 120.898L246.289 122.266L245.703 122.852L245.508 122.852L245.703 123.047L245.898 122.852L246.094 123.047L246.289 122.852L249.219 122.852L249.414 123.047L249.805 122.852L248.828 121.875L248.828 121.68L248.242 120.898L248.242 120.508L247.852 119.922L247.852 119.531L247.461 118.945L247.461 118.555L247.07 117.969L247.07 117.578L246.68 116.992L246.68 116.602L246.289 116.016L246.289 115.625L245.898 115.039L245.898 114.648L245.508 114.062L245.508 113.672L245.117 113.086L245.117 112.695L244.727 112.109L244.727 111.719L244.336 111.133L244.336 110.742L243.945 110.156L243.945 109.766L243.555 109.18L243.555 108.789L243.164 108.203L243.164 107.812L242.773 107.227L242.773 106.836L242.383 106.25L242.383 105.859ZM77.93 105.273L77.539 105.469L77.539 105.859L77.148 106.445L77.148 106.836L76.562 107.812L76.562 108.203L75.586 110.156L75.586 110.547L75.195 111.133L75.195 111.523L74.609 112.5L74.609 112.891L74.219 113.477L74.219 113.867L73.633 114.844L73.633 115.234L73.242 115.82L73.242 116.211L72.656 117.188L72.656 117.578L72.266 118.164L72.266 118.555L70.703 121.68L70.117 122.266L69.727 123.047L70.312 123.047L70.508 122.852L72.266 122.852L72.461 123.047L73.047 123.047L73.242 122.852L73.047 122.852L72.266 122.07L72.07 121.68L72.07 120.508L72.266 120.312L72.266 119.727L72.461 119.531L72.461 119.141L72.656 118.945L72.852 117.969L73.242 117.383L73.242 116.992L73.633 116.406L73.633 116.016L74.414 114.453L79.688 114.453L80.078 115.039L80.273 116.016L81.055 117.578L81.055 117.969L81.25 118.164L81.25 118.555L81.445 118.75L81.445 119.141L81.641 119.336L81.641 119.727L82.031 120.508L82.031 121.289L82.227 121.484L82.227 121.875L82.031 122.07L82.031 122.461L81.641 122.656L81.445 123.047L82.031 123.047L82.227 122.852L84.766 122.852L84.961 123.047L85.547 123.047L85.547 122.852L84.766 122.07L84.766 121.875L84.375 121.484L83.984 120.703L83.984 120.312L83.594 119.727L83.594 119.336L83.203 118.75L83.203 118.359L82.812 117.773L82.812 117.383L82.422 116.797L82.422 116.406L82.031 115.82L82.031 115.43L81.641 114.844L81.641 114.453L81.25 113.867L81.25 113.477L80.859 112.891L80.859 112.5L80.469 111.914L80.469 111.523L80.078 110.938L79.883 109.961L79.492 109.375L79.492 108.984L79.102 108.398L79.102 108.008L78.711 107.422L78.711 107.031L78.32 106.445L78.32 106.055ZM132.031 105.273L131.641 105.469L131.641 105.859L131.25 106.445L131.25 106.836L130.664 107.812L130.664 108.203L129.688 110.156L129.688 110.547L129.297 111.133L129.297 111.523L128.711 112.5L128.711 112.891L128.32 113.477L128.32 113.867L127.734 114.844L127.734 115.234L127.344 115.82L127.344 116.211L126.758 117.188L126.758 117.578L126.367 118.164L126.367 118.555L124.805 121.68L124.219 122.266L123.828 123.047L124.609 123.047L124.805 122.852L126.367 122.852L126.562 123.047L127.148 123.047L127.344 122.852L127.148 122.852L126.367 122.07L126.172 121.68L126.172 120.508L126.367 120.312L126.367 119.727L126.562 119.531L126.562 119.141L126.758 118.945L126.953 117.969L127.344 117.383L127.344 116.992L127.734 116.406L127.734 116.016L128.516 114.453L133.789 114.453L134.18 115.039L134.375 116.016L135.156 117.578L135.156 117.969L135.352 118.164L135.352 118.555L135.547 118.75L135.547 119.141L135.742 119.336L135.742 119.727L136.133 120.508L136.133 121.289L136.328 121.484L136.328 121.875L136.133 122.07L136.133 122.461L135.742 122.656L135.547 123.047L136.133 123.047L136.328 122.852L138.867 122.852L139.062 123.047L139.648 123.047L139.648 122.852L138.867 122.07L138.867 121.875L138.477 121.484L138.086 120.703L138.086 120.312L137.695 119.727L137.695 119.336L137.305 118.75L137.305 118.359L136.914 117.773L136.914 117.383L136.523 116.797L136.523 116.406L136.133 115.82L136.133 115.43L135.742 114.844L135.742 114.453L135.352 113.867L135.352 113.477L134.961 112.891L134.961 112.5L134.57 111.914L134.57 111.523L134.18 110.938L134.18 110.547L133.789 109.961L133.789 109.57L133.398 108.984L133.398 108.594L133.008 108.008L133.008 107.617L132.617 107.031L132.617 106.641L132.227 106.055L132.227 105.664ZM199.414 105.273L199.219 105.273L198.828 106.055L198.828 106.445L198.242 107.422L198.242 107.812L197.852 108.398L197.852 108.789L197.266 109.766L197.266 110.156L196.875 110.742L196.875 111.133L196.289 112.109L196.289 112.5L195.312 114.453L195.312 114.844L194.922 115.43L194.922 115.82L194.336 116.797L194.336 117.188L193.945 117.773L193.945 118.164L193.164 119.531L193.164 119.922L192.773 120.703L192.383 121.094L192.188 121.68L191.211 122.852L191.406 123.047L191.992 123.047L192.188 122.852L193.75 122.852L193.945 123.047L194.531 123.047L194.727 122.852L194.531 122.852L193.75 122.07L193.555 121.68L193.555 120.703L193.75 120.508L193.75 119.727L193.945 119.531L194.141 118.555L194.531 117.969L194.531 117.578L194.922 116.992L194.922 116.602L195.312 116.016L195.312 115.625L195.898 114.453L201.172 114.453L201.562 115.039L201.562 115.43L201.953 116.016L201.953 116.406L202.344 116.992L202.539 117.969L202.93 118.555L202.93 118.945L203.125 119.141L203.125 119.531L203.516 120.312L203.711 122.07L203.516 122.461L203.125 122.852L202.93 122.852L202.93 123.047L203.516 123.047L203.711 122.852L206.25 122.852L206.445 123.047L207.031 123.047L207.227 122.852L207.031 122.852L206.445 122.266L206.445 122.07L205.664 121.094L205.664 120.703L205.273 120.117L205.273 119.727L204.883 119.141L204.883 118.75L204.492 118.164L204.492 117.773L204.102 117.188L204.102 116.797L203.711 116.211L203.711 115.82L203.32 115.234L203.32 114.844L202.93 114.258L202.93 113.867L202.539 113.281L202.539 112.891L202.148 112.305L202.148 111.914L201.758 111.328L201.758 110.938L201.367 110.352L201.367 109.961L200.977 109.375L200.977 108.984L200.586 108.398L200.586 108.008L200.195 107.422L200.195 107.031L199.805 106.445L199.805 106.055ZM127.93 136.914L126.953 137.891L126.953 138.086L126.562 138.477L126.562 138.867L126.367 139.062L126.367 139.453L126.172 139.648L126.172 141.211L126.367 141.406L126.367 141.992L126.562 142.188L126.758 142.773L127.344 143.359L127.344 143.555L127.539 143.555L128.125 144.141L128.32 144.141L128.516 144.336L128.906 144.336L129.102 144.531L129.883 144.531L130.078 144.727L130.859 144.727L131.055 144.531L131.836 144.531L132.031 144.336L132.422 144.336L132.617 144.141L132.812 144.141L133.203 143.75L133.398 143.75L133.984 143.164L133.984 142.969L134.375 142.578L134.375 142.383L134.57 142.188L134.57 141.797L134.766 141.602L134.766 140.82L134.961 140.625L134.961 139.844L134.766 139.648L134.766 138.867L134.57 138.672L134.57 138.477L134.375 138.281L134.18 137.695L133.594 137.109L133.398 137.109L133.008 136.719L132.812 136.719L132.617 136.523L132.227 136.523L132.031 136.328L129.297 136.328L129.102 136.523L128.711 136.523L128.516 136.719ZM112.695 105.273L112.5 105.469L111.914 105.469L111.719 105.664L110.742 105.859L108.594 107.031L106.445 109.375L105.273 112.305L105.273 113.477L105.078 113.672L105.078 115.234L105.273 115.43L105.273 116.602L105.469 116.797L105.664 117.773L106.836 119.922L108.203 121.289L110.938 122.852L112.109 123.047L112.305 123.242L113.086 123.242L113.281 123.438L116.602 123.438L116.797 123.242L117.578 123.242L117.773 123.047L118.945 122.852L120.898 121.875L121.875 121.094L121.68 120.898L121.289 118.945L120.508 120.312L119.141 121.68L117.773 122.461L116.602 122.656L116.406 122.852L113.086 122.852L110.938 121.875L109.375 120.312L108.203 118.164L108.008 116.992L107.812 116.797L107.812 115.82L107.617 115.625L107.617 112.695L107.812 112.5L107.812 111.523L108.789 108.984L110.742 106.836L111.719 106.25L112.109 106.25L112.891 105.859L113.477 105.859L113.672 105.664L115.82 105.664L116.016 105.859L116.797 105.859L118.555 106.641L120.312 108.594L120.703 109.961L120.898 109.961L121.68 107.422L121.484 107.422L120.898 106.836L118.945 105.859L118.555 105.859L117.773 105.469L117.188 105.469L116.992 105.273L115.43 105.273L115.234 105.078L114.453 105.078L114.258 105.273ZM57.227 106.25L57.422 106.055L61.328 106.055L61.523 106.25L62.695 106.25L62.891 106.445L63.281 106.445L63.477 106.641L63.672 106.641L64.062 107.031L64.258 107.031L64.648 107.422L64.648 107.617L65.039 108.008L65.039 108.203L65.234 108.398L65.234 110.938L65.039 111.133L65.039 111.328L64.844 111.523L64.648 112.109L63.672 112.891L63.477 112.891L63.281 113.086L62.891 113.086L62.695 113.281L61.719 113.281L61.523 113.477L57.422 113.477L57.227 113.281ZM210.547 105.664L210.742 105.859L210.938 105.859L211.523 106.445L211.523 106.641L211.719 106.836L211.719 108.008L211.914 108.203L211.914 118.555L211.719 118.75L211.719 120.898L211.523 121.094L211.523 121.484L211.328 121.68L211.328 121.875L210.547 122.656L209.961 122.852L209.961 123.047L210.547 123.047L210.742 122.852L224.219 122.852L224.414 122.656L224.414 122.266L224.609 122.07L224.609 121.68L224.805 121.484L224.805 120.898L225 120.703L225 120.312L225.195 120.117L225.195 119.336L225 119.531L225 119.727L224.023 120.703L223.828 120.703L223.438 121.094L223.242 121.094L222.656 121.484L221.68 121.68L221.484 121.875L220.898 121.875L220.703 122.07L219.922 122.07L219.727 122.266L217.773 122.266L217.578 122.461L216.016 122.461L215.82 122.266L215.039 122.266L214.258 121.68L214.258 121.484L213.867 120.898L213.867 120.508L213.672 120.312L213.672 119.141L213.477 118.945L213.477 107.422L213.672 107.227L213.672 106.836L213.867 106.641L213.867 106.445L214.453 105.859L214.648 105.859L214.844 105.664ZM179.883 105.664L179.688 105.859L179.688 106.445L179.492 106.641L179.492 107.422L179.297 107.617L179.102 108.984L179.492 108.203L180.469 107.227L180.664 107.227L181.445 106.641L181.836 106.641L182.031 106.445L182.617 106.445L182.812 106.25L184.766 106.25L185.156 106.641L185.156 107.031L185.352 107.227L185.352 117.969L185.156 118.164L185.156 120.508L184.961 120.703L184.961 121.484L184.766 121.68L184.766 122.07L183.984 122.852L183.594 122.852L183.789 123.047L184.375 123.047L184.57 122.852L187.695 122.852L187.891 123.047L188.281 123.047L188.281 122.852L188.086 122.852L187.305 122.07L187.305 121.68L187.109 121.484L187.109 120.703L186.914 120.508L186.914 106.836L187.5 106.25L189.453 106.25L189.648 106.445L190.234 106.445L191.406 107.031L192.773 108.398L192.773 108.594L193.164 108.789L192.969 108.594L192.969 108.008L192.773 107.812L192.773 107.031L192.578 106.836L192.578 106.25L192.383 106.055L192.383 105.664ZM130.273 136.523L130.469 136.719L131.25 136.719L131.445 136.914L131.641 136.914L132.031 137.305L132.227 137.305L132.617 137.695L132.617 137.891L133.008 138.281L133.008 138.477L133.203 138.672L133.203 139.062L133.398 139.258L133.398 140.039L133.594 140.234L133.594 141.211L133.398 141.406L133.398 142.188L133.203 142.383L133.203 142.773L133.008 142.969L133.008 143.164L132.227 143.945L132.031 143.945L131.836 144.141L131.445 144.141L131.25 144.336L130.664 144.336L130.469 144.141L129.883 144.141L129.688 143.945L129.102 143.75L128.32 142.969L128.32 142.773L127.93 142.383L127.93 141.992L127.734 141.797L127.734 141.406L127.539 141.211L127.539 139.062L127.734 138.867L127.734 138.281L127.93 138.086L127.93 137.891L128.906 136.914L129.102 136.914L129.297 136.719L130.078 136.719ZM173.242 105.664L173.828 106.25L173.828 106.445L174.023 106.641L174.023 107.812L174.219 108.008L174.219 117.773L174.023 117.969L174.023 120.703L173.828 120.898L173.828 121.68L173.633 121.875L173.438 122.461L173.047 122.852L172.852 122.852L172.852 123.047L173.438 123.047L173.633 122.852L175.977 122.852L176.172 123.047L176.953 123.047L176.953 122.852L176.758 122.852L176.172 122.266L176.172 122.07L175.977 121.875L175.977 121.094L175.781 120.898L175.781 106.836L175.977 106.641L175.977 106.25L176.367 105.859L176.562 105.859L176.758 105.664ZM227.539 105.664L228.32 106.445L228.32 107.031L228.516 107.227L228.516 119.922L228.32 120.117L228.32 121.289L228.125 121.484L228.125 121.875L227.93 122.07L227.93 122.266L227.344 122.852L227.344 123.047L227.93 123.047L228.125 122.852L230.469 122.852L230.664 123.047L231.25 123.047L231.25 122.852L231.055 122.852L230.664 122.461L230.664 122.266L230.469 122.07L230.469 121.68L230.273 121.484L230.273 120.312L230.078 120.117L230.078 107.227L230.273 107.031L230.273 106.445L231.055 105.664ZM115.039 136.328L115.039 136.523L115.625 136.523L116.016 136.914L116.016 143.75L115.625 144.336L115.234 144.336L115.039 144.531L118.164 144.531L118.164 144.336L117.383 144.336L117.188 144.141L117.188 141.211L117.383 141.016L118.164 141.016L118.945 141.797L118.945 141.992L119.336 142.383L119.336 142.578L119.922 143.164L119.922 143.359L120.898 144.336L121.289 144.336L121.484 144.531L123.242 144.531L123.047 144.531L122.852 144.336L122.461 144.336L122.07 143.945L121.875 143.945L121.484 143.555L121.484 143.359L120.508 142.383L120.508 142.188L119.727 141.406L119.727 141.211L119.336 140.82L119.336 140.625L119.531 140.43L119.727 140.43L119.922 140.234L119.922 140.039L120.508 139.453L120.508 139.062L120.703 138.867L120.703 137.695L120.508 137.5L120.508 137.305L119.922 136.719L119.727 136.719L119.531 136.523L118.75 136.523L118.555 136.328L117.188 136.328L116.992 136.523L116.211 136.523L116.016 136.328ZM189.453 136.133L189.453 136.328L189.258 136.523L189.258 137.5L189.062 137.695L189.062 138.867L188.867 139.062L188.867 140.234L188.672 140.43L188.672 141.406L188.477 141.602L188.477 142.773L188.281 142.969L188.281 143.945L187.891 144.336L187.305 144.531L189.844 144.531L189.648 144.531L189.453 144.336L189.062 144.336L188.867 144.141L188.867 143.359L189.062 143.164L189.062 141.797L189.258 141.602L189.258 140.43L189.453 140.234L189.453 139.258L189.648 139.062L189.844 139.258L189.844 139.648L190.039 139.844L190.039 140.039L190.234 140.234L190.234 140.43L190.43 140.625L190.43 140.82L190.625 141.016L190.625 141.211L190.82 141.406L190.82 141.602L191.016 141.797L191.016 141.992L191.211 142.188L191.211 142.383L192.383 144.531L192.578 144.336L192.578 144.141L193.164 143.164L193.164 142.773L193.359 142.578L193.359 142.383L193.555 142.188L193.555 141.992L193.75 141.797L193.75 141.602L193.945 141.406L193.945 141.211L195.117 139.062L195.312 139.258L195.312 140.039L195.508 140.234L195.508 141.602L195.703 141.797L195.703 142.969L195.898 143.164L195.898 144.141L195.703 144.336L195.898 144.531L198.242 144.531L198.047 144.531L197.852 144.336L197.461 144.336L197.07 143.75L197.07 143.164L196.875 142.969L196.875 141.797L196.68 141.602L196.68 140.43L196.484 140.234L196.484 139.062L196.289 138.867L196.289 137.695L196.094 137.5L196.094 136.523L195.898 136.328L195.898 136.133L194.922 137.891L194.922 138.281L194.727 138.477L194.727 138.672L194.531 138.867L194.531 139.062L194.336 139.258L194.336 139.453L193.164 141.602L193.164 141.992L192.773 142.578L192.383 142.188L192.383 141.992L191.406 140.234L191.406 139.844L191.211 139.648L191.211 139.453L191.016 139.258L191.016 139.062L190.82 138.867L190.82 138.672L190.625 138.477L190.625 138.281ZM205.469 136.133L205.273 136.328L205.273 136.719L204.883 137.305L204.883 137.695L204.492 138.281L204.492 138.672L204.102 139.258L204.102 139.648L203.711 140.234L203.711 140.625L203.32 141.211L203.32 141.602L202.93 142.188L202.93 142.578L202.539 143.164L202.539 143.555L202.344 143.75L202.344 143.945L201.953 144.336L201.562 144.336L201.367 144.531L201.172 144.531L203.711 144.531L203.516 144.531L203.125 144.141L203.125 143.359L203.516 142.773L203.516 142.383L203.711 142.188L203.711 141.992L204.102 141.602L206.445 141.602L206.641 141.797L206.641 142.188L207.031 142.773L207.031 143.164L207.227 143.359L207.227 143.75L207.422 143.945L207.422 144.336L207.227 144.531L209.961 144.531L209.57 144.531L209.375 144.336L209.18 144.336L208.594 143.75L208.594 143.555L208.203 142.969L208.203 142.578L207.812 141.992L207.812 141.602L207.422 141.016L207.422 140.625L207.031 140.039L207.031 139.648L206.641 139.062L206.641 138.672L206.25 138.086L206.25 137.695L205.859 137.109L205.859 136.719ZM101.953 136.328L102.148 136.523L102.734 136.523L103.125 137.109L103.125 142.578L103.32 142.773L103.32 142.969L103.516 143.164L103.711 143.75L104.883 144.531L105.664 144.531L105.859 144.727L106.641 144.727L106.836 144.531L107.617 144.531L107.812 144.336L108.008 144.336L108.398 143.945L108.594 143.945L108.789 143.75L108.789 143.555L109.18 143.164L109.18 142.773L109.375 142.578L109.375 141.992L109.57 141.797L109.57 136.914L109.961 136.523L110.352 136.523L110.352 136.328L109.375 136.328L109.18 136.523L108.984 136.328L107.812 136.328L107.812 136.523L108.398 136.523L108.789 136.914L108.789 142.188L108.594 142.383L108.594 142.969L108.398 143.164L108.398 143.359L107.422 144.141L105.664 144.141L104.492 142.969L104.492 142.383L104.297 142.188L104.297 136.914L104.688 136.523L105.078 136.523L105.078 136.328L103.906 136.328L103.711 136.523L103.516 136.328ZM92.383 136.328L92.383 136.523L93.164 136.523L93.359 136.719L93.359 144.141L93.164 144.336L92.578 144.531L97.461 144.531L97.461 144.141L97.656 143.945L97.656 142.969L97.461 143.555L97.07 143.945L96.875 143.945L96.68 144.141L95.312 144.141L94.727 143.75L94.727 140.625L94.922 140.43L96.68 140.43L97.07 140.82L97.07 141.406L97.07 140.234L97.266 140.039L97.266 139.648L96.68 140.039L94.922 140.039L94.727 139.844L94.727 137.109L94.922 136.914L96.68 136.914L97.266 137.5L97.266 137.891L97.266 136.719L97.461 136.523L97.461 136.328L97.07 136.328L96.875 136.523L93.555 136.523L93.359 136.328ZM131.25 108.008L131.836 108.984L131.836 109.375L132.227 109.961L132.227 110.352L132.617 110.938L132.617 111.328L133.008 111.914L133.008 112.305L133.398 112.891L133.398 113.281L133.594 113.477L133.594 113.672L133.398 113.867L128.906 113.867L128.711 113.672L129.102 113.086L129.102 112.695L129.688 111.719L129.688 111.328L130.273 110.352L130.273 109.961L130.469 109.766L130.469 109.57L130.859 108.984L130.859 108.594ZM77.148 108.008L77.734 108.984L77.734 109.375L78.125 109.961L78.125 110.352L78.516 110.938L78.516 111.328L78.906 111.914L78.906 112.305L79.297 112.891L79.297 113.281L79.492 113.477L79.492 113.672L79.297 113.867L74.805 113.867L74.609 113.672L75 113.086L75 112.695L75.586 111.719L75.586 111.328L76.172 110.352L76.172 109.961L76.367 109.766L76.367 109.57L76.758 108.984L76.758 108.594ZM241.406 108.008L241.602 108.203L241.602 108.594L241.797 108.789L241.797 109.18L242.188 109.766L242.188 110.156L242.578 110.742L242.578 111.133L242.969 111.719L242.969 112.109L243.359 112.695L243.359 113.086L243.75 113.672L243.555 113.867L239.062 113.867L238.867 113.672L238.867 113.477L239.062 113.281L239.062 112.891L239.648 111.914L239.648 111.523L240.234 110.547L240.234 110.156L240.82 109.18L240.82 108.789L241.016 108.594L241.016 108.398ZM198.633 108.008L199.023 108.398L199.023 108.789L199.219 108.984L199.219 109.375L199.609 109.961L199.609 110.352L200 110.938L200 111.328L200.391 111.914L200.391 112.305L200.781 112.891L200.781 113.281L200.977 113.477L200.977 113.672L200.781 113.867L196.289 113.867L196.094 113.672L196.484 113.086L196.484 112.695L197.07 111.719L197.07 111.328L197.266 111.133L197.266 110.938L197.852 109.961L197.852 109.57L198.047 109.375L198.047 109.18L198.438 108.594L198.438 108.203ZM177.93 136.328L177.93 136.523L178.516 136.523L178.906 137.109L178.906 143.555L178.711 143.75L178.711 144.141L178.516 144.336L177.93 144.531L182.812 144.531L183.008 144.336L183.008 142.969L183.008 143.359L182.812 143.555L182.812 143.75L182.227 144.141L180.664 144.141L180.078 143.555L180.078 140.625L180.273 140.43L182.031 140.43L182.422 140.82L182.422 141.211L182.617 141.211L182.617 139.648L182.031 140.039L180.273 140.039L180.078 139.844L180.078 137.109L180.273 136.914L182.227 136.914L182.617 137.305L182.617 137.891L182.812 137.695L182.812 136.328L182.422 136.328L182.227 136.523L179.102 136.523L178.906 136.328ZM166.602 136.328L166.406 136.523L166.406 137.305L166.211 137.5L166.211 137.695L166.406 137.695L166.406 137.5L166.992 136.914L169.141 136.914L169.336 137.109L169.336 143.945L168.75 144.531L168.555 144.531L171.68 144.531L171.484 144.531L171.289 144.336L170.898 144.336L170.703 144.141L170.703 143.75L170.508 143.555L170.508 137.109L170.703 136.914L172.656 136.914L173.242 137.305L173.438 137.891L173.438 136.328L172.852 136.328L172.656 136.523L167.773 136.523L167.578 136.328ZM161.523 136.328L159.18 136.328L158.984 136.523L158.789 136.523L158.008 137.305L158.008 137.5L157.812 137.695L157.812 138.867L158.008 139.062L158.203 139.648L159.57 141.016L159.766 141.016L160.742 141.992L160.742 142.188L160.938 142.383L160.938 143.359L160.742 143.555L160.742 143.75L160.352 144.141L159.961 144.141L159.766 144.336L158.984 144.336L158.789 144.141L158.594 144.141L157.812 143.359L157.812 142.578L157.617 142.578L157.617 144.336L157.812 144.531L158.594 144.531L158.789 144.727L159.57 144.727L159.766 144.531L160.352 144.531L160.547 144.336L160.938 144.336L161.719 143.555L161.719 143.164L161.914 142.969L161.914 141.602L161.719 141.406L161.523 140.82L160.547 139.844L160.352 139.844L159.57 139.062L159.375 139.062L158.984 138.672L158.984 138.477L158.789 138.281L158.789 137.305L159.375 136.719L159.766 136.719L159.961 136.523L160.352 136.523L160.547 136.719L161.133 136.914L161.328 137.109L161.328 137.305L161.523 137.5L161.523 137.891L161.719 138.086L161.719 136.523ZM143.75 136.328L141.602 136.328L141.406 136.523L140.82 136.719L140.234 137.305L140.234 137.695L140.039 137.891L140.039 138.672L140.234 138.867L140.234 139.258L140.43 139.453L140.43 139.648L141.602 140.82L141.797 140.82L143.164 142.188L143.164 142.773L143.359 142.969L143.164 143.164L143.164 143.555L142.578 144.141L142.383 144.141L142.188 144.336L141.211 144.336L141.016 144.141L140.82 144.141L140.234 143.555L140.234 143.359L140.039 143.164L140.039 142.578L139.844 142.578L139.844 144.336L140.039 144.336L140.234 144.531L141.016 144.531L141.211 144.727L141.797 144.727L141.992 144.531L142.773 144.531L142.969 144.336L143.164 144.336L143.945 143.555L143.945 143.359L144.141 143.164L144.141 142.578L144.336 142.383L144.141 142.188L144.141 141.406L143.945 141.211L143.945 141.016L142.578 139.648L142.383 139.648L141.211 138.477L141.211 138.281L141.016 138.086L141.016 137.5L141.211 137.305L141.211 137.109L141.602 136.719L141.992 136.719L142.188 136.523L142.578 136.523L142.773 136.719L143.164 136.719L143.75 137.305L143.75 137.5L143.945 137.695L143.945 138.086L143.945 136.523ZM149.414 136.328L149.414 136.523L149.805 136.523L150.195 136.914L150.195 143.945L149.805 144.336L149.414 144.336L149.414 144.531L152.539 144.531L152.344 144.336L151.758 144.336L151.367 143.75L151.367 136.914L151.758 136.523L152.344 136.523L152.344 136.328L151.367 136.328L151.172 136.523L150.391 136.523L150.195 136.328ZM22.852 148.633L23.047 148.438L23.242 148.438L24.805 146.875L25 147.07L25.195 147.07L25.586 147.461L25.977 147.461L26.172 147.656L26.562 147.656L26.758 147.852L27.344 147.852L27.539 148.047L28.711 148.047L28.906 148.242L28.516 148.633L28.516 148.828L28.32 149.023L28.125 149.023L27.539 149.609L27.148 149.609L26.953 149.805L26.172 149.805L25.977 150L25.781 149.805L24.805 149.805L24.609 149.609L24.219 149.609L24.023 149.414L23.828 149.414L23.438 149.023L23.242 149.023ZM22.852 101.172L23.242 100.781L23.438 100.781L23.828 100.391L24.023 100.391L24.219 100.195L24.609 100.195L24.805 100L25.586 100L25.781 99.805L26.172 99.805L26.367 100L26.953 100L27.148 100.195L27.539 100.195L28.125 100.781L28.32 100.781L28.516 100.977L28.516 101.172L28.906 101.562L28.711 101.758L27.539 101.758L27.344 101.953L26.562 101.953L25.977 102.344L25.586 102.344L25.391 102.539L25.195 102.539L24.805 102.93L23.242 101.367L23.047 101.367ZM20.898 148.633L20.312 149.219L20.117 149.219L19.531 149.609L19.141 149.609L18.945 149.805L18.164 149.805L17.969 150L17.773 150L17.578 149.805L16.797 149.805L16.602 149.609L16.016 149.414L14.844 148.242L15.039 148.047L16.406 148.047L16.602 147.852L17.188 147.852L17.383 147.656L17.773 147.656L17.969 147.461L18.555 147.266L18.945 146.875L20.312 148.242L20.508 148.242ZM14.844 101.562L16.016 100.391L16.211 100.391L16.797 100L17.578 100L17.773 99.805L17.969 99.805L18.164 100L18.945 100L19.141 100.195L19.531 100.195L19.727 100.391L20.312 100.586L20.898 101.172L20.508 101.562L20.312 101.562L18.945 102.93L18.555 102.539L18.359 102.539L17.773 102.148L17.383 102.148L17.188 101.953L16.602 101.953L16.406 101.758L15.039 101.758ZM117.383 136.719L118.164 136.719L118.359 136.914L118.945 137.109L119.141 137.305L119.141 137.5L119.531 137.891L119.531 139.648L119.336 139.844L119.336 140.039L118.75 140.625L118.555 140.625L118.359 140.82L117.969 140.82L117.773 140.625L117.383 140.625L117.188 140.43L117.188 136.914ZM167.773 106.445L167.383 106.445L167.188 106.641L166.992 106.641L166.602 107.227L166.602 108.594L166.992 108.984L167.578 108.984L167.969 109.375L167.773 109.57L167.773 110.352L167.578 110.547L167.578 110.938L167.383 111.133L167.383 111.328L167.188 111.523L166.992 112.109L167.188 112.109L167.578 111.719L167.578 111.523L167.773 111.328L167.773 111.133L168.359 110.156L168.359 109.766L168.555 109.57L168.555 107.227L168.359 107.031L168.359 106.836ZM22.07 144.531L23.633 146.094L21.875 147.852L20.312 146.289L20.312 146.094L21.875 144.531ZM21.875 101.953L23.633 103.711L23.047 104.297L22.852 104.297L22.266 104.883L22.266 105.078L22.07 105.273L21.875 105.273L20.312 103.711L20.312 103.516ZM205.273 138.281L205.469 138.477L205.469 138.867L205.664 139.062L205.664 139.453L205.859 139.648L205.859 140.039L206.055 140.234L206.055 140.625L206.25 140.82L206.25 141.016L206.055 141.211L204.297 141.211L204.102 141.016L204.102 140.82L204.492 140.234L204.492 139.844L204.688 139.648L204.688 139.258L204.883 139.062L204.883 138.672ZM12.305 146.094L12.5 145.898L12.695 146.094L12.5 146.289ZM0.977 136.328L1.172 136.133L1.367 136.328L1.172 136.523ZM0.977 113.477L1.172 113.281L1.367 113.477L1.172 113.672ZM12.305 103.711L12.5 103.516L12.695 103.711L12.5 103.906Z"/>
</svg>
