<?xml version="1.0" encoding="UTF-8"?>
<!-- Generated by Pixelmator Pro 3.8 -->
<svg width="250" height="52" viewBox="0 0 250 52" xmlns="http://www.w3.org/2000/svg">
    <path id="Path" fill="#005195" fill-rule="evenodd" stroke="none" d="M 0 32.445007 L 0.781 38.695007 L 1.367 39.867004 L 3.711 41.625 L 7.031 41.625 L 9.57 39.867004 L 8.594 38.695007 L 6.25 40.257996 L 2.734 39.671997 L 1.367 38.304993 L 1.367 37.328003 L 3.711 38.695007 L 6.055 38.695007 L 7.812 37.718994 L 7.031 36.742004 L 3.516 37.132996 L 2.148 36.546997 L 1.172 35.570007 L 1.758 34.593994 L 3.711 33.227005 L 5.859 32.835999 L 7.617 33.421997 L 9.57 35.375 L 18.358999 47.093994 L 16.406 48.460999 L 14.844 48.656006 L 14.062 47.483994 L 14.258 44.164001 L 13.281 43.382996 L 12.695 44.164001 L 12.305 47.093994 L 11.328 44.554993 L 11.719 42.016006 L 10.742 41.039001 L 9.961 42.406006 L 10.156 45.921997 L 10.938 47.289001 L 13.086 48.656006 L 14.062 50.022995 L 16.992001 51.391006 L 19.922001 51.195007 L 21.875 50.218994 L 23.827999 51.195007 L 26.952999 51.391006 L 29.297001 50.414001 L 33.007999 47.093994 L 33.594002 45.921997 L 33.984001 43.188004 L 33.202999 41.039001 L 32.030998 42.016006 L 32.422001 44.945007 L 31.445 47.289001 L 30.664 43.382996 L 29.492001 44.164001 L 29.882999 46.507996 L 29.297001 48.460999 L 27.539 48.460999 L 25.586 47.093994 L 34.375 35.179993 L 35.938 33.617004 L 37.890999 32.835999 L 39.647999 33.031006 L 42.382999 34.983994 L 42.577999 35.766006 L 41.015999 36.938004 L 36.914001 36.742004 L 36.132999 37.718994 L 37.695 38.695007 L 40.039001 38.695007 L 42.577999 37.132996 L 42.577999 38.108994 L 41.015999 39.671997 L 37.5 40.257996 L 35.155998 38.695007 L 34.18 39.867004 L 36.719002 41.625 L 39.257999 41.820007 L 41.210999 41.039001 L 42.772999 39.281006 L 43.75 34.983994 L 43.359001 30.882996 L 41.405998 28.344002 L 38.867001 27.366997 L 34.57 27.953003 L 31.25 30.492004 L 21.875 42.992004 L 12.891 30.882996 L 8.789 27.758003 L 4.883 27.366997 L 2.734 28.148003 L 0.977 29.906006 Z M 0 17.015991 L 0.391 20.72699 L 2.148 23.265999 L 5.078 24.438004 L 9.18 23.851997 L 12.695 21.117004 L 21.875 8.811996 L 31.25 21.311996 L 33.789001 23.460999 L 36.522999 24.438004 L 39.844002 24.241997 L 42.577999 22.289001 L 43.75 19.75 L 43.75 16.820007 L 42.772999 12.52301 L 40.039001 10.179993 L 36.327999 10.375 L 34.375 12.132996 L 35.155998 13.109009 L 37.5 11.546997 L 41.015999 12.132996 L 42.577999 13.695007 L 42.577999 14.671997 L 40.039001 13.109009 L 37.109001 13.304993 L 36.132999 14.281006 L 36.914001 15.061996 L 41.015999 14.867004 L 42.382999 15.843994 L 42.382999 16.820007 L 40.234001 18.578003 L 37.890999 18.968994 L 36.522999 18.578003 L 34.375 16.625 L 25.586 4.515991 L 27.344 3.343994 L 29.101999 3.14801 L 29.882999 5.296997 L 29.492001 7.640991 L 30.469 8.421997 L 31.25 7.25 L 31.445 4.515991 L 32.422001 6.859009 L 32.030998 9.789001 L 33.007999 10.765991 L 33.984001 8.617004 L 33.397999 5.296997 L 29.297001 1.390991 L 26.952999 0.414001 L 23.827999 0.609009 L 21.875 1.585999 L 18.945 0.414001 L 16.992001 0.414001 L 14.844 1.195007 L 13.086 3.14801 L 11.523 3.929993 L 10.156 5.882996 L 10.352 10.375 L 10.742 10.765991 L 11.719 9.789001 L 11.328 7.25 L 12.305 4.710999 L 13.086 8.421997 L 14.453 7.445007 L 14.062 4.515991 L 14.844 3.14801 L 16.406 3.343994 L 18.358999 4.710999 L 9.57 16.429993 L 7.617 18.382996 L 5.859 18.968994 L 3.711 18.578003 L 1.758 17.210999 L 1.172 16.234009 L 3.32 14.671997 L 6.836 15.061996 L 7.812 14.085999 L 6.055 13.109009 L 3.711 13.109009 L 1.367 14.47699 L 1.367 13.5 L 2.734 12.132996 L 6.25 11.546997 L 8.594 13.109009 L 9.57 11.938004 L 7.617 10.375 L 4.492 9.984009 L 2.539 10.765991 L 1.367 11.938004 Z M 148.046997 6.664001 L 148.046997 6.859009 L 148.242004 6.859009 L 148.828003 7.445007 L 148.828003 7.640991 L 149.022995 7.835999 L 149.022995 8.421997 L 149.218994 8.617004 L 149.218994 21.703003 L 149.022995 21.89801 L 149.022995 22.484009 L 148.828003 22.679993 L 148.828003 22.875 L 147.852005 23.851997 L 147.656006 23.851997 L 147.656006 24.046997 L 148.632996 24.046997 L 148.828003 23.851997 L 153.516006 23.851997 L 153.710999 24.046997 L 156.25 24.046997 L 156.445007 23.851997 L 157.811996 23.851997 L 158.007996 23.655998 L 158.593994 23.655998 L 158.789001 23.460999 L 159.179993 23.460999 L 159.375 23.265999 L 159.570007 23.265999 L 159.766006 23.07 L 160.742004 22.679993 L 161.132996 22.289001 L 161.328003 22.289001 L 162.695007 20.921997 L 162.695007 20.72699 L 163.085999 20.335999 L 163.085999 20.140991 L 163.867004 18.77301 L 163.867004 18.382996 L 164.061996 18.188004 L 164.061996 17.796997 L 164.257996 17.60199 L 164.257996 16.820007 L 164.453003 16.625 L 164.453003 13.304993 L 164.257996 13.109009 L 164.257996 12.52301 L 164.061996 12.328003 L 164.061996 11.938004 L 163.867004 11.742004 L 163.867004 11.35199 L 163.671997 11.156006 L 163.477005 10.570007 L 162.5 9.39801 L 162.5 9.203003 L 161.914001 8.617004 L 161.718994 8.617004 L 160.546997 7.640991 L 160.352005 7.640991 L 159.766006 7.25 L 158.789001 7.054993 L 158.593994 6.859009 L 158.007996 6.859009 L 157.811996 6.664001 Z M 54.492001 6.664001 L 54.492001 6.859009 L 54.688 6.859009 L 55.272999 7.445007 L 55.272999 7.640991 L 55.469002 7.835999 L 55.469002 8.617004 L 55.664001 8.811996 L 55.664001 20.531006 L 55.469002 20.72699 L 55.469002 22.093994 L 55.272999 22.289001 L 55.272999 22.679993 L 55.077999 22.875 L 54.882999 23.460999 L 54.688 23.655998 L 54.102001 23.851997 L 54.102001 24.046997 L 54.688 24.046997 L 54.882999 23.851997 L 59.765999 23.851997 L 59.960999 24.046997 L 62.695 24.046997 L 62.890999 23.851997 L 64.648003 23.851997 L 64.844002 23.655998 L 65.43 23.655998 L 65.625 23.460999 L 66.210999 23.265999 L 66.601997 22.875 L 66.796997 22.875 L 67.773003 21.89801 L 67.773003 21.703003 L 68.164001 21.311996 L 68.164001 20.921997 L 68.359001 20.72699 L 68.359001 20.335999 L 68.555 20.140991 L 68.555 18.188004 L 68.359001 17.992004 L 68.359001 17.60199 L 68.164001 17.406006 L 68.164001 17.210999 L 67.578003 16.625 L 67.578003 16.429993 L 67.383003 16.429993 L 66.796997 15.843994 L 66.601997 15.843994 L 65.625 15.257996 L 65.234001 15.257996 L 65.039001 15.061996 L 64.258003 15.061996 L 64.061996 14.867004 L 63.280998 14.867004 L 63.085999 14.671997 L 63.280998 14.47699 L 63.867001 14.47699 L 64.061996 14.281006 L 65.039001 14.085999 L 65.43 13.695007 L 65.625 13.695007 L 66.015999 13.304993 L 66.210999 13.304993 L 66.796997 12.52301 L 66.796997 12.328003 L 67.188004 11.742004 L 67.188004 11.156006 L 67.383003 10.960999 L 67.383003 10.179993 L 67.188004 9.984009 L 67.188004 9.39801 L 66.991997 9.203003 L 66.991997 8.811996 L 66.405998 8.22699 L 66.405998 8.031006 L 66.210999 8.031006 L 65.82 7.640991 L 65.625 7.640991 L 65.039001 7.25 L 64.648003 7.25 L 64.453003 7.054993 L 64.061996 7.054993 L 63.867001 6.859009 L 62.890999 6.859009 L 62.695 6.664001 Z M 150.977005 7.054993 L 155.858994 7.054993 L 156.054993 7.25 L 157.421997 7.25 L 157.617004 7.445007 L 158.007996 7.445007 L 158.203003 7.640991 L 158.593994 7.640991 L 158.789001 7.835999 L 159.375 8.031006 L 159.766006 8.421997 L 159.960999 8.421997 L 160.742004 9.203003 L 160.742004 9.39801 L 161.132996 9.789001 L 161.132996 9.984009 L 161.522995 10.570007 L 161.522995 10.960999 L 161.718994 11.156006 L 161.718994 11.546997 L 161.914001 11.742004 L 161.914001 12.718994 L 162.108994 12.914001 L 162.108994 17.210999 L 161.914001 17.406006 L 161.914001 18.382996 L 161.718994 18.578003 L 161.718994 19.164001 L 161.522995 19.359009 L 161.522995 19.75 L 161.328003 19.945007 L 161.328003 20.140991 L 161.132996 20.335999 L 160.938004 20.921997 L 159.179993 22.679993 L 158.983994 22.679993 L 158.789001 22.875 L 158.397995 22.875 L 158.203003 23.07 L 157.811996 23.07 L 157.617004 23.265999 L 156.835999 23.265999 L 156.641006 23.460999 L 152.733994 23.460999 L 152.539001 23.265999 L 151.953003 23.265999 L 151.171997 22.484009 L 151.171997 22.093994 L 150.977005 21.89801 L 150.977005 20.72699 L 150.781006 20.531006 L 150.781006 7.25 Z M 21.289 15.257996 L 21.094 15.453003 L 21.875 16.039001 L 22.266001 17.210999 L 22.07 24.828003 L 18.945 24.633003 L 18.945 17.796997 L 21.68 17.60199 L 21.483999 17.015991 L 16.211 17.210999 L 16.992001 17.992004 L 17.382999 19.554993 L 17.382999 30.102005 L 16.992001 32.835999 L 15.82 34.203003 L 21.289 34.007996 L 21.483999 33.617004 L 19.726999 33.421997 L 19.141001 32.835999 L 18.945 25.414001 L 22.07 25.219002 L 22.266001 25.414001 L 22.07 33.421997 L 21.483999 35.179993 L 20.702999 35.960999 L 21.68 35.766006 L 25.586 35.960999 L 24.805 35.179993 L 24.219 33.227005 L 24.219 25.609001 L 24.805 25.414001 L 26.757999 26.390999 L 27.93 28.344002 L 27.93 30.688004 L 27.344 32.054993 L 26.562 32.835999 L 24.805 33.421997 L 25 34.007996 L 26.757999 33.811996 L 28.711 32.641006 L 29.688 31.272995 L 30.077999 29.516006 L 29.882999 28.148003 L 28.32 26.195 L 24.805 25.023003 L 27.148001 24.046997 L 28.32 22.875 L 28.711 21.89801 L 28.711 19.945007 L 27.93 18.578003 L 27.148001 17.992004 L 24.805 17.406006 L 24.805 17.992004 L 25.586 18.382996 L 26.562 19.554993 L 26.757999 22.093994 L 26.367001 23.07 L 25.195 24.241997 L 24.414 24.438004 L 24.219 16.820007 L 25.195 15.257996 L 24.023001 15.453003 Z M 57.227001 15.061996 L 57.422001 14.867004 L 61.327999 14.867004 L 61.522999 15.061996 L 63.085999 15.061996 L 63.280998 15.257996 L 63.672001 15.257996 L 63.867001 15.453003 L 64.258003 15.453003 L 64.453003 15.64801 L 64.648003 15.64801 L 65.039001 16.039001 L 65.234001 16.039001 L 65.625 16.429993 L 65.625 16.625 L 66.015999 17.015991 L 66.015999 17.210999 L 66.405998 17.796997 L 66.405998 18.77301 L 66.601997 18.968994 L 66.601997 19.554993 L 66.405998 19.75 L 66.405998 20.72699 L 66.210999 20.921997 L 66.210999 21.311996 L 66.015999 21.507996 L 66.015999 21.703003 L 64.844002 22.875 L 64.648003 22.875 L 64.453003 23.07 L 64.061996 23.07 L 63.867001 23.265999 L 63.085999 23.265999 L 62.890999 23.460999 L 58.594002 23.460999 L 58.397999 23.265999 L 58.007999 23.265999 L 57.617001 22.875 L 57.617001 22.679993 L 57.422001 22.484009 L 57.422001 21.703003 L 57.227001 21.507996 Z M 1.562 30.688004 L 2.734 29.710999 L 2.93 29.710999 L 3.906 29.125 L 4.492 29.125 L 4.688 28.93 L 7.227 28.93 L 7.422 29.125 L 8.008 29.125 L 8.203 29.320007 L 8.398 29.320007 L 8.594 29.516006 L 9.57 29.906006 L 10.156 30.492004 L 10.352 30.492004 L 11.523 31.664001 L 11.523 31.858994 L 12.305 32.641006 L 12.305 32.835999 L 12.891 33.421997 L 12.891 33.617004 L 13.477 34.203003 L 13.477 34.397995 L 14.062 34.983994 L 14.062 35.179993 L 15.234 36.546997 L 15.234 36.742004 L 15.625 37.132996 L 15.625 37.328003 L 16.211 37.914001 L 16.211 38.108994 L 16.797001 38.695007 L 16.797001 38.891006 L 17.382999 39.477005 L 17.382999 39.671997 L 18.555 41.039001 L 18.555 41.233994 L 18.945 41.625 L 18.945 41.820007 L 19.531 42.406006 L 19.531 42.602005 L 20.117001 43.188004 L 20.117001 43.382996 L 20.898001 44.164001 L 20.898001 44.358994 L 20.507999 44.75 L 20.507999 44.945007 L 19.531 45.921997 L 19.336 45.921997 L 18.555 45.141006 L 18.555 44.945007 L 17.969 44.358994 L 17.969 44.164001 L 16.797001 42.796997 L 16.797001 42.602005 L 16.406 42.210999 L 16.406 42.016006 L 15.82 41.429993 L 15.82 41.233994 L 15.234 40.647995 L 15.234 40.453003 L 14.648 39.867004 L 14.648 39.671997 L 13.477 38.304993 L 13.477 38.108994 L 13.086 37.718994 L 13.086 37.522995 L 12.5 36.938004 L 12.5 36.742004 L 11.914 36.156006 L 11.914 35.960999 L 11.328 35.375 L 11.328 35.179993 L 10.742 34.593994 L 10.742 34.397995 L 10.156 33.811996 L 10.156 33.617004 L 9.18 32.641006 L 8.984 32.641006 L 8.008 31.858994 L 7.617 31.858994 L 7.031 31.468994 L 5.859 31.468994 L 5.664 31.272995 L 5.273 31.272995 L 5.078 31.468994 L 4.297 31.468994 L 4.102 31.664001 L 3.711 31.664001 L 3.516 31.858994 L 2.93 32.054993 L 1.758 33.031006 L 1.758 33.227005 L 1.367 33.617004 L 1.367 33.811996 L 0.781 34.789001 L 0.586 34.593994 L 0.586 34.007996 L 0.391 33.811996 L 0.391 33.227005 L 0.586 33.031006 L 0.586 32.445007 L 0.781 32.25 L 0.781 31.858994 L 0.977 31.664001 L 0.977 31.468994 L 1.562 30.882996 Z M 20.507999 6.859009 L 20.507999 7.054993 L 20.898001 7.445007 L 20.898001 7.640991 L 20.117001 8.421997 L 20.117001 8.617004 L 19.531 9.203003 L 19.531 9.39801 L 18.358999 10.765991 L 18.358999 10.960999 L 17.969 11.35199 L 17.969 11.546997 L 17.382999 12.132996 L 17.382999 12.328003 L 16.797001 12.914001 L 16.797001 13.109009 L 16.211 13.695007 L 16.211 13.890991 L 15.039 15.257996 L 15.039 15.453003 L 14.648 15.843994 L 14.648 16.039001 L 14.062 16.625 L 14.062 16.820007 L 13.477 17.406006 L 13.477 17.60199 L 12.891 18.188004 L 12.891 18.382996 L 12.305 18.968994 L 12.305 19.164001 L 11.523 19.945007 L 11.523 20.140991 L 9.57 21.89801 L 9.375 21.89801 L 8.008 22.679993 L 7.422 22.679993 L 7.227 22.875 L 4.883 22.875 L 4.688 22.679993 L 4.102 22.679993 L 3.906 22.484009 L 3.516 22.484009 L 3.32 22.289001 L 2.734 22.093994 L 1.562 21.117004 L 1.562 20.921997 L 0.781 19.945007 L 0.781 19.554993 L 0.586 19.359009 L 0.586 18.77301 L 0.391 18.578003 L 0.391 17.796997 L 0.586 17.60199 L 0.586 17.210999 L 0.781 17.015991 L 0.977 17.210999 L 1.367 18.188004 L 1.953 18.77301 L 1.953 18.968994 L 2.148 19.164001 L 2.344 19.164001 L 2.93 19.75 L 3.125 19.75 L 3.711 20.140991 L 5.664 20.531006 L 5.859 20.335999 L 7.031 20.335999 L 7.617 19.945007 L 8.008 19.945007 L 8.398 19.554993 L 8.594 19.554993 L 8.984 19.164001 L 9.18 19.164001 L 10.156 18.188004 L 10.156 17.992004 L 10.742 17.406006 L 10.742 17.210999 L 11.328 16.625 L 11.328 16.429993 L 12.5 15.061996 L 12.5 14.867004 L 12.891 14.47699 L 12.891 14.281006 L 13.477 13.695007 L 13.477 13.5 L 14.062 12.914001 L 14.062 12.718994 L 14.648 12.132996 L 14.648 11.938004 L 15.82 10.570007 L 15.82 10.375 L 16.211 9.984009 L 16.211 9.789001 L 16.797001 9.203003 L 16.797001 9.007996 L 17.382999 8.421997 L 17.382999 8.22699 L 17.969 7.640991 L 17.969 7.445007 L 18.555 6.859009 L 18.555 6.664001 L 19.141001 6.078003 L 19.141001 5.882996 L 19.336 5.688004 Z M 22.851999 7.445007 L 23.438 6.859009 L 23.438 6.664001 L 24.414 5.688004 L 24.608999 5.882996 L 24.608999 6.078003 L 25.976999 7.640991 L 25.976999 7.835999 L 26.562 8.421997 L 26.562 8.617004 L 27.148001 9.203003 L 27.148001 9.39801 L 27.539 9.789001 L 27.539 9.984009 L 28.125 10.570007 L 28.125 10.765991 L 28.711 11.35199 L 28.711 11.546997 L 29.297001 12.132996 L 29.297001 12.328003 L 29.882999 12.914001 L 29.882999 13.109009 L 30.469 13.695007 L 30.469 13.890991 L 31.055 14.47699 L 31.055 14.671997 L 31.445 15.061996 L 31.445 15.257996 L 32.030998 15.843994 L 32.030998 16.039001 L 32.617001 16.625 L 32.617001 16.820007 L 33.202999 17.406006 L 33.202999 17.60199 L 35.155998 19.554993 L 35.352001 19.554993 L 36.327999 20.140991 L 36.719002 20.140991 L 36.914001 20.335999 L 37.695 20.335999 L 37.890999 20.531006 L 38.672001 20.531006 L 38.867001 20.335999 L 39.647999 20.335999 L 39.844002 20.140991 L 40.234001 20.140991 L 40.43 19.945007 L 40.625 19.945007 L 41.015999 19.554993 L 41.210999 19.554993 L 42.188 18.578003 L 42.188 18.382996 L 42.577999 17.992004 L 42.577999 17.796997 L 42.969002 17.210999 L 43.359001 17.60199 L 43.359001 18.968994 L 43.164001 19.164001 L 43.164001 19.554993 L 42.969002 19.75 L 42.577999 20.72699 L 41.405998 21.89801 L 41.210999 21.89801 L 40.82 22.289001 L 40.43 22.289001 L 39.844002 22.679993 L 39.257999 22.679993 L 39.062 22.875 L 36.522999 22.875 L 36.327999 22.679993 L 35.742001 22.679993 L 35.547001 22.484009 L 34.57 22.093994 L 34.18 21.703003 L 33.984001 21.703003 L 31.641001 19.359009 L 31.641001 19.164001 L 31.055 18.578003 L 31.055 18.382996 L 30.469 17.796997 L 30.469 17.60199 L 29.882999 17.015991 L 29.882999 16.820007 L 28.711 15.453003 L 28.711 15.257996 L 28.32 14.867004 L 28.32 14.671997 L 27.733999 14.085999 L 27.733999 13.890991 L 27.148001 13.304993 L 27.148001 13.109009 L 26.562 12.52301 L 26.562 12.328003 L 25.391001 10.960999 L 25.391001 10.765991 L 25 10.375 L 25 10.179993 L 24.414 9.593994 L 24.414 9.39801 L 23.827999 8.811996 L 23.827999 8.617004 L 23.047001 7.835999 L 23.047001 7.640991 Z M 42.382999 30.882996 L 42.382999 31.078003 L 42.772999 31.468994 L 42.772999 31.664001 L 43.164001 32.25 L 43.164001 32.641006 L 43.359001 32.835999 L 43.359001 34.203003 L 42.969002 34.593994 L 42.772999 34.397995 L 42.577999 33.811996 L 42.188 33.421997 L 42.188 33.227005 L 41.210999 32.25 L 41.015999 32.25 L 39.647999 31.468994 L 38.672001 31.468994 L 38.477001 31.272995 L 38.280998 31.272995 L 38.085999 31.468994 L 36.914001 31.468994 L 36.719002 31.664001 L 36.327999 31.664001 L 36.132999 31.858994 L 35.155998 32.25 L 33.202999 34.203003 L 33.202999 34.397995 L 32.617001 34.983994 L 32.617001 35.179993 L 32.030998 35.766006 L 32.030998 35.960999 L 30.858999 37.328003 L 30.858999 37.522995 L 30.469 37.914001 L 30.469 38.108994 L 29.882999 38.695007 L 29.882999 38.891006 L 29.297001 39.477005 L 29.297001 39.671997 L 28.711 40.257996 L 28.711 40.453003 L 27.539 41.820007 L 27.539 42.016006 L 27.148001 42.406006 L 27.148001 42.602005 L 26.562 43.188004 L 26.562 43.382996 L 25.976999 43.968994 L 25.976999 44.164001 L 25.391001 44.75 L 25.391001 44.945007 L 24.608999 45.727005 L 24.608999 45.921997 L 24.414 46.117004 L 23.827999 45.531006 L 23.827999 45.335999 L 22.851999 44.358994 L 23.047001 44.164001 L 23.047001 43.968994 L 24.414 42.406006 L 24.414 42.210999 L 25 41.625 L 25 41.429993 L 25.586 40.843994 L 25.586 40.647995 L 25.976999 40.257996 L 25.976999 40.061996 L 26.562 39.477005 L 26.562 39.281006 L 27.148001 38.695007 L 27.148001 38.5 L 27.733999 37.914001 L 27.733999 37.718994 L 28.32 37.132996 L 28.32 36.938004 L 28.906 36.352005 L 28.906 36.156006 L 29.297001 35.766006 L 29.297001 35.570007 L 29.882999 34.983994 L 29.882999 34.789001 L 30.469 34.203003 L 30.469 34.007996 L 31.055 33.421997 L 31.055 33.227005 L 31.641001 32.641006 L 31.641001 32.445007 L 33.984001 30.102005 L 34.18 30.102005 L 34.57 29.710999 L 34.765999 29.710999 L 35.742001 29.125 L 36.327999 29.125 L 36.522999 28.93 L 39.062 28.93 L 39.257999 29.125 L 39.844002 29.125 L 40.039001 29.320007 L 40.234001 29.320007 L 40.43 29.516006 L 41.405998 29.906006 Z M 88.280998 6.664001 L 89.258003 7.445007 L 89.648003 8.421997 L 89.648003 21.117004 L 89.061996 23.07 L 87.890999 24.046997 L 89.061996 24.046997 L 89.258003 23.851997 L 91.601997 24.046997 L 90.82 23.265999 L 90.234001 21.703003 L 90.234001 9.007996 L 90.43 8.811996 L 94.921997 14.671997 L 100.780998 23.265999 L 101.366997 24.438004 L 101.561996 24.438004 L 101.561996 23.851997 L 101.758003 23.655998 L 101.758003 9.007996 L 102.148003 7.640991 L 103.125 6.664001 L 99.609001 6.664001 L 100.585999 7.640991 L 101.171997 9.39801 L 101.171997 19.75 L 100.976997 19.945007 L 94.335999 10.570007 L 93.164001 9.203003 L 91.601997 6.664001 Z M 241.992004 6.078003 L 241.210999 7.640991 L 241.210999 8.031006 L 240.820007 8.617004 L 240.820007 9.007996 L 240.233994 9.984009 L 240.233994 10.375 L 239.843994 10.960999 L 239.843994 11.35199 L 239.257996 12.328003 L 239.257996 12.718994 L 238.867004 13.304993 L 238.867004 13.695007 L 238.281006 14.671997 L 238.281006 15.061996 L 237.891006 15.64801 L 237.891006 16.039001 L 237.304993 17.015991 L 237.304993 17.406006 L 236.914001 17.992004 L 236.914001 18.382996 L 236.328003 19.359009 L 236.328003 19.75 L 234.960999 22.484009 L 233.789001 23.851997 L 233.983994 24.046997 L 234.375 24.046997 L 234.570007 23.851997 L 236.718994 23.851997 L 237.108994 24.046997 L 237.304993 23.851997 L 236.914001 23.655998 L 236.328003 22.875 L 236.328003 21.117004 L 236.522995 20.921997 L 236.522995 20.335999 L 236.718994 20.140991 L 236.914001 19.164001 L 237.304993 18.578003 L 237.304993 18.188004 L 237.891006 17.210999 L 237.891006 16.820007 L 238.281006 16.234009 L 238.281006 15.843994 L 238.671997 15.453003 L 243.75 15.453003 L 244.335999 16.234009 L 244.531006 17.210999 L 244.921997 17.796997 L 244.921997 18.188004 L 245.507996 19.359009 L 245.507996 19.75 L 245.703003 19.945007 L 245.703003 20.335999 L 246.093994 21.117004 L 246.093994 21.703003 L 246.289001 21.89801 L 246.289001 23.265999 L 245.703003 23.851997 L 245.507996 23.851997 L 245.703003 24.046997 L 245.897995 23.851997 L 246.093994 24.046997 L 246.289001 23.851997 L 249.218994 23.851997 L 249.414001 24.046997 L 249.804993 23.851997 L 248.828003 22.875 L 248.828003 22.679993 L 248.242004 21.89801 L 248.242004 21.507996 L 247.852005 20.921997 L 247.852005 20.531006 L 247.460999 19.945007 L 247.460999 19.554993 L 247.070007 18.968994 L 247.070007 18.578003 L 246.679993 17.992004 L 246.679993 17.60199 L 246.289001 17.015991 L 246.289001 16.625 L 245.897995 16.039001 L 245.897995 15.64801 L 245.507996 15.061996 L 245.507996 14.671997 L 245.117004 14.085999 L 245.117004 13.695007 L 244.727005 13.109009 L 244.727005 12.718994 L 244.335999 12.132996 L 244.335999 11.742004 L 243.945007 11.156006 L 243.945007 10.765991 L 243.554993 10.179993 L 243.554993 9.789001 L 243.164001 9.203003 L 243.164001 8.811996 L 242.772995 8.22699 L 242.772995 7.835999 L 242.382996 7.25 L 242.382996 6.859009 Z M 77.93 6.27301 L 77.539001 6.468994 L 77.539001 6.859009 L 77.148003 7.445007 L 77.148003 7.835999 L 76.561996 8.811996 L 76.561996 9.203003 L 75.585999 11.156006 L 75.585999 11.546997 L 75.195 12.132996 L 75.195 12.52301 L 74.609001 13.5 L 74.609001 13.890991 L 74.219002 14.47699 L 74.219002 14.867004 L 73.633003 15.843994 L 73.633003 16.234009 L 73.241997 16.820007 L 73.241997 17.210999 L 72.655998 18.188004 L 72.655998 18.578003 L 72.265999 19.164001 L 72.265999 19.554993 L 70.703003 22.679993 L 70.116997 23.265999 L 69.726997 24.046997 L 70.311996 24.046997 L 70.508003 23.851997 L 72.265999 23.851997 L 72.460999 24.046997 L 73.046997 24.046997 L 73.241997 23.851997 L 73.046997 23.851997 L 72.265999 23.07 L 72.07 22.679993 L 72.07 21.507996 L 72.265999 21.311996 L 72.265999 20.72699 L 72.460999 20.531006 L 72.460999 20.140991 L 72.655998 19.945007 L 72.851997 18.968994 L 73.241997 18.382996 L 73.241997 17.992004 L 73.633003 17.406006 L 73.633003 17.015991 L 74.414001 15.453003 L 79.688004 15.453003 L 80.078003 16.039001 L 80.273003 17.015991 L 81.055 18.578003 L 81.055 18.968994 L 81.25 19.164001 L 81.25 19.554993 L 81.445 19.75 L 81.445 20.140991 L 81.640999 20.335999 L 81.640999 20.72699 L 82.030998 21.507996 L 82.030998 22.289001 L 82.226997 22.484009 L 82.226997 22.875 L 82.030998 23.07 L 82.030998 23.460999 L 81.640999 23.655998 L 81.445 24.046997 L 82.030998 24.046997 L 82.226997 23.851997 L 84.765999 23.851997 L 84.960999 24.046997 L 85.546997 24.046997 L 85.546997 23.851997 L 84.765999 23.07 L 84.765999 22.875 L 84.375 22.484009 L 83.984001 21.703003 L 83.984001 21.311996 L 83.594002 20.72699 L 83.594002 20.335999 L 83.203003 19.75 L 83.203003 19.359009 L 82.811996 18.77301 L 82.811996 18.382996 L 82.421997 17.796997 L 82.421997 17.406006 L 82.030998 16.820007 L 82.030998 16.429993 L 81.640999 15.843994 L 81.640999 15.453003 L 81.25 14.867004 L 81.25 14.47699 L 80.859001 13.890991 L 80.859001 13.5 L 80.469002 12.914001 L 80.469002 12.52301 L 80.078003 11.938004 L 79.883003 10.960999 L 79.491997 10.375 L 79.491997 9.984009 L 79.101997 9.39801 L 79.101997 9.007996 L 78.710999 8.421997 L 78.710999 8.031006 L 78.32 7.445007 L 78.32 7.054993 Z M 132.031006 6.27301 L 131.641006 6.468994 L 131.641006 6.859009 L 131.25 7.445007 L 131.25 7.835999 L 130.664001 8.811996 L 130.664001 9.203003 L 129.688004 11.156006 L 129.688004 11.546997 L 129.296997 12.132996 L 129.296997 12.52301 L 128.710999 13.5 L 128.710999 13.890991 L 128.320007 14.47699 L 128.320007 14.867004 L 127.734001 15.843994 L 127.734001 16.234009 L 127.344002 16.820007 L 127.344002 17.210999 L 126.758003 18.188004 L 126.758003 18.578003 L 126.366997 19.164001 L 126.366997 19.554993 L 124.805 22.679993 L 124.219002 23.265999 L 123.828003 24.046997 L 124.609001 24.046997 L 124.805 23.851997 L 126.366997 23.851997 L 126.561996 24.046997 L 127.148003 24.046997 L 127.344002 23.851997 L 127.148003 23.851997 L 126.366997 23.07 L 126.171997 22.679993 L 126.171997 21.507996 L 126.366997 21.311996 L 126.366997 20.72699 L 126.561996 20.531006 L 126.561996 20.140991 L 126.758003 19.945007 L 126.953003 18.968994 L 127.344002 18.382996 L 127.344002 17.992004 L 127.734001 17.406006 L 127.734001 17.015991 L 128.516006 15.453003 L 133.789001 15.453003 L 134.179993 16.039001 L 134.375 17.015991 L 135.156006 18.578003 L 135.156006 18.968994 L 135.352005 19.164001 L 135.352005 19.554993 L 135.546997 19.75 L 135.546997 20.140991 L 135.742004 20.335999 L 135.742004 20.72699 L 136.132996 21.507996 L 136.132996 22.289001 L 136.328003 22.484009 L 136.328003 22.875 L 136.132996 23.07 L 136.132996 23.460999 L 135.742004 23.655998 L 135.546997 24.046997 L 136.132996 24.046997 L 136.328003 23.851997 L 138.867004 23.851997 L 139.061996 24.046997 L 139.647995 24.046997 L 139.647995 23.851997 L 138.867004 23.07 L 138.867004 22.875 L 138.477005 22.484009 L 138.085999 21.703003 L 138.085999 21.311996 L 137.695007 20.72699 L 137.695007 20.335999 L 137.304993 19.75 L 137.304993 19.359009 L 136.914001 18.77301 L 136.914001 18.382996 L 136.522995 17.796997 L 136.522995 17.406006 L 136.132996 16.820007 L 136.132996 16.429993 L 135.742004 15.843994 L 135.742004 15.453003 L 135.352005 14.867004 L 135.352005 14.47699 L 134.960999 13.890991 L 134.960999 13.5 L 134.570007 12.914001 L 134.570007 12.52301 L 134.179993 11.938004 L 134.179993 11.546997 L 133.789001 10.960999 L 133.789001 10.570007 L 133.397995 9.984009 L 133.397995 9.593994 L 133.007996 9.007996 L 133.007996 8.617004 L 132.617004 8.031006 L 132.617004 7.640991 L 132.227005 7.054993 L 132.227005 6.664001 Z M 199.414001 6.27301 L 199.218994 6.27301 L 198.828003 7.054993 L 198.828003 7.445007 L 198.242004 8.421997 L 198.242004 8.811996 L 197.852005 9.39801 L 197.852005 9.789001 L 197.266006 10.765991 L 197.266006 11.156006 L 196.875 11.742004 L 196.875 12.132996 L 196.289001 13.109009 L 196.289001 13.5 L 195.311996 15.453003 L 195.311996 15.843994 L 194.921997 16.429993 L 194.921997 16.820007 L 194.335999 17.796997 L 194.335999 18.188004 L 193.945007 18.77301 L 193.945007 19.164001 L 193.164001 20.531006 L 193.164001 20.921997 L 192.772995 21.703003 L 192.382996 22.093994 L 192.188004 22.679993 L 191.210999 23.851997 L 191.406006 24.046997 L 191.992004 24.046997 L 192.188004 23.851997 L 193.75 23.851997 L 193.945007 24.046997 L 194.531006 24.046997 L 194.727005 23.851997 L 194.531006 23.851997 L 193.75 23.07 L 193.554993 22.679993 L 193.554993 21.703003 L 193.75 21.507996 L 193.75 20.72699 L 193.945007 20.531006 L 194.141006 19.554993 L 194.531006 18.968994 L 194.531006 18.578003 L 194.921997 17.992004 L 194.921997 17.60199 L 195.311996 17.015991 L 195.311996 16.625 L 195.897995 15.453003 L 201.171997 15.453003 L 201.561996 16.039001 L 201.561996 16.429993 L 201.953003 17.015991 L 201.953003 17.406006 L 202.343994 17.992004 L 202.539001 18.968994 L 202.929993 19.554993 L 202.929993 19.945007 L 203.125 20.140991 L 203.125 20.531006 L 203.516006 21.311996 L 203.710999 23.07 L 203.516006 23.460999 L 203.125 23.851997 L 202.929993 23.851997 L 202.929993 24.046997 L 203.516006 24.046997 L 203.710999 23.851997 L 206.25 23.851997 L 206.445007 24.046997 L 207.031006 24.046997 L 207.227005 23.851997 L 207.031006 23.851997 L 206.445007 23.265999 L 206.445007 23.07 L 205.664001 22.093994 L 205.664001 21.703003 L 205.272995 21.117004 L 205.272995 20.72699 L 204.882996 20.140991 L 204.882996 19.75 L 204.492004 19.164001 L 204.492004 18.77301 L 204.102005 18.188004 L 204.102005 17.796997 L 203.710999 17.210999 L 203.710999 16.820007 L 203.320007 16.234009 L 203.320007 15.843994 L 202.929993 15.257996 L 202.929993 14.867004 L 202.539001 14.281006 L 202.539001 13.890991 L 202.147995 13.304993 L 202.147995 12.914001 L 201.757996 12.328003 L 201.757996 11.938004 L 201.367004 11.35199 L 201.367004 10.960999 L 200.977005 10.375 L 200.977005 9.984009 L 200.585999 9.39801 L 200.585999 9.007996 L 200.195007 8.421997 L 200.195007 8.031006 L 199.804993 7.445007 L 199.804993 7.054993 Z M 127.93 37.914001 L 126.953003 38.891006 L 126.953003 39.085999 L 126.561996 39.477005 L 126.561996 39.867004 L 126.366997 40.061996 L 126.366997 40.453003 L 126.171997 40.647995 L 126.171997 42.210999 L 126.366997 42.406006 L 126.366997 42.992004 L 126.561996 43.188004 L 126.758003 43.772995 L 127.344002 44.358994 L 127.344002 44.554993 L 127.539001 44.554993 L 128.125 45.141006 L 128.320007 45.141006 L 128.516006 45.335999 L 128.906006 45.335999 L 129.102005 45.531006 L 129.882996 45.531006 L 130.078003 45.727005 L 130.858994 45.727005 L 131.054993 45.531006 L 131.835999 45.531006 L 132.031006 45.335999 L 132.421997 45.335999 L 132.617004 45.141006 L 132.811996 45.141006 L 133.203003 44.75 L 133.397995 44.75 L 133.983994 44.164001 L 133.983994 43.968994 L 134.375 43.578003 L 134.375 43.382996 L 134.570007 43.188004 L 134.570007 42.796997 L 134.766006 42.602005 L 134.766006 41.820007 L 134.960999 41.625 L 134.960999 40.843994 L 134.766006 40.647995 L 134.766006 39.867004 L 134.570007 39.671997 L 134.570007 39.477005 L 134.375 39.281006 L 134.179993 38.695007 L 133.593994 38.108994 L 133.397995 38.108994 L 133.007996 37.718994 L 132.811996 37.718994 L 132.617004 37.522995 L 132.227005 37.522995 L 132.031006 37.328003 L 129.296997 37.328003 L 129.102005 37.522995 L 128.710999 37.522995 L 128.516006 37.718994 Z M 112.695 6.27301 L 112.5 6.468994 L 111.914001 6.468994 L 111.719002 6.664001 L 110.741997 6.859009 L 108.594002 8.031006 L 106.445 10.375 L 105.273003 13.304993 L 105.273003 14.47699 L 105.078003 14.671997 L 105.078003 16.234009 L 105.273003 16.429993 L 105.273003 17.60199 L 105.469002 17.796997 L 105.664001 18.77301 L 106.835999 20.921997 L 108.203003 22.289001 L 110.938004 23.851997 L 112.109001 24.046997 L 112.305 24.241997 L 113.085999 24.241997 L 113.280998 24.438004 L 116.601997 24.438004 L 116.796997 24.241997 L 117.578003 24.241997 L 117.773003 24.046997 L 118.945 23.851997 L 120.898003 22.875 L 121.875 22.093994 L 121.68 21.89801 L 121.289001 19.945007 L 120.508003 21.311996 L 119.140999 22.679993 L 117.773003 23.460999 L 116.601997 23.655998 L 116.405998 23.851997 L 113.085999 23.851997 L 110.938004 22.875 L 109.375 21.311996 L 108.203003 19.164001 L 108.008003 17.992004 L 107.811996 17.796997 L 107.811996 16.820007 L 107.616997 16.625 L 107.616997 13.695007 L 107.811996 13.5 L 107.811996 12.52301 L 108.789001 9.984009 L 110.741997 7.835999 L 111.719002 7.25 L 112.109001 7.25 L 112.890999 6.859009 L 113.476997 6.859009 L 113.671997 6.664001 L 115.82 6.664001 L 116.015999 6.859009 L 116.796997 6.859009 L 118.555 7.640991 L 120.311996 9.593994 L 120.703003 10.960999 L 120.898003 10.960999 L 121.68 8.421997 L 121.484001 8.421997 L 120.898003 7.835999 L 118.945 6.859009 L 118.555 6.859009 L 117.773003 6.468994 L 117.188004 6.468994 L 116.991997 6.27301 L 115.43 6.27301 L 115.234001 6.078003 L 114.453003 6.078003 L 114.258003 6.27301 Z M 57.227001 7.25 L 57.422001 7.054993 L 61.327999 7.054993 L 61.522999 7.25 L 62.695 7.25 L 62.890999 7.445007 L 63.280998 7.445007 L 63.477001 7.640991 L 63.672001 7.640991 L 64.061996 8.031006 L 64.258003 8.031006 L 64.648003 8.421997 L 64.648003 8.617004 L 65.039001 9.007996 L 65.039001 9.203003 L 65.234001 9.39801 L 65.234001 11.938004 L 65.039001 12.132996 L 65.039001 12.328003 L 64.844002 12.52301 L 64.648003 13.109009 L 63.672001 13.890991 L 63.477001 13.890991 L 63.280998 14.085999 L 62.890999 14.085999 L 62.695 14.281006 L 61.719002 14.281006 L 61.522999 14.47699 L 57.422001 14.47699 L 57.227001 14.281006 Z M 210.546997 6.664001 L 210.742004 6.859009 L 210.938004 6.859009 L 211.522995 7.445007 L 211.522995 7.640991 L 211.718994 7.835999 L 211.718994 9.007996 L 211.914001 9.203003 L 211.914001 19.554993 L 211.718994 19.75 L 211.718994 21.89801 L 211.522995 22.093994 L 211.522995 22.484009 L 211.328003 22.679993 L 211.328003 22.875 L 210.546997 23.655998 L 209.960999 23.851997 L 209.960999 24.046997 L 210.546997 24.046997 L 210.742004 23.851997 L 224.218994 23.851997 L 224.414001 23.655998 L 224.414001 23.265999 L 224.608994 23.07 L 224.608994 22.679993 L 224.804993 22.484009 L 224.804993 21.89801 L 225 21.703003 L 225 21.311996 L 225.195007 21.117004 L 225.195007 20.335999 L 225 20.531006 L 225 20.72699 L 224.022995 21.703003 L 223.828003 21.703003 L 223.438004 22.093994 L 223.242004 22.093994 L 222.656006 22.484009 L 221.679993 22.679993 L 221.483994 22.875 L 220.897995 22.875 L 220.703003 23.07 L 219.921997 23.07 L 219.727005 23.265999 L 217.772995 23.265999 L 217.578003 23.460999 L 216.016006 23.460999 L 215.820007 23.265999 L 215.039001 23.265999 L 214.257996 22.679993 L 214.257996 22.484009 L 213.867004 21.89801 L 213.867004 21.507996 L 213.671997 21.311996 L 213.671997 20.140991 L 213.477005 19.945007 L 213.477005 8.421997 L 213.671997 8.22699 L 213.671997 7.835999 L 213.867004 7.640991 L 213.867004 7.445007 L 214.453003 6.859009 L 214.647995 6.859009 L 214.843994 6.664001 Z M 179.882996 6.664001 L 179.688004 6.859009 L 179.688004 7.445007 L 179.492004 7.640991 L 179.492004 8.421997 L 179.296997 8.617004 L 179.102005 9.984009 L 179.492004 9.203003 L 180.468994 8.22699 L 180.664001 8.22699 L 181.445007 7.640991 L 181.835999 7.640991 L 182.031006 7.445007 L 182.617004 7.445007 L 182.811996 7.25 L 184.766006 7.25 L 185.156006 7.640991 L 185.156006 8.031006 L 185.352005 8.22699 L 185.352005 18.968994 L 185.156006 19.164001 L 185.156006 21.507996 L 184.960999 21.703003 L 184.960999 22.484009 L 184.766006 22.679993 L 184.766006 23.07 L 183.983994 23.851997 L 183.593994 23.851997 L 183.789001 24.046997 L 184.375 24.046997 L 184.570007 23.851997 L 187.695007 23.851997 L 187.891006 24.046997 L 188.281006 24.046997 L 188.281006 23.851997 L 188.085999 23.851997 L 187.304993 23.07 L 187.304993 22.679993 L 187.108994 22.484009 L 187.108994 21.703003 L 186.914001 21.507996 L 186.914001 7.835999 L 187.5 7.25 L 189.453003 7.25 L 189.647995 7.445007 L 190.233994 7.445007 L 191.406006 8.031006 L 192.772995 9.39801 L 192.772995 9.593994 L 193.164001 9.789001 L 192.968994 9.593994 L 192.968994 9.007996 L 192.772995 8.811996 L 192.772995 8.031006 L 192.578003 7.835999 L 192.578003 7.25 L 192.382996 7.054993 L 192.382996 6.664001 Z M 130.272995 37.522995 L 130.468994 37.718994 L 131.25 37.718994 L 131.445007 37.914001 L 131.641006 37.914001 L 132.031006 38.304993 L 132.227005 38.304993 L 132.617004 38.695007 L 132.617004 38.891006 L 133.007996 39.281006 L 133.007996 39.477005 L 133.203003 39.671997 L 133.203003 40.061996 L 133.397995 40.257996 L 133.397995 41.039001 L 133.593994 41.233994 L 133.593994 42.210999 L 133.397995 42.406006 L 133.397995 43.188004 L 133.203003 43.382996 L 133.203003 43.772995 L 133.007996 43.968994 L 133.007996 44.164001 L 132.227005 44.945007 L 132.031006 44.945007 L 131.835999 45.141006 L 131.445007 45.141006 L 131.25 45.335999 L 130.664001 45.335999 L 130.468994 45.141006 L 129.882996 45.141006 L 129.688004 44.945007 L 129.102005 44.75 L 128.320007 43.968994 L 128.320007 43.772995 L 127.93 43.382996 L 127.93 42.992004 L 127.734001 42.796997 L 127.734001 42.406006 L 127.539001 42.210999 L 127.539001 40.061996 L 127.734001 39.867004 L 127.734001 39.281006 L 127.93 39.085999 L 127.93 38.891006 L 128.906006 37.914001 L 129.102005 37.914001 L 129.296997 37.718994 L 130.078003 37.718994 Z M 173.242004 6.664001 L 173.828003 7.25 L 173.828003 7.445007 L 174.022995 7.640991 L 174.022995 8.811996 L 174.218994 9.007996 L 174.218994 18.77301 L 174.022995 18.968994 L 174.022995 21.703003 L 173.828003 21.89801 L 173.828003 22.679993 L 173.632996 22.875 L 173.438004 23.460999 L 173.046997 23.851997 L 172.852005 23.851997 L 172.852005 24.046997 L 173.438004 24.046997 L 173.632996 23.851997 L 175.977005 23.851997 L 176.171997 24.046997 L 176.953003 24.046997 L 176.953003 23.851997 L 176.757996 23.851997 L 176.171997 23.265999 L 176.171997 23.07 L 175.977005 22.875 L 175.977005 22.093994 L 175.781006 21.89801 L 175.781006 7.835999 L 175.977005 7.640991 L 175.977005 7.25 L 176.367004 6.859009 L 176.561996 6.859009 L 176.757996 6.664001 Z M 227.539001 6.664001 L 228.320007 7.445007 L 228.320007 8.031006 L 228.516006 8.22699 L 228.516006 20.921997 L 228.320007 21.117004 L 228.320007 22.289001 L 228.125 22.484009 L 228.125 22.875 L 227.929993 23.07 L 227.929993 23.265999 L 227.343994 23.851997 L 227.343994 24.046997 L 227.929993 24.046997 L 228.125 23.851997 L 230.468994 23.851997 L 230.664001 24.046997 L 231.25 24.046997 L 231.25 23.851997 L 231.054993 23.851997 L 230.664001 23.460999 L 230.664001 23.265999 L 230.468994 23.07 L 230.468994 22.679993 L 230.272995 22.484009 L 230.272995 21.311996 L 230.078003 21.117004 L 230.078003 8.22699 L 230.272995 8.031006 L 230.272995 7.445007 L 231.054993 6.664001 Z M 115.039001 37.328003 L 115.039001 37.522995 L 115.625 37.522995 L 116.015999 37.914001 L 116.015999 44.75 L 115.625 45.335999 L 115.234001 45.335999 L 115.039001 45.531006 L 118.164001 45.531006 L 118.164001 45.335999 L 117.383003 45.335999 L 117.188004 45.141006 L 117.188004 42.210999 L 117.383003 42.016006 L 118.164001 42.016006 L 118.945 42.796997 L 118.945 42.992004 L 119.335999 43.382996 L 119.335999 43.578003 L 119.921997 44.164001 L 119.921997 44.358994 L 120.898003 45.335999 L 121.289001 45.335999 L 121.484001 45.531006 L 123.241997 45.531006 L 123.046997 45.531006 L 122.851997 45.335999 L 122.460999 45.335999 L 122.07 44.945007 L 121.875 44.945007 L 121.484001 44.554993 L 121.484001 44.358994 L 120.508003 43.382996 L 120.508003 43.188004 L 119.726997 42.406006 L 119.726997 42.210999 L 119.335999 41.820007 L 119.335999 41.625 L 119.530998 41.429993 L 119.726997 41.429993 L 119.921997 41.233994 L 119.921997 41.039001 L 120.508003 40.453003 L 120.508003 40.061996 L 120.703003 39.867004 L 120.703003 38.695007 L 120.508003 38.5 L 120.508003 38.304993 L 119.921997 37.718994 L 119.726997 37.718994 L 119.530998 37.522995 L 118.75 37.522995 L 118.555 37.328003 L 117.188004 37.328003 L 116.991997 37.522995 L 116.210999 37.522995 L 116.015999 37.328003 Z M 189.453003 37.132996 L 189.453003 37.328003 L 189.257996 37.522995 L 189.257996 38.5 L 189.061996 38.695007 L 189.061996 39.867004 L 188.867004 40.061996 L 188.867004 41.233994 L 188.671997 41.429993 L 188.671997 42.406006 L 188.477005 42.602005 L 188.477005 43.772995 L 188.281006 43.968994 L 188.281006 44.945007 L 187.891006 45.335999 L 187.304993 45.531006 L 189.843994 45.531006 L 189.647995 45.531006 L 189.453003 45.335999 L 189.061996 45.335999 L 188.867004 45.141006 L 188.867004 44.358994 L 189.061996 44.164001 L 189.061996 42.796997 L 189.257996 42.602005 L 189.257996 41.429993 L 189.453003 41.233994 L 189.453003 40.257996 L 189.647995 40.061996 L 189.843994 40.257996 L 189.843994 40.647995 L 190.039001 40.843994 L 190.039001 41.039001 L 190.233994 41.233994 L 190.233994 41.429993 L 190.429993 41.625 L 190.429993 41.820007 L 190.625 42.016006 L 190.625 42.210999 L 190.820007 42.406006 L 190.820007 42.602005 L 191.016006 42.796997 L 191.016006 42.992004 L 191.210999 43.188004 L 191.210999 43.382996 L 192.382996 45.531006 L 192.578003 45.335999 L 192.578003 45.141006 L 193.164001 44.164001 L 193.164001 43.772995 L 193.358994 43.578003 L 193.358994 43.382996 L 193.554993 43.188004 L 193.554993 42.992004 L 193.75 42.796997 L 193.75 42.602005 L 193.945007 42.406006 L 193.945007 42.210999 L 195.117004 40.061996 L 195.311996 40.257996 L 195.311996 41.039001 L 195.507996 41.233994 L 195.507996 42.602005 L 195.703003 42.796997 L 195.703003 43.968994 L 195.897995 44.164001 L 195.897995 45.141006 L 195.703003 45.335999 L 195.897995 45.531006 L 198.242004 45.531006 L 198.046997 45.531006 L 197.852005 45.335999 L 197.460999 45.335999 L 197.070007 44.75 L 197.070007 44.164001 L 196.875 43.968994 L 196.875 42.796997 L 196.679993 42.602005 L 196.679993 41.429993 L 196.483994 41.233994 L 196.483994 40.061996 L 196.289001 39.867004 L 196.289001 38.695007 L 196.093994 38.5 L 196.093994 37.522995 L 195.897995 37.328003 L 195.897995 37.132996 L 194.921997 38.891006 L 194.921997 39.281006 L 194.727005 39.477005 L 194.727005 39.671997 L 194.531006 39.867004 L 194.531006 40.061996 L 194.335999 40.257996 L 194.335999 40.453003 L 193.164001 42.602005 L 193.164001 42.992004 L 192.772995 43.578003 L 192.382996 43.188004 L 192.382996 42.992004 L 191.406006 41.233994 L 191.406006 40.843994 L 191.210999 40.647995 L 191.210999 40.453003 L 191.016006 40.257996 L 191.016006 40.061996 L 190.820007 39.867004 L 190.820007 39.671997 L 190.625 39.477005 L 190.625 39.281006 Z M 205.468994 37.132996 L 205.272995 37.328003 L 205.272995 37.718994 L 204.882996 38.304993 L 204.882996 38.695007 L 204.492004 39.281006 L 204.492004 39.671997 L 204.102005 40.257996 L 204.102005 40.647995 L 203.710999 41.233994 L 203.710999 41.625 L 203.320007 42.210999 L 203.320007 42.602005 L 202.929993 43.188004 L 202.929993 43.578003 L 202.539001 44.164001 L 202.539001 44.554993 L 202.343994 44.75 L 202.343994 44.945007 L 201.953003 45.335999 L 201.561996 45.335999 L 201.367004 45.531006 L 201.171997 45.531006 L 203.710999 45.531006 L 203.516006 45.531006 L 203.125 45.141006 L 203.125 44.358994 L 203.516006 43.772995 L 203.516006 43.382996 L 203.710999 43.188004 L 203.710999 42.992004 L 204.102005 42.602005 L 206.445007 42.602005 L 206.641006 42.796997 L 206.641006 43.188004 L 207.031006 43.772995 L 207.031006 44.164001 L 207.227005 44.358994 L 207.227005 44.75 L 207.421997 44.945007 L 207.421997 45.335999 L 207.227005 45.531006 L 209.960999 45.531006 L 209.570007 45.531006 L 209.375 45.335999 L 209.179993 45.335999 L 208.593994 44.75 L 208.593994 44.554993 L 208.203003 43.968994 L 208.203003 43.578003 L 207.811996 42.992004 L 207.811996 42.602005 L 207.421997 42.016006 L 207.421997 41.625 L 207.031006 41.039001 L 207.031006 40.647995 L 206.641006 40.061996 L 206.641006 39.671997 L 206.25 39.085999 L 206.25 38.695007 L 205.858994 38.108994 L 205.858994 37.718994 Z M 101.953003 37.328003 L 102.148003 37.522995 L 102.734001 37.522995 L 103.125 38.108994 L 103.125 43.578003 L 103.32 43.772995 L 103.32 43.968994 L 103.515999 44.164001 L 103.710999 44.75 L 104.883003 45.531006 L 105.664001 45.531006 L 105.859001 45.727005 L 106.640999 45.727005 L 106.835999 45.531006 L 107.616997 45.531006 L 107.811996 45.335999 L 108.008003 45.335999 L 108.398003 44.945007 L 108.594002 44.945007 L 108.789001 44.75 L 108.789001 44.554993 L 109.18 44.164001 L 109.18 43.772995 L 109.375 43.578003 L 109.375 42.992004 L 109.57 42.796997 L 109.57 37.914001 L 109.960999 37.522995 L 110.351997 37.522995 L 110.351997 37.328003 L 109.375 37.328003 L 109.18 37.522995 L 108.984001 37.328003 L 107.811996 37.328003 L 107.811996 37.522995 L 108.398003 37.522995 L 108.789001 37.914001 L 108.789001 43.188004 L 108.594002 43.382996 L 108.594002 43.968994 L 108.398003 44.164001 L 108.398003 44.358994 L 107.421997 45.141006 L 105.664001 45.141006 L 104.491997 43.968994 L 104.491997 43.382996 L 104.296997 43.188004 L 104.296997 37.914001 L 104.688004 37.522995 L 105.078003 37.522995 L 105.078003 37.328003 L 103.905998 37.328003 L 103.710999 37.522995 L 103.515999 37.328003 Z M 92.383003 37.328003 L 92.383003 37.522995 L 93.164001 37.522995 L 93.359001 37.718994 L 93.359001 45.141006 L 93.164001 45.335999 L 92.578003 45.531006 L 97.460999 45.531006 L 97.460999 45.141006 L 97.655998 44.945007 L 97.655998 43.968994 L 97.460999 44.554993 L 97.07 44.945007 L 96.875 44.945007 L 96.68 45.141006 L 95.311996 45.141006 L 94.726997 44.75 L 94.726997 41.625 L 94.921997 41.429993 L 96.68 41.429993 L 97.07 41.820007 L 97.07 42.406006 L 97.07 41.233994 L 97.265999 41.039001 L 97.265999 40.647995 L 96.68 41.039001 L 94.921997 41.039001 L 94.726997 40.843994 L 94.726997 38.108994 L 94.921997 37.914001 L 96.68 37.914001 L 97.265999 38.5 L 97.265999 38.891006 L 97.265999 37.718994 L 97.460999 37.522995 L 97.460999 37.328003 L 97.07 37.328003 L 96.875 37.522995 L 93.555 37.522995 L 93.359001 37.328003 Z M 131.25 9.007996 L 131.835999 9.984009 L 131.835999 10.375 L 132.227005 10.960999 L 132.227005 11.35199 L 132.617004 11.938004 L 132.617004 12.328003 L 133.007996 12.914001 L 133.007996 13.304993 L 133.397995 13.890991 L 133.397995 14.281006 L 133.593994 14.47699 L 133.593994 14.671997 L 133.397995 14.867004 L 128.906006 14.867004 L 128.710999 14.671997 L 129.102005 14.085999 L 129.102005 13.695007 L 129.688004 12.718994 L 129.688004 12.328003 L 130.272995 11.35199 L 130.272995 10.960999 L 130.468994 10.765991 L 130.468994 10.570007 L 130.858994 9.984009 L 130.858994 9.593994 Z M 77.148003 9.007996 L 77.734001 9.984009 L 77.734001 10.375 L 78.125 10.960999 L 78.125 11.35199 L 78.515999 11.938004 L 78.515999 12.328003 L 78.905998 12.914001 L 78.905998 13.304993 L 79.296997 13.890991 L 79.296997 14.281006 L 79.491997 14.47699 L 79.491997 14.671997 L 79.296997 14.867004 L 74.805 14.867004 L 74.609001 14.671997 L 75 14.085999 L 75 13.695007 L 75.585999 12.718994 L 75.585999 12.328003 L 76.171997 11.35199 L 76.171997 10.960999 L 76.366997 10.765991 L 76.366997 10.570007 L 76.758003 9.984009 L 76.758003 9.593994 Z M 241.406006 9.007996 L 241.602005 9.203003 L 241.602005 9.593994 L 241.796997 9.789001 L 241.796997 10.179993 L 242.188004 10.765991 L 242.188004 11.156006 L 242.578003 11.742004 L 242.578003 12.132996 L 242.968994 12.718994 L 242.968994 13.109009 L 243.358994 13.695007 L 243.358994 14.085999 L 243.75 14.671997 L 243.554993 14.867004 L 239.061996 14.867004 L 238.867004 14.671997 L 238.867004 14.47699 L 239.061996 14.281006 L 239.061996 13.890991 L 239.647995 12.914001 L 239.647995 12.52301 L 240.233994 11.546997 L 240.233994 11.156006 L 240.820007 10.179993 L 240.820007 9.789001 L 241.016006 9.593994 L 241.016006 9.39801 Z M 198.632996 9.007996 L 199.022995 9.39801 L 199.022995 9.789001 L 199.218994 9.984009 L 199.218994 10.375 L 199.608994 10.960999 L 199.608994 11.35199 L 200 11.938004 L 200 12.328003 L 200.391006 12.914001 L 200.391006 13.304993 L 200.781006 13.890991 L 200.781006 14.281006 L 200.977005 14.47699 L 200.977005 14.671997 L 200.781006 14.867004 L 196.289001 14.867004 L 196.093994 14.671997 L 196.483994 14.085999 L 196.483994 13.695007 L 197.070007 12.718994 L 197.070007 12.328003 L 197.266006 12.132996 L 197.266006 11.938004 L 197.852005 10.960999 L 197.852005 10.570007 L 198.046997 10.375 L 198.046997 10.179993 L 198.438004 9.593994 L 198.438004 9.203003 Z M 177.929993 37.328003 L 177.929993 37.522995 L 178.516006 37.522995 L 178.906006 38.108994 L 178.906006 44.554993 L 178.710999 44.75 L 178.710999 45.141006 L 178.516006 45.335999 L 177.929993 45.531006 L 182.811996 45.531006 L 183.007996 45.335999 L 183.007996 43.968994 L 183.007996 44.358994 L 182.811996 44.554993 L 182.811996 44.75 L 182.227005 45.141006 L 180.664001 45.141006 L 180.078003 44.554993 L 180.078003 41.625 L 180.272995 41.429993 L 182.031006 41.429993 L 182.421997 41.820007 L 182.421997 42.210999 L 182.617004 42.210999 L 182.617004 40.647995 L 182.031006 41.039001 L 180.272995 41.039001 L 180.078003 40.843994 L 180.078003 38.108994 L 180.272995 37.914001 L 182.227005 37.914001 L 182.617004 38.304993 L 182.617004 38.891006 L 182.811996 38.695007 L 182.811996 37.328003 L 182.421997 37.328003 L 182.227005 37.522995 L 179.102005 37.522995 L 178.906006 37.328003 Z M 166.602005 37.328003 L 166.406006 37.522995 L 166.406006 38.304993 L 166.210999 38.5 L 166.210999 38.695007 L 166.406006 38.695007 L 166.406006 38.5 L 166.992004 37.914001 L 169.141006 37.914001 L 169.335999 38.108994 L 169.335999 44.945007 L 168.75 45.531006 L 168.554993 45.531006 L 171.679993 45.531006 L 171.483994 45.531006 L 171.289001 45.335999 L 170.897995 45.335999 L 170.703003 45.141006 L 170.703003 44.75 L 170.507996 44.554993 L 170.507996 38.108994 L 170.703003 37.914001 L 172.656006 37.914001 L 173.242004 38.304993 L 173.438004 38.891006 L 173.438004 37.328003 L 172.852005 37.328003 L 172.656006 37.522995 L 167.772995 37.522995 L 167.578003 37.328003 Z M 161.522995 37.328003 L 159.179993 37.328003 L 158.983994 37.522995 L 158.789001 37.522995 L 158.007996 38.304993 L 158.007996 38.5 L 157.811996 38.695007 L 157.811996 39.867004 L 158.007996 40.061996 L 158.203003 40.647995 L 159.570007 42.016006 L 159.766006 42.016006 L 160.742004 42.992004 L 160.742004 43.188004 L 160.938004 43.382996 L 160.938004 44.358994 L 160.742004 44.554993 L 160.742004 44.75 L 160.352005 45.141006 L 159.960999 45.141006 L 159.766006 45.335999 L 158.983994 45.335999 L 158.789001 45.141006 L 158.593994 45.141006 L 157.811996 44.358994 L 157.811996 43.578003 L 157.617004 43.578003 L 157.617004 45.335999 L 157.811996 45.531006 L 158.593994 45.531006 L 158.789001 45.727005 L 159.570007 45.727005 L 159.766006 45.531006 L 160.352005 45.531006 L 160.546997 45.335999 L 160.938004 45.335999 L 161.718994 44.554993 L 161.718994 44.164001 L 161.914001 43.968994 L 161.914001 42.602005 L 161.718994 42.406006 L 161.522995 41.820007 L 160.546997 40.843994 L 160.352005 40.843994 L 159.570007 40.061996 L 159.375 40.061996 L 158.983994 39.671997 L 158.983994 39.477005 L 158.789001 39.281006 L 158.789001 38.304993 L 159.375 37.718994 L 159.766006 37.718994 L 159.960999 37.522995 L 160.352005 37.522995 L 160.546997 37.718994 L 161.132996 37.914001 L 161.328003 38.108994 L 161.328003 38.304993 L 161.522995 38.5 L 161.522995 38.891006 L 161.718994 39.085999 L 161.718994 37.522995 Z M 143.75 37.328003 L 141.602005 37.328003 L 141.406006 37.522995 L 140.820007 37.718994 L 140.233994 38.304993 L 140.233994 38.695007 L 140.039001 38.891006 L 140.039001 39.671997 L 140.233994 39.867004 L 140.233994 40.257996 L 140.429993 40.453003 L 140.429993 40.647995 L 141.602005 41.820007 L 141.796997 41.820007 L 143.164001 43.188004 L 143.164001 43.772995 L 143.358994 43.968994 L 143.164001 44.164001 L 143.164001 44.554993 L 142.578003 45.141006 L 142.382996 45.141006 L 142.188004 45.335999 L 141.210999 45.335999 L 141.016006 45.141006 L 140.820007 45.141006 L 140.233994 44.554993 L 140.233994 44.358994 L 140.039001 44.164001 L 140.039001 43.578003 L 139.843994 43.578003 L 139.843994 45.335999 L 140.039001 45.335999 L 140.233994 45.531006 L 141.016006 45.531006 L 141.210999 45.727005 L 141.796997 45.727005 L 141.992004 45.531006 L 142.772995 45.531006 L 142.968994 45.335999 L 143.164001 45.335999 L 143.945007 44.554993 L 143.945007 44.358994 L 144.141006 44.164001 L 144.141006 43.578003 L 144.335999 43.382996 L 144.141006 43.188004 L 144.141006 42.406006 L 143.945007 42.210999 L 143.945007 42.016006 L 142.578003 40.647995 L 142.382996 40.647995 L 141.210999 39.477005 L 141.210999 39.281006 L 141.016006 39.085999 L 141.016006 38.5 L 141.210999 38.304993 L 141.210999 38.108994 L 141.602005 37.718994 L 141.992004 37.718994 L 142.188004 37.522995 L 142.578003 37.522995 L 142.772995 37.718994 L 143.164001 37.718994 L 143.75 38.304993 L 143.75 38.5 L 143.945007 38.695007 L 143.945007 39.085999 L 143.945007 37.522995 Z M 149.414001 37.328003 L 149.414001 37.522995 L 149.804993 37.522995 L 150.195007 37.914001 L 150.195007 44.945007 L 149.804993 45.335999 L 149.414001 45.335999 L 149.414001 45.531006 L 152.539001 45.531006 L 152.343994 45.335999 L 151.757996 45.335999 L 151.367004 44.75 L 151.367004 37.914001 L 151.757996 37.522995 L 152.343994 37.522995 L 152.343994 37.328003 L 151.367004 37.328003 L 151.171997 37.522995 L 150.391006 37.522995 L 150.195007 37.328003 Z M 22.851999 49.632996 L 23.047001 49.438004 L 23.242001 49.438004 L 24.805 47.875 L 25 48.070007 L 25.195 48.070007 L 25.586 48.460999 L 25.976999 48.460999 L 26.172001 48.656006 L 26.562 48.656006 L 26.757999 48.852005 L 27.344 48.852005 L 27.539 49.046997 L 28.711 49.046997 L 28.906 49.242004 L 28.516001 49.632996 L 28.516001 49.828003 L 28.32 50.022995 L 28.125 50.022995 L 27.539 50.608994 L 27.148001 50.608994 L 26.952999 50.804993 L 26.172001 50.804993 L 25.976999 51 L 25.781 50.804993 L 24.805 50.804993 L 24.608999 50.608994 L 24.219 50.608994 L 24.023001 50.414001 L 23.827999 50.414001 L 23.438 50.022995 L 23.242001 50.022995 Z M 22.851999 2.171997 L 23.242001 1.781006 L 23.438 1.781006 L 23.827999 1.390991 L 24.023001 1.390991 L 24.219 1.195007 L 24.608999 1.195007 L 24.805 1 L 25.586 1 L 25.781 0.804993 L 26.172001 0.804993 L 26.367001 1 L 26.952999 1 L 27.148001 1.195007 L 27.539 1.195007 L 28.125 1.781006 L 28.32 1.781006 L 28.516001 1.97699 L 28.516001 2.171997 L 28.906 2.561996 L 28.711 2.757996 L 27.539 2.757996 L 27.344 2.953003 L 26.562 2.953003 L 25.976999 3.343994 L 25.586 3.343994 L 25.391001 3.539001 L 25.195 3.539001 L 24.805 3.929993 L 23.242001 2.367004 L 23.047001 2.367004 Z M 20.898001 49.632996 L 20.312 50.218994 L 20.117001 50.218994 L 19.531 50.608994 L 19.141001 50.608994 L 18.945 50.804993 L 18.164 50.804993 L 17.969 51 L 17.773001 51 L 17.577999 50.804993 L 16.797001 50.804993 L 16.601999 50.608994 L 16.016001 50.414001 L 14.844 49.242004 L 15.039 49.046997 L 16.406 49.046997 L 16.601999 48.852005 L 17.188 48.852005 L 17.382999 48.656006 L 17.773001 48.656006 L 17.969 48.460999 L 18.555 48.266006 L 18.945 47.875 L 20.312 49.242004 L 20.507999 49.242004 Z M 14.844 2.561996 L 16.016001 1.390991 L 16.211 1.390991 L 16.797001 1 L 17.577999 1 L 17.773001 0.804993 L 17.969 0.804993 L 18.164 1 L 18.945 1 L 19.141001 1.195007 L 19.531 1.195007 L 19.726999 1.390991 L 20.312 1.585999 L 20.898001 2.171997 L 20.507999 2.561996 L 20.312 2.561996 L 18.945 3.929993 L 18.555 3.539001 L 18.358999 3.539001 L 17.773001 3.14801 L 17.382999 3.14801 L 17.188 2.953003 L 16.601999 2.953003 L 16.406 2.757996 L 15.039 2.757996 Z M 117.383003 37.718994 L 118.164001 37.718994 L 118.359001 37.914001 L 118.945 38.108994 L 119.140999 38.304993 L 119.140999 38.5 L 119.530998 38.891006 L 119.530998 40.647995 L 119.335999 40.843994 L 119.335999 41.039001 L 118.75 41.625 L 118.555 41.625 L 118.359001 41.820007 L 117.969002 41.820007 L 117.773003 41.625 L 117.383003 41.625 L 117.188004 41.429993 L 117.188004 37.914001 Z M 167.772995 7.445007 L 167.382996 7.445007 L 167.188004 7.640991 L 166.992004 7.640991 L 166.602005 8.22699 L 166.602005 9.593994 L 166.992004 9.984009 L 167.578003 9.984009 L 167.968994 10.375 L 167.772995 10.570007 L 167.772995 11.35199 L 167.578003 11.546997 L 167.578003 11.938004 L 167.382996 12.132996 L 167.382996 12.328003 L 167.188004 12.52301 L 166.992004 13.109009 L 167.188004 13.109009 L 167.578003 12.718994 L 167.578003 12.52301 L 167.772995 12.328003 L 167.772995 12.132996 L 168.358994 11.156006 L 168.358994 10.765991 L 168.554993 10.570007 L 168.554993 8.22699 L 168.358994 8.031006 L 168.358994 7.835999 Z M 22.07 45.531006 L 23.632999 47.093994 L 21.875 48.852005 L 20.312 47.289001 L 20.312 47.093994 L 21.875 45.531006 Z M 21.875 2.953003 L 23.632999 4.710999 L 23.047001 5.296997 L 22.851999 5.296997 L 22.266001 5.882996 L 22.266001 6.078003 L 22.07 6.27301 L 21.875 6.27301 L 20.312 4.710999 L 20.312 4.515991 Z M 205.272995 39.281006 L 205.468994 39.477005 L 205.468994 39.867004 L 205.664001 40.061996 L 205.664001 40.453003 L 205.858994 40.647995 L 205.858994 41.039001 L 206.054993 41.233994 L 206.054993 41.625 L 206.25 41.820007 L 206.25 42.016006 L 206.054993 42.210999 L 204.296997 42.210999 L 204.102005 42.016006 L 204.102005 41.820007 L 204.492004 41.233994 L 204.492004 40.843994 L 204.688004 40.647995 L 204.688004 40.257996 L 204.882996 40.061996 L 204.882996 39.671997 Z M 12.305 47.093994 L 12.5 46.897995 L 12.695 47.093994 L 12.5 47.289001 Z M 0.977 37.328003 L 1.172 37.132996 L 1.367 37.328003 L 1.172 37.522995 Z M 0.977 14.47699 L 1.172 14.281006 L 1.367 14.47699 L 1.172 14.671997 Z M 12.305 4.710999 L 12.5 4.515991 L 12.695 4.710999 L 12.5 4.906006 Z"/>
</svg>
