<?xml version="1.0" encoding="UTF-8"?>
<!-- Generated by Pixelmator Pro 3.8 -->
<svg width="250" height="26" viewBox="0 0 250 26" xmlns="http://www.w3.org/2000/svg">
    <path id="Path" fill="#012169" fill-rule="evenodd" stroke="none" d="M 217.375 6.035004 L 214.932007 5.179993 L 214.197998 5.302002 L 208.822006 8.112 L 204.057007 11.044998 L 206.744995 12.266998 L 211.998993 8.846008 Z M 223.485001 8.479004 L 220.552002 7.13501 L 214.809006 10.311996 L 209.800003 13.733002 L 212.854004 15.444 L 219.453003 10.801003 Z M 71.113998 10.922997 L 70.014999 11.289001 L 68.547997 12.144997 L 67.204002 13.611 L 66.593002 14.833 L 66.226997 16.177002 L 66.226997 18.621002 L 66.716003 20.209 L 67.325996 21.309006 L 68.181999 22.285995 L 69.158997 23.020004 L 70.502998 23.630005 L 73.314003 23.996994 L 75.635002 23.507996 L 77.468002 22.408997 L 78.445999 21.309006 L 79.179001 19.964996 L 79.544998 18.621002 L 79.544998 16.054993 L 79.179001 14.833 L 78.323997 13.244003 L 77.223999 12.144997 L 75.758003 11.289001 L 73.925003 10.801003 Z M 175.709 11.412003 L 173.753998 12.877998 L 173.143005 13.733002 L 172.410004 15.444 L 172.164993 16.666 L 172.164993 18.009995 L 172.410004 19.354004 L 172.897995 20.576004 L 174.365005 22.408997 L 175.220001 23.020004 L 176.686005 23.630005 L 177.785995 23.875 L 180.352005 23.875 L 182.673996 23.141998 L 182.673996 20.453995 L 181.695999 21.065002 L 180.595993 21.431 L 179.373993 21.552994 L 178.029999 21.309006 L 177.052994 20.820007 L 176.074997 19.843002 L 175.464005 18.498993 L 175.341995 17.520996 L 175.464005 16.298996 L 175.953003 15.077003 L 176.931 13.977997 L 177.785995 13.488998 L 178.763 13.244003 L 180.108002 13.244003 L 181.451996 13.611 L 182.550995 14.344002 L 182.550995 11.533997 L 180.352005 10.801003 L 177.664001 10.801003 Z M 0.122 11.044998 L 0 23.630005 L 6.598 23.630005 L 8.431 22.897003 L 9.164 22.042007 L 9.531 21.065002 L 9.531 19.354004 L 9.042 18.253998 L 8.553 17.764999 L 7.087 17.031998 L 8.187 16.542999 L 9.042 15.566002 L 9.164 13.488998 L 8.798 12.633003 L 7.942 11.778 L 6.476 11.167 Z M 17.84 11.044998 L 13.074 23.630005 L 16.129 23.630005 L 16.983999 21.065002 L 21.628 21.065002 L 22.483 23.630005 L 25.538 23.630005 L 20.893999 11.167 Z M 30.059 11.044998 L 30.059 23.630005 L 32.747002 23.630005 L 32.868999 15.198997 L 38.244999 23.630005 L 41.422001 23.630005 L 41.422001 11.044998 L 38.734001 11.044998 L 38.612 19.475998 L 33.112999 11.044998 Z M 47.653999 11.044998 L 47.653999 23.630005 L 50.587002 23.630005 L 50.709 17.276993 L 54.862999 23.630005 L 58.284 23.630005 L 53.886002 17.276993 L 54.007999 16.787994 L 57.917999 11.044998 L 54.618999 11.044998 L 50.709 17.031998 L 50.587002 11.044998 Z M 92.375 11.044998 L 83.944 11.044998 L 83.944 23.630005 L 86.999001 23.630005 L 87.121002 18.621002 L 91.030998 18.621002 L 90.908997 16.298996 L 86.999001 16.177002 L 86.999001 13.488998 L 91.887001 13.366997 Z M 103.738998 11.044998 L 99.096001 23.630005 L 102.151001 23.630005 L 103.005997 21.065002 L 107.527 21.065002 L 107.771004 21.309006 L 108.503998 23.630005 L 111.558998 23.630005 L 106.793999 11.044998 Z M 116.202003 11.044998 L 116.202003 23.630005 L 118.890999 23.630005 L 119.013 15.321999 L 123.044998 23.630005 L 127.077003 15.321999 L 127.198997 23.630005 L 130.009995 23.630005 L 129.888 11.044998 L 126.466003 11.044998 L 123.044998 17.888 L 119.746002 11.044998 Z M 136.119003 11.044998 L 136.119003 23.630005 L 144.673004 23.630005 L 144.550003 21.309006 L 139.052002 21.186996 L 139.173996 18.376007 L 143.451004 18.376007 L 143.451004 16.177002 L 139.052002 16.054993 L 139.052002 13.488998 L 144.184006 13.366997 L 144.673004 11.044998 Z M 149.927002 11.044998 L 149.927002 23.753006 L 152.858994 23.630005 L 152.981003 18.742996 L 153.837006 18.865005 L 156.524994 23.630005 L 159.701996 23.630005 L 156.647003 18.376007 L 158.358002 17.399002 L 158.968994 16.421005 L 159.212997 15.444 L 159.212997 14.222 L 158.723999 12.755997 L 157.746994 11.778 L 156.158005 11.167 Z M 164.589005 11.044998 L 164.589005 23.630005 L 167.522003 23.630005 L 167.522003 11.044998 Z M 191.104996 11.044998 L 186.339005 23.630005 L 189.393997 23.630005 L 190.248993 21.065002 L 194.770004 21.065002 L 195.014999 21.309006 L 195.748001 23.630005 L 198.802994 23.630005 L 194.158997 11.167 Z M 2.933 13.366997 L 5.132 13.244003 L 5.621 13.488998 L 6.232 14.222 L 6.109 15.566002 L 5.621 16.054993 L 5.01 16.298996 L 3.055 16.298996 Z M 72.092003 13.244003 L 73.68 13.244003 L 74.779999 13.733002 L 75.758003 14.710999 L 76.246002 15.688004 L 76.490997 16.787994 L 76.490997 18.009995 L 75.879997 19.843002 L 75.024002 20.820007 L 73.925003 21.431 L 73.314003 21.552994 L 71.848 21.431 L 70.748001 20.820007 L 69.648003 19.354004 L 69.281998 17.764999 L 69.403999 16.177002 L 70.014999 14.710999 L 70.991997 13.733002 Z M 152.737 13.488998 L 154.936005 13.366997 L 155.669998 13.733002 L 156.158005 14.587997 L 156.035995 15.809998 L 154.936005 16.666 L 152.858994 16.666 Z M 19.306 14.099998 L 20.771999 18.742996 L 17.84 18.865005 L 17.716999 18.498993 Z M 105.327003 14.099998 L 106.793999 18.742996 L 103.861 18.865005 L 103.738998 18.376007 L 105.083 14.344002 Z M 192.570999 14.099998 L 194.037003 18.742996 L 191.104996 18.865005 L 190.981995 18.498993 Z M 2.933 18.376007 L 5.132 18.253998 L 5.865 18.498993 L 6.598 19.475998 L 6.476 20.697998 L 5.865 21.309006 L 5.254 21.552994 L 3.055 21.552994 Z"/>
    <path id="path1" fill="#e31837" fill-rule="evenodd" stroke="none" d="M 224.218002 1.269989 L 229.472 2.858002 L 233.259995 4.446991 L 236.070007 3.591003 L 230.572006 1.514008 L 227.151001 0.537003 Z M 218.108994 3.591003 L 222.873993 5.057999 L 227.028 6.890991 L 230.082993 5.54599 L 225.929001 3.835999 L 221.408005 2.492004 L 220.919006 2.492004 Z M 242.669006 6.768005 L 239.613998 5.179993 L 239.125 5.179993 L 233.748993 7.013 L 230.694 8.356995 L 225.195999 11.289001 L 220.796997 14.099998 L 216.153 17.520996 L 219.330002 19.720001 L 219.697006 19.720001 L 225.072998 15.688004 L 231.794006 11.533997 L 236.925995 8.968002 Z M 250 10.922997 L 246.457001 8.846008 L 243.035004 10.067001 L 238.024994 12.511002 L 232.649002 15.688004 L 227.272995 19.354004 L 223.240005 22.531006 L 227.028 25.462997 L 232.404999 21.186996 L 237.414001 17.764999 L 243.768005 13.977997 Z"/>
</svg>
