<?xml version="1.0" encoding="UTF-8"?>
<svg xmlns="http://www.w3.org/2000/svg" viewBox="0 0 250 250" role="img" aria-label="Bank of America logo">
  <title>Bank of America</title>
  <path fill="#012169" fill-rule="evenodd" d="M217.375 118.035L214.932 117.18L214.198 117.302L208.822 120.112L204.057 123.045L206.745 124.267L211.999 120.846ZM223.485 120.479L220.552 119.135L214.809 122.312L209.8 125.733L212.854 127.444L219.453 122.801ZM71.114 122.923L70.015 123.289L68.548 124.145L67.204 125.611L66.593 126.833L66.227 128.177L66.227 130.621L66.716 132.209L67.326 133.309L68.182 134.286L69.159 135.02L70.503 135.63L73.314 135.997L75.635 135.508L77.468 134.409L78.446 133.309L79.179 131.965L79.545 130.621L79.545 128.055L79.179 126.833L78.324 125.244L77.224 124.145L75.758 123.289L73.925 122.801ZM175.709 123.412L173.754 124.878L173.143 125.733L172.41 127.444L172.165 128.666L172.165 130.01L172.41 131.354L172.898 132.576L174.365 134.409L175.22 135.02L176.686 135.63L177.786 135.875L180.352 135.875L182.674 135.142L182.674 132.454L181.696 133.065L180.596 133.431L179.374 133.553L178.03 133.309L177.053 132.82L176.075 131.843L175.464 130.499L175.342 129.521L175.464 128.299L175.953 127.077L176.931 125.978L177.786 125.489L178.763 125.244L180.108 125.244L181.452 125.611L182.551 126.344L182.551 123.534L180.352 122.801L177.664 122.801ZM0.122 123.045L0 135.63L6.598 135.63L8.431 134.897L9.164 134.042L9.531 133.065L9.531 131.354L9.042 130.254L8.553 129.765L7.087 129.032L8.187 128.543L9.042 127.566L9.164 125.489L8.798 124.633L7.942 123.778L6.476 123.167ZM17.84 123.045L13.074 135.63L16.129 135.63L16.984 133.065L21.628 133.065L22.483 135.63L25.538 135.63L20.894 123.167ZM30.059 123.045L30.059 135.63L32.747 135.63L32.869 127.199L38.245 135.63L41.422 135.63L41.422 123.045L38.734 123.045L38.612 131.476L33.113 123.045ZM47.654 123.045L47.654 135.63L50.587 135.63L50.709 129.277L54.863 135.63L58.284 135.63L53.886 129.277L54.008 128.788L57.918 123.045L54.619 123.045L50.709 129.032L50.587 123.045ZM92.375 123.045L83.944 123.045L83.944 135.63L86.999 135.63L87.121 130.621L91.031 130.621L90.909 128.299L86.999 128.177L86.999 125.489L91.887 125.367ZM103.739 123.045L99.096 135.63L102.151 135.63L103.006 133.065L107.527 133.065L107.771 133.309L108.504 135.63L111.559 135.63L106.794 123.045ZM116.202 123.045L116.202 135.63L118.891 135.63L119.013 127.322L123.045 135.63L127.077 127.322L127.199 135.63L130.01 135.63L129.888 123.045L126.466 123.045L123.045 129.888L119.746 123.045ZM136.119 123.045L136.119 135.63L144.673 135.63L144.55 133.309L139.052 133.187L139.174 130.376L143.451 130.376L143.451 128.177L139.052 128.055L139.052 125.489L144.184 125.367L144.673 123.045ZM149.927 123.045L149.927 135.753L152.859 135.63L152.981 130.743L153.837 130.865L156.525 135.63L159.702 135.63L156.647 130.376L158.358 129.399L158.969 128.421L159.213 127.444L159.213 126.222L158.724 124.756L157.747 123.778L156.158 123.167ZM164.589 123.045L164.589 135.63L167.522 135.63L167.522 123.045ZM191.105 123.045L186.339 135.63L189.394 135.63L190.249 133.065L194.77 133.065L195.015 133.309L195.748 135.63L198.803 135.63L194.159 123.167ZM2.933 125.367L5.132 125.244L5.621 125.489L6.232 126.222L6.109 127.566L5.621 128.055L5.01 128.299L3.055 128.299ZM72.092 125.244L73.68 125.244L74.78 125.733L75.758 126.711L76.246 127.688L76.491 128.788L76.491 130.01L75.88 131.843L75.024 132.82L73.925 133.431L73.314 133.553L71.848 133.431L70.748 132.82L69.648 131.354L69.282 129.765L69.404 128.177L70.015 126.711L70.992 125.733ZM152.737 125.489L154.936 125.367L155.67 125.733L156.158 126.588L156.036 127.81L154.936 128.666L152.859 128.666ZM19.306 126.1L20.772 130.743L17.84 130.865L17.717 130.499ZM105.327 126.1L106.794 130.743L103.861 130.865L103.739 130.376L105.083 126.344ZM192.571 126.1L194.037 130.743L191.105 130.865L190.982 130.499ZM2.933 130.376L5.132 130.254L5.865 130.499L6.598 131.476L6.476 132.698L5.865 133.309L5.254 133.553L3.055 133.553Z"/>
  <path fill="#E31837" fill-rule="evenodd" d="M224.218 113.27L229.472 114.858L233.26 116.447L236.07 115.591L230.572 113.514L227.151 112.537ZM218.109 115.591L222.874 117.058L227.028 118.891L230.083 117.546L225.929 115.836L221.408 114.492L220.919 114.492ZM242.669 118.768L239.614 117.18L239.125 117.18L233.749 119.013L230.694 120.357L225.196 123.289L220.797 126.1L216.153 129.521L219.33 131.72L219.697 131.72L225.073 127.688L231.794 123.534L236.926 120.968ZM250 122.923L246.457 120.846L243.035 122.067L238.025 124.511L232.649 127.688L227.273 131.354L223.24 134.531L227.028 137.463L232.405 133.187L237.414 129.765L243.768 125.978Z"/>
</svg>
