<?xml version="1.0" encoding="UTF-8"?>
<svg xmlns="http://www.w3.org/2000/svg" viewBox="0 0 250 250" role="img" aria-label="Barclays logo">
  <title>Barclays</title>
  <path fill="#00AEEF" fill-rule="evenodd" d="M17.313 104.034L16.36 104.67L14.136 104.828L13.183 105.305L12.23 106.417L12.23 107.529L13.024 107.211L15.089 107.37L16.201 108.164L16.677 109.117L16.36 112.294L15.724 113.405L14.136 114.517L11.277 114.676L9.848 113.723L10.959 112.294L10.959 111.023L10.642 110.388L9.212 109.276L6.353 108.958L3.971 109.911L3.018 110.705L1.906 112.294L0.635 115.311L0.159 117.853L0 121.665L0.794 127.541L1.747 130.241L4.447 135.006L6.194 133.1L7.783 130.718L8.1 130.877L8.1 132.465L6.036 137.23L6.671 137.548L8.895 135.801L10.959 133.1L12.865 129.765L13.183 130.083L13.183 131.194L12.071 134.371L10.642 136.912L8.577 139.612L13.342 143.266L18.266 145.648L20.172 145.966L25.413 143.583L30.654 139.771L28.272 136.277L26.842 133.418L26.048 130.718L26.366 129.924L26.842 130.241L29.225 134.371L32.084 137.23L33.037 137.548L33.196 136.753L31.449 133.259L31.131 132.147L31.131 131.036L31.449 130.718L33.355 133.418L34.943 135.006L37.643 130.083L38.437 127.859L39.231 123.094L39.231 118.488L38.119 113.723L36.69 111.182L35.102 109.752L33.037 108.958L30.019 109.276L28.748 110.229L28.272 111.341L28.431 112.452L29.543 113.564L29.384 113.882L27.954 114.676L25.731 114.676L24.778 114.199L23.348 112.611L22.872 110.705L22.713 107.211L22.078 105.464L20.172 104.193ZM154.543 108.482L147.554 107.846L144.06 108.005L141.677 108.482L136.753 110.864L134.212 113.247L132.942 114.994L131.194 118.647L130.241 122.3L129.924 125.318L130.083 129.447L131.036 133.1L132.465 135.801L134.689 138.342L136.436 139.612L138.024 140.407L141.042 141.201L145.172 141.201L146.919 140.883L150.413 139.295L153.431 136.118L154.86 132.942L150.254 135.642L147.395 136.436L143.266 136.277L140.407 135.006L138.342 132.942L137.071 130.4L136.436 127.541L136.436 123.571L137.071 120.076L138.659 116.264L140.724 113.723L143.107 112.294L144.695 111.817L147.554 111.817L149.301 112.294L151.207 113.405L152.954 115.152L153.748 116.423ZM250 108.482L243.17 107.846L238.564 108.164L234.911 109.435L232.37 111.499L231.258 113.405L230.623 116.264L230.781 118.806L231.576 120.87L232.687 122.459L234.752 124.365L240.947 128.335L242.853 130.083L243.647 131.353L243.806 133.736L243.011 135.324L240.788 136.912L238.405 137.389L236.023 137.23L234.276 136.753L232.211 135.642L230.623 134.212L229.034 131.83L228.558 139.612L233.799 141.042L239.676 141.201L242.058 140.724L245.394 139.295L246.823 138.342L248.571 136.436L249.524 134.689L250 132.783L250 130.4L249.047 127.541L247.618 125.635L245.87 124.047L238.564 119.123L237.135 117.535L236.658 115.788L237.294 113.723L238.405 112.611L240.47 111.817L243.329 111.817L245.076 112.294L247.3 113.564L249.365 115.788ZM201.874 108.482L203.463 110.07L205.686 113.564L209.18 120.87L211.404 127.065L211.086 134.53L210.292 138.818L209.498 140.724L217.757 140.724L216.963 137.706L217.122 131.512L217.757 127.541L220.616 122.3L228.24 111.023L230.623 108.482L222.522 108.482L222.84 109.911L222.522 111.976L216.169 122.141L215.693 121.665L211.245 110.864L209.657 108.64L207.592 108.164ZM46.061 108.482L46.537 109.593L46.855 112.452L46.22 125.794L45.267 136.118L44.632 139.136L43.837 140.724L57.656 140.565L60.197 140.089L64.009 138.501L66.55 136.436L68.139 133.895L68.774 131.194L68.615 128.971L67.821 126.747L66.391 125L63.691 123.412L60.197 122.618L64.327 120.553L66.709 117.853L67.344 115.947L67.344 113.723L66.709 111.658L64.803 109.752L61.626 108.64ZM82.592 108.482L82.91 110.546L78.78 120.235L71.792 134.53L67.662 140.724L74.968 140.724L74.809 139.295L75.127 137.548L77.986 131.353L84.657 131.353L87.516 131.036L88.945 130.559L89.422 130.718L91.804 138.659L93.234 140.724L99.905 140.724L97.681 137.23L95.299 130.4L89.422 108.64ZM104.511 108.482L105.146 110.388L105.305 112.611L104.67 125.635L103.558 137.071L103.081 139.136L102.287 140.724L110.546 140.724L109.911 138.659L109.911 132.147L110.229 126.906L110.546 126.271L111.182 126.271L112.611 127.382L122.935 141.518L124.206 141.995L131.194 141.836L131.353 141.677L128.812 139.454L117.694 125L118.011 124.524L118.806 124.365L122.141 122.459L123.412 121.188L124.682 119.123L125.318 116.582L125.318 114.358L124.841 112.452L123.888 110.864L121.506 109.276L119.123 108.64ZM159.307 108.482L159.784 109.276L160.102 111.023L159.784 121.665L158.672 135.165L158.037 138.818L157.243 140.724L179.638 140.724L179.638 138.024L181.385 133.577L182.656 131.353L189.327 131.353L192.186 131.036L193.456 130.559L194.091 130.718L196.474 138.818L197.427 140.407L198.221 140.883L204.574 140.724L202.192 136.912L200.445 131.989L193.933 108.482L187.262 108.482L187.579 110.546L186.309 113.882L180.591 126.271L176.302 134.689L175.667 135.324L173.602 136.277L169.473 136.753L166.455 136.753L165.502 136.436L164.867 135.642L164.867 131.83L166.296 114.041L166.931 110.388L167.726 108.482ZM53.367 112.294L57.814 112.452L59.72 113.247L60.673 114.199L61.15 115.311L60.991 117.376L60.356 118.647L59.085 119.917L55.432 121.188L52.573 121.347L52.255 121.029L52.891 113.564ZM111.976 112.294L115.152 112.294L116.423 112.611L118.488 114.199L118.964 115.311L118.964 117.694L118.011 119.917L116.264 121.506L113.882 122.459L111.817 122.618L110.705 122.3L111.499 112.611ZM85.133 116.105L88.31 127.224L80.051 127.382L79.892 126.906L84.816 116.264ZM189.644 116.105L190.28 117.376L192.98 127.224L184.72 127.382L184.562 126.906ZM52.255 125L54.956 125L58.132 125.476L60.038 126.429L61.309 127.7L62.103 129.606L62.103 131.83L61.309 133.895L59.562 135.642L56.385 136.753L53.05 136.753L51.461 135.959L51.938 125.318Z"/>
</svg>
