<?xml version="1.0" encoding="UTF-8"?>
<!-- Generated by Pixelmator Pro 3.8 -->
<svg width="250" height="42" viewBox="0 0 250 42" xmlns="http://www.w3.org/2000/svg">
    <path id="Path" fill="#00aeef" fill-rule="evenodd" stroke="none" d="M 17.313 0.033997 L 16.360001 0.669998 L 14.136 0.828003 L 13.183 1.304993 L 12.23 2.416992 L 12.23 3.528992 L 13.024 3.210999 L 15.089 3.369995 L 16.201 4.164001 L 16.677 5.117004 L 16.360001 8.294006 L 15.724 9.404999 L 14.136 10.516998 L 11.277 10.675995 L 9.848 9.722992 L 10.959 8.294006 L 10.959 7.02301 L 10.642 6.388 L 9.212 5.276001 L 6.353 4.958008 L 3.971 5.911011 L 3.018 6.705002 L 1.906 8.294006 L 0.635 11.311005 L 0.159 13.852997 L 0 17.665009 L 0.794 23.541 L 1.747 26.240997 L 4.447 31.005997 L 6.194 29.100006 L 7.783 26.718002 L 8.1 26.876999 L 8.1 28.464996 L 6.036 33.229996 L 6.671 33.548004 L 8.895 31.800995 L 10.959 29.100006 L 12.865 25.764999 L 13.183 26.082993 L 13.183 27.194 L 12.071 30.371002 L 10.642 32.912003 L 8.577 35.612 L 13.342 39.266006 L 18.266001 41.647995 L 20.172001 41.966003 L 25.413 39.582993 L 30.653999 35.770996 L 28.271999 32.276993 L 26.841999 29.417999 L 26.048 26.718002 L 26.365999 25.923996 L 26.841999 26.240997 L 29.225 30.371002 L 32.084 33.229996 L 33.036999 33.548004 L 33.195999 32.753006 L 31.448999 29.259003 L 31.131001 28.147003 L 31.131001 27.035995 L 31.448999 26.718002 L 33.355 29.417999 L 34.943001 31.005997 L 37.643002 26.082993 L 38.437 23.859001 L 39.230999 19.094002 L 39.230999 14.488007 L 38.118999 9.722992 L 36.689999 7.182007 L 35.102001 5.751999 L 33.036999 4.958008 L 30.018999 5.276001 L 28.747999 6.229004 L 28.271999 7.341003 L 28.431 8.451996 L 29.542999 9.563995 L 29.384001 9.882004 L 27.954 10.675995 L 25.731001 10.675995 L 24.778 10.199005 L 23.348 8.610992 L 22.872 6.705002 L 22.712999 3.210999 L 22.077999 1.463989 L 20.172001 0.192993 Z M 154.542999 4.481995 L 147.554001 3.846008 L 144.059998 4.005005 L 141.677002 4.481995 L 136.753006 6.863998 L 134.212006 9.247009 L 132.942001 10.994003 L 131.194 14.647003 L 130.240997 18.300003 L 129.923996 21.318001 L 130.082993 25.447006 L 131.035995 29.100006 L 132.464996 31.800995 L 134.688995 34.341995 L 136.436005 35.612 L 138.024002 36.406998 L 141.042007 37.201004 L 145.171997 37.201004 L 146.919006 36.882996 L 150.412994 35.294998 L 153.431 32.117996 L 154.860001 28.942001 L 150.253998 31.641998 L 147.395004 32.436005 L 143.266006 32.276993 L 140.406998 31.005997 L 138.341995 28.942001 L 137.070999 26.399994 L 136.436005 23.541 L 136.436005 19.570999 L 137.070999 16.075989 L 138.658997 12.264008 L 140.723999 9.722992 L 143.106995 8.294006 L 144.695007 7.817001 L 147.554001 7.817001 L 149.300995 8.294006 L 151.207001 9.404999 L 152.953995 11.152008 L 153.748001 12.423004 Z M 250 4.481995 L 243.169998 3.846008 L 238.563995 4.164001 L 234.910995 5.434998 L 232.369995 7.498993 L 231.257996 9.404999 L 230.623001 12.264008 L 230.781006 14.806 L 231.576004 16.869995 L 232.686996 18.459 L 234.751999 20.364998 L 240.947006 24.335007 L 242.852997 26.082993 L 243.647003 27.352997 L 243.806 29.735992 L 243.011002 31.324005 L 240.787994 32.912003 L 238.404999 33.389008 L 236.022995 33.229996 L 234.276001 32.753006 L 232.210999 31.641998 L 230.623001 30.212006 L 229.033997 27.830002 L 228.557999 35.612 L 233.798996 37.042007 L 239.675995 37.201004 L 242.057999 36.723999 L 245.393997 35.294998 L 246.822998 34.341995 L 248.570999 32.436005 L 249.524002 30.688995 L 250 28.783005 L 250 26.399994 L 249.046997 23.541 L 247.617996 21.635002 L 245.869995 20.046997 L 238.563995 15.123001 L 237.134995 13.535004 L 236.658005 11.787994 L 237.294006 9.722992 L 238.404999 8.610992 L 240.470001 7.817001 L 243.328995 7.817001 L 245.076004 8.294006 L 247.300003 9.563995 L 249.365005 11.787994 Z M 201.873993 4.481995 L 203.462997 6.070007 L 205.686005 9.563995 L 209.179993 16.869995 L 211.404007 23.065002 L 211.085999 30.529999 L 210.292007 34.817993 L 209.498001 36.723999 L 217.757004 36.723999 L 216.962997 33.705994 L 217.121994 27.511993 L 217.757004 23.541 L 220.615997 18.300003 L 228.240005 7.02301 L 230.623001 4.481995 L 222.522003 4.481995 L 222.839996 5.911011 L 222.522003 7.975998 L 216.169006 18.140999 L 215.692993 17.665009 L 211.244995 6.863998 L 209.656998 4.639999 L 207.591995 4.164001 Z M 46.061001 4.481995 L 46.536999 5.593002 L 46.855 8.451996 L 46.220001 21.793999 L 45.266998 32.117996 L 44.632 35.136002 L 43.837002 36.723999 L 57.655998 36.565002 L 60.196999 36.089005 L 64.009003 34.501007 L 66.550003 32.436005 L 68.139 29.895004 L 68.774002 27.194 L 68.614998 24.970993 L 67.820999 22.747002 L 66.390999 21 L 63.691002 19.412003 L 60.196999 18.617996 L 64.327003 16.553009 L 66.709 13.852997 L 67.344002 11.946991 L 67.344002 9.722992 L 66.709 7.65799 L 64.803001 5.751999 L 61.625999 4.639999 Z M 82.592003 4.481995 L 82.910004 6.54599 L 78.779999 16.235001 L 71.792 30.529999 L 67.662003 36.723999 L 74.968002 36.723999 L 74.808998 35.294998 L 75.126999 33.548004 L 77.986 27.352997 L 84.656998 27.352997 L 87.515999 27.035995 L 88.945 26.559006 L 89.421997 26.718002 L 91.804001 34.658997 L 93.234001 36.723999 L 99.904999 36.723999 L 97.681 33.229996 L 95.299004 26.399994 L 89.421997 4.639999 Z M 104.511002 4.481995 L 105.146004 6.388 L 105.305 8.610992 L 104.669998 21.635002 L 103.557999 33.070999 L 103.081001 35.136002 L 102.287003 36.723999 L 110.545998 36.723999 L 109.911003 34.658997 L 109.911003 28.147003 L 110.228996 22.905998 L 110.545998 22.271004 L 111.181999 22.271004 L 112.611 23.382004 L 122.934998 37.518005 L 124.206001 37.994995 L 131.194 37.835999 L 131.352997 37.677002 L 128.811996 35.453995 L 117.694 21 L 118.011002 20.524002 L 118.806 20.364998 L 122.140999 18.459 L 123.412003 17.188004 L 124.681999 15.123001 L 125.318001 12.582001 L 125.318001 10.358002 L 124.841003 8.451996 L 123.888 6.863998 L 121.505997 5.276001 L 119.123001 4.639999 Z M 159.307007 4.481995 L 159.783997 5.276001 L 160.102005 7.02301 L 159.783997 17.665009 L 158.671997 31.164993 L 158.037003 34.817993 L 157.242996 36.723999 L 179.638 36.723999 L 179.638 34.024002 L 181.384995 29.576996 L 182.656006 27.352997 L 189.326996 27.352997 L 192.186005 27.035995 L 193.455994 26.559006 L 194.091003 26.718002 L 196.473999 34.817993 L 197.427002 36.406998 L 198.220993 36.882996 L 204.574005 36.723999 L 202.192001 32.912003 L 200.445007 27.988998 L 193.932999 4.481995 L 187.261993 4.481995 L 187.578995 6.54599 L 186.309006 9.882004 L 180.591003 22.271004 L 176.302002 30.688995 L 175.667007 31.324005 L 173.602005 32.276993 L 169.473007 32.753006 L 166.455002 32.753006 L 165.501999 32.436005 L 164.867004 31.641998 L 164.867004 27.830002 L 166.296005 10.041 L 166.931 6.388 L 167.725998 4.481995 Z M 53.367001 8.294006 L 57.813999 8.451996 L 59.720001 9.247009 L 60.673 10.199005 L 61.150002 11.311005 L 60.991001 13.376007 L 60.355999 14.647003 L 59.084999 15.916992 L 55.431999 17.188004 L 52.573002 17.347 L 52.255001 17.028992 L 52.890999 9.563995 Z M 111.975998 8.294006 L 115.152 8.294006 L 116.422997 8.610992 L 118.487999 10.199005 L 118.963997 11.311005 L 118.963997 13.694 L 118.011002 15.916992 L 116.264 17.505997 L 113.882004 18.459 L 111.817001 18.617996 L 110.705002 18.300003 L 111.499001 8.610992 Z M 85.133003 12.105011 L 88.309998 23.223999 L 80.051003 23.382004 L 79.891998 22.905998 L 84.816002 12.264008 Z M 189.643997 12.105011 L 190.279999 13.376007 L 192.979996 23.223999 L 184.720001 23.382004 L 184.561996 22.905998 Z M 52.255001 21 L 54.956001 21 L 58.132 21.475998 L 60.037998 22.429001 L 61.308998 23.699997 L 62.103001 25.606003 L 62.103001 27.830002 L 61.308998 29.895004 L 59.562 31.641998 L 56.384998 32.753006 L 53.049999 32.753006 L 51.460999 31.959 L 51.938 21.318001 Z"/>
</svg>
