<?xml version="1.0" encoding="UTF-8"?>
<!-- Generated by Pixelmator Pro 3.8 -->
<svg width="250" height="36" viewBox="0 0 250 36" xmlns="http://www.w3.org/2000/svg">
    <path id="Path" fill="#000000" stroke="none" d="M 31.810089 35.035667 L 31.810089 0.281006 L 39.726357 0.281006 L 39.726357 35.035667 L 31.810089 35.035667 Z M 185.695602 22.050911 C 185.695602 13.651886 179.179199 8.438736 171.552444 8.438736 C 163.877457 8.438736 157.409286 13.700104 157.409286 22.050911 C 157.409286 30.449928 163.925858 35.711487 171.552444 35.711487 C 179.179199 35.711487 185.695602 30.401711 185.695602 22.050911 Z M 177.875946 22.050911 C 177.875946 26.443581 174.931381 28.905403 171.504227 28.905403 C 168.077072 28.905403 165.132477 26.443581 165.132477 22.050911 C 165.132477 17.610023 168.077072 15.24482 171.504227 15.24482 C 174.931381 15.24482 177.875946 17.610023 177.875946 22.050911 Z M 28.624224 25.043709 C 28.624224 21.133804 26.596933 18.140999 22.976534 16.789536 C 26.403868 14.906906 27.610489 12.445084 27.610489 9.548904 C 27.610489 4.480606 23.942045 0.281006 15.736088 0.329407 L 0 0.329407 L 0 35.083885 L 16.411911 35.083885 C 24.666088 35.035667 28.624224 30.932693 28.624224 25.043709 Z M 19.211466 10.562653 C 19.211466 12.927841 17.715155 14.279495 14.818978 14.279495 L 8.254178 14.279495 L 8.254178 7.038864 L 14.818978 7.038864 C 17.473867 7.038864 19.211466 8.197449 19.211466 10.562653 Z M 19.935511 24.512733 C 19.935511 26.781487 18.342577 28.277802 15.398178 28.277802 L 8.254178 28.277802 L 8.254178 20.747665 L 15.398178 20.747665 C 18.246134 20.747665 19.935511 22.195755 19.935511 24.512733 Z M 97.554176 15.534508 C 95.382042 10.996994 91.327293 8.486954 85.197021 8.486954 C 77.956406 8.486954 71.48822 13.02446 71.48822 22.050911 C 71.48822 30.836067 77.184135 35.711487 85.100403 35.711487 C 90.651466 35.711487 95.333641 33.490959 97.554176 28.712158 L 91.182449 25.429848 C 90.02404 27.553757 88.238045 28.905403 85.390083 28.905403 C 81.721466 28.905403 79.356262 26.298737 79.356262 22.050911 C 79.356262 17.803085 82.05938 15.24482 85.341866 15.24482 C 87.900139 15.24482 89.830978 16.403397 91.037598 18.913445 L 97.554176 15.534508 Z M 214.223373 15.534508 C 212.051239 10.996994 207.996475 8.486954 201.866226 8.486954 C 194.625595 8.486954 188.157425 13.02446 188.157425 22.050911 C 188.157425 30.836067 193.853333 35.711487 201.769608 35.711487 C 207.320663 35.711487 212.003021 33.490959 214.223373 28.712158 L 207.851654 25.429848 C 206.693237 27.553757 204.907242 28.905403 202.059296 28.905403 C 198.390671 28.905403 196.025467 26.298737 196.025467 22.050911 C 196.025467 17.803085 198.728577 15.24482 202.011063 15.24482 C 204.569321 15.24482 206.500168 16.403397 207.706985 18.913445 L 214.223373 15.534508 Z M 147.851868 35.035667 L 141.238663 23.354156 L 136.170364 23.354156 L 136.170364 35.035667 L 128.012619 35.035667 L 128.012619 0.281006 L 142.735153 0.281006 C 150.699646 0.281006 156.2509 4.094467 156.2509 11.576202 C 156.2509 16.355003 153.885513 19.733932 149.686081 21.809624 L 157.312668 35.035667 L 147.851868 35.035667 Z M 136.218582 16.451622 L 142.300613 16.451622 C 146.065857 16.451622 147.900085 14.327713 147.900085 11.817673 C 147.900085 8.82486 146.162308 7.183716 142.300613 7.183716 L 136.218582 7.183716 L 136.218582 16.451622 Z M 70.184975 34.601135 L 70.184975 29.14669 C 69.847069 29.243134 69.364311 29.339752 68.833336 29.339752 C 67.819603 29.339752 67.28862 28.808777 67.28862 27.89167 L 67.28862 18.865044 C 67.28862 12.107178 62.751289 8.535172 55.269379 8.535172 C 50.394135 8.535172 46.242931 10.321182 43.636265 12.638153 L 48.028931 17.561798 C 49.766533 16.01709 52.083511 15.051758 54.352264 15.051758 C 57.827644 15.051758 59.468975 16.789536 59.468975 19.637489 L 59.468975 20.457977 C 57.827644 20.071846 55.752132 19.685707 53.242088 19.685707 C 46.918579 19.685707 42.815601 22.72673 42.815601 27.746819 C 42.815601 32.911758 46.242931 35.614868 51.552532 35.614868 C 55.172932 35.614868 58.407024 34.118553 60.096401 32.187714 C 61.110138 34.745979 63.33049 35.421799 65.502617 35.421799 C 66.999115 35.470024 68.736885 35.228737 70.184975 34.601135 Z M 59.517197 26.443581 C 59.517197 28.808777 57.248447 30.353493 54.641956 30.353493 C 52.180134 30.353493 50.973335 29.098465 50.973335 27.360687 C 50.973335 25.526466 52.324978 24.17482 55.076309 24.17482 C 56.765865 24.17482 58.26218 24.464508 59.517197 24.754021 L 59.517197 26.443581 Z M 242.509705 35.035667 L 233.193558 18.865044 L 241.930481 9.35585 L 233.145325 9.35585 L 223.925644 19.589088 L 223.925644 0.329407 L 216.057602 0.329407 L 216.057602 35.083885 L 223.925644 35.083885 L 223.925644 28.808777 L 227.690903 24.802422 L 233.579697 35.083885 L 242.509705 35.083885 L 242.509705 35.035667 Z M 125.937103 35.035667 L 116.620979 18.865044 L 125.35791 9.35585 L 116.476135 9.35585 L 107.353065 19.589088 L 107.353065 0.329407 L 99.485023 0.329407 L 99.485023 35.083885 L 107.353065 35.083885 L 107.353065 28.808777 L 111.118134 24.802422 L 117.007103 35.083885 L 125.937103 35.083885 L 125.937103 35.035667 Z M 247.336884 30.208641 C 248.978043 30.208641 249.94339 31.222198 249.94339 32.766907 C 249.94339 34.311623 248.978043 35.325172 247.336884 35.325172 C 245.695557 35.325172 244.730209 34.311623 244.730209 32.766907 C 244.730209 31.222198 245.695557 30.208641 247.336884 30.208641 Z M 247.336884 34.98745 C 248.640137 34.98745 249.509018 34.214996 249.509018 32.766907 C 249.509018 31.318825 248.591904 30.546555 247.336884 30.546555 C 246.033463 30.546555 245.164581 31.318825 245.164581 32.766907 C 245.116348 34.263397 246.033463 34.98745 247.336884 34.98745 Z M 246.323151 31.463669 L 247.385117 31.463669 C 248.012543 31.463669 248.350449 31.801582 248.350449 32.284157 C 248.350449 32.718689 248.157394 32.959976 247.819458 33.10482 L 248.302216 34.021935 L 247.819458 34.021935 L 247.385117 33.201447 L 246.805893 33.201447 L 246.805893 34.021935 L 246.323151 34.021935 L 246.323151 31.463669 Z M 246.805893 31.8498 L 246.805893 32.766907 L 247.336884 32.766907 C 247.674622 32.766907 247.867706 32.670471 247.867706 32.332558 C 247.867706 32.04287 247.723022 31.898018 247.385117 31.898018 L 246.805893 31.898018 L 246.805893 31.8498 Z"/>
</svg>
