<?xml version="1.0" encoding="UTF-8"?>
<svg xmlns="http://www.w3.org/2000/svg" viewBox="0 0 250 250" role="img" aria-label="BNP Paribas logo">
  <title>BNP Paribas</title>
  <path fill="#008053" fill-rule="evenodd" d="M0 99.296L0 150.704L51.798 150.704L51.798 99.296ZM29.515 104.769L35.966 105.942L39.875 107.31L42.025 108.483L43.002 108.092L44.762 107.897L46.13 108.092L45.739 109.07L43.784 110.829L43.98 113.174L43.589 116.302L42.611 120.602L41.83 121.97L41.634 121.775L41.439 116.693L41.048 114.738L40.266 112.979L33.034 116.888L32.838 116.497L34.402 114.934L36.552 112.002L30.884 112.392L26.388 113.174L25.606 112.979L28.342 111.611L31.861 110.438L35.77 109.461L36.943 109.461L33.425 107.115L29.711 105.356L29.32 104.965ZM28.929 120.602L28.342 120.797L24.824 120.211L19.937 120.407L19.351 120.602L18.96 121.384L17.396 127.248L16.81 126.271L15.442 121.97L13.096 123.534L8.991 127.248L8.6 127.052L11.337 122.557L13.878 119.625L11.728 118.647L9.578 118.452L8.991 118.061L9.187 117.866L13.487 117.084L17.005 117.084L19.351 115.52L21.501 114.738L21.697 115.129L20.524 117.475L24.042 118.256L26.974 119.429ZM8.21 129.398L8.796 131.939L10.164 135.262L13.878 134.676L14.073 135.066L13.096 136.435L12.51 137.998L14.66 139.758L16.81 140.735L14.855 140.93L12.119 140.149L12.119 142.494L12.314 142.69L12.119 143.276L10.164 141.126L8.991 138.976L5.082 136.826L5.864 136.239L8.014 135.653L7.819 135.262L7.819 129.984ZM30.688 137.608L27.17 140.735L27.365 141.517L27.17 142.494L25.215 142.494L23.065 143.667L20.524 144.449L19.937 144.253L22.478 142.299L20.328 141.712L19.742 141.321L19.937 141.126L22.869 140.93L24.238 140.539L26.583 137.608L26.974 137.803L26.974 139.367L28.342 138.78L30.297 137.412Z"/>
  <path fill="#FFFFFF" fill-rule="evenodd" d="M29.906 105.16L34.597 107.506L36.747 108.874L37.138 109.461L31.47 110.829L26.388 112.783L31.861 112.002L36.552 111.806L36.747 112.002L35.77 113.565L33.229 116.497L38.507 113.565L40.461 112.783L40.852 113.37L41.634 116.302L42.025 121.384L43.393 115.715L43.589 110.633L45.152 109.461L45.934 108.092L41.83 108.679L39.679 107.506L36.357 106.333L33.229 105.551ZM28.342 120.407L25.41 119.038L23.065 118.256L20.719 117.866L20.328 117.084L21.501 115.129L19.937 115.52L16.81 117.475L12.51 117.475L9.578 118.061L12.705 118.647L13.487 119.038L14.073 119.82L11.337 122.948L8.991 126.857L12.51 123.729L15.442 121.579L15.833 121.97L17.396 126.857L18.178 122.752L18.96 120.797L19.547 120.211L25.801 120.016ZM8.21 129.984L8.014 130.766L8.21 135.653L7.819 136.044L5.473 136.826L9.187 138.78L9.969 140.344L11.923 142.885L11.728 140.539L12.119 139.953L16.224 140.735L14.464 139.953L12.314 138.194L12.314 137.608L13.878 134.871L10.164 135.457L9.773 135.066L8.405 131.548ZM29.906 137.998L26.974 139.758L26.583 139.562L26.583 137.998L24.042 140.93L22.088 141.321L20.133 141.321L22.674 142.299L21.697 143.276L20.133 144.253L22.283 143.667L25.02 142.299L27.17 142.103L26.779 140.93Z"/>
  <path fill="#000000" fill-rule="evenodd" d="M248.436 115.911L245.504 115.324L241.4 115.324L238.858 116.106L236.708 117.67L235.731 119.429L235.536 120.797L236.317 123.143L238.272 124.902L244.722 127.834L245.895 129.007L246.091 129.984L245.113 131.353L243.745 131.744L241.986 131.744L238.077 130.766L235.927 129.593L235.927 133.503L240.813 134.285L244.527 134.089L247.85 132.916L249.609 131.157L250 130.18L250 127.248L249.414 126.075L246.873 124.12L241.204 121.775L239.64 120.211L239.836 119.038L241.204 118.256L244.722 118.452L248.632 119.82ZM64.699 116.106L65.09 120.993L64.894 134.089L75.059 134.089L77.209 133.698L79.75 132.525L80.727 131.548L81.314 130.375L81.509 128.812L81.118 127.443L79.554 125.684L76.818 124.316L79.163 123.143L80.141 121.97L80.532 120.993L80.532 119.625L80.141 118.647L78.772 117.279L76.036 116.302ZM85.027 116.106L85.027 134.089L89.132 134.089L89.132 121.188L97.537 133.894L101.056 134.089L101.056 116.302L96.755 116.106L96.755 121.579L97.146 126.075L96.951 126.857L89.719 116.106ZM119.82 117.475L118.061 116.693L114.543 116.106L105.747 116.302L105.747 134.089L110.633 134.089L110.633 126.661L114.738 126.661L117.279 126.271L119.429 125.489L121.188 123.925L121.775 122.752L121.775 120.016L120.797 118.256ZM144.253 116.888L140.149 116.106L131.353 116.302L131.744 123.729L131.353 134.089L136.435 134.089L136.435 126.661L142.103 126.466L144.253 125.88L146.013 124.902L146.794 124.12L147.576 122.361L147.576 120.407L147.185 119.234L146.013 117.866ZM154.222 116.106L146.208 134.089L150.313 134.089L151.876 129.984L158.913 129.984L160.477 134.089L165.364 134.089L157.545 116.302ZM167.709 116.106L167.709 134.089L172.596 134.089L172.205 127.248L172.205 120.602L172.596 118.256L176.505 118.452L178.264 119.234L179.046 120.407L179.046 122.361L177.873 123.729L175.919 124.511L174.159 124.511L176.896 128.616L179.828 133.894L185.106 134.089L179.828 126.271L180.023 125.88L182.174 124.902L183.542 123.143L183.737 120.211L183.151 118.843L181.587 117.475L178.069 116.302ZM187.647 116.106L187.451 116.497L187.842 126.271L187.451 133.894L192.338 134.089L192.533 116.106ZM197.029 116.106L197.029 134.089L207.389 134.089L210.125 133.503L212.08 132.525L213.057 131.548L213.643 130.375L213.643 128.03L213.057 126.857L211.884 125.684L209.148 124.316L210.907 123.534L212.275 122.166L212.862 120.797L212.862 119.82L212.275 118.452L210.711 117.084L208.366 116.302ZM222.83 116.106L214.816 134.089L218.921 134.089L219.898 130.962L220.485 129.984L227.326 129.984L227.912 130.766L229.085 134.089L233.972 134.089L225.958 116.106ZM70.172 118.061L73.886 118.256L74.863 118.647L75.841 119.625L76.036 121.384L75.645 122.166L74.668 122.948L73.495 123.339L71.736 123.339L70.758 125.684L74.277 126.075L75.45 126.661L76.427 127.639L76.818 128.421L76.622 130.18L75.059 131.548L73.69 131.939L69.586 131.744L69.39 122.557L69.586 118.452ZM110.438 118.452L113.565 118.256L115.715 118.843L116.888 119.82L117.279 120.797L116.888 122.752L115.52 123.925L114.347 124.316L110.633 124.511ZM136.044 118.452L139.367 118.256L141.712 119.038L142.885 120.407L142.69 122.557L140.735 124.12L138.78 124.511L136.239 124.511ZM201.72 118.256L206.02 118.256L207.389 118.843L208.17 120.016L207.975 121.97L206.411 123.143L204.066 123.339L203.088 125.489L203.284 125.88L206.411 126.075L207.584 126.661L208.757 127.834L208.952 129.789L208.561 130.571L207.193 131.548L205.825 131.939L201.525 131.744ZM224.003 121.579L226.544 127.052L226.349 127.443L221.462 127.248L223.221 122.752ZM155.395 121.775L155.786 121.97L158.131 127.248L157.936 127.639L152.854 127.443Z"/>
</svg>
