<?xml version="1.0" encoding="UTF-8"?>
<!-- Generated by Pixelmator Pro 3.8 -->
<svg width="250" height="52" viewBox="0 0 250 52" xmlns="http://www.w3.org/2000/svg">
    <path id="Path" fill="#008053" fill-rule="evenodd" stroke="none" d="M 0 0.29599 L 0 51.703995 L 51.798 51.703995 L 51.798 0.29599 Z M 29.514999 5.768997 L 35.966 6.942001 L 39.875 8.309998 L 42.025002 9.483002 L 43.001999 9.09201 L 44.762001 8.897003 L 46.130001 9.09201 L 45.738998 10.070007 L 43.784 11.82901 L 43.98 14.174011 L 43.589001 17.302002 L 42.611 21.60199 L 41.830002 22.970001 L 41.633999 22.774994 L 41.438999 17.692993 L 41.048 15.738007 L 40.265999 13.979004 L 33.034 17.888 L 32.838001 17.497009 L 34.402 15.93399 L 36.551998 13.001999 L 30.884001 13.391998 L 26.388 14.174011 L 25.606001 13.979004 L 28.341999 12.610992 L 31.861 11.438004 L 35.77 10.460999 L 36.943001 10.460999 L 33.424999 8.11499 L 29.711 6.356003 L 29.32 5.964996 Z M 28.929001 21.60199 L 28.341999 21.796997 L 24.823999 21.210999 L 19.937 21.406998 L 19.351 21.60199 L 18.959999 22.384003 L 17.396 28.248001 L 16.809999 27.271004 L 15.442 22.970001 L 13.096 24.533997 L 8.991 28.248001 L 8.6 28.052002 L 11.337 23.556999 L 13.878 20.625 L 11.728 19.647003 L 9.578 19.451996 L 8.991 19.061005 L 9.187 18.865997 L 13.487 18.084 L 17.004999 18.084 L 19.351 16.519989 L 21.500999 15.738007 L 21.697001 16.128998 L 20.524 18.475006 L 24.042 19.255997 L 26.974001 20.429001 Z M 8.21 30.397995 L 8.796 32.938995 L 10.164 36.261993 L 13.878 35.675995 L 14.073 36.065994 L 13.096 37.434998 L 12.51 38.998001 L 14.66 40.757996 L 16.809999 41.735001 L 14.855 41.929993 L 12.119 41.149002 L 12.119 43.494003 L 12.314 43.690002 L 12.119 44.276001 L 10.164 42.126007 L 8.991 39.975998 L 5.082 37.826004 L 5.864 37.238998 L 8.014 36.653 L 7.819 36.261993 L 7.819 30.983994 Z M 30.688 38.608002 L 27.17 41.735001 L 27.365 42.516998 L 27.17 43.494003 L 25.215 43.494003 L 23.065001 44.667007 L 20.524 45.449005 L 19.937 45.253006 L 22.478001 43.298996 L 20.327999 42.712006 L 19.742001 42.320999 L 19.937 42.126007 L 22.868999 41.929993 L 24.238001 41.539001 L 26.583 38.608002 L 26.974001 38.802994 L 26.974001 40.367004 L 28.341999 39.779999 L 30.297001 38.412003 Z"/>
    <path id="path1" fill="#ffffff" fill-rule="evenodd" stroke="none" d="M 29.906 6.160004 L 34.597 8.505997 L 36.747002 9.873993 L 37.138 10.460999 L 31.469999 11.82901 L 26.388 13.78299 L 31.861 13.001999 L 36.551998 12.806 L 36.747002 13.001999 L 35.77 14.565002 L 33.229 17.497009 L 38.507 14.565002 L 40.460999 13.78299 L 40.852001 14.369995 L 41.633999 17.302002 L 42.025002 22.384003 L 43.393002 16.714996 L 43.589001 11.632996 L 45.152 10.460999 L 45.933998 9.09201 L 41.830002 9.679001 L 39.679001 8.505997 L 36.356998 7.333008 L 33.229 6.550995 Z M 28.341999 21.406998 L 25.41 20.037994 L 23.065001 19.255997 L 20.719 18.865997 L 20.327999 18.084 L 21.500999 16.128998 L 19.937 16.519989 L 16.809999 18.475006 L 12.51 18.475006 L 9.578 19.061005 L 12.705 19.647003 L 13.487 20.037994 L 14.073 20.820007 L 11.337 23.947998 L 8.991 27.857002 L 12.51 24.728996 L 15.442 22.57901 L 15.833 22.970001 L 17.396 27.857002 L 18.177999 23.751999 L 18.959999 21.796997 L 19.547001 21.210999 L 25.801001 21.015991 Z M 8.21 30.983994 L 8.014 31.766006 L 8.21 36.653 L 7.819 37.044006 L 5.473 37.826004 L 9.187 39.779999 L 9.969 41.343994 L 11.923 43.884995 L 11.728 41.539001 L 12.119 40.953003 L 16.224001 41.735001 L 14.464 40.953003 L 12.314 39.194 L 12.314 38.608002 L 13.878 35.871002 L 10.164 36.457001 L 9.773 36.065994 L 8.405 32.548004 Z M 29.906 38.998001 L 26.974001 40.757996 L 26.583 40.561996 L 26.583 38.998001 L 24.042 41.929993 L 22.087999 42.320999 L 20.132999 42.320999 L 22.674 43.298996 L 21.697001 44.276001 L 20.132999 45.253006 L 22.283001 44.667007 L 25.02 43.298996 L 27.17 43.102997 L 26.778999 41.929993 Z"/>
    <path id="path2" fill="#000000" fill-rule="evenodd" stroke="none" d="M 248.436005 16.911011 L 245.503998 16.324005 L 241.399994 16.324005 L 238.858002 17.106003 L 236.707993 18.669998 L 235.731003 20.429001 L 235.535995 21.796997 L 236.317001 24.142998 L 238.272003 25.902 L 244.722 28.834 L 245.895004 30.007004 L 246.091003 30.983994 L 245.113007 32.352997 L 243.744995 32.744003 L 241.985992 32.744003 L 238.076996 31.766006 L 235.927002 30.593002 L 235.927002 34.503006 L 240.813004 35.285004 L 244.526993 35.089005 L 247.850006 33.916 L 249.608994 32.156998 L 250 31.179993 L 250 28.248001 L 249.414001 27.074997 L 246.873001 25.120003 L 241.203995 22.774994 L 239.639999 21.210999 L 239.835999 20.037994 L 241.203995 19.255997 L 244.722 19.451996 L 248.632004 20.820007 Z M 64.698997 17.106003 L 65.089996 21.992996 L 64.893997 35.089005 L 75.058998 35.089005 L 77.209 34.697998 L 79.75 33.524994 L 80.726997 32.548004 L 81.314003 31.375 L 81.509003 29.811996 L 81.117996 28.443001 L 79.554001 26.683998 L 76.818001 25.316002 L 79.163002 24.142998 L 80.140999 22.970001 L 80.531998 21.992996 L 80.531998 20.625 L 80.140999 19.647003 L 78.772003 18.278992 L 76.036003 17.302002 Z M 85.027 17.106003 L 85.027 35.089005 L 89.132004 35.089005 L 89.132004 22.188004 L 97.537003 34.893997 L 101.056 35.089005 L 101.056 17.302002 L 96.754997 17.106003 L 96.754997 22.57901 L 97.146004 27.074997 L 96.950996 27.857002 L 89.719002 17.106003 Z M 119.82 18.475006 L 118.060997 17.692993 L 114.542999 17.106003 L 105.747002 17.302002 L 105.747002 35.089005 L 110.633003 35.089005 L 110.633003 27.661003 L 114.737999 27.661003 L 117.278999 27.271004 L 119.429001 26.488998 L 121.188004 24.925003 L 121.775002 23.751999 L 121.775002 21.015991 L 120.796997 19.255997 Z M 144.253006 17.888 L 140.149002 17.106003 L 131.352997 17.302002 L 131.744003 24.728996 L 131.352997 35.089005 L 136.434998 35.089005 L 136.434998 27.661003 L 142.102997 27.466003 L 144.253006 26.879997 L 146.013 25.902 L 146.794006 25.120003 L 147.576004 23.361 L 147.576004 21.406998 L 147.184998 20.234009 L 146.013 18.865997 Z M 154.222 17.106003 L 146.207993 35.089005 L 150.313004 35.089005 L 151.876007 30.983994 L 158.912994 30.983994 L 160.477005 35.089005 L 165.363998 35.089005 L 157.544998 17.302002 Z M 167.709 17.106003 L 167.709 35.089005 L 172.595993 35.089005 L 172.205002 28.248001 L 172.205002 21.60199 L 172.595993 19.255997 L 176.505005 19.451996 L 178.264008 20.234009 L 179.046005 21.406998 L 179.046005 23.361 L 177.873001 24.728996 L 175.919006 25.511002 L 174.158997 25.511002 L 176.895996 29.615997 L 179.828003 34.893997 L 185.106003 35.089005 L 179.828003 27.271004 L 180.022995 26.879997 L 182.173996 25.902 L 183.542007 24.142998 L 183.737 21.210999 L 183.151001 19.843002 L 181.587006 18.475006 L 178.069 17.302002 Z M 187.647003 17.106003 L 187.451004 17.497009 L 187.841995 27.271004 L 187.451004 34.893997 L 192.337997 35.089005 L 192.533005 17.106003 Z M 197.029007 17.106003 L 197.029007 35.089005 L 207.389008 35.089005 L 210.125 34.503006 L 212.080002 33.524994 L 213.057007 32.548004 L 213.643005 31.375 L 213.643005 29.029999 L 213.057007 27.857002 L 211.884003 26.683998 L 209.147995 25.316002 L 210.906998 24.533997 L 212.274994 23.166 L 212.862 21.796997 L 212.862 20.820007 L 212.274994 19.451996 L 210.710999 18.084 L 208.365997 17.302002 Z M 222.830002 17.106003 L 214.815994 35.089005 L 218.921005 35.089005 L 219.897995 31.962006 L 220.485001 30.983994 L 227.326004 30.983994 L 227.912003 31.766006 L 229.085007 35.089005 L 233.972 35.089005 L 225.957993 17.106003 Z M 70.171997 19.061005 L 73.886002 19.255997 L 74.862999 19.647003 L 75.841003 20.625 L 76.036003 22.384003 L 75.644997 23.166 L 74.667999 23.947998 L 73.495003 24.338997 L 71.736 24.338997 L 70.758003 26.683998 L 74.277 27.074997 L 75.449997 27.661003 L 76.427002 28.639 L 76.818001 29.421005 L 76.622002 31.179993 L 75.058998 32.548004 L 73.690002 32.938995 L 69.585999 32.744003 L 69.389999 23.556999 L 69.585999 19.451996 Z M 110.438004 19.451996 L 113.565002 19.255997 L 115.714996 19.843002 L 116.888 20.820007 L 117.278999 21.796997 L 116.888 23.751999 L 115.519997 24.925003 L 114.347 25.316002 L 110.633003 25.511002 Z M 136.044006 19.451996 L 139.367004 19.255997 L 141.712006 20.037994 L 142.884995 21.406998 L 142.690002 23.556999 L 140.735001 25.120003 L 138.779999 25.511002 L 136.238998 25.511002 Z M 201.720001 19.255997 L 206.020004 19.255997 L 207.389008 19.843002 L 208.169998 21.015991 L 207.975006 22.970001 L 206.410995 24.142998 L 204.065994 24.338997 L 203.087997 26.488998 L 203.283997 26.879997 L 206.410995 27.074997 L 207.584 27.661003 L 208.757004 28.834 L 208.951996 30.789001 L 208.561005 31.570999 L 207.192993 32.548004 L 205.824997 32.938995 L 201.524994 32.744003 Z M 224.003006 22.57901 L 226.544006 28.052002 L 226.348999 28.443001 L 221.462006 28.248001 L 223.220993 23.751999 Z M 155.395004 22.774994 L 155.785995 22.970001 L 158.130997 28.248001 L 157.936005 28.639 L 152.854004 28.443001 Z"/>
</svg>
