<?xml version="1.0" encoding="UTF-8"?>
<svg xmlns="http://www.w3.org/2000/svg" viewBox="0 0 250 250" role="img" aria-label="Bocconi University logo">
<title>Bocconi University</title>
<g transform="translate(0 98.9258) scale(0.1953)">
<path fill="#224993" fill-rule="evenodd" d="M1174 88L1204 90L1203 257L1174 259L1279 259L1278 257L1249 256L1249 87ZM680 87L664 87L650 90L634 97L624 104L611 117L603 128L595 145L590 166L591 199L596 216L603 230L612 242L624 253L638 261L651 265L682 265L693 262L704 256L711 250L719 240L725 227L729 209L728 197L725 218L718 234L705 250L693 257L681 259L665 257L656 252L648 244L642 233L639 223L636 199L636 153L639 127L643 114L648 105L658 95L668 91L687 91L702 97L715 110L718 118L707 112L694 112L687 115L679 123L676 129L676 146L679 152L689 161L695 163L707 163L714 160L721 153L725 144L726 128L724 119L720 111L705 96L693 90ZM505 87L493 89L474 97L464 104L447 122L438 137L432 155L430 166L430 193L433 208L440 225L447 236L460 250L470 257L487 264L499 266L514 266L535 261L544 256L554 247L559 240L566 223L569 207L568 197L566 214L563 224L554 240L546 249L535 256L520 259L505 257L497 253L488 244L482 233L477 212L476 151L479 126L482 116L487 106L493 99L500 94L508 91L527 91L543 98L557 113L558 118L547 112L534 112L527 115L521 120L515 132L515 143L519 152L526 159L534 163L547 163L555 159L560 154L566 140L566 127L560 111L549 99L543 95L526 88ZM1101 93L1092 87L1079 83L1054 84L1041 91L1030 102L1021 121L1020 87L946 88L976 90L975 257L949 259L1037 260L1042 258L1020 256L1021 134L1024 123L1033 104L1043 93L1051 89L1062 89L1067 92L1074 103L1076 113L1075 257L1057 257L1055 259L1146 260L1151 258L1121 256L1120 128L1116 114L1112 106ZM832 81L818 84L802 91L789 100L773 116L764 129L755 150L752 166L752 185L755 201L762 219L772 234L787 249L797 256L816 264L825 266L852 266L864 263L879 256L891 247L908 229L919 209L924 193L925 159L922 145L915 128L905 113L890 98L878 90L864 84L850 81ZM835 83L850 84L855 86L865 94L874 111L879 139L880 184L879 214L876 233L868 251L860 259L848 264L830 264L819 259L812 252L805 239L802 229L799 204L799 153L801 131L805 113L813 97L822 88ZM317 81L303 84L287 91L271 103L253 123L243 141L239 154L237 168L238 191L243 210L250 224L258 235L272 249L282 256L301 264L310 266L336 266L349 263L364 256L374 249L393 229L402 214L409 193L411 176L410 158L405 139L399 126L390 113L375 98L365 91L349 84L334 81ZM320 83L335 84L340 86L350 94L360 114L364 137L363 225L360 237L353 251L345 259L334 264L315 264L303 258L295 249L291 241L285 218L284 160L285 140L289 117L292 108L301 93L307 88ZM0 9L20 9L34 11L33 257L0 259L138 259L151 257L168 252L190 240L202 228L211 211L213 203L213 180L210 170L201 155L186 141L167 130L151 126L148 124L164 118L175 111L186 100L192 89L195 78L195 59L192 48L186 37L175 26L166 20L146 12L132 9L90 7L13 7ZM86 126L117 126L128 129L140 136L149 145L158 162L162 187L161 209L158 226L152 240L142 250L132 255L124 257L85 256ZM86 9L111 10L122 14L134 24L145 42L150 67L149 87L147 96L140 110L134 116L125 121L117 123L85 122ZM1215 1L1208 5L1200 15L1200 35L1204 42L1214 50L1222 52L1236 50L1246 42L1250 35L1250 16L1244 7L1235 1Z"/>
</g>
</svg>
