<?xml version="1.0" encoding="UTF-8"?>
<!-- Generated by Pixelmator Pro 3.8 -->
<svg width="250" height="52" viewBox="0 0 250 52" xmlns="http://www.w3.org/2000/svg">
    <g id="Group">
        <path id="Path" fill="#224993" fill-rule="evenodd" stroke="none" d="M 229.282196 17.112198 L 235.141205 17.502808 L 234.945908 50.117897 L 229.282196 50.508499 L 249.788696 50.508499 L 249.593399 50.117897 L 243.929703 49.9226 L 243.929703 16.916901 Z M 132.804001 16.916901 L 129.679199 16.916901 L 126.945 17.502808 L 123.820198 18.869904 L 121.867203 20.237 L 119.3283 22.775894 L 117.7659 24.924202 L 116.203499 28.244301 L 115.226997 32.345596 L 115.422302 38.790497 L 116.398804 42.110603 L 117.7659 44.844803 L 119.523598 47.1884 L 121.867203 49.3367 L 124.601402 50.899101 L 127.140297 51.680298 L 133.194595 51.680298 L 135.342896 51.094398 L 137.491196 49.9226 L 138.858307 48.750801 L 140.4207 46.797798 L 141.592499 44.258904 L 142.373703 40.7435 L 142.178406 38.399902 L 141.592499 42.501198 L 140.225403 45.625999 L 137.686493 48.750801 L 135.342896 50.117897 L 132.999298 50.508499 L 129.874496 50.117897 L 128.116806 49.141403 L 126.554398 47.579002 L 125.382599 45.430702 L 124.7967 43.477699 L 124.2108 38.790497 L 124.2108 29.806702 L 124.7967 24.728897 L 125.577904 22.190002 L 126.554398 20.432297 L 128.507401 18.479294 L 130.460403 17.698105 L 134.171097 17.698105 L 137.100601 18.869904 L 139.639496 21.408798 L 140.225403 22.971207 L 138.077103 21.799393 L 135.538193 21.799393 L 134.171097 22.3853 L 132.608704 23.947701 L 132.022797 25.119499 L 132.022797 28.439598 L 132.608704 29.611397 L 134.561707 31.369102 L 135.733505 31.759697 L 138.077103 31.759697 L 139.444199 31.173798 L 140.811295 29.806702 L 141.592499 28.049004 L 141.787796 24.924202 L 141.397202 23.166496 L 140.615997 21.604095 L 137.686493 18.674606 L 135.342896 17.502808 Z M 98.626503 16.916901 L 96.282898 17.307495 L 92.572197 18.869904 L 90.619202 20.237 L 87.299103 23.752403 L 85.541397 26.6819 L 84.369598 30.197304 L 83.978996 32.345596 L 83.978996 37.618698 L 84.564903 40.548203 L 85.931999 43.868301 L 87.299103 46.016602 L 89.837997 48.750801 L 91.791 50.117897 L 95.111099 51.485001 L 97.454697 51.875603 L 100.384201 51.875603 L 104.485497 50.899101 L 106.243202 49.9226 L 108.196198 48.164902 L 109.172699 46.797798 L 110.539803 43.477699 L 111.125702 40.352898 L 110.930397 38.399902 L 110.539803 41.720001 L 109.953903 43.672997 L 108.196198 46.797798 L 106.633797 48.555496 L 104.485497 49.9226 L 101.556 50.508499 L 98.626503 50.117897 L 97.064102 49.3367 L 95.306396 47.579002 L 94.134598 45.430702 L 93.158096 41.329399 L 92.962799 29.4161 L 93.548698 24.5336 L 94.134598 22.580597 L 95.111099 20.627594 L 96.282898 19.260498 L 97.650002 18.283997 L 99.212402 17.698105 L 102.923103 17.698105 L 106.047897 19.065201 L 108.782097 21.994705 L 108.977402 22.971207 L 106.829102 21.799393 L 104.290199 21.799393 L 102.923103 22.3853 L 101.751297 23.361801 L 100.579498 25.705399 L 100.579498 27.853699 L 101.360703 29.611397 L 102.727798 30.9785 L 104.290199 31.759697 L 106.829102 31.759697 L 108.391502 30.9785 L 109.367996 30.001999 L 110.539803 27.267799 L 110.539803 24.728897 L 109.367996 21.604095 L 107.219704 19.260498 L 106.047897 18.479294 L 102.727798 17.112198 Z M 215.025299 18.088699 L 213.267593 16.916901 L 210.728699 16.135696 L 205.846207 16.330994 L 203.307297 17.698105 L 201.158997 19.846405 L 199.401306 23.557098 L 199.205994 16.916901 L 184.753799 17.112198 L 190.612793 17.502808 L 190.417496 50.117897 L 185.339706 50.508499 L 202.526093 50.703796 L 203.502594 50.313202 L 199.205994 49.9226 L 199.401306 26.096001 L 199.987198 23.947701 L 201.744904 20.237 L 203.697906 18.088699 L 205.2603 17.307495 L 207.4086 17.307495 L 208.385101 17.893402 L 209.752197 20.041702 L 210.142807 21.994705 L 209.947495 50.117897 L 206.432098 50.117897 L 206.041504 50.508499 L 223.813797 50.703796 L 224.790298 50.313202 L 218.931305 49.9226 L 218.735992 24.924202 L 217.954803 22.190002 L 217.173599 20.627594 Z M 162.489594 15.745102 L 159.755402 16.330994 L 156.6306 17.698105 L 154.091705 19.455795 L 150.966904 22.580597 L 149.209198 25.119499 L 147.451508 29.220802 L 146.865601 32.345596 L 146.865601 36.056297 L 147.451508 39.181099 L 148.818604 42.696503 L 150.771606 45.625999 L 153.701096 48.555496 L 155.654099 49.9226 L 159.364807 51.485001 L 161.122498 51.875603 L 166.395599 51.875603 L 168.739197 51.289703 L 171.668701 49.9226 L 174.012299 48.164902 L 177.332397 44.649498 L 179.480698 40.7435 L 180.457199 37.618698 L 180.652496 30.9785 L 180.066605 28.244301 L 178.699493 24.924202 L 176.746506 21.994705 L 173.817001 19.065201 L 171.473404 17.502808 L 168.739197 16.330994 L 166.005005 15.745102 Z M 163.0755 16.135696 L 166.005005 16.330994 L 166.981506 16.721603 L 168.934494 18.283997 L 170.6922 21.604095 L 171.668701 27.072502 L 171.863998 35.861 L 171.668701 41.720001 L 171.082794 45.430702 L 169.520401 48.946098 L 167.957993 50.508499 L 165.614395 51.485001 L 162.098999 51.485001 L 159.950699 50.508499 L 158.583603 49.141403 L 157.216507 46.602501 L 156.6306 44.649498 L 156.044693 39.766998 L 156.044693 29.806702 L 156.435303 25.510101 L 157.216507 21.994705 L 158.7789 18.869904 L 160.536606 17.112198 Z M 61.910099 15.745102 L 59.1759 16.330994 L 56.051102 17.698105 L 52.9263 20.041702 L 49.4109 23.947701 L 47.457901 27.463097 L 46.676701 30.001999 L 46.286098 32.736198 L 46.4814 37.228104 L 47.457901 40.938797 L 48.825001 43.672997 L 50.387402 45.821297 L 53.121601 48.555496 L 55.0746 49.9226 L 58.785301 51.485001 L 60.542999 51.875603 L 65.620796 51.875603 L 68.159698 51.289703 L 71.089203 49.9226 L 73.042198 48.555496 L 76.752899 44.649498 L 78.510597 41.720001 L 79.877701 37.618698 L 80.268303 34.298599 L 80.072998 30.783203 L 79.096497 27.072502 L 77.924698 24.5336 L 76.167 21.994705 L 73.237503 19.065201 L 71.2845 17.698105 L 68.159698 16.330994 L 65.230202 15.745102 Z M 62.495998 16.135696 L 65.425499 16.330994 L 66.402 16.721603 L 68.355003 18.283997 L 70.307999 22.190002 L 71.089203 26.6819 L 70.893898 43.868301 L 70.307999 46.211899 L 68.940903 48.946098 L 67.378502 50.508499 L 65.230202 51.485001 L 61.519501 51.485001 L 59.1759 50.313202 L 57.613499 48.555496 L 56.832298 46.993103 L 55.6605 42.501198 L 55.465199 31.173798 L 55.6605 27.267799 L 56.4417 22.775894 L 57.027599 21.018204 L 58.785301 18.088699 L 59.9571 17.112198 Z M 0 1.683502 L 3.906 1.683502 L 6.6402 2.074097 L 6.4449 50.117897 L 0 50.508499 L 26.951401 50.508499 L 29.490299 50.117897 L 32.810398 49.141403 L 37.106998 46.797798 L 39.4506 44.454201 L 41.208302 41.134102 L 41.5989 39.571701 L 41.5989 35.079803 L 41.013 33.126801 L 39.255299 30.197304 L 36.325802 27.463097 L 32.615101 25.314796 L 29.490299 24.5336 L 28.9044 24.142998 L 32.029202 22.971207 L 34.177502 21.604095 L 36.325802 19.455795 L 37.497601 17.307495 L 38.0835 15.159195 L 38.0835 11.448502 L 37.497601 9.300201 L 36.325802 7.151901 L 34.177502 5.003601 L 32.4198 3.831802 L 28.5138 2.269394 L 25.7796 1.683502 L 17.577 1.292892 L 2.5389 1.292892 Z M 16.795799 24.5336 L 22.8501 24.5336 L 24.9984 25.119499 L 27.341999 26.486603 L 29.099701 28.244301 L 30.857401 31.5644 L 31.638599 36.446899 L 31.4433 40.7435 L 30.857401 44.063599 L 29.6856 46.797798 L 27.732599 48.750801 L 25.7796 49.727303 L 24.217199 50.117897 L 16.6005 49.9226 Z M 16.795799 1.683502 L 21.678301 1.878799 L 23.826599 2.660004 L 26.1702 4.613007 L 28.318501 8.128403 L 29.295 13.010895 L 29.099701 16.916901 L 28.709101 18.674606 L 27.341999 21.408798 L 26.1702 22.580597 L 24.4125 23.557098 L 22.8501 23.947701 L 16.6005 23.752403 Z M 237.289505 0.121094 L 235.922394 0.902298 L 234.360001 2.855301 L 234.360001 6.761307 L 235.141205 8.128403 L 237.094193 9.690796 L 238.656601 10.081406 L 241.390793 9.690796 L 243.343796 8.128403 L 244.125 6.761307 L 244.125 3.050598 L 242.953201 1.292892 L 241.195496 0.121094 Z"/>
    </g>
</svg>
