<?xml version="1.0" encoding="UTF-8"?>
<!-- Generated by Pixelmator Pro 3.8 -->
<svg width="250" height="70" viewBox="0 0 250 70" xmlns="http://www.w3.org/2000/svg">
    <g id="Group">
        <path id="Path" fill="#224993" fill-rule="evenodd" stroke="none" d="M 229.282196 26.112198 L 235.141205 26.502808 L 234.945908 59.117897 L 229.282196 59.508499 L 249.788696 59.508499 L 249.593399 59.117897 L 243.929703 58.9226 L 243.929703 25.916901 Z M 132.804001 25.916901 L 129.679199 25.916901 L 126.945 26.502808 L 123.820198 27.869904 L 121.867203 29.237 L 119.3283 31.775894 L 117.7659 33.924202 L 116.203499 37.244301 L 115.226997 41.345596 L 115.422302 47.790497 L 116.398804 51.110603 L 117.7659 53.844803 L 119.523598 56.1884 L 121.867203 58.3367 L 124.601402 59.899101 L 127.140297 60.680298 L 133.194595 60.680298 L 135.342896 60.094398 L 137.491196 58.9226 L 138.858307 57.750801 L 140.4207 55.797798 L 141.592499 53.258904 L 142.373703 49.7435 L 142.178406 47.399902 L 141.592499 51.501198 L 140.225403 54.625999 L 137.686493 57.750801 L 135.342896 59.117897 L 132.999298 59.508499 L 129.874496 59.117897 L 128.116806 58.141403 L 126.554398 56.579002 L 125.382599 54.430702 L 124.7967 52.477699 L 124.2108 47.790497 L 124.2108 38.806702 L 124.7967 33.728897 L 125.577904 31.190002 L 126.554398 29.432297 L 128.507401 27.479294 L 130.460403 26.698105 L 134.171097 26.698105 L 137.100601 27.869904 L 139.639496 30.408798 L 140.225403 31.971207 L 138.077103 30.799393 L 135.538193 30.799393 L 134.171097 31.3853 L 132.608704 32.947701 L 132.022797 34.119499 L 132.022797 37.439598 L 132.608704 38.611397 L 134.561707 40.369102 L 135.733505 40.759697 L 138.077103 40.759697 L 139.444199 40.173798 L 140.811295 38.806702 L 141.592499 37.049004 L 141.787796 33.924202 L 141.397202 32.166496 L 140.615997 30.604095 L 137.686493 27.674606 L 135.342896 26.502808 Z M 98.626503 25.916901 L 96.282898 26.307495 L 92.572197 27.869904 L 90.619202 29.237 L 87.299103 32.752403 L 85.541397 35.6819 L 84.369598 39.197304 L 83.978996 41.345596 L 83.978996 46.618698 L 84.564903 49.548203 L 85.931999 52.868301 L 87.299103 55.016602 L 89.837997 57.750801 L 91.791 59.117897 L 95.111099 60.485001 L 97.454697 60.875603 L 100.384201 60.875603 L 104.485497 59.899101 L 106.243202 58.9226 L 108.196198 57.164902 L 109.172699 55.797798 L 110.539803 52.477699 L 111.125702 49.352898 L 110.930397 47.399902 L 110.539803 50.720001 L 109.953903 52.672997 L 108.196198 55.797798 L 106.633797 57.555496 L 104.485497 58.9226 L 101.556 59.508499 L 98.626503 59.117897 L 97.064102 58.3367 L 95.306396 56.579002 L 94.134598 54.430702 L 93.158096 50.329399 L 92.962799 38.4161 L 93.548698 33.5336 L 94.134598 31.580597 L 95.111099 29.627594 L 96.282898 28.260498 L 97.650002 27.283997 L 99.212402 26.698105 L 102.923103 26.698105 L 106.047897 28.065201 L 108.782097 30.994705 L 108.977402 31.971207 L 106.829102 30.799393 L 104.290199 30.799393 L 102.923103 31.3853 L 101.751297 32.361801 L 100.579498 34.705399 L 100.579498 36.853699 L 101.360703 38.611397 L 102.727798 39.9785 L 104.290199 40.759697 L 106.829102 40.759697 L 108.391502 39.9785 L 109.367996 39.001999 L 110.539803 36.267799 L 110.539803 33.728897 L 109.367996 30.604095 L 107.219704 28.260498 L 106.047897 27.479294 L 102.727798 26.112198 Z M 215.025299 27.088699 L 213.267593 25.916901 L 210.728699 25.135696 L 205.846207 25.330994 L 203.307297 26.698105 L 201.158997 28.846405 L 199.401306 32.557098 L 199.205994 25.916901 L 184.753799 26.112198 L 190.612793 26.502808 L 190.417496 59.117897 L 185.339706 59.508499 L 202.526093 59.703796 L 203.502594 59.313202 L 199.205994 58.9226 L 199.401306 35.096001 L 199.987198 32.947701 L 201.744904 29.237 L 203.697906 27.088699 L 205.2603 26.307495 L 207.4086 26.307495 L 208.385101 26.893402 L 209.752197 29.041702 L 210.142807 30.994705 L 209.947495 59.117897 L 206.432098 59.117897 L 206.041504 59.508499 L 223.813797 59.703796 L 224.790298 59.313202 L 218.931305 58.9226 L 218.735992 33.924202 L 217.954803 31.190002 L 217.173599 29.627594 Z M 162.489594 24.745102 L 159.755402 25.330994 L 156.6306 26.698105 L 154.091705 28.455795 L 150.966904 31.580597 L 149.209198 34.119499 L 147.451508 38.220802 L 146.865601 41.345596 L 146.865601 45.056297 L 147.451508 48.181099 L 148.818604 51.696503 L 150.771606 54.625999 L 153.701096 57.555496 L 155.654099 58.9226 L 159.364807 60.485001 L 161.122498 60.875603 L 166.395599 60.875603 L 168.739197 60.289703 L 171.668701 58.9226 L 174.012299 57.164902 L 177.332397 53.649498 L 179.480698 49.7435 L 180.457199 46.618698 L 180.652496 39.9785 L 180.066605 37.244301 L 178.699493 33.924202 L 176.746506 30.994705 L 173.817001 28.065201 L 171.473404 26.502808 L 168.739197 25.330994 L 166.005005 24.745102 Z M 163.0755 25.135696 L 166.005005 25.330994 L 166.981506 25.721603 L 168.934494 27.283997 L 170.6922 30.604095 L 171.668701 36.072502 L 171.863998 44.861 L 171.668701 50.720001 L 171.082794 54.430702 L 169.520401 57.946098 L 167.957993 59.508499 L 165.614395 60.485001 L 162.098999 60.485001 L 159.950699 59.508499 L 158.583603 58.141403 L 157.216507 55.602501 L 156.6306 53.649498 L 156.044693 48.766998 L 156.044693 38.806702 L 156.435303 34.510101 L 157.216507 30.994705 L 158.7789 27.869904 L 160.536606 26.112198 Z M 61.910099 24.745102 L 59.1759 25.330994 L 56.051102 26.698105 L 52.9263 29.041702 L 49.4109 32.947701 L 47.457901 36.463097 L 46.676701 39.001999 L 46.286098 41.736198 L 46.4814 46.228104 L 47.457901 49.938797 L 48.825001 52.672997 L 50.387402 54.821297 L 53.121601 57.555496 L 55.0746 58.9226 L 58.785301 60.485001 L 60.542999 60.875603 L 65.620796 60.875603 L 68.159698 60.289703 L 71.089203 58.9226 L 73.042198 57.555496 L 76.752899 53.649498 L 78.510597 50.720001 L 79.877701 46.618698 L 80.268303 43.298599 L 80.072998 39.783203 L 79.096497 36.072502 L 77.924698 33.5336 L 76.167 30.994705 L 73.237503 28.065201 L 71.2845 26.698105 L 68.159698 25.330994 L 65.230202 24.745102 Z M 62.495998 25.135696 L 65.425499 25.330994 L 66.402 25.721603 L 68.355003 27.283997 L 70.307999 31.190002 L 71.089203 35.6819 L 70.893898 52.868301 L 70.307999 55.211899 L 68.940903 57.946098 L 67.378502 59.508499 L 65.230202 60.485001 L 61.519501 60.485001 L 59.1759 59.313202 L 57.613499 57.555496 L 56.832298 55.993103 L 55.6605 51.501198 L 55.465199 40.173798 L 55.6605 36.267799 L 56.4417 31.775894 L 57.027599 30.018204 L 58.785301 27.088699 L 59.9571 26.112198 Z M 0 10.683502 L 3.906 10.683502 L 6.6402 11.074097 L 6.4449 59.117897 L 0 59.508499 L 26.951401 59.508499 L 29.490299 59.117897 L 32.810398 58.141403 L 37.106998 55.797798 L 39.4506 53.454201 L 41.208302 50.134102 L 41.5989 48.571701 L 41.5989 44.079803 L 41.013 42.126801 L 39.255299 39.197304 L 36.325802 36.463097 L 32.615101 34.314796 L 29.490299 33.5336 L 28.9044 33.142998 L 32.029202 31.971207 L 34.177502 30.604095 L 36.325802 28.455795 L 37.497601 26.307495 L 38.0835 24.159195 L 38.0835 20.448502 L 37.497601 18.300201 L 36.325802 16.151901 L 34.177502 14.003601 L 32.4198 12.831802 L 28.5138 11.269394 L 25.7796 10.683502 L 17.577 10.292892 L 2.5389 10.292892 Z M 16.795799 33.5336 L 22.8501 33.5336 L 24.9984 34.119499 L 27.341999 35.486603 L 29.099701 37.244301 L 30.857401 40.5644 L 31.638599 45.446899 L 31.4433 49.7435 L 30.857401 53.063599 L 29.6856 55.797798 L 27.732599 57.750801 L 25.7796 58.727303 L 24.217199 59.117897 L 16.6005 58.9226 Z M 16.795799 10.683502 L 21.678301 10.878799 L 23.826599 11.660004 L 26.1702 13.613007 L 28.318501 17.128403 L 29.295 22.010895 L 29.099701 25.916901 L 28.709101 27.674606 L 27.341999 30.408798 L 26.1702 31.580597 L 24.4125 32.557098 L 22.8501 32.947701 L 16.6005 32.752403 Z M 237.289505 9.121094 L 235.922394 9.902298 L 234.360001 11.855301 L 234.360001 15.761307 L 235.141205 17.128403 L 237.094193 18.690796 L 238.656601 19.081406 L 241.390793 18.690796 L 243.343796 17.128403 L 244.125 15.761307 L 244.125 12.050598 L 242.953201 10.292892 L 241.195496 9.121094 Z"/>
    </g>
</svg>
