<?xml version="1.0" encoding="UTF-8"?>
<!-- Generated by Pixelmator Pro 3.8 -->
<svg width="250" height="120" viewBox="0 0 250 120" xmlns="http://www.w3.org/2000/svg">
    <g id="Group">
        <path id="Path" fill="#00522e" stroke="none" d="M 249.99678 60.070206 C 249.99678 59.412384 249.99678 58.731537 249.99678 58.026695 C 249.99678 57.275322 249.92659 56.546967 249.785553 55.842621 C 249.691483 55.137772 249.620987 54.433182 249.573944 53.728577 C 249.526917 53.023941 249.433228 52.366302 249.292191 51.755676 L 210.045395 51.755676 L 198.13707 70.427788 L 228.294876 70.427788 C 227.401962 73.575317 226.110321 76.440727 224.419479 79.024017 C 222.775177 81.560776 220.802231 83.768372 218.500565 85.647301 L 218.500565 85.717834 C 216.104904 87.596741 213.450623 89.076469 210.538635 90.157013 C 207.673233 91.190498 204.619751 91.70726 201.378632 91.70726 C 201.284592 91.70726 201.190552 91.70726 201.096527 91.70726 C 201.049484 91.70726 201.025986 91.70726 201.025986 91.70726 C 196.798401 91.70726 192.805466 90.861816 189.047623 89.170502 C 185.289734 87.479675 182.072159 85.224586 179.394348 82.406189 C 176.622986 79.446747 174.438889 76.064568 172.841629 72.259712 C 171.244354 68.454842 170.445953 64.39183 170.445953 60.070206 C 170.445953 60.023186 170.445953 59.999672 170.445953 59.999672 C 170.445953 59.952652 170.445953 59.882126 170.445953 59.788086 C 170.445953 55.513474 171.244354 51.497269 172.841629 47.739319 C 174.438889 43.934464 176.646484 40.622787 179.464874 37.804291 C 182.236252 34.98587 185.501328 32.731125 189.259201 31.040009 C 193.017044 29.348938 197.009979 28.503433 201.237579 28.503433 C 201.237579 28.503433 201.26178 28.503433 201.308105 28.503433 C 201.355118 28.503433 201.378632 28.503433 201.378632 28.503433 C 201.378632 28.503433 201.402832 28.503433 201.448807 28.503433 C 201.542847 28.503433 201.589874 28.503433 201.589874 28.503433 C 203.374771 28.503433 205.136612 28.667999 206.874496 28.996674 C 208.659363 29.278442 210.374176 29.701279 212.018036 30.264954 L 211.665833 30.123901 C 213.357147 30.734604 214.93045 31.439194 216.386673 32.237732 C 217.84288 33.036331 219.205063 33.90535 220.473648 34.844803 L 220.473648 34.774277 L 225.75824 26.38942 L 231.042847 17.934052 C 229.06987 16.571808 226.955841 15.350479 224.701233 14.270065 C 222.493637 13.189667 220.191528 12.273682 217.795868 11.52211 L 217.443665 11.381042 C 215.095016 10.723404 212.581772 10.206665 209.904449 9.830902 C 207.226654 9.408096 204.525803 9.196716 201.801468 9.196716 C 201.707413 9.196716 201.636902 9.196716 201.589874 9.196716 C 201.589874 9.196716 201.542847 9.196716 201.448807 9.196716 C 201.402145 9.196716 201.331604 9.196716 201.237579 9.196716 C 201.190552 9.196716 201.120026 9.196716 201.025986 9.196716 C 197.409195 9.196716 193.885971 9.525513 190.456772 10.183197 C 187.074631 10.840805 183.786499 11.827286 180.592407 13.142578 L 181.015137 13.001511 C 177.914627 14.36377 175.026154 15.937424 172.348373 17.722458 C 169.671051 19.507431 167.228363 21.503876 165.020279 23.711639 C 162.389969 26.483124 160.158386 29.207611 158.326508 31.885193 C 156.541595 34.656631 155.061874 37.357681 153.887787 39.988205 C 152.713242 42.618759 151.750229 45.272812 150.998856 47.950317 C 150.294022 50.53389 149.659744 53.093994 149.096405 55.630615 C 148.0159 60.610023 146.888367 65.354378 145.714264 69.863625 C 144.539688 74.373329 142.120499 78.436798 138.456711 82.053581 C 137.047516 83.509796 135.497253 84.848457 133.805939 86.070061 C 132.162109 87.244171 130.447281 88.230637 128.662384 89.02903 L 128.45079 89.170082 C 126.665932 89.874931 124.786987 90.438713 122.814018 90.861397 C 120.888092 91.284126 118.845032 91.495262 116.684006 91.495262 C 116.684006 91.495262 116.636993 91.495262 116.542953 91.495262 C 116.495941 91.495262 116.47242 91.495262 116.47242 91.495262 C 112.104233 91.495262 107.993744 90.649811 104.141823 88.958984 C 100.28994 87.267677 96.907768 84.966011 93.995346 82.053581 C 91.176949 79.282211 88.92234 75.970596 87.231033 72.118683 C 85.540169 68.219788 84.694756 64.085785 84.694756 59.71714 C 84.694756 55.489548 85.516663 51.496857 87.1605 47.738907 C 88.804794 43.934052 91.05941 40.622375 93.92482 37.803879 C 96.790222 34.938461 100.148888 32.660202 104.000771 30.969177 C 107.852692 29.231125 111.963181 28.362091 116.331818 28.362091 C 118.163734 28.362091 119.948608 28.526657 121.686943 28.855347 C 123.42482 29.137115 125.139191 29.536438 126.830498 30.053162 L 126.548386 30.053162 C 128.2397 30.569885 129.789948 31.227509 131.199142 32.026108 C 132.608337 32.777649 133.970505 33.623169 135.285675 34.562698 L 135.144958 34.562698 L 140.499619 26.177765 L 145.925278 17.651962 C 143.999313 16.33667 141.908813 15.138855 139.654175 14.058441 C 137.446594 12.978043 135.121445 12.062057 132.678726 11.31044 L 132.396606 11.31044 C 130.047989 10.558868 127.534744 9.995193 124.857414 9.619385 C 122.226654 9.243607 119.52581 9.055695 116.754433 9.055695 C 116.70742 9.055695 116.636887 9.055695 116.542847 9.055695 C 116.495834 9.055695 116.448814 9.055695 116.402138 9.055695 C 116.402138 9.055695 116.377937 9.055695 116.331612 9.055695 C 116.284592 9.055695 116.261078 9.055695 116.261078 9.055695 C 111.892433 9.055695 107.664848 9.595901 103.577873 10.676315 C 99.538361 11.709732 95.733467 13.165939 92.163246 15.044891 L 92.37484 14.97435 C 88.851608 16.759399 85.610489 18.943649 82.651047 21.527222 C 79.691597 24.110794 77.061279 26.952759 74.759209 30.053055 L 74.618492 30.123581 C 73.679039 27.30513 72.316414 24.745026 70.531509 22.443298 C 68.746613 20.094589 66.632614 18.145187 64.189896 16.595032 L 64.119362 16.595032 C 61.536068 14.903931 58.694164 13.588669 55.593662 12.649185 C 52.493637 11.66275 49.252075 11.169495 45.870144 11.169495 C 45.729084 11.169495 45.611881 11.169495 45.517811 11.169495 C 45.423771 11.169495 45.353241 11.169495 45.306568 11.169495 L 0 11.169495 L 0 108.828743 L 50.02758 108.828743 C 50.121616 108.828743 50.215313 108.828743 50.309349 108.828743 C 50.403389 108.828743 50.473919 108.828743 50.520939 108.828743 C 53.527409 108.828743 56.392815 108.453041 59.117168 107.70166 C 61.841518 106.996826 64.425293 105.986839 66.867989 104.671684 L 66.656395 104.742218 C 68.958023 103.473595 71.025047 101.97084 72.856964 100.232513 C 74.73587 98.447609 76.309624 96.47464 77.577766 94.313614 L 77.718826 94.102371 C 79.973465 96.686119 82.486679 98.987747 85.258049 101.007751 C 88.029877 103.02726 90.965813 104.789101 94.065872 106.292328 L 94.418068 106.362518 C 97.51857 107.771706 100.853691 108.875763 104.423943 109.674156 C 107.993706 110.520058 111.704567 110.942741 115.55645 110.942741 C 115.55645 110.942741 115.58065 110.942741 115.626984 110.942741 C 115.674004 110.942741 115.721016 110.942741 115.768036 110.942741 C 115.862068 110.942741 115.932602 110.942741 115.979279 110.942741 C 116.026291 110.942741 116.096825 110.942741 116.190857 110.942741 C 120.559502 110.942741 124.810608 110.402512 128.944153 109.32196 C 133.07814 108.288475 136.930069 106.78524 140.499832 104.812744 L 140.288589 105.023987 C 143.952393 103.09803 147.264038 100.819908 150.22348 98.18911 C 153.182938 95.51178 155.813705 92.55233 158.115356 89.311249 L 158.185883 89.099663 C 160.440506 92.387764 163.023788 95.37072 165.936218 98.048538 C 168.89566 100.678848 172.090225 102.933464 175.518936 104.812851 L 175.730515 104.95356 C 179.300766 106.832497 183.152649 108.288712 187.286194 109.322205 C 191.419739 110.40271 195.717865 110.942986 200.180542 110.942986 C 200.180542 110.942986 200.204742 110.942986 200.251068 110.942986 C 200.29808 110.942986 200.368622 110.942986 200.462646 110.942986 C 200.509323 110.942986 200.556351 110.942986 200.603363 110.942986 C 200.650391 110.942986 200.673889 110.942986 200.673889 110.942986 C 204.103088 110.942986 207.438232 110.590797 210.679321 109.885986 C 213.920883 109.181152 217.02095 108.171616 219.980392 106.85601 C 222.986862 105.587875 225.805252 104.037621 228.435577 102.205696 C 231.066315 100.326767 233.48555 98.236275 235.69313 95.934608 C 237.947739 93.68 239.944229 91.190292 241.682556 88.465942 C 243.420441 85.788124 244.900162 82.94622 246.121292 79.939751 C 247.342834 76.933769 248.282288 73.786247 248.94014 70.498108 C 249.644485 67.256996 249.996674 63.874855 249.996674 60.351624 C 249.996674 60.304604 249.996674 60.257584 249.996674 60.210571 C 249.996674 60.163895 249.996674 60.116875 249.996674 60.069855 Z M 21.068268 50.839661 L 21.068268 29.208023 L 45.09557 29.208023 C 45.14259 29.208023 45.1661 29.208023 45.1661 29.208023 C 46.669365 29.208023 48.05505 29.489792 49.323189 30.053574 C 50.591812 30.570313 51.742401 31.321854 52.775894 32.308365 L 52.705364 32.308365 C 53.691833 33.2948 54.443695 34.42218 54.960457 35.69046 C 55.523754 36.958771 55.80587 38.32106 55.80587 39.777237 C 55.80587 39.777237 55.80587 39.801437 55.80587 39.847763 C 55.80587 39.894775 55.80587 39.918289 55.80587 39.918289 C 55.80587 40.012329 55.80587 40.059357 55.80587 40.059357 C 55.80587 40.059357 55.80587 40.106369 55.80587 40.200409 C 55.80587 41.609634 55.523754 42.971924 54.960457 44.28714 C 54.443695 45.555481 53.715343 46.682846 52.775894 47.669312 L 52.705364 47.669312 C 51.718891 48.655746 50.591812 49.430847 49.323189 49.994522 C 48.05505 50.558243 46.669365 50.840073 45.1661 50.840073 C 45.1661 50.840073 45.141899 50.840073 45.09557 50.840073 Z M 21.068268 90.79129 L 21.068268 68.595901 L 49.745811 68.595901 C 49.792831 68.595901 49.816338 68.595901 49.816338 68.595901 C 51.366596 68.595901 52.822807 68.87767 54.184986 69.441315 C 55.594181 70.005096 56.839294 70.75692 57.91935 71.696404 C 58.952843 72.682426 59.77523 73.856979 60.385551 75.219154 C 60.996353 76.581337 61.301487 78.014038 61.301487 79.517273 C 61.301487 79.517273 61.301487 79.541473 61.301487 79.587807 C 61.301487 81.185074 60.996212 82.664795 60.385551 84.02697 C 59.77523 85.389153 58.929337 86.587204 57.849274 87.620255 C 56.815784 88.65377 55.594181 89.452614 54.184986 90.015953 C 52.822807 90.579697 51.343082 90.861816 49.745811 90.861816 L 21.068268 90.861816 Z"/>
    </g>
</svg>
