<?xml version="1.0" encoding="UTF-8"?>
<svg xmlns="http://www.w3.org/2000/svg" viewBox="0 0 250 250" role="img" aria-label="Citadel logo">
  <title>Citadel</title>
  <path fill="#002E6C" fill-rule="evenodd" d="M86.064 110.147L82.885 110.88L80.318 112.103L77.751 114.059L76.161 115.892L74.817 118.093L73.839 120.66L73.227 123.839L73.227 126.773L73.594 129.218L74.45 131.907L75.795 134.352L77.873 136.675L79.951 138.142L82.518 139.242L85.697 139.853L88.142 139.853L91.443 139.12L94.01 137.653L95.721 135.941L96.577 134.719L97.922 131.54L97.066 131.296L95.599 134.23L93.643 136.186L92.298 137.042L90.465 137.775L89.364 138.02L86.675 138.02L84.23 137.286L82.518 136.308L80.562 134.474L79.462 132.885L78.606 131.051L77.873 128.24L77.628 125.306L77.751 122.494L78.117 120.171L78.973 117.359L79.829 115.648L80.685 114.425L83.13 112.225L85.575 111.247L88.386 111.125L90.831 111.858L92.176 112.714L93.888 114.425L94.743 115.648L95.966 117.971L96.455 119.315L97.188 119.315L96.333 111.858L94.866 111.858L93.154 111.002L90.465 110.269ZM153.545 110.147L144.254 133.496L143.154 135.575L142.176 136.797L141.076 137.653L140.098 138.142L139.364 138.264L139.242 139.12L148.533 139.12L148.533 138.386L146.822 138.02L146.088 137.653L145.355 136.919L145.11 136.308L145.355 134.352L146.944 129.951L147.8 128.24L157.335 128.24L157.579 128.484L159.902 135.086L160.147 136.675L159.902 137.286L158.802 138.02L156.235 138.386L156.235 139.12L167.971 139.12L167.971 138.264L166.87 138.02L165.526 137.286L164.67 136.308L163.936 134.841L155.012 110.147ZM0 110.636L0 118.704L11.369 118.704L11.369 110.636ZM22.861 110.636L22.861 118.704L34.23 118.704L34.23 110.636ZM45.721 110.636L45.721 118.704L57.09 118.704L57.09 110.636ZM100.489 110.758L100.489 111.614L101.834 111.614L103.667 111.98L104.89 112.958L105.134 113.692L105.134 136.186L104.645 137.286L103.667 137.897L101.834 138.264L100.489 138.264L100.489 139.12L113.57 139.12L113.57 138.264L111.369 138.142L109.902 137.653L109.169 136.919L108.924 136.064L108.924 113.814L109.169 112.958L109.902 112.225L111.369 111.736L113.57 111.614L113.57 110.758ZM117.359 110.758L117.115 116.993L117.971 116.87L118.826 114.914L119.56 113.814L120.66 112.714L121.516 112.225L122.983 111.858L127.506 111.98L127.506 136.308L127.262 136.919L126.161 137.775L123.961 138.264L122.616 138.264L122.616 139.12L136.186 139.12L136.186 138.264L134.841 138.264L132.641 137.775L131.54 136.919L131.296 136.186L131.296 111.98L135.575 111.858L137.164 112.225L138.264 112.836L139.364 113.936L140.22 115.281L140.831 116.87L141.687 116.993L141.809 116.504L141.443 110.758ZM169.193 110.758L169.193 111.614L170.66 111.736L171.883 112.103L172.861 112.958L173.105 113.57L173.105 136.308L172.738 137.164L172.127 137.653L170.66 138.142L169.193 138.264L169.193 139.12L183.863 138.998L185.697 138.631L187.897 137.897L189.609 137.042L191.443 135.697L193.154 133.863L194.254 132.152L195.477 129.095L195.966 126.65L196.088 124.205L195.721 120.905L194.866 118.337L193.154 115.648L191.565 114.059L189.976 112.958L188.264 112.103L185.575 111.247L181.785 110.758ZM198.044 110.758L198.044 111.614L199.267 111.614L201.1 111.98L201.956 112.469L202.567 113.447L202.567 136.553L201.834 137.531L201.1 137.897L199.267 138.264L198.044 138.264L198.044 139.12L222.249 139.12L222.494 132.641L221.76 132.518L220.416 135.452L219.315 136.675L218.337 137.286L216.015 137.775L206.479 137.653L206.601 124.939L210.024 124.939L211.491 125.183L212.592 125.672L213.814 126.895L214.425 128.117L215.037 130.196L215.77 130.196L215.77 118.582L215.037 118.582L214.181 121.271L213.57 122.249L212.347 123.35L210.758 123.839L206.479 123.716L206.479 111.98L214.792 111.858L216.87 112.225L217.604 112.592L218.582 113.447L219.682 115.281L220.293 116.993L221.149 116.87L221.027 110.758ZM226.895 110.758L226.895 111.614L229.095 111.736L230.685 112.347L231.296 112.958L231.54 113.936L231.54 136.064L231.296 136.919L230.318 137.775L229.095 138.142L226.895 138.264L226.895 139.12L249.633 139.12L250 130.073L249.144 130.073L248.411 132.274L246.944 134.963L245.11 136.675L243.521 137.408L241.443 137.775L235.33 137.653L235.33 113.57L235.575 112.836L236.675 111.98L238.386 111.614L239.731 111.614L239.731 110.758ZM177.139 111.858L182.152 111.858L184.352 112.225L185.819 112.714L187.775 113.814L189.242 115.281L190.587 117.726L191.198 119.804L191.565 122.616L191.565 127.262L191.198 130.318L190.465 132.763L189.487 134.474L187.897 136.064L186.064 137.042L182.641 137.775L177.017 137.775ZM152.934 115.281L157.09 127.139L148.166 127.262L148.166 126.773L152.567 115.526ZM0 120.782L0 128.973L27.506 128.973L27.506 120.782ZM29.584 120.782L29.584 128.973L57.09 128.973L57.09 120.782ZM0 131.051L0 139.12L57.09 139.12L57.09 131.051Z"/>
</svg>
