<?xml version="1.0" encoding="UTF-8"?>
<!-- Generated by Pixelmator Pro 3.8 -->
<svg width="250" height="30" viewBox="0 0 250 30" xmlns="http://www.w3.org/2000/svg">
    <path id="Path" fill="#002e6c" fill-rule="evenodd" stroke="none" d="M 86.064003 0.147003 L 82.885002 0.880005 L 80.318001 2.102997 L 77.750999 4.05899 L 76.161003 5.891998 L 74.817001 8.093002 L 73.838997 10.660004 L 73.226997 13.838997 L 73.226997 16.773003 L 73.594002 19.218002 L 74.449997 21.906998 L 75.794998 24.352005 L 77.873001 26.675003 L 79.950996 28.141998 L 82.517998 29.242004 L 85.696999 29.852997 L 88.141998 29.852997 L 91.443001 29.119995 L 94.010002 27.653 L 95.721001 25.940994 L 96.577003 24.718994 L 97.921997 21.539993 L 97.066002 21.296005 L 95.598999 24.229996 L 93.642998 26.186005 L 92.297997 27.042007 L 90.464996 27.774994 L 89.363998 28.020004 L 86.675003 28.020004 L 84.230003 27.285995 L 82.517998 26.307999 L 80.561996 24.473999 L 79.461998 22.884995 L 78.606003 21.050995 L 77.873001 18.240005 L 77.627998 15.306 L 77.750999 12.494003 L 78.116997 10.17099 L 78.973 7.359009 L 79.829002 5.64801 L 80.684998 4.425003 L 83.129997 2.225006 L 85.574997 1.247009 L 88.386002 1.125 L 90.831001 1.858002 L 92.176003 2.713989 L 93.888 4.425003 L 94.742996 5.64801 L 95.966003 7.971008 L 96.455002 9.315002 L 97.188004 9.315002 L 96.333 1.858002 L 94.865997 1.858002 L 93.153999 1.001999 L 90.464996 0.268997 Z M 153.544998 0.147003 L 144.253998 23.496002 L 143.154007 25.574997 L 142.175995 26.796997 L 141.076004 27.653 L 140.098007 28.141998 L 139.363998 28.264008 L 139.242004 29.119995 L 148.533005 29.119995 L 148.533005 28.386002 L 146.822006 28.020004 L 146.087997 27.653 L 145.354996 26.919006 L 145.110001 26.307999 L 145.354996 24.352005 L 146.944 19.951004 L 147.800003 18.240005 L 157.335007 18.240005 L 157.578995 18.483994 L 159.901993 25.085999 L 160.147003 26.675003 L 159.901993 27.285995 L 158.802002 28.020004 L 156.235001 28.386002 L 156.235001 29.119995 L 167.970993 29.119995 L 167.970993 28.264008 L 166.869995 28.020004 L 165.526001 27.285995 L 164.669998 26.307999 L 163.936005 24.841003 L 155.011993 0.147003 Z M 0 0.636002 L 0 8.70401 L 11.369 8.70401 L 11.369 0.636002 Z M 22.861 0.636002 L 22.861 8.70401 L 34.23 8.70401 L 34.23 0.636002 Z M 45.721001 0.636002 L 45.721001 8.70401 L 57.09 8.70401 L 57.09 0.636002 Z M 100.488998 0.757996 L 100.488998 1.613998 L 101.834 1.613998 L 103.667 1.980011 L 104.889999 2.958008 L 105.134003 3.692001 L 105.134003 26.186005 L 104.644997 27.285995 L 103.667 27.897003 L 101.834 28.264008 L 100.488998 28.264008 L 100.488998 29.119995 L 113.57 29.119995 L 113.57 28.264008 L 111.369003 28.141998 L 109.902 27.653 L 109.168999 26.919006 L 108.924004 26.063995 L 108.924004 3.813995 L 109.168999 2.958008 L 109.902 2.225006 L 111.369003 1.735992 L 113.57 1.613998 L 113.57 0.757996 Z M 117.359001 0.757996 L 117.114998 6.992996 L 117.971001 6.869995 L 118.825996 4.914001 L 119.559998 3.813995 L 120.660004 2.713989 L 121.515999 2.225006 L 122.983002 1.858002 L 127.505997 1.980011 L 127.505997 26.307999 L 127.262001 26.919006 L 126.161003 27.774994 L 123.960999 28.264008 L 122.615997 28.264008 L 122.615997 29.119995 L 136.186005 29.119995 L 136.186005 28.264008 L 134.841003 28.264008 L 132.641006 27.774994 L 131.539993 26.919006 L 131.296005 26.186005 L 131.296005 1.980011 L 135.574997 1.858002 L 137.164001 2.225006 L 138.264008 2.835999 L 139.363998 3.936005 L 140.220001 5.281006 L 140.830994 6.869995 L 141.686996 6.992996 L 141.809006 6.503998 L 141.442993 0.757996 Z M 169.192993 0.757996 L 169.192993 1.613998 L 170.660004 1.735992 L 171.882996 2.102997 L 172.860992 2.958008 L 173.104996 3.570007 L 173.104996 26.307999 L 172.738007 27.164001 L 172.126999 27.653 L 170.660004 28.141998 L 169.192993 28.264008 L 169.192993 29.119995 L 183.863007 28.998001 L 185.697006 28.630997 L 187.897003 27.897003 L 189.608994 27.042007 L 191.442993 25.697006 L 193.154007 23.863007 L 194.253998 22.151993 L 195.477005 19.095001 L 195.966003 16.650002 L 196.087997 14.205002 L 195.720993 10.904999 L 194.865997 8.337006 L 193.154007 5.64801 L 191.565002 4.05899 L 189.975998 2.958008 L 188.264008 2.102997 L 185.574997 1.247009 L 181.785004 0.757996 Z M 198.044006 0.757996 L 198.044006 1.613998 L 199.266998 1.613998 L 201.100006 1.980011 L 201.955994 2.468994 L 202.567001 3.446991 L 202.567001 26.552994 L 201.834 27.531006 L 201.100006 27.897003 L 199.266998 28.264008 L 198.044006 28.264008 L 198.044006 29.119995 L 222.248993 29.119995 L 222.494003 22.641006 L 221.759995 22.518005 L 220.416 25.451996 L 219.315002 26.675003 L 218.337006 27.285995 L 216.014999 27.774994 L 206.479004 27.653 L 206.600998 14.939003 L 210.024002 14.939003 L 211.490997 15.182999 L 212.591995 15.671997 L 213.813995 16.894997 L 214.425003 18.117004 L 215.037003 20.195999 L 215.770004 20.195999 L 215.770004 8.582001 L 215.037003 8.582001 L 214.181 11.270996 L 213.570007 12.249001 L 212.347 13.349998 L 210.757996 13.838997 L 206.479004 13.716003 L 206.479004 1.980011 L 214.792007 1.858002 L 216.869995 2.225006 L 217.604004 2.59201 L 218.582001 3.446991 L 219.682007 5.281006 L 220.292999 6.992996 L 221.149002 6.869995 L 221.026993 0.757996 Z M 226.895004 0.757996 L 226.895004 1.613998 L 229.095001 1.735992 L 230.684998 2.347 L 231.296005 2.958008 L 231.539993 3.936005 L 231.539993 26.063995 L 231.296005 26.919006 L 230.317993 27.774994 L 229.095001 28.141998 L 226.895004 28.264008 L 226.895004 29.119995 L 249.632996 29.119995 L 250 20.072998 L 249.143997 20.072998 L 248.410995 22.274002 L 246.944 24.962997 L 245.110001 26.675003 L 243.520996 27.408005 L 241.442993 27.774994 L 235.330002 27.653 L 235.330002 3.570007 L 235.574997 2.835999 L 236.675003 1.980011 L 238.386002 1.613998 L 239.731003 1.613998 L 239.731003 0.757996 Z M 177.139008 1.858002 L 182.151993 1.858002 L 184.352005 2.225006 L 185.819 2.713989 L 187.774994 3.813995 L 189.242004 5.281006 L 190.587006 7.725998 L 191.197998 9.804001 L 191.565002 12.615997 L 191.565002 17.262001 L 191.197998 20.317993 L 190.464996 22.763 L 189.487 24.473999 L 187.897003 26.063995 L 186.063995 27.042007 L 182.641006 27.774994 L 177.016998 27.774994 Z M 152.934006 5.281006 L 157.089996 17.139 L 148.166 17.262001 L 148.166 16.773003 L 152.567001 5.526001 Z M 0 10.781998 L 0 18.973007 L 27.506001 18.973007 L 27.506001 10.781998 Z M 29.584 10.781998 L 29.584 18.973007 L 57.09 18.973007 L 57.09 10.781998 Z M 0 21.050995 L 0 29.119995 L 57.09 29.119995 L 57.09 21.050995 Z"/>
</svg>
