<?xml version="1.0" encoding="UTF-8"?>
<!-- Generated by Pixelmator Pro 3.8 -->
<svg width="250" height="162" viewBox="0 0 250 162" xmlns="http://www.w3.org/2000/svg">
    <path id="Path" fill="#003b70" fill-rule="evenodd" stroke="none" d="M 174.800003 29.399994 L 154.979996 40.059998 L 154.860001 60.369995 L 137.759995 60.369995 L 137.759995 79.080002 L 154.979996 79.199997 L 154.979996 137.309998 L 155.350006 140.899994 L 156.220001 144.740005 L 157.710007 148.699997 L 159.809998 152.300003 L 161.050003 153.910004 L 163.399994 156.259995 L 166.130005 158.240005 L 169.100006 159.729996 L 172.570007 160.839996 L 175.919998 161.339996 L 181.240005 161.339996 L 185.330002 160.839996 L 188.429993 160.100006 L 192.149994 158.740005 L 195.860001 156.759995 L 200.690002 137.550003 L 197.970001 139.289993 L 194.75 140.899994 L 190.660004 142.389999 L 187.190002 143.130005 L 183.100006 143.25 L 180.25 142.630005 L 178.389999 141.639999 L 176.410004 139.410004 L 175.300003 136.440002 L 174.929993 133.839996 L 174.929993 79.199997 L 195.740005 79.080002 L 195.740005 60.369995 L 174.929993 60.25 Z M 47.450001 58.76001 L 41.5 59.51001 L 36.419998 60.619995 L 31.1 62.360001 L 27.629999 63.839996 L 23.17 66.199997 L 19.08 68.919998 L 15.49 71.889999 L 10.78 76.850006 L 7.8 80.940002 L 5.7 84.529999 L 3.1 90.350006 L 1.73 94.690002 L 0.62 99.639999 L 0 104.600006 L 0 115.869995 L 0.74 121.449997 L 2.35 127.889999 L 4.34 133.089996 L 6.19 136.809998 L 8.67 140.770004 L 11.03 143.869995 L 12.88 145.979996 L 17.1 149.940002 L 21.059999 152.919998 L 26.139999 155.889999 L 30.85 157.990005 L 35.68 159.610001 L 40.259998 160.720001 L 46.580002 161.589996 L 56.740002 161.589996 L 60.459999 161.089996 L 64.790001 160.100006 L 69.129997 158.610001 L 73.709999 156.380005 L 76.559998 154.649994 L 81.519997 150.809998 L 84.989998 147.460007 L 87.459999 144.490005 L 76.07 130.740005 L 75.82 130.740005 L 73.220001 133.339996 L 70.989998 135.199997 L 65.410004 138.789993 L 60.830002 140.770004 L 55.75 142.009995 L 53.77 142.259995 L 48.810001 142.259995 L 43.240002 141.389999 L 37.66 139.410004 L 33.57 137.059998 L 30.719999 134.830002 L 28.25 132.350006 L 26.26 129.869995 L 23.66 125.539993 L 22.299999 122.320007 L 21.559999 119.960007 L 20.440001 113.889999 L 20.32 108.070007 L 21.18 102 L 22.42 97.789993 L 23.41 95.429993 L 25.15 92.210007 L 26.76 89.860001 L 29.24 87.009995 L 31.84 84.649994 L 34.810001 82.550003 L 39.52 80.190002 L 44.099998 78.830002 L 49.310001 78.089996 L 54.509998 78.209999 L 58.970001 79.080002 L 63.18 80.57 L 67.639999 82.919998 L 72.099998 86.139999 L 76.07 89.729996 L 87.459999 75.860001 L 85.480003 73.5 L 82.260002 70.279999 L 79.160004 67.679993 L 75.07 64.830002 L 70.370003 62.360001 L 65.779999 60.619995 L 59.220001 59.130005 L 53.889999 58.639999 Z M 99.360001 60.25 L 99.230003 159.729996 L 119.550003 159.850006 L 119.550003 60.25 Z M 216.550003 60.25 L 216.550003 159.850006 L 236.869995 159.850006 L 236.869995 60.25 Z"/>
    <path id="path1" fill="#d9261c" fill-rule="evenodd" stroke="none" d="M 85.730003 43.899994 L 109.139999 43.899994 L 114.970001 38.320007 L 120.419998 33.98999 L 128.220001 28.910004 L 133.919998 25.929993 L 140.729996 23.080002 L 146.929993 21.100006 L 155.600006 19.240005 L 163.899994 18.380005 L 171.830002 18.380005 L 176.539993 18.75 L 180.869995 19.369995 L 187.929993 20.850006 L 194 22.709991 L 198.220001 24.320007 L 206.889999 28.529999 L 213.080002 32.380005 L 220.639999 38.199997 L 226.589996 43.899994 L 250 43.769989 L 246.779999 39.309998 L 242.809998 34.480011 L 236.740005 28.160004 L 232.779999 24.570007 L 228.820007 21.350006 L 222.369995 16.770004 L 216.919998 13.419998 L 210.479996 10.080002 L 204.910004 7.600006 L 199.949997 5.740005 L 192.639999 3.509995 L 188.429993 2.520004 L 182.479996 1.399994 L 176.160004 0.660004 L 172.570007 0.410004 L 163.160004 0.410004 L 158.199997 0.779999 L 151.759995 1.649994 L 144.570007 3.139999 L 139.25 4.619995 L 132.429993 6.979996 L 127.110001 9.209991 L 119.050003 13.300003 L 112.980003 17.009995 L 109.760002 19.240005 L 105.050003 22.839996 L 100.470001 26.800003 L 96.260002 30.889999 L 92.419998 35.100006 L 88.330002 40.179993 Z"/>
</svg>
