<?xml version="1.0" encoding="UTF-8"?>
<svg xmlns="http://www.w3.org/2000/svg" viewBox="0 0 250 250" role="img" aria-label="Citi logo">
  <title>Citi</title>
  <path fill="#003B70" fill-rule="evenodd" d="M174.8 73.4L154.98 84.06L154.86 104.37L137.76 104.37L137.76 123.08L154.98 123.2L154.98 181.31L155.35 184.9L156.22 188.74L157.71 192.7L159.81 196.3L161.05 197.91L163.4 200.26L166.13 202.24L169.1 203.73L172.57 204.84L175.92 205.34L181.24 205.34L185.33 204.84L188.43 204.1L192.15 202.74L195.86 200.76L200.69 181.55L197.97 183.29L194.75 184.9L190.66 186.39L187.19 187.13L183.1 187.25L180.25 186.63L178.39 185.64L176.41 183.41L175.3 180.44L174.93 177.84L174.93 123.2L195.74 123.08L195.74 104.37L174.93 104.25ZM47.45 102.76L41.5 103.51L36.42 104.62L31.1 106.36L27.63 107.84L23.17 110.2L19.08 112.92L15.49 115.89L10.78 120.85L7.8 124.94L5.7 128.53L3.1 134.35L1.73 138.69L0.62 143.64L0 148.6L0 159.87L0.74 165.45L2.35 171.89L4.34 177.09L6.19 180.81L8.67 184.77L11.03 187.87L12.88 189.98L17.1 193.94L21.06 196.92L26.14 199.89L30.85 201.99L35.68 203.61L40.26 204.72L46.58 205.59L56.74 205.59L60.46 205.09L64.79 204.1L69.13 202.61L73.71 200.38L76.56 198.65L81.52 194.81L84.99 191.46L87.46 188.49L76.07 174.74L75.82 174.74L73.22 177.34L70.99 179.2L65.41 182.79L60.83 184.77L55.75 186.01L53.77 186.26L48.81 186.26L43.24 185.39L37.66 183.41L33.57 181.06L30.72 178.83L28.25 176.35L26.26 173.87L23.66 169.54L22.3 166.32L21.56 163.96L20.44 157.89L20.32 152.07L21.18 146L22.42 141.79L23.41 139.43L25.15 136.21L26.76 133.86L29.24 131.01L31.84 128.65L34.81 126.55L39.52 124.19L44.1 122.83L49.31 122.09L54.51 122.21L58.97 123.08L63.18 124.57L67.64 126.92L72.1 130.14L76.07 133.73L87.46 119.86L85.48 117.5L82.26 114.28L79.16 111.68L75.07 108.83L70.37 106.36L65.78 104.62L59.22 103.13L53.89 102.64ZM99.36 104.25L99.23 203.73L119.55 203.85L119.55 104.25ZM216.55 104.25L216.55 203.85L236.87 203.85L236.87 104.25Z"/>
  <path fill="#D9261C" fill-rule="evenodd" d="M85.73 87.9L109.14 87.9L114.97 82.32L120.42 77.99L128.22 72.91L133.92 69.93L140.73 67.08L146.93 65.1L155.6 63.24L163.9 62.38L171.83 62.38L176.54 62.75L180.87 63.37L187.93 64.85L194 66.71L198.22 68.32L206.89 72.53L213.08 76.38L220.64 82.2L226.59 87.9L250 87.77L246.78 83.31L242.81 78.48L236.74 72.16L232.78 68.57L228.82 65.35L222.37 60.77L216.92 57.42L210.48 54.08L204.91 51.6L199.95 49.74L192.64 47.51L188.43 46.52L182.48 45.4L176.16 44.66L172.57 44.41L163.16 44.41L158.2 44.78L151.76 45.65L144.57 47.14L139.25 48.62L132.43 50.98L127.11 53.21L119.05 57.3L112.98 61.01L109.76 63.24L105.05 66.84L100.47 70.8L96.26 74.89L92.42 79.1L88.33 84.18Z"/>
</svg>
