<?xml version="1.0" encoding="UTF-8"?>
<!-- Generated by Pixelmator Pro 3.8 -->
<svg width="250" height="38" viewBox="0 0 250 38" xmlns="http://www.w3.org/2000/svg">
    <g id="Group">
        <path id="Path" fill="#000d74" fill-rule="evenodd" stroke="none" d="M 186.187195 29.901497 L 186.776398 29.901497 L 187.169205 30.294296 L 186.972794 36.971901 L 186.383606 37.168297 L 189.329605 37.168297 L 188.347595 36.579102 L 188.544006 33.633102 L 191.882797 37.168297 L 194.239594 37.168297 L 193.061203 36.775497 L 189.329605 32.847504 L 191.490005 30.687103 L 193.257599 29.705101 L 190.900803 29.705101 L 190.900803 30.4907 L 188.544006 32.847504 L 188.347595 30.294296 L 189.133194 29.705101 Z M 178.134796 29.901497 L 178.723999 29.901497 L 179.116806 30.294296 L 178.920395 36.971901 L 178.331207 37.168297 L 181.277206 37.168297 L 180.295197 36.579102 L 180.491592 34.025902 L 181.669998 34.418701 L 182.651993 35.989899 L 183.830399 37.168297 L 185.990799 37.168297 L 185.2052 36.971901 L 182.651993 34.222298 L 182.455597 33.633102 L 183.634003 32.061897 L 183.634003 31.079903 L 183.0448 30.0979 L 182.062805 29.705101 Z M 180.491592 30.0979 L 181.669998 30.294296 L 182.455597 31.276299 L 182.455597 32.6511 L 181.669998 33.633102 L 180.295197 33.436699 Z M 160.458801 29.901497 L 160.851593 29.901497 L 161.637207 30.687103 L 163.601196 34.025902 L 163.4048 36.971901 L 162.815598 37.168297 L 165.957993 37.168297 L 164.975998 36.775497 L 164.779602 36.382698 L 164.779602 34.222298 L 166.743607 30.687103 L 168.118393 29.705101 L 165.761597 29.901497 L 166.154404 30.294296 L 164.975998 32.6511 L 164.386795 33.240303 L 162.619202 30.0979 L 163.011993 29.705101 Z M 145.925201 29.901497 L 146.514404 30.0979 L 148.674805 36.579102 L 149.264008 37.3647 L 151.424393 32.061897 L 153.192001 36.382698 L 153.9776 37.3647 L 156.138 30.687103 L 157.119995 29.705101 L 154.959595 29.901497 L 155.548798 30.0979 L 154.370407 34.615097 L 153.9776 35.007896 L 152.013596 30.0979 L 151.620804 29.705101 L 149.853195 34.615097 L 149.460403 35.007896 L 147.889206 30.0979 L 148.478394 29.705101 Z M 139.836807 29.901497 L 140.425995 29.901497 L 140.818802 30.294296 L 140.818802 36.579102 L 140.033203 37.168297 L 144.5504 37.168297 L 144.746796 35.793503 L 143.961197 36.775497 L 142.586395 36.775497 L 141.997192 36.186302 L 142.193604 33.436699 L 143.568405 33.436699 L 144.354004 34.222298 L 144.354004 32.6511 L 143.764801 33.0439 L 141.997192 32.847504 L 142.193604 30.294296 L 144.157593 30.4907 L 144.354004 31.079903 L 144.5504 29.705101 Z M 119.607597 29.901497 L 120.1968 29.901497 L 120.5896 30.294296 L 120.393204 36.971901 L 119.804001 37.168297 L 122.946404 37.168297 L 121.964401 36.775497 L 122.160797 33.436699 L 123.535599 33.436699 L 124.124802 34.222298 L 124.321198 32.6511 L 123.732002 33.0439 L 121.964401 32.847504 L 122.160797 30.294296 L 124.124802 30.4907 L 124.321198 31.079903 L 124.517601 29.705101 Z M 98.199997 29.901497 L 98.592796 29.901497 L 99.378403 30.687103 L 101.3424 34.025902 L 101.146004 36.971901 L 100.556801 37.168297 L 103.699203 37.168297 L 102.717201 36.775497 L 102.717201 33.633102 L 104.484802 30.687103 L 105.859596 29.705101 L 103.5028 29.901497 L 103.895599 30.0979 L 103.895599 30.4907 L 102.324402 33.240303 L 100.360397 30.0979 L 100.753197 29.705101 Z M 86.8088 29.901497 L 87.594398 30.294296 L 87.594398 36.579102 L 86.8088 37.168297 L 89.951202 37.168297 L 88.772797 36.579102 L 88.772797 30.294296 L 89.558403 29.705101 Z M 67.758003 29.901497 L 68.347198 29.901497 L 68.739998 30.294296 L 68.543602 36.971901 L 67.954399 37.168297 L 72.667999 37.168297 L 72.667999 35.793503 L 72.471603 36.382698 L 71.882401 36.775497 L 70.507599 36.775497 L 69.918404 35.793503 L 70.114799 33.436699 L 71.685997 33.436699 L 72.2752 34.222298 L 72.2752 32.6511 L 71.685997 33.0439 L 69.918404 32.847504 L 70.114799 30.294296 L 71.882401 30.294296 L 72.471603 31.079903 L 72.471603 29.705101 Z M 57.5452 29.901497 L 58.134399 29.901497 L 58.527199 30.294296 L 58.330799 36.971901 L 57.7416 37.168297 L 60.883999 37.168297 L 59.902 36.775497 L 59.902 33.436699 L 63.830002 33.633102 L 63.830002 35.597099 L 63.437199 36.971901 L 62.848 37.168297 L 65.990402 37.168297 L 65.0084 36.775497 L 65.204803 29.901497 L 65.793999 29.705101 L 62.848 29.901497 L 63.633598 30.0979 L 63.633598 32.847504 L 59.705601 32.6511 L 59.705601 30.687103 L 60.0984 29.901497 L 60.687599 29.705101 Z M 49.689201 29.705101 L 49.492802 31.079903 L 50.2784 30.294296 L 52.242401 30.4907 L 52.046001 36.971901 L 51.456799 37.168297 L 54.599201 37.168297 L 53.617199 36.775497 L 53.617199 30.294296 L 55.3848 30.294296 L 56.170399 31.079903 L 56.170399 29.705101 Z M 31.620399 29.901497 L 32.405998 30.0979 L 32.209599 36.971901 L 31.620399 37.168297 L 34.762798 37.168297 L 33.7808 36.775497 L 33.9772 29.901497 L 34.566399 29.705101 Z M 171.064407 29.705101 L 169.886002 30.294296 L 168.5112 32.258301 L 168.314804 33.633102 L 168.707596 35.2043 L 169.296799 36.186302 L 170.278793 36.971901 L 171.457199 37.3647 L 174.010406 37.168297 L 174.796005 36.775497 L 176.367203 34.811501 L 176.367203 31.865501 L 175.188797 30.294296 L 174.010406 29.705101 Z M 171.457199 30.0979 L 173.028397 30.0979 L 173.813995 30.4907 L 174.796005 31.669098 L 175.188797 32.847504 L 175.188797 34.418701 L 174.599594 35.989899 L 173.028397 36.971901 L 171.850006 36.775497 L 170.867996 36.186302 L 169.886002 34.615097 L 169.886002 31.669098 Z M 130.802399 29.508698 L 130.409607 36.971901 L 129.623993 37.168297 L 132.373596 37.168297 L 131.391602 36.579102 L 131.587997 32.061897 L 137.087204 37.3647 L 137.087204 32.454697 L 137.479996 29.901497 L 138.069199 29.705101 L 135.516006 29.901497 L 136.301605 30.0979 L 136.498001 30.4907 L 136.301605 35.2043 Z M 112.537201 29.705101 L 111.358803 30.294296 L 109.984001 32.258301 L 109.787598 33.436699 L 110.180397 35.2043 L 110.7696 36.186302 L 111.751602 36.971901 L 112.93 37.3647 L 115.4832 37.168297 L 116.268799 36.775497 L 117.839996 34.811501 L 117.839996 31.865501 L 117.447197 31.079903 L 116.072403 29.901497 L 114.501198 29.508698 Z M 112.93 30.0979 L 114.501198 30.0979 L 115.286797 30.4907 L 116.268799 31.669098 L 116.661598 32.847504 L 116.661598 34.615097 L 116.072403 35.989899 L 114.501198 36.971901 L 113.3228 36.775497 L 112.340797 36.186302 L 111.358803 34.615097 L 111.358803 31.669098 Z M 91.5224 29.508698 L 91.129601 30.294296 L 91.325996 31.079903 L 91.915199 30.294296 L 93.879204 30.4907 L 93.6828 36.971901 L 93.093597 37.168297 L 96.236 37.168297 L 95.253998 36.775497 L 95.450401 30.294296 L 97.021599 30.294296 L 97.807198 31.079903 L 97.807198 29.705101 Z M 79.738403 30.0979 L 78.559998 31.276299 L 77.970802 32.847504 L 77.970802 34.025902 L 78.559998 35.597099 L 80.131203 36.971901 L 81.505997 37.3647 L 83.862801 37.3647 L 84.648399 36.971901 L 84.844803 35.400703 L 84.452003 36.186302 L 83.666397 36.775497 L 81.898804 36.775497 L 80.720398 36.186302 L 79.542 34.615097 L 79.345596 32.6511 L 79.934799 31.079903 L 81.309601 30.0979 L 83.273598 30.0979 L 84.059196 30.4907 L 84.648399 31.276299 L 84.648399 31.865501 L 84.844803 29.901497 L 81.7024 29.508698 Z M 37.512402 29.508698 L 37.316002 36.382698 L 36.726799 37.168297 L 36.334 37.168297 L 39.083599 37.168297 L 38.298 36.971901 L 37.905201 34.811501 L 38.101601 31.865501 L 43.797199 37.168297 L 43.797199 30.4907 L 44.582802 29.705101 L 42.029598 29.901497 L 42.618801 29.901497 L 43.0116 30.294296 L 43.0116 35.2043 Z M 2.5532 19.295898 L 2.7496 20.867104 L 20.622 20.867104 L 20.622 19.295898 Z M 238.2332 9.672302 L 238.822403 9.672302 L 240.197205 11.047104 L 243.143204 16.349899 L 242.946793 20.081497 L 241.768402 20.6707 L 246.678406 20.6707 L 245.5 20.474297 L 245.107193 20.081497 L 244.910797 16.153503 L 247.856796 10.850693 L 249.035202 9.672302 L 249.820801 9.475906 L 246.285599 9.475906 L 246.874802 9.868698 L 246.874802 10.457901 L 244.910797 14.189499 L 244.321594 14.778702 L 241.572006 9.868698 L 242.161194 9.475906 L 239.608002 9.279495 Z M 218.789597 9.475906 L 219.968002 10.065094 L 220.164398 11.047104 L 220.164398 18.706703 L 219.968002 20.081497 L 218.789597 20.6707 L 223.6996 20.6707 L 222.521194 20.474297 L 221.932007 19.688698 L 221.932007 10.261505 L 222.128403 9.868698 L 223.306793 9.475906 Z M 196.596405 9.475906 L 197.5784 9.672302 L 198.167603 10.261505 L 198.167603 19.688698 L 197.774796 20.474297 L 196.792801 20.6707 L 201.506393 20.6707 L 200.131607 20.277901 L 199.935196 19.688698 L 200.131607 16.153503 L 201.506393 16.153503 L 205.041595 20.474297 L 206.023605 20.867104 L 208.576797 20.867104 L 208.380402 20.474297 L 207.201996 20.277901 L 203.470398 16.153503 L 203.274002 15.171494 L 204.452393 13.993103 L 205.041595 12.421906 L 204.8452 11.047104 L 203.863205 9.868698 L 201.702805 9.279495 Z M 200.131607 10.065094 L 201.8992 10.261505 L 203.077606 11.636307 L 203.077606 14.189499 L 201.8992 15.367905 L 200.328003 15.367905 L 199.935196 14.975098 Z M 186.187195 9.475906 L 187.169205 9.672302 L 187.758408 10.457901 L 187.758408 19.295898 L 187.561996 20.081497 L 186.383606 20.6707 L 193.650406 20.6707 L 193.650406 18.5103 L 193.453995 19.295898 L 192.472 20.081497 L 190.507996 20.081497 L 189.722397 19.492302 L 189.526001 18.903099 L 189.722397 14.975098 L 192.275604 15.171494 L 193.061203 16.349899 L 193.257599 14.385895 L 193.061203 13.796707 L 192.079193 14.385895 L 189.526001 14.189499 L 189.722397 10.065094 L 192.472 10.261505 L 193.257599 11.439896 L 193.453995 9.279495 Z M 185.2052 9.475906 L 181.473602 9.475906 L 182.455597 10.261505 L 182.259201 11.2435 L 179.509598 17.921097 L 179.116806 17.528297 L 176.367203 10.065094 L 177.349197 9.475906 L 172.635605 9.475906 L 173.617599 9.672302 L 174.403198 10.457901 L 178.331207 20.277901 L 178.920395 21.063499 L 179.705994 19.885101 L 183.830399 10.261505 L 184.419601 9.672302 Z M 166.547195 9.475906 L 167.725601 10.065094 L 167.921997 11.047104 L 167.921997 18.706703 L 167.725601 20.081497 L 166.547195 20.6707 L 171.457199 20.6707 L 170.278793 20.474297 L 169.689606 19.688698 L 169.689606 10.261505 L 169.886002 9.868698 L 171.064407 9.475906 Z M 110.573196 9.475906 L 111.751602 10.065094 L 111.751602 20.081497 L 110.573196 20.867104 L 115.286797 20.867104 L 115.090401 20.474297 L 113.912003 20.277901 L 113.715599 19.885101 L 113.715599 10.261505 L 113.912003 9.868698 L 114.893997 9.672302 L 114.893997 9.279495 Z M 99.771202 9.475906 L 100.753197 9.672302 L 101.3424 10.654297 L 101.3424 19.099503 L 101.146004 20.081497 L 99.967598 20.6707 L 105.270401 20.867104 L 106.645203 20.474297 L 107.823601 19.492302 L 108.412804 18.313904 L 108.412804 16.939102 L 108.019997 15.957108 L 105.859596 14.189499 L 107.038002 12.814697 L 107.038002 10.654297 L 106.056 9.672302 L 104.484802 9.279495 Z M 103.306396 14.778702 L 105.073997 15.171494 L 106.448799 16.939102 L 106.645203 18.5103 L 106.252403 19.492302 L 105.466797 20.081497 L 104.484802 20.277901 L 103.699203 20.081497 L 103.110001 19.492302 Z M 103.5028 9.868698 L 104.484802 10.065094 L 105.270401 10.850693 L 105.6632 11.832703 L 105.466797 13.4039 L 104.681198 14.189499 L 103.110001 13.993103 L 103.110001 10.261505 Z M 69.329201 9.672302 L 70.311203 9.672302 L 70.704002 10.065094 L 70.704002 16.742699 L 71.096802 18.5103 L 71.882401 19.885101 L 73.060799 20.6707 L 74.4356 21.063499 L 76.399597 21.063499 L 78.363602 20.277901 L 79.542 18.903099 L 79.934799 17.724701 L 80.131203 10.065094 L 81.309601 9.475906 L 78.756401 9.279495 L 77.381599 9.672302 L 78.559998 9.868698 L 78.756401 10.261505 L 78.756401 17.724701 L 78.167198 19.099503 L 77.381599 19.885101 L 76.399597 20.277901 L 75.221199 20.277901 L 74.239197 19.885101 L 72.864403 18.1175 L 72.667999 10.261505 L 72.864403 9.868698 L 74.042801 9.475906 L 70.900398 9.279495 Z M 59.902 9.475906 L 60.883999 9.672302 L 61.276798 10.065094 L 61.276798 19.885101 L 60.0984 20.867104 L 67.5616 20.6707 L 67.5616 18.5103 L 67.365196 19.295898 L 66.186798 20.081497 L 64.419197 20.081497 L 63.240799 19.295898 L 63.240799 10.065094 L 63.633598 9.672302 L 64.615601 9.475906 Z M 226.645599 9.083099 L 226.252808 11.439896 L 227.234802 10.261505 L 230.377197 10.457901 L 230.377197 20.081497 L 229.198807 20.867104 L 234.108795 20.6707 L 232.930405 20.474297 L 232.341202 19.688698 L 232.537598 10.261505 L 235.090805 10.261505 L 236.0728 10.850693 L 236.0728 11.439896 L 236.465607 11.2435 L 236.465607 9.279495 L 228.413193 9.475906 Z M 215.057999 9.279495 L 211.915604 9.279495 L 210.933594 9.672302 L 209.951599 10.850693 L 209.755203 12.618301 L 210.344406 13.993103 L 213.879593 17.331902 L 214.2724 18.313904 L 214.076004 19.295898 L 213.290405 20.081497 L 211.326401 20.277901 L 210.147995 19.295898 L 209.558807 17.724701 L 209.362396 20.277901 L 210.147995 20.867104 L 212.701202 21.063499 L 214.076004 20.6707 L 215.057999 19.885101 L 215.647202 18.903099 L 215.843597 17.528297 L 215.254395 15.760696 L 211.326401 12.029099 L 211.326401 10.850693 L 212.308395 9.868698 L 213.879593 9.868698 L 214.665207 10.457901 L 215.254395 11.832703 L 215.450806 9.475906 Z M 152.799194 9.083099 L 152.602798 19.688698 L 152.210007 20.474297 L 151.227997 20.867104 L 155.352402 20.6707 L 154.370407 20.474297 L 153.781204 19.688698 L 153.781204 12.618301 L 162.226395 21.063499 L 162.619202 17.528297 L 162.619202 10.261505 L 162.815598 9.868698 L 163.994003 9.475906 L 159.869598 9.475906 L 160.851593 9.672302 L 161.440796 10.261505 L 161.440796 17.724701 Z M 122.946404 9.083099 L 118.625603 19.885101 L 117.054398 20.867104 L 120.982399 20.6707 L 120.1968 20.474297 L 120.000397 19.688698 L 120.982399 16.939102 L 124.713997 17.135498 L 125.499603 19.099503 L 125.499603 20.6707 L 129.427597 20.6707 L 128.445602 20.474297 L 127.4636 19.295898 L 124.124802 10.654297 L 123.339203 9.083099 Z M 122.75 12.225494 L 124.321198 15.957108 L 121.375198 15.957108 Z M 85.041199 9.279495 L 83.666397 19.099503 L 83.273598 20.277901 L 82.291603 20.867104 L 86.023201 20.6707 L 85.041199 20.474297 L 84.648399 20.081497 L 85.237602 14.189499 L 85.630402 13.600296 L 89.362 20.867104 L 93.290001 13.207504 L 94.272003 19.295898 L 94.0756 20.6707 L 97.807198 20.867104 L 97.610802 20.474297 L 96.432404 20.277901 L 96.039597 19.492302 L 94.468399 9.083099 L 94.0756 9.083099 L 90.147598 17.528297 L 89.558403 17.528297 L 85.630402 9.279495 Z M 50.867599 9.083099 L 49.099998 9.475906 L 46.743198 11.047104 L 45.5648 13.207504 L 45.368401 16.153503 L 46.153999 18.313904 L 47.528801 19.885101 L 49.492802 20.867104 L 52.242401 21.063499 L 54.795601 20.277901 L 56.563202 18.706703 L 57.7416 15.957108 L 57.7416 13.796707 L 56.956001 11.636307 L 55.973999 10.457901 L 53.617199 9.279495 Z M 50.2784 9.868698 L 52.046001 9.868698 L 53.420799 10.457901 L 54.992001 12.225494 L 55.5812 13.993103 L 55.3848 17.724701 L 54.795601 18.903099 L 53.813599 19.885101 L 52.8316 20.277901 L 51.260399 20.277901 L 49.492802 19.492302 L 48.118 17.921097 L 47.528801 16.349899 L 47.332401 14.385895 L 47.725201 12.225494 L 49.296398 10.261505 Z M 135.516006 7.315506 L 136.890793 7.511902 L 137.2836 7.904694 L 137.2836 15.171494 L 137.479996 17.135498 L 138.265594 19.099503 L 139.444 20.277901 L 141.604401 21.063499 L 144.157593 21.063499 L 146.514404 20.081497 L 147.496399 19.099503 L 148.478394 16.349899 L 148.478394 8.297501 L 149.067596 7.511902 L 149.656799 7.511902 L 150.049606 7.119095 L 145.139603 7.315506 L 146.317993 7.511902 L 146.907196 8.101105 L 146.907196 17.135498 L 146.317993 18.706703 L 144.354004 20.081497 L 142.389999 20.081497 L 141.408005 19.688698 L 140.425995 18.706703 L 139.836807 17.331902 L 139.640396 8.297501 L 140.229599 7.511902 L 140.818802 7.511902 L 141.211594 7.119095 Z M 32.995201 8.297501 L 31.424 10.065094 L 30.441999 12.618301 L 30.441999 15.171494 L 31.816799 18.313904 L 33.9772 20.081497 L 36.1376 20.867104 L 40.6548 21.063499 L 42.226002 20.6707 L 42.815201 19.688698 L 43.0116 17.528297 L 41.243999 19.688698 L 39.869202 20.081497 L 37.316002 19.885101 L 35.155602 18.706703 L 33.9772 17.331902 L 33.191601 15.760696 L 32.995201 12.029099 L 33.388 10.654297 L 34.369999 9.083099 L 35.352001 8.297501 L 37.119598 7.708298 L 39.083599 7.708298 L 41.0476 8.297501 L 42.226002 9.475906 L 42.422401 10.850693 L 42.815201 10.850693 L 42.815201 7.315506 L 40.6548 6.922699 L 36.334 6.922699 L 34.369999 7.511902 Z M 0.1964 7.904694 L 0 10.850693 L 2.3568 15.564301 L 2.946 18.1175 L 20.4256 18.1175 L 21.014799 15.367905 L 22.9788 11.832703 L 23.371599 10.457901 L 23.371599 8.690308 L 22.9788 7.708298 L 21.211201 6.333496 L 18.461599 6.333496 L 13.1588 7.904694 L 12.5696 7.315506 L 13.1588 6.529907 L 13.3552 5.547897 L 12.9624 4.565903 L 12.1768 3.780304 L 12.3732 2.798294 L 13.3552 2.601898 L 13.1588 1.423492 L 12.1768 1.227097 L 12.1768 0.441498 L 11.1948 0.441498 L 10.9984 1.423492 L 10.0164 1.619904 L 10.0164 2.798294 L 11.1948 2.994705 L 11.1948 3.780304 L 10.0164 5.155106 L 10.0164 6.1371 L 10.6056 7.315506 L 10.0164 7.904694 L 4.91 6.333496 L 2.1604 6.333496 L 0.982 6.922699 Z M 21.211201 7.708298 L 21.996799 8.493896 L 22.193199 10.065094 L 21.8004 11.439896 L 19.639999 15.171494 L 18.2652 16.546303 L 17.283199 16.742699 L 16.8904 16.349899 L 16.8904 15.367905 L 17.283199 14.975098 L 18.658001 14.778702 L 18.854401 13.993103 L 17.283199 13.600296 L 17.676001 12.814697 L 16.497601 12.618301 L 16.301201 13.600296 L 15.9084 13.993103 L 14.73 14.189499 L 14.73 14.975098 L 15.9084 15.171494 L 15.9084 15.564301 L 14.73 16.742699 L 13.748 16.546303 L 12.766 15.171494 L 12.5696 13.993103 L 12.9624 11.832703 L 13.9444 9.083099 L 16.104799 8.101105 L 19.0508 7.315506 L 20.2292 7.315506 Z M 2.3568 7.511902 L 4.3208 7.315506 L 8.2488 8.493896 L 9.4272 9.279495 L 10.6056 12.814697 L 10.6056 14.975098 L 9.6236 16.546303 L 8.6416 16.742699 L 7.6596 15.957108 L 7.6596 14.975098 L 8.6416 14.975098 L 8.4452 13.993103 L 7.0704 13.796707 L 6.6776 12.618301 L 5.6956 12.618301 L 5.6956 13.796707 L 4.5172 13.796707 L 4.7136 14.778702 L 6.2848 15.171494 L 6.4812 16.349899 L 6.0884 16.742699 L 5.4992 16.742699 L 4.3208 15.957108 L 2.7496 13.796707 L 1.1784 10.457901 L 1.1784 8.886703 Z"/>
    </g>
</svg>
