<?xml version="1.0" encoding="UTF-8"?>
<!-- Generated by Pixelmator Pro 3.8 -->
<svg width="250" height="70" viewBox="0 0 250 70" xmlns="http://www.w3.org/2000/svg">
    <g id="Group">
        <path id="Path" fill="#000d74" fill-rule="evenodd" stroke="none" d="M 186.187195 45.901497 L 186.776398 45.901497 L 187.169205 46.294296 L 186.972794 52.971901 L 186.383606 53.168297 L 189.329605 53.168297 L 188.347595 52.579102 L 188.544006 49.633102 L 191.882797 53.168297 L 194.239594 53.168297 L 193.061203 52.775497 L 189.329605 48.847504 L 191.490005 46.687103 L 193.257599 45.705101 L 190.900803 45.705101 L 190.900803 46.4907 L 188.544006 48.847504 L 188.347595 46.294296 L 189.133194 45.705101 Z M 178.134796 45.901497 L 178.723999 45.901497 L 179.116806 46.294296 L 178.920395 52.971901 L 178.331207 53.168297 L 181.277206 53.168297 L 180.295197 52.579102 L 180.491592 50.025902 L 181.669998 50.418701 L 182.651993 51.989899 L 183.830399 53.168297 L 185.990799 53.168297 L 185.2052 52.971901 L 182.651993 50.222298 L 182.455597 49.633102 L 183.634003 48.061897 L 183.634003 47.079903 L 183.0448 46.0979 L 182.062805 45.705101 Z M 180.491592 46.0979 L 181.669998 46.294296 L 182.455597 47.276299 L 182.455597 48.6511 L 181.669998 49.633102 L 180.295197 49.436699 Z M 160.458801 45.901497 L 160.851593 45.901497 L 161.637207 46.687103 L 163.601196 50.025902 L 163.4048 52.971901 L 162.815598 53.168297 L 165.957993 53.168297 L 164.975998 52.775497 L 164.779602 52.382698 L 164.779602 50.222298 L 166.743607 46.687103 L 168.118393 45.705101 L 165.761597 45.901497 L 166.154404 46.294296 L 164.975998 48.6511 L 164.386795 49.240303 L 162.619202 46.0979 L 163.011993 45.705101 Z M 145.925201 45.901497 L 146.514404 46.0979 L 148.674805 52.579102 L 149.264008 53.3647 L 151.424393 48.061897 L 153.192001 52.382698 L 153.9776 53.3647 L 156.138 46.687103 L 157.119995 45.705101 L 154.959595 45.901497 L 155.548798 46.0979 L 154.370407 50.615097 L 153.9776 51.007896 L 152.013596 46.0979 L 151.620804 45.705101 L 149.853195 50.615097 L 149.460403 51.007896 L 147.889206 46.0979 L 148.478394 45.705101 Z M 139.836807 45.901497 L 140.425995 45.901497 L 140.818802 46.294296 L 140.818802 52.579102 L 140.033203 53.168297 L 144.5504 53.168297 L 144.746796 51.793503 L 143.961197 52.775497 L 142.586395 52.775497 L 141.997192 52.186302 L 142.193604 49.436699 L 143.568405 49.436699 L 144.354004 50.222298 L 144.354004 48.6511 L 143.764801 49.0439 L 141.997192 48.847504 L 142.193604 46.294296 L 144.157593 46.4907 L 144.354004 47.079903 L 144.5504 45.705101 Z M 119.607597 45.901497 L 120.1968 45.901497 L 120.5896 46.294296 L 120.393204 52.971901 L 119.804001 53.168297 L 122.946404 53.168297 L 121.964401 52.775497 L 122.160797 49.436699 L 123.535599 49.436699 L 124.124802 50.222298 L 124.321198 48.6511 L 123.732002 49.0439 L 121.964401 48.847504 L 122.160797 46.294296 L 124.124802 46.4907 L 124.321198 47.079903 L 124.517601 45.705101 Z M 98.199997 45.901497 L 98.592796 45.901497 L 99.378403 46.687103 L 101.3424 50.025902 L 101.146004 52.971901 L 100.556801 53.168297 L 103.699203 53.168297 L 102.717201 52.775497 L 102.717201 49.633102 L 104.484802 46.687103 L 105.859596 45.705101 L 103.5028 45.901497 L 103.895599 46.0979 L 103.895599 46.4907 L 102.324402 49.240303 L 100.360397 46.0979 L 100.753197 45.705101 Z M 86.8088 45.901497 L 87.594398 46.294296 L 87.594398 52.579102 L 86.8088 53.168297 L 89.951202 53.168297 L 88.772797 52.579102 L 88.772797 46.294296 L 89.558403 45.705101 Z M 67.758003 45.901497 L 68.347198 45.901497 L 68.739998 46.294296 L 68.543602 52.971901 L 67.954399 53.168297 L 72.667999 53.168297 L 72.667999 51.793503 L 72.471603 52.382698 L 71.882401 52.775497 L 70.507599 52.775497 L 69.918404 51.793503 L 70.114799 49.436699 L 71.685997 49.436699 L 72.2752 50.222298 L 72.2752 48.6511 L 71.685997 49.0439 L 69.918404 48.847504 L 70.114799 46.294296 L 71.882401 46.294296 L 72.471603 47.079903 L 72.471603 45.705101 Z M 57.5452 45.901497 L 58.134399 45.901497 L 58.527199 46.294296 L 58.330799 52.971901 L 57.7416 53.168297 L 60.883999 53.168297 L 59.902 52.775497 L 59.902 49.436699 L 63.830002 49.633102 L 63.830002 51.597099 L 63.437199 52.971901 L 62.848 53.168297 L 65.990402 53.168297 L 65.0084 52.775497 L 65.204803 45.901497 L 65.793999 45.705101 L 62.848 45.901497 L 63.633598 46.0979 L 63.633598 48.847504 L 59.705601 48.6511 L 59.705601 46.687103 L 60.0984 45.901497 L 60.687599 45.705101 Z M 49.689201 45.705101 L 49.492802 47.079903 L 50.2784 46.294296 L 52.242401 46.4907 L 52.046001 52.971901 L 51.456799 53.168297 L 54.599201 53.168297 L 53.617199 52.775497 L 53.617199 46.294296 L 55.3848 46.294296 L 56.170399 47.079903 L 56.170399 45.705101 Z M 31.620399 45.901497 L 32.405998 46.0979 L 32.209599 52.971901 L 31.620399 53.168297 L 34.762798 53.168297 L 33.7808 52.775497 L 33.9772 45.901497 L 34.566399 45.705101 Z M 171.064407 45.705101 L 169.886002 46.294296 L 168.5112 48.258301 L 168.314804 49.633102 L 168.707596 51.2043 L 169.296799 52.186302 L 170.278793 52.971901 L 171.457199 53.3647 L 174.010406 53.168297 L 174.796005 52.775497 L 176.367203 50.811501 L 176.367203 47.865501 L 175.188797 46.294296 L 174.010406 45.705101 Z M 171.457199 46.0979 L 173.028397 46.0979 L 173.813995 46.4907 L 174.796005 47.669098 L 175.188797 48.847504 L 175.188797 50.418701 L 174.599594 51.989899 L 173.028397 52.971901 L 171.850006 52.775497 L 170.867996 52.186302 L 169.886002 50.615097 L 169.886002 47.669098 Z M 130.802399 45.508698 L 130.409607 52.971901 L 129.623993 53.168297 L 132.373596 53.168297 L 131.391602 52.579102 L 131.587997 48.061897 L 137.087204 53.3647 L 137.087204 48.454697 L 137.479996 45.901497 L 138.069199 45.705101 L 135.516006 45.901497 L 136.301605 46.0979 L 136.498001 46.4907 L 136.301605 51.2043 Z M 112.537201 45.705101 L 111.358803 46.294296 L 109.984001 48.258301 L 109.787598 49.436699 L 110.180397 51.2043 L 110.7696 52.186302 L 111.751602 52.971901 L 112.93 53.3647 L 115.4832 53.168297 L 116.268799 52.775497 L 117.839996 50.811501 L 117.839996 47.865501 L 117.447197 47.079903 L 116.072403 45.901497 L 114.501198 45.508698 Z M 112.93 46.0979 L 114.501198 46.0979 L 115.286797 46.4907 L 116.268799 47.669098 L 116.661598 48.847504 L 116.661598 50.615097 L 116.072403 51.989899 L 114.501198 52.971901 L 113.3228 52.775497 L 112.340797 52.186302 L 111.358803 50.615097 L 111.358803 47.669098 Z M 91.5224 45.508698 L 91.129601 46.294296 L 91.325996 47.079903 L 91.915199 46.294296 L 93.879204 46.4907 L 93.6828 52.971901 L 93.093597 53.168297 L 96.236 53.168297 L 95.253998 52.775497 L 95.450401 46.294296 L 97.021599 46.294296 L 97.807198 47.079903 L 97.807198 45.705101 Z M 79.738403 46.0979 L 78.559998 47.276299 L 77.970802 48.847504 L 77.970802 50.025902 L 78.559998 51.597099 L 80.131203 52.971901 L 81.505997 53.3647 L 83.862801 53.3647 L 84.648399 52.971901 L 84.844803 51.400703 L 84.452003 52.186302 L 83.666397 52.775497 L 81.898804 52.775497 L 80.720398 52.186302 L 79.542 50.615097 L 79.345596 48.6511 L 79.934799 47.079903 L 81.309601 46.0979 L 83.273598 46.0979 L 84.059196 46.4907 L 84.648399 47.276299 L 84.648399 47.865501 L 84.844803 45.901497 L 81.7024 45.508698 Z M 37.512402 45.508698 L 37.316002 52.382698 L 36.726799 53.168297 L 36.334 53.168297 L 39.083599 53.168297 L 38.298 52.971901 L 37.905201 50.811501 L 38.101601 47.865501 L 43.797199 53.168297 L 43.797199 46.4907 L 44.582802 45.705101 L 42.029598 45.901497 L 42.618801 45.901497 L 43.0116 46.294296 L 43.0116 51.2043 Z M 2.5532 35.295898 L 2.7496 36.867104 L 20.622 36.867104 L 20.622 35.295898 Z M 238.2332 25.672302 L 238.822403 25.672302 L 240.197205 27.047104 L 243.143204 32.349899 L 242.946793 36.081497 L 241.768402 36.6707 L 246.678406 36.6707 L 245.5 36.474297 L 245.107193 36.081497 L 244.910797 32.153503 L 247.856796 26.850693 L 249.035202 25.672302 L 249.820801 25.475906 L 246.285599 25.475906 L 246.874802 25.868698 L 246.874802 26.457901 L 244.910797 30.189499 L 244.321594 30.778702 L 241.572006 25.868698 L 242.161194 25.475906 L 239.608002 25.279495 Z M 218.789597 25.475906 L 219.968002 26.065094 L 220.164398 27.047104 L 220.164398 34.706703 L 219.968002 36.081497 L 218.789597 36.6707 L 223.6996 36.6707 L 222.521194 36.474297 L 221.932007 35.688698 L 221.932007 26.261505 L 222.128403 25.868698 L 223.306793 25.475906 Z M 196.596405 25.475906 L 197.5784 25.672302 L 198.167603 26.261505 L 198.167603 35.688698 L 197.774796 36.474297 L 196.792801 36.6707 L 201.506393 36.6707 L 200.131607 36.277901 L 199.935196 35.688698 L 200.131607 32.153503 L 201.506393 32.153503 L 205.041595 36.474297 L 206.023605 36.867104 L 208.576797 36.867104 L 208.380402 36.474297 L 207.201996 36.277901 L 203.470398 32.153503 L 203.274002 31.171494 L 204.452393 29.993103 L 205.041595 28.421906 L 204.8452 27.047104 L 203.863205 25.868698 L 201.702805 25.279495 Z M 200.131607 26.065094 L 201.8992 26.261505 L 203.077606 27.636307 L 203.077606 30.189499 L 201.8992 31.367905 L 200.328003 31.367905 L 199.935196 30.975098 Z M 186.187195 25.475906 L 187.169205 25.672302 L 187.758408 26.457901 L 187.758408 35.295898 L 187.561996 36.081497 L 186.383606 36.6707 L 193.650406 36.6707 L 193.650406 34.5103 L 193.453995 35.295898 L 192.472 36.081497 L 190.507996 36.081497 L 189.722397 35.492302 L 189.526001 34.903099 L 189.722397 30.975098 L 192.275604 31.171494 L 193.061203 32.349899 L 193.257599 30.385895 L 193.061203 29.796707 L 192.079193 30.385895 L 189.526001 30.189499 L 189.722397 26.065094 L 192.472 26.261505 L 193.257599 27.439896 L 193.453995 25.279495 Z M 185.2052 25.475906 L 181.473602 25.475906 L 182.455597 26.261505 L 182.259201 27.2435 L 179.509598 33.921097 L 179.116806 33.528297 L 176.367203 26.065094 L 177.349197 25.475906 L 172.635605 25.475906 L 173.617599 25.672302 L 174.403198 26.457901 L 178.331207 36.277901 L 178.920395 37.063499 L 179.705994 35.885101 L 183.830399 26.261505 L 184.419601 25.672302 Z M 166.547195 25.475906 L 167.725601 26.065094 L 167.921997 27.047104 L 167.921997 34.706703 L 167.725601 36.081497 L 166.547195 36.6707 L 171.457199 36.6707 L 170.278793 36.474297 L 169.689606 35.688698 L 169.689606 26.261505 L 169.886002 25.868698 L 171.064407 25.475906 Z M 110.573196 25.475906 L 111.751602 26.065094 L 111.751602 36.081497 L 110.573196 36.867104 L 115.286797 36.867104 L 115.090401 36.474297 L 113.912003 36.277901 L 113.715599 35.885101 L 113.715599 26.261505 L 113.912003 25.868698 L 114.893997 25.672302 L 114.893997 25.279495 Z M 99.771202 25.475906 L 100.753197 25.672302 L 101.3424 26.654297 L 101.3424 35.099503 L 101.146004 36.081497 L 99.967598 36.6707 L 105.270401 36.867104 L 106.645203 36.474297 L 107.823601 35.492302 L 108.412804 34.313904 L 108.412804 32.939102 L 108.019997 31.957108 L 105.859596 30.189499 L 107.038002 28.814697 L 107.038002 26.654297 L 106.056 25.672302 L 104.484802 25.279495 Z M 103.306396 30.778702 L 105.073997 31.171494 L 106.448799 32.939102 L 106.645203 34.5103 L 106.252403 35.492302 L 105.466797 36.081497 L 104.484802 36.277901 L 103.699203 36.081497 L 103.110001 35.492302 Z M 103.5028 25.868698 L 104.484802 26.065094 L 105.270401 26.850693 L 105.6632 27.832703 L 105.466797 29.4039 L 104.681198 30.189499 L 103.110001 29.993103 L 103.110001 26.261505 Z M 69.329201 25.672302 L 70.311203 25.672302 L 70.704002 26.065094 L 70.704002 32.742699 L 71.096802 34.5103 L 71.882401 35.885101 L 73.060799 36.6707 L 74.4356 37.063499 L 76.399597 37.063499 L 78.363602 36.277901 L 79.542 34.903099 L 79.934799 33.724701 L 80.131203 26.065094 L 81.309601 25.475906 L 78.756401 25.279495 L 77.381599 25.672302 L 78.559998 25.868698 L 78.756401 26.261505 L 78.756401 33.724701 L 78.167198 35.099503 L 77.381599 35.885101 L 76.399597 36.277901 L 75.221199 36.277901 L 74.239197 35.885101 L 72.864403 34.1175 L 72.667999 26.261505 L 72.864403 25.868698 L 74.042801 25.475906 L 70.900398 25.279495 Z M 59.902 25.475906 L 60.883999 25.672302 L 61.276798 26.065094 L 61.276798 35.885101 L 60.0984 36.867104 L 67.5616 36.6707 L 67.5616 34.5103 L 67.365196 35.295898 L 66.186798 36.081497 L 64.419197 36.081497 L 63.240799 35.295898 L 63.240799 26.065094 L 63.633598 25.672302 L 64.615601 25.475906 Z M 226.645599 25.083099 L 226.252808 27.439896 L 227.234802 26.261505 L 230.377197 26.457901 L 230.377197 36.081497 L 229.198807 36.867104 L 234.108795 36.6707 L 232.930405 36.474297 L 232.341202 35.688698 L 232.537598 26.261505 L 235.090805 26.261505 L 236.0728 26.850693 L 236.0728 27.439896 L 236.465607 27.2435 L 236.465607 25.279495 L 228.413193 25.475906 Z M 215.057999 25.279495 L 211.915604 25.279495 L 210.933594 25.672302 L 209.951599 26.850693 L 209.755203 28.618301 L 210.344406 29.993103 L 213.879593 33.331902 L 214.2724 34.313904 L 214.076004 35.295898 L 213.290405 36.081497 L 211.326401 36.277901 L 210.147995 35.295898 L 209.558807 33.724701 L 209.362396 36.277901 L 210.147995 36.867104 L 212.701202 37.063499 L 214.076004 36.6707 L 215.057999 35.885101 L 215.647202 34.903099 L 215.843597 33.528297 L 215.254395 31.760696 L 211.326401 28.029099 L 211.326401 26.850693 L 212.308395 25.868698 L 213.879593 25.868698 L 214.665207 26.457901 L 215.254395 27.832703 L 215.450806 25.475906 Z M 152.799194 25.083099 L 152.602798 35.688698 L 152.210007 36.474297 L 151.227997 36.867104 L 155.352402 36.6707 L 154.370407 36.474297 L 153.781204 35.688698 L 153.781204 28.618301 L 162.226395 37.063499 L 162.619202 33.528297 L 162.619202 26.261505 L 162.815598 25.868698 L 163.994003 25.475906 L 159.869598 25.475906 L 160.851593 25.672302 L 161.440796 26.261505 L 161.440796 33.724701 Z M 122.946404 25.083099 L 118.625603 35.885101 L 117.054398 36.867104 L 120.982399 36.6707 L 120.1968 36.474297 L 120.000397 35.688698 L 120.982399 32.939102 L 124.713997 33.135498 L 125.499603 35.099503 L 125.499603 36.6707 L 129.427597 36.6707 L 128.445602 36.474297 L 127.4636 35.295898 L 124.124802 26.654297 L 123.339203 25.083099 Z M 122.75 28.225494 L 124.321198 31.957108 L 121.375198 31.957108 Z M 85.041199 25.279495 L 83.666397 35.099503 L 83.273598 36.277901 L 82.291603 36.867104 L 86.023201 36.6707 L 85.041199 36.474297 L 84.648399 36.081497 L 85.237602 30.189499 L 85.630402 29.600296 L 89.362 36.867104 L 93.290001 29.207504 L 94.272003 35.295898 L 94.0756 36.6707 L 97.807198 36.867104 L 97.610802 36.474297 L 96.432404 36.277901 L 96.039597 35.492302 L 94.468399 25.083099 L 94.0756 25.083099 L 90.147598 33.528297 L 89.558403 33.528297 L 85.630402 25.279495 Z M 50.867599 25.083099 L 49.099998 25.475906 L 46.743198 27.047104 L 45.5648 29.207504 L 45.368401 32.153503 L 46.153999 34.313904 L 47.528801 35.885101 L 49.492802 36.867104 L 52.242401 37.063499 L 54.795601 36.277901 L 56.563202 34.706703 L 57.7416 31.957108 L 57.7416 29.796707 L 56.956001 27.636307 L 55.973999 26.457901 L 53.617199 25.279495 Z M 50.2784 25.868698 L 52.046001 25.868698 L 53.420799 26.457901 L 54.992001 28.225494 L 55.5812 29.993103 L 55.3848 33.724701 L 54.795601 34.903099 L 53.813599 35.885101 L 52.8316 36.277901 L 51.260399 36.277901 L 49.492802 35.492302 L 48.118 33.921097 L 47.528801 32.349899 L 47.332401 30.385895 L 47.725201 28.225494 L 49.296398 26.261505 Z M 135.516006 23.315506 L 136.890793 23.511902 L 137.2836 23.904694 L 137.2836 31.171494 L 137.479996 33.135498 L 138.265594 35.099503 L 139.444 36.277901 L 141.604401 37.063499 L 144.157593 37.063499 L 146.514404 36.081497 L 147.496399 35.099503 L 148.478394 32.349899 L 148.478394 24.297501 L 149.067596 23.511902 L 149.656799 23.511902 L 150.049606 23.119095 L 145.139603 23.315506 L 146.317993 23.511902 L 146.907196 24.101105 L 146.907196 33.135498 L 146.317993 34.706703 L 144.354004 36.081497 L 142.389999 36.081497 L 141.408005 35.688698 L 140.425995 34.706703 L 139.836807 33.331902 L 139.640396 24.297501 L 140.229599 23.511902 L 140.818802 23.511902 L 141.211594 23.119095 Z M 32.995201 24.297501 L 31.424 26.065094 L 30.441999 28.618301 L 30.441999 31.171494 L 31.816799 34.313904 L 33.9772 36.081497 L 36.1376 36.867104 L 40.6548 37.063499 L 42.226002 36.6707 L 42.815201 35.688698 L 43.0116 33.528297 L 41.243999 35.688698 L 39.869202 36.081497 L 37.316002 35.885101 L 35.155602 34.706703 L 33.9772 33.331902 L 33.191601 31.760696 L 32.995201 28.029099 L 33.388 26.654297 L 34.369999 25.083099 L 35.352001 24.297501 L 37.119598 23.708298 L 39.083599 23.708298 L 41.0476 24.297501 L 42.226002 25.475906 L 42.422401 26.850693 L 42.815201 26.850693 L 42.815201 23.315506 L 40.6548 22.922699 L 36.334 22.922699 L 34.369999 23.511902 Z M 0.1964 23.904694 L 0 26.850693 L 2.3568 31.564301 L 2.946 34.1175 L 20.4256 34.1175 L 21.014799 31.367905 L 22.9788 27.832703 L 23.371599 26.457901 L 23.371599 24.690308 L 22.9788 23.708298 L 21.211201 22.333496 L 18.461599 22.333496 L 13.1588 23.904694 L 12.5696 23.315506 L 13.1588 22.529907 L 13.3552 21.547897 L 12.9624 20.565903 L 12.1768 19.780304 L 12.3732 18.798294 L 13.3552 18.601898 L 13.1588 17.423492 L 12.1768 17.227097 L 12.1768 16.441498 L 11.1948 16.441498 L 10.9984 17.423492 L 10.0164 17.619904 L 10.0164 18.798294 L 11.1948 18.994705 L 11.1948 19.780304 L 10.0164 21.155106 L 10.0164 22.1371 L 10.6056 23.315506 L 10.0164 23.904694 L 4.91 22.333496 L 2.1604 22.333496 L 0.982 22.922699 Z M 21.211201 23.708298 L 21.996799 24.493896 L 22.193199 26.065094 L 21.8004 27.439896 L 19.639999 31.171494 L 18.2652 32.546303 L 17.283199 32.742699 L 16.8904 32.349899 L 16.8904 31.367905 L 17.283199 30.975098 L 18.658001 30.778702 L 18.854401 29.993103 L 17.283199 29.600296 L 17.676001 28.814697 L 16.497601 28.618301 L 16.301201 29.600296 L 15.9084 29.993103 L 14.73 30.189499 L 14.73 30.975098 L 15.9084 31.171494 L 15.9084 31.564301 L 14.73 32.742699 L 13.748 32.546303 L 12.766 31.171494 L 12.5696 29.993103 L 12.9624 27.832703 L 13.9444 25.083099 L 16.104799 24.101105 L 19.0508 23.315506 L 20.2292 23.315506 Z M 2.3568 23.511902 L 4.3208 23.315506 L 8.2488 24.493896 L 9.4272 25.279495 L 10.6056 28.814697 L 10.6056 30.975098 L 9.6236 32.546303 L 8.6416 32.742699 L 7.6596 31.957108 L 7.6596 30.975098 L 8.6416 30.975098 L 8.4452 29.993103 L 7.0704 29.796707 L 6.6776 28.618301 L 5.6956 28.618301 L 5.6956 29.796707 L 4.5172 29.796707 L 4.7136 30.778702 L 6.2848 31.171494 L 6.4812 32.349899 L 6.0884 32.742699 L 5.4992 32.742699 L 4.3208 31.957108 L 2.7496 29.796707 L 1.1784 26.457901 L 1.1784 24.886703 Z"/>
    </g>
</svg>
