<?xml version="1.0" encoding="UTF-8"?>
<svg xmlns="http://www.w3.org/2000/svg" viewBox="0 0 250 250" role="img" aria-label="Columbia University logo">
<title>Columbia University</title>
<g transform="translate(-0.5892 105.6559) scale(0.1964)">
<path fill="#000d74" fill-rule="evenodd" d="M951 154L954 154L956 156L955 190L952 191L967 191L962 188L963 173L980 191L992 191L986 189L967 169L978 158L987 153L975 153L975 157L963 169L962 156L966 153ZM910 154L913 154L915 156L914 190L911 191L926 191L921 188L922 175L928 177L933 185L939 191L950 191L946 190L933 176L932 173L938 165L938 160L935 155L930 153ZM922 155L928 156L932 161L932 168L928 173L921 172ZM820 154L822 154L826 158L836 175L835 190L832 191L848 191L843 189L842 187L842 176L852 158L859 153L847 154L849 156L843 168L840 171L831 155L833 153ZM746 154L749 155L760 188L763 192L774 165L783 187L787 192L798 158L803 153L792 154L795 155L789 178L787 180L777 155L775 153L766 178L764 180L756 155L759 153ZM715 154L718 154L720 156L720 188L716 191L739 191L740 184L736 189L729 189L726 186L727 172L734 172L738 176L738 168L735 170L726 169L727 156L737 157L738 160L739 153ZM612 154L615 154L617 156L616 190L613 191L629 191L624 189L625 172L632 172L635 176L636 168L633 170L624 169L625 156L635 157L636 160L637 153ZM503 154L505 154L509 158L519 175L518 190L515 191L531 191L526 189L526 173L535 158L542 153L530 154L532 155L532 157L524 171L514 155L516 153ZM445 154L449 156L449 188L445 191L461 191L455 188L455 156L459 153ZM348 154L351 154L353 156L352 190L349 191L373 191L373 184L372 187L369 189L362 189L359 184L360 172L368 172L371 176L371 168L368 170L359 169L360 156L369 156L372 160L372 153ZM296 154L299 154L301 156L300 190L297 191L313 191L308 189L308 172L328 173L328 183L326 190L323 191L339 191L334 189L335 154L338 153L323 154L327 155L327 169L307 168L307 158L309 154L312 153ZM256 153L255 160L259 156L269 157L268 190L265 191L281 191L276 189L276 156L285 156L289 160L289 153ZM164 154L168 155L167 190L164 191L180 191L175 189L176 154L179 153ZM874 153L868 156L861 166L860 173L862 181L865 186L870 190L876 192L889 191L893 189L901 179L901 164L895 156L889 153ZM876 155L884 155L888 157L893 163L895 169L895 177L892 185L884 190L878 189L873 186L868 178L868 163ZM669 152L667 190L663 191L677 191L672 188L673 165L701 192L701 167L703 154L706 153L693 154L697 155L698 157L697 181ZM576 153L570 156L563 166L562 172L564 181L567 186L572 190L578 192L591 191L595 189L603 179L603 164L601 160L594 154L586 152ZM578 155L586 155L590 157L595 163L597 169L597 178L594 185L586 190L580 189L575 186L570 178L570 163ZM469 152L467 156L468 160L471 156L481 157L480 190L477 191L493 191L488 189L489 156L497 156L501 160L501 153ZM409 155L403 161L400 169L400 175L403 183L411 190L418 192L430 192L434 190L435 182L433 186L429 189L420 189L414 186L408 178L407 168L410 160L417 155L427 155L431 157L434 161L434 164L435 154L419 152ZM194 152L193 187L190 191L188 191L202 191L198 190L196 179L197 164L226 191L226 157L230 153L217 154L220 154L222 156L222 181ZM16 100L17 108L108 108L108 100ZM1216 51L1219 51L1226 58L1241 85L1240 104L1234 107L1259 107L1253 106L1251 104L1250 84L1265 57L1271 51L1275 50L1257 50L1260 52L1260 55L1250 74L1247 77L1233 52L1236 50L1223 49ZM1117 50L1123 53L1124 58L1124 97L1123 104L1117 107L1142 107L1136 106L1133 102L1133 54L1134 52L1140 50ZM1004 50L1009 51L1012 54L1012 102L1010 106L1005 107L1029 107L1022 105L1021 102L1022 84L1029 84L1047 106L1052 108L1065 108L1064 106L1058 105L1039 84L1038 79L1044 73L1047 65L1046 58L1041 52L1030 49ZM1022 53L1031 54L1037 61L1037 74L1031 80L1023 80L1021 78ZM951 50L956 51L959 55L959 100L958 104L952 107L989 107L989 96L988 100L983 104L973 104L969 101L968 98L969 78L982 79L986 85L987 75L986 72L981 75L968 74L969 53L983 54L987 60L988 49ZM946 50L927 50L932 54L931 59L917 93L915 91L901 53L906 50L882 50L887 51L891 55L911 105L914 109L918 103L939 54L942 51ZM851 50L857 53L858 58L858 97L857 104L851 107L876 107L870 106L867 102L867 54L868 52L874 50ZM566 50L572 53L572 104L566 108L590 108L589 106L583 105L582 103L582 54L583 52L588 51L588 49ZM511 50L516 51L519 56L519 99L518 104L512 107L539 108L546 106L552 101L555 95L555 88L553 83L542 74L548 67L548 56L543 51L535 49ZM529 77L538 79L545 88L546 96L544 101L540 104L535 105L531 104L528 101ZM530 52L535 53L539 57L541 62L540 70L536 74L528 73L528 54ZM356 51L361 51L363 53L363 87L365 96L369 103L375 107L382 109L392 109L402 105L408 98L410 92L411 53L417 50L404 49L397 51L403 52L404 54L404 92L401 99L397 103L392 105L386 105L381 103L374 94L373 54L374 52L380 50L364 49ZM308 50L313 51L315 53L315 103L309 108L347 107L347 96L346 100L340 104L331 104L325 100L325 53L327 51L332 50ZM1157 48L1155 60L1160 54L1176 55L1176 104L1170 108L1195 107L1189 106L1186 102L1187 54L1200 54L1205 57L1205 60L1207 59L1207 49L1166 50ZM1098 49L1082 49L1077 51L1072 57L1071 66L1074 73L1092 90L1094 95L1093 100L1089 104L1079 105L1073 100L1070 92L1069 105L1073 108L1086 109L1093 107L1098 103L1101 98L1102 91L1099 82L1079 63L1079 57L1084 52L1092 52L1096 55L1099 62L1100 50ZM781 48L780 102L778 106L773 108L794 107L789 106L786 102L786 66L829 109L831 91L831 54L832 52L838 50L817 50L822 51L825 54L825 92ZM629 48L607 103L599 108L619 107L615 106L614 102L619 88L638 89L642 99L642 107L662 107L657 106L652 100L635 56L631 48ZM628 64L636 83L621 83ZM436 49L429 99L427 105L422 108L441 107L436 106L434 104L437 74L439 71L458 108L478 69L483 100L482 107L501 108L500 106L494 105L492 101L484 48L482 48L462 91L459 91L439 49ZM262 48L253 50L241 58L235 69L234 84L238 95L245 103L255 108L269 109L282 105L291 97L297 83L297 72L293 61L288 55L276 49ZM259 52L268 52L275 55L283 64L286 73L285 92L282 98L277 103L272 105L264 105L255 101L248 93L245 85L244 75L246 64L254 54ZM693 39L700 40L702 42L702 79L703 89L707 99L713 105L724 109L737 109L749 104L754 99L759 85L759 44L762 40L765 40L767 38L742 39L748 40L751 43L751 89L748 97L738 104L728 104L723 102L718 97L715 90L714 44L717 40L720 40L722 38ZM171 44L163 53L158 66L158 79L165 95L176 104L187 108L210 109L218 107L221 102L222 91L213 102L206 104L193 103L182 97L176 90L172 82L171 63L173 56L178 48L183 44L192 41L202 41L212 44L218 50L219 57L221 57L221 39L210 37L188 37L178 40ZM4 42L3 57L15 81L18 94L107 94L110 80L120 62L122 55L122 46L120 41L111 34L97 34L70 42L67 39L70 35L71 30L69 25L65 21L66 16L71 15L70 9L65 8L65 4L60 4L59 9L54 10L54 16L60 17L60 21L54 28L54 33L57 39L54 42L28 34L14 34L8 37ZM111 41L115 45L116 53L114 60L103 79L96 86L91 87L89 85L89 80L91 78L98 77L99 73L91 71L93 67L87 66L86 71L84 73L78 74L78 78L84 79L84 81L78 87L73 86L68 79L67 73L69 62L74 48L85 43L100 39L106 39ZM15 40L25 39L45 45L51 49L57 67L57 78L52 86L47 87L42 83L42 78L47 78L46 73L39 72L37 66L32 66L32 72L26 72L27 77L35 79L36 85L34 87L31 87L25 83L17 72L9 55L9 47Z"/>
</g>
</svg>
