<?xml version="1.0" encoding="UTF-8"?>
<!-- Generated by Pixelmator Pro 3.8 -->
<svg width="250" height="70" viewBox="0 0 250 70" xmlns="http://www.w3.org/2000/svg">
    <g id="Group">
        <path id="Path" fill="#b31b1b" fill-rule="evenodd" stroke="none" d="M 249.978897 27.571396 L 244.079697 27.571396 L 244.079697 28.431702 L 245.800293 28.677505 L 246.169006 29.414902 L 243.465195 36.543098 L 242.113297 39.246902 L 239.163696 32.364502 L 238.180496 29.046204 L 238.794998 28.554596 L 240.3927 28.431702 L 240.3927 27.571396 L 233.141602 27.571396 L 233.141602 28.431702 L 234.4935 28.677505 L 234.985107 29.169098 L 235.845398 30.889694 L 240.638504 42.810997 L 239.901093 44.900299 L 238.672104 47.358299 L 237.565994 48.464401 L 236.951508 48.710197 L 235.722504 48.710197 L 234.4935 47.972801 L 234.247696 48.218597 L 233.633194 50.184998 L 233.756104 50.553703 L 234.739304 50.922401 L 236.214096 50.922401 L 237.811798 50.307899 L 238.794998 49.447601 L 240.638504 46.129303 L 243.956802 38.017899 L 247.643799 30.152298 L 248.749893 28.677505 L 249.856003 28.431702 Z M 156.820694 27.571396 L 156.820694 28.431702 L 157.803894 28.431702 L 158.295502 28.677505 L 158.910004 29.537796 L 164.194702 42.196503 L 165.915298 42.196503 L 168.250397 36.543098 L 171.568695 29.660706 L 172.306107 28.677505 L 173.658005 28.431702 L 173.658005 27.571396 L 167.758804 27.571396 L 167.758804 28.431702 L 169.479401 28.554596 L 169.970993 28.923294 L 169.970993 29.292007 L 167.881699 34.945396 L 165.915298 39.246902 L 164.5634 36.420197 L 161.859604 29.414902 L 161.859604 28.923294 L 162.351196 28.554596 L 164.194702 28.308807 L 164.194702 27.571396 Z M 219.130997 27.202698 L 216.4272 28.063004 L 213.969193 28.431702 L 213.969193 29.292007 L 215.566895 29.292007 L 216.304306 29.660706 L 216.550095 31.504196 L 216.304306 40.721703 L 215.812698 41.213303 L 213.969193 41.336197 L 213.969193 42.073601 L 221.834793 42.073601 L 221.834793 41.336197 L 219.991302 41.213303 L 219.376801 40.598801 L 219.376801 27.448502 Z M 154.239807 27.202698 L 153.748199 27.202698 L 153.133698 27.571396 L 150.921494 28.185898 L 149.078003 28.431702 L 149.078003 29.292007 L 150.675705 29.292007 L 151.290207 29.537796 L 151.535995 30.029404 L 151.413101 40.598801 L 150.798599 41.213303 L 149.078003 41.336197 L 149.078003 42.073601 L 156.820694 42.073601 L 156.820694 41.336197 L 154.854294 41.090401 L 154.485596 40.598801 L 154.362701 39.984299 Z M 207.947098 27.079803 L 204.751694 27.202698 L 202.662399 28.185898 L 201.310501 29.7836 L 200.941803 30.889694 L 200.941803 32.2416 L 201.556305 33.839302 L 202.662399 34.822502 L 204.874603 35.559898 L 207.824203 36.1744 L 209.053207 36.788902 L 209.790604 37.894997 L 209.667694 39.492699 L 209.298996 40.230103 L 208.684494 40.844597 L 207.5784 41.459099 L 204.137207 41.459099 L 203.399796 41.090401 L 202.539505 40.230103 L 202.047897 38.878197 L 202.047897 37.403397 L 201.187607 37.403397 L 201.187607 39.124001 L 200.818893 41.459099 L 200.941803 41.827797 L 205.243301 42.565201 L 207.332596 42.442299 L 208.930298 41.950699 L 209.790604 41.459099 L 211.019608 40.352997 L 211.757004 39.124001 L 212.125702 37.894997 L 212.125702 36.788902 L 211.5112 35.1912 L 211.019608 34.6996 L 209.053207 33.839302 L 204.874603 32.856102 L 204.137207 32.487396 L 203.276901 31.381302 L 203.276901 29.906494 L 203.645599 29.169098 L 204.382996 28.431702 L 205.120407 28.063004 L 206.841003 27.940094 L 208.684494 28.554596 L 209.667694 29.660706 L 210.036407 31.504196 L 210.773804 31.504196 L 210.896698 27.940094 Z M 199.589905 27.448502 L 198.115097 27.079803 L 196.517395 27.571396 L 195.534195 28.431702 L 193.936493 30.520996 L 193.813599 27.202698 L 191.847198 27.940094 L 188.651794 28.554596 L 188.651794 29.292007 L 190.741104 29.414902 L 191.109802 29.906494 L 191.232697 38.1408 L 190.986893 40.721703 L 190.4953 41.213303 L 188.5289 41.336197 L 188.5289 42.073601 L 197.009003 42.073601 L 196.886093 41.213303 L 194.796799 41.090401 L 194.182297 40.844597 L 193.936493 40.352997 L 193.813599 32.856102 L 194.428101 31.135498 L 195.042603 30.398102 L 195.902893 29.906494 L 197.377701 29.906494 L 197.869293 30.152298 L 198.606705 31.135498 L 199.344101 31.258408 L 199.712799 27.694305 Z M 179.557205 27.079803 L 176.730499 28.185898 L 174.518295 30.029404 L 174.026703 30.889694 L 173.289307 33.347702 L 173.289307 36.666 L 174.272507 39.369797 L 175.624405 40.967499 L 176.484695 41.582001 L 177.959503 42.196503 L 180.909103 42.565201 L 182.875504 42.196503 L 184.718994 41.459099 L 185.702194 40.844597 L 186.193802 39.738503 L 185.825104 39.492699 L 184.104507 40.475899 L 182.015198 40.967499 L 180.417496 40.844597 L 179.311401 40.475899 L 178.451096 39.984299 L 177.099197 38.509499 L 176.361801 36.788902 L 176.115997 34.6996 L 183.121307 34.576698 L 185.702194 34.330902 L 186.5625 34.085098 L 186.685394 32.610298 L 186.193802 30.398102 L 185.702194 29.414902 L 184.718994 28.308807 L 183.490005 27.571396 L 182.015198 27.079803 Z M 176.976303 29.660706 L 177.959503 28.677505 L 179.311401 28.063004 L 180.909103 28.063004 L 181.892303 28.431702 L 182.875504 29.292007 L 183.490005 30.398102 L 183.735794 31.381302 L 183.6129 33.470596 L 176.853394 33.470596 L 176.115997 33.2248 L 176.361801 31.135498 Z M 143.916199 28.677505 L 142.318497 27.571396 L 140.475006 27.079803 L 137.894104 27.448502 L 134.821594 29.906494 L 134.6987 27.202698 L 133.100998 27.8172 L 129.536896 28.554596 L 129.536896 29.292007 L 131.7491 29.537796 L 131.994904 30.029404 L 132.117798 31.995804 L 131.994904 40.352997 L 131.380402 41.213303 L 129.536896 41.336197 L 129.536896 42.073601 L 137.279602 42.073601 L 137.279602 41.336197 L 135.436096 41.213303 L 134.944504 40.844597 L 134.821594 40.475899 L 134.6987 32.118698 L 135.067398 30.889694 L 136.050598 29.906494 L 137.156693 29.292007 L 138.262802 29.046204 L 139.737595 29.169098 L 140.5979 29.537796 L 141.703995 30.520996 L 142.195602 31.627106 L 142.318497 38.755302 L 142.072693 42.073601 L 147.357407 42.073601 L 147.357407 41.336197 L 145.636795 41.213303 L 145.022293 40.598801 L 144.899399 31.135498 L 144.653595 29.906494 Z M 74.600601 27.079803 L 72.019699 28.063004 L 70.299103 29.292007 L 69.561699 30.152298 L 69.070099 31.012604 L 68.455597 33.2248 L 68.455597 36.788902 L 68.824303 38.263702 L 69.438797 39.492699 L 71.405197 41.459099 L 73.986099 42.442299 L 77.058601 42.442299 L 78.779198 41.950699 L 80.622704 40.967499 L 81.237198 39.861397 L 81.114304 39.492699 L 78.9021 40.598801 L 77.181503 40.967499 L 75.583801 40.844597 L 73.740303 40.107201 L 72.634201 39.124001 L 72.019699 38.263702 L 71.282303 35.6828 L 71.405197 34.576698 L 78.287598 34.576698 L 80.745598 34.330902 L 81.605904 34.085098 L 81.728798 33.839302 L 81.728798 32.118698 L 81.483002 30.889694 L 80.8685 29.537796 L 79.639503 28.185898 L 77.673103 27.202698 Z M 72.142601 29.537796 L 73.371597 28.431702 L 74.477699 28.063004 L 75.952499 28.063004 L 77.181503 28.554596 L 78.041801 29.414902 L 78.656303 30.643906 L 78.9021 32.118698 L 78.779198 33.470596 L 72.019699 33.470596 L 71.282303 33.2248 L 71.405197 31.504196 Z M 64.277 28.677505 L 62.925098 27.694305 L 60.8358 27.079803 L 59.1152 27.202698 L 57.8862 27.571396 L 55.1824 29.906494 L 54.6908 27.325607 L 53.4618 27.8172 L 49.897701 28.554596 L 49.897701 29.292007 L 51.864101 29.414902 L 52.2328 29.7836 L 52.4786 32.364502 L 52.2328 40.721703 L 51.741199 41.213303 L 49.897701 41.336197 L 49.897701 42.073601 L 57.517502 42.073601 L 57.517502 41.336197 L 55.796902 41.213303 L 55.1824 40.598801 L 55.059502 31.995804 L 55.4282 30.889694 L 56.4114 29.906494 L 57.1488 29.414902 L 58.500702 29.046204 L 60.0984 29.169098 L 60.958698 29.537796 L 62.0648 30.520996 L 62.433498 31.258408 L 62.679298 33.2248 L 62.679298 38.263702 L 62.433498 42.073601 L 67.718201 42.073601 L 67.718201 41.336197 L 65.997597 41.213303 L 65.383102 40.598801 L 65.260201 31.258408 L 64.891502 29.660706 Z M 48.422901 27.325607 L 47.070999 27.079803 L 45.473301 27.571396 L 44.490101 28.431702 L 42.892399 30.520996 L 42.769501 27.202698 L 40.803101 27.940094 L 37.6077 28.554596 L 37.6077 29.292007 L 39.696999 29.414902 L 40.065701 29.7836 L 40.188599 39.246902 L 40.065701 40.475899 L 39.819901 40.967499 L 39.451199 41.213303 L 37.484798 41.336197 L 37.484798 42.073601 L 45.964901 42.073601 L 45.841999 41.213303 L 43.383999 40.967499 L 42.892399 40.352997 L 42.769501 32.7332 L 43.629799 30.7668 L 44.858799 29.906494 L 46.333599 29.906494 L 46.825199 30.152298 L 47.685501 31.258408 L 48.299999 31.258408 L 48.545799 28.677505 Z M 29.1276 27.079803 L 28.0215 27.325607 L 26.177999 28.185898 L 25.194799 28.923294 L 24.088699 30.152298 L 23.351299 31.504196 L 22.859699 32.978996 L 22.736799 36.1744 L 22.982599 37.403397 L 23.842899 39.492699 L 24.457399 40.352997 L 25.809299 41.582001 L 28.2673 42.565201 L 31.094 42.565201 L 34.1665 41.459099 L 36.3787 39.492699 L 37.3619 37.772102 L 37.8535 36.051498 L 37.8535 32.7332 L 37.484798 31.381302 L 36.747398 30.029404 L 34.9039 28.185898 L 33.060398 27.325607 L 31.9543 27.079803 Z M 29.1276 28.063004 L 31.3398 28.185898 L 33.1833 29.414902 L 34.289398 31.258408 L 35.026798 34.208 L 35.026798 37.034698 L 34.4123 39.246902 L 32.9375 40.967499 L 31.4627 41.582001 L 29.6192 41.459099 L 28.0215 40.598801 L 27.0383 39.492699 L 26.5467 38.509499 L 25.809299 35.928596 L 25.686399 32.487396 L 26.055099 30.7668 L 26.6696 29.660706 L 27.5299 28.8004 Z M 227.611099 22.286697 L 225.030197 23.392807 L 225.030197 28.063004 L 224.046997 28.677505 L 222.572205 29.169098 L 222.572205 29.7836 L 225.030197 29.906494 L 224.907303 39.861397 L 225.276001 40.967499 L 225.890503 41.704903 L 226.750793 42.196503 L 229.331696 42.319397 L 230.314896 42.073601 L 231.666794 40.967499 L 231.5439 40.230103 L 230.314896 40.598801 L 228.840103 40.475899 L 227.611099 39.492699 L 227.365295 38.263702 L 227.611099 29.660706 L 231.666794 29.660706 L 231.912598 28.185898 L 227.488205 28.185898 L 227.979797 22.655396 Z M 217.287506 20.197403 L 216.181396 21.057693 L 216.058502 22.532501 L 216.304306 23.024094 L 216.918793 23.515701 L 218.147797 23.638596 L 219.130997 23.024094 L 219.499695 21.795105 L 219.253906 21.057693 L 218.516495 20.320297 Z M 152.396301 20.197403 L 151.535995 20.688995 L 151.044403 21.917999 L 151.167297 22.532501 L 151.781799 23.392807 L 152.396301 23.638596 L 153.256607 23.638596 L 154.239807 23.024094 L 154.485596 22.532501 L 154.485596 21.303497 L 153.625305 20.320297 Z M 106.677498 20.074493 L 106.8004 21.057693 L 109.012604 21.180603 L 109.504204 21.672195 L 109.627098 22.163803 L 109.872902 37.280502 L 110.2416 38.878197 L 111.347702 40.475899 L 113.1912 41.704903 L 116.878197 42.565201 L 120.688103 42.442299 L 123.268997 41.704903 L 124.743797 40.844597 L 126.341499 39.001099 L 126.833099 38.017899 L 127.078903 36.911797 L 127.324699 33.839302 L 127.324699 23.392807 L 127.570503 21.672195 L 128.430801 21.057693 L 130.397202 20.934799 L 130.397202 20.074493 L 122.900299 20.074493 L 122.900299 21.057693 L 124.866699 21.057693 L 125.726997 21.672195 L 125.726997 36.297302 L 124.989601 38.263702 L 123.760597 39.492699 L 121.671303 40.352997 L 119.950699 40.598801 L 117.246902 40.475899 L 115.526299 39.984299 L 114.420197 39.369797 L 113.6828 38.632401 L 112.945396 37.1576 L 112.6996 35.068298 L 112.822502 22.163803 L 112.945396 21.672195 L 113.436996 21.180603 L 115.772102 20.934799 L 115.772102 20.074493 Z M 7.4972 20.320297 L 5.1621 21.426407 L 3.8102 22.409607 L 2.0896 24.253098 L 0.8606 26.342407 L 0.369 27.694305 L 0.0003 29.660706 L 0.0003 32.487396 L 0.369 34.453796 L 1.3522 36.788902 L 2.5812 38.509499 L 4.7934 40.475899 L 6.8827 41.582001 L 8.972 42.196503 L 11.1842 42.565201 L 14.1338 42.565201 L 17.329201 41.950699 L 19.787201 40.967499 L 20.647499 39.369797 L 20.401699 39.124001 L 17.575001 40.475899 L 15.8544 40.844597 L 13.6422 40.967499 L 11.3071 40.721703 L 9.5865 40.230103 L 8.4804 39.738503 L 6.8827 38.632401 L 5.285 36.911797 L 3.9331 34.330902 L 3.4415 32.2416 L 3.4415 28.554596 L 3.9331 26.465302 L 5.0392 24.253098 L 6.7598 22.409607 L 8.1117 21.549301 L 11.0613 20.811905 L 14.5025 20.811905 L 17.083401 21.426407 L 17.943701 22.040894 L 18.681101 23.024094 L 18.804001 25.604996 L 19.787201 25.604996 L 19.910101 23.269897 L 20.524599 20.811905 L 17.697901 20.074493 L 14.6254 19.582901 L 11.3071 19.582901 Z M 97.214203 18.968399 L 94.879097 19.705795 L 91.806602 20.197403 L 91.929497 21.057693 L 94.141701 21.180603 L 94.387497 21.672195 L 94.510399 23.761505 L 94.387497 40.598801 L 93.773003 41.213303 L 91.929497 41.336197 L 91.929497 42.073601 L 99.672203 42.073601 L 99.672203 41.336197 L 97.828697 41.213303 L 97.214203 40.352997 Z M 87.7509 18.968399 L 84.924202 19.828705 L 82.466202 20.197403 L 82.466202 21.057693 L 84.432602 21.057693 L 84.924202 21.672195 L 85.169998 28.308807 L 85.169998 35.314102 L 84.924202 40.598801 L 84.3097 41.213303 L 82.466202 41.336197 L 82.466202 42.073601 L 90.2089 42.073601 L 90.2089 41.336197 L 88.365402 41.213303 L 87.7509 40.352997 Z"/>
    </g>
</svg>
