<?xml version="1.0" encoding="UTF-8"?>
<svg xmlns="http://www.w3.org/2000/svg" viewBox="0 0 250 250" role="img" aria-label="Cornell University logo">
<title>Cornell University</title>
<g transform="translate(-0.86 108.231) scale(0.1229)">
<path fill="#b31b1b" fill-rule="evenodd" d="M2041 76L1993 76L1993 83L2007 85L2010 91L1988 149L1977 171L1953 115L1945 88L1950 84L1963 83L1963 76L1904 76L1904 83L1915 85L1919 89L1926 103L1965 200L1959 217L1949 237L1940 246L1935 248L1925 248L1915 242L1913 244L1908 260L1909 263L1917 266L1929 266L1942 261L1950 254L1965 227L1992 161L2022 97L2031 85L2040 83ZM1283 76L1283 83L1291 83L1295 85L1300 92L1343 195L1357 195L1376 149L1403 93L1409 85L1420 83L1420 76L1372 76L1372 83L1386 84L1390 87L1390 90L1373 136L1357 171L1346 148L1324 91L1324 87L1328 84L1343 82L1343 76ZM1790 73L1768 80L1748 83L1748 90L1761 90L1767 93L1769 108L1767 183L1763 187L1748 188L1748 194L1812 194L1812 188L1797 187L1792 182L1792 75ZM1262 73L1258 73L1253 76L1235 81L1220 83L1220 90L1233 90L1238 92L1240 96L1239 182L1234 187L1220 188L1220 194L1283 194L1283 188L1267 186L1264 182L1263 177ZM1699 72L1673 73L1656 81L1645 94L1642 103L1642 114L1647 127L1656 135L1674 141L1698 146L1708 151L1714 160L1713 173L1710 179L1705 184L1696 189L1668 189L1662 186L1655 179L1651 168L1651 156L1644 156L1644 170L1641 189L1642 192L1677 198L1694 197L1707 193L1714 189L1724 180L1730 170L1733 160L1733 151L1728 138L1724 134L1708 127L1674 119L1668 116L1661 107L1661 95L1664 89L1670 83L1676 80L1690 79L1705 84L1713 93L1716 108L1722 108L1723 79ZM1631 75L1619 72L1606 76L1598 83L1585 100L1584 73L1568 79L1542 84L1542 90L1559 91L1562 95L1563 162L1561 183L1557 187L1541 188L1541 194L1610 194L1609 187L1592 186L1587 184L1585 180L1584 119L1589 105L1594 99L1601 95L1613 95L1617 97L1623 105L1629 106L1632 77ZM1468 72L1445 81L1427 96L1423 103L1417 123L1417 150L1425 172L1436 185L1443 190L1455 195L1479 198L1495 195L1510 189L1518 184L1522 175L1519 173L1505 181L1488 185L1475 184L1466 181L1459 177L1448 165L1442 151L1440 134L1497 133L1518 131L1525 129L1526 117L1522 99L1518 91L1510 82L1500 76L1488 72ZM1447 93L1455 85L1466 80L1479 80L1487 83L1495 90L1500 99L1502 107L1501 124L1446 124L1440 122L1442 105ZM1178 85L1165 76L1150 72L1129 75L1104 95L1103 73L1090 78L1061 84L1061 90L1079 92L1081 96L1082 112L1081 180L1076 187L1061 188L1061 194L1124 194L1124 188L1109 187L1105 184L1104 181L1103 113L1106 103L1114 95L1123 90L1132 88L1144 89L1151 92L1160 100L1164 109L1165 167L1163 194L1206 194L1206 188L1192 187L1187 182L1186 105L1184 95ZM614 72L593 80L579 90L573 97L569 104L564 122L564 151L567 163L572 173L588 189L609 197L634 197L648 193L663 185L668 176L667 173L649 182L635 185L622 184L607 178L598 170L593 163L587 142L588 133L644 133L664 131L671 129L672 127L672 113L670 103L665 92L655 81L639 73ZM594 92L604 83L613 80L625 80L635 84L642 91L647 101L649 113L648 124L593 124L587 122L588 108ZM530 85L519 77L502 72L488 73L478 76L456 95L452 74L442 78L413 84L413 90L429 91L432 94L434 115L432 183L428 187L413 188L413 194L475 194L475 188L461 187L456 182L455 112L458 103L466 95L472 91L483 88L496 89L503 92L512 100L515 106L517 122L517 163L515 194L558 194L558 188L544 187L539 182L538 106L535 93ZM401 74L390 72L377 76L369 83L356 100L355 73L339 79L313 84L313 90L330 91L333 94L334 171L333 181L331 185L328 187L312 188L312 194L381 194L380 187L360 185L356 180L355 118L362 102L372 95L384 95L388 97L395 106L400 106L402 85ZM244 72L235 74L220 81L212 87L203 97L197 108L193 120L192 146L194 156L201 173L206 180L217 190L237 198L260 198L285 189L303 173L311 159L315 145L315 118L312 107L306 96L291 81L276 74L267 72ZM244 80L262 81L277 91L286 106L292 130L292 153L287 171L275 185L263 190L248 189L235 182L227 173L223 165L217 144L216 116L219 102L224 93L231 86ZM1859 33L1838 42L1838 80L1830 85L1818 89L1818 94L1838 95L1837 176L1840 185L1845 191L1852 195L1873 196L1881 194L1892 185L1891 179L1881 182L1869 181L1859 173L1857 163L1859 93L1892 93L1894 81L1858 81L1862 36ZM1775 16L1766 23L1765 35L1767 39L1772 43L1782 44L1790 39L1793 29L1791 23L1785 17ZM1247 16L1240 20L1236 30L1237 35L1242 42L1247 44L1254 44L1262 39L1264 35L1264 25L1257 17ZM875 15L876 23L894 24L898 28L899 32L901 155L904 168L913 181L928 191L958 198L989 197L1010 191L1022 184L1035 169L1039 161L1041 152L1043 127L1043 42L1045 28L1052 23L1068 22L1068 15L1007 15L1007 23L1023 23L1030 28L1030 147L1024 163L1014 173L997 180L983 182L961 181L947 177L938 172L932 166L926 154L924 137L925 32L926 28L930 24L949 22L949 15ZM68 17L49 26L38 34L24 49L14 66L10 77L7 93L7 116L10 132L18 151L28 165L46 181L63 190L80 195L98 198L122 198L148 193L168 185L175 172L173 170L150 181L136 184L118 185L99 183L85 179L76 175L63 166L50 152L39 131L35 114L35 84L39 67L48 49L62 34L73 27L97 21L125 21L146 26L153 31L159 39L160 60L168 60L169 41L174 21L151 15L126 11L99 11ZM798 6L779 12L754 16L755 23L773 24L775 28L776 45L775 182L770 187L755 188L755 194L818 194L818 188L803 187L798 180ZM721 6L698 13L678 16L678 23L694 23L698 28L700 82L700 139L698 182L693 187L678 188L678 194L741 194L741 188L726 187L721 180Z"/>
</g>
</svg>
