<?xml version="1.0" encoding="UTF-8"?>
<!-- Generated by Pixelmator Pro 3.8 -->
<svg width="250" height="32" viewBox="0 0 250 32" xmlns="http://www.w3.org/2000/svg">
    <g id="Group">
        <path id="Path" fill="#b31b1b" fill-rule="evenodd" stroke="none" d="M 249.978897 8.571396 L 244.079697 8.571396 L 244.079697 9.431702 L 245.800293 9.677505 L 246.169006 10.414902 L 243.465195 17.543098 L 242.113297 20.246902 L 239.163696 13.364502 L 238.180496 10.046204 L 238.794998 9.554596 L 240.3927 9.431702 L 240.3927 8.571396 L 233.141602 8.571396 L 233.141602 9.431702 L 234.4935 9.677505 L 234.985107 10.169098 L 235.845398 11.889694 L 240.638504 23.810997 L 239.901093 25.900299 L 238.672104 28.358299 L 237.565994 29.464401 L 236.951508 29.710197 L 235.722504 29.710197 L 234.4935 28.972801 L 234.247696 29.218597 L 233.633194 31.184998 L 233.756104 31.553703 L 234.739304 31.922401 L 236.214096 31.922401 L 237.811798 31.307899 L 238.794998 30.447601 L 240.638504 27.129303 L 243.956802 19.017899 L 247.643799 11.152298 L 248.749893 9.677505 L 249.856003 9.431702 Z M 156.820694 8.571396 L 156.820694 9.431702 L 157.803894 9.431702 L 158.295502 9.677505 L 158.910004 10.537796 L 164.194702 23.196503 L 165.915298 23.196503 L 168.250397 17.543098 L 171.568695 10.660706 L 172.306107 9.677505 L 173.658005 9.431702 L 173.658005 8.571396 L 167.758804 8.571396 L 167.758804 9.431702 L 169.479401 9.554596 L 169.970993 9.923294 L 169.970993 10.292007 L 167.881699 15.945396 L 165.915298 20.246902 L 164.5634 17.420197 L 161.859604 10.414902 L 161.859604 9.923294 L 162.351196 9.554596 L 164.194702 9.308807 L 164.194702 8.571396 Z M 219.130997 8.202698 L 216.4272 9.063004 L 213.969193 9.431702 L 213.969193 10.292007 L 215.566895 10.292007 L 216.304306 10.660706 L 216.550095 12.504196 L 216.304306 21.721703 L 215.812698 22.213303 L 213.969193 22.336197 L 213.969193 23.073601 L 221.834793 23.073601 L 221.834793 22.336197 L 219.991302 22.213303 L 219.376801 21.598801 L 219.376801 8.448502 Z M 154.239807 8.202698 L 153.748199 8.202698 L 153.133698 8.571396 L 150.921494 9.185898 L 149.078003 9.431702 L 149.078003 10.292007 L 150.675705 10.292007 L 151.290207 10.537796 L 151.535995 11.029404 L 151.413101 21.598801 L 150.798599 22.213303 L 149.078003 22.336197 L 149.078003 23.073601 L 156.820694 23.073601 L 156.820694 22.336197 L 154.854294 22.090401 L 154.485596 21.598801 L 154.362701 20.984299 Z M 207.947098 8.079803 L 204.751694 8.202698 L 202.662399 9.185898 L 201.310501 10.7836 L 200.941803 11.889694 L 200.941803 13.2416 L 201.556305 14.839302 L 202.662399 15.822502 L 204.874603 16.559898 L 207.824203 17.1744 L 209.053207 17.788902 L 209.790604 18.894997 L 209.667694 20.492699 L 209.298996 21.230103 L 208.684494 21.844597 L 207.5784 22.459099 L 204.137207 22.459099 L 203.399796 22.090401 L 202.539505 21.230103 L 202.047897 19.878197 L 202.047897 18.403397 L 201.187607 18.403397 L 201.187607 20.124001 L 200.818893 22.459099 L 200.941803 22.827797 L 205.243301 23.565201 L 207.332596 23.442299 L 208.930298 22.950699 L 209.790604 22.459099 L 211.019608 21.352997 L 211.757004 20.124001 L 212.125702 18.894997 L 212.125702 17.788902 L 211.5112 16.1912 L 211.019608 15.6996 L 209.053207 14.839302 L 204.874603 13.856102 L 204.137207 13.487396 L 203.276901 12.381302 L 203.276901 10.906494 L 203.645599 10.169098 L 204.382996 9.431702 L 205.120407 9.063004 L 206.841003 8.940094 L 208.684494 9.554596 L 209.667694 10.660706 L 210.036407 12.504196 L 210.773804 12.504196 L 210.896698 8.940094 Z M 199.589905 8.448502 L 198.115097 8.079803 L 196.517395 8.571396 L 195.534195 9.431702 L 193.936493 11.520996 L 193.813599 8.202698 L 191.847198 8.940094 L 188.651794 9.554596 L 188.651794 10.292007 L 190.741104 10.414902 L 191.109802 10.906494 L 191.232697 19.1408 L 190.986893 21.721703 L 190.4953 22.213303 L 188.5289 22.336197 L 188.5289 23.073601 L 197.009003 23.073601 L 196.886093 22.213303 L 194.796799 22.090401 L 194.182297 21.844597 L 193.936493 21.352997 L 193.813599 13.856102 L 194.428101 12.135498 L 195.042603 11.398102 L 195.902893 10.906494 L 197.377701 10.906494 L 197.869293 11.152298 L 198.606705 12.135498 L 199.344101 12.258408 L 199.712799 8.694305 Z M 179.557205 8.079803 L 176.730499 9.185898 L 174.518295 11.029404 L 174.026703 11.889694 L 173.289307 14.347702 L 173.289307 17.666 L 174.272507 20.369797 L 175.624405 21.967499 L 176.484695 22.582001 L 177.959503 23.196503 L 180.909103 23.565201 L 182.875504 23.196503 L 184.718994 22.459099 L 185.702194 21.844597 L 186.193802 20.738503 L 185.825104 20.492699 L 184.104507 21.475899 L 182.015198 21.967499 L 180.417496 21.844597 L 179.311401 21.475899 L 178.451096 20.984299 L 177.099197 19.509499 L 176.361801 17.788902 L 176.115997 15.6996 L 183.121307 15.576698 L 185.702194 15.330902 L 186.5625 15.085098 L 186.685394 13.610298 L 186.193802 11.398102 L 185.702194 10.414902 L 184.718994 9.308807 L 183.490005 8.571396 L 182.015198 8.079803 Z M 176.976303 10.660706 L 177.959503 9.677505 L 179.311401 9.063004 L 180.909103 9.063004 L 181.892303 9.431702 L 182.875504 10.292007 L 183.490005 11.398102 L 183.735794 12.381302 L 183.6129 14.470596 L 176.853394 14.470596 L 176.115997 14.2248 L 176.361801 12.135498 Z M 143.916199 9.677505 L 142.318497 8.571396 L 140.475006 8.079803 L 137.894104 8.448502 L 134.821594 10.906494 L 134.6987 8.202698 L 133.100998 8.8172 L 129.536896 9.554596 L 129.536896 10.292007 L 131.7491 10.537796 L 131.994904 11.029404 L 132.117798 12.995804 L 131.994904 21.352997 L 131.380402 22.213303 L 129.536896 22.336197 L 129.536896 23.073601 L 137.279602 23.073601 L 137.279602 22.336197 L 135.436096 22.213303 L 134.944504 21.844597 L 134.821594 21.475899 L 134.6987 13.118698 L 135.067398 11.889694 L 136.050598 10.906494 L 137.156693 10.292007 L 138.262802 10.046204 L 139.737595 10.169098 L 140.5979 10.537796 L 141.703995 11.520996 L 142.195602 12.627106 L 142.318497 19.755302 L 142.072693 23.073601 L 147.357407 23.073601 L 147.357407 22.336197 L 145.636795 22.213303 L 145.022293 21.598801 L 144.899399 12.135498 L 144.653595 10.906494 Z M 74.600601 8.079803 L 72.019699 9.063004 L 70.299103 10.292007 L 69.561699 11.152298 L 69.070099 12.012604 L 68.455597 14.2248 L 68.455597 17.788902 L 68.824303 19.263702 L 69.438797 20.492699 L 71.405197 22.459099 L 73.986099 23.442299 L 77.058601 23.442299 L 78.779198 22.950699 L 80.622704 21.967499 L 81.237198 20.861397 L 81.114304 20.492699 L 78.9021 21.598801 L 77.181503 21.967499 L 75.583801 21.844597 L 73.740303 21.107201 L 72.634201 20.124001 L 72.019699 19.263702 L 71.282303 16.6828 L 71.405197 15.576698 L 78.287598 15.576698 L 80.745598 15.330902 L 81.605904 15.085098 L 81.728798 14.839302 L 81.728798 13.118698 L 81.483002 11.889694 L 80.8685 10.537796 L 79.639503 9.185898 L 77.673103 8.202698 Z M 72.142601 10.537796 L 73.371597 9.431702 L 74.477699 9.063004 L 75.952499 9.063004 L 77.181503 9.554596 L 78.041801 10.414902 L 78.656303 11.643906 L 78.9021 13.118698 L 78.779198 14.470596 L 72.019699 14.470596 L 71.282303 14.2248 L 71.405197 12.504196 Z M 64.277 9.677505 L 62.925098 8.694305 L 60.8358 8.079803 L 59.1152 8.202698 L 57.8862 8.571396 L 55.1824 10.906494 L 54.6908 8.325607 L 53.4618 8.8172 L 49.897701 9.554596 L 49.897701 10.292007 L 51.864101 10.414902 L 52.2328 10.7836 L 52.4786 13.364502 L 52.2328 21.721703 L 51.741199 22.213303 L 49.897701 22.336197 L 49.897701 23.073601 L 57.517502 23.073601 L 57.517502 22.336197 L 55.796902 22.213303 L 55.1824 21.598801 L 55.059502 12.995804 L 55.4282 11.889694 L 56.4114 10.906494 L 57.1488 10.414902 L 58.500702 10.046204 L 60.0984 10.169098 L 60.958698 10.537796 L 62.0648 11.520996 L 62.433498 12.258408 L 62.679298 14.2248 L 62.679298 19.263702 L 62.433498 23.073601 L 67.718201 23.073601 L 67.718201 22.336197 L 65.997597 22.213303 L 65.383102 21.598801 L 65.260201 12.258408 L 64.891502 10.660706 Z M 48.422901 8.325607 L 47.070999 8.079803 L 45.473301 8.571396 L 44.490101 9.431702 L 42.892399 11.520996 L 42.769501 8.202698 L 40.803101 8.940094 L 37.6077 9.554596 L 37.6077 10.292007 L 39.696999 10.414902 L 40.065701 10.7836 L 40.188599 20.246902 L 40.065701 21.475899 L 39.819901 21.967499 L 39.451199 22.213303 L 37.484798 22.336197 L 37.484798 23.073601 L 45.964901 23.073601 L 45.841999 22.213303 L 43.383999 21.967499 L 42.892399 21.352997 L 42.769501 13.7332 L 43.629799 11.7668 L 44.858799 10.906494 L 46.333599 10.906494 L 46.825199 11.152298 L 47.685501 12.258408 L 48.299999 12.258408 L 48.545799 9.677505 Z M 29.1276 8.079803 L 28.0215 8.325607 L 26.177999 9.185898 L 25.194799 9.923294 L 24.088699 11.152298 L 23.351299 12.504196 L 22.859699 13.978996 L 22.736799 17.1744 L 22.982599 18.403397 L 23.842899 20.492699 L 24.457399 21.352997 L 25.809299 22.582001 L 28.2673 23.565201 L 31.094 23.565201 L 34.1665 22.459099 L 36.3787 20.492699 L 37.3619 18.772102 L 37.8535 17.051498 L 37.8535 13.7332 L 37.484798 12.381302 L 36.747398 11.029404 L 34.9039 9.185898 L 33.060398 8.325607 L 31.9543 8.079803 Z M 29.1276 9.063004 L 31.3398 9.185898 L 33.1833 10.414902 L 34.289398 12.258408 L 35.026798 15.208 L 35.026798 18.034698 L 34.4123 20.246902 L 32.9375 21.967499 L 31.4627 22.582001 L 29.6192 22.459099 L 28.0215 21.598801 L 27.0383 20.492699 L 26.5467 19.509499 L 25.809299 16.928596 L 25.686399 13.487396 L 26.055099 11.7668 L 26.6696 10.660706 L 27.5299 9.8004 Z M 227.611099 3.286697 L 225.030197 4.392807 L 225.030197 9.063004 L 224.046997 9.677505 L 222.572205 10.169098 L 222.572205 10.7836 L 225.030197 10.906494 L 224.907303 20.861397 L 225.276001 21.967499 L 225.890503 22.704903 L 226.750793 23.196503 L 229.331696 23.319397 L 230.314896 23.073601 L 231.666794 21.967499 L 231.5439 21.230103 L 230.314896 21.598801 L 228.840103 21.475899 L 227.611099 20.492699 L 227.365295 19.263702 L 227.611099 10.660706 L 231.666794 10.660706 L 231.912598 9.185898 L 227.488205 9.185898 L 227.979797 3.655396 Z M 217.287506 1.197403 L 216.181396 2.057693 L 216.058502 3.532501 L 216.304306 4.024094 L 216.918793 4.515701 L 218.147797 4.638596 L 219.130997 4.024094 L 219.499695 2.795105 L 219.253906 2.057693 L 218.516495 1.320297 Z M 152.396301 1.197403 L 151.535995 1.688995 L 151.044403 2.917999 L 151.167297 3.532501 L 151.781799 4.392807 L 152.396301 4.638596 L 153.256607 4.638596 L 154.239807 4.024094 L 154.485596 3.532501 L 154.485596 2.303497 L 153.625305 1.320297 Z M 106.677498 1.074493 L 106.8004 2.057693 L 109.012604 2.180603 L 109.504204 2.672195 L 109.627098 3.163803 L 109.872902 18.280502 L 110.2416 19.878197 L 111.347702 21.475899 L 113.1912 22.704903 L 116.878197 23.565201 L 120.688103 23.442299 L 123.268997 22.704903 L 124.743797 21.844597 L 126.341499 20.001099 L 126.833099 19.017899 L 127.078903 17.911797 L 127.324699 14.839302 L 127.324699 4.392807 L 127.570503 2.672195 L 128.430801 2.057693 L 130.397202 1.934799 L 130.397202 1.074493 L 122.900299 1.074493 L 122.900299 2.057693 L 124.866699 2.057693 L 125.726997 2.672195 L 125.726997 17.297302 L 124.989601 19.263702 L 123.760597 20.492699 L 121.671303 21.352997 L 119.950699 21.598801 L 117.246902 21.475899 L 115.526299 20.984299 L 114.420197 20.369797 L 113.6828 19.632401 L 112.945396 18.1576 L 112.6996 16.068298 L 112.822502 3.163803 L 112.945396 2.672195 L 113.436996 2.180603 L 115.772102 1.934799 L 115.772102 1.074493 Z M 7.4972 1.320297 L 5.1621 2.426407 L 3.8102 3.409607 L 2.0896 5.253098 L 0.8606 7.342407 L 0.369 8.694305 L 0.0003 10.660706 L 0.0003 13.487396 L 0.369 15.453796 L 1.3522 17.788902 L 2.5812 19.509499 L 4.7934 21.475899 L 6.8827 22.582001 L 8.972 23.196503 L 11.1842 23.565201 L 14.1338 23.565201 L 17.329201 22.950699 L 19.787201 21.967499 L 20.647499 20.369797 L 20.401699 20.124001 L 17.575001 21.475899 L 15.8544 21.844597 L 13.6422 21.967499 L 11.3071 21.721703 L 9.5865 21.230103 L 8.4804 20.738503 L 6.8827 19.632401 L 5.285 17.911797 L 3.9331 15.330902 L 3.4415 13.2416 L 3.4415 9.554596 L 3.9331 7.465302 L 5.0392 5.253098 L 6.7598 3.409607 L 8.1117 2.549301 L 11.0613 1.811905 L 14.5025 1.811905 L 17.083401 2.426407 L 17.943701 3.040894 L 18.681101 4.024094 L 18.804001 6.604996 L 19.787201 6.604996 L 19.910101 4.269897 L 20.524599 1.811905 L 17.697901 1.074493 L 14.6254 0.582901 L 11.3071 0.582901 Z M 97.214203 -0.031601 L 94.879097 0.705795 L 91.806602 1.197403 L 91.929497 2.057693 L 94.141701 2.180603 L 94.387497 2.672195 L 94.510399 4.761505 L 94.387497 21.598801 L 93.773003 22.213303 L 91.929497 22.336197 L 91.929497 23.073601 L 99.672203 23.073601 L 99.672203 22.336197 L 97.828697 22.213303 L 97.214203 21.352997 Z M 87.7509 -0.031601 L 84.924202 0.828705 L 82.466202 1.197403 L 82.466202 2.057693 L 84.432602 2.057693 L 84.924202 2.672195 L 85.169998 9.308807 L 85.169998 16.314102 L 84.924202 21.598801 L 84.3097 22.213303 L 82.466202 22.336197 L 82.466202 23.073601 L 90.2089 23.073601 L 90.2089 22.336197 L 88.365402 22.213303 L 87.7509 21.352997 Z"/>
    </g>
</svg>
