<?xml version="1.0" encoding="UTF-8"?>
<!-- Generated by Pixelmator Pro 3.8 -->
<svg width="250" height="56" viewBox="0 0 250 56" xmlns="http://www.w3.org/2000/svg">
    <path id="Path" fill="#000000" fill-rule="evenodd" stroke="none" d="M 196.141006 1.985992 L 195.408005 0.764999 L 162.188995 14.809998 L 0 14.809998 L 0 16.153 L 162.554993 16.153 Z M 200.660004 14.688004 L 200.660004 16.153 L 248.656998 16.031006 L 248.656998 14.688004 Z M 211.162994 25.924004 L 208.720001 27.266998 L 206.522003 29.343002 L 205.177994 31.419998 L 204.201004 33.983994 L 203.468002 38.869995 L 203.591003 42.656006 L 204.201004 45.953003 L 205.423004 48.884003 L 206.766006 50.837997 L 208.598007 52.548004 L 210.917999 53.891998 L 213.972 54.869003 L 216.535995 55.235001 L 220.445007 55.235001 L 223.498001 54.746002 L 226.550995 53.768997 L 226.794998 53.403 L 227.406006 46.074997 L 225.940002 46.074997 L 225.207993 48.884003 L 224.108002 50.837997 L 223.009003 52.059998 L 221.054993 53.281006 L 219.100998 53.768997 L 216.535995 53.768997 L 214.337997 53.158997 L 212.505997 52.059998 L 210.796005 49.983002 L 209.453003 46.686005 L 208.841995 42.778 L 208.841995 37.281998 L 209.330994 33.862 L 210.186005 31.175003 L 211.772995 28.611 L 213.360992 27.266998 L 214.582001 26.656998 L 216.535995 26.167999 L 218.490005 26.167999 L 221.054993 26.778999 L 222.520996 27.634003 L 223.863998 28.976997 L 224.841003 30.565002 L 225.451996 32.641006 L 226.673004 32.763 L 226.794998 26.045998 L 224.108002 25.191002 L 220.688995 24.701996 L 215.559006 24.824997 Z M 84.758003 26.045998 L 81.827003 25.191002 L 79.384003 24.824997 L 74.744003 24.946991 L 72.789001 25.434998 L 70.712997 26.412003 L 69.491997 27.389 L 68.392998 28.855003 L 67.660004 31.052994 L 67.538002 33.373993 L 68.149002 35.938004 L 68.880997 37.160004 L 69.980003 38.380997 L 71.934998 39.723999 L 77.43 42.044998 L 78.774002 43.022003 L 81.460999 46.197006 L 82.070999 47.906998 L 82.070999 49.128006 L 81.827003 50.350006 L 81.216003 51.692993 L 79.628998 53.158997 L 76.942001 53.891998 L 74.865997 53.768997 L 73.643997 53.403 L 71.811996 52.304001 L 69.736 49.860992 L 68.759003 47.785004 L 68.271004 45.953003 L 67.049004 45.953003 L 67.781998 53.768997 L 70.591003 54.746002 L 72.544998 55.113007 L 78.041 55.113007 L 79.750999 54.746002 L 82.070999 53.768997 L 83.292999 52.914993 L 85.125 50.716003 L 85.978996 48.395996 L 86.101997 45.098007 L 85.612999 43.143997 L 84.758003 41.556 L 83.169998 39.968994 L 81.583 38.992004 L 75.353996 36.427002 L 73.643997 35.449997 L 72.544998 34.350998 L 72.056999 33.373993 L 71.690002 31.785995 L 71.811996 29.709999 L 72.544998 28.122002 L 73.522003 27.144997 L 74.621002 26.533997 L 77.307999 26.167999 L 79.507004 26.656998 L 80.849998 27.511002 L 81.948997 28.733002 L 82.804001 30.32 L 83.415001 32.763 L 84.758003 32.884995 Z M 175.988998 26.045998 L 175.011993 26.778999 L 173.912994 28.122002 L 173.057999 30.565002 L 173.057999 33.007004 L 174.035004 36.427002 L 171.593002 37.770004 L 170.248993 39.113998 L 169.149994 40.824005 L 168.417007 43.388 L 168.539001 46.686005 L 168.906006 48.151001 L 169.882996 50.227997 L 170.860001 51.570999 L 173.057999 53.524994 L 174.889999 54.501999 L 176.843994 55.113007 L 183.195007 55.235001 L 185.882004 54.501999 L 187.957993 53.524994 L 191.255005 54.869003 L 193.087006 55.235001 L 194.796997 55.235001 L 195.164001 54.257996 L 192.964996 52.914993 L 190.889008 51.205002 L 193.332001 47.541 L 194.431 44.242996 L 194.675003 40.457001 L 194.431 38.014999 L 193.820007 35.572006 L 186.858994 35.572006 L 186.858994 36.792999 L 188.934998 37.037994 L 191.011002 38.136993 L 191.865997 39.113998 L 192.720993 41.190002 L 192.843002 43.388 L 192.354996 45.953003 L 191.378006 48.151001 L 189.912003 50.106003 L 185.149002 45.098007 L 181.729004 40.701996 L 178.188004 35.205994 L 176.843994 32.151993 L 176.600006 29.587997 L 176.843994 28.611 L 177.576996 27.389 L 178.554001 26.533997 L 179.774994 26.045998 L 181.973999 26.045998 L 183.438995 26.533997 L 184.783005 27.634003 L 186.126007 29.832001 L 186.737 32.397003 L 188.080002 32.518997 L 188.080002 26.045998 L 185.759995 25.191002 L 183.806 24.824997 L 179.653 24.824997 L 177.942993 25.191002 Z M 22.837999 28.244003 L 21.250999 27.144997 L 19.174 26.167999 L 15.388 25.313004 L 12.702 25.069 L 0 25.191002 L 0 26.533997 L 3.786 26.656998 L 3.786 53.281006 L 0 53.403 L 0 54.746002 L 12.579 54.869003 L 16.854 54.380005 L 20.639999 53.158997 L 22.716 51.815002 L 24.304001 50.227997 L 26.014 47.296997 L 26.868999 44.488007 L 27.235001 41.923004 L 27.235001 38.014999 L 26.868999 35.449997 L 26.014 32.641006 L 24.548 30.075996 Z M 88.543999 25.069 L 88.543999 26.533997 L 91.474998 26.656998 L 91.474998 53.281006 L 88.543999 53.403 L 88.543999 54.869003 L 98.558998 54.869003 L 98.558998 53.403 L 95.505997 53.281006 L 95.505997 41.067993 L 95.872002 38.992004 L 96.848999 37.037994 L 98.436996 35.572006 L 100.513 34.839005 L 101.734001 34.839005 L 102.833 35.205994 L 103.809998 36.182999 L 104.420998 37.893005 L 104.420998 53.403 L 101.367996 53.524994 L 101.367996 54.869003 L 111.383003 54.869003 L 111.383003 53.403 L 108.450996 53.281006 L 108.450996 37.647995 L 108.084999 36.304993 L 107.351997 34.960999 L 105.764999 33.617996 L 104.542999 33.128998 L 103.199997 32.884995 L 100.878998 33.007004 L 97.947998 34.229004 L 95.627998 36.671005 L 95.505997 25.069 Z M 35.173 25.191002 L 35.173 26.533997 L 38.959 26.656998 L 38.959 53.281006 L 35.173 53.403 L 35.173 54.746002 L 56.424 54.746002 L 57.157001 45.953003 L 55.813 45.953003 L 55.081001 49.373001 L 54.348 50.716003 L 53.004002 51.936996 L 51.783001 52.548004 L 49.34 53.158997 L 46.897999 53.403 L 43.355999 53.281006 L 43.355999 39.968994 L 45.676998 39.847 L 48.852001 40.457001 L 50.318001 41.679001 L 50.806 43.143997 L 50.806 44.242996 L 52.271999 44.365005 L 52.271999 33.740005 L 50.928001 33.740005 L 50.439999 36.304993 L 49.463001 37.404007 L 46.653999 38.259003 L 43.355999 38.259003 L 43.355999 26.656998 L 50.318001 26.533997 L 51.904999 26.901001 L 53.004002 27.511002 L 53.737 28.365997 L 54.348 29.587997 L 55.202999 32.763 L 56.424 32.763 L 56.424 25.191002 Z M 8.305 26.533997 L 13.312 26.533997 L 17.341999 27.511002 L 18.93 28.488998 L 20.028999 29.587997 L 20.884001 30.931 L 21.495001 32.518997 L 22.106001 35.328003 L 22.35 38.746994 L 22.228001 43.388 L 21.617001 46.929993 L 21.128 48.395996 L 19.907 50.472 L 18.075001 52.059998 L 16.243 52.792007 L 13.068 53.403 L 8.183 53.281006 Z M 115.535004 34.839005 L 114.435997 36.427002 L 114.191002 37.526001 L 114.314003 38.380997 L 114.68 39.113998 L 115.413002 39.723999 L 117.245003 39.968994 L 118.587997 39.235992 L 118.709999 36.914993 L 119.077003 35.938004 L 120.054001 34.839005 L 120.787003 34.473007 L 122.496002 34.229004 L 124.449997 34.716995 L 125.427002 35.572006 L 126.038002 36.792999 L 126.160004 41.190002 L 117.733002 43.998993 L 115.778999 45.098007 L 114.68 46.197006 L 113.824997 48.274002 L 113.824997 50.350006 L 114.314003 52.059998 L 114.924004 53.037003 L 116.267998 54.257996 L 117.977997 54.990997 L 119.077003 55.235001 L 122.251999 55.235001 L 124.939003 54.257996 L 126.038002 53.281006 L 126.892998 51.936996 L 127.870003 53.768997 L 129.091003 54.623993 L 130.313004 54.990997 L 133 54.869003 L 133 53.768997 L 131.412003 52.548004 L 130.434998 50.227997 L 130.190994 48.151001 L 130.190994 37.770004 L 129.945999 36.671005 L 129.212997 35.328003 L 128.358994 34.473007 L 127.137001 33.740005 L 123.961998 33.007004 L 120.787003 33.007004 L 118.587997 33.373993 L 117.123001 33.862 Z M 236.199005 33.496002 L 234.244995 34.350998 L 232.412994 35.938004 L 231.681 37.037994 L 230.826004 39.113998 L 230.337006 41.434006 L 230.214996 45.220001 L 230.459 47.541 L 231.192001 50.227997 L 232.046997 51.815002 L 233.511993 53.403 L 234.612 54.136002 L 236.444 54.869003 L 238.397995 55.235001 L 241.817001 55.235001 L 244.626007 54.623993 L 246.457993 53.647003 L 247.802002 52.425995 L 248.412003 51.570999 L 249.511002 49.005997 L 250 46.197006 L 250 42.167007 L 249.145004 38.259003 L 247.802002 35.938004 L 246.457993 34.716995 L 244.626007 33.740005 L 241.938995 33.128998 L 240.106995 33.007004 Z M 132.876999 33.496002 L 132.876999 34.839005 L 135.686005 34.960999 L 140.449005 54.869003 L 143.503006 54.746002 L 147.776993 39.602005 L 152.052002 54.623993 L 155.227005 54.746002 L 159.746002 34.960999 L 162.677002 34.839005 L 162.677002 33.496002 L 154.738998 33.496002 L 154.738998 34.839005 L 158.158005 34.839005 L 158.279999 35.084 L 154.617004 50.227997 L 150.341995 35.449997 L 147.289001 35.572006 L 143.136002 50.227997 L 142.891998 49.983002 L 142.281006 46.442001 L 139.472 34.960999 L 142.770004 34.839005 L 142.770004 33.496002 Z M 239.619003 34.350998 L 241.085007 34.350998 L 241.938995 34.595001 L 243.039001 35.205994 L 243.770996 35.938004 L 245.115005 38.746994 L 245.602997 41.556 L 245.602997 46.686005 L 244.748001 50.593994 L 244.016006 51.936996 L 242.794006 53.158997 L 240.473999 53.891998 L 238.153 53.524994 L 237.298004 53.037003 L 236.076996 51.692993 L 235.100006 49.251007 L 234.612 45.830994 L 234.733994 40.945999 L 235.466995 37.770004 L 236.320999 36.182999 L 237.298004 35.205994 L 238.397995 34.595001 Z M 174.401993 37.281998 L 176.477997 40.701996 L 180.020004 45.709 L 183.195007 49.373001 L 186.615005 52.669998 L 185.270996 53.281006 L 183.072998 53.647003 L 179.774994 53.403 L 177.087997 52.304001 L 174.401993 49.983002 L 172.936005 47.419006 L 172.203003 44.242996 L 172.203003 41.923004 L 172.447006 40.701996 L 173.179993 38.869995 Z M 126.160004 42.778 L 126.281998 49.251007 L 126.038002 50.593994 L 125.427002 51.936996 L 124.572998 52.792007 L 122.862999 53.403 L 121.518997 53.403 L 120.176003 52.914993 L 119.077003 51.815002 L 118.466003 49.983002 L 118.466003 48.274002 L 119.077003 46.319 L 120.787003 44.731995 Z"/>
</svg>
