<?xml version="1.0" encoding="UTF-8"?>
<svg xmlns="http://www.w3.org/2000/svg" viewBox="0 0 250 250" role="img" aria-label="D. E. Shaw &amp; Co. logo">
  <title>D. E. Shaw &amp; Co.</title>
  <path fill="#000000" fill-rule="evenodd" d="M196.141 98.986L195.408 97.765L162.189 111.81L0 111.81L0 113.153L162.555 113.153ZM200.66 111.688L200.66 113.153L248.657 113.031L248.657 111.688ZM211.163 122.924L208.72 124.267L206.522 126.343L205.178 128.42L204.201 130.984L203.468 135.87L203.591 139.656L204.201 142.953L205.423 145.884L206.766 147.838L208.598 149.548L210.918 150.892L213.972 151.869L216.536 152.235L220.445 152.235L223.498 151.746L226.551 150.769L226.795 150.403L227.406 143.075L225.94 143.075L225.208 145.884L224.108 147.838L223.009 149.06L221.055 150.281L219.101 150.769L216.536 150.769L214.338 150.159L212.506 149.06L210.796 146.983L209.453 143.686L208.842 139.778L208.842 134.282L209.331 130.862L210.186 128.175L211.773 125.611L213.361 124.267L214.582 123.657L216.536 123.168L218.49 123.168L221.055 123.779L222.521 124.634L223.864 125.977L224.841 127.565L225.452 129.641L226.673 129.763L226.795 123.046L224.108 122.191L220.689 121.702L215.559 121.825ZM84.758 123.046L81.827 122.191L79.384 121.825L74.744 121.947L72.789 122.435L70.713 123.412L69.492 124.389L68.393 125.855L67.66 128.053L67.538 130.374L68.149 132.938L68.881 134.16L69.98 135.381L71.935 136.724L77.43 139.045L78.774 140.022L81.461 143.197L82.071 144.907L82.071 146.128L81.827 147.35L81.216 148.693L79.629 150.159L76.942 150.892L74.866 150.769L73.644 150.403L71.812 149.304L69.736 146.861L68.759 144.785L68.271 142.953L67.049 142.953L67.782 150.769L70.591 151.746L72.545 152.113L78.041 152.113L79.751 151.746L82.071 150.769L83.293 149.915L85.125 147.716L85.979 145.396L86.102 142.098L85.613 140.144L84.758 138.556L83.17 136.969L81.583 135.992L75.354 133.427L73.644 132.45L72.545 131.351L72.057 130.374L71.69 128.786L71.812 126.71L72.545 125.122L73.522 124.145L74.621 123.534L77.308 123.168L79.507 123.657L80.85 124.511L81.949 125.733L82.804 127.32L83.415 129.763L84.758 129.885ZM175.989 123.046L175.012 123.779L173.913 125.122L173.058 127.565L173.058 130.007L174.035 133.427L171.593 134.77L170.249 136.114L169.15 137.824L168.417 140.388L168.539 143.686L168.906 145.151L169.883 147.228L170.86 148.571L173.058 150.525L174.89 151.502L176.844 152.113L183.195 152.235L185.882 151.502L187.958 150.525L191.255 151.869L193.087 152.235L194.797 152.235L195.164 151.258L192.965 149.915L190.889 148.205L193.332 144.541L194.431 141.243L194.675 137.457L194.431 135.015L193.82 132.572L186.859 132.572L186.859 133.793L188.935 134.038L191.011 135.137L191.866 136.114L192.721 138.19L192.843 140.388L192.355 142.953L191.378 145.151L189.912 147.106L185.149 142.098L181.729 137.702L178.188 132.206L176.844 129.152L176.6 126.588L176.844 125.611L177.577 124.389L178.554 123.534L179.775 123.046L181.974 123.046L183.439 123.534L184.783 124.634L186.126 126.832L186.737 129.397L188.08 129.519L188.08 123.046L185.76 122.191L183.806 121.825L179.653 121.825L177.943 122.191ZM22.838 125.244L21.251 124.145L19.174 123.168L15.388 122.313L12.702 122.069L0 122.191L0 123.534L3.786 123.657L3.786 150.281L0 150.403L0 151.746L12.579 151.869L16.854 151.38L20.64 150.159L22.716 148.815L24.304 147.228L26.014 144.297L26.869 141.488L27.235 138.923L27.235 135.015L26.869 132.45L26.014 129.641L24.548 127.076ZM88.544 122.069L88.544 123.534L91.475 123.657L91.475 150.281L88.544 150.403L88.544 151.869L98.559 151.869L98.559 150.403L95.506 150.281L95.506 138.068L95.872 135.992L96.849 134.038L98.437 132.572L100.513 131.839L101.734 131.839L102.833 132.206L103.81 133.183L104.421 134.893L104.421 150.403L101.368 150.525L101.368 151.869L111.383 151.869L111.383 150.403L108.451 150.281L108.451 134.648L108.085 133.305L107.352 131.961L105.765 130.618L104.543 130.129L103.2 129.885L100.879 130.007L97.948 131.229L95.628 133.671L95.506 122.069ZM35.173 122.191L35.173 123.534L38.959 123.657L38.959 150.281L35.173 150.403L35.173 151.746L56.424 151.746L57.157 142.953L55.813 142.953L55.081 146.373L54.348 147.716L53.004 148.937L51.783 149.548L49.34 150.159L46.898 150.403L43.356 150.281L43.356 136.969L45.677 136.847L48.852 137.457L50.318 138.679L50.806 140.144L50.806 141.243L52.272 141.365L52.272 130.74L50.928 130.74L50.44 133.305L49.463 134.404L46.654 135.259L43.356 135.259L43.356 123.657L50.318 123.534L51.905 123.901L53.004 124.511L53.737 125.366L54.348 126.588L55.203 129.763L56.424 129.763L56.424 122.191ZM8.305 123.534L13.312 123.534L17.342 124.511L18.93 125.489L20.029 126.588L20.884 127.931L21.495 129.519L22.106 132.328L22.35 135.747L22.228 140.388L21.617 143.93L21.128 145.396L19.907 147.472L18.075 149.06L16.243 149.792L13.068 150.403L8.183 150.281ZM115.535 131.839L114.436 133.427L114.191 134.526L114.314 135.381L114.68 136.114L115.413 136.724L117.245 136.969L118.588 136.236L118.71 133.915L119.077 132.938L120.054 131.839L120.787 131.473L122.496 131.229L124.45 131.717L125.427 132.572L126.038 133.793L126.16 138.19L117.733 140.999L115.779 142.098L114.68 143.197L113.825 145.274L113.825 147.35L114.314 149.06L114.924 150.037L116.268 151.258L117.978 151.991L119.077 152.235L122.252 152.235L124.939 151.258L126.038 150.281L126.893 148.937L127.87 150.769L129.091 151.624L130.313 151.991L133 151.869L133 150.769L131.412 149.548L130.435 147.228L130.191 145.151L130.191 134.77L129.946 133.671L129.213 132.328L128.359 131.473L127.137 130.74L123.962 130.007L120.787 130.007L118.588 130.374L117.123 130.862ZM236.199 130.496L234.245 131.351L232.413 132.938L231.681 134.038L230.826 136.114L230.337 138.434L230.215 142.22L230.459 144.541L231.192 147.228L232.047 148.815L233.512 150.403L234.612 151.136L236.444 151.869L238.398 152.235L241.817 152.235L244.626 151.624L246.458 150.647L247.802 149.426L248.412 148.571L249.511 146.006L250 143.197L250 139.167L249.145 135.259L247.802 132.938L246.458 131.717L244.626 130.74L241.939 130.129L240.107 130.007ZM132.877 130.496L132.877 131.839L135.686 131.961L140.449 151.869L143.503 151.746L147.777 136.602L152.052 151.624L155.227 151.746L159.746 131.961L162.677 131.839L162.677 130.496L154.739 130.496L154.739 131.839L158.158 131.839L158.28 132.084L154.617 147.228L150.342 132.45L147.289 132.572L143.136 147.228L142.892 146.983L142.281 143.442L139.472 131.961L142.77 131.839L142.77 130.496ZM239.619 131.351L241.085 131.351L241.939 131.595L243.039 132.206L243.771 132.938L245.115 135.747L245.603 138.556L245.603 143.686L244.748 147.594L244.016 148.937L242.794 150.159L240.474 150.892L238.153 150.525L237.298 150.037L236.077 148.693L235.1 146.251L234.612 142.831L234.734 137.946L235.467 134.77L236.321 133.183L237.298 132.206L238.398 131.595ZM174.402 134.282L176.478 137.702L180.02 142.709L183.195 146.373L186.615 149.67L185.271 150.281L183.073 150.647L179.775 150.403L177.088 149.304L174.402 146.983L172.936 144.419L172.203 141.243L172.203 138.923L172.447 137.702L173.18 135.87ZM126.16 139.778L126.282 146.251L126.038 147.594L125.427 148.937L124.573 149.792L122.863 150.403L121.519 150.403L120.176 149.915L119.077 148.815L118.466 146.983L118.466 145.274L119.077 143.319L120.787 141.732Z"/>
</svg>
