<?xml version="1.0" encoding="UTF-8"?>
<!-- Generated by Pixelmator Pro 3.8 -->
<svg width="250" height="48" viewBox="0 0 250 48" xmlns="http://www.w3.org/2000/svg">
    <path id="Path" fill="#0018a8" fill-rule="evenodd" stroke="none" d="M 203.550003 0.774994 L 203.550003 47.225006 L 250 47.350998 L 250 0.649002 Z M 209.970001 7.195007 L 243.580002 7.069 L 243.705994 40.679001 L 210.095993 40.804993 Z M 239.677994 10.971008 L 230.865997 11.222992 L 214.123993 35.895996 L 222.432007 35.895996 Z M 0.126 28.216995 L 0 46.847 L 9.189 46.973007 L 10.952 46.470001 L 12.21 45.714996 L 13.218 44.832993 L 14.35 43.322998 L 15.232 41.434998 L 15.735 39.169006 L 15.735 36.022003 L 15.483 34.511002 L 13.973 31.112 L 12.336 29.475998 L 9.945 28.343002 Z M 86.102997 28.216995 L 85.976997 46.847 L 89.626999 46.847 L 89.626999 38.035995 L 90.130997 37.154999 L 90.760002 36.651001 L 92.018997 36.147995 L 93.152 36.147995 L 93.906998 36.399002 L 94.537003 37.029007 L 94.914001 37.910004 L 94.914001 46.847 L 98.313004 46.973007 L 98.439003 36.651001 L 97.935997 35.014999 L 96.551003 33.755997 L 94.914001 33.126007 L 92.018997 33.251999 L 90.760002 33.755997 L 89.752998 34.636993 L 89.501999 28.216995 Z M 123.237999 28.216995 L 123.237999 46.973007 L 134.440994 46.973007 L 136.328995 46.091995 L 138.091995 43.951996 L 138.595001 41.938004 L 138.468994 40.552994 L 137.966003 39.294998 L 136.832993 38.035995 L 135.574005 37.279999 L 137.085007 35.895996 L 137.839996 33.882004 L 137.714005 31.992996 L 136.832993 30.231003 L 135.195999 28.720993 L 133.686005 28.216995 Z M 171.701996 28.216995 L 171.701996 46.973007 L 175.227005 46.973007 L 175.227005 42.945007 L 176.737 41.309006 L 177.240997 41.559998 L 180.136002 46.973007 L 184.164001 46.973007 L 179.380997 38.664993 L 183.660995 33.378006 L 179.507004 33.378006 L 175.352005 38.035995 L 175.227005 28.216995 Z M 52.743999 29.475998 L 49.471001 31.363998 L 49.345001 33.126007 L 49.094002 33.378006 L 47.583 33.378006 L 47.583 35.770004 L 49.345001 35.895996 L 49.471001 45.337006 L 50.478001 46.722 L 51.108002 47.098999 L 52.367001 47.350998 L 54.883999 46.973007 L 54.883999 43.951996 L 53.625 43.951996 L 52.869999 43.197006 L 52.869999 35.895996 L 54.883999 35.770004 L 54.883999 33.378006 L 52.869999 33.251999 Z M 4.028 31.490005 L 8.812 31.615997 L 10.448 32.875 L 11.203 34.259003 L 11.707 35.895996 L 11.707 39.546005 L 10.826 41.938004 L 9.189 43.449005 L 8.308 43.699997 L 4.028 43.699997 L 3.776 43.449005 L 3.776 31.867996 Z M 127.014 31.615997 L 132.804993 31.615997 L 133.938004 32.748993 L 133.938004 34.511002 L 133.182007 35.266006 L 132.300995 35.643997 L 127.139999 35.643997 Z M 21.903 33.503998 L 19.636999 35.014999 L 18.253 37.279999 L 17.875 38.664993 L 17.875 41.309006 L 18.504999 43.449005 L 19.386 44.832993 L 20.645 46.091995 L 22.281 46.973007 L 24.421 47.350998 L 27.568001 46.722 L 28.701 46.091995 L 30.086 44.707001 L 30.715 43.449005 L 30.715 42.692993 L 27.441999 42.692993 L 26.561001 43.699997 L 25.806 44.078003 L 24.295 44.330002 L 23.288 44.078003 L 22.155001 43.070999 L 21.652 42.190002 L 21.525999 41.182999 L 30.966999 41.057007 L 30.966999 39.169006 L 30.211 36.399002 L 29.582001 35.266006 L 28.448999 34.132996 L 27.316 33.503998 L 25.931999 33.126007 L 23.162001 33.126007 Z M 59.667999 33.503998 L 58.535 34.132996 L 57.528 35.139999 L 57.023998 36.147995 L 56.897999 37.783997 L 57.276001 38.791 L 58.157001 39.671997 L 59.290001 40.302002 L 63.948002 41.559998 L 64.955002 42.315994 L 65.206001 43.322998 L 64.955002 43.826004 L 64.073997 44.455994 L 62.437 44.582001 L 61.051998 44.078003 L 60.297001 43.322998 L 60.044998 42.442001 L 56.646999 42.442001 L 56.897999 44.203995 L 58.157001 45.839996 L 60.297001 46.973007 L 61.43 47.225006 L 64.198997 47.225006 L 65.961998 46.722 L 67.221001 45.966003 L 68.101997 45.085007 L 68.478996 44.330002 L 68.731003 42.063995 L 68.227997 40.804993 L 67.723999 40.175995 L 66.212997 39.294998 L 61.43 38.287994 L 60.549 37.658005 L 60.423 37.029007 L 61.051998 36.147995 L 62.058998 35.770004 L 62.941002 35.770004 L 64.324997 36.399002 L 65.081001 37.531998 L 68.227997 37.531998 L 68.101997 36.147995 L 66.843002 34.384995 L 65.332001 33.503998 L 63.948002 33.126007 L 60.925999 33.126007 Z M 76.157997 33.126007 L 74.143997 33.882004 L 72.129997 35.643997 L 70.997002 37.910004 L 70.745003 40.804993 L 70.997002 42.190002 L 71.751999 44.078003 L 73.514999 46.091995 L 75.528999 47.098999 L 77.291 47.350998 L 78.424004 47.225006 L 80.690002 46.470001 L 82.452003 45.085007 L 83.333 43.449005 L 83.459 41.938004 L 80.059998 41.938004 L 79.682999 42.945007 L 78.424004 44.078003 L 77.417 44.330002 L 76.283997 44.078003 L 75.151001 43.070999 L 74.522003 41.559998 L 74.396004 39.294998 L 74.899002 37.531998 L 75.779999 36.524994 L 77.165001 36.022003 L 78.802002 36.399002 L 79.808998 37.406006 L 80.059998 38.162003 L 83.459 38.162003 L 83.459 37.406006 L 82.704002 35.643997 L 80.438004 33.755997 L 78.550003 33.126007 Z M 105.613998 33.251999 L 104.355003 33.755997 L 103.097 34.636993 L 101.963997 35.895996 L 101.334 37.154999 L 100.957001 38.664993 L 100.957001 41.309006 L 101.208 42.567001 L 102.341003 44.832993 L 104.230003 46.470001 L 105.739998 47.098999 L 107.376999 47.350998 L 109.516998 47.098999 L 110.650002 46.722 L 112.286003 45.589005 L 113.418999 44.078003 L 113.796997 42.819 L 110.398003 42.692993 L 109.390999 43.826004 L 107.376999 44.330002 L 106.370003 44.078003 L 105.111 42.945007 L 104.481003 41.309006 L 104.733002 41.057007 L 113.921997 41.057007 L 114.047997 39.419998 L 113.670998 37.406006 L 112.538002 35.266006 L 111.027 33.882004 L 108.887001 33.126007 Z M 142.748993 34.384995 L 141.615997 36.022003 L 141.490005 37.279999 L 145.014999 37.279999 L 145.141006 36.651001 L 145.645004 36.147995 L 146.651993 35.770004 L 147.910004 35.770004 L 148.917007 36.147995 L 149.294998 36.524994 L 149.546997 37.406006 L 149.042999 38.035995 L 147.783997 38.539001 L 143.378998 39.294998 L 141.615997 40.679001 L 140.987 41.938004 L 140.860992 43.699997 L 141.238998 44.959 L 141.742004 45.714996 L 143.378998 46.973007 L 145.141006 47.350998 L 147.658997 46.847 L 149.421005 45.589005 L 150.175995 46.973007 L 153.701004 46.973007 L 153.072006 45.462997 L 153.072006 35.895996 L 152.567993 34.763 L 151.309006 33.755997 L 149.042999 33.126007 L 145.770004 33.126007 L 144.259995 33.503998 Z M 167.421997 34.132996 L 166.414993 33.503998 L 165.156006 33.126007 L 163.016006 33.126007 L 161.253998 33.755997 L 160.121002 34.763 L 159.994995 33.378006 L 156.470001 33.378006 L 156.470001 46.973007 L 159.994995 46.847 L 159.994995 37.910004 L 161.001999 36.651001 L 162.134995 36.147995 L 163.897003 36.272995 L 164.526993 36.651001 L 165.029999 37.406006 L 165.029999 46.847 L 168.554993 46.973007 L 168.554993 35.895996 L 168.177002 35.014999 Z M 33.484001 33.378006 L 33.484001 44.330002 L 34.240002 45.839996 L 35.373001 46.722 L 36.380001 47.098999 L 38.896999 47.225006 L 40.408001 46.722 L 42.043999 45.462997 L 42.169998 46.973007 L 45.443001 46.973007 L 45.569 33.378006 L 42.169998 33.378006 L 42.043999 42.442001 L 41.036999 43.826004 L 39.401001 44.330002 L 38.015999 43.951996 L 37.261002 43.197006 L 37.008999 42.567001 L 37.008999 33.378006 Z M 21.525999 38.162003 L 22.659 36.651001 L 23.540001 36.147995 L 24.547001 36.022003 L 26.183001 36.651001 L 26.938999 37.406006 L 27.316 38.539001 L 27.063999 38.791 L 21.777 38.791 Z M 104.481003 38.287994 L 105.111 37.154999 L 105.991997 36.399002 L 107.627998 36.022003 L 109.013 36.524994 L 110.019997 37.531998 L 110.398003 38.539001 L 110.146004 38.791 L 104.733002 38.791 Z M 127.014 39.042999 L 132.552994 38.917007 L 133.307999 39.169006 L 134.567001 40.552994 L 134.567001 41.938004 L 133.811996 43.070999 L 132.679001 43.699997 L 127.139999 43.699997 Z M 149.546997 40.427002 L 149.546997 42.442001 L 148.539993 43.826004 L 147.154999 44.455994 L 145.770004 44.455994 L 144.763 43.826004 L 144.511993 43.322998 L 144.511993 42.442001 L 145.393005 41.309006 L 148.035995 40.427002 Z"/>
</svg>
