<?xml version="1.0" encoding="UTF-8"?>
<svg xmlns="http://www.w3.org/2000/svg" viewBox="0 0 250 250" role="img" aria-label="Deutsche Bank logo">
  <title>Deutsche Bank</title>
  <path fill="#0018A8" fill-rule="evenodd" d="M203.55 101.775L203.55 148.225L250 148.351L250 101.649ZM209.97 108.195L243.58 108.069L243.706 141.679L210.096 141.805ZM239.678 111.971L230.866 112.223L214.124 136.896L222.432 136.896ZM0.126 129.217L0 147.847L9.189 147.973L10.952 147.47L12.21 146.715L13.218 145.833L14.35 144.323L15.232 142.435L15.735 140.169L15.735 137.022L15.483 135.511L13.973 132.112L12.336 130.476L9.945 129.343ZM86.103 129.217L85.977 147.847L89.627 147.847L89.627 139.036L90.131 138.155L90.76 137.651L92.019 137.148L93.152 137.148L93.907 137.399L94.537 138.029L94.914 138.91L94.914 147.847L98.313 147.973L98.439 137.651L97.936 136.015L96.551 134.756L94.914 134.126L92.019 134.252L90.76 134.756L89.753 135.637L89.502 129.217ZM123.238 129.217L123.238 147.973L134.441 147.973L136.329 147.092L138.092 144.952L138.595 142.938L138.469 141.553L137.966 140.295L136.833 139.036L135.574 138.28L137.085 136.896L137.84 134.882L137.714 132.993L136.833 131.231L135.196 129.721L133.686 129.217ZM171.702 129.217L171.702 147.973L175.227 147.973L175.227 143.945L176.737 142.309L177.241 142.56L180.136 147.973L184.164 147.973L179.381 139.665L183.661 134.378L179.507 134.378L175.352 139.036L175.227 129.217ZM52.744 130.476L49.471 132.364L49.345 134.126L49.094 134.378L47.583 134.378L47.583 136.77L49.345 136.896L49.471 146.337L50.478 147.722L51.108 148.099L52.367 148.351L54.884 147.973L54.884 144.952L53.625 144.952L52.87 144.197L52.87 136.896L54.884 136.77L54.884 134.378L52.87 134.252ZM4.028 132.49L8.812 132.616L10.448 133.875L11.203 135.259L11.707 136.896L11.707 140.546L10.826 142.938L9.189 144.449L8.308 144.7L4.028 144.7L3.776 144.449L3.776 132.868ZM127.014 132.616L132.805 132.616L133.938 133.749L133.938 135.511L133.182 136.266L132.301 136.644L127.14 136.644ZM21.903 134.504L19.637 136.015L18.253 138.28L17.875 139.665L17.875 142.309L18.505 144.449L19.386 145.833L20.645 147.092L22.281 147.973L24.421 148.351L27.568 147.722L28.701 147.092L30.086 145.707L30.715 144.449L30.715 143.693L27.442 143.693L26.561 144.7L25.806 145.078L24.295 145.33L23.288 145.078L22.155 144.071L21.652 143.19L21.526 142.183L30.967 142.057L30.967 140.169L30.211 137.399L29.582 136.266L28.449 135.133L27.316 134.504L25.932 134.126L23.162 134.126ZM59.668 134.504L58.535 135.133L57.528 136.14L57.024 137.148L56.898 138.784L57.276 139.791L58.157 140.672L59.29 141.302L63.948 142.56L64.955 143.316L65.206 144.323L64.955 144.826L64.074 145.456L62.437 145.582L61.052 145.078L60.297 144.323L60.045 143.442L56.647 143.442L56.898 145.204L58.157 146.84L60.297 147.973L61.43 148.225L64.199 148.225L65.962 147.722L67.221 146.966L68.102 146.085L68.479 145.33L68.731 143.064L68.228 141.805L67.724 141.176L66.213 140.295L61.43 139.288L60.549 138.658L60.423 138.029L61.052 137.148L62.059 136.77L62.941 136.77L64.325 137.399L65.081 138.532L68.228 138.532L68.102 137.148L66.843 135.385L65.332 134.504L63.948 134.126L60.926 134.126ZM76.158 134.126L74.144 134.882L72.13 136.644L70.997 138.91L70.745 141.805L70.997 143.19L71.752 145.078L73.515 147.092L75.529 148.099L77.291 148.351L78.424 148.225L80.69 147.47L82.452 146.085L83.333 144.449L83.459 142.938L80.06 142.938L79.683 143.945L78.424 145.078L77.417 145.33L76.284 145.078L75.151 144.071L74.522 142.56L74.396 140.295L74.899 138.532L75.78 137.525L77.165 137.022L78.802 137.399L79.809 138.406L80.06 139.162L83.459 139.162L83.459 138.406L82.704 136.644L80.438 134.756L78.55 134.126ZM105.614 134.252L104.355 134.756L103.097 135.637L101.964 136.896L101.334 138.155L100.957 139.665L100.957 142.309L101.208 143.567L102.341 145.833L104.23 147.47L105.74 148.099L107.377 148.351L109.517 148.099L110.65 147.722L112.286 146.589L113.419 145.078L113.797 143.819L110.398 143.693L109.391 144.826L107.377 145.33L106.37 145.078L105.111 143.945L104.481 142.309L104.733 142.057L113.922 142.057L114.048 140.42L113.671 138.406L112.538 136.266L111.027 134.882L108.887 134.126ZM142.749 135.385L141.616 137.022L141.49 138.28L145.015 138.28L145.141 137.651L145.645 137.148L146.652 136.77L147.91 136.77L148.917 137.148L149.295 137.525L149.547 138.406L149.043 139.036L147.784 139.539L143.379 140.295L141.616 141.679L140.987 142.938L140.861 144.7L141.239 145.959L141.742 146.715L143.379 147.973L145.141 148.351L147.659 147.847L149.421 146.589L150.176 147.973L153.701 147.973L153.072 146.463L153.072 136.896L152.568 135.763L151.309 134.756L149.043 134.126L145.77 134.126L144.26 134.504ZM167.422 135.133L166.415 134.504L165.156 134.126L163.016 134.126L161.254 134.756L160.121 135.763L159.995 134.378L156.47 134.378L156.47 147.973L159.995 147.847L159.995 138.91L161.002 137.651L162.135 137.148L163.897 137.273L164.527 137.651L165.03 138.406L165.03 147.847L168.555 147.973L168.555 136.896L168.177 136.015ZM33.484 134.378L33.484 145.33L34.24 146.84L35.373 147.722L36.38 148.099L38.897 148.225L40.408 147.722L42.044 146.463L42.17 147.973L45.443 147.973L45.569 134.378L42.17 134.378L42.044 143.442L41.037 144.826L39.401 145.33L38.016 144.952L37.261 144.197L37.009 143.567L37.009 134.378ZM21.526 139.162L22.659 137.651L23.54 137.148L24.547 137.022L26.183 137.651L26.939 138.406L27.316 139.539L27.064 139.791L21.777 139.791ZM104.481 139.288L105.111 138.155L105.992 137.399L107.628 137.022L109.013 137.525L110.02 138.532L110.398 139.539L110.146 139.791L104.733 139.791ZM127.014 140.043L132.553 139.917L133.308 140.169L134.567 141.553L134.567 142.938L133.812 144.071L132.679 144.7L127.14 144.7ZM149.547 141.427L149.547 143.442L148.54 144.826L147.155 145.456L145.77 145.456L144.763 144.826L144.512 144.323L144.512 143.442L145.393 142.309L148.036 141.427Z"/>
</svg>
