<?xml version="1.0" encoding="UTF-8"?>
<!-- Generated by Pixelmator Pro 3.8 -->
<svg width="250" height="109" viewBox="0 0 250 109" xmlns="http://www.w3.org/2000/svg">
    <g id="Group">
        <path id="Path" fill="#012169" fill-rule="evenodd" stroke="none" d="M 233.718201 94.833298 L 238.450394 102.720299 L 238.713303 108.504097 L 240.553604 108.504097 L 240.553604 102.9832 L 245.285797 94.833298 L 243.182602 94.833298 L 239.501999 100.879997 L 236.347198 95.096199 Z M 208.216904 94.833298 L 208.216904 96.673599 L 212.1604 96.936501 L 212.1604 108.504097 L 214.263596 108.504097 L 214.526505 96.673599 L 218.207108 96.673599 L 218.207108 94.833298 Z M 189.550995 94.833298 L 189.813904 108.504097 L 191.654205 108.504097 L 191.654205 94.833298 Z M 136.445206 94.833298 L 136.445206 108.504097 L 138.285507 108.504097 L 138.548401 102.9832 L 141.703201 103.246101 L 144.069305 108.241203 L 146.435394 108.504097 L 143.806396 102.9832 L 145.383804 102.194504 L 146.435394 100.879997 L 146.698303 97.462303 L 146.172501 96.410698 L 145.120895 95.3591 L 143.806396 94.833298 Z M 138.548401 96.673599 L 143.0177 96.673599 L 144.069305 97.199402 L 144.595093 97.988098 L 144.332199 100.354202 L 143.0177 101.142899 L 138.285507 100.879997 Z M 110.681 94.833298 L 110.681 108.504097 L 119.8825 108.241203 L 119.619598 106.400902 L 112.784203 106.138 L 113.047096 102.194504 L 116.727699 101.931602 L 116.727699 100.091301 L 112.784203 99.8284 L 113.047096 96.673599 L 119.356697 96.673599 L 119.356697 94.833298 Z M 82.813599 94.833298 L 87.545799 108.504097 L 89.649002 108.504097 L 94.118301 94.833298 L 92.015099 94.833298 L 88.597397 105.349297 L 88.071602 104.823502 L 84.916801 94.833298 Z M 64.147697 94.833298 L 64.147697 108.504097 L 66.2509 108.504097 L 66.2509 94.833298 Z M 36.543201 94.833298 L 36.543201 108.504097 L 38.383499 108.504097 L 38.6464 98.776802 L 44.956001 108.504097 L 46.796299 108.504097 L 46.796299 94.833298 L 44.956001 94.833298 L 44.6931 104.823502 L 38.6464 94.833298 Z M 8.9387 94.833298 L 8.9387 104.5606 L 9.7274 106.663803 L 11.0419 107.978302 L 13.9338 108.766998 L 16.562799 108.241203 L 18.1402 106.926697 L 19.191799 104.5606 L 19.191799 94.833298 L 17.0886 94.833298 L 17.0886 104.5606 L 15.5112 106.400902 L 14.7225 106.663803 L 12.6193 106.400902 L 11.3048 105.086403 L 10.779 102.9832 L 10.779 94.833298 Z M 166.678696 94.570396 L 164.838394 95.3591 L 163.786804 96.410698 L 163.261002 98.250999 L 163.523895 99.8284 L 164.5755 101.142899 L 169.570602 102.9832 L 170.622192 104.034798 L 170.622192 105.612198 L 169.0448 106.663803 L 166.941605 106.663803 L 164.312607 105.086403 L 162.998093 106.663803 L 163.786804 107.452499 L 166.152893 108.504097 L 169.833496 108.504097 L 172.1996 106.926697 L 172.725403 105.875099 L 172.725403 103.246101 L 171.147995 101.4058 L 166.152893 99.565498 L 165.364197 97.988098 L 166.415802 96.673599 L 169.307693 96.673599 L 170.622192 97.725197 L 171.147995 97.725197 L 172.1996 96.673599 L 171.936707 95.884903 L 170.096405 94.833298 Z M 87.808701 37.258194 L 88.071602 38.835602 L 93.592499 40.412994 L 95.169899 41.990402 L 94.906998 73.012604 L 96.221497 79.059303 L 97.536003 81.688301 L 99.639198 84.054398 L 102.793999 85.894699 L 105.422997 86.683403 L 112.2584 86.946297 L 115.150299 86.420502 L 119.619598 84.5802 L 126.717903 79.585098 L 128.295303 79.848 L 128.558197 85.631798 L 129.084 85.894699 L 146.435394 83.0028 L 146.961197 82.476997 L 146.961197 81.4254 L 146.435394 80.899597 L 139.600006 80.636703 L 138.285507 80.110901 L 137.233902 78.533501 L 137.759705 38.572693 L 136.708099 37.258194 L 118.830902 37.258194 L 118.568001 38.309799 L 119.093803 38.835602 L 121.722801 39.887207 L 127.243698 41.201706 L 128.558197 42.253296 L 128.558197 69.857803 L 128.295303 72.749702 L 127.506599 75.3787 L 125.403397 78.007698 L 121.985703 79.848 L 116.990601 80.899597 L 110.943901 80.899597 L 108.052002 80.110901 L 104.897202 77.744797 L 103.582703 75.115799 L 103.319801 37.258194 Z M 227.671494 34.892105 L 223.202194 35.943695 L 219.521606 37.783997 L 216.366806 40.150101 L 212.686203 44.356506 L 210.320099 48.562897 L 208.216904 55.3983 L 207.691101 58.816002 L 207.691101 64.5998 L 208.216904 68.806198 L 210.057205 74.852898 L 212.423294 79.059303 L 215.841003 82.739899 L 220.310303 85.368896 L 223.465103 86.420502 L 226.619904 86.946297 L 232.140793 86.946297 L 237.135895 85.894699 L 243.445496 82.476997 L 246.600296 79.322197 L 247.651901 76.167397 L 246.337402 75.904503 L 242.393906 79.322197 L 237.661697 80.899597 L 229.774704 80.636703 L 226.882797 79.848 L 223.465103 78.007698 L 220.310303 75.115799 L 218.207108 71.435204 L 217.418396 69.069099 L 216.6297 64.336899 L 216.892593 55.3983 L 248.703506 55.3983 L 249.755096 54.346703 L 249.755096 50.666107 L 248.9664 47.511307 L 247.389008 44.093597 L 245.548706 41.4646 L 242.130997 38.309799 L 238.450394 36.206604 L 235.0327 35.154999 Z M 241.079407 42.516205 L 241.605194 44.093597 L 241.3423 48.300003 L 239.764893 50.140305 L 238.1875 50.929001 L 233.192398 51.717697 L 221.098999 51.717697 L 218.207108 51.191895 L 217.944199 49.088699 L 220.310303 44.356506 L 223.990906 40.675903 L 227.671494 38.572693 L 231.089203 37.783997 L 235.0327 38.046906 L 238.450394 39.624298 Z M 73.349197 19.906799 L 69.142799 16.226196 L 60.992901 11.494003 L 55.209099 9.390793 L 46.533401 7.550507 L 41.5383 7.024704 L 28.9191 7.024704 L 17.8773 7.8134 L 2.3662 7.8134 L 0.5259 8.602097 L 0.0001 9.390793 L 0.0001 10.442398 L 0.5259 10.968201 L 3.1549 11.494003 L 9.2016 11.756897 L 11.5677 12.545593 L 12.3564 13.597198 L 12.3564 75.115799 L 11.8306 77.481903 L 9.9903 80.110901 L 7.6242 81.162498 L 6.3097 81.162498 L 3.1549 82.214104 L 2.1033 83.265701 L 2.3662 84.843102 L 8.4129 85.106003 L 13.408 84.5802 L 51.791401 84.317299 L 58.626801 82.739899 L 63.8848 80.636703 L 67.302498 78.796402 L 73.086304 74.589996 L 77.292702 70.120697 L 80.447502 65.388496 L 83.0765 59.341797 L 84.390999 52.2435 L 83.865196 41.990402 L 81.4991 32.788895 L 77.555603 25.164795 Z M 27.604601 10.968201 L 36.543201 10.705307 L 41.801201 11.494003 L 47.322102 13.071396 L 54.946201 16.751999 L 60.73 20.958405 L 65.462196 25.953506 L 68.091202 29.897003 L 71.246002 37.258194 L 72.560501 44.356506 L 72.560501 51.454803 L 71.508904 57.501503 L 68.354103 64.862701 L 64.6735 69.857803 L 58.626801 75.115799 L 52.580101 78.533501 L 47.584999 80.373802 L 41.012501 81.688301 L 37.331902 81.688301 L 32.073898 80.636703 L 27.3417 78.007698 L 25.5014 76.167397 L 23.398199 72.2239 L 23.1353 13.597198 L 24.4498 12.019806 Z M 151.956299 5.184402 L 151.430496 5.710205 L 151.430496 6.761795 L 151.956299 7.287598 L 153.533707 7.550507 L 155.636902 8.602097 L 156.951401 9.916595 L 157.477203 11.494003 L 157.477203 78.270599 L 156.951401 79.585098 L 155.636902 80.899597 L 149.590195 82.739899 L 149.064407 84.317299 L 150.6418 85.106003 L 155.111099 85.106003 L 159.317505 84.5802 L 171.147995 85.106003 L 172.462494 84.317299 L 172.462494 83.528603 L 171.936707 83.0028 L 167.730301 81.688301 L 166.152893 79.585098 L 166.152893 60.130501 L 166.941605 59.604698 L 188.236496 79.585098 L 188.499405 80.636703 L 187.710693 81.688301 L 183.241394 82.739899 L 182.452698 83.528603 L 182.452698 84.317299 L 182.9785 84.843102 L 189.813904 85.106003 L 197.700897 84.5802 L 201.907303 85.106003 L 206.902405 85.106003 L 208.216904 84.5802 L 208.479797 83.528603 L 207.953995 83.0028 L 204.536301 81.688301 L 199.541199 78.796402 L 177.720505 59.078903 L 175.880203 56.9757 L 175.880203 56.186996 L 177.983398 54.346703 L 189.288101 47.248398 L 200.329895 41.201706 L 204.799194 39.887207 L 206.113693 38.835602 L 205.8508 37.258194 L 183.504303 37.258194 L 182.9785 37.783997 L 183.241394 39.098495 L 186.133301 40.675903 L 187.4478 41.990402 L 187.4478 44.093597 L 184.030106 46.985504 L 177.457596 51.454803 L 172.1996 54.609596 L 166.941605 56.9757 L 166.152893 55.924103 L 166.152893 2.292496 L 165.364197 0.977997 L 162.735199 0.977997 Z"/>
    </g>
</svg>
