<?xml version="1.0" encoding="UTF-8"?>
<!-- Generated by Pixelmator Pro 3.8 -->
<svg width="250" height="120" viewBox="0 0 250 120" xmlns="http://www.w3.org/2000/svg">
    <g id="Group">
        <path id="Path" fill="#012169" fill-rule="evenodd" stroke="none" d="M 233.718201 99.833298 L 238.450394 107.720299 L 238.713303 113.504097 L 240.553604 113.504097 L 240.553604 107.9832 L 245.285797 99.833298 L 243.182602 99.833298 L 239.501999 105.879997 L 236.347198 100.096199 Z M 208.216904 99.833298 L 208.216904 101.673599 L 212.1604 101.936501 L 212.1604 113.504097 L 214.263596 113.504097 L 214.526505 101.673599 L 218.207108 101.673599 L 218.207108 99.833298 Z M 189.550995 99.833298 L 189.813904 113.504097 L 191.654205 113.504097 L 191.654205 99.833298 Z M 136.445206 99.833298 L 136.445206 113.504097 L 138.285507 113.504097 L 138.548401 107.9832 L 141.703201 108.246101 L 144.069305 113.241203 L 146.435394 113.504097 L 143.806396 107.9832 L 145.383804 107.194504 L 146.435394 105.879997 L 146.698303 102.462303 L 146.172501 101.410698 L 145.120895 100.3591 L 143.806396 99.833298 Z M 138.548401 101.673599 L 143.0177 101.673599 L 144.069305 102.199402 L 144.595093 102.988098 L 144.332199 105.354202 L 143.0177 106.142899 L 138.285507 105.879997 Z M 110.681 99.833298 L 110.681 113.504097 L 119.8825 113.241203 L 119.619598 111.400902 L 112.784203 111.138 L 113.047096 107.194504 L 116.727699 106.931602 L 116.727699 105.091301 L 112.784203 104.8284 L 113.047096 101.673599 L 119.356697 101.673599 L 119.356697 99.833298 Z M 82.813599 99.833298 L 87.545799 113.504097 L 89.649002 113.504097 L 94.118301 99.833298 L 92.015099 99.833298 L 88.597397 110.349297 L 88.071602 109.823502 L 84.916801 99.833298 Z M 64.147697 99.833298 L 64.147697 113.504097 L 66.2509 113.504097 L 66.2509 99.833298 Z M 36.543201 99.833298 L 36.543201 113.504097 L 38.383499 113.504097 L 38.6464 103.776802 L 44.956001 113.504097 L 46.796299 113.504097 L 46.796299 99.833298 L 44.956001 99.833298 L 44.6931 109.823502 L 38.6464 99.833298 Z M 8.9387 99.833298 L 8.9387 109.5606 L 9.7274 111.663803 L 11.0419 112.978302 L 13.9338 113.766998 L 16.562799 113.241203 L 18.1402 111.926697 L 19.191799 109.5606 L 19.191799 99.833298 L 17.0886 99.833298 L 17.0886 109.5606 L 15.5112 111.400902 L 14.7225 111.663803 L 12.6193 111.400902 L 11.3048 110.086403 L 10.779 107.9832 L 10.779 99.833298 Z M 166.678696 99.570396 L 164.838394 100.3591 L 163.786804 101.410698 L 163.261002 103.250999 L 163.523895 104.8284 L 164.5755 106.142899 L 169.570602 107.9832 L 170.622192 109.034798 L 170.622192 110.612198 L 169.0448 111.663803 L 166.941605 111.663803 L 164.312607 110.086403 L 162.998093 111.663803 L 163.786804 112.452499 L 166.152893 113.504097 L 169.833496 113.504097 L 172.1996 111.926697 L 172.725403 110.875099 L 172.725403 108.246101 L 171.147995 106.4058 L 166.152893 104.565498 L 165.364197 102.988098 L 166.415802 101.673599 L 169.307693 101.673599 L 170.622192 102.725197 L 171.147995 102.725197 L 172.1996 101.673599 L 171.936707 100.884903 L 170.096405 99.833298 Z M 87.808701 42.258194 L 88.071602 43.835602 L 93.592499 45.412994 L 95.169899 46.990402 L 94.906998 78.012604 L 96.221497 84.059303 L 97.536003 86.688301 L 99.639198 89.054398 L 102.793999 90.894699 L 105.422997 91.683403 L 112.2584 91.946297 L 115.150299 91.420502 L 119.619598 89.5802 L 126.717903 84.585098 L 128.295303 84.848 L 128.558197 90.631798 L 129.084 90.894699 L 146.435394 88.0028 L 146.961197 87.476997 L 146.961197 86.4254 L 146.435394 85.899597 L 139.600006 85.636703 L 138.285507 85.110901 L 137.233902 83.533501 L 137.759705 43.572693 L 136.708099 42.258194 L 118.830902 42.258194 L 118.568001 43.309799 L 119.093803 43.835602 L 121.722801 44.887207 L 127.243698 46.201706 L 128.558197 47.253296 L 128.558197 74.857803 L 128.295303 77.749702 L 127.506599 80.3787 L 125.403397 83.007698 L 121.985703 84.848 L 116.990601 85.899597 L 110.943901 85.899597 L 108.052002 85.110901 L 104.897202 82.744797 L 103.582703 80.115799 L 103.319801 42.258194 Z M 227.671494 39.892105 L 223.202194 40.943695 L 219.521606 42.783997 L 216.366806 45.150101 L 212.686203 49.356506 L 210.320099 53.562897 L 208.216904 60.3983 L 207.691101 63.816002 L 207.691101 69.5998 L 208.216904 73.806198 L 210.057205 79.852898 L 212.423294 84.059303 L 215.841003 87.739899 L 220.310303 90.368896 L 223.465103 91.420502 L 226.619904 91.946297 L 232.140793 91.946297 L 237.135895 90.894699 L 243.445496 87.476997 L 246.600296 84.322197 L 247.651901 81.167397 L 246.337402 80.904503 L 242.393906 84.322197 L 237.661697 85.899597 L 229.774704 85.636703 L 226.882797 84.848 L 223.465103 83.007698 L 220.310303 80.115799 L 218.207108 76.435204 L 217.418396 74.069099 L 216.6297 69.336899 L 216.892593 60.3983 L 248.703506 60.3983 L 249.755096 59.346703 L 249.755096 55.666107 L 248.9664 52.511307 L 247.389008 49.093597 L 245.548706 46.4646 L 242.130997 43.309799 L 238.450394 41.206604 L 235.0327 40.154999 Z M 241.079407 47.516205 L 241.605194 49.093597 L 241.3423 53.300003 L 239.764893 55.140305 L 238.1875 55.929001 L 233.192398 56.717697 L 221.098999 56.717697 L 218.207108 56.191895 L 217.944199 54.088699 L 220.310303 49.356506 L 223.990906 45.675903 L 227.671494 43.572693 L 231.089203 42.783997 L 235.0327 43.046906 L 238.450394 44.624298 Z M 73.349197 24.906799 L 69.142799 21.226196 L 60.992901 16.494003 L 55.209099 14.390793 L 46.533401 12.550507 L 41.5383 12.024704 L 28.9191 12.024704 L 17.8773 12.8134 L 2.3662 12.8134 L 0.5259 13.602097 L 0.0001 14.390793 L 0.0001 15.442398 L 0.5259 15.968201 L 3.1549 16.494003 L 9.2016 16.756897 L 11.5677 17.545593 L 12.3564 18.597198 L 12.3564 80.115799 L 11.8306 82.481903 L 9.9903 85.110901 L 7.6242 86.162498 L 6.3097 86.162498 L 3.1549 87.214104 L 2.1033 88.265701 L 2.3662 89.843102 L 8.4129 90.106003 L 13.408 89.5802 L 51.791401 89.317299 L 58.626801 87.739899 L 63.8848 85.636703 L 67.302498 83.796402 L 73.086304 79.589996 L 77.292702 75.120697 L 80.447502 70.388496 L 83.0765 64.341797 L 84.390999 57.2435 L 83.865196 46.990402 L 81.4991 37.788895 L 77.555603 30.164795 Z M 27.604601 15.968201 L 36.543201 15.705307 L 41.801201 16.494003 L 47.322102 18.071396 L 54.946201 21.751999 L 60.73 25.958405 L 65.462196 30.953506 L 68.091202 34.897003 L 71.246002 42.258194 L 72.560501 49.356506 L 72.560501 56.454803 L 71.508904 62.501503 L 68.354103 69.862701 L 64.6735 74.857803 L 58.626801 80.115799 L 52.580101 83.533501 L 47.584999 85.373802 L 41.012501 86.688301 L 37.331902 86.688301 L 32.073898 85.636703 L 27.3417 83.007698 L 25.5014 81.167397 L 23.398199 77.2239 L 23.1353 18.597198 L 24.4498 17.019806 Z M 151.956299 10.184402 L 151.430496 10.710205 L 151.430496 11.761795 L 151.956299 12.287598 L 153.533707 12.550507 L 155.636902 13.602097 L 156.951401 14.916595 L 157.477203 16.494003 L 157.477203 83.270599 L 156.951401 84.585098 L 155.636902 85.899597 L 149.590195 87.739899 L 149.064407 89.317299 L 150.6418 90.106003 L 155.111099 90.106003 L 159.317505 89.5802 L 171.147995 90.106003 L 172.462494 89.317299 L 172.462494 88.528603 L 171.936707 88.0028 L 167.730301 86.688301 L 166.152893 84.585098 L 166.152893 65.130501 L 166.941605 64.604698 L 188.236496 84.585098 L 188.499405 85.636703 L 187.710693 86.688301 L 183.241394 87.739899 L 182.452698 88.528603 L 182.452698 89.317299 L 182.9785 89.843102 L 189.813904 90.106003 L 197.700897 89.5802 L 201.907303 90.106003 L 206.902405 90.106003 L 208.216904 89.5802 L 208.479797 88.528603 L 207.953995 88.0028 L 204.536301 86.688301 L 199.541199 83.796402 L 177.720505 64.078903 L 175.880203 61.9757 L 175.880203 61.186996 L 177.983398 59.346703 L 189.288101 52.248398 L 200.329895 46.201706 L 204.799194 44.887207 L 206.113693 43.835602 L 205.8508 42.258194 L 183.504303 42.258194 L 182.9785 42.783997 L 183.241394 44.098495 L 186.133301 45.675903 L 187.4478 46.990402 L 187.4478 49.093597 L 184.030106 51.985504 L 177.457596 56.454803 L 172.1996 59.609596 L 166.941605 61.9757 L 166.152893 60.924103 L 166.152893 7.292496 L 165.364197 5.977997 L 162.735199 5.977997 Z"/>
    </g>
</svg>
