<?xml version="1.0" encoding="UTF-8"?>
<svg xmlns="http://www.w3.org/2000/svg" viewBox="0 0 250 250" role="img" aria-label="Duke University logo">
<title>Duke University</title>
<g transform="translate(-1.0515 69.4006) scale(0.2629)">
<path fill="#012169" fill-rule="evenodd" d="M893 363L911 393L912 415L919 415L919 394L937 363L929 363L915 386L903 364ZM796 363L796 370L811 371L811 415L819 415L820 370L834 370L834 363ZM725 363L726 415L733 415L733 363ZM523 363L523 415L530 415L531 394L543 395L552 414L561 415L551 394L557 391L561 386L562 373L560 369L556 365L551 363ZM531 370L548 370L552 372L554 375L553 384L548 387L530 386ZM425 363L425 415L460 414L459 407L433 406L434 391L448 390L448 383L433 382L434 370L458 370L458 363ZM319 363L337 415L345 415L362 363L354 363L341 403L339 401L327 363ZM248 363L248 415L256 415L256 363ZM143 363L143 415L150 415L151 378L175 415L182 415L182 363L175 363L174 401L151 363ZM38 363L38 400L41 408L46 413L57 416L67 414L73 409L77 400L77 363L69 363L69 400L63 407L60 408L52 407L47 402L45 394L45 363ZM638 362L631 365L627 369L625 376L626 382L630 387L649 394L653 398L653 404L647 408L639 408L629 402L624 408L627 411L636 415L650 415L659 409L661 405L661 395L655 388L636 381L633 375L637 370L648 370L653 374L655 374L659 370L658 367L651 363ZM338 144L339 150L360 156L366 162L365 280L370 303L375 313L383 322L395 329L405 332L431 333L442 331L459 324L486 305L492 306L493 328L495 329L561 318L563 316L563 312L561 310L535 309L530 307L526 301L528 149L524 144L456 144L455 148L457 150L467 154L488 159L493 163L493 268L492 279L489 289L481 299L468 306L449 310L426 310L415 307L403 298L398 288L397 144ZM870 135L853 139L839 146L827 155L813 171L804 187L796 213L794 226L794 248L796 264L803 287L812 303L825 317L842 327L854 331L866 333L887 333L906 329L930 316L942 304L946 292L941 291L926 304L908 310L878 309L867 306L854 299L842 288L834 274L831 265L828 247L829 213L950 213L954 209L954 195L951 183L945 170L938 160L925 148L911 140L898 136ZM921 164L923 170L922 186L916 193L910 196L891 199L845 199L834 197L833 189L842 171L856 157L870 149L883 146L898 147L911 153ZM283 78L267 64L236 46L214 38L181 31L162 29L114 29L72 32L13 32L6 35L4 38L4 42L6 44L16 46L39 47L48 50L51 54L51 288L49 297L42 307L33 311L28 311L16 315L12 319L13 325L36 326L55 324L201 323L227 317L247 309L260 302L282 286L298 269L310 251L320 228L325 201L323 162L314 127L299 98ZM109 44L143 43L163 46L184 52L213 66L235 82L253 101L263 116L275 144L280 171L280 198L276 221L264 249L250 268L227 288L204 301L185 308L160 313L146 313L126 309L108 299L101 292L93 277L92 54L97 48ZM582 22L580 24L580 28L582 30L588 31L596 35L601 40L603 46L603 300L601 305L596 310L573 317L571 323L577 326L594 326L610 324L655 326L660 323L660 320L658 318L642 313L636 305L636 231L639 229L720 305L721 309L718 313L701 317L698 320L698 323L700 325L726 326L756 324L772 326L791 326L796 324L797 320L795 318L782 313L763 302L680 227L673 219L673 216L681 209L724 182L766 159L783 154L788 150L787 144L702 144L700 146L701 151L712 157L717 162L717 170L704 181L679 198L659 210L639 219L636 215L636 11L633 6L623 6Z"/>
</g>
</svg>
