<?xml version="1.0" encoding="UTF-8"?>
<svg xmlns="http://www.w3.org/2000/svg" viewBox="0 0 250 250" role="img" aria-label="Equita logo">
<title>Equita</title>
<g transform="translate(0 98.3713) scale(0.2585)">
<path fill="#687488" fill-rule="evenodd" d="M944 159L945 161L965 161ZM813 54L812 161L797 161L813 160ZM730 46L729 161L714 161L730 160ZM350 90L351 33L416 33L350 34Z"/>
<path fill="#caccce" fill-rule="evenodd" d="M351 153L416 154L416 158L416 153ZM0 136L0 161L206 161L206 136ZM34 91L35 116L244 116L244 91L243 116L34 115ZM0 46L0 71L206 70L206 46ZM759 45L853 46L853 53L852 45ZM730 45L713 46L713 161L714 45ZM672 45L664 46L664 117L665 45ZM416 25L330 25L330 161L331 25ZM34 0L245 1L244 26L34 25L34 2L34 26L245 25L244 0Z"/>
<path fill="#063d5e" fill-rule="evenodd" d="M36 181L36 205L244 205L244 181ZM36 91L36 115L243 115L243 91ZM759 46L759 53L797 54L797 160L812 160L813 53L851 53L852 46ZM714 46L714 160L729 160L729 46ZM583 46L583 126L586 140L589 146L597 155L607 160L617 162L630 163L648 160L657 155L664 148L667 143L667 141L669 139L671 129L671 46L665 46L665 127L662 138L657 146L649 152L632 157L626 157L614 154L611 151L608 150L601 139L599 130L599 46ZM909 45L908 50L903 62L901 64L898 73L896 75L895 80L884 103L883 108L880 112L875 126L871 132L870 138L867 142L863 154L859 160L868 159L883 123L930 123L934 135L937 139L938 144L941 149L942 154L945 160L965 160L962 152L959 148L958 143L955 139L953 132L951 130L950 125L946 119L946 116L941 108L941 105L938 101L929 81L929 78L926 74L920 61L917 52L914 48L913 44ZM907 69L912 79L913 84L916 88L917 94L921 100L921 103L924 108L925 116L887 115L887 113L889 108L891 106L897 89L900 86L901 80L904 76L905 71ZM472 49L460 57L455 62L447 74L442 87L441 94L441 111L442 119L446 130L449 134L450 138L454 143L461 149L463 152L479 160L484 161L485 163L491 168L504 176L518 181L524 182L525 181L530 183L533 182L531 182L521 176L512 166L511 160L520 157L534 147L541 139L549 123L551 110L551 94L549 82L545 73L540 65L531 57L529 54L524 52L521 49L510 45L490 44L483 45ZM496 48L507 50L515 54L522 62L524 63L528 71L529 77L532 84L533 91L533 118L532 125L528 136L524 143L517 150L506 156L490 157L483 155L478 152L471 146L466 138L462 128L462 123L459 115L459 89L462 81L463 73L466 69L466 67L469 62L477 54L485 50ZM331 26L331 160L416 160L415 154L351 154L349 152L350 97L404 98L404 91L349 90L349 34L351 32L416 32L416 26ZM35 1L35 25L243 25L244 1Z"/>
</g>
</svg>
