<?xml version="1.0" encoding="UTF-8"?>
<!-- Generated by Pixelmator Pro 3.8 -->
<svg width="250" height="70" viewBox="0 0 250 70" xmlns="http://www.w3.org/2000/svg">
    <g id="Group">
        <path id="Path" fill="#687488" fill-rule="evenodd" stroke="none" d="M 244.024002 49.472801 L 244.282501 49.989799 L 249.452499 49.989799 Z M 210.160507 22.330307 L 209.901993 49.989799 L 206.024506 49.989799 L 210.160507 49.7313 Z M 188.705002 20.262299 L 188.446503 49.989799 L 184.569 49.989799 L 188.705002 49.7313 Z M 90.474998 31.636307 L 90.733498 16.901794 L 107.536003 16.901794 L 90.474998 17.160294 Z"/>
        <path id="path1" fill="#caccce" fill-rule="evenodd" stroke="none" d="M 90.733498 47.921799 L 107.536003 48.180298 L 107.536003 49.214302 L 107.536003 47.921799 Z M 0 43.527298 L 0 49.989799 L 53.250999 49.989799 L 53.250999 43.527298 Z M 8.789 31.894806 L 9.0475 38.3573 L 63.074001 38.3573 L 63.074001 31.894806 L 62.815498 38.3573 L 8.789 38.098801 Z M 0 20.262299 L 0 26.724792 L 53.250999 26.466293 L 53.250999 20.262299 Z M 196.201508 20.003799 L 220.500504 20.262299 L 220.500504 22.071793 L 220.242004 20.003799 Z M 188.705002 20.003799 L 184.310501 20.262299 L 184.310501 49.989799 L 184.569 20.003799 Z M 173.712006 20.003799 L 171.643997 20.262299 L 171.643997 38.615799 L 171.902496 20.003799 Z M 107.536003 14.833801 L 85.305 14.833801 L 85.305 49.989799 L 85.563499 14.833801 Z M 8.789 8.371307 L 63.3325 8.629807 L 63.074001 15.0923 L 8.789 14.833801 L 8.789 8.888306 L 8.789 15.0923 L 63.3325 14.833801 L 63.074001 8.371307 Z"/>
        <path id="path2" fill="#063d5e" fill-rule="evenodd" stroke="none" d="M 9.306 55.159798 L 9.306 61.3638 L 63.074001 61.3638 L 63.074001 55.159798 Z M 9.306 31.894806 L 9.306 38.098801 L 62.815498 38.098801 L 62.815498 31.894806 Z M 196.201508 20.262299 L 196.201508 22.071793 L 206.024506 22.330307 L 206.024506 49.7313 L 209.901993 49.7313 L 210.160507 22.071793 L 219.983505 22.071793 L 220.242004 20.262299 Z M 184.569 20.262299 L 184.569 49.7313 L 188.446503 49.7313 L 188.446503 20.262299 Z M 150.705505 20.262299 L 150.705505 40.942299 L 151.481003 44.561302 L 152.2565 46.112297 L 154.324493 48.438797 L 156.9095 49.7313 L 159.494507 50.248299 L 162.854996 50.506798 L 167.507996 49.7313 L 169.834503 48.438797 L 171.643997 46.629303 L 172.419495 45.3368 L 172.419495 44.819801 L 172.936493 44.302803 L 173.453506 41.717796 L 173.453506 20.262299 L 171.902496 20.262299 L 171.902496 41.200798 L 171.126999 44.044296 L 169.834503 46.112297 L 167.766495 47.6633 L 163.371994 48.955803 L 161.820999 48.955803 L 158.718994 48.180298 L 157.943497 47.4048 L 157.167999 47.146301 L 155.358505 44.302803 L 154.841507 41.976303 L 154.841507 20.262299 Z M 234.976501 20.003799 L 234.718002 21.296295 L 233.425507 24.3983 L 232.908493 24.915298 L 232.132996 27.241806 L 231.615997 27.758804 L 231.357498 29.0513 L 228.514008 34.996803 L 228.255493 36.289299 L 227.479996 37.323303 L 226.1875 40.942299 L 225.153503 42.493301 L 224.895004 44.044296 L 224.119507 45.0783 L 223.085495 48.180298 L 222.051498 49.7313 L 224.378006 49.472801 L 228.255493 40.166801 L 240.404999 40.166801 L 241.438995 43.268799 L 242.214493 44.302803 L 242.473007 45.595299 L 243.248505 46.887802 L 243.507004 48.180298 L 244.282501 49.7313 L 249.452499 49.7313 L 248.677002 47.6633 L 247.901505 46.629303 L 247.643005 45.3368 L 246.867493 44.302803 L 246.350494 42.493301 L 245.833496 41.976303 L 245.574997 40.6838 L 244.541 39.132797 L 244.541 38.3573 L 243.248505 36.289299 L 243.248505 35.513802 L 242.473007 34.479797 L 240.1465 29.309799 L 240.1465 28.534302 L 239.371002 27.500305 L 237.820007 24.139801 L 237.044495 21.813293 L 236.268997 20.779297 L 236.010498 19.7453 Z M 234.459503 26.207794 L 235.751999 28.792801 L 236.010498 30.085297 L 236.785995 31.119293 L 237.044495 32.670303 L 238.078506 34.221298 L 238.078506 34.996803 L 238.854004 36.289299 L 239.112503 38.3573 L 229.289505 38.098801 L 229.289505 37.581802 L 229.806503 36.289299 L 230.323502 35.772301 L 231.874496 31.377808 L 232.649994 30.602295 L 232.908493 29.0513 L 233.684006 28.017303 L 233.942505 26.724792 Z M 122.012001 21.037796 L 118.910004 23.105804 L 117.6175 24.3983 L 115.5495 27.500305 L 114.257004 30.860794 L 113.998497 32.670303 L 113.998497 37.064796 L 114.257004 39.132797 L 115.291 41.976303 L 116.066498 43.0103 L 116.324997 44.044296 L 117.359001 45.3368 L 119.168503 46.887802 L 119.685501 47.6633 L 123.821503 49.7313 L 125.113998 49.989799 L 125.372498 50.506798 L 126.9235 51.799301 L 130.283997 53.867302 L 133.903 55.159798 L 135.453995 55.418297 L 135.712494 55.159798 L 137.005005 55.676804 L 137.780502 55.418297 L 137.263504 55.418297 L 134.678497 53.867302 L 132.352005 51.282303 L 132.093506 49.7313 L 134.419998 48.955803 L 138.039001 46.370796 L 139.848495 44.302803 L 141.916504 40.166801 L 142.433502 36.806297 L 142.433502 32.670303 L 141.916504 29.568298 L 140.882507 27.241806 L 139.589996 25.173798 L 137.263504 23.105804 L 136.746506 22.330307 L 135.453995 21.813293 L 134.678497 21.037796 L 131.835007 20.003799 L 126.665001 19.7453 L 124.855499 20.003799 Z M 128.216003 20.779297 L 131.059494 21.296295 L 133.127502 22.330307 L 134.936996 24.3983 L 135.453995 24.656799 L 136.488007 26.724792 L 136.746506 28.275803 L 137.522003 30.085297 L 137.780502 31.894806 L 137.780502 38.874298 L 137.522003 40.6838 L 136.488007 43.527298 L 135.453995 45.3368 L 133.644501 47.146301 L 130.800995 48.697304 L 126.665001 48.955803 L 124.855499 48.438797 L 123.563004 47.6633 L 121.753502 46.112297 L 120.460999 44.044296 L 119.427002 41.459297 L 119.427002 40.166801 L 118.651497 38.098801 L 118.651497 31.377808 L 119.427002 29.309799 L 119.685501 27.241806 L 120.460999 26.207794 L 120.460999 25.690796 L 121.236504 24.3983 L 123.304497 22.330307 L 125.372498 21.296295 Z M 85.563499 15.0923 L 85.563499 49.7313 L 107.536003 49.7313 L 107.277496 48.180298 L 90.733498 48.180298 L 90.216499 47.6633 L 90.474998 33.445801 L 104.433998 33.7043 L 104.433998 31.894806 L 90.216499 31.636307 L 90.216499 17.160294 L 90.733498 16.643295 L 107.536003 16.643295 L 107.536003 15.0923 Z M 9.0475 8.629807 L 9.0475 14.833801 L 62.815498 14.833801 L 63.074001 8.629807 Z"/>
    </g>
</svg>
