<?xml version="1.0" encoding="UTF-8"?>
<!-- Generated by Pixelmator Pro 3.8 -->
<svg width="250" height="70" viewBox="0 0 250 70" xmlns="http://www.w3.org/2000/svg">
    <g id="Group">
        <path id="Path" fill="#000000" fill-rule="evenodd" stroke="none" d="M 219.543701 27.818405 L 217.574707 27.227707 L 213.242905 27.227707 L 210.486298 28.015305 L 207.139008 29.984299 L 205.563797 31.559494 L 203.594803 34.513 L 201.625793 40.026199 L 201.035095 43.570396 L 201.035095 47.114601 L 201.428894 49.083603 L 202.413406 51.446404 L 205.169998 54.203003 L 206.745193 54.990601 L 209.304901 55.581299 L 213.439804 55.384399 L 216.787094 54.203003 L 218.362305 53.218498 L 219.9375 51.643303 L 217.574707 48.886703 L 215.605698 50.658798 L 213.636703 51.643303 L 211.864594 52.037102 L 209.108002 51.840202 L 207.532806 51.052597 L 206.154495 49.674301 L 205.366898 48.099098 L 204.973099 45.933197 L 205.366898 41.601402 L 206.351395 37.860298 L 207.532806 35.497498 L 209.6987 32.740898 L 211.864594 31.362595 L 213.833603 30.771896 L 217.180893 30.968796 L 218.953003 31.953293 L 220.331299 33.725403 L 220.725098 33.725403 L 222.891006 31.953293 L 223.481705 31.165695 L 221.512695 28.999802 Z M 197.097107 27.227707 L 193.159103 27.227707 L 187.645905 54.793701 L 191.583893 54.793701 Z M 140.192993 27.424606 L 136.648804 45.342499 L 136.648804 49.477402 L 137.633301 51.840202 L 139.208496 53.612297 L 140.389893 54.399902 L 142.9496 55.1875 L 146.887604 54.990601 L 149.841095 53.809196 L 151.810104 52.234001 L 152.007004 52.824699 L 151.613205 54.793701 L 155.551193 54.793701 L 160.867493 27.227707 L 156.929504 27.227707 L 153.582199 44.358002 L 152.794601 46.720802 L 150.431793 49.871201 L 148.462799 51.052597 L 146.296906 51.643303 L 144.327896 51.643303 L 143.1465 51.249496 L 141.374405 49.674301 L 140.783707 48.492897 L 140.783707 44.554901 L 144.327896 27.227707 Z M 115.186699 27.227707 L 114.399101 31.165695 L 127.7883 31.362595 L 110.067299 51.446404 L 109.476601 54.793701 L 128.772797 54.596802 L 129.363495 50.855698 L 115.186699 50.658798 L 132.9077 30.771896 L 133.695297 27.227707 Z M 185.676895 28.212204 L 182.920303 27.030807 L 178.9823 27.030807 L 175.831894 28.212204 L 173.8629 29.984299 L 173.666 28.999802 L 174.059799 27.227707 L 170.121796 27.227707 L 164.805496 54.793701 L 168.7435 54.793701 L 172.090805 37.2696 L 173.8629 33.725403 L 175.831894 31.756393 L 178.391602 30.574997 L 181.148193 30.574997 L 183.9048 32.347099 L 187.055206 29.5905 Z M 233.326706 14.2323 L 225.253799 54.793701 L 229.388702 54.793701 L 232.735992 37.072701 L 233.326706 35.300598 L 234.508102 33.331596 L 236.280197 31.559494 L 239.627502 30.181198 L 242.187195 30.181198 L 243.959305 30.968796 L 244.943802 31.953293 L 245.7314 33.725403 L 245.5345 37.663399 L 241.990295 54.793701 L 246.125198 54.793701 L 249.866302 36.285103 L 249.669403 31.756393 L 248.488007 29.3936 L 247.109695 28.015305 L 244.156204 26.636993 L 239.036804 26.833893 L 236.280197 28.015305 L 234.705002 29.196701 L 234.508102 28.212204 L 237.461594 14.2323 Z M 195.521896 14.2323 L 194.537399 19.3517 L 198.869202 19.1548 L 199.656799 14.2323 Z M 156.338806 14.2323 L 155.354294 19.3517 L 159.686096 19.1548 L 160.670593 14.2323 Z M 145.706207 14.2323 L 144.721695 19.3517 L 148.856598 19.3517 L 149.841095 14.2323 Z M 8.0731 14.2323 L 0.0002 54.793701 L 30.7166 54.793701 L 32.6856 44.358002 L 14.5708 43.964203 L 15.7522 39.041702 L 33.867001 39.041702 L 35.639099 29.984299 L 17.5243 29.787399 L 18.7057 24.667999 L 47.256199 24.864899 L 41.349201 54.793701 L 53.950802 54.596802 L 59.8578 24.864899 L 70.293503 24.864899 L 64.386497 54.793701 L 76.988098 54.793701 L 79.941597 39.435501 L 80.335403 39.041702 L 89.1959 39.435501 L 86.045502 54.793701 L 98.647102 54.793701 L 106.720001 14.2323 L 94.118401 14.2323 L 90.968002 29.787399 L 81.910599 29.787399 L 85.060997 14.2323 Z"/>
    </g>
</svg>
