<?xml version="1.0" encoding="UTF-8"?>
<svg xmlns="http://www.w3.org/2000/svg" viewBox="0 0 250 250" role="img" aria-label="ETH Zurich logo">
<title>ETH Zurich</title>
<g transform="translate(-0.9843 104.2323) scale(0.1969)">
<path fill="#000000" fill-rule="evenodd" d="M1120 69L1110 66L1088 66L1074 70L1057 80L1049 88L1039 103L1029 131L1026 149L1026 167L1028 177L1033 189L1047 203L1055 207L1068 210L1089 209L1106 203L1114 198L1122 190L1110 176L1100 185L1090 190L1081 192L1067 191L1059 187L1052 180L1048 172L1046 161L1048 139L1053 120L1059 108L1070 94L1081 87L1091 84L1108 85L1117 90L1124 99L1126 99L1137 90L1140 86L1130 75ZM1006 66L986 66L958 206L978 206ZM717 67L699 158L699 179L704 191L712 200L718 204L731 208L751 207L766 201L776 193L777 196L775 206L795 206L822 66L802 66L785 153L781 165L769 181L759 187L748 190L738 190L732 188L723 180L720 174L720 154L738 66ZM590 66L586 86L654 87L564 189L561 206L659 205L662 186L590 185L680 84L684 66ZM948 71L934 65L914 65L898 71L888 80L887 75L889 66L869 66L842 206L862 206L879 117L888 99L898 89L911 83L925 83L939 92L955 78ZM1190 0L1149 206L1170 206L1187 116L1190 107L1196 97L1205 88L1222 81L1235 81L1244 85L1249 90L1253 99L1252 119L1234 206L1255 206L1274 112L1273 89L1267 77L1260 70L1245 63L1219 64L1205 70L1197 76L1196 71L1211 0ZM998 0L993 26L1015 25L1019 0ZM799 0L794 26L816 25L821 0ZM745 0L740 26L761 26L766 0ZM46 0L5 206L161 206L171 153L79 151L85 126L177 126L186 80L94 79L100 53L245 54L215 206L279 205L309 54L362 54L332 206L396 206L411 128L413 126L458 128L442 206L506 206L547 0L483 0L467 79L421 79L437 0Z"/>
</g>
</svg>
