<?xml version="1.0" encoding="UTF-8"?>
<!-- Generated by Pixelmator Pro 3.8 -->
<svg width="250" height="57" viewBox="0 0 250 57" xmlns="http://www.w3.org/2000/svg">
    <g id="Group">
        <path id="Path" fill="#003399" fill-rule="evenodd" stroke="none" d="M 142.614105 48.623001 L 142.920807 50.156502 L 145.374405 56.597198 L 147.521301 56.597198 L 150.588303 48.623001 L 148.441406 48.623001 L 146.601196 54.1436 L 145.987793 53.223503 L 145.681107 51.383301 L 144.761002 49.236397 L 144.761002 48.623001 Z M 238.917892 48.929703 L 237.691101 48.316299 L 236.464294 48.316299 L 234.6241 49.236397 L 232.477203 48.623001 L 232.477203 56.597198 L 234.6241 56.597198 L 234.6241 51.076599 L 235.544205 50.156502 L 237.077698 50.156502 L 237.691101 50.769897 L 237.997803 56.597198 L 239.837997 56.597198 L 239.837997 50.769897 Z M 224.196304 48.929703 L 224.503006 50.156502 L 227.570007 49.8498 L 228.183395 50.463203 L 227.876694 51.383301 L 226.343201 51.383301 L 225.423096 51.690002 L 223.889603 52.916801 L 223.582901 53.530197 L 223.582901 55.370399 L 224.809692 56.597198 L 226.036499 56.9039 L 227.263306 56.597198 L 228.183395 55.983803 L 228.796799 56.597198 L 230.330307 56.597198 L 230.330307 50.463203 L 229.716904 49.236397 L 228.183395 48.316299 L 225.729797 48.316299 Z M 228.490097 52.916801 L 228.490097 54.1436 L 227.263306 55.370399 L 226.343201 55.370399 L 225.423096 54.450302 L 225.423096 53.836899 L 226.343201 52.916801 L 226.956604 52.6101 Z M 201.500504 48.623001 L 200.8871 48.316299 L 199.660294 48.316299 L 197.820099 49.236397 L 195.673203 48.623001 L 195.673203 56.597198 L 197.820099 56.597198 L 197.820099 51.076599 L 198.740204 50.156502 L 200.273697 50.156502 L 200.8871 50.769897 L 200.8871 56.597198 L 203.033997 56.597198 L 203.033997 50.769897 L 202.727295 49.8498 Z M 188.312393 48.929703 L 187.392303 49.8498 L 186.7789 51.076599 L 186.7789 54.1436 L 187.392303 55.370399 L 188.005707 55.983803 L 189.232498 56.597198 L 191.072693 56.9039 L 193.526306 56.290497 L 193.219604 55.063698 L 190.766006 55.370399 L 188.925797 54.450302 L 188.925797 53.223503 L 194.139694 52.916801 L 194.139694 51.690002 L 193.526306 49.8498 L 192.2995 48.623001 L 191.379395 48.316299 L 189.845901 48.316299 Z M 188.619095 51.076599 L 189.5392 49.8498 L 191.072693 49.8498 L 191.992798 50.769897 L 191.686096 51.690002 Z M 172.977402 48.623001 L 172.977402 56.597198 L 175.124298 56.597198 L 175.124298 51.076599 L 176.351105 49.8498 L 176.964493 49.8498 L 178.191299 51.383301 L 178.191299 56.597198 L 180.031494 56.597198 L 180.031494 51.076599 L 180.951599 50.156502 L 182.178406 50.156502 L 183.098495 51.383301 L 183.098495 56.597198 L 184.938705 56.597198 L 184.938705 50.463203 L 184.632004 49.543098 L 183.711899 48.623001 L 182.791794 48.316299 L 181.565002 48.316299 L 179.724792 49.543098 L 177.884598 48.316299 L 176.657806 48.316299 L 175.124298 49.236397 Z M 163.776398 48.316299 L 162.242905 48.316299 L 161.3228 48.623001 L 160.095993 49.8498 L 160.095993 51.690002 L 160.402695 52.303398 L 162.856293 53.530197 L 163.469696 54.1436 L 163.469696 54.757004 L 162.856293 55.370399 L 161.3228 55.370399 L 160.095993 54.757004 L 159.789307 56.290497 L 161.629501 56.9039 L 164.083099 56.597198 L 165.003204 55.983803 L 165.616592 54.757004 L 165.616592 53.836899 L 165.003204 52.6101 L 164.083099 51.996696 L 162.856293 51.690002 L 161.936203 50.463203 L 162.549606 49.8498 L 165.003204 50.156502 L 165.309906 48.929703 Z M 152.735199 48.929703 L 151.508408 50.463203 L 151.201706 51.383301 L 151.201706 53.836899 L 152.121796 55.677101 L 153.655304 56.597198 L 155.495499 56.9039 L 157.949097 56.290497 L 157.949097 55.063698 L 156.108902 55.370399 L 154.268707 55.063698 L 153.348602 53.223503 L 158.5625 53.223503 L 158.5625 51.383301 L 157.949097 49.8498 L 156.722305 48.623001 L 155.8022 48.316299 L 154.268707 48.316299 Z M 153.041901 51.076599 L 153.962006 49.8498 L 156.108902 50.156502 L 156.415604 50.769897 L 156.108902 51.690002 Z M 140.467194 48.929703 L 139.240402 48.316299 L 138.013596 48.316299 L 135.866699 48.929703 L 134.026505 48.623001 L 134.026505 56.597198 L 136.173401 56.597198 L 136.173401 51.383301 L 137.093506 50.156502 L 138.626999 50.156502 L 139.240402 50.769897 L 139.547104 51.996696 L 139.547104 56.597198 L 141.387299 56.597198 L 141.387299 50.769897 Z M 207.327805 46.476097 L 205.487595 47.0895 L 205.180893 48.623001 L 204.260803 48.623001 L 204.567505 50.156502 L 205.487595 50.463203 L 205.487595 55.063698 L 206.100998 56.290497 L 207.634506 56.9039 L 208.554596 56.9039 L 208.861298 56.597198 L 209.474701 56.597198 L 209.167999 55.063698 L 207.634506 54.757004 L 207.327805 53.530197 L 207.634506 50.156502 L 209.474701 50.156502 L 209.474701 48.623001 L 207.327805 48.316299 Z M 168.990295 46.476097 L 167.456802 47.0895 L 167.150101 48.623001 L 166.536697 48.623001 L 166.536697 50.156502 L 167.456802 50.463203 L 167.456802 54.757004 L 167.763504 55.677101 L 168.683594 56.597198 L 170.523804 56.9039 L 170.830505 56.597198 L 171.443893 56.597198 L 171.443893 55.063698 L 169.603699 54.757004 L 169.9104 50.156502 L 171.443893 50.156502 L 171.443893 48.623001 L 169.603699 48.316299 L 169.603699 46.476097 Z M 129.732697 45.556 L 129.732697 56.597198 L 131.572906 56.597198 L 131.572906 45.556 Z M 214.688599 45.556 L 214.688599 56.597198 L 219.289093 56.597198 L 220.822601 55.983803 L 222.049393 54.757004 L 222.356094 53.836899 L 222.356094 52.6101 L 222.049393 51.996696 L 220.209198 50.463203 L 221.742706 49.236397 L 221.742706 47.0895 L 221.436005 46.476097 L 220.209198 45.556 L 218.982407 45.249298 L 215.608704 45.249298 L 215.302002 45.556 Z M 216.835495 51.383301 L 218.369003 51.383301 L 219.289093 51.690002 L 219.902496 52.303398 L 220.209198 52.916801 L 220.209198 53.836899 L 218.982407 55.063698 L 216.528793 54.757004 Z M 216.835495 46.782799 L 218.675705 46.782799 L 219.289093 47.0895 L 219.902496 48.009598 L 219.595795 49.236397 L 218.675705 49.8498 L 216.528793 49.543098 Z M 241.984894 44.942596 L 241.984894 56.597198 L 244.131805 56.597198 L 244.131805 53.836899 L 244.745193 53.223503 L 245.665298 54.1436 L 245.972 55.063698 L 247.198807 56.597198 L 249.652405 56.597198 L 247.505493 53.836899 L 246.278702 51.690002 L 249.039001 48.623001 L 246.278702 48.929703 L 245.358597 50.463203 L 244.438507 51.383301 L 243.825104 44.635902 Z M 189.5392 32.367897 L 189.5392 40.342102 L 191.379395 40.342102 L 191.379395 35.7416 L 191.686096 34.821503 L 192.912903 33.901398 L 193.832993 33.901398 L 194.753098 35.128197 L 194.753098 40.648804 L 196.899994 40.342102 L 196.899994 35.434898 L 195.979904 32.9813 L 195.059799 32.367897 L 192.912903 32.367897 L 191.379395 33.594704 L 191.072693 32.367897 Z M 181.565002 32.674599 L 182.178406 33.901398 L 184.0186 33.594704 L 184.632004 33.901398 L 185.245407 34.821503 L 184.632004 35.434898 L 183.098495 35.434898 L 181.565002 36.048302 L 180.644897 37.275101 L 180.644897 39.421997 L 182.178406 40.648804 L 184.0186 40.648804 L 185.245407 39.728699 L 185.552094 40.648804 L 187.392303 40.648804 L 187.392303 34.821503 L 186.7789 33.288002 L 185.245407 32.367897 L 182.178406 32.367897 Z M 185.245407 36.968399 L 185.245407 38.5019 L 184.632004 39.115303 L 183.711899 39.421997 L 182.485107 38.5019 L 182.485107 37.581802 L 183.098495 36.968399 L 183.711899 36.661697 Z M 173.897507 32.674599 L 172.6707 33.901398 L 172.057297 35.128197 L 172.057297 37.888496 L 172.363998 38.808601 L 173.590805 40.0354 L 174.817596 40.648804 L 177.577896 40.648804 L 177.884598 40.342102 L 178.804703 40.342102 L 178.191299 38.808601 L 175.431 39.115303 L 173.897507 37.888496 L 174.204193 36.968399 L 179.418106 36.968399 L 179.418106 35.434898 L 179.111404 34.208099 L 178.498001 33.288002 L 177.271194 32.367897 L 174.510895 32.367897 Z M 173.897507 35.128197 L 174.817596 33.901398 L 176.044403 33.594704 L 177.271194 34.514801 L 177.577896 35.434898 Z M 168.376907 32.367897 L 166.229996 32.367897 L 164.696503 33.288002 L 164.389801 32.367897 L 162.549606 32.367897 L 162.549606 43.715797 L 164.696503 43.715797 L 165.003204 40.0354 L 165.923294 40.648804 L 168.070206 40.648804 L 169.296997 40.0354 L 169.9104 39.421997 L 170.523804 38.195198 L 170.830505 36.355003 L 170.523804 34.514801 L 170.217102 33.901398 Z M 165.923294 33.901398 L 167.150101 33.901398 L 167.763504 34.208099 L 168.376907 34.821503 L 168.683594 35.7416 L 168.683594 37.275101 L 168.070206 38.5019 L 167.150101 39.115303 L 165.923294 39.115303 L 164.696503 37.888496 L 164.696503 35.434898 Z M 154.268707 32.9813 L 153.348602 33.901398 L 152.735199 35.434898 L 152.735199 37.581802 L 153.348602 39.115303 L 154.268707 40.0354 L 155.495499 40.648804 L 157.949097 40.648804 L 159.789307 39.728699 L 161.016098 37.275101 L 161.016098 35.7416 L 160.402695 33.901398 L 159.482605 32.9813 L 158.255798 32.367897 L 155.495499 32.367897 Z M 157.029007 33.594704 L 157.642395 33.901398 L 158.869202 35.434898 L 158.869202 37.581802 L 157.642395 39.115303 L 156.108902 39.115303 L 154.882095 37.581802 L 154.882095 35.434898 L 156.108902 33.901398 Z M 152.121796 32.367897 L 150.588303 32.367897 L 149.668198 33.288002 L 149.054794 32.367897 L 147.521301 32.367897 L 147.521301 40.648804 L 149.668198 40.342102 L 149.668198 35.434898 L 150.281601 34.514801 L 150.895004 34.208099 L 152.121796 34.208099 Z M 138.013596 32.367897 L 138.013596 38.5019 L 138.320297 39.421997 L 139.547104 40.648804 L 142.000702 40.648804 L 143.227493 39.728699 L 143.534195 40.648804 L 145.374405 40.648804 L 145.067703 32.367897 L 143.227493 32.674599 L 143.227493 37.888496 L 142.000702 39.115303 L 141.080597 39.115303 L 140.160507 38.195198 L 139.853806 32.367897 Z M 129.732697 29.300903 L 129.732697 40.648804 L 136.480103 40.648804 L 136.480103 38.808601 L 131.572906 38.5019 L 131.879593 35.434898 L 135.866699 35.434898 L 135.866699 33.901398 L 131.572906 33.594704 L 131.879593 30.834396 L 136.173401 30.834396 L 136.173401 29.300903 Z M 66.8592 20.099899 L 66.8592 56.597198 L 116.2379 56.597198 L 116.2379 20.099899 Z M 88.941597 50.156502 L 90.781799 49.8498 L 91.088501 49.236397 L 92.008598 48.623001 L 92.3153 49.8498 L 93.848801 50.156502 L 92.622002 51.076599 L 93.235397 52.6101 L 92.622002 52.916801 L 91.395203 51.996696 L 89.861702 52.303398 L 90.168404 51.076599 Z M 97.529198 46.476097 L 98.142601 47.396202 L 98.142601 48.009598 L 99.676102 48.929703 L 99.3694 48.929703 L 98.755997 49.543098 L 98.755997 50.156502 L 99.062698 50.463203 L 98.755997 51.383301 L 97.529198 50.463203 L 96.302399 51.383301 L 96.302399 49.543098 L 95.382301 48.929703 L 95.382301 48.009598 L 96.915802 48.009598 L 96.915802 47.396202 Z M 85.2612 46.476097 L 85.874603 47.0895 L 86.181297 48.009598 L 87.714798 48.623001 L 87.101402 49.236397 L 86.794701 49.236397 L 86.487999 49.8498 L 87.101402 51.076599 L 86.487999 51.383301 L 85.2612 50.463203 L 84.034401 51.383301 L 83.727699 50.769897 L 84.034401 49.543098 L 82.807602 48.316299 L 84.647797 48.009598 Z M 104.583298 44.022499 L 103.049797 45.249298 L 103.356499 47.0895 L 101.822998 46.169403 L 100.596199 47.0895 L 100.902901 45.249298 L 99.3694 44.022499 L 101.209602 43.715797 L 101.516296 43.102402 L 102.436401 42.488998 L 102.743103 43.715797 Z M 80.9674 42.182297 L 81.580803 43.102402 L 81.580803 43.715797 L 83.420998 44.022499 L 82.194199 45.556 L 82.194199 47.0895 L 81.274101 46.169403 L 80.660698 46.169403 L 79.740601 47.0895 L 79.740601 45.249298 L 78.513802 44.022499 L 80.353996 43.715797 L 80.353996 43.102402 Z M 103.6632 36.048302 L 104.276604 36.968399 L 104.276604 37.581802 L 106.116798 37.888496 L 105.503403 38.5019 L 105.196701 38.5019 L 104.889999 39.421997 L 105.196701 39.728699 L 104.889999 40.648804 L 103.6632 39.728699 L 102.436401 40.648804 L 102.1297 39.728699 L 102.436401 39.421997 L 102.436401 38.808601 L 101.209602 37.888496 L 103.049797 37.581802 L 103.049797 36.968399 Z M 79.433899 36.048302 L 80.047302 36.968399 L 80.047302 37.581802 L 81.887497 37.888496 L 81.274101 38.5019 L 80.9674 38.5019 L 80.660698 39.728699 L 80.9674 40.0354 L 80.660698 40.955498 L 79.740601 40.0354 L 79.127197 40.0354 L 77.900398 40.955498 L 78.2071 39.115303 L 76.673599 37.888496 L 78.820503 37.275101 L 78.820503 36.661697 Z M 104.583298 31.754501 L 103.049797 32.9813 L 103.356499 34.821503 L 101.822998 33.901398 L 100.596199 34.821503 L 100.902901 32.9813 L 99.3694 31.754501 L 101.209602 31.4478 L 101.516296 30.834396 L 102.436401 30.221001 L 102.743103 31.4478 Z M 80.9674 29.914299 L 81.580803 30.834396 L 81.580803 31.4478 L 83.420998 31.754501 L 82.194199 33.288002 L 82.194199 34.821503 L 81.274101 33.901398 L 80.660698 33.901398 L 79.740601 34.821503 L 79.740601 32.9813 L 78.820503 32.367897 L 78.820503 31.4478 L 80.353996 31.4478 L 80.353996 30.834396 Z M 97.529198 25.313797 L 98.142601 26.847298 L 99.982803 27.460701 L 99.3694 28.074097 L 99.062698 28.074097 L 98.755997 28.994202 L 99.062698 29.300903 L 98.755997 30.221001 L 97.529198 29.300903 L 96.302399 30.221001 L 95.995697 29.300903 L 96.302399 28.994202 L 95.995697 28.074097 L 95.689003 28.074097 L 95.0756 27.460701 L 96.915802 26.847298 L 96.915802 26.233902 Z M 85.2612 25.313797 L 86.181297 27.153999 L 87.714798 27.460701 L 86.487999 28.380798 L 86.487999 28.994202 L 86.794701 29.300903 L 86.487999 30.221001 L 85.2612 29.300903 L 83.727699 29.914299 L 83.727699 29.300903 L 84.034401 28.994202 L 83.727699 28.074097 L 83.420998 28.074097 L 82.807602 27.460701 L 84.647797 27.153999 L 84.647797 26.540604 Z M 91.395203 23.780304 L 92.008598 24.700394 L 92.008598 25.313797 L 93.542099 26.233902 L 92.622002 27.153999 L 93.235397 28.380798 L 92.622002 28.6875 L 91.395203 27.767403 L 90.168404 28.6875 L 89.861702 27.767403 L 90.168404 27.460701 L 90.168404 26.847298 L 88.941597 25.620499 L 90.781799 25.313797 L 90.781799 24.700394 Z"/>
        <path id="path1" fill="#9b9b9b" fill-rule="evenodd" stroke="none" d="M 10.4264 52.916801 L 65.325699 52.916801 L 65.325699 51.383301 L 11.6532 51.383301 Z M 15.3336 46.169403 L 65.325699 46.169403 L 65.325699 44.329201 L 16.2537 44.635902 Z M 20.8542 39.421997 L 65.325699 39.421997 L 65.325699 37.581802 L 22.387699 37.581802 Z M 27.601601 32.367897 L 65.325699 32.367897 L 65.325699 30.527702 L 29.441799 30.527702 Z M 36.189201 25.313797 L 65.325699 25.313797 L 65.325699 23.780304 L 38.336102 23.780304 Z M 116.2379 5.684998 L 107.343597 3.2314 L 99.3694 1.697906 L 91.088501 0.777802 L 76.980301 0.777802 L 69.312798 1.697906 L 64.405602 2.617996 L 55.511299 5.071594 L 49.070599 7.525208 L 40.483002 11.819 L 36.495899 14.272598 L 30.055201 18.873093 L 24.2279 23.780304 L 15.6403 32.674599 L 9.1996 40.955498 L 2.7589 51.076599 L -0.0014 56.597198 L 3.0656 56.597198 L 3.679 55.983803 L 5.8259 51.996696 L 8.8929 47.396202 L 14.4135 40.0354 L 18.093901 35.7416 L 26.0681 27.767403 L 30.055201 24.393707 L 36.802601 19.486496 L 41.403099 16.726196 L 48.763901 13.045807 L 57.0448 9.978806 L 64.0989 8.138596 L 71.459702 6.911804 L 81.580803 6.298401 L 89.555 6.605103 L 99.3694 7.831894 L 111.637398 10.592194 L 116.2379 12.125702 Z"/>
        <path id="path2" fill="#ffcc00" fill-rule="evenodd" stroke="none" d="M 93.542099 50.156502 L 91.701897 49.8498 L 91.701897 48.929703 L 90.781799 50.156502 L 89.555 50.156502 L 90.168404 50.769897 L 90.475098 50.769897 L 90.168404 52.6101 L 91.701897 51.690002 L 92.622002 52.303398 L 92.3153 51.076599 Z M 97.529198 47.0895 L 96.915802 48.623001 L 95.689003 48.623001 L 96.6091 49.236397 L 96.302399 50.769897 L 97.222504 50.156502 L 97.835899 50.156502 L 98.755997 50.769897 L 98.449303 49.543098 L 99.3694 48.623001 L 97.835899 48.316299 Z M 87.408096 48.623001 L 86.181297 48.623001 L 85.567902 48.009598 L 85.2612 47.0895 L 84.954498 48.316299 L 83.420998 48.623001 L 84.034401 48.929703 L 84.341103 50.156502 L 84.034401 51.076599 L 84.647797 50.463203 L 85.567902 50.156502 L 86.487999 50.769897 L 86.181297 49.543098 Z M 103.969902 44.022499 L 102.1297 43.715797 L 102.1297 42.7957 L 101.516296 44.022499 L 99.982803 44.022499 L 100.902901 45.862701 L 100.902901 46.476097 L 101.516296 45.862701 L 102.436401 45.862701 L 103.049797 46.476097 L 103.049797 45.862701 L 102.743103 45.556 L 103.049797 44.635902 L 103.356499 44.635902 Z M 83.114304 44.022499 L 81.274101 43.715797 L 80.9674 42.488998 L 80.660698 43.715797 L 78.820503 44.022499 L 80.047302 44.942596 L 79.740601 46.476097 L 80.9674 45.556 L 82.194199 46.476097 L 81.887497 45.862701 L 81.887497 44.942596 Z M 105.810097 37.888496 L 103.969902 37.581802 L 103.6632 36.355003 L 103.356499 37.581802 L 101.516296 37.888496 L 102.743103 38.808601 L 102.743103 39.728699 L 102.436401 40.342102 L 103.6632 39.421997 L 104.889999 40.342102 L 104.583298 39.728699 L 104.583298 38.808601 Z M 81.580803 37.888496 L 80.047302 37.888496 L 79.433899 37.275101 L 79.433899 36.355003 L 78.820503 37.888496 L 77.287003 37.888496 L 78.513802 38.808601 L 78.2071 40.342102 L 79.433899 39.421997 L 80.660698 40.342102 L 80.047302 39.115303 Z M 103.969902 31.754501 L 102.1297 31.4478 L 102.1297 30.527702 L 101.516296 31.754501 L 99.982803 31.754501 L 100.902901 33.594704 L 100.902901 34.208099 L 101.516296 33.594704 L 102.436401 33.594704 L 103.049797 34.208099 L 102.743103 32.9813 Z M 80.9674 30.527702 L 80.660698 31.4478 L 80.047302 32.061203 L 79.127197 32.061203 L 80.047302 32.674599 L 79.740601 34.208099 L 80.9674 33.288002 L 82.194199 34.208099 L 81.887497 32.674599 L 82.807602 32.061203 L 81.274101 31.754501 Z M 99.676102 27.460701 L 97.835899 27.153999 L 97.529198 25.9272 L 96.915802 27.460701 L 95.382301 27.460701 L 96.6091 28.380798 L 96.6091 29.300903 L 96.302399 29.914299 L 97.529198 28.994202 L 98.755997 29.914299 L 98.449303 29.300903 L 98.449303 28.380798 Z M 87.408096 27.460701 L 85.567902 27.153999 L 85.2612 25.9272 L 84.954498 27.153999 L 83.420998 27.460701 L 84.341103 28.380798 L 84.341103 29.300903 L 84.034401 29.914299 L 84.647797 29.300903 L 85.567902 28.994202 L 86.487999 29.914299 L 86.181297 29.300903 L 86.181297 28.380798 Z M 91.395203 24.393707 L 90.781799 25.9272 L 89.555 25.9272 L 90.781799 26.847298 L 90.168404 28.380798 L 90.781799 27.767403 L 91.701897 27.460701 L 92.622002 28.380798 L 92.3153 26.847298 L 93.235397 25.9272 L 91.701897 25.620499 Z"/>
    </g>
</svg>
