<?xml version="1.0" encoding="UTF-8"?>
<!-- Generated by Pixelmator Pro 3.8 -->
<svg width="250" height="85" viewBox="0 0 250 85" xmlns="http://www.w3.org/2000/svg">
    <g id="Group">
        <path id="Path" fill="#113193" fill-rule="evenodd" stroke="none" d="M 61.190201 71.345596 L 60.627102 71.157898 L 55.5592 71.157898 L 55.746899 81.106003 L 57.436199 81.106003 L 57.8116 80.918297 L 57.999298 80.5429 L 58.187 77.164299 L 60.4394 77.164299 L 61.190201 76.976601 L 61.7533 76.601196 L 62.879501 75.2873 L 63.0672 73.973396 L 62.879501 73.034897 L 62.316399 72.096397 Z M 57.999298 73.034897 L 59.5009 73.034897 L 60.063999 73.410301 L 60.063999 74.536499 L 59.688599 74.911903 L 58.937801 75.099602 L 57.8116 74.911903 Z M 15.9545 71.345596 L 15.9545 77.727402 L 16.1422 78.665901 L 16.705299 79.604401 L 17.4561 80.355202 L 18.3946 80.918297 L 19.145399 81.106003 L 22.3363 81.106003 L 23.087099 80.918297 L 24.0256 80.355202 L 24.9641 79.416702 L 25.527201 78.290497 L 25.714899 77.539703 L 25.714899 71.345596 L 25.3395 71.157898 L 23.274799 71.157898 L 22.899401 71.533302 L 22.899401 77.539703 L 22.524 78.290497 L 22.1486 78.665901 L 21.585501 78.8536 L 19.8962 78.8536 L 19.145399 78.478203 L 18.5823 77.727402 L 18.3946 77.164299 L 18.2069 71.157898 Z M 240.255997 70.9702 L 240.443695 80.918297 L 242.696106 80.730598 L 242.883804 76.788902 L 245.511597 79.604401 L 246.450104 80.918297 L 249.641006 80.730598 L 248.890198 79.979797 L 248.139404 78.8536 L 245.511597 76.038101 L 245.511597 75.474998 L 245.699295 75.099602 L 246.8255 73.785698 L 246.8255 73.410301 L 247.200897 73.222603 L 248.139404 71.157898 L 245.699295 71.157898 L 244.573105 72.471802 L 244.385406 73.034897 L 243.822296 73.598 L 243.259201 74.724197 L 242.883804 75.099602 L 242.508408 70.9702 Z M 226.178497 70.9702 L 226.178497 80.918297 L 228.806305 80.730598 L 228.994003 75.2873 L 233.874207 80.918297 L 236.126602 80.730598 L 235.938904 70.9702 L 233.874207 70.9702 L 233.498795 71.345596 L 232.935699 76.2258 L 232.372604 75.662697 L 231.997192 74.911903 L 230.120193 73.034897 L 228.430893 70.9702 Z M 216.042694 70.9702 L 215.667297 71.533302 L 214.541107 74.348801 L 213.790298 76.788902 L 213.414902 77.164299 L 212.288696 79.979797 L 212.288696 80.918297 L 214.916504 80.730598 L 215.104202 80.355202 L 215.104202 79.792099 L 215.479599 79.416702 L 215.479599 79.228996 L 219.608994 79.041298 L 219.984406 79.416702 L 220.547501 80.918297 L 223.175293 80.5429 L 222.799896 79.979797 L 222.799896 79.604401 L 222.236801 78.290497 L 221.861404 77.9151 L 220.735199 74.911903 L 220.172104 74.161102 L 219.984406 73.222603 L 219.608994 72.847198 L 219.421295 71.908699 L 219.045898 71.533302 L 218.8582 70.9702 Z M 217.919693 74.348801 L 218.8582 76.2258 L 218.8582 77.164299 L 216.605804 76.976601 L 216.793503 75.850403 Z M 201.214401 71.157898 L 201.214401 80.918297 L 207.408493 80.918297 L 208.534698 80.355202 L 209.473206 79.228996 L 209.660904 78.478203 L 209.473206 76.976601 L 208.534698 75.850403 L 207.783905 75.474998 L 208.534698 74.724197 L 208.910095 73.973396 L 208.910095 73.410301 L 208.534698 72.471802 L 207.596207 71.533302 L 205.531494 70.9702 Z M 204.029907 76.976601 L 206.282303 76.976601 L 206.845398 77.539703 L 206.845398 78.290497 L 206.282303 78.8536 L 204.217606 78.8536 L 203.842194 78.478203 Z M 204.029907 73.034897 L 205.343796 73.034897 L 205.719193 73.222603 L 206.094604 73.598 L 206.094604 74.348801 L 205.343796 74.911903 L 204.217606 74.911903 L 203.842194 74.536499 Z M 184.884506 71.157898 L 184.884506 80.918297 L 192.392502 80.918297 L 192.392502 79.041298 L 192.017105 78.8536 L 187.3246 78.665901 L 187.136902 70.9702 Z M 174.561005 71.157898 L 174.373306 71.533302 L 174.373306 72.096397 L 173.997894 72.471802 L 173.810196 73.410301 L 173.247101 74.348801 L 173.247101 74.911903 L 172.871704 75.2873 L 172.308594 76.601196 L 172.120895 77.539703 L 171.745499 77.9151 L 171.745499 78.478203 L 170.807007 80.355202 L 170.807007 80.918297 L 173.434799 80.918297 L 173.997894 79.416702 L 174.373306 79.041298 L 178.502701 79.228996 L 179.253494 80.918297 L 181.881302 80.730598 L 181.130493 78.8536 L 180.755096 78.478203 L 180.567398 77.539703 L 180.004303 76.2258 L 179.441193 75.474998 L 179.441193 74.911903 L 178.878098 73.785698 L 178.502701 73.410301 L 178.315002 72.471802 L 177.751907 71.345596 L 177.376495 70.9702 Z M 175.874893 74.348801 L 176.250305 74.161102 L 176.625702 74.536499 L 176.625702 75.099602 L 177.564194 76.976601 L 175.1241 76.601196 L 175.1241 76.2258 L 175.499496 75.662697 Z M 160.108093 71.157898 L 160.295807 80.918297 L 162.735901 80.730598 L 163.111298 76.976601 L 163.862106 77.164299 L 164.6129 77.9151 L 164.988297 78.478203 L 165.175995 79.416702 L 165.926804 80.918297 L 168.742294 80.5429 L 167.803802 78.478203 L 167.428406 78.102798 L 167.240707 77.351997 L 166.3022 76.413498 L 167.428406 75.474998 L 167.428406 75.099602 L 167.803802 74.724197 L 167.803802 73.410301 L 167.240707 72.284103 L 166.3022 71.533302 L 165.363693 71.157898 L 164.237503 70.9702 L 160.671204 70.9702 L 160.483505 71.157898 Z M 163.111298 73.222603 L 164.800598 73.222603 L 165.175995 73.598 L 165.363693 74.348801 L 164.800598 74.911903 L 164.237503 75.099602 L 163.298996 75.099602 L 162.923599 74.724197 Z M 147.719894 70.9702 L 147.719894 73.034897 L 151.098495 73.222603 L 151.098495 80.918297 L 153.538605 80.918297 L 153.726303 73.034897 L 157.104904 72.847198 L 157.104904 70.9702 Z M 134.017807 71.157898 L 134.205505 80.918297 L 136.645599 80.730598 L 136.833298 75.2873 L 140.399597 79.416702 L 141.901199 80.918297 L 144.153595 80.730598 L 143.965897 70.9702 L 141.525803 71.157898 L 141.338104 76.601196 L 138.897995 73.973396 L 138.3349 73.034897 L 136.645599 71.157898 L 136.270203 70.9702 Z M 123.131203 70.9702 L 123.318901 80.918297 L 130.639206 80.918297 L 130.639206 79.228996 L 126.134399 79.228996 L 125.759003 78.8536 L 125.946701 76.976601 L 130.263794 76.788902 L 130.451508 76.413498 L 130.451508 75.2873 L 130.263794 74.911903 L 126.134399 74.911903 L 125.759003 74.536499 L 125.946701 73.034897 L 130.076096 73.034897 L 130.451508 72.6595 L 130.451508 71.345596 L 130.263794 70.9702 Z M 112.244598 71.908699 L 111.306099 72.6595 L 110.555298 73.598 L 109.992203 75.099602 L 109.992203 77.164299 L 110.179901 77.9151 L 110.555298 78.290497 L 110.742996 78.8536 L 112.432297 80.355202 L 113.746201 80.918297 L 115.060097 81.106003 L 116.749397 81.106003 L 117.875603 80.918297 L 119.189499 80.355202 L 119.564903 79.979797 L 119.564903 78.102798 L 119.189499 78.102798 L 118.626404 78.290497 L 118.250999 78.665901 L 116.749397 79.041298 L 115.247803 79.041298 L 114.121597 78.665901 L 112.995399 77.539703 L 112.807701 77.164299 L 112.807701 75.099602 L 113.183098 74.348801 L 113.746201 73.785698 L 115.060097 73.222603 L 116.937103 73.222603 L 119.189499 74.161102 L 119.377197 72.096397 L 118.814102 71.533302 L 116.561699 70.9702 L 115.060097 70.9702 L 113.370796 71.345596 Z M 90.471397 71.157898 L 90.471397 80.918297 L 92.911499 80.918297 L 93.099197 74.911903 L 93.849998 76.038101 L 95.163902 77.351997 L 96.2901 78.8536 L 97.2286 79.604401 L 98.167099 80.918297 L 100.419502 80.730598 L 100.419502 70.9702 L 97.979401 71.157898 L 97.603996 76.601196 L 96.2901 74.911903 L 95.726997 74.536499 L 94.976196 73.410301 L 92.723801 70.9702 Z M 80.147903 71.157898 L 80.147903 71.721001 L 79.584801 72.6595 L 79.397102 73.598 L 79.021698 73.973396 L 79.021698 74.536499 L 77.8955 76.788902 L 77.8955 77.351997 L 76.769302 79.604401 L 76.769302 80.167503 L 76.393898 80.730598 L 79.209396 80.730598 L 79.584801 79.604401 L 80.147903 79.041298 L 83.901901 79.041298 L 84.464996 79.604401 L 84.464996 80.167503 L 84.840401 80.918297 L 87.468201 80.918297 L 87.280502 79.979797 L 86.905098 79.604401 L 86.7174 78.665901 L 86.154297 77.351997 L 85.7789 76.976601 L 85.215797 75.2873 L 84.652702 74.536499 L 84.652702 73.973396 L 83.901901 72.284103 L 83.526497 71.908699 L 83.338799 71.157898 Z M 81.837196 74.161102 L 82.212601 74.536499 L 82.400299 75.2873 L 82.775703 75.662697 L 83.1511 77.164299 L 80.710999 76.976601 L 80.710999 76.413498 L 81.086403 75.850403 L 81.274101 74.724197 Z M 66.445801 70.9702 L 66.445801 80.918297 L 73.766098 80.730598 L 73.766098 79.228996 L 69.073601 79.041298 L 69.261299 76.976601 L 73.203003 76.976601 L 73.5784 76.788902 L 73.390701 74.911903 L 69.073601 74.724197 L 69.261299 73.034897 L 73.5784 72.847198 L 73.5784 70.9702 Z M 43.921799 71.345596 L 42.795601 71.908699 L 41.857101 72.6595 L 41.1063 73.598 L 41.1063 73.973396 L 40.7309 74.348801 L 40.543201 75.099602 L 40.543201 77.164299 L 41.293999 78.8536 L 42.983299 80.355202 L 44.297199 80.918297 L 45.235699 81.106003 L 47.112701 81.106003 L 48.051201 80.918297 L 49.365101 80.355202 L 51.054401 78.665901 L 51.6175 77.351997 L 51.805199 76.601196 L 51.805199 75.474998 L 51.2421 73.785698 L 49.740501 72.096397 L 49.365101 72.096397 L 48.801998 71.533302 L 46.3619 70.9702 Z M 44.297199 73.598 L 45.048 73.222603 L 47.3004 73.222603 L 48.426601 74.161102 L 48.9897 75.099602 L 48.9897 76.976601 L 48.6143 77.727402 L 47.6758 78.665901 L 47.112701 78.8536 L 45.048 78.8536 L 44.484901 78.665901 L 43.546398 77.9151 L 42.983299 76.601196 L 42.983299 75.662697 L 43.546398 74.348801 Z M 29.656601 71.157898 L 29.656601 80.918297 L 32.096699 80.730598 L 32.096699 77.351997 L 32.472099 76.976601 L 33.2229 77.164299 L 34.1614 78.102798 L 35.287601 80.730598 L 38.1031 80.918297 L 37.915401 79.979797 L 37.352299 79.228996 L 36.7892 77.539703 L 36.038399 76.788902 L 36.038399 76.038101 L 36.7892 75.474998 L 37.1646 74.724197 L 37.1646 73.410301 L 36.7892 72.471802 L 36.038399 71.721001 L 34.724499 71.157898 L 33.598301 70.9702 L 30.032 70.9702 Z M 32.472099 73.222603 L 34.349098 73.410301 L 34.5368 73.785698 L 34.5368 74.536499 L 34.1614 74.911903 L 33.410599 75.099602 L 32.284401 74.911903 Z M 5.0679 70.9702 L 5.0679 80.918297 L 12.3882 80.730598 L 12.3882 79.228996 L 7.8834 79.228996 L 7.508 78.8536 L 7.6957 76.976601 L 12.0128 76.788902 L 12.0128 74.911903 L 7.8834 74.911903 L 7.508 74.536499 L 7.6957 73.034897 L 12.2005 72.847198 L 12.0128 70.9702 Z M 97.416298 24.608307 L 97.416298 55.578796 L 158.043396 55.578796 L 157.855698 24.420593 L 149.972305 24.420593 L 149.972305 25.922195 L 149.409195 30.427002 L 149.033798 30.802399 L 148.8461 32.304001 L 147.156799 36.245697 L 146.218307 37.747299 L 144.341293 40.187401 L 142.464294 42.0644 L 140.399597 43.7537 L 139.836502 43.941399 L 138.897995 44.6922 L 138.147202 44.879898 L 137.396393 45.443001 L 134.7686 46.569199 L 132.891602 47.132301 L 131.765396 47.132301 L 131.014603 47.507698 L 129.137604 47.695396 L 126.134399 47.695396 L 124.257401 47.507698 L 123.506599 47.132301 L 122.5681 47.132301 L 121.817299 46.944603 L 121.254204 46.569199 L 120.503403 46.569199 L 119.001801 46.006104 L 118.250999 45.443001 L 116.749397 44.879898 L 116.186302 44.316803 L 115.060097 43.7537 L 113.558502 42.627502 L 110.367599 39.4366 L 109.992203 38.685806 L 108.490601 36.808807 L 107.364403 34.556396 L 107.364403 33.993301 L 106.613602 32.491699 L 106.238197 31.177795 L 106.050499 29.488495 L 105.675102 28.737701 L 105.675102 24.796005 L 105.487396 24.420593 Z M 124.632797 5.462906 L 122.943497 6.026001 L 122.004997 6.026001 L 121.441902 6.401398 L 120.315697 6.589096 L 119.001801 7.152206 L 118.626404 7.527603 L 117.875603 7.715302 L 116.937103 8.278397 L 116.374001 8.841507 L 115.810898 9.029205 L 113.933899 10.530807 L 113.183098 11.469299 L 112.995399 11.469299 L 112.244598 12.220093 L 110.179901 15.035599 L 109.992203 15.786407 L 109.4291 16.912598 L 109.053703 17.287994 L 108.865997 17.663406 L 108.865997 18.226501 L 108.490601 18.601898 L 108.302902 19.164993 L 108.302902 19.915802 L 107.927498 20.478897 L 107.739799 21.417404 L 107.739799 22.731293 L 107.364403 23.294403 L 107.364403 27.423798 L 107.739799 28.362305 L 107.739799 29.676193 L 107.927498 30.6147 L 108.302902 31.177795 L 108.302902 31.740906 L 108.865997 33.242493 L 109.4291 33.993301 L 109.616798 34.744095 L 109.992203 35.119507 L 109.992203 35.494904 L 110.742996 36.433395 L 110.742996 36.808807 L 112.432297 38.873505 L 115.435501 41.689003 L 116.186302 42.252098 L 116.561699 42.252098 L 117.124802 42.815201 L 118.814102 43.7537 L 119.752602 43.941399 L 120.127998 44.316803 L 121.629601 44.879898 L 123.131203 45.067596 L 123.506599 45.443001 L 125.383598 45.630699 L 129.513 45.630699 L 131.202301 45.443001 L 133.642395 44.879898 L 134.017807 44.504501 L 136.457901 43.7537 L 140.0242 41.501297 L 141.150406 40.562798 L 143.402802 38.122696 L 144.716705 36.245697 L 145.655197 34.556396 L 145.655197 34.181 L 146.218307 33.430206 L 146.781403 31.928604 L 146.781403 31.365494 L 147.156799 30.802399 L 147.344498 28.737701 L 147.719894 27.799194 L 147.719894 23.482101 L 147.344498 22.355896 L 147.344498 21.229706 L 147.156799 20.478897 L 146.781403 19.915802 L 146.781403 19.164993 L 145.092102 15.410995 L 144.529007 14.472504 L 142.276596 11.656998 L 140.0242 9.5923 L 138.710297 8.653793 L 136.082504 7.152206 L 135.519394 7.152206 L 134.7686 6.589096 L 130.451508 5.462906 Z M 127.636002 39.624298 L 128.011398 39.999695 L 128.199097 40.750504 L 129.513 41.1259 L 128.574493 41.876701 L 128.762207 43.190598 L 127.636002 42.627502 L 126.509804 43.002899 L 126.697502 41.876701 L 126.322098 41.501297 L 126.134399 41.501297 L 125.946701 40.750504 L 127.260597 40.562798 Z M 134.017807 39.061203 L 134.393204 38.685806 L 135.331696 38.498093 L 135.519394 37.747299 L 136.082504 37.934998 L 136.270203 38.685806 L 137.020996 38.685806 L 137.584106 39.061203 L 136.645599 39.624298 L 136.645599 40.187401 L 137.020996 40.750504 L 136.457901 40.938202 L 135.894806 40.562798 L 135.519394 40.562798 L 135.143997 40.938202 L 134.580902 40.562798 L 134.7686 39.624298 L 134.205505 39.4366 Z M 119.564903 37.559601 L 119.9403 37.934998 L 119.9403 38.685806 L 121.066498 38.685806 L 121.441902 39.061203 L 120.503403 39.999695 L 120.691101 40.938202 L 120.127998 40.938202 L 119.752602 40.562798 L 119.377197 40.562798 L 119.001801 40.938202 L 118.250999 40.750504 L 118.626404 40.375099 L 118.626404 39.624298 L 118.250999 39.624298 L 118.063301 39.248901 L 117.687897 39.061203 L 118.250999 38.685806 L 119.189499 38.498093 L 119.189499 37.934998 Z M 141.525803 31.740906 L 142.088898 32.304001 L 142.276596 32.867096 L 143.402802 33.242493 L 143.027405 33.617905 L 142.839706 33.617905 L 142.839706 34.744095 L 142.651993 35.307205 L 141.525803 34.556396 L 140.962708 35.119507 L 140.399597 34.931793 L 140.399597 34.556396 L 140.774994 33.993301 L 139.836502 33.054794 L 141.150406 32.679398 Z M 113.746201 31.740906 L 114.121597 32.116302 L 114.309303 32.867096 L 115.435501 33.054794 L 114.6847 33.993301 L 114.6847 35.119507 L 114.309303 35.119507 L 114.121597 34.744095 L 113.746201 34.556396 L 112.620003 35.307205 L 112.620003 33.617905 L 112.244598 33.617905 L 112.0569 32.867096 L 113.183098 32.867096 L 113.183098 32.491699 Z M 145.467499 25.171402 L 144.716705 25.734497 L 144.904404 26.485306 L 144.529007 27.048401 L 143.5905 26.485306 L 143.027405 27.048401 L 142.464294 26.860703 L 142.651993 25.734497 L 141.901199 25.171402 L 142.276596 24.796005 L 143.215103 24.608307 L 144.153595 24.045197 L 144.341293 24.796005 L 145.092102 24.796005 Z M 111.493797 23.6698 L 111.869202 24.045197 L 112.0569 24.796005 L 112.995399 24.796005 L 113.370796 25.171402 L 112.432297 26.109894 L 112.244598 27.048401 L 111.493797 26.485306 L 110.367599 26.860703 L 110.555298 25.922195 L 109.804497 25.171402 L 110.179901 24.796005 L 110.930702 24.796005 L 111.118401 24.045197 Z M 139.648804 16.912598 L 141.150406 16.537201 L 141.713501 15.598694 L 142.088898 15.974106 L 142.276596 16.724899 L 143.402802 17.100296 L 142.651993 17.851105 L 142.651993 18.226501 L 142.839706 18.4142 L 142.651993 19.164993 L 142.088898 18.601898 L 141.525803 18.4142 L 140.399597 18.977295 L 140.399597 18.4142 L 140.774994 17.851105 Z M 113.746201 15.598694 L 114.121597 15.974106 L 114.309303 16.537201 L 115.435501 17.100296 L 115.060097 17.475693 L 114.872398 17.475693 L 114.497002 18.977295 L 113.746201 18.4142 L 113.183098 18.601898 L 112.995399 18.977295 L 112.620003 19.164993 L 112.807701 17.851105 L 112.620003 17.475693 L 112.0569 17.287994 L 111.869202 16.912598 L 113.183098 16.537201 Z M 125.759003 14.660202 L 127.072899 14.472504 L 130.263794 14.472504 L 131.577698 14.660202 L 134.205505 15.786407 L 136.270203 17.287994 L 136.645599 17.851105 L 136.082504 19.352707 L 135.519394 19.728104 L 134.205505 18.4142 L 132.328506 17.287994 L 131.765396 17.287994 L 131.389999 16.912598 L 130.263794 16.724899 L 127.072899 16.724899 L 125.946701 16.912598 L 125.571297 17.287994 L 125.008202 17.287994 L 123.882004 17.851105 L 122.5681 18.977295 L 122.380402 18.977295 L 120.878799 20.854294 L 120.127998 22.355896 L 120.127998 22.919006 L 134.393204 23.106705 L 134.205505 24.045197 L 133.830093 24.420593 L 133.830093 24.608307 L 119.377197 24.983704 L 119.564903 26.297607 L 132.703903 26.485306 L 132.516205 27.611496 L 132.140793 27.986893 L 131.953094 28.550003 L 119.9403 28.550003 L 119.9403 28.9254 L 121.066498 30.990097 L 122.943497 32.867096 L 124.820503 33.993301 L 125.383598 34.181 L 126.134399 34.181 L 126.509804 34.556396 L 130.451508 34.556396 L 130.826904 34.181 L 132.140793 33.993301 L 133.642395 33.054794 L 135.143997 31.740906 L 135.707108 31.928604 L 135.707108 33.993301 L 134.205505 35.307205 L 131.765396 36.433395 L 130.826904 36.433395 L 130.451508 36.808807 L 126.509804 36.808807 L 126.134399 36.433395 L 124.632797 36.245697 L 124.257401 35.8703 L 122.755798 35.307205 L 121.066498 33.993301 L 118.626404 31.177795 L 118.626404 30.802399 L 118.250999 30.427002 L 118.063301 30.051605 L 118.063301 29.488495 L 117.687897 29.113098 L 117.500198 28.550003 L 114.497002 28.362305 L 114.497002 27.986893 L 115.060097 26.860703 L 115.435501 26.485306 L 117.124802 26.485306 L 117.124802 24.983704 L 115.060097 24.983704 L 114.497002 24.608307 L 115.247803 23.106705 L 115.623199 22.731293 L 117.687897 22.543594 L 117.687897 22.355896 L 118.063301 21.980499 L 118.250999 21.042007 L 118.626404 20.666595 L 118.626404 20.291199 L 119.189499 19.728104 L 119.189499 19.352707 L 121.629601 16.724899 L 122.755798 15.974106 Z M 135.894806 9.5923 L 136.270203 10.530807 L 137.396393 10.906204 L 137.208694 11.469299 L 136.645599 11.844696 L 136.645599 12.220093 L 137.020996 12.970901 L 136.645599 13.1586 L 136.270203 12.783203 L 135.707108 12.595505 L 135.331696 12.970901 L 134.7686 13.1586 L 134.580902 12.783203 L 134.7686 11.844696 L 134.205505 10.718506 L 134.956299 10.718506 Z M 119.377197 9.5923 L 119.9403 10.155396 L 120.127998 10.718506 L 121.066498 10.718506 L 121.254204 11.469299 L 120.503403 11.844696 L 120.503403 13.1586 L 119.752602 12.595505 L 119.377197 12.595505 L 119.001801 12.970901 L 118.250999 12.783203 L 118.626404 12.407806 L 118.438698 11.656998 L 117.875603 11.469299 L 117.687897 11.093903 L 118.063301 10.718506 L 119.189499 10.718506 Z M 127.636002 7.339905 L 128.011398 7.715302 L 128.199097 8.466095 L 129.513 8.841507 L 128.762207 9.5923 L 128.762207 10.906204 L 128.386795 10.906204 L 127.8237 10.343094 L 126.509804 10.718506 L 126.697502 9.5923 L 125.946701 8.466095 L 127.260597 8.278397 Z"/>
        <path id="path1" fill="#fbf254" fill-rule="evenodd" stroke="none" d="M 126.134399 41.1259 L 127.072899 41.876701 L 126.885201 43.002899 L 127.448303 42.439796 L 127.8237 42.439796 L 128.762207 43.002899 L 128.386795 41.876701 L 129.137604 41.1259 L 128.386795 41.1259 L 128.011398 40.750504 L 127.636002 39.999695 L 127.636002 40.375099 L 127.260597 40.938202 L 126.885201 41.1259 Z M 135.519394 37.934998 L 135.519394 38.498093 L 134.956299 39.061203 L 134.205505 39.061203 L 134.580902 39.4366 L 134.7686 39.4366 L 134.7686 40.750504 L 135.894806 40.187401 L 136.645599 40.750504 L 136.457901 39.624298 L 137.208694 39.061203 L 136.457901 39.061203 L 135.894806 38.498093 L 135.894806 37.934998 Z M 119.377197 37.934998 L 119.377197 38.498093 L 118.814102 39.061203 L 118.063301 39.061203 L 118.438698 39.4366 L 118.626404 39.4366 L 118.626404 40.750504 L 119.564903 40.187401 L 120.503403 40.750504 L 120.315697 39.811996 L 121.254204 39.061203 L 120.127998 39.061203 L 119.752602 38.685806 L 119.752602 37.934998 Z M 113.746201 32.116302 L 113.370796 32.867096 L 112.0569 33.054794 L 113.183098 33.993301 L 112.807701 34.368698 L 112.807701 34.931793 L 113.558502 34.368698 L 113.933899 34.368698 L 114.497002 34.931793 L 114.6847 34.368698 L 114.497002 34.181 L 114.497002 33.805603 L 115.060097 33.054794 L 114.309303 33.054794 L 113.933899 32.679398 Z M 141.525803 31.928604 L 141.525803 32.491699 L 140.962708 33.054794 L 140.211899 33.054794 L 140.962708 34.181 L 140.774994 34.931793 L 141.150406 34.556396 L 141.713501 34.368698 L 142.651993 34.931793 L 142.651993 33.430206 L 142.839706 33.430206 L 143.215103 33.054794 L 141.901199 32.867096 L 141.901199 32.304001 Z M 145.2798 25.171402 L 143.965897 24.796005 L 143.778198 24.045197 L 143.402802 24.796005 L 142.088898 25.171402 L 142.839706 25.546799 L 143.027405 26.109894 L 142.651993 26.860703 L 143.027405 26.860703 L 143.778198 26.297607 L 144.153595 26.673004 L 144.716705 26.860703 L 144.529007 25.734497 Z M 113.183098 25.171402 L 112.807701 24.983704 L 112.0569 24.983704 L 111.681503 24.608307 L 111.493797 24.045197 L 111.118401 24.796005 L 109.992203 25.171402 L 110.742996 25.734497 L 110.555298 26.673004 L 110.930702 26.673004 L 111.306099 26.297607 L 111.681503 26.297607 L 112.0569 26.673004 L 112.432297 26.673004 L 112.432297 25.546799 Z M 139.836502 16.912598 L 140.962708 18.038803 L 140.587296 18.789597 L 141.713501 18.226501 L 142.651993 18.789597 L 142.464294 17.663406 L 143.215103 16.912598 L 142.276596 16.912598 L 141.901199 16.537201 L 141.901199 16.161804 L 141.525803 15.786407 L 141.525803 16.349503 L 140.962708 16.912598 Z M 115.247803 16.912598 L 114.121597 16.724899 L 113.746201 15.786407 L 113.370796 16.724899 L 112.0569 16.912598 L 112.995399 17.663406 L 112.807701 18.601898 L 113.558502 18.226501 L 113.933899 18.226501 L 114.309303 18.601898 L 114.6847 18.601898 L 114.497002 17.663406 Z M 127.072899 14.660202 L 124.820503 15.223297 L 122.192703 16.537201 L 119.9403 18.601898 L 119.9403 18.977295 L 119.001801 20.1035 L 118.438698 21.229706 L 118.063301 22.543594 L 117.687897 22.919006 L 115.435501 23.106705 L 115.435501 23.482101 L 115.060097 23.857498 L 114.872398 24.608307 L 117.124802 24.608307 L 117.500198 24.983704 L 117.3125 26.673004 L 116.937103 26.860703 L 115.435501 26.860703 L 115.060097 27.236099 L 115.060097 27.611496 L 114.6847 28.362305 L 117.500198 28.362305 L 118.250999 29.300797 L 118.250999 29.863907 L 119.377197 31.928604 L 122.004997 34.556396 L 122.5681 34.931793 L 125.383598 36.245697 L 126.322098 36.245697 L 127.260597 36.621094 L 129.700699 36.621094 L 132.140793 36.057999 L 133.454697 35.494904 L 133.830093 35.119507 L 134.205505 35.119507 L 134.7686 34.556396 L 134.956299 34.556396 L 135.331696 34.181 L 135.331696 31.928604 L 134.956299 32.116302 L 134.580902 32.679398 L 132.891602 33.805603 L 132.140793 34.181 L 131.577698 34.181 L 130.451508 34.744095 L 126.509804 34.744095 L 125.1959 34.368698 L 123.694298 33.617905 L 122.192703 32.491699 L 120.315697 30.239304 L 119.752602 29.113098 L 119.752602 28.550003 L 120.127998 28.174606 L 131.953094 28.174606 L 132.516205 26.673004 L 119.752602 26.673004 L 119.377197 26.485306 L 119.189499 24.983704 L 119.564903 24.608307 L 133.642395 24.608307 L 133.830093 23.857498 L 134.205505 23.482101 L 134.205505 23.106705 L 119.752602 22.919006 L 119.752602 22.543594 L 120.127998 22.168198 L 120.503403 21.042007 L 121.441902 19.728104 L 122.755798 18.4142 L 124.069702 17.475693 L 125.1959 16.912598 L 127.260597 16.349503 L 129.888397 16.349503 L 130.639206 16.724899 L 131.389999 16.724899 L 132.891602 17.287994 L 134.017807 18.038803 L 134.7686 18.789597 L 135.894806 19.164993 L 136.457901 17.851105 L 134.7686 16.349503 L 132.516205 15.223297 L 130.263794 14.660202 Z M 135.894806 9.967697 L 135.519394 10.155396 L 135.519394 10.530807 L 135.143997 10.906204 L 134.205505 10.906204 L 134.580902 11.469299 L 134.7686 11.469299 L 134.7686 12.970901 L 135.519394 12.407806 L 136.082504 12.407806 L 136.457901 12.783203 L 136.457901 11.844696 L 137.208694 10.906204 L 136.082504 10.718506 Z M 121.066498 10.906204 L 119.752602 10.718506 L 119.377197 9.967697 L 119.189499 10.906204 L 118.063301 10.906204 L 118.063301 11.281601 L 118.814102 11.844696 L 118.626404 12.970901 L 119.189499 12.407806 L 119.9403 12.407806 L 120.503403 12.783203 L 120.315697 11.844696 L 121.066498 11.281601 Z M 125.946701 8.653793 L 126.134399 9.029205 L 126.885201 9.404602 L 127.072899 9.779999 L 126.697502 10.530807 L 127.072899 10.530807 L 127.8237 10.155396 L 128.199097 10.530807 L 128.762207 10.718506 L 128.574493 9.404602 L 129.137604 9.029205 L 129.325302 8.653793 L 128.011398 8.466095 L 127.636002 7.715302 L 127.636002 8.090698 L 127.072899 8.653793 Z"/>
    </g>
</svg>
