<?xml version="1.0" encoding="UTF-8"?>
<svg xmlns="http://www.w3.org/2000/svg" viewBox="0 0 250 250" role="img" aria-label="European Central Bank logo">
<title>European Central Bank</title>
<g transform="translate(0 81.0811) scale(0.1877)">
<path fill="#113193" fill-rule="evenodd" d="M326 385L323 384L296 384L297 437L306 437L308 436L309 434L310 416L322 416L326 415L329 413L335 406L336 399L335 394L332 389ZM309 394L317 394L320 396L320 402L318 404L314 405L308 404ZM85 385L85 419L86 424L89 429L93 433L98 436L102 437L119 437L123 436L128 433L133 428L136 422L137 418L137 385L135 384L124 384L122 386L122 418L120 422L118 424L115 425L106 425L102 423L99 419L98 416L97 384ZM1280 383L1281 436L1293 435L1294 414L1308 429L1313 436L1330 435L1326 431L1322 425L1308 410L1308 407L1309 405L1315 398L1315 396L1317 395L1322 384L1309 384L1303 391L1302 394L1299 397L1296 403L1294 405L1292 383ZM1205 383L1205 436L1219 435L1220 406L1246 436L1258 435L1257 383L1246 383L1244 385L1241 411L1238 408L1236 404L1226 394L1217 383ZM1151 383L1149 386L1143 401L1139 414L1137 416L1131 431L1131 436L1145 435L1146 433L1146 430L1148 428L1148 427L1170 426L1172 428L1175 436L1189 434L1187 431L1187 429L1184 422L1182 420L1176 404L1173 400L1172 395L1170 393L1169 388L1167 386L1166 383ZM1161 401L1166 411L1166 416L1154 415L1155 409ZM1072 384L1072 436L1105 436L1111 433L1116 427L1117 423L1116 415L1111 409L1107 407L1111 403L1113 399L1113 396L1111 391L1106 386L1095 383ZM1087 415L1099 415L1102 418L1102 422L1099 425L1088 425L1086 423ZM1087 394L1094 394L1096 395L1098 397L1098 401L1094 404L1088 404L1086 402ZM985 384L985 436L1025 436L1025 426L1023 425L998 424L997 383ZM930 384L929 386L929 389L927 391L926 396L923 401L923 404L921 406L918 413L917 418L915 420L915 423L910 433L910 436L924 436L927 428L929 426L951 427L955 436L969 435L965 425L963 423L962 418L959 411L956 407L956 404L953 398L951 396L950 391L947 385L945 383ZM937 401L939 400L941 402L941 405L946 415L933 413L933 411L935 408ZM853 384L854 436L867 435L869 415L873 416L877 420L879 423L880 428L884 436L899 434L894 423L892 421L891 417L886 412L892 407L892 405L894 403L894 396L891 390L886 386L881 384L875 383L856 383L855 384ZM869 395L878 395L880 397L881 401L878 404L875 405L870 405L868 403ZM787 383L787 394L805 395L805 436L818 436L819 394L837 393L837 383ZM714 384L715 436L728 435L729 406L748 428L756 436L768 435L767 383L754 384L753 413L740 399L737 394L728 384L726 383ZM656 383L657 436L696 436L696 427L672 427L670 425L671 415L694 414L695 412L695 406L694 404L672 404L670 402L671 394L693 394L695 392L695 385L694 383ZM598 388L593 392L589 397L586 405L586 416L587 420L589 422L590 425L599 433L606 436L613 437L622 437L628 436L635 433L637 431L637 421L635 421L632 422L630 424L622 426L614 426L608 424L602 418L601 416L601 405L603 401L606 398L613 395L623 395L635 400L636 389L633 386L621 383L613 383L604 385ZM482 384L482 436L495 436L496 404L500 410L507 417L513 425L518 429L523 436L535 435L535 383L522 384L520 413L513 404L510 402L506 396L494 383ZM427 384L427 387L424 392L423 397L421 399L421 402L415 414L415 417L409 429L409 432L407 435L422 435L424 429L427 426L447 426L450 429L450 432L452 436L466 436L465 431L463 429L462 424L459 417L457 415L454 406L451 402L451 399L447 390L445 388L444 384ZM436 400L438 402L439 406L441 408L443 416L430 415L430 412L432 409L433 403ZM354 383L354 436L393 435L393 427L368 426L369 415L390 415L392 414L391 404L368 403L369 394L392 393L392 383ZM234 385L228 388L223 392L219 397L219 399L217 401L216 405L216 416L220 425L229 433L236 436L241 437L251 437L256 436L263 433L272 424L275 417L276 413L276 407L273 398L265 389L263 389L260 386L247 383ZM236 397L240 395L252 395L258 400L261 405L261 415L259 419L254 424L251 425L240 425L237 424L232 420L229 413L229 408L232 401ZM158 384L158 436L171 435L171 417L173 415L177 416L182 421L188 435L203 436L202 431L199 427L196 418L192 414L192 410L196 407L198 403L198 396L196 391L192 387L185 384L179 383L160 383ZM173 395L183 396L184 398L184 402L182 404L178 405L172 404ZM27 383L27 436L66 435L66 427L42 427L40 425L41 415L64 414L64 404L42 404L40 402L41 394L65 393L64 383ZM519 136L519 301L842 301L841 135L799 135L799 143L796 167L794 169L793 177L784 198L779 206L769 219L759 229L748 238L745 239L740 243L736 244L732 247L718 253L708 256L702 256L698 258L688 259L672 259L662 258L658 256L653 256L649 255L646 253L642 253L634 250L630 247L622 244L619 241L613 238L605 232L588 215L586 211L578 201L572 189L572 186L568 178L566 171L565 162L563 158L563 137L562 135ZM664 34L655 37L650 37L647 39L641 40L634 43L632 45L628 46L623 49L620 52L617 53L607 61L603 66L602 66L598 70L587 85L586 89L583 95L581 97L580 99L580 102L578 104L577 107L577 111L575 114L574 119L574 126L572 129L572 151L574 156L574 163L575 168L577 171L577 174L580 182L583 186L584 190L586 192L586 194L590 199L590 201L599 212L615 227L619 230L621 230L624 233L633 238L638 239L640 241L648 244L656 245L658 247L668 248L690 248L699 247L712 244L714 242L727 238L746 226L752 221L764 208L771 198L776 189L776 187L779 183L782 175L782 172L784 169L785 158L787 153L787 130L785 124L785 118L784 114L782 111L782 107L773 87L770 82L758 67L746 56L739 51L725 43L722 43L718 40L695 34ZM680 216L682 218L683 222L690 224L685 228L686 235L680 232L674 234L675 228L673 226L672 226L671 222L678 221ZM714 213L716 211L721 210L722 206L725 207L726 211L730 211L733 213L728 216L728 219L730 222L727 223L724 221L722 221L720 223L717 221L718 216L715 215ZM637 205L639 207L639 211L645 211L647 213L642 218L643 223L640 223L638 221L636 221L634 223L630 222L632 220L632 216L630 216L629 214L627 213L630 211L635 210L635 207ZM754 174L757 177L758 180L764 182L762 184L761 184L761 190L760 193L754 189L751 192L748 191L748 189L750 186L745 181L752 179ZM606 174L608 176L609 180L615 181L611 186L611 192L609 192L608 190L606 189L600 193L600 184L598 184L597 180L603 180L603 178ZM775 139L771 142L772 146L770 149L765 146L762 149L759 148L760 142L756 139L758 137L763 136L768 133L769 137L773 137ZM594 131L596 133L597 137L602 137L604 139L599 144L598 149L594 146L588 148L589 143L585 139L587 137L591 137L592 133ZM744 95L752 93L755 88L757 90L758 94L764 96L760 100L760 102L761 103L760 107L757 104L754 103L748 106L748 103L750 100ZM606 88L608 90L609 93L615 96L613 98L612 98L610 106L606 103L603 104L602 106L600 107L601 100L600 98L597 97L596 95L603 93ZM670 83L677 82L694 82L701 83L715 89L726 97L728 100L725 108L722 110L715 103L705 97L702 97L700 95L694 94L677 94L671 95L669 97L666 97L660 100L653 106L652 106L644 116L640 124L640 127L716 128L715 133L713 135L713 136L636 138L637 145L707 146L706 152L704 154L703 157L639 157L639 159L645 170L655 180L665 186L668 187L672 187L674 189L695 189L697 187L704 186L712 181L720 174L723 175L723 186L715 193L702 199L697 199L695 201L674 201L672 199L664 198L662 196L654 193L645 186L632 171L632 169L630 167L629 165L629 162L627 160L626 157L610 156L610 154L613 148L615 146L624 146L624 138L613 138L610 136L614 128L616 126L627 125L627 124L629 122L630 117L632 115L632 113L635 110L635 108L648 94L654 90ZM724 56L726 61L732 63L731 66L728 68L728 70L730 74L728 75L726 73L723 72L721 74L718 75L717 73L718 68L715 62L719 62ZM636 56L639 59L640 62L645 62L646 66L642 68L642 75L638 72L636 72L634 74L630 73L632 71L631 67L628 66L627 64L629 62L635 62ZM680 44L682 46L683 50L690 52L686 56L686 63L684 63L681 60L674 62L675 56L671 50L678 49Z"/>
<path fill="#fbf254" fill-rule="evenodd" d="M672 224L677 228L676 234L679 231L681 231L686 234L684 228L688 224L684 224L682 222L680 218L680 220L678 223L676 224ZM722 207L722 210L719 213L715 213L717 215L718 215L718 222L724 219L728 222L727 216L731 213L727 213L724 210L724 207ZM636 207L636 210L633 213L629 213L631 215L632 215L632 222L637 219L642 222L641 217L646 213L640 213L638 211L638 207ZM606 176L604 180L597 181L603 186L601 188L601 191L605 188L607 188L610 191L611 188L610 187L610 185L613 181L609 181L607 179ZM754 175L754 178L751 181L747 181L751 187L750 191L752 189L755 188L760 191L760 183L761 183L763 181L756 180L756 177ZM774 139L767 137L766 133L764 137L757 139L761 141L762 144L760 148L762 148L766 145L768 147L771 148L770 142ZM603 139L601 138L597 138L595 136L594 133L592 137L586 139L590 142L589 147L591 147L593 145L595 145L597 147L599 147L599 141ZM745 95L751 101L749 105L755 102L760 105L759 99L763 95L758 95L756 93L756 91L754 89L754 92L751 95ZM614 95L608 94L606 89L604 94L597 95L602 99L601 104L605 102L607 102L609 104L611 104L610 99ZM677 83L665 86L651 93L639 104L639 106L634 112L631 118L629 125L627 127L615 128L615 130L613 132L612 136L624 136L626 138L625 147L623 148L615 148L613 150L613 152L611 156L626 156L630 161L630 164L636 175L650 189L653 191L668 198L673 198L678 200L691 200L704 197L711 194L713 192L715 192L718 189L719 189L721 187L721 175L719 176L717 179L708 185L704 187L701 187L695 190L674 190L667 188L659 184L651 178L641 166L638 160L638 157L640 155L703 155L706 147L638 147L636 146L635 138L637 136L712 136L713 132L715 130L715 128L638 127L638 125L640 123L642 117L647 110L654 103L661 98L667 95L678 92L692 92L696 94L700 94L708 97L714 101L718 105L724 107L727 100L718 92L706 86L694 83ZM724 58L722 59L722 61L720 63L715 63L717 66L718 66L718 74L722 71L725 71L727 73L727 68L731 63L725 62ZM645 63L638 62L636 58L635 63L629 63L629 65L633 68L632 74L635 71L639 71L642 73L641 68L645 65ZM671 51L672 53L676 55L677 57L675 61L677 61L681 59L683 61L686 62L685 55L688 53L689 51L682 50L680 46L680 48L677 51Z"/>
</g>
</svg>
