<?xml version="1.0" encoding="UTF-8"?>
<!-- Generated by Pixelmator Pro 3.8 -->
<svg width="245" height="77" viewBox="0 0 245 77" xmlns="http://www.w3.org/2000/svg">
    <g id="Group">
        <path id="Path" fill="#113193" fill-rule="evenodd" stroke="none" d="M 56.190201 66.345596 L 55.627102 66.157898 L 50.5592 66.157898 L 50.746899 76.106003 L 52.436199 76.106003 L 52.8116 75.918297 L 52.999298 75.5429 L 53.187 72.164299 L 55.4394 72.164299 L 56.190201 71.976601 L 56.7533 71.601196 L 57.879501 70.2873 L 58.0672 68.973396 L 57.879501 68.034897 L 57.316399 67.096397 Z M 52.999298 68.034897 L 54.5009 68.034897 L 55.063999 68.410301 L 55.063999 69.536499 L 54.688599 69.911903 L 53.937801 70.099602 L 52.8116 69.911903 Z M 10.9545 66.345596 L 10.9545 72.727402 L 11.1422 73.665901 L 11.705299 74.604401 L 12.4561 75.355202 L 13.3946 75.918297 L 14.145399 76.106003 L 17.3363 76.106003 L 18.087099 75.918297 L 19.0256 75.355202 L 19.9641 74.416702 L 20.527201 73.290497 L 20.714899 72.539703 L 20.714899 66.345596 L 20.3395 66.157898 L 18.274799 66.157898 L 17.899401 66.533302 L 17.899401 72.539703 L 17.524 73.290497 L 17.1486 73.665901 L 16.585501 73.8536 L 14.8962 73.8536 L 14.145399 73.478203 L 13.5823 72.727402 L 13.3946 72.164299 L 13.2069 66.157898 Z M 235.255997 65.9702 L 235.443695 75.918297 L 237.696106 75.730598 L 237.883804 71.788902 L 240.511597 74.604401 L 241.450104 75.918297 L 244.641006 75.730598 L 243.890198 74.979797 L 243.139404 73.8536 L 240.511597 71.038101 L 240.511597 70.474998 L 240.699295 70.099602 L 241.8255 68.785698 L 241.8255 68.410301 L 242.200897 68.222603 L 243.139404 66.157898 L 240.699295 66.157898 L 239.573105 67.471802 L 239.385406 68.034897 L 238.822296 68.598 L 238.259201 69.724197 L 237.883804 70.099602 L 237.508408 65.9702 Z M 221.178497 65.9702 L 221.178497 75.918297 L 223.806305 75.730598 L 223.994003 70.2873 L 228.874207 75.918297 L 231.126602 75.730598 L 230.938904 65.9702 L 228.874207 65.9702 L 228.498795 66.345596 L 227.935699 71.2258 L 227.372604 70.662697 L 226.997192 69.911903 L 225.120193 68.034897 L 223.430893 65.9702 Z M 211.042694 65.9702 L 210.667297 66.533302 L 209.541107 69.348801 L 208.790298 71.788902 L 208.414902 72.164299 L 207.288696 74.979797 L 207.288696 75.918297 L 209.916504 75.730598 L 210.104202 75.355202 L 210.104202 74.792099 L 210.479599 74.416702 L 210.479599 74.228996 L 214.608994 74.041298 L 214.984406 74.416702 L 215.547501 75.918297 L 218.175293 75.5429 L 217.799896 74.979797 L 217.799896 74.604401 L 217.236801 73.290497 L 216.861404 72.9151 L 215.735199 69.911903 L 215.172104 69.161102 L 214.984406 68.222603 L 214.608994 67.847198 L 214.421295 66.908699 L 214.045898 66.533302 L 213.8582 65.9702 Z M 212.919693 69.348801 L 213.8582 71.2258 L 213.8582 72.164299 L 211.605804 71.976601 L 211.793503 70.850403 Z M 196.214401 66.157898 L 196.214401 75.918297 L 202.408493 75.918297 L 203.534698 75.355202 L 204.473206 74.228996 L 204.660904 73.478203 L 204.473206 71.976601 L 203.534698 70.850403 L 202.783905 70.474998 L 203.534698 69.724197 L 203.910095 68.973396 L 203.910095 68.410301 L 203.534698 67.471802 L 202.596207 66.533302 L 200.531494 65.9702 Z M 199.029907 71.976601 L 201.282303 71.976601 L 201.845398 72.539703 L 201.845398 73.290497 L 201.282303 73.8536 L 199.217606 73.8536 L 198.842194 73.478203 Z M 199.029907 68.034897 L 200.343796 68.034897 L 200.719193 68.222603 L 201.094604 68.598 L 201.094604 69.348801 L 200.343796 69.911903 L 199.217606 69.911903 L 198.842194 69.536499 Z M 179.884506 66.157898 L 179.884506 75.918297 L 187.392502 75.918297 L 187.392502 74.041298 L 187.017105 73.8536 L 182.3246 73.665901 L 182.136902 65.9702 Z M 169.561005 66.157898 L 169.373306 66.533302 L 169.373306 67.096397 L 168.997894 67.471802 L 168.810196 68.410301 L 168.247101 69.348801 L 168.247101 69.911903 L 167.871704 70.2873 L 167.308594 71.601196 L 167.120895 72.539703 L 166.745499 72.9151 L 166.745499 73.478203 L 165.807007 75.355202 L 165.807007 75.918297 L 168.434799 75.918297 L 168.997894 74.416702 L 169.373306 74.041298 L 173.502701 74.228996 L 174.253494 75.918297 L 176.881302 75.730598 L 176.130493 73.8536 L 175.755096 73.478203 L 175.567398 72.539703 L 175.004303 71.2258 L 174.441193 70.474998 L 174.441193 69.911903 L 173.878098 68.785698 L 173.502701 68.410301 L 173.315002 67.471802 L 172.751907 66.345596 L 172.376495 65.9702 Z M 170.874893 69.348801 L 171.250305 69.161102 L 171.625702 69.536499 L 171.625702 70.099602 L 172.564194 71.976601 L 170.1241 71.601196 L 170.1241 71.2258 L 170.499496 70.662697 Z M 155.108093 66.157898 L 155.295807 75.918297 L 157.735901 75.730598 L 158.111298 71.976601 L 158.862106 72.164299 L 159.6129 72.9151 L 159.988297 73.478203 L 160.175995 74.416702 L 160.926804 75.918297 L 163.742294 75.5429 L 162.803802 73.478203 L 162.428406 73.102798 L 162.240707 72.351997 L 161.3022 71.413498 L 162.428406 70.474998 L 162.428406 70.099602 L 162.803802 69.724197 L 162.803802 68.410301 L 162.240707 67.284103 L 161.3022 66.533302 L 160.363693 66.157898 L 159.237503 65.9702 L 155.671204 65.9702 L 155.483505 66.157898 Z M 158.111298 68.222603 L 159.800598 68.222603 L 160.175995 68.598 L 160.363693 69.348801 L 159.800598 69.911903 L 159.237503 70.099602 L 158.298996 70.099602 L 157.923599 69.724197 Z M 142.719894 65.9702 L 142.719894 68.034897 L 146.098495 68.222603 L 146.098495 75.918297 L 148.538605 75.918297 L 148.726303 68.034897 L 152.104904 67.847198 L 152.104904 65.9702 Z M 129.017807 66.157898 L 129.205505 75.918297 L 131.645599 75.730598 L 131.833298 70.2873 L 135.399597 74.416702 L 136.901199 75.918297 L 139.153595 75.730598 L 138.965897 65.9702 L 136.525803 66.157898 L 136.338104 71.601196 L 133.897995 68.973396 L 133.3349 68.034897 L 131.645599 66.157898 L 131.270203 65.9702 Z M 118.131203 65.9702 L 118.318901 75.918297 L 125.639206 75.918297 L 125.639206 74.228996 L 121.134399 74.228996 L 120.759003 73.8536 L 120.946701 71.976601 L 125.263794 71.788902 L 125.451508 71.413498 L 125.451508 70.2873 L 125.263794 69.911903 L 121.134399 69.911903 L 120.759003 69.536499 L 120.946701 68.034897 L 125.076096 68.034897 L 125.451508 67.6595 L 125.451508 66.345596 L 125.263794 65.9702 Z M 107.244598 66.908699 L 106.306099 67.6595 L 105.555298 68.598 L 104.992203 70.099602 L 104.992203 72.164299 L 105.179901 72.9151 L 105.555298 73.290497 L 105.742996 73.8536 L 107.432297 75.355202 L 108.746201 75.918297 L 110.060097 76.106003 L 111.749397 76.106003 L 112.875603 75.918297 L 114.189499 75.355202 L 114.564903 74.979797 L 114.564903 73.102798 L 114.189499 73.102798 L 113.626404 73.290497 L 113.250999 73.665901 L 111.749397 74.041298 L 110.247803 74.041298 L 109.121597 73.665901 L 107.995399 72.539703 L 107.807701 72.164299 L 107.807701 70.099602 L 108.183098 69.348801 L 108.746201 68.785698 L 110.060097 68.222603 L 111.937103 68.222603 L 114.189499 69.161102 L 114.377197 67.096397 L 113.814102 66.533302 L 111.561699 65.9702 L 110.060097 65.9702 L 108.370796 66.345596 Z M 85.471397 66.157898 L 85.471397 75.918297 L 87.911499 75.918297 L 88.099197 69.911903 L 88.849998 71.038101 L 90.163902 72.351997 L 91.2901 73.8536 L 92.2286 74.604401 L 93.167099 75.918297 L 95.419502 75.730598 L 95.419502 65.9702 L 92.979401 66.157898 L 92.603996 71.601196 L 91.2901 69.911903 L 90.726997 69.536499 L 89.976196 68.410301 L 87.723801 65.9702 Z M 75.147903 66.157898 L 75.147903 66.721001 L 74.584801 67.6595 L 74.397102 68.598 L 74.021698 68.973396 L 74.021698 69.536499 L 72.8955 71.788902 L 72.8955 72.351997 L 71.769302 74.604401 L 71.769302 75.167503 L 71.393898 75.730598 L 74.209396 75.730598 L 74.584801 74.604401 L 75.147903 74.041298 L 78.901901 74.041298 L 79.464996 74.604401 L 79.464996 75.167503 L 79.840401 75.918297 L 82.468201 75.918297 L 82.280502 74.979797 L 81.905098 74.604401 L 81.7174 73.665901 L 81.154297 72.351997 L 80.7789 71.976601 L 80.215797 70.2873 L 79.652702 69.536499 L 79.652702 68.973396 L 78.901901 67.284103 L 78.526497 66.908699 L 78.338799 66.157898 Z M 76.837196 69.161102 L 77.212601 69.536499 L 77.400299 70.2873 L 77.775703 70.662697 L 78.1511 72.164299 L 75.710999 71.976601 L 75.710999 71.413498 L 76.086403 70.850403 L 76.274101 69.724197 Z M 61.445801 65.9702 L 61.445801 75.918297 L 68.766098 75.730598 L 68.766098 74.228996 L 64.073601 74.041298 L 64.261299 71.976601 L 68.203003 71.976601 L 68.5784 71.788902 L 68.390701 69.911903 L 64.073601 69.724197 L 64.261299 68.034897 L 68.5784 67.847198 L 68.5784 65.9702 Z M 38.921799 66.345596 L 37.795601 66.908699 L 36.857101 67.6595 L 36.1063 68.598 L 36.1063 68.973396 L 35.7309 69.348801 L 35.543201 70.099602 L 35.543201 72.164299 L 36.293999 73.8536 L 37.983299 75.355202 L 39.297199 75.918297 L 40.235699 76.106003 L 42.112701 76.106003 L 43.051201 75.918297 L 44.365101 75.355202 L 46.054401 73.665901 L 46.6175 72.351997 L 46.805199 71.601196 L 46.805199 70.474998 L 46.2421 68.785698 L 44.740501 67.096397 L 44.365101 67.096397 L 43.801998 66.533302 L 41.3619 65.9702 Z M 39.297199 68.598 L 40.048 68.222603 L 42.3004 68.222603 L 43.426601 69.161102 L 43.9897 70.099602 L 43.9897 71.976601 L 43.6143 72.727402 L 42.6758 73.665901 L 42.112701 73.8536 L 40.048 73.8536 L 39.484901 73.665901 L 38.546398 72.9151 L 37.983299 71.601196 L 37.983299 70.662697 L 38.546398 69.348801 Z M 24.656601 66.157898 L 24.656601 75.918297 L 27.096699 75.730598 L 27.096699 72.351997 L 27.472099 71.976601 L 28.2229 72.164299 L 29.1614 73.102798 L 30.287601 75.730598 L 33.1031 75.918297 L 32.915401 74.979797 L 32.352299 74.228996 L 31.7892 72.539703 L 31.038399 71.788902 L 31.038399 71.038101 L 31.7892 70.474998 L 32.1646 69.724197 L 32.1646 68.410301 L 31.7892 67.471802 L 31.038399 66.721001 L 29.724499 66.157898 L 28.598301 65.9702 L 25.032 65.9702 Z M 27.472099 68.222603 L 29.349098 68.410301 L 29.5368 68.785698 L 29.5368 69.536499 L 29.1614 69.911903 L 28.410599 70.099602 L 27.284401 69.911903 Z M 0.0679 65.9702 L 0.0679 75.918297 L 7.3882 75.730598 L 7.3882 74.228996 L 2.8834 74.228996 L 2.508 73.8536 L 2.6957 71.976601 L 7.0128 71.788902 L 7.0128 69.911903 L 2.8834 69.911903 L 2.508 69.536499 L 2.6957 68.034897 L 7.2005 67.847198 L 7.0128 65.9702 Z M 92.416298 19.608307 L 92.416298 50.578796 L 153.043396 50.578796 L 152.855698 19.420593 L 144.972305 19.420593 L 144.972305 20.922195 L 144.409195 25.427002 L 144.033798 25.802399 L 143.8461 27.304001 L 142.156799 31.245697 L 141.218307 32.747299 L 139.341293 35.187401 L 137.464294 37.0644 L 135.399597 38.7537 L 134.836502 38.941399 L 133.897995 39.6922 L 133.147202 39.879898 L 132.396393 40.443001 L 129.7686 41.569199 L 127.891602 42.132301 L 126.765396 42.132301 L 126.014603 42.507698 L 124.137604 42.695396 L 121.134399 42.695396 L 119.257401 42.507698 L 118.506599 42.132301 L 117.5681 42.132301 L 116.817299 41.944603 L 116.254204 41.569199 L 115.503403 41.569199 L 114.001801 41.006104 L 113.250999 40.443001 L 111.749397 39.879898 L 111.186302 39.316803 L 110.060097 38.7537 L 108.558502 37.627502 L 105.367599 34.4366 L 104.992203 33.685806 L 103.490601 31.808807 L 102.364403 29.556396 L 102.364403 28.993301 L 101.613602 27.491699 L 101.238197 26.177795 L 101.050499 24.488495 L 100.675102 23.737701 L 100.675102 19.796005 L 100.487396 19.420593 Z M 119.632797 0.462906 L 117.943497 1.026001 L 117.004997 1.026001 L 116.441902 1.401398 L 115.315697 1.589096 L 114.001801 2.152206 L 113.626404 2.527603 L 112.875603 2.715302 L 111.937103 3.278397 L 111.374001 3.841507 L 110.810898 4.029205 L 108.933899 5.530807 L 108.183098 6.469299 L 107.995399 6.469299 L 107.244598 7.220093 L 105.179901 10.035599 L 104.992203 10.786407 L 104.4291 11.912598 L 104.053703 12.287994 L 103.865997 12.663406 L 103.865997 13.226501 L 103.490601 13.601898 L 103.302902 14.164993 L 103.302902 14.915802 L 102.927498 15.478897 L 102.739799 16.417404 L 102.739799 17.731293 L 102.364403 18.294403 L 102.364403 22.423798 L 102.739799 23.362305 L 102.739799 24.676193 L 102.927498 25.6147 L 103.302902 26.177795 L 103.302902 26.740906 L 103.865997 28.242493 L 104.4291 28.993301 L 104.616798 29.744095 L 104.992203 30.119507 L 104.992203 30.494904 L 105.742996 31.433395 L 105.742996 31.808807 L 107.432297 33.873505 L 110.435501 36.689003 L 111.186302 37.252098 L 111.561699 37.252098 L 112.124802 37.815201 L 113.814102 38.7537 L 114.752602 38.941399 L 115.127998 39.316803 L 116.629601 39.879898 L 118.131203 40.067596 L 118.506599 40.443001 L 120.383598 40.630699 L 124.513 40.630699 L 126.202301 40.443001 L 128.642395 39.879898 L 129.017807 39.504501 L 131.457901 38.7537 L 135.0242 36.501297 L 136.150406 35.562798 L 138.402802 33.122696 L 139.716705 31.245697 L 140.655197 29.556396 L 140.655197 29.181 L 141.218307 28.430206 L 141.781403 26.928604 L 141.781403 26.365494 L 142.156799 25.802399 L 142.344498 23.737701 L 142.719894 22.799194 L 142.719894 18.482101 L 142.344498 17.355896 L 142.344498 16.229706 L 142.156799 15.478897 L 141.781403 14.915802 L 141.781403 14.164993 L 140.092102 10.410995 L 139.529007 9.472504 L 137.276596 6.656998 L 135.0242 4.5923 L 133.710297 3.653793 L 131.082504 2.152206 L 130.519394 2.152206 L 129.7686 1.589096 L 125.451508 0.462906 Z M 122.636002 34.624298 L 123.011398 34.999695 L 123.199097 35.750504 L 124.513 36.1259 L 123.574493 36.876701 L 123.762207 38.190598 L 122.636002 37.627502 L 121.509804 38.002899 L 121.697502 36.876701 L 121.322098 36.501297 L 121.134399 36.501297 L 120.946701 35.750504 L 122.260597 35.562798 Z M 129.017807 34.061203 L 129.393204 33.685806 L 130.331696 33.498093 L 130.519394 32.747299 L 131.082504 32.934998 L 131.270203 33.685806 L 132.020996 33.685806 L 132.584106 34.061203 L 131.645599 34.624298 L 131.645599 35.187401 L 132.020996 35.750504 L 131.457901 35.938202 L 130.894806 35.562798 L 130.519394 35.562798 L 130.143997 35.938202 L 129.580902 35.562798 L 129.7686 34.624298 L 129.205505 34.4366 Z M 114.564903 32.559601 L 114.9403 32.934998 L 114.9403 33.685806 L 116.066498 33.685806 L 116.441902 34.061203 L 115.503403 34.999695 L 115.691101 35.938202 L 115.127998 35.938202 L 114.752602 35.562798 L 114.377197 35.562798 L 114.001801 35.938202 L 113.250999 35.750504 L 113.626404 35.375099 L 113.626404 34.624298 L 113.250999 34.624298 L 113.063301 34.248901 L 112.687897 34.061203 L 113.250999 33.685806 L 114.189499 33.498093 L 114.189499 32.934998 Z M 136.525803 26.740906 L 137.088898 27.304001 L 137.276596 27.867096 L 138.402802 28.242493 L 138.027405 28.617905 L 137.839706 28.617905 L 137.839706 29.744095 L 137.651993 30.307205 L 136.525803 29.556396 L 135.962708 30.119507 L 135.399597 29.931793 L 135.399597 29.556396 L 135.774994 28.993301 L 134.836502 28.054794 L 136.150406 27.679398 Z M 108.746201 26.740906 L 109.121597 27.116302 L 109.309303 27.867096 L 110.435501 28.054794 L 109.6847 28.993301 L 109.6847 30.119507 L 109.309303 30.119507 L 109.121597 29.744095 L 108.746201 29.556396 L 107.620003 30.307205 L 107.620003 28.617905 L 107.244598 28.617905 L 107.0569 27.867096 L 108.183098 27.867096 L 108.183098 27.491699 Z M 140.467499 20.171402 L 139.716705 20.734497 L 139.904404 21.485306 L 139.529007 22.048401 L 138.5905 21.485306 L 138.027405 22.048401 L 137.464294 21.860703 L 137.651993 20.734497 L 136.901199 20.171402 L 137.276596 19.796005 L 138.215103 19.608307 L 139.153595 19.045197 L 139.341293 19.796005 L 140.092102 19.796005 Z M 106.493797 18.6698 L 106.869202 19.045197 L 107.0569 19.796005 L 107.995399 19.796005 L 108.370796 20.171402 L 107.432297 21.109894 L 107.244598 22.048401 L 106.493797 21.485306 L 105.367599 21.860703 L 105.555298 20.922195 L 104.804497 20.171402 L 105.179901 19.796005 L 105.930702 19.796005 L 106.118401 19.045197 Z M 134.648804 11.912598 L 136.150406 11.537201 L 136.713501 10.598694 L 137.088898 10.974106 L 137.276596 11.724899 L 138.402802 12.100296 L 137.651993 12.851105 L 137.651993 13.226501 L 137.839706 13.4142 L 137.651993 14.164993 L 137.088898 13.601898 L 136.525803 13.4142 L 135.399597 13.977295 L 135.399597 13.4142 L 135.774994 12.851105 Z M 108.746201 10.598694 L 109.121597 10.974106 L 109.309303 11.537201 L 110.435501 12.100296 L 110.060097 12.475693 L 109.872398 12.475693 L 109.497002 13.977295 L 108.746201 13.4142 L 108.183098 13.601898 L 107.995399 13.977295 L 107.620003 14.164993 L 107.807701 12.851105 L 107.620003 12.475693 L 107.0569 12.287994 L 106.869202 11.912598 L 108.183098 11.537201 Z M 120.759003 9.660202 L 122.072899 9.472504 L 125.263794 9.472504 L 126.577698 9.660202 L 129.205505 10.786407 L 131.270203 12.287994 L 131.645599 12.851105 L 131.082504 14.352707 L 130.519394 14.728104 L 129.205505 13.4142 L 127.328506 12.287994 L 126.765396 12.287994 L 126.389999 11.912598 L 125.263794 11.724899 L 122.072899 11.724899 L 120.946701 11.912598 L 120.571297 12.287994 L 120.008202 12.287994 L 118.882004 12.851105 L 117.5681 13.977295 L 117.380402 13.977295 L 115.878799 15.854294 L 115.127998 17.355896 L 115.127998 17.919006 L 129.393204 18.106705 L 129.205505 19.045197 L 128.830093 19.420593 L 128.830093 19.608307 L 114.377197 19.983704 L 114.564903 21.297607 L 127.703903 21.485306 L 127.516205 22.611496 L 127.140793 22.986893 L 126.953094 23.550003 L 114.9403 23.550003 L 114.9403 23.9254 L 116.066498 25.990097 L 117.943497 27.867096 L 119.820503 28.993301 L 120.383598 29.181 L 121.134399 29.181 L 121.509804 29.556396 L 125.451508 29.556396 L 125.826904 29.181 L 127.140793 28.993301 L 128.642395 28.054794 L 130.143997 26.740906 L 130.707108 26.928604 L 130.707108 28.993301 L 129.205505 30.307205 L 126.765396 31.433395 L 125.826904 31.433395 L 125.451508 31.808807 L 121.509804 31.808807 L 121.134399 31.433395 L 119.632797 31.245697 L 119.257401 30.8703 L 117.755798 30.307205 L 116.066498 28.993301 L 113.626404 26.177795 L 113.626404 25.802399 L 113.250999 25.427002 L 113.063301 25.051605 L 113.063301 24.488495 L 112.687897 24.113098 L 112.500198 23.550003 L 109.497002 23.362305 L 109.497002 22.986893 L 110.060097 21.860703 L 110.435501 21.485306 L 112.124802 21.485306 L 112.124802 19.983704 L 110.060097 19.983704 L 109.497002 19.608307 L 110.247803 18.106705 L 110.623199 17.731293 L 112.687897 17.543594 L 112.687897 17.355896 L 113.063301 16.980499 L 113.250999 16.042007 L 113.626404 15.666595 L 113.626404 15.291199 L 114.189499 14.728104 L 114.189499 14.352707 L 116.629601 11.724899 L 117.755798 10.974106 Z M 130.894806 4.5923 L 131.270203 5.530807 L 132.396393 5.906204 L 132.208694 6.469299 L 131.645599 6.844696 L 131.645599 7.220093 L 132.020996 7.970901 L 131.645599 8.1586 L 131.270203 7.783203 L 130.707108 7.595505 L 130.331696 7.970901 L 129.7686 8.1586 L 129.580902 7.783203 L 129.7686 6.844696 L 129.205505 5.718506 L 129.956299 5.718506 Z M 114.377197 4.5923 L 114.9403 5.155396 L 115.127998 5.718506 L 116.066498 5.718506 L 116.254204 6.469299 L 115.503403 6.844696 L 115.503403 8.1586 L 114.752602 7.595505 L 114.377197 7.595505 L 114.001801 7.970901 L 113.250999 7.783203 L 113.626404 7.407806 L 113.438698 6.656998 L 112.875603 6.469299 L 112.687897 6.093903 L 113.063301 5.718506 L 114.189499 5.718506 Z M 122.636002 2.339905 L 123.011398 2.715302 L 123.199097 3.466095 L 124.513 3.841507 L 123.762207 4.5923 L 123.762207 5.906204 L 123.386795 5.906204 L 122.8237 5.343094 L 121.509804 5.718506 L 121.697502 4.5923 L 120.946701 3.466095 L 122.260597 3.278397 Z"/>
        <path id="path1" fill="#fbf254" fill-rule="evenodd" stroke="none" d="M 121.134399 36.1259 L 122.072899 36.876701 L 121.885201 38.002899 L 122.448303 37.439796 L 122.8237 37.439796 L 123.762207 38.002899 L 123.386795 36.876701 L 124.137604 36.1259 L 123.386795 36.1259 L 123.011398 35.750504 L 122.636002 34.999695 L 122.636002 35.375099 L 122.260597 35.938202 L 121.885201 36.1259 Z M 130.519394 32.934998 L 130.519394 33.498093 L 129.956299 34.061203 L 129.205505 34.061203 L 129.580902 34.4366 L 129.7686 34.4366 L 129.7686 35.750504 L 130.894806 35.187401 L 131.645599 35.750504 L 131.457901 34.624298 L 132.208694 34.061203 L 131.457901 34.061203 L 130.894806 33.498093 L 130.894806 32.934998 Z M 114.377197 32.934998 L 114.377197 33.498093 L 113.814102 34.061203 L 113.063301 34.061203 L 113.438698 34.4366 L 113.626404 34.4366 L 113.626404 35.750504 L 114.564903 35.187401 L 115.503403 35.750504 L 115.315697 34.811996 L 116.254204 34.061203 L 115.127998 34.061203 L 114.752602 33.685806 L 114.752602 32.934998 Z M 108.746201 27.116302 L 108.370796 27.867096 L 107.0569 28.054794 L 108.183098 28.993301 L 107.807701 29.368698 L 107.807701 29.931793 L 108.558502 29.368698 L 108.933899 29.368698 L 109.497002 29.931793 L 109.6847 29.368698 L 109.497002 29.181 L 109.497002 28.805603 L 110.060097 28.054794 L 109.309303 28.054794 L 108.933899 27.679398 Z M 136.525803 26.928604 L 136.525803 27.491699 L 135.962708 28.054794 L 135.211899 28.054794 L 135.962708 29.181 L 135.774994 29.931793 L 136.150406 29.556396 L 136.713501 29.368698 L 137.651993 29.931793 L 137.651993 28.430206 L 137.839706 28.430206 L 138.215103 28.054794 L 136.901199 27.867096 L 136.901199 27.304001 Z M 140.2798 20.171402 L 138.965897 19.796005 L 138.778198 19.045197 L 138.402802 19.796005 L 137.088898 20.171402 L 137.839706 20.546799 L 138.027405 21.109894 L 137.651993 21.860703 L 138.027405 21.860703 L 138.778198 21.297607 L 139.153595 21.673004 L 139.716705 21.860703 L 139.529007 20.734497 Z M 108.183098 20.171402 L 107.807701 19.983704 L 107.0569 19.983704 L 106.681503 19.608307 L 106.493797 19.045197 L 106.118401 19.796005 L 104.992203 20.171402 L 105.742996 20.734497 L 105.555298 21.673004 L 105.930702 21.673004 L 106.306099 21.297607 L 106.681503 21.297607 L 107.0569 21.673004 L 107.432297 21.673004 L 107.432297 20.546799 Z M 134.836502 11.912598 L 135.962708 13.038803 L 135.587296 13.789597 L 136.713501 13.226501 L 137.651993 13.789597 L 137.464294 12.663406 L 138.215103 11.912598 L 137.276596 11.912598 L 136.901199 11.537201 L 136.901199 11.161804 L 136.525803 10.786407 L 136.525803 11.349503 L 135.962708 11.912598 Z M 110.247803 11.912598 L 109.121597 11.724899 L 108.746201 10.786407 L 108.370796 11.724899 L 107.0569 11.912598 L 107.995399 12.663406 L 107.807701 13.601898 L 108.558502 13.226501 L 108.933899 13.226501 L 109.309303 13.601898 L 109.6847 13.601898 L 109.497002 12.663406 Z M 122.072899 9.660202 L 119.820503 10.223297 L 117.192703 11.537201 L 114.9403 13.601898 L 114.9403 13.977295 L 114.001801 15.1035 L 113.438698 16.229706 L 113.063301 17.543594 L 112.687897 17.919006 L 110.435501 18.106705 L 110.435501 18.482101 L 110.060097 18.857498 L 109.872398 19.608307 L 112.124802 19.608307 L 112.500198 19.983704 L 112.3125 21.673004 L 111.937103 21.860703 L 110.435501 21.860703 L 110.060097 22.236099 L 110.060097 22.611496 L 109.6847 23.362305 L 112.500198 23.362305 L 113.250999 24.300797 L 113.250999 24.863907 L 114.377197 26.928604 L 117.004997 29.556396 L 117.5681 29.931793 L 120.383598 31.245697 L 121.322098 31.245697 L 122.260597 31.621094 L 124.700699 31.621094 L 127.140793 31.057999 L 128.454697 30.494904 L 128.830093 30.119507 L 129.205505 30.119507 L 129.7686 29.556396 L 129.956299 29.556396 L 130.331696 29.181 L 130.331696 26.928604 L 129.956299 27.116302 L 129.580902 27.679398 L 127.891602 28.805603 L 127.140793 29.181 L 126.577698 29.181 L 125.451508 29.744095 L 121.509804 29.744095 L 120.1959 29.368698 L 118.694298 28.617905 L 117.192703 27.491699 L 115.315697 25.239304 L 114.752602 24.113098 L 114.752602 23.550003 L 115.127998 23.174606 L 126.953094 23.174606 L 127.516205 21.673004 L 114.752602 21.673004 L 114.377197 21.485306 L 114.189499 19.983704 L 114.564903 19.608307 L 128.642395 19.608307 L 128.830093 18.857498 L 129.205505 18.482101 L 129.205505 18.106705 L 114.752602 17.919006 L 114.752602 17.543594 L 115.127998 17.168198 L 115.503403 16.042007 L 116.441902 14.728104 L 117.755798 13.4142 L 119.069702 12.475693 L 120.1959 11.912598 L 122.260597 11.349503 L 124.888397 11.349503 L 125.639206 11.724899 L 126.389999 11.724899 L 127.891602 12.287994 L 129.017807 13.038803 L 129.7686 13.789597 L 130.894806 14.164993 L 131.457901 12.851105 L 129.7686 11.349503 L 127.516205 10.223297 L 125.263794 9.660202 Z M 130.894806 4.967697 L 130.519394 5.155396 L 130.519394 5.530807 L 130.143997 5.906204 L 129.205505 5.906204 L 129.580902 6.469299 L 129.7686 6.469299 L 129.7686 7.970901 L 130.519394 7.407806 L 131.082504 7.407806 L 131.457901 7.783203 L 131.457901 6.844696 L 132.208694 5.906204 L 131.082504 5.718506 Z M 116.066498 5.906204 L 114.752602 5.718506 L 114.377197 4.967697 L 114.189499 5.906204 L 113.063301 5.906204 L 113.063301 6.281601 L 113.814102 6.844696 L 113.626404 7.970901 L 114.189499 7.407806 L 114.9403 7.407806 L 115.503403 7.783203 L 115.315697 6.844696 L 116.066498 6.281601 Z M 120.946701 3.653793 L 121.134399 4.029205 L 121.885201 4.404602 L 122.072899 4.779999 L 121.697502 5.530807 L 122.072899 5.530807 L 122.8237 5.155396 L 123.199097 5.530807 L 123.762207 5.718506 L 123.574493 4.404602 L 124.137604 4.029205 L 124.325302 3.653793 L 123.011398 3.466095 L 122.636002 2.715302 L 122.636002 3.090698 L 122.072899 3.653793 Z"/>
    </g>
</svg>
