<?xml version="1.0" encoding="UTF-8"?>
<svg xmlns="http://www.w3.org/2000/svg" viewBox="0 0 250 250" role="img" aria-label="European Investment Bank logo">
<title>European Investment Bank</title>
<g transform="translate(-8.589 88.4969) scale(0.3067)">
<path fill="#003399" fill-rule="evenodd" d="M493 183L494 188L502 209L509 209L519 183L512 183L506 201L504 198L503 192L500 185L500 183ZM807 184L803 182L799 182L793 185L786 183L786 209L793 209L793 191L796 188L801 188L803 190L804 209L810 209L810 190ZM759 184L760 188L770 187L772 189L771 192L766 192L763 193L758 197L757 199L757 205L761 209L765 210L769 209L772 207L774 209L779 209L779 189L777 185L772 182L764 182ZM773 197L773 201L769 205L766 205L763 202L763 200L766 197L768 196ZM685 183L683 182L679 182L673 185L666 183L666 209L673 209L673 191L676 188L681 188L683 190L683 209L690 209L690 190L689 187ZM642 184L639 187L637 191L637 201L639 205L641 207L645 209L651 210L659 208L658 204L650 205L644 202L644 198L661 197L661 193L659 187L655 183L652 182L647 182ZM643 191L646 187L651 187L654 190L653 193ZM592 183L592 209L599 209L599 191L603 187L605 187L609 192L609 209L615 209L615 191L618 188L622 188L625 192L625 209L631 209L631 189L630 186L627 183L624 182L620 182L614 186L608 182L604 182L599 185ZM562 182L557 182L554 183L550 187L550 193L551 195L559 199L561 201L561 203L559 205L554 205L550 203L549 208L555 210L563 209L566 207L568 203L568 200L566 196L563 194L559 193L556 189L558 187L566 188L567 184ZM526 184L522 189L521 192L521 200L524 206L529 209L535 210L543 208L543 204L537 205L531 204L528 198L545 198L545 192L543 187L539 183L536 182L531 182ZM527 191L530 187L537 188L538 190L537 193ZM486 184L482 182L478 182L471 184L465 183L465 209L472 209L472 192L475 188L480 188L482 190L483 194L483 209L489 209L489 190ZM704 176L698 178L697 183L694 183L695 188L698 189L698 204L700 208L705 210L708 210L709 209L711 209L710 204L705 203L704 199L705 188L711 188L711 183L704 182ZM579 176L574 178L573 183L571 183L571 188L574 189L574 203L575 206L578 209L584 210L585 209L587 209L587 204L581 203L582 188L587 188L587 183L581 182L581 176ZM451 173L451 209L457 209L457 173ZM728 173L728 209L743 209L748 207L752 203L753 200L753 196L752 194L746 189L751 185L751 178L750 176L746 173L742 172L731 172L730 173ZM735 192L740 192L743 193L745 195L746 197L746 200L742 204L734 203ZM735 177L741 177L743 178L745 181L744 185L741 187L734 186ZM817 171L817 209L824 209L824 200L826 198L829 201L830 204L834 209L842 209L835 200L831 193L840 183L831 184L828 189L825 192L823 170ZM646 130L646 156L652 156L652 141L653 138L657 135L660 135L663 139L663 157L670 156L670 140L667 132L664 130L657 130L652 134L651 130ZM620 131L622 135L628 134L630 135L632 138L630 140L625 140L620 142L617 146L617 153L622 157L628 157L632 154L633 157L639 157L639 138L637 133L632 130L622 130ZM632 145L632 150L630 152L627 153L623 150L623 147L625 145L627 144ZM595 131L591 135L589 139L589 148L590 151L594 155L598 157L607 157L608 156L611 156L609 151L600 152L595 148L596 145L613 145L613 140L612 136L610 133L606 130L597 130ZM595 139L598 135L602 134L606 137L607 140ZM577 130L570 130L565 133L564 130L558 130L558 167L565 167L566 155L569 157L576 157L580 155L582 153L584 149L585 143L584 137L583 135ZM569 135L573 135L575 136L577 138L578 141L578 146L576 150L573 152L569 152L565 148L565 140ZM531 132L528 135L526 140L526 147L528 152L531 155L535 157L543 157L549 154L553 146L553 141L551 135L548 132L544 130L535 130ZM540 134L542 135L546 140L546 147L542 152L537 152L533 147L533 140L537 135ZM524 130L519 130L516 133L514 130L509 130L509 157L516 156L516 140L518 137L520 136L524 136ZM478 130L478 150L479 153L483 157L491 157L495 154L496 157L502 157L501 130L495 131L495 148L491 152L488 152L485 149L484 130ZM451 120L451 157L473 157L473 151L457 150L458 140L471 140L471 135L457 134L458 125L472 125L472 120ZM246 90L246 209L407 209L407 90ZM318 188L324 187L325 185L328 183L329 187L334 188L330 191L332 196L330 197L326 194L321 195L322 191ZM346 176L348 179L348 181L353 184L352 184L350 186L350 188L351 189L350 192L346 189L342 192L342 186L339 184L339 181L344 181L344 179ZM306 176L308 178L309 181L314 183L312 185L311 185L310 187L312 191L310 192L306 189L302 192L301 190L302 186L298 182L304 181ZM369 168L364 172L365 178L360 175L356 178L357 172L352 168L358 167L359 165L362 163L363 167ZM292 162L294 165L294 167L300 168L296 173L296 178L293 175L291 175L288 178L288 172L284 168L290 167L290 165ZM366 142L368 145L368 147L374 148L372 150L371 150L370 153L371 154L370 157L366 154L362 157L361 154L362 153L362 151L358 148L364 147L364 145ZM287 142L289 145L289 147L295 148L293 150L292 150L291 154L292 155L291 158L288 155L286 155L282 158L283 152L278 148L285 146L285 144ZM369 128L364 132L365 138L360 135L356 138L357 132L352 128L358 127L359 125L362 123L363 127ZM292 122L294 125L294 127L300 128L296 133L296 138L293 135L291 135L288 138L288 132L285 130L285 127L290 127L290 125ZM346 107L348 112L354 114L352 116L351 116L350 119L351 120L350 123L346 120L342 123L341 120L342 119L341 116L340 116L338 114L344 112L344 110ZM306 107L309 113L314 114L310 117L310 119L311 120L310 123L306 120L301 122L301 120L302 119L301 116L300 116L298 114L304 113L304 111ZM326 102L328 105L328 107L333 110L330 113L332 117L330 118L326 115L322 118L321 115L322 114L322 112L318 108L324 107L324 105Z"/>
<path fill="#9b9b9b" fill-rule="evenodd" d="M62 197L241 197L241 192L66 192ZM78 175L241 175L241 169L81 170ZM96 153L241 153L241 147L101 147ZM118 130L241 130L241 124L124 124ZM146 107L241 107L241 102L153 102ZM407 43L378 35L352 30L325 27L279 27L254 30L238 33L209 41L188 49L160 63L147 71L126 86L107 102L79 131L58 158L37 191L28 209L38 209L40 207L47 194L57 179L75 155L87 141L113 115L126 104L148 88L163 79L187 67L214 57L237 51L261 47L294 45L320 46L352 50L392 59L407 64Z"/>
<path fill="#ffcc00" fill-rule="evenodd" d="M333 188L327 187L327 184L324 188L320 188L322 190L323 190L322 196L327 193L330 195L329 191ZM346 178L344 183L340 183L343 185L342 190L345 188L347 188L350 190L349 186L352 183L347 182ZM313 183L309 183L307 181L306 178L305 182L300 183L302 184L303 188L302 191L304 189L307 188L310 190L309 186ZM367 168L361 167L361 164L359 168L354 168L357 174L357 176L359 174L362 174L364 176L364 174L363 173L364 170L365 170ZM299 168L293 167L292 163L291 167L285 168L289 171L288 176L292 173L296 176L295 174L295 171ZM373 148L367 147L366 143L365 147L359 148L363 151L363 154L362 156L366 153L370 156L369 154L369 151ZM294 148L289 148L287 146L287 143L285 148L280 148L284 151L283 156L287 153L291 156L289 152ZM367 128L361 127L361 124L359 128L354 128L357 134L357 136L359 134L362 134L364 136L363 132ZM292 124L291 127L289 129L286 129L289 131L288 136L292 133L296 136L295 131L298 129L293 128ZM353 114L347 113L346 109L344 114L339 114L343 117L343 120L342 122L346 119L350 122L349 120L349 117ZM313 114L307 113L306 109L305 113L300 114L303 117L303 120L302 122L304 120L307 119L310 122L309 120L309 117ZM326 104L324 109L320 109L324 112L322 117L324 115L327 114L330 117L329 112L332 109L327 108Z"/>
</g>
</svg>
