<?xml version="1.0" encoding="UTF-8"?>
<!-- Generated by Pixelmator Pro 3.8 -->
<svg width="250" height="70" viewBox="0 0 250 70" xmlns="http://www.w3.org/2000/svg">
    <g id="Group">
        <path id="Path" fill="#003399" fill-rule="evenodd" stroke="none" d="M 142.614105 54.623001 L 142.920807 56.156502 L 145.374405 62.597198 L 147.521301 62.597198 L 150.588303 54.623001 L 148.441406 54.623001 L 146.601196 60.1436 L 145.987793 59.223503 L 145.681107 57.383301 L 144.761002 55.236397 L 144.761002 54.623001 Z M 238.917892 54.929703 L 237.691101 54.316299 L 236.464294 54.316299 L 234.6241 55.236397 L 232.477203 54.623001 L 232.477203 62.597198 L 234.6241 62.597198 L 234.6241 57.076599 L 235.544205 56.156502 L 237.077698 56.156502 L 237.691101 56.769897 L 237.997803 62.597198 L 239.837997 62.597198 L 239.837997 56.769897 Z M 224.196304 54.929703 L 224.503006 56.156502 L 227.570007 55.8498 L 228.183395 56.463203 L 227.876694 57.383301 L 226.343201 57.383301 L 225.423096 57.690002 L 223.889603 58.916801 L 223.582901 59.530197 L 223.582901 61.370399 L 224.809692 62.597198 L 226.036499 62.9039 L 227.263306 62.597198 L 228.183395 61.983803 L 228.796799 62.597198 L 230.330307 62.597198 L 230.330307 56.463203 L 229.716904 55.236397 L 228.183395 54.316299 L 225.729797 54.316299 Z M 228.490097 58.916801 L 228.490097 60.1436 L 227.263306 61.370399 L 226.343201 61.370399 L 225.423096 60.450302 L 225.423096 59.836899 L 226.343201 58.916801 L 226.956604 58.6101 Z M 201.500504 54.623001 L 200.8871 54.316299 L 199.660294 54.316299 L 197.820099 55.236397 L 195.673203 54.623001 L 195.673203 62.597198 L 197.820099 62.597198 L 197.820099 57.076599 L 198.740204 56.156502 L 200.273697 56.156502 L 200.8871 56.769897 L 200.8871 62.597198 L 203.033997 62.597198 L 203.033997 56.769897 L 202.727295 55.8498 Z M 188.312393 54.929703 L 187.392303 55.8498 L 186.7789 57.076599 L 186.7789 60.1436 L 187.392303 61.370399 L 188.005707 61.983803 L 189.232498 62.597198 L 191.072693 62.9039 L 193.526306 62.290497 L 193.219604 61.063698 L 190.766006 61.370399 L 188.925797 60.450302 L 188.925797 59.223503 L 194.139694 58.916801 L 194.139694 57.690002 L 193.526306 55.8498 L 192.2995 54.623001 L 191.379395 54.316299 L 189.845901 54.316299 Z M 188.619095 57.076599 L 189.5392 55.8498 L 191.072693 55.8498 L 191.992798 56.769897 L 191.686096 57.690002 Z M 172.977402 54.623001 L 172.977402 62.597198 L 175.124298 62.597198 L 175.124298 57.076599 L 176.351105 55.8498 L 176.964493 55.8498 L 178.191299 57.383301 L 178.191299 62.597198 L 180.031494 62.597198 L 180.031494 57.076599 L 180.951599 56.156502 L 182.178406 56.156502 L 183.098495 57.383301 L 183.098495 62.597198 L 184.938705 62.597198 L 184.938705 56.463203 L 184.632004 55.543098 L 183.711899 54.623001 L 182.791794 54.316299 L 181.565002 54.316299 L 179.724792 55.543098 L 177.884598 54.316299 L 176.657806 54.316299 L 175.124298 55.236397 Z M 163.776398 54.316299 L 162.242905 54.316299 L 161.3228 54.623001 L 160.095993 55.8498 L 160.095993 57.690002 L 160.402695 58.303398 L 162.856293 59.530197 L 163.469696 60.1436 L 163.469696 60.757004 L 162.856293 61.370399 L 161.3228 61.370399 L 160.095993 60.757004 L 159.789307 62.290497 L 161.629501 62.9039 L 164.083099 62.597198 L 165.003204 61.983803 L 165.616592 60.757004 L 165.616592 59.836899 L 165.003204 58.6101 L 164.083099 57.996696 L 162.856293 57.690002 L 161.936203 56.463203 L 162.549606 55.8498 L 165.003204 56.156502 L 165.309906 54.929703 Z M 152.735199 54.929703 L 151.508408 56.463203 L 151.201706 57.383301 L 151.201706 59.836899 L 152.121796 61.677101 L 153.655304 62.597198 L 155.495499 62.9039 L 157.949097 62.290497 L 157.949097 61.063698 L 156.108902 61.370399 L 154.268707 61.063698 L 153.348602 59.223503 L 158.5625 59.223503 L 158.5625 57.383301 L 157.949097 55.8498 L 156.722305 54.623001 L 155.8022 54.316299 L 154.268707 54.316299 Z M 153.041901 57.076599 L 153.962006 55.8498 L 156.108902 56.156502 L 156.415604 56.769897 L 156.108902 57.690002 Z M 140.467194 54.929703 L 139.240402 54.316299 L 138.013596 54.316299 L 135.866699 54.929703 L 134.026505 54.623001 L 134.026505 62.597198 L 136.173401 62.597198 L 136.173401 57.383301 L 137.093506 56.156502 L 138.626999 56.156502 L 139.240402 56.769897 L 139.547104 57.996696 L 139.547104 62.597198 L 141.387299 62.597198 L 141.387299 56.769897 Z M 207.327805 52.476097 L 205.487595 53.0895 L 205.180893 54.623001 L 204.260803 54.623001 L 204.567505 56.156502 L 205.487595 56.463203 L 205.487595 61.063698 L 206.100998 62.290497 L 207.634506 62.9039 L 208.554596 62.9039 L 208.861298 62.597198 L 209.474701 62.597198 L 209.167999 61.063698 L 207.634506 60.757004 L 207.327805 59.530197 L 207.634506 56.156502 L 209.474701 56.156502 L 209.474701 54.623001 L 207.327805 54.316299 Z M 168.990295 52.476097 L 167.456802 53.0895 L 167.150101 54.623001 L 166.536697 54.623001 L 166.536697 56.156502 L 167.456802 56.463203 L 167.456802 60.757004 L 167.763504 61.677101 L 168.683594 62.597198 L 170.523804 62.9039 L 170.830505 62.597198 L 171.443893 62.597198 L 171.443893 61.063698 L 169.603699 60.757004 L 169.9104 56.156502 L 171.443893 56.156502 L 171.443893 54.623001 L 169.603699 54.316299 L 169.603699 52.476097 Z M 129.732697 51.556 L 129.732697 62.597198 L 131.572906 62.597198 L 131.572906 51.556 Z M 214.688599 51.556 L 214.688599 62.597198 L 219.289093 62.597198 L 220.822601 61.983803 L 222.049393 60.757004 L 222.356094 59.836899 L 222.356094 58.6101 L 222.049393 57.996696 L 220.209198 56.463203 L 221.742706 55.236397 L 221.742706 53.0895 L 221.436005 52.476097 L 220.209198 51.556 L 218.982407 51.249298 L 215.608704 51.249298 L 215.302002 51.556 Z M 216.835495 57.383301 L 218.369003 57.383301 L 219.289093 57.690002 L 219.902496 58.303398 L 220.209198 58.916801 L 220.209198 59.836899 L 218.982407 61.063698 L 216.528793 60.757004 Z M 216.835495 52.782799 L 218.675705 52.782799 L 219.289093 53.0895 L 219.902496 54.009598 L 219.595795 55.236397 L 218.675705 55.8498 L 216.528793 55.543098 Z M 241.984894 50.942596 L 241.984894 62.597198 L 244.131805 62.597198 L 244.131805 59.836899 L 244.745193 59.223503 L 245.665298 60.1436 L 245.972 61.063698 L 247.198807 62.597198 L 249.652405 62.597198 L 247.505493 59.836899 L 246.278702 57.690002 L 249.039001 54.623001 L 246.278702 54.929703 L 245.358597 56.463203 L 244.438507 57.383301 L 243.825104 50.635902 Z M 189.5392 38.367897 L 189.5392 46.342102 L 191.379395 46.342102 L 191.379395 41.7416 L 191.686096 40.821503 L 192.912903 39.901398 L 193.832993 39.901398 L 194.753098 41.128197 L 194.753098 46.648804 L 196.899994 46.342102 L 196.899994 41.434898 L 195.979904 38.9813 L 195.059799 38.367897 L 192.912903 38.367897 L 191.379395 39.594704 L 191.072693 38.367897 Z M 181.565002 38.674599 L 182.178406 39.901398 L 184.0186 39.594704 L 184.632004 39.901398 L 185.245407 40.821503 L 184.632004 41.434898 L 183.098495 41.434898 L 181.565002 42.048302 L 180.644897 43.275101 L 180.644897 45.421997 L 182.178406 46.648804 L 184.0186 46.648804 L 185.245407 45.728699 L 185.552094 46.648804 L 187.392303 46.648804 L 187.392303 40.821503 L 186.7789 39.288002 L 185.245407 38.367897 L 182.178406 38.367897 Z M 185.245407 42.968399 L 185.245407 44.5019 L 184.632004 45.115303 L 183.711899 45.421997 L 182.485107 44.5019 L 182.485107 43.581802 L 183.098495 42.968399 L 183.711899 42.661697 Z M 173.897507 38.674599 L 172.6707 39.901398 L 172.057297 41.128197 L 172.057297 43.888496 L 172.363998 44.808601 L 173.590805 46.0354 L 174.817596 46.648804 L 177.577896 46.648804 L 177.884598 46.342102 L 178.804703 46.342102 L 178.191299 44.808601 L 175.431 45.115303 L 173.897507 43.888496 L 174.204193 42.968399 L 179.418106 42.968399 L 179.418106 41.434898 L 179.111404 40.208099 L 178.498001 39.288002 L 177.271194 38.367897 L 174.510895 38.367897 Z M 173.897507 41.128197 L 174.817596 39.901398 L 176.044403 39.594704 L 177.271194 40.514801 L 177.577896 41.434898 Z M 168.376907 38.367897 L 166.229996 38.367897 L 164.696503 39.288002 L 164.389801 38.367897 L 162.549606 38.367897 L 162.549606 49.715797 L 164.696503 49.715797 L 165.003204 46.0354 L 165.923294 46.648804 L 168.070206 46.648804 L 169.296997 46.0354 L 169.9104 45.421997 L 170.523804 44.195198 L 170.830505 42.355003 L 170.523804 40.514801 L 170.217102 39.901398 Z M 165.923294 39.901398 L 167.150101 39.901398 L 167.763504 40.208099 L 168.376907 40.821503 L 168.683594 41.7416 L 168.683594 43.275101 L 168.070206 44.5019 L 167.150101 45.115303 L 165.923294 45.115303 L 164.696503 43.888496 L 164.696503 41.434898 Z M 154.268707 38.9813 L 153.348602 39.901398 L 152.735199 41.434898 L 152.735199 43.581802 L 153.348602 45.115303 L 154.268707 46.0354 L 155.495499 46.648804 L 157.949097 46.648804 L 159.789307 45.728699 L 161.016098 43.275101 L 161.016098 41.7416 L 160.402695 39.901398 L 159.482605 38.9813 L 158.255798 38.367897 L 155.495499 38.367897 Z M 157.029007 39.594704 L 157.642395 39.901398 L 158.869202 41.434898 L 158.869202 43.581802 L 157.642395 45.115303 L 156.108902 45.115303 L 154.882095 43.581802 L 154.882095 41.434898 L 156.108902 39.901398 Z M 152.121796 38.367897 L 150.588303 38.367897 L 149.668198 39.288002 L 149.054794 38.367897 L 147.521301 38.367897 L 147.521301 46.648804 L 149.668198 46.342102 L 149.668198 41.434898 L 150.281601 40.514801 L 150.895004 40.208099 L 152.121796 40.208099 Z M 138.013596 38.367897 L 138.013596 44.5019 L 138.320297 45.421997 L 139.547104 46.648804 L 142.000702 46.648804 L 143.227493 45.728699 L 143.534195 46.648804 L 145.374405 46.648804 L 145.067703 38.367897 L 143.227493 38.674599 L 143.227493 43.888496 L 142.000702 45.115303 L 141.080597 45.115303 L 140.160507 44.195198 L 139.853806 38.367897 Z M 129.732697 35.300903 L 129.732697 46.648804 L 136.480103 46.648804 L 136.480103 44.808601 L 131.572906 44.5019 L 131.879593 41.434898 L 135.866699 41.434898 L 135.866699 39.901398 L 131.572906 39.594704 L 131.879593 36.834396 L 136.173401 36.834396 L 136.173401 35.300903 Z M 66.8592 26.099899 L 66.8592 62.597198 L 116.2379 62.597198 L 116.2379 26.099899 Z M 88.941597 56.156502 L 90.781799 55.8498 L 91.088501 55.236397 L 92.008598 54.623001 L 92.3153 55.8498 L 93.848801 56.156502 L 92.622002 57.076599 L 93.235397 58.6101 L 92.622002 58.916801 L 91.395203 57.996696 L 89.861702 58.303398 L 90.168404 57.076599 Z M 97.529198 52.476097 L 98.142601 53.396202 L 98.142601 54.009598 L 99.676102 54.929703 L 99.3694 54.929703 L 98.755997 55.543098 L 98.755997 56.156502 L 99.062698 56.463203 L 98.755997 57.383301 L 97.529198 56.463203 L 96.302399 57.383301 L 96.302399 55.543098 L 95.382301 54.929703 L 95.382301 54.009598 L 96.915802 54.009598 L 96.915802 53.396202 Z M 85.2612 52.476097 L 85.874603 53.0895 L 86.181297 54.009598 L 87.714798 54.623001 L 87.101402 55.236397 L 86.794701 55.236397 L 86.487999 55.8498 L 87.101402 57.076599 L 86.487999 57.383301 L 85.2612 56.463203 L 84.034401 57.383301 L 83.727699 56.769897 L 84.034401 55.543098 L 82.807602 54.316299 L 84.647797 54.009598 Z M 104.583298 50.022499 L 103.049797 51.249298 L 103.356499 53.0895 L 101.822998 52.169403 L 100.596199 53.0895 L 100.902901 51.249298 L 99.3694 50.022499 L 101.209602 49.715797 L 101.516296 49.102402 L 102.436401 48.488998 L 102.743103 49.715797 Z M 80.9674 48.182297 L 81.580803 49.102402 L 81.580803 49.715797 L 83.420998 50.022499 L 82.194199 51.556 L 82.194199 53.0895 L 81.274101 52.169403 L 80.660698 52.169403 L 79.740601 53.0895 L 79.740601 51.249298 L 78.513802 50.022499 L 80.353996 49.715797 L 80.353996 49.102402 Z M 103.6632 42.048302 L 104.276604 42.968399 L 104.276604 43.581802 L 106.116798 43.888496 L 105.503403 44.5019 L 105.196701 44.5019 L 104.889999 45.421997 L 105.196701 45.728699 L 104.889999 46.648804 L 103.6632 45.728699 L 102.436401 46.648804 L 102.1297 45.728699 L 102.436401 45.421997 L 102.436401 44.808601 L 101.209602 43.888496 L 103.049797 43.581802 L 103.049797 42.968399 Z M 79.433899 42.048302 L 80.047302 42.968399 L 80.047302 43.581802 L 81.887497 43.888496 L 81.274101 44.5019 L 80.9674 44.5019 L 80.660698 45.728699 L 80.9674 46.0354 L 80.660698 46.955498 L 79.740601 46.0354 L 79.127197 46.0354 L 77.900398 46.955498 L 78.2071 45.115303 L 76.673599 43.888496 L 78.820503 43.275101 L 78.820503 42.661697 Z M 104.583298 37.754501 L 103.049797 38.9813 L 103.356499 40.821503 L 101.822998 39.901398 L 100.596199 40.821503 L 100.902901 38.9813 L 99.3694 37.754501 L 101.209602 37.4478 L 101.516296 36.834396 L 102.436401 36.221001 L 102.743103 37.4478 Z M 80.9674 35.914299 L 81.580803 36.834396 L 81.580803 37.4478 L 83.420998 37.754501 L 82.194199 39.288002 L 82.194199 40.821503 L 81.274101 39.901398 L 80.660698 39.901398 L 79.740601 40.821503 L 79.740601 38.9813 L 78.820503 38.367897 L 78.820503 37.4478 L 80.353996 37.4478 L 80.353996 36.834396 Z M 97.529198 31.313797 L 98.142601 32.847298 L 99.982803 33.460701 L 99.3694 34.074097 L 99.062698 34.074097 L 98.755997 34.994202 L 99.062698 35.300903 L 98.755997 36.221001 L 97.529198 35.300903 L 96.302399 36.221001 L 95.995697 35.300903 L 96.302399 34.994202 L 95.995697 34.074097 L 95.689003 34.074097 L 95.0756 33.460701 L 96.915802 32.847298 L 96.915802 32.233902 Z M 85.2612 31.313797 L 86.181297 33.153999 L 87.714798 33.460701 L 86.487999 34.380798 L 86.487999 34.994202 L 86.794701 35.300903 L 86.487999 36.221001 L 85.2612 35.300903 L 83.727699 35.914299 L 83.727699 35.300903 L 84.034401 34.994202 L 83.727699 34.074097 L 83.420998 34.074097 L 82.807602 33.460701 L 84.647797 33.153999 L 84.647797 32.540604 Z M 91.395203 29.780304 L 92.008598 30.700394 L 92.008598 31.313797 L 93.542099 32.233902 L 92.622002 33.153999 L 93.235397 34.380798 L 92.622002 34.6875 L 91.395203 33.767403 L 90.168404 34.6875 L 89.861702 33.767403 L 90.168404 33.460701 L 90.168404 32.847298 L 88.941597 31.620499 L 90.781799 31.313797 L 90.781799 30.700394 Z"/>
        <path id="path1" fill="#9b9b9b" fill-rule="evenodd" stroke="none" d="M 10.4264 58.916801 L 65.325699 58.916801 L 65.325699 57.383301 L 11.6532 57.383301 Z M 15.3336 52.169403 L 65.325699 52.169403 L 65.325699 50.329201 L 16.2537 50.635902 Z M 20.8542 45.421997 L 65.325699 45.421997 L 65.325699 43.581802 L 22.387699 43.581802 Z M 27.601601 38.367897 L 65.325699 38.367897 L 65.325699 36.527702 L 29.441799 36.527702 Z M 36.189201 31.313797 L 65.325699 31.313797 L 65.325699 29.780304 L 38.336102 29.780304 Z M 116.2379 11.684998 L 107.343597 9.2314 L 99.3694 7.697906 L 91.088501 6.777802 L 76.980301 6.777802 L 69.312798 7.697906 L 64.405602 8.617996 L 55.511299 11.071594 L 49.070599 13.525208 L 40.483002 17.819 L 36.495899 20.272598 L 30.055201 24.873093 L 24.2279 29.780304 L 15.6403 38.674599 L 9.1996 46.955498 L 2.7589 57.076599 L -0.0014 62.597198 L 3.0656 62.597198 L 3.679 61.983803 L 5.8259 57.996696 L 8.8929 53.396202 L 14.4135 46.0354 L 18.093901 41.7416 L 26.0681 33.767403 L 30.055201 30.393707 L 36.802601 25.486496 L 41.403099 22.726196 L 48.763901 19.045807 L 57.0448 15.978806 L 64.0989 14.138596 L 71.459702 12.911804 L 81.580803 12.298401 L 89.555 12.605103 L 99.3694 13.831894 L 111.637398 16.592194 L 116.2379 18.125702 Z"/>
        <path id="path2" fill="#ffcc00" fill-rule="evenodd" stroke="none" d="M 93.542099 56.156502 L 91.701897 55.8498 L 91.701897 54.929703 L 90.781799 56.156502 L 89.555 56.156502 L 90.168404 56.769897 L 90.475098 56.769897 L 90.168404 58.6101 L 91.701897 57.690002 L 92.622002 58.303398 L 92.3153 57.076599 Z M 97.529198 53.0895 L 96.915802 54.623001 L 95.689003 54.623001 L 96.6091 55.236397 L 96.302399 56.769897 L 97.222504 56.156502 L 97.835899 56.156502 L 98.755997 56.769897 L 98.449303 55.543098 L 99.3694 54.623001 L 97.835899 54.316299 Z M 87.408096 54.623001 L 86.181297 54.623001 L 85.567902 54.009598 L 85.2612 53.0895 L 84.954498 54.316299 L 83.420998 54.623001 L 84.034401 54.929703 L 84.341103 56.156502 L 84.034401 57.076599 L 84.647797 56.463203 L 85.567902 56.156502 L 86.487999 56.769897 L 86.181297 55.543098 Z M 103.969902 50.022499 L 102.1297 49.715797 L 102.1297 48.7957 L 101.516296 50.022499 L 99.982803 50.022499 L 100.902901 51.862701 L 100.902901 52.476097 L 101.516296 51.862701 L 102.436401 51.862701 L 103.049797 52.476097 L 103.049797 51.862701 L 102.743103 51.556 L 103.049797 50.635902 L 103.356499 50.635902 Z M 83.114304 50.022499 L 81.274101 49.715797 L 80.9674 48.488998 L 80.660698 49.715797 L 78.820503 50.022499 L 80.047302 50.942596 L 79.740601 52.476097 L 80.9674 51.556 L 82.194199 52.476097 L 81.887497 51.862701 L 81.887497 50.942596 Z M 105.810097 43.888496 L 103.969902 43.581802 L 103.6632 42.355003 L 103.356499 43.581802 L 101.516296 43.888496 L 102.743103 44.808601 L 102.743103 45.728699 L 102.436401 46.342102 L 103.6632 45.421997 L 104.889999 46.342102 L 104.583298 45.728699 L 104.583298 44.808601 Z M 81.580803 43.888496 L 80.047302 43.888496 L 79.433899 43.275101 L 79.433899 42.355003 L 78.820503 43.888496 L 77.287003 43.888496 L 78.513802 44.808601 L 78.2071 46.342102 L 79.433899 45.421997 L 80.660698 46.342102 L 80.047302 45.115303 Z M 103.969902 37.754501 L 102.1297 37.4478 L 102.1297 36.527702 L 101.516296 37.754501 L 99.982803 37.754501 L 100.902901 39.594704 L 100.902901 40.208099 L 101.516296 39.594704 L 102.436401 39.594704 L 103.049797 40.208099 L 102.743103 38.9813 Z M 80.9674 36.527702 L 80.660698 37.4478 L 80.047302 38.061203 L 79.127197 38.061203 L 80.047302 38.674599 L 79.740601 40.208099 L 80.9674 39.288002 L 82.194199 40.208099 L 81.887497 38.674599 L 82.807602 38.061203 L 81.274101 37.754501 Z M 99.676102 33.460701 L 97.835899 33.153999 L 97.529198 31.9272 L 96.915802 33.460701 L 95.382301 33.460701 L 96.6091 34.380798 L 96.6091 35.300903 L 96.302399 35.914299 L 97.529198 34.994202 L 98.755997 35.914299 L 98.449303 35.300903 L 98.449303 34.380798 Z M 87.408096 33.460701 L 85.567902 33.153999 L 85.2612 31.9272 L 84.954498 33.153999 L 83.420998 33.460701 L 84.341103 34.380798 L 84.341103 35.300903 L 84.034401 35.914299 L 84.647797 35.300903 L 85.567902 34.994202 L 86.487999 35.914299 L 86.181297 35.300903 L 86.181297 34.380798 Z M 91.395203 30.393707 L 90.781799 31.9272 L 89.555 31.9272 L 90.781799 32.847298 L 90.168404 34.380798 L 90.781799 33.767403 L 91.701897 33.460701 L 92.622002 34.380798 L 92.3153 32.847298 L 93.235397 31.9272 L 91.701897 31.620499 Z"/>
    </g>
</svg>
