<?xml version="1.0" encoding="UTF-8"?>
<svg xmlns="http://www.w3.org/2000/svg" viewBox="0 0 250 250" role="img" aria-label="Generali logo">
<title>Generali</title>
<g transform="translate(-40.6886 44.0141) scale(0.3912)">
<path fill="#bc1c1a" fill-rule="evenodd" d="M122 227L122 230L131 232L131 229L127 229ZM119 227L114 229L110 229L110 232L119 230ZM122 221L122 224L131 226L131 223ZM119 221L110 223L110 226L119 224ZM121 215L122 218L132 220L131 217ZM119 215L110 217L109 220L115 218L119 218ZM708 167L709 171L719 171L718 244L708 245L709 246L708 248L742 248L741 244L732 245L732 170L741 171L742 167ZM390 167L390 171L394 170L401 172L404 176L404 237L400 243L395 245L391 245L390 248L420 248L419 245L412 244L407 239L408 185L433 222L441 232L446 241L450 246L453 248L453 175L456 172L461 170L473 171L472 245L462 245L462 248L521 248L521 218L518 218L515 233L513 237L508 242L503 244L492 245L485 243L486 208L495 209L500 214L503 225L505 225L506 189L503 189L502 195L500 199L496 203L490 205L486 204L486 171L495 170L503 171L508 173L515 181L517 188L517 192L518 195L520 196L520 167L437 167L437 171L445 171L447 172L450 176L449 223L440 211L411 167ZM328 167L328 171L338 172L336 244L326 245L326 248L385 248L385 218L382 218L382 223L379 234L372 242L367 244L352 245L350 243L351 208L356 208L362 211L365 215L367 221L367 225L370 225L371 189L367 188L366 196L360 203L357 204L349 203L350 172L352 170L367 171L375 175L380 183L382 195L384 196L384 167ZM277 169L271 173L265 180L262 186L258 200L259 219L262 229L265 235L271 242L277 246L283 248L297 248L302 246L308 240L316 247L318 247L319 209L327 209L326 206L295 205L295 210L306 210L306 236L301 242L295 245L286 245L283 243L285 242L282 243L276 236L272 224L272 191L274 183L278 175L286 169L295 169L300 171L308 178L313 187L315 195L317 195L318 167L316 166L308 173L304 169L299 167L288 166ZM705 219L702 218L699 233L693 241L687 244L676 243L677 170L686 171L686 167L652 167L653 171L663 171L662 244L654 243L642 210L636 197L634 189L625 167L625 165L620 165L618 170L618 173L611 190L611 193L609 196L609 199L600 222L595 239L593 242L590 244L586 243L585 240L586 227L585 218L580 210L571 207L580 203L585 198L588 192L589 184L586 175L580 170L571 167L525 167L525 170L533 170L536 171L535 245L525 244L526 246L525 248L559 248L558 243L548 243L549 209L565 209L568 210L571 213L573 217L573 236L574 241L579 246L586 248L610 248L609 244L604 244L600 240L601 233L604 224L606 222L631 222L633 224L637 236L639 239L639 244L631 244L631 248L705 248ZM619 185L629 211L630 219L608 216L617 187ZM549 170L564 170L568 171L572 174L575 179L576 190L573 199L569 203L564 205L548 204ZM104 211L104 248L246 248L246 241L221 240L226 238L228 224L230 232L237 236L245 235L241 231L240 228L238 227L233 227L231 225L224 208L217 200L212 197L203 195L183 194L184 190L205 191L210 190L216 184L224 181L228 176L233 176L235 175L241 167L167 167L163 169L159 175L159 171L156 170L154 167L152 167L150 165L140 165L134 170L131 176L126 182L128 189L132 191L129 192L129 195L131 196L127 201L123 198L118 198L116 200L113 200L110 203L111 207L110 210ZM111 240L120 237L130 240ZM234 230L236 229L239 232L237 233ZM199 221L209 224L215 224L217 226L216 231L212 231L208 234L209 240L191 238L198 232L199 230L199 226L197 223ZM182 218L187 227L187 229L182 233L175 232L172 235L170 241L156 240L158 238L158 235L161 233L159 229L159 224L160 222L172 220L179 217ZM191 217L193 219L197 228L195 231L185 241L174 240L174 236L176 234L184 236L190 229L190 227L187 221L184 218L185 216ZM138 216L140 219L140 222L147 220L147 231L142 232L140 235L140 239L137 240ZM107 213L118 210L124 210L135 214L134 219L134 238L123 235L117 235L114 237L109 238L106 237ZM126 208L123 207L119 207L118 208L113 207L114 203L118 203L121 200L121 202L124 202ZM206 200L209 199L214 201L218 204L219 208L212 206ZM139 188L136 191L132 190L135 188ZM190 187L193 184L212 185L207 188L191 189ZM201 180L205 176L224 177L220 178L219 181ZM153 170L155 172L158 179L155 193L159 196L159 198L156 202L150 204L155 208L153 211L149 212L149 215L144 219L143 210L137 213L137 211L134 211L130 208L131 205L129 203L132 198L139 197L145 194L147 182L149 182L148 178L152 174ZM214 173L215 171L223 169L234 169L235 171L233 173L229 174ZM213 170L210 173L207 174L178 174L177 176L179 177L201 177L196 181L174 182L174 184L188 185L185 188L171 188L170 190L181 193L178 196L173 195L171 197L177 199L181 197L201 198L206 205L210 208L216 210L221 210L225 215L225 233L222 237L212 241L210 238L210 236L212 234L220 232L219 224L215 221L202 220L191 214L185 213L165 219L157 219L158 221L156 236L154 238L149 238L144 241L142 239L142 236L144 234L149 233L150 218L152 214L155 215L157 210L157 204L161 201L161 194L158 189L163 173L166 170L210 169ZM149 169L150 171L146 176L146 179L143 182L144 190L138 195L131 194L140 191L140 186L135 185L131 188L130 182L131 180L134 179L135 181L138 179L133 177L134 175L138 173L145 174L146 171ZM146 168L142 171L138 170L142 167Z"/>
</g>
</svg>
