<?xml version="1.0" encoding="UTF-8"?>
<!-- Generated by Pixelmator Pro 3.8 -->
<svg width="251" height="34" viewBox="0 0 251 34" xmlns="http://www.w3.org/2000/svg">
    <g id="Group">
        <path id="Path" fill="#bc1c1a" fill-rule="evenodd" stroke="none" d="M 8.0378 24.816498 L 8.0378 25.990097 L 11.5586 26.772499 L 11.5586 25.5989 L 9.9938 25.5989 Z M 6.8642 24.816498 L 4.9082 25.5989 L 3.3434 25.5989 L 3.3434 26.772499 L 6.8642 25.990097 Z M 8.0378 22.469299 L 8.0378 23.642899 L 11.5586 24.425301 L 11.5586 23.251701 Z M 6.8642 22.469299 L 3.3434 23.251701 L 3.3434 24.425301 L 6.8642 23.642899 Z M 7.6466 20.122101 L 8.0378 21.2957 L 11.9498 22.078102 L 11.5586 20.904503 Z M 6.8642 20.122101 L 3.3434 20.904503 L 2.9522 22.078102 L 5.2994 21.2957 L 6.8642 21.2957 Z M 237.281006 1.344498 L 237.672195 2.909302 L 241.584198 2.909302 L 241.192993 31.466904 L 237.281006 31.858101 L 237.672195 32.249298 L 237.281006 33.0317 L 250.581802 33.0317 L 250.190598 31.466904 L 246.6698 31.858101 L 246.6698 2.518097 L 250.190598 2.909302 L 250.581802 1.344498 Z M 112.879402 1.344498 L 112.879402 2.909302 L 114.444199 2.518097 L 117.182602 3.300507 L 118.356201 4.865295 L 118.356201 28.7285 L 116.791397 31.075699 L 114.835403 31.858101 L 113.270599 31.858101 L 112.879402 33.0317 L 124.615402 33.0317 L 124.224197 31.858101 L 121.485802 31.466904 L 119.5298 29.510902 L 119.920998 8.386093 L 129.701004 22.860497 L 132.830597 26.772499 L 134.786606 30.293297 L 136.351395 32.249298 L 137.524994 33.0317 L 137.524994 4.474106 L 138.698593 3.300507 L 140.654602 2.518097 L 145.348999 2.909302 L 144.957794 31.858101 L 141.045807 31.858101 L 141.045807 33.0317 L 164.126602 33.0317 L 164.126602 21.2957 L 162.953003 21.2957 L 161.779404 27.163696 L 160.996994 28.7285 L 159.041 30.684502 L 157.085007 31.466904 L 152.781799 31.858101 L 150.043396 31.075699 L 150.434601 17.383698 L 153.955399 17.774902 L 155.911407 19.730904 L 157.085007 24.034103 L 157.867401 24.034103 L 158.258606 9.950897 L 157.085007 9.950897 L 156.693802 12.298096 L 155.911407 13.8629 L 154.346603 15.427696 L 151.999405 16.210098 L 150.434601 15.818901 L 150.434601 2.909302 L 153.955399 2.518097 L 157.085007 2.909302 L 159.041 3.691696 L 161.779404 6.821304 L 162.561798 9.559692 L 162.561798 11.124496 L 162.953003 12.298096 L 163.735397 12.689301 L 163.735397 1.344498 L 131.265793 1.344498 L 131.265793 2.909302 L 134.395401 2.909302 L 135.177795 3.300507 L 136.351395 4.865295 L 135.960205 23.251701 L 132.439407 18.557297 L 121.094597 1.344498 Z M 88.625 1.344498 L 88.625 2.909302 L 92.537003 3.300507 L 91.754601 31.466904 L 87.842598 31.858101 L 87.842598 33.0317 L 110.923401 33.0317 L 110.923401 21.2957 L 109.749802 21.2957 L 109.749802 23.251701 L 108.576202 27.554901 L 105.837799 30.684502 L 103.881798 31.466904 L 98.013802 31.858101 L 97.2314 31.075699 L 97.622597 17.383698 L 99.578598 17.383698 L 101.925797 18.557297 L 103.099403 20.122101 L 103.881798 22.469299 L 103.881798 24.034103 L 105.055397 24.034103 L 105.446602 9.950897 L 103.881798 9.559692 L 103.490601 12.689301 L 101.143402 15.427696 L 99.969803 15.818901 L 96.840202 15.427696 L 97.2314 3.300507 L 98.013802 2.518097 L 103.881798 2.909302 L 107.011398 4.474106 L 108.9674 7.603699 L 109.749802 12.298096 L 110.532204 12.689301 L 110.532204 1.344498 Z M 68.673798 2.126907 L 66.326599 3.691696 L 63.979401 6.430099 L 62.805801 8.777298 L 61.241001 14.254097 L 61.632198 21.686897 L 62.805801 25.5989 L 63.979401 27.946098 L 66.326599 30.684502 L 68.673798 32.249298 L 71.021004 33.0317 L 76.497803 33.0317 L 78.453796 32.249298 L 80.801003 29.9021 L 83.930603 32.640503 L 84.712997 32.640503 L 85.104202 17.774902 L 88.233803 17.774902 L 87.842598 16.601303 L 75.715401 16.210098 L 75.715401 18.1661 L 80.0186 18.1661 L 80.0186 28.337303 L 78.062599 30.684502 L 75.715401 31.858101 L 72.194603 31.858101 L 71.021004 31.075699 L 71.803398 30.684502 L 70.629799 31.075699 L 68.2826 28.337303 L 66.717796 23.642899 L 66.717796 10.733307 L 67.500198 7.603699 L 69.065002 4.474106 L 72.194603 2.126907 L 75.715401 2.126907 L 77.671402 2.909302 L 80.801003 5.647705 L 82.757004 9.168503 L 83.539398 12.298096 L 84.3218 12.298096 L 84.712997 1.344498 L 83.930603 0.953293 L 80.801003 3.691696 L 79.236198 2.126907 L 77.280197 1.344498 L 72.976997 0.953293 Z M 236.107407 21.686897 L 234.933807 21.2957 L 233.760193 27.163696 L 231.412994 30.293297 L 229.065796 31.466904 L 224.762604 31.075699 L 225.153793 2.518097 L 228.674606 2.909302 L 228.674606 1.344498 L 215.373795 1.344498 L 215.764999 2.909302 L 219.677002 2.909302 L 219.285797 31.466904 L 216.156204 31.075699 L 211.461807 18.1661 L 209.114594 13.080505 L 208.332199 9.950897 L 204.811401 1.344498 L 204.811401 0.562103 L 202.855392 0.562103 L 202.072998 2.518097 L 202.072998 3.691696 L 199.334595 10.342102 L 199.334595 11.515701 L 198.5522 12.689301 L 198.5522 13.8629 L 195.031403 22.860497 L 193.075394 29.510902 L 192.292999 30.684502 L 191.1194 31.466904 L 189.554596 31.075699 L 189.163406 29.9021 L 189.554596 24.816498 L 189.163406 21.2957 L 187.207397 18.1661 L 183.6866 16.9925 L 187.207397 15.427696 L 189.163406 13.471695 L 190.337006 11.124496 L 190.728195 7.994904 L 189.554596 4.474106 L 187.207397 2.518097 L 183.6866 1.344498 L 165.691406 1.344498 L 165.691406 2.518097 L 168.820999 2.518097 L 169.994598 2.909302 L 169.603394 31.858101 L 165.691406 31.466904 L 166.082596 32.249298 L 165.691406 33.0317 L 178.992203 33.0317 L 178.600998 31.075699 L 174.688995 31.075699 L 175.0802 17.774902 L 181.339401 17.774902 L 182.513 18.1661 L 183.6866 19.339699 L 184.468994 20.904503 L 184.468994 28.337303 L 184.860199 30.293297 L 186.816193 32.249298 L 189.554596 33.0317 L 198.943405 33.0317 L 198.5522 31.466904 L 196.596207 31.466904 L 195.031403 29.9021 L 195.422607 27.163696 L 196.596207 23.642899 L 197.378601 22.860497 L 207.1586 22.860497 L 207.940994 23.642899 L 209.505798 28.337303 L 210.288193 29.510902 L 210.288193 31.466904 L 207.1586 31.466904 L 207.1586 33.0317 L 236.107407 33.0317 Z M 202.464203 8.386093 L 206.376205 18.557297 L 206.767395 21.686897 L 198.160995 20.513298 L 201.681793 9.168503 Z M 175.0802 2.518097 L 180.948196 2.518097 L 182.513 2.909302 L 184.077805 4.082901 L 185.251404 6.038895 L 185.642593 10.342102 L 184.468994 13.8629 L 182.904205 15.427696 L 180.948196 16.210098 L 174.688995 15.818901 Z M 0.9962 18.557297 L 0.9962 33.0317 L 56.5466 33.0317 L 56.5466 30.293297 L 46.766602 29.9021 L 48.722599 29.119698 L 49.505001 23.642899 L 50.287399 26.772499 L 53.025799 28.337303 L 56.155399 27.946098 L 54.590599 26.381302 L 54.199402 25.207703 L 53.417 24.816498 L 51.460999 24.816498 L 50.6786 24.034103 L 47.940201 17.383698 L 45.201801 14.254097 L 43.2458 13.080505 L 39.724998 12.298096 L 31.900999 11.906906 L 32.292202 10.342102 L 40.507401 10.733307 L 42.463402 10.342102 L 44.8106 7.994904 L 47.940201 6.821304 L 49.505001 4.865295 L 51.460999 4.865295 L 52.243401 4.474106 L 54.590599 1.344498 L 25.6418 1.344498 L 24.077 2.126907 L 22.512199 4.474106 L 22.512199 2.909302 L 21.3386 2.518097 L 20.5562 1.344498 L 19.7738 1.344498 L 18.9914 0.562103 L 15.0794 0.562103 L 12.7322 2.518097 L 11.5586 4.865295 L 9.6026 7.212494 L 10.385 9.950897 L 11.9498 10.733307 L 10.7762 11.124496 L 10.7762 12.298096 L 11.5586 12.689301 L 9.9938 14.645302 L 8.429 13.471695 L 6.473 13.471695 L 5.6906 14.254097 L 4.517 14.254097 L 3.3434 15.427696 L 3.7346 16.9925 L 3.3434 18.1661 Z M 3.7346 29.9021 L 7.2554 28.7285 L 11.1674 29.9021 Z M 51.8522 25.990097 L 52.634602 25.5989 L 53.808201 26.772499 L 53.025799 27.163696 Z M 38.160198 22.469299 L 42.072201 23.642899 L 44.419399 23.642899 L 45.201801 24.425301 L 44.8106 26.381302 L 43.2458 26.381302 L 41.681 27.554901 L 42.072201 29.9021 L 35.030602 29.119698 L 37.769001 26.772499 L 38.160198 25.990097 L 38.160198 24.425301 L 37.3778 23.251701 Z M 31.5098 21.2957 L 33.465801 24.816498 L 33.465801 25.5989 L 31.5098 27.163696 L 28.7714 26.772499 L 27.597799 27.946098 L 26.815399 30.293297 L 21.3386 29.9021 L 22.121 29.119698 L 22.121 27.946098 L 23.2946 27.163696 L 22.512199 25.5989 L 22.512199 23.642899 L 22.9034 22.860497 L 27.597799 22.078102 L 30.336201 20.904503 Z M 35.030602 20.904503 L 35.813 21.686897 L 37.3778 25.207703 L 36.595402 26.381302 L 32.683399 30.293297 L 28.380199 29.9021 L 28.380199 28.337303 L 29.1626 27.554901 L 32.292202 28.337303 L 34.6394 25.5989 L 34.6394 24.816498 L 33.465801 22.469299 L 32.292202 21.2957 L 32.683399 20.513298 Z M 14.297 20.513298 L 15.0794 21.686897 L 15.0794 22.860497 L 17.817801 22.078102 L 17.817801 26.381302 L 15.8618 26.772499 L 15.0794 27.946098 L 15.0794 29.510902 L 13.9058 29.9021 Z M 2.1698 19.339699 L 6.473 18.1661 L 8.8202 18.1661 L 13.1234 19.730904 L 12.7322 21.686897 L 12.7322 29.119698 L 8.429 27.946098 L 6.0818 27.946098 L 4.9082 28.7285 L 2.9522 29.119698 L 1.7786 28.7285 Z M 9.6026 17.383698 L 8.429 16.9925 L 6.8642 16.9925 L 6.473 17.383698 L 4.517 16.9925 L 4.9082 15.427696 L 6.473 15.427696 L 7.6466 14.254097 L 7.6466 15.036499 L 8.8202 15.036499 Z M 40.898602 14.254097 L 42.072201 13.8629 L 44.028198 14.645302 L 45.592999 15.818901 L 45.9842 17.383698 L 43.2458 16.601303 Z M 14.6882 9.559692 L 13.5146 10.733307 L 11.9498 10.342102 L 13.1234 9.559692 Z M 34.6394 9.168503 L 35.813 7.994904 L 43.2458 8.386093 L 41.289799 9.559692 L 35.030602 9.950897 Z M 38.9426 6.430099 L 40.507401 4.865295 L 47.940201 5.2565 L 46.375401 5.647705 L 45.9842 6.821304 Z M 20.165001 2.518097 L 20.947399 3.300507 L 22.121 6.038895 L 20.947399 11.515701 L 22.512199 12.689301 L 22.512199 13.471695 L 21.3386 15.036499 L 18.9914 15.818901 L 20.947399 17.383698 L 20.165001 18.557297 L 18.600201 18.948502 L 18.600201 20.122101 L 16.644201 21.686897 L 16.253 18.1661 L 13.9058 19.339699 L 13.9058 18.557297 L 12.7322 18.557297 L 11.1674 17.383698 L 11.5586 16.210098 L 10.7762 15.427696 L 11.9498 13.471695 L 14.6882 13.080505 L 17.0354 11.906906 L 17.817801 7.212494 L 18.600201 7.212494 L 18.209 5.647705 L 19.7738 4.082901 Z M 44.028198 3.691696 L 44.419399 2.909302 L 47.549 2.126907 L 51.8522 2.126907 L 52.243401 2.909302 L 51.460999 3.691696 L 49.896198 4.082901 Z M 43.637001 2.518097 L 42.463402 3.691696 L 41.289799 4.082901 L 29.945 4.082901 L 29.553801 4.865295 L 30.336201 5.2565 L 38.9426 5.2565 L 36.986599 6.821304 L 28.380199 7.212494 L 28.380199 7.994904 L 33.856998 8.386093 L 32.683399 9.559692 L 27.2066 9.559692 L 26.815399 10.342102 L 31.118601 11.515701 L 29.945 12.689301 L 27.989 12.298096 L 27.2066 13.080505 L 29.553801 13.8629 L 31.118601 13.080505 L 38.9426 13.471695 L 40.898602 16.210098 L 42.463402 17.383698 L 44.8106 18.1661 L 46.766602 18.1661 L 48.331402 20.122101 L 48.331402 27.163696 L 47.157799 28.7285 L 43.2458 30.293297 L 42.463402 29.119698 L 42.463402 28.337303 L 43.2458 27.554901 L 46.375401 26.772499 L 45.9842 23.642899 L 44.419399 22.469299 L 39.333801 22.078102 L 35.030602 19.730904 L 32.683399 19.339699 L 24.8594 21.686897 L 21.729799 21.686897 L 22.121 22.469299 L 21.3386 28.337303 L 20.5562 29.119698 L 18.600201 29.119698 L 16.644201 30.293297 L 15.8618 29.510902 L 15.8618 28.337303 L 16.644201 27.554901 L 18.600201 27.163696 L 18.9914 21.2957 L 19.7738 19.730904 L 20.947399 20.122101 L 21.729799 18.1661 L 21.729799 15.818901 L 23.2946 14.645302 L 23.2946 11.906906 L 22.121 9.950897 L 24.077 3.691696 L 25.250601 2.518097 L 42.463402 2.126907 Z M 18.600201 2.126907 L 18.9914 2.909302 L 17.4266 4.865295 L 17.4266 6.038895 L 16.253 7.212494 L 16.644201 10.342102 L 14.297 12.298096 L 11.5586 11.906906 L 15.0794 10.733307 L 15.0794 8.777298 L 13.1234 8.386093 L 11.5586 9.559692 L 11.1674 7.212494 L 11.5586 6.430099 L 12.7322 6.038895 L 13.1234 6.821304 L 14.297 6.038895 L 12.341 5.2565 L 12.7322 4.474106 L 14.297 3.691696 L 17.0354 4.082901 L 17.4266 2.909302 Z M 17.4266 1.735703 L 15.8618 2.909302 L 14.297 2.518097 L 15.8618 1.344498 Z"/>
    </g>
</svg>
