<?xml version="1.0" encoding="UTF-8"?>
<svg xmlns="http://www.w3.org/2000/svg" viewBox="0 0 250 250" role="img" aria-label="Goldman Sachs logo">
  <title>Goldman Sachs</title>
  <path fill="#000000" fill-rule="evenodd" d="M34.23 72.67L18.58 72.67L18.39 72.87L17.02 72.87L14.28 73.45L11.15 74.63L8.02 76.58L5.28 79.32L3.91 81.28L2.54 84.02L1.37 87.34L0.39 92.23L0 99.28L0.2 99.47L0.39 106.51L1.76 113.36L3.33 117.08L4.89 119.42L6.85 121.38L8.22 122.36L12.32 124.12L10.17 124.9L7.24 126.47L4.69 128.81L3.52 130.58L2.54 132.92L2.15 134.68L2.15 136.25L1.96 136.44L2.15 139.57L2.54 141.33L3.13 142.9L4.5 145.25L7.43 148.38L10.37 150.53L20.15 156.2L23.47 158.55L25.82 161.29L26.6 163.24L26.8 165.2L27 165.4L27 166.76L26.41 169.5L25.23 171.46L23.67 172.83L22.1 173.61L19.56 174.2L15.26 174L12.13 172.83L10.95 172.05L8.61 169.7L6.46 165.98L5.09 162.07L4.5 159.53L2.35 159.53L2.15 159.72L2.15 176.35L2.35 176.55L19.95 176.55L20.15 176.35L21.91 176.35L22.1 176.15L24.06 175.96L26.6 175.18L30.32 173.22L33.26 170.48L35.02 167.74L35.99 165L36.38 163.05L36.38 158.16L35.41 154.83L33.84 152.29L32.08 150.33L29.15 147.99L26.21 146.03L18.39 141.53L14.08 138.6L12.52 137.03L11.74 135.86L10.95 133.31L10.95 130.97L11.35 129.4L11.93 128.23L13.69 126.47L16.63 125.29L18 125.29L18.19 125.1L21.52 125.29L23.67 125.88L26.02 127.25L28.36 129.6L29.73 131.55L31.1 134.1L32.47 137.42L34.62 137.42L34.62 97.52L19.17 97.52L18.97 97.71L18.97 99.67L20.93 100.06L23.08 101.04L24.26 102.21L24.84 103.38L25.23 105.34L25.23 115.51L25.04 115.71L25.04 117.27L24.65 118.84L23.87 120.4L22.3 121.97L21.52 122.36L19.37 122.55L19.17 122.75L18.97 122.55L17.61 122.55L16.24 121.97L14.67 120.4L13.5 117.66L12.91 114.93L12.72 111.8L12.52 111.6L12.52 109.25L12.32 109.06L12.32 103.78L12.13 103.58L12.13 95.36L12.32 95.17L12.32 90.67L12.52 90.47L12.72 86.56L12.91 86.37L12.91 85.19L13.5 82.26L14.28 79.91L15.45 77.76L17.41 75.8L19.17 75.02L22.3 74.82L24.65 75.41L26.21 76.39L28.56 79.13L30.13 82.06L31.69 86.37L31.89 86.56L34.23 86.56ZM78.44 73.65L78.44 120.99L88.62 120.99L88.62 73.85L88.42 73.65ZM125.59 73.65L115.61 73.65L115.61 86.17L115.41 86.37L113.85 84.41L112.09 83.43L110.72 83.04L106.61 83.04L104.46 83.63L102.5 84.6L100.94 85.78L98.59 88.52L97.42 90.67L95.85 95.56L95.66 97.91L95.46 98.1L95.46 100.06L95.27 100.25L95.27 104.36L95.46 104.56L95.46 106.91L95.66 107.1L95.85 109.45L97.03 113.56L98.59 116.69L100.74 119.23L103.48 120.99L106.03 121.77L107.39 121.77L107.59 121.97L108.96 121.97L111.7 121.38L114.24 119.62L115.22 118.25L116 116.49L116.2 116.69L116.2 120.99L125.59 120.99ZM53.99 83.04L50.86 83.82L47.93 85.39L45.19 87.93L43.62 90.28L42.06 93.99L41.28 97.52L41.28 98.88L41.08 99.08L41.08 105.73L41.28 105.93L41.67 109.45L42.64 112.58L44.01 115.32L46.56 118.45L49.3 120.4L51.64 121.38L54.38 121.97L58.49 121.97L61.82 121.19L65.14 119.42L67.49 117.27L69.25 114.73L70.81 111.01L71.6 107.49L71.6 106.12L71.79 105.93L71.79 98.88L71.6 98.69L71.6 97.32L71.21 95.36L70.23 92.23L68.47 88.91L65.53 85.78L62.99 84.21L60.05 83.24L59.08 83.24L58.88 83.04ZM133.8 83.82L133.8 120.99L143.78 120.99L143.78 92.43L143.97 92.23L144.17 90.28L144.95 88.71L146.32 87.34L147.89 86.76L149.06 86.76L150.04 87.15L151.02 88.13L151.6 89.89L151.6 120.99L161.78 120.99L161.78 92.04L162.36 89.69L163.34 88.13L164.32 87.34L165.88 86.76L167.06 86.76L168.04 87.15L168.82 87.93L169.6 90.08L169.6 120.99L179.77 120.99L179.77 92.04L179.58 91.84L179.38 89.69L178.79 87.93L177.82 86.17L176.45 84.8L174.88 83.82L172.34 83.04L168.23 83.04L167.25 83.24L164.12 84.6L163.15 85.39L161.58 87.15L160.8 88.71L159.43 86.17L157.67 84.41L156.3 83.63L154.34 83.04L150.23 83.04L148.08 83.63L145.93 84.8L144.17 86.56L143.39 87.93L143.19 87.73L143.19 83.82ZM188.58 84.8L188.38 85L188.38 93.6L190.73 93.6L192.68 89.5L193.86 87.93L195.81 86.17L197.38 85.39L199.14 85L200.51 85L201.88 85.39L203.25 86.95L203.44 87.73L203.44 95.36L203.05 96.34L201.68 97.52L195.81 99.47L191.31 101.62L189.16 103.19L187.4 105.14L186.42 106.91L185.64 110.04L185.84 114.53L186.42 116.49L187.21 118.06L188.97 120.01L190.14 120.79L192.1 121.58L193.86 121.97L197.18 121.97L199.73 121.38L201.88 120.21L203.44 118.64L204.23 117.27L204.42 117.47L204.42 120.99L213.81 120.99L213.81 93.41L213.62 93.21L213.42 90.67L212.83 88.91L211.85 87.15L210.09 85.39L208.92 84.6L206.57 83.63L203.83 83.04L195.81 83.24ZM246.48 84.6L244.72 83.63L242.57 83.04L238.46 83.04L236.11 83.63L233.96 84.8L232.39 86.17L231.22 87.93L231.03 87.73L231.03 83.82L221.64 83.82L221.64 120.99L231.81 120.99L231.81 91.26L232.2 89.89L232.98 88.52L233.96 87.54L235.52 86.76L238.07 86.95L239.05 87.93L239.83 90.28L239.83 120.99L250 120.99L250 92.04L249.22 88.32L248.04 86.17ZM55.95 84.8L57.71 85L59.27 86.17L60.05 87.73L60.64 89.69L60.84 92.23L61.03 92.43L61.03 94.58L61.23 94.78L61.23 110.04L61.03 110.23L60.84 113.95L60.45 115.9L59.47 118.25L58.1 119.62L57.51 119.82L55.36 119.82L54.58 119.42L53.4 118.25L52.82 117.08L52.23 114.93L52.03 112.38L51.84 112.19L51.84 109.64L51.64 109.45L51.64 95.17L51.84 94.97L51.84 92.63L52.03 92.43L52.23 89.89L52.82 87.73L53.79 85.97L54.38 85.39ZM109.74 85.58L111.5 85.58L112.68 86.17L113.85 87.54L114.44 88.71L115.02 90.86L115.22 93.02L115.41 93.21L115.41 95.17L115.61 95.36L115.81 103.38L115.61 103.58L115.61 108.47L115.41 108.67L115.41 110.43L115.22 110.62L115.02 112.97L113.85 116.69L112.68 118.25L111.31 119.03L109.35 119.03L108.57 118.64L107.59 117.66L107 116.49L106.22 112.77L106.03 106.91L105.83 106.71L105.83 97.91L106.03 97.71L106.03 93.99L106.22 93.8L106.42 90.86L107.39 87.54L108.76 85.97ZM203.25 99.08L203.44 99.28L203.44 113.36L202.46 116.49L201.49 117.66L200.31 118.25L198.94 118.45L197.77 118.06L196.79 117.08L196.21 115.71L196.01 112.58L195.81 112.38L195.81 109.06L196.01 108.86L196.21 105.73L196.99 103.58L198.55 101.62L199.92 100.65ZM78.25 145.44L76.88 148.18L75.51 153.66L75.51 155.42L75.31 155.61L75.51 162.66L76.49 166.96L77.86 170.09L79.81 172.83L81.77 174.59L84.51 176.15L87.05 176.94L89.2 177.13L89.4 177.33L94.48 177.13L98.2 176.15L101.72 174.2L104.85 171.26L106.61 168.72L107.98 165.79L108.18 165.98L108.18 176.35L118.35 176.35L118.35 147.2L118.74 145.64L119.33 144.46L121.09 142.7L123.04 142.12L125 142.7L125.59 143.29L126.37 145.25L126.37 176.35L126.56 176.55L136.54 176.55L136.54 146.81L135.95 144.07L134.78 141.73L133.02 139.96L131.26 138.99L128.91 138.4L125.39 138.4L122.85 138.99L120.11 140.55L118.54 142.31L118.35 142.12L118.35 129.21L118.15 129.01L108.18 129.01L108.18 156.4L107.98 156.59L107.98 158.16L107.39 161.29L106.42 164.22L104.26 168.13L101.53 171.07L98 173.22L95.27 174L91.55 174L89.59 173.22L87.83 171.26L86.85 168.92L86.07 164.81L86.07 162.46L85.88 162.27L86.07 150.14L86.27 149.94L86.46 147.01L87.25 143.88L88.03 142.31L89.59 140.75L90.77 140.36L92.92 140.55L94.48 141.53L95.46 142.51L96.83 144.46L98.98 149.16L101.33 149.16L101.33 140.16L97.61 138.99L94.09 138.6L93.9 138.4L89.59 138.4L89.4 138.6L87.25 138.79L84.9 139.57L82.16 141.14L79.62 143.49ZM166.47 139.57L161.58 138.6L160.21 138.6L160.02 138.4L157.67 138.4L157.47 138.2L153.36 138.4L150.63 138.99L148.28 139.96L146.32 141.33L144.76 143.09L143.78 145.05L143.19 147.4L143.19 150.53L143.78 152.68L144.56 154.24L145.93 156.01L148.08 157.96L158.65 164.61L160.21 166.18L160.99 167.55L161.38 168.92L161.38 170.48L160.6 172.83L159.04 174.39L156.69 175.18L152.78 174.98L150.63 174L148.28 171.65L146.71 168.72L145.74 165.4L143.39 165.4L143.19 165.59L143.19 175.76L147.3 176.74L150.23 176.94L150.43 177.13L157.08 177.13L157.28 176.94L158.45 176.94L160.99 176.35L164.32 174.78L166.86 172.44L167.64 171.26L168.82 167.94L169.01 165.2L168.82 165L168.82 163.44L168.43 161.87L166.86 158.94L164.51 156.59L162.95 155.42L153.17 149.55L151.41 147.99L150.82 147.2L150.23 145.64L150.43 143.29L151.8 141.33L153.95 140.36L157.08 140.36L158.84 140.94L161.19 142.9L162.17 144.27L163.34 146.62L164.12 148.96L166.47 148.96ZM43.62 140.36L43.62 148.96L46.17 148.96L46.36 148.18L48.51 144.27L50.27 142.31L51.64 141.33L53.6 140.55L56.53 140.55L57.51 140.94L58.29 141.73L58.88 143.49L58.88 150.33L58.49 151.51L57.32 152.68L55.56 153.46L51.06 154.83L46.95 156.79L45.19 157.96L43.04 160.11L42.06 161.68L41.08 164.81L41.08 169.11L41.67 171.46L42.64 173.42L44.41 175.37L45.97 176.35L47.54 176.94L49.49 177.13L49.69 177.33L52.23 177.33L54.97 176.74L57.71 175.18L59.08 173.61L59.66 172.44L59.86 172.63L59.86 176.35L69.05 176.35L69.05 148.18L68.27 144.66L67.1 142.51L65.34 140.75L63.38 139.57L61.03 138.79L58.69 138.6L58.49 138.4L51.64 138.6L51.45 138.79L48.12 139.18ZM58.69 154.44L58.88 154.64L58.88 168.33L58.69 168.53L58.69 169.7L57.9 171.85L56.92 173.02L55.36 173.81L53.99 173.81L53.01 173.42L52.23 172.63L51.45 170.48L51.25 163.63L51.45 163.44L51.64 160.9L52.62 158.55L53.99 156.98L55.36 156.01Z"/>
</svg>
