<?xml version="1.0" encoding="UTF-8"?>
<!-- Generated by Pixelmator Pro 3.8 -->
<svg width="250" height="106" viewBox="0 0 250 106" xmlns="http://www.w3.org/2000/svg">
    <path id="Path" fill="#000000" fill-rule="evenodd" stroke="none" d="M 34.23 0.669998 L 18.58 0.669998 L 18.389999 0.869995 L 17.02 0.869995 L 14.28 1.449997 L 11.15 2.630005 L 8.02 4.580002 L 5.28 7.320007 L 3.91 9.279999 L 2.54 12.019989 L 1.37 15.339996 L 0.39 20.230011 L 0 27.279999 L 0.2 27.470001 L 0.39 34.51001 L 1.76 41.360001 L 3.33 45.080002 L 4.89 47.419998 L 6.85 49.380005 L 8.22 50.360001 L 12.32 52.120003 L 10.17 52.900002 L 7.24 54.470001 L 4.69 56.809998 L 3.52 58.580002 L 2.54 60.919998 L 2.15 62.679993 L 2.15 64.25 L 1.96 64.440002 L 2.15 67.570007 L 2.54 69.330002 L 3.13 70.899994 L 4.5 73.25 L 7.43 76.380005 L 10.37 78.529999 L 20.15 84.199997 L 23.469999 86.550003 L 25.82 89.289993 L 26.6 91.240005 L 26.799999 93.199997 L 27 93.399994 L 27 94.759995 L 26.41 97.5 L 25.23 99.460007 L 23.67 100.830002 L 22.1 101.610001 L 19.559999 102.199997 L 15.26 102 L 12.13 100.830002 L 10.95 100.050003 L 8.61 97.699997 L 6.46 93.979996 L 5.09 90.070007 L 4.5 87.529999 L 2.35 87.529999 L 2.15 87.720001 L 2.15 104.350006 L 2.35 104.550003 L 19.950001 104.550003 L 20.15 104.350006 L 21.91 104.350006 L 22.1 104.149994 L 24.059999 103.960007 L 26.6 103.179993 L 30.32 101.220001 L 33.259998 98.479996 L 35.02 95.740005 L 35.990002 93 L 36.380001 91.050003 L 36.380001 86.160004 L 35.41 82.830002 L 33.84 80.289993 L 32.080002 78.330002 L 29.15 75.990005 L 26.209999 74.029999 L 18.389999 69.529999 L 14.08 66.600006 L 12.52 65.029999 L 11.74 63.860001 L 10.95 61.309998 L 10.95 58.970001 L 11.35 57.399994 L 11.93 56.229996 L 13.69 54.470001 L 16.629999 53.290001 L 18 53.290001 L 18.190001 53.099998 L 21.52 53.290001 L 23.67 53.879997 L 26.02 55.25 L 28.360001 57.600006 L 29.73 59.550003 L 31.1 62.100006 L 32.470001 65.419998 L 34.619999 65.419998 L 34.619999 25.519989 L 19.17 25.519989 L 18.969999 25.709991 L 18.969999 27.669998 L 20.93 28.059998 L 23.08 29.040009 L 24.26 30.209991 L 24.84 31.380005 L 25.23 33.339996 L 25.23 43.51001 L 25.040001 43.709991 L 25.040001 45.269989 L 24.65 46.839996 L 23.870001 48.399994 L 22.299999 49.970001 L 21.52 50.360001 L 19.370001 50.550003 L 19.17 50.75 L 18.969999 50.550003 L 17.610001 50.550003 L 16.24 49.970001 L 14.67 48.399994 L 13.5 45.660004 L 12.91 42.929993 L 12.72 39.800003 L 12.52 39.600006 L 12.52 37.25 L 12.32 37.059998 L 12.32 31.779999 L 12.13 31.580002 L 12.13 23.360001 L 12.32 23.169998 L 12.32 18.669998 L 12.52 18.470001 L 12.72 14.559998 L 12.91 14.369995 L 12.91 13.190002 L 13.5 10.26001 L 14.28 7.910004 L 15.45 5.76001 L 17.41 3.800003 L 19.17 3.019989 L 22.299999 2.820007 L 24.65 3.410004 L 26.209999 4.389999 L 28.559999 7.130005 L 30.129999 10.059998 L 31.690001 14.369995 L 31.889999 14.559998 L 34.23 14.559998 Z M 78.440002 1.649994 L 78.440002 48.98999 L 88.620003 48.98999 L 88.620003 1.850006 L 88.419998 1.649994 Z M 125.589996 1.649994 L 115.610001 1.649994 L 115.610001 14.169998 L 115.410004 14.369995 L 113.849998 12.410004 L 112.089996 11.429993 L 110.720001 11.040009 L 106.610001 11.040009 L 104.459999 11.630005 L 102.5 12.600006 L 100.940002 13.779999 L 98.589996 16.519989 L 97.419998 18.669998 L 95.849998 23.559998 L 95.660004 25.910004 L 95.459999 26.100006 L 95.459999 28.059998 L 95.269997 28.25 L 95.269997 32.360001 L 95.459999 32.559998 L 95.459999 34.910004 L 95.660004 35.100006 L 95.849998 37.449997 L 97.029999 41.559998 L 98.589996 44.690002 L 100.739998 47.230011 L 103.480003 48.98999 L 106.029999 49.769989 L 107.389999 49.769989 L 107.589996 49.970001 L 108.959999 49.970001 L 111.699997 49.380005 L 114.239998 47.619995 L 115.220001 46.25 L 116 44.48999 L 116.199997 44.690002 L 116.199997 48.98999 L 125.589996 48.98999 Z M 53.990002 11.040009 L 50.860001 11.820007 L 47.93 13.389999 L 45.189999 15.929993 L 43.619999 18.279999 L 42.060001 21.98999 L 41.279999 25.519989 L 41.279999 26.880005 L 41.080002 27.080002 L 41.080002 33.730011 L 41.279999 33.929993 L 41.669998 37.449997 L 42.639999 40.580002 L 44.009998 43.320007 L 46.560001 46.449997 L 49.299999 48.399994 L 51.639999 49.380005 L 54.380001 49.970001 L 58.490002 49.970001 L 61.82 49.190002 L 65.139999 47.419998 L 67.489998 45.269989 L 69.25 42.730011 L 70.809998 39.01001 L 71.599998 35.48999 L 71.599998 34.119995 L 71.790001 33.929993 L 71.790001 26.880005 L 71.599998 26.690002 L 71.599998 25.320007 L 71.209999 23.360001 L 70.230003 20.230011 L 68.470001 16.910004 L 65.529999 13.779999 L 62.990002 12.209991 L 60.049999 11.23999 L 59.080002 11.23999 L 58.880001 11.040009 Z M 133.800003 11.820007 L 133.800003 48.98999 L 143.779999 48.98999 L 143.779999 20.429993 L 143.970001 20.230011 L 144.169998 18.279999 L 144.949997 16.709991 L 146.320007 15.339996 L 147.889999 14.76001 L 149.059998 14.76001 L 150.039993 15.149994 L 151.020004 16.130005 L 151.600006 17.889999 L 151.600006 48.98999 L 161.779999 48.98999 L 161.779999 20.040009 L 162.360001 17.690002 L 163.339996 16.130005 L 164.320007 15.339996 L 165.880005 14.76001 L 167.059998 14.76001 L 168.039993 15.149994 L 168.820007 15.929993 L 169.600006 18.080002 L 169.600006 48.98999 L 179.770004 48.98999 L 179.770004 20.040009 L 179.580002 19.839996 L 179.380005 17.690002 L 178.789993 15.929993 L 177.820007 14.169998 L 176.449997 12.800003 L 174.880005 11.820007 L 172.339996 11.040009 L 168.229996 11.040009 L 167.25 11.23999 L 164.119995 12.600006 L 163.149994 13.389999 L 161.580002 15.149994 L 160.800003 16.709991 L 159.429993 14.169998 L 157.669998 12.410004 L 156.300003 11.630005 L 154.339996 11.040009 L 150.229996 11.040009 L 148.080002 11.630005 L 145.929993 12.800003 L 144.169998 14.559998 L 143.389999 15.929993 L 143.190002 15.730011 L 143.190002 11.820007 Z M 188.580002 12.800003 L 188.380005 13 L 188.380005 21.600006 L 190.729996 21.600006 L 192.679993 17.5 L 193.860001 15.929993 L 195.809998 14.169998 L 197.380005 13.389999 L 199.139999 13 L 200.509995 13 L 201.880005 13.389999 L 203.25 14.949997 L 203.440002 15.730011 L 203.440002 23.360001 L 203.050003 24.339996 L 201.679993 25.519989 L 195.809998 27.470001 L 191.309998 29.619995 L 189.160004 31.190002 L 187.399994 33.139999 L 186.419998 34.910004 L 185.639999 38.040009 L 185.839996 42.529999 L 186.419998 44.48999 L 187.210007 46.059998 L 188.970001 48.01001 L 190.139999 48.790009 L 192.100006 49.580002 L 193.860001 49.970001 L 197.179993 49.970001 L 199.729996 49.380005 L 201.880005 48.209991 L 203.440002 46.639999 L 204.229996 45.269989 L 204.419998 45.470001 L 204.419998 48.98999 L 213.809998 48.98999 L 213.809998 21.410004 L 213.619995 21.209991 L 213.419998 18.669998 L 212.830002 16.910004 L 211.850006 15.149994 L 210.089996 13.389999 L 208.919998 12.600006 L 206.570007 11.630005 L 203.830002 11.040009 L 195.809998 11.23999 Z M 246.479996 12.600006 L 244.720001 11.630005 L 242.570007 11.040009 L 238.460007 11.040009 L 236.110001 11.630005 L 233.960007 12.800003 L 232.389999 14.169998 L 231.220001 15.929993 L 231.029999 15.730011 L 231.029999 11.820007 L 221.639999 11.820007 L 221.639999 48.98999 L 231.809998 48.98999 L 231.809998 19.26001 L 232.199997 17.889999 L 232.979996 16.519989 L 233.960007 15.540009 L 235.520004 14.76001 L 238.070007 14.949997 L 239.050003 15.929993 L 239.830002 18.279999 L 239.830002 48.98999 L 250 48.98999 L 250 20.040009 L 249.220001 16.320007 L 248.039993 14.169998 Z M 55.950001 12.800003 L 57.709999 13 L 59.27 14.169998 L 60.049999 15.730011 L 60.639999 17.690002 L 60.84 20.230011 L 61.029999 20.429993 L 61.029999 22.580002 L 61.23 22.779999 L 61.23 38.040009 L 61.029999 38.230011 L 60.84 41.949997 L 60.450001 43.899994 L 59.470001 46.25 L 58.099998 47.619995 L 57.509998 47.820007 L 55.360001 47.820007 L 54.580002 47.419998 L 53.400002 46.25 L 52.82 45.080002 L 52.23 42.929993 L 52.029999 40.380005 L 51.84 40.190002 L 51.84 37.639999 L 51.639999 37.449997 L 51.639999 23.169998 L 51.84 22.970001 L 51.84 20.630005 L 52.029999 20.429993 L 52.23 17.889999 L 52.82 15.730011 L 53.790001 13.970001 L 54.380001 13.389999 Z M 109.739998 13.580002 L 111.5 13.580002 L 112.68 14.169998 L 113.849998 15.540009 L 114.440002 16.709991 L 115.019997 18.860001 L 115.220001 21.019989 L 115.410004 21.209991 L 115.410004 23.169998 L 115.610001 23.360001 L 115.809998 31.380005 L 115.610001 31.580002 L 115.610001 36.470001 L 115.410004 36.669998 L 115.410004 38.429993 L 115.220001 38.619995 L 115.019997 40.970001 L 113.849998 44.690002 L 112.68 46.25 L 111.309998 47.029999 L 109.349998 47.029999 L 108.57 46.639999 L 107.589996 45.660004 L 107 44.48999 L 106.220001 40.769989 L 106.029999 34.910004 L 105.830002 34.709991 L 105.830002 25.910004 L 106.029999 25.709991 L 106.029999 21.98999 L 106.220001 21.800003 L 106.419998 18.860001 L 107.389999 15.540009 L 108.760002 13.970001 Z M 203.25 27.080002 L 203.440002 27.279999 L 203.440002 41.360001 L 202.460007 44.48999 L 201.490005 45.660004 L 200.309998 46.25 L 198.940002 46.449997 L 197.770004 46.059998 L 196.789993 45.080002 L 196.210007 43.709991 L 196.009995 40.580002 L 195.809998 40.380005 L 195.809998 37.059998 L 196.009995 36.860001 L 196.210007 33.730011 L 196.990005 31.580002 L 198.550003 29.619995 L 199.919998 28.649994 Z M 78.25 73.440002 L 76.879997 76.179993 L 75.510002 81.660004 L 75.510002 83.419998 L 75.309998 83.610001 L 75.510002 90.660004 L 76.489998 94.960007 L 77.860001 98.089996 L 79.809998 100.830002 L 81.769997 102.589996 L 84.510002 104.149994 L 87.050003 104.940002 L 89.199997 105.130005 L 89.400002 105.330002 L 94.480003 105.130005 L 98.199997 104.149994 L 101.720001 102.199997 L 104.849998 99.259995 L 106.610001 96.720001 L 107.980003 93.789993 L 108.18 93.979996 L 108.18 104.350006 L 118.349998 104.350006 L 118.349998 75.199997 L 118.739998 73.639999 L 119.330002 72.460007 L 121.089996 70.699997 L 123.040001 70.119995 L 125 70.699997 L 125.589996 71.289993 L 126.370003 73.25 L 126.370003 104.350006 L 126.559998 104.550003 L 136.539993 104.550003 L 136.539993 74.809998 L 135.949997 72.070007 L 134.779999 69.729996 L 133.020004 67.960007 L 131.259995 66.990005 L 128.910004 66.399994 L 125.389999 66.399994 L 122.849998 66.990005 L 120.110001 68.550003 L 118.540001 70.309998 L 118.349998 70.119995 L 118.349998 57.210007 L 118.150002 57.009995 L 108.18 57.009995 L 108.18 84.399994 L 107.980003 84.589996 L 107.980003 86.160004 L 107.389999 89.289993 L 106.419998 92.220001 L 104.260002 96.130005 L 101.529999 99.070007 L 98 101.220001 L 95.269997 102 L 91.550003 102 L 89.589996 101.220001 L 87.830002 99.259995 L 86.849998 96.919998 L 86.07 92.809998 L 86.07 90.460007 L 85.879997 90.270004 L 86.07 78.139999 L 86.269997 77.940002 L 86.459999 75.009995 L 87.25 71.880005 L 88.029999 70.309998 L 89.589996 68.75 L 90.769997 68.360001 L 92.919998 68.550003 L 94.480003 69.529999 L 95.459999 70.509995 L 96.830002 72.460007 L 98.980003 77.160004 L 101.330002 77.160004 L 101.330002 68.160004 L 97.610001 66.990005 L 94.089996 66.600006 L 93.900002 66.399994 L 89.589996 66.399994 L 89.400002 66.600006 L 87.25 66.789993 L 84.900002 67.570007 L 82.160004 69.139999 L 79.620003 71.490005 Z M 166.470001 67.570007 L 161.580002 66.600006 L 160.210007 66.600006 L 160.020004 66.399994 L 157.669998 66.399994 L 157.470001 66.199997 L 153.360001 66.399994 L 150.630005 66.990005 L 148.279999 67.960007 L 146.320007 69.330002 L 144.759995 71.089996 L 143.779999 73.050003 L 143.190002 75.399994 L 143.190002 78.529999 L 143.779999 80.679993 L 144.559998 82.240005 L 145.929993 84.009995 L 148.080002 85.960007 L 158.649994 92.610001 L 160.210007 94.179993 L 160.990005 95.550003 L 161.380005 96.919998 L 161.380005 98.479996 L 160.600006 100.830002 L 159.039993 102.389999 L 156.690002 103.179993 L 152.779999 102.979996 L 150.630005 102 L 148.279999 99.649994 L 146.710007 96.720001 L 145.740005 93.399994 L 143.389999 93.399994 L 143.190002 93.589996 L 143.190002 103.759995 L 147.300003 104.740005 L 150.229996 104.940002 L 150.429993 105.130005 L 157.080002 105.130005 L 157.279999 104.940002 L 158.449997 104.940002 L 160.990005 104.350006 L 164.320007 102.779999 L 166.860001 100.440002 L 167.639999 99.259995 L 168.820007 95.940002 L 169.009995 93.199997 L 168.820007 93 L 168.820007 91.440002 L 168.429993 89.869995 L 166.860001 86.940002 L 164.509995 84.589996 L 162.949997 83.419998 L 153.169998 77.550003 L 151.410004 75.990005 L 150.820007 75.199997 L 150.229996 73.639999 L 150.429993 71.289993 L 151.800003 69.330002 L 153.949997 68.360001 L 157.080002 68.360001 L 158.839996 68.940002 L 161.190002 70.899994 L 162.169998 72.270004 L 163.339996 74.619995 L 164.119995 76.960007 L 166.470001 76.960007 Z M 43.619999 68.360001 L 43.619999 76.960007 L 46.169998 76.960007 L 46.360001 76.179993 L 48.509998 72.270004 L 50.27 70.309998 L 51.639999 69.330002 L 53.599998 68.550003 L 56.529999 68.550003 L 57.509998 68.940002 L 58.290001 69.729996 L 58.880001 71.490005 L 58.880001 78.330002 L 58.490002 79.509995 L 57.32 80.679993 L 55.560001 81.460007 L 51.060001 82.830002 L 46.950001 84.789993 L 45.189999 85.960007 L 43.040001 88.110001 L 42.060001 89.679993 L 41.080002 92.809998 L 41.080002 97.110001 L 41.669998 99.460007 L 42.639999 101.419998 L 44.41 103.369995 L 45.970001 104.350006 L 47.540001 104.940002 L 49.490002 105.130005 L 49.689999 105.330002 L 52.23 105.330002 L 54.970001 104.740005 L 57.709999 103.179993 L 59.080002 101.610001 L 59.66 100.440002 L 59.860001 100.630005 L 59.860001 104.350006 L 69.050003 104.350006 L 69.050003 76.179993 L 68.269997 72.660004 L 67.099998 70.509995 L 65.339996 68.75 L 63.380001 67.570007 L 61.029999 66.789993 L 58.689999 66.600006 L 58.490002 66.399994 L 51.639999 66.600006 L 51.450001 66.789993 L 48.119999 67.179993 Z M 58.689999 82.440002 L 58.880001 82.639999 L 58.880001 96.330002 L 58.689999 96.529999 L 58.689999 97.699997 L 57.900002 99.850006 L 56.919998 101.020004 L 55.360001 101.809998 L 53.990002 101.809998 L 53.009998 101.419998 L 52.23 100.630005 L 51.450001 98.479996 L 51.25 91.630005 L 51.450001 91.440002 L 51.639999 88.899994 L 52.619999 86.550003 L 53.990002 84.979996 L 55.360001 84.009995 Z"/>
</svg>
