<?xml version="1.0" encoding="UTF-8"?>
<!-- Generated by Pixelmator Pro 3.8 -->
<svg width="250" height="114" viewBox="0 0 250 114" xmlns="http://www.w3.org/2000/svg">
    <g id="Group">
        <path id="Path" fill="#00427a" fill-rule="evenodd" stroke="none" d="M 159.894501 96.157204 L 160.028305 112.882202 L 163.239502 112.882202 L 163.239502 96.157204 Z M 137.549896 96.291 L 137.683701 112.882202 L 140.894897 112.882202 L 141.028702 106.1922 L 143.035706 106.1922 L 143.303299 106.459801 L 146.380707 112.748398 L 150.260895 112.882202 L 149.458099 111.009003 L 146.6483 105.790802 L 148.387695 104.586601 L 149.458099 102.847198 L 149.591904 100.171204 L 148.922897 98.431801 L 147.451096 96.959999 L 145.310303 96.157204 Z M 141.028702 99.1008 L 144.507507 99.1008 L 145.444107 99.502197 L 146.113098 100.305 L 146.380707 101.2416 L 145.979294 102.445801 L 144.641296 103.382401 L 140.894897 103.248596 Z M 119.754501 96.157204 L 118.550301 99.903603 L 118.148903 100.572601 L 116.4095 105.790802 L 116.008102 106.459801 L 114.2687 111.678001 L 113.733498 112.748398 L 117.3461 112.748398 L 118.2827 109.938599 L 124.169899 110.072403 L 125.106499 112.882202 L 128.585297 112.882202 L 125.507896 104.185204 L 124.838898 102.847198 L 123.367104 98.297997 L 122.430496 96.157204 Z M 121.226303 101.509201 L 121.493896 101.776802 L 123.233299 106.995003 L 119.219299 106.995003 Z M 103.297096 96.291 L 95.001503 96.157204 L 95.1353 112.882202 L 98.346497 112.882202 L 98.480301 106.593597 L 102.628098 106.593597 L 103.564697 106.325996 L 105.170303 105.523201 L 106.106903 104.586601 L 106.775902 103.382401 L 107.043503 102.445801 L 107.043503 100.305 L 106.508301 98.699402 L 105.036499 97.093803 Z M 98.480301 99.1008 L 101.959099 99.1008 L 102.628098 99.368401 L 103.297096 99.903603 L 103.698502 100.572601 L 103.564697 102.445801 L 102.761902 103.248596 L 102.092903 103.516197 L 98.346497 103.382401 Z M 177.8237 96.023399 L 175.281494 96.959999 L 173.943497 98.431801 L 173.274506 100.171204 L 173.408295 102.579597 L 173.675903 103.382401 L 175.147705 104.987999 L 176.8871 105.656998 L 180.901093 106.325996 L 181.436295 106.861198 L 181.703903 107.530197 L 181.570099 108.868202 L 181.168701 109.403397 L 180.499695 109.804802 L 177.422302 109.938599 L 176.351898 109.670998 L 175.013901 108.734398 L 174.612503 108.734398 L 172.739304 110.607597 L 172.739304 111.009003 L 173.943497 111.945602 L 175.9505 112.748398 L 177.020905 113.015999 L 180.098297 113.015999 L 182.506699 112.213203 L 184.112305 110.875198 L 184.647507 109.938599 L 185.048904 108.199203 L 184.781296 106.1922 L 184.112305 104.720398 L 183.041901 103.783798 L 181.302505 103.114799 L 177.957504 102.713402 L 177.020905 102.1782 L 176.485703 101.107803 L 176.619507 100.305 L 177.288498 99.368401 L 178.091293 98.967003 L 180.499695 98.967003 L 181.837708 99.502197 L 182.506699 100.037399 L 184.112305 98.565598 L 184.513702 97.896599 L 183.443298 96.959999 L 181.971497 96.291 L 180.633499 96.023399 Z M 120.958702 1.962006 L 120.824898 2.229599 L 122.2967 3.835205 L 123.099503 5.842194 L 123.099503 78.361801 L 122.2967 80.368797 L 120.824898 81.840599 L 120.691101 82.241997 L 166.718307 82.1082 L 168.725296 71.805603 L 165.380295 75.150597 L 162.436707 76.622398 L 160.162094 77.1576 L 152.803101 77.692802 L 144.373703 77.692802 L 136.613297 77.291397 L 133.669693 76.889999 L 133.803497 39.693604 L 153.338303 39.693604 L 155.077698 40.228806 L 157.084702 42.102005 L 157.084702 33.271194 L 155.077698 35.010605 L 153.472107 35.545807 L 133.669693 35.412003 L 133.803497 6.243607 L 156.281906 6.5112 L 158.021301 6.778793 L 160.295898 7.4478 L 162.035294 8.384399 L 163.774704 9.990005 L 164.042297 9.990005 L 163.774704 2.095795 Z M 79.213097 1.962006 L 78.945503 2.095795 L 80.0159 3.166199 L 80.684898 4.370407 L 81.086304 5.975998 L 81.086304 31.264206 L 86.304497 31.799393 L 91.1213 32.735992 L 91.924103 32.602203 L 91.924103 5.708405 L 92.726898 3.433807 L 93.931099 2.095795 Z M 26.2283 2.095795 L 27.7001 3.835205 L 28.369101 5.975998 L 28.2353 36.214798 L 20.2073 37.954193 L 18.869301 38.489395 L 15.6581 39.292206 L 10.0385 41.299194 L 3.7499 44.242798 L 0.1373 46.517395 L 0.0035 46.918793 L 0.9401 48.123001 L 1.2077 48.123001 L 5.6231 45.848404 L 11.9117 43.573807 L 17.798901 41.968201 L 24.7565 40.764008 L 26.0945 40.362595 L 27.967699 40.095001 L 28.369101 40.228806 L 28.369101 78.0942 L 27.566299 80.502602 L 26.2283 81.974403 L 26.2283 82.241997 L 41.347698 82.241997 L 41.347698 81.974403 L 40.009701 80.502602 L 39.340698 79.0308 L 39.073101 77.692802 L 39.206902 39.024597 L 44.9603 38.757004 L 55.664299 38.757004 L 63.9599 39.158401 L 72.9245 39.961197 L 81.086304 41.299194 L 81.086304 78.227997 L 80.684898 79.699799 L 79.0793 82.241997 L 93.931099 82.241997 L 94.064903 81.974403 L 92.726898 80.636398 L 91.924103 78.495598 L 92.057899 43.440002 L 96.874702 44.510406 L 98.614098 45.179398 L 102.628098 46.249802 L 108.649101 48.390594 L 108.649101 39.559799 L 102.494301 37.6866 L 93.395897 35.679596 L 85.367897 34.475403 L 74.931503 33.404999 L 65.431702 33.003601 L 58.340302 33.003601 L 48.8405 33.404999 L 39.474499 34.475403 L 39.073101 34.341599 L 39.073101 6.5112 L 39.474499 4.771805 L 40.143501 3.433807 L 41.213902 1.962006 Z M 224.519897 1.025406 L 219.301697 0.891602 L 214.618698 1.159195 L 210.738495 1.694397 L 206.055496 2.764801 L 202.576706 3.835205 L 201.640106 4.370407 L 198.696503 5.440796 L 195.217697 7.313995 L 192.140305 9.320999 L 188.661499 12.130798 L 185.985504 14.806793 L 183.844696 17.348999 L 181.837708 20.158798 L 179.830704 23.637604 L 177.8237 28.186798 L 175.9505 35.010605 L 175.281494 41.566803 L 175.415298 45.848404 L 175.9505 49.728607 L 177.020905 54.143997 L 177.957504 56.953796 L 179.830704 61.101601 L 182.105301 64.848 L 186.119293 69.798599 L 189.731903 73.1436 L 192.541702 75.284401 L 196.020493 77.425201 L 200.703506 79.699799 L 205.654099 81.439201 L 209.668106 82.375801 L 215.555298 83.178596 L 220.639694 83.312401 L 223.1819 83.178596 L 230.407104 82.241997 L 234.688705 81.305397 L 240.442093 79.432198 L 246.061707 76.889999 L 248.737701 75.418198 L 248.871506 75.150597 L 249.808105 63.242401 L 249.808105 60.700203 L 246.998306 65.383202 L 245.125107 67.9254 L 240.709702 72.340797 L 237.498505 74.615402 L 233.216904 76.756203 L 231.2099 77.425201 L 224.921295 78.629402 L 220.505905 78.763199 L 214.351105 78.0942 L 208.597702 76.622398 L 203.780899 74.347801 L 201.506302 72.875999 L 198.830307 70.735199 L 196.288101 68.193001 L 193.478302 64.580399 L 191.738907 61.636803 L 190.534698 59.228401 L 188.795303 54.679199 L 187.858704 50.9328 L 187.055893 46.249802 L 186.7883 43.172394 L 186.7883 38.623199 L 187.457306 33.137405 L 188.126297 29.926193 L 189.196701 26.447403 L 191.471298 21.496796 L 193.210693 18.686996 L 195.083893 16.278595 L 199.0979 12.398407 L 201.9077 10.391403 L 205.118896 8.651993 L 207.661102 7.581604 L 211.006104 6.5112 L 213.280701 5.975998 L 217.294693 5.440796 L 223.1819 5.307007 L 226.794495 5.708405 L 229.3367 6.243607 L 232.815506 7.4478 L 235.491501 8.651993 L 238.033707 10.123795 L 240.709702 12.130798 L 243.519501 14.806793 L 245.125107 16.679993 L 247.132095 19.489807 L 249.272903 23.236206 L 248.202499 7.581604 L 242.716705 5.307007 L 236.695694 3.300003 L 229.871902 1.694397 Z"/>
    </g>
</svg>
