<?xml version="1.0" encoding="UTF-8"?>
<svg xmlns="http://www.w3.org/2000/svg" viewBox="0 0 250 250" role="img" aria-label="HEC Paris logo">
<title>HEC Paris</title>
<g transform="translate(-12.0385 53.237) scale(0.1338)">
<path fill="#00427a" fill-rule="evenodd" d="M1285 829L1286 954L1310 954L1310 829ZM1118 830L1119 954L1143 954L1144 904L1159 904L1161 906L1184 953L1213 954L1207 940L1186 901L1199 892L1207 879L1208 859L1203 846L1192 835L1176 829ZM1144 851L1170 851L1177 854L1182 860L1184 867L1181 876L1171 883L1143 882ZM985 829L976 857L973 862L960 901L957 906L944 945L940 953L967 953L974 932L1018 933L1025 954L1051 954L1028 889L1023 879L1012 845L1005 829ZM996 869L998 871L1011 910L981 910ZM862 830L800 829L801 954L825 954L826 907L857 907L864 905L876 899L883 892L888 883L890 876L890 860L886 848L875 836ZM826 851L852 851L857 853L862 857L865 862L864 876L858 882L853 884L825 883ZM1419 828L1400 835L1390 846L1385 859L1386 877L1388 883L1399 895L1412 900L1442 905L1446 909L1448 914L1447 924L1444 928L1439 931L1416 932L1408 930L1398 923L1395 923L1381 937L1381 940L1390 947L1405 953L1413 955L1436 955L1454 949L1466 939L1470 932L1473 919L1471 904L1466 893L1458 886L1445 881L1420 878L1413 874L1409 866L1410 860L1415 853L1421 850L1439 850L1449 854L1454 858L1466 847L1469 842L1461 835L1450 830L1440 828ZM994 125L993 127L1004 139L1010 154L1010 696L1004 711L993 722L992 725L1336 724L1351 647L1326 672L1304 683L1287 687L1232 691L1169 691L1111 688L1089 685L1090 407L1236 407L1249 411L1264 425L1264 359L1249 372L1237 376L1089 375L1090 157L1258 159L1271 161L1288 166L1301 173L1314 185L1316 185L1314 126ZM682 125L680 126L688 134L693 143L696 155L696 344L735 348L771 355L777 354L777 153L783 136L792 126ZM286 126L297 139L302 155L301 381L241 394L231 398L207 404L165 419L118 441L91 458L90 461L97 470L99 470L132 453L179 436L223 424L275 415L285 412L299 410L302 411L302 694L296 712L286 723L286 725L399 725L399 723L389 712L384 701L382 691L383 402L426 400L506 400L568 403L635 409L696 419L696 695L693 706L681 725L792 725L793 723L783 713L777 697L778 435L814 443L827 448L857 456L902 472L902 406L856 392L788 377L728 368L650 360L579 357L526 357L455 360L385 368L382 367L382 159L385 146L390 136L398 125ZM1768 118L1729 117L1694 119L1665 123L1630 131L1604 139L1597 143L1575 151L1549 165L1526 180L1500 201L1480 221L1464 240L1449 261L1434 287L1419 321L1405 372L1400 421L1401 453L1405 482L1413 515L1420 536L1434 567L1451 595L1481 632L1508 657L1529 673L1555 689L1590 706L1627 719L1657 726L1701 732L1739 733L1758 732L1812 725L1844 718L1887 704L1929 685L1949 674L1950 672L1957 583L1957 564L1936 599L1922 618L1889 651L1865 668L1833 684L1818 689L1771 698L1738 699L1692 694L1649 683L1613 666L1596 655L1576 639L1557 620L1536 593L1523 571L1514 553L1501 519L1494 491L1488 456L1486 433L1486 399L1491 358L1496 334L1504 308L1521 271L1534 250L1548 232L1578 203L1599 188L1623 175L1642 167L1667 159L1684 155L1714 151L1758 150L1785 153L1804 157L1830 166L1850 175L1869 186L1889 201L1910 221L1922 235L1937 256L1953 284L1945 167L1904 150L1859 135L1808 123Z"/>
</g>
</svg>
