<?xml version="1.0" encoding="UTF-8"?>
<!-- Generated by Pixelmator Pro 3.8 -->
<svg width="250" height="120" viewBox="0 0 250 120" xmlns="http://www.w3.org/2000/svg">
    <g id="Group">
        <path id="Path" fill="#00427a" fill-rule="evenodd" stroke="none" d="M 159.894501 99.157204 L 160.028305 115.882202 L 163.239502 115.882202 L 163.239502 99.157204 Z M 137.549896 99.291 L 137.683701 115.882202 L 140.894897 115.882202 L 141.028702 109.1922 L 143.035706 109.1922 L 143.303299 109.459801 L 146.380707 115.748398 L 150.260895 115.882202 L 149.458099 114.009003 L 146.6483 108.790802 L 148.387695 107.586601 L 149.458099 105.847198 L 149.591904 103.171204 L 148.922897 101.431801 L 147.451096 99.959999 L 145.310303 99.157204 Z M 141.028702 102.1008 L 144.507507 102.1008 L 145.444107 102.502197 L 146.113098 103.305 L 146.380707 104.2416 L 145.979294 105.445801 L 144.641296 106.382401 L 140.894897 106.248596 Z M 119.754501 99.157204 L 118.550301 102.903603 L 118.148903 103.572601 L 116.4095 108.790802 L 116.008102 109.459801 L 114.2687 114.678001 L 113.733498 115.748398 L 117.3461 115.748398 L 118.2827 112.938599 L 124.169899 113.072403 L 125.106499 115.882202 L 128.585297 115.882202 L 125.507896 107.185204 L 124.838898 105.847198 L 123.367104 101.297997 L 122.430496 99.157204 Z M 121.226303 104.509201 L 121.493896 104.776802 L 123.233299 109.995003 L 119.219299 109.995003 Z M 103.297096 99.291 L 95.001503 99.157204 L 95.1353 115.882202 L 98.346497 115.882202 L 98.480301 109.593597 L 102.628098 109.593597 L 103.564697 109.325996 L 105.170303 108.523201 L 106.106903 107.586601 L 106.775902 106.382401 L 107.043503 105.445801 L 107.043503 103.305 L 106.508301 101.699402 L 105.036499 100.093803 Z M 98.480301 102.1008 L 101.959099 102.1008 L 102.628098 102.368401 L 103.297096 102.903603 L 103.698502 103.572601 L 103.564697 105.445801 L 102.761902 106.248596 L 102.092903 106.516197 L 98.346497 106.382401 Z M 177.8237 99.023399 L 175.281494 99.959999 L 173.943497 101.431801 L 173.274506 103.171204 L 173.408295 105.579597 L 173.675903 106.382401 L 175.147705 107.987999 L 176.8871 108.656998 L 180.901093 109.325996 L 181.436295 109.861198 L 181.703903 110.530197 L 181.570099 111.868202 L 181.168701 112.403397 L 180.499695 112.804802 L 177.422302 112.938599 L 176.351898 112.670998 L 175.013901 111.734398 L 174.612503 111.734398 L 172.739304 113.607597 L 172.739304 114.009003 L 173.943497 114.945602 L 175.9505 115.748398 L 177.020905 116.015999 L 180.098297 116.015999 L 182.506699 115.213203 L 184.112305 113.875198 L 184.647507 112.938599 L 185.048904 111.199203 L 184.781296 109.1922 L 184.112305 107.720398 L 183.041901 106.783798 L 181.302505 106.114799 L 177.957504 105.713402 L 177.020905 105.1782 L 176.485703 104.107803 L 176.619507 103.305 L 177.288498 102.368401 L 178.091293 101.967003 L 180.499695 101.967003 L 181.837708 102.502197 L 182.506699 103.037399 L 184.112305 101.565598 L 184.513702 100.896599 L 183.443298 99.959999 L 181.971497 99.291 L 180.633499 99.023399 Z M 120.958702 4.962006 L 120.824898 5.229599 L 122.2967 6.835205 L 123.099503 8.842194 L 123.099503 81.361801 L 122.2967 83.368797 L 120.824898 84.840599 L 120.691101 85.241997 L 166.718307 85.1082 L 168.725296 74.805603 L 165.380295 78.150597 L 162.436707 79.622398 L 160.162094 80.1576 L 152.803101 80.692802 L 144.373703 80.692802 L 136.613297 80.291397 L 133.669693 79.889999 L 133.803497 42.693604 L 153.338303 42.693604 L 155.077698 43.228806 L 157.084702 45.102005 L 157.084702 36.271194 L 155.077698 38.010605 L 153.472107 38.545807 L 133.669693 38.412003 L 133.803497 9.243607 L 156.281906 9.5112 L 158.021301 9.778793 L 160.295898 10.4478 L 162.035294 11.384399 L 163.774704 12.990005 L 164.042297 12.990005 L 163.774704 5.095795 Z M 79.213097 4.962006 L 78.945503 5.095795 L 80.0159 6.166199 L 80.684898 7.370407 L 81.086304 8.975998 L 81.086304 34.264206 L 86.304497 34.799393 L 91.1213 35.735992 L 91.924103 35.602203 L 91.924103 8.708405 L 92.726898 6.433807 L 93.931099 5.095795 Z M 26.2283 5.095795 L 27.7001 6.835205 L 28.369101 8.975998 L 28.2353 39.214798 L 20.2073 40.954193 L 18.869301 41.489395 L 15.6581 42.292206 L 10.0385 44.299194 L 3.7499 47.242798 L 0.1373 49.517395 L 0.0035 49.918793 L 0.9401 51.123001 L 1.2077 51.123001 L 5.6231 48.848404 L 11.9117 46.573807 L 17.798901 44.968201 L 24.7565 43.764008 L 26.0945 43.362595 L 27.967699 43.095001 L 28.369101 43.228806 L 28.369101 81.0942 L 27.566299 83.502602 L 26.2283 84.974403 L 26.2283 85.241997 L 41.347698 85.241997 L 41.347698 84.974403 L 40.009701 83.502602 L 39.340698 82.0308 L 39.073101 80.692802 L 39.206902 42.024597 L 44.9603 41.757004 L 55.664299 41.757004 L 63.9599 42.158401 L 72.9245 42.961197 L 81.086304 44.299194 L 81.086304 81.227997 L 80.684898 82.699799 L 79.0793 85.241997 L 93.931099 85.241997 L 94.064903 84.974403 L 92.726898 83.636398 L 91.924103 81.495598 L 92.057899 46.440002 L 96.874702 47.510406 L 98.614098 48.179398 L 102.628098 49.249802 L 108.649101 51.390594 L 108.649101 42.559799 L 102.494301 40.6866 L 93.395897 38.679596 L 85.367897 37.475403 L 74.931503 36.404999 L 65.431702 36.003601 L 58.340302 36.003601 L 48.8405 36.404999 L 39.474499 37.475403 L 39.073101 37.341599 L 39.073101 9.5112 L 39.474499 7.771805 L 40.143501 6.433807 L 41.213902 4.962006 Z M 224.519897 4.025406 L 219.301697 3.891602 L 214.618698 4.159195 L 210.738495 4.694397 L 206.055496 5.764801 L 202.576706 6.835205 L 201.640106 7.370407 L 198.696503 8.440796 L 195.217697 10.313995 L 192.140305 12.320999 L 188.661499 15.130798 L 185.985504 17.806793 L 183.844696 20.348999 L 181.837708 23.158798 L 179.830704 26.637604 L 177.8237 31.186798 L 175.9505 38.010605 L 175.281494 44.566803 L 175.415298 48.848404 L 175.9505 52.728607 L 177.020905 57.143997 L 177.957504 59.953796 L 179.830704 64.101601 L 182.105301 67.848 L 186.119293 72.798599 L 189.731903 76.1436 L 192.541702 78.284401 L 196.020493 80.425201 L 200.703506 82.699799 L 205.654099 84.439201 L 209.668106 85.375801 L 215.555298 86.178596 L 220.639694 86.312401 L 223.1819 86.178596 L 230.407104 85.241997 L 234.688705 84.305397 L 240.442093 82.432198 L 246.061707 79.889999 L 248.737701 78.418198 L 248.871506 78.150597 L 249.808105 66.242401 L 249.808105 63.700203 L 246.998306 68.383202 L 245.125107 70.9254 L 240.709702 75.340797 L 237.498505 77.615402 L 233.216904 79.756203 L 231.2099 80.425201 L 224.921295 81.629402 L 220.505905 81.763199 L 214.351105 81.0942 L 208.597702 79.622398 L 203.780899 77.347801 L 201.506302 75.875999 L 198.830307 73.735199 L 196.288101 71.193001 L 193.478302 67.580399 L 191.738907 64.636803 L 190.534698 62.228401 L 188.795303 57.679199 L 187.858704 53.9328 L 187.055893 49.249802 L 186.7883 46.172394 L 186.7883 41.623199 L 187.457306 36.137405 L 188.126297 32.926193 L 189.196701 29.447403 L 191.471298 24.496796 L 193.210693 21.686996 L 195.083893 19.278595 L 199.0979 15.398407 L 201.9077 13.391403 L 205.118896 11.651993 L 207.661102 10.581604 L 211.006104 9.5112 L 213.280701 8.975998 L 217.294693 8.440796 L 223.1819 8.307007 L 226.794495 8.708405 L 229.3367 9.243607 L 232.815506 10.4478 L 235.491501 11.651993 L 238.033707 13.123795 L 240.709702 15.130798 L 243.519501 17.806793 L 245.125107 19.679993 L 247.132095 22.489807 L 249.272903 26.236206 L 248.202499 10.581604 L 242.716705 8.307007 L 236.695694 6.300003 L 229.871902 4.694397 Z"/>
    </g>
</svg>
