<?xml version="1.0" encoding="UTF-8"?>
<svg xmlns="http://www.w3.org/2000/svg" viewBox="0 0 250 250" role="img" aria-label="HSBC logo">
<title>HSBC</title>
<g transform="translate(0 91.3086) scale(0.1953)">
<path fill="#000000" fill-rule="evenodd" d="M1024 100L1025 244L1088 244L1098 243L1114 239L1125 233L1133 225L1136 220L1139 209L1138 194L1134 185L1129 179L1117 172L1107 169L1124 160L1132 148L1134 136L1133 128L1131 122L1126 114L1119 108L1109 103L1093 100ZM1055 180L1085 180L1097 183L1102 187L1106 195L1106 207L1104 212L1097 219L1088 222L1054 221ZM1056 121L1087 122L1097 127L1102 135L1102 147L1100 151L1095 156L1083 160L1055 159ZM746 100L746 244L777 244L778 182L840 183L840 244L871 244L871 100L840 100L839 159L777 158L777 100ZM1205 98L1194 101L1178 110L1168 120L1159 136L1155 149L1153 161L1153 186L1156 202L1160 213L1168 226L1175 233L1188 241L1201 245L1217 247L1234 246L1247 243L1261 236L1271 226L1278 211L1279 201L1247 201L1245 210L1243 213L1232 222L1218 224L1206 221L1200 217L1193 209L1187 195L1185 186L1185 161L1187 151L1194 135L1204 125L1212 121L1226 120L1237 124L1244 132L1247 142L1279 142L1278 131L1274 121L1269 114L1261 107L1254 103L1243 99L1232 97ZM956 97L934 98L919 102L911 106L903 112L898 118L894 126L892 135L892 144L894 153L898 160L907 169L923 177L963 189L968 192L974 200L974 208L971 214L963 221L955 224L939 224L931 221L924 214L921 207L920 200L889 200L890 210L893 220L901 232L907 237L917 242L932 246L944 247L960 246L970 244L985 238L991 234L999 226L1005 215L1007 205L1007 197L1005 188L1000 179L995 174L981 166L937 152L931 149L925 143L924 134L927 127L932 122L943 118L952 118L962 122L969 130L971 139L1002 139L1001 128L998 119L989 108L979 102L970 99Z"/>
<path fill="#db0011" fill-rule="evenodd" d="M0 173L172 344L517 344L688 173L688 171L517 0L172 0ZM173 0L345 171L516 0L516 344L344 173L173 344Z"/>
<path fill="#ffffff" fill-rule="evenodd" d="M173 1L173 343L345 172L516 343L516 1L344 172Z"/>
</g>
</svg>
