<?xml version="1.0" encoding="UTF-8"?>
<!-- Generated by Pixelmator Pro 3.8 -->
<svg width="250" height="68" viewBox="0 0 250 68" xmlns="http://www.w3.org/2000/svg">
    <g id="Group">
        <path id="Path" fill="#000000" fill-rule="evenodd" stroke="none" d="M 199.987198 19.838593 L 200.182495 47.9618 L 212.486404 47.9618 L 214.439407 47.766502 L 217.564194 46.985298 L 219.712494 45.813499 L 221.274902 44.251099 L 221.860794 43.274597 L 222.446701 41.126297 L 222.251404 38.1968 L 221.4702 36.439102 L 220.493698 35.267303 L 218.150101 33.9002 L 216.197098 33.314301 L 219.517197 31.556602 L 221.079605 29.212997 L 221.4702 26.8694 L 221.274902 25.307007 L 220.884293 24.135193 L 219.907806 22.5728 L 218.540695 21.401001 L 216.587708 20.4245 L 213.462906 19.838593 Z M 206.041504 35.462601 L 211.900497 35.462601 L 214.244095 36.0485 L 215.220596 36.829697 L 216.001801 38.392097 L 216.001801 40.735703 L 215.611206 41.712196 L 214.244095 43.0793 L 212.486404 43.665199 L 205.846207 43.469902 Z M 206.236801 23.939896 L 212.291107 24.135193 L 214.244095 25.111694 L 215.220596 26.674103 L 215.220596 29.0177 L 214.830002 29.798904 L 213.8535 30.775406 L 211.509903 31.556602 L 206.041504 31.361298 Z M 145.693802 19.838593 L 145.693802 47.9618 L 151.748093 47.9618 L 151.943405 35.853203 L 164.052002 36.0485 L 164.052002 47.9618 L 170.106293 47.9618 L 170.106293 19.838593 L 164.052002 19.838593 L 163.856705 31.361298 L 151.748093 31.166 L 151.748093 19.838593 Z M 235.336502 19.447998 L 233.188202 20.033905 L 230.0634 21.791595 L 228.110397 23.744598 L 226.352707 26.8694 L 225.571503 29.408295 L 225.180893 31.7519 L 225.180893 36.634399 L 225.7668 39.759201 L 226.548004 41.907501 L 228.110397 44.446404 L 229.477493 45.813499 L 232.016403 47.3759 L 234.555298 48.157097 L 237.680099 48.547699 L 241.000198 48.352402 L 243.539093 47.766502 L 246.2733 46.399399 L 248.226303 44.446404 L 249.593399 41.516899 L 249.788696 39.563904 L 243.539093 39.563904 L 243.148499 41.321602 L 242.757904 41.907501 L 240.609604 43.665199 L 237.875397 44.055801 L 235.531799 43.469902 L 234.360001 42.688698 L 232.992905 41.126297 L 231.821106 38.392097 L 231.430496 36.634399 L 231.430496 31.7519 L 231.821106 29.798904 L 233.188202 26.674103 L 235.141205 24.7211 L 236.703598 23.939896 L 239.437805 23.744598 L 241.586105 24.525803 L 242.953201 26.088196 L 243.539093 28.041199 L 249.788696 28.041199 L 249.593399 25.892899 L 248.812195 23.939896 L 247.835693 22.5728 L 246.2733 21.205704 L 244.906204 20.4245 L 242.757904 19.643295 L 240.609604 19.252701 Z M 186.706802 19.252701 L 182.410202 19.447998 L 179.480698 20.229202 L 177.918304 21.010406 L 176.355896 22.182205 L 175.379395 23.354004 L 174.598206 24.916397 L 174.207596 26.674103 L 174.207596 28.431793 L 174.598206 30.189499 L 175.379395 31.556602 L 177.1371 33.314301 L 180.261902 34.876701 L 188.073898 37.220299 L 189.0504 37.806198 L 190.222198 39.368599 L 190.222198 40.931 L 189.636307 42.102798 L 188.073898 43.469902 L 186.511505 44.055801 L 183.386703 44.055801 L 181.824295 43.469902 L 180.457199 42.102798 L 179.871307 40.735703 L 179.675995 39.368599 L 173.621704 39.368599 L 173.817001 41.321602 L 174.402893 43.274597 L 175.965302 45.618202 L 177.1371 46.594704 L 179.090103 47.571198 L 182.019608 48.352402 L 184.363205 48.547699 L 187.488007 48.352402 L 189.440994 47.9618 L 192.370499 46.790001 L 193.542297 46.008797 L 195.104706 44.446404 L 196.276505 42.298103 L 196.667099 40.3451 L 196.667099 38.7827 L 196.276505 37.025002 L 195.300003 35.267303 L 194.323502 34.290802 L 191.589294 32.728401 L 182.996094 29.994202 L 181.824295 29.408295 L 180.652496 28.236496 L 180.457199 26.478806 L 181.043106 25.111694 L 182.019608 24.135193 L 184.167892 23.354004 L 185.925598 23.354004 L 187.878601 24.135193 L 189.245697 25.697601 L 189.636307 27.455307 L 195.690598 27.455307 L 195.4953 25.307007 L 194.909393 23.549301 L 193.151703 21.401001 L 191.1987 20.229202 L 189.440994 19.643295 Z"/>
        <path id="path1" fill="#db0011" fill-rule="evenodd" stroke="none" d="M 0 34.095497 L 33.591599 67.491798 L 100.9701 67.491798 L 134.366394 34.095497 L 134.366394 33.704903 L 100.9701 0.308594 L 33.591599 0.308594 Z M 33.7869 0.308594 L 67.378502 33.704903 L 100.774803 0.308594 L 100.774803 67.491798 L 67.183197 34.095497 L 33.7869 67.491798 Z"/>
        <path id="path2" fill="#ffffff" fill-rule="evenodd" stroke="none" d="M 33.7869 0.503906 L 33.7869 67.296501 L 67.378502 33.9002 L 100.774803 67.296501 L 100.774803 0.503906 L 67.183197 33.9002 Z"/>
    </g>
</svg>
