<?xml version="1.0" encoding="UTF-8"?>
<!-- Generated by Pixelmator Pro 3.8 -->
<svg width="250" height="64" viewBox="0 0 250 64" xmlns="http://www.w3.org/2000/svg">
    <path id="Path" fill="#030303" fill-rule="evenodd" stroke="none" d="M 0 4.748993 L 0 10.080994 L 0.592 10.673004 L 1.185 12.449997 L 2.962 14.22699 L 3.555 14.22699 L 5.332 15.412003 L 4.739 16.005005 L 2.962 16.597 L 0.592 18.96701 L 0.592 19.55899 L 0 20.152008 L 0 26.075989 L 2.962 29.629997 L 3.555 29.629997 L 5.332 30.815002 L 4.739 31.407997 L 2.962 32 L 0.592 34.370003 L 0.592 34.961998 L 0 35.554993 L 0 41.479004 L 2.962 45.033005 L 3.555 45.033005 L 4.147 45.626007 L 5.332 45.626007 L 5.924 46.218002 L 8.294 46.218002 L 8.886 45.626007 L 10.071 45.626007 L 10.664 45.033005 L 11.256 45.033005 L 13.626 42.664001 L 13.626 42.070999 L 14.81 40.294006 L 15.403 40.886002 L 15.995 42.664001 L 18.365 45.033005 L 18.957001 45.033005 L 19.549999 45.626007 L 20.735001 45.626007 L 21.327 46.218002 L 23.697001 46.218002 L 24.289 45.626007 L 25.474001 45.626007 L 26.066 45.033005 L 26.659 45.033005 L 29.028 42.664001 L 29.028 42.070999 L 30.212999 40.294006 L 30.806 40.886002 L 31.398001 42.664001 L 33.768002 45.033005 L 34.360001 45.033005 L 34.952999 45.626007 L 36.137001 45.626007 L 36.73 46.218002 L 39.099998 46.218002 L 39.692001 45.626007 L 40.876999 45.626007 L 41.469002 45.033005 L 42.062 45.033005 L 43.839001 43.255997 L 44.431 41.479004 L 45.616001 40.294006 L 46.209 40.886002 L 46.209 42.070999 L 47.986 44.440994 L 48.577999 44.440994 L 50.355 45.626007 L 51.540001 45.626007 L 52.132999 46.218002 L 54.501999 46.218002 L 55.095001 45.626007 L 56.279999 45.626007 L 59.242001 43.255997 L 59.242001 42.664001 L 60.426998 40.886002 L 61.019001 40.886002 L 61.611 41.479004 L 62.203999 43.255997 L 65.166 45.626007 L 66.350998 45.626007 L 66.943001 46.218002 L 69.313004 46.218002 L 69.904999 45.626007 L 71.089996 45.626007 L 73.459999 43.848007 L 74.052002 43.848007 L 74.052002 43.255997 L 75.237 42.070999 L 75.237 40.886002 L 75.829002 40.294006 L 77.014 41.479004 L 77.607002 43.255997 L 79.384003 45.033005 L 79.975998 45.033005 L 80.569 45.626007 L 81.753998 45.626007 L 82.346001 46.218002 L 84.716003 46.218002 L 85.307999 45.626007 L 86.492996 45.626007 L 87.084999 45.033005 L 87.678001 45.033005 L 90.046997 42.664001 L 90.046997 42.070999 L 91.232002 40.294006 L 91.824997 40.886002 L 92.417 42.664001 L 94.787003 45.033005 L 95.378998 45.033005 L 95.972 45.626007 L 97.155998 45.626007 L 97.749001 46.218002 L 100.117996 46.218002 L 100.710999 45.626007 L 101.896004 45.626007 L 102.487999 45.033005 L 103.081001 45.033005 L 105.449997 42.664001 L 105.449997 42.070999 L 106.635002 40.294006 L 107.226997 40.886002 L 107.82 42.664001 L 110.190002 45.033005 L 110.781998 45.033005 L 111.374001 45.626007 L 112.558998 45.626007 L 113.152 46.218002 L 115.521004 46.218002 L 116.113998 45.626007 L 117.299004 45.626007 L 117.890999 45.033005 L 118.483002 45.033005 L 120.261002 43.255997 L 120.261002 42.664001 L 121.445 40.886002 L 121.445 39.108994 L 122.038002 38.516998 L 122.038002 37.923996 L 121.445 37.332001 L 121.445 35.554993 L 120.852997 34.961998 L 120.852997 34.370003 L 118.483002 32 L 117.890999 32 L 116.113998 30.815002 L 116.706001 30.223 L 118.483002 29.629997 L 120.261002 27.852997 L 120.261002 27.261002 L 121.445 25.483002 L 121.445 23.705994 L 122.038002 23.113998 L 122.038002 22.520996 L 121.445 21.929001 L 121.445 20.152008 L 120.852997 19.55899 L 120.852997 18.96701 L 118.483002 16.597 L 117.890999 16.597 L 116.113998 15.412003 L 116.706001 14.820007 L 118.483002 14.22699 L 120.261002 12.449997 L 120.261002 11.858002 L 121.445 10.080994 L 121.445 8.303009 L 122.038002 7.710999 L 122.038002 7.117996 L 121.445 6.526001 L 121.445 4.748993 L 120.852997 4.156006 L 120.852997 3.563995 L 118.483002 1.194 L 117.890999 1.194 L 116.113998 0.009003 L 112.558998 0.009003 L 111.967003 0.60199 L 110.781998 0.60199 L 108.412003 2.378998 L 108.412003 2.972 L 107.226997 4.156006 L 107.226997 5.341003 L 106.635002 5.93399 L 106.042999 5.341003 L 105.449997 3.563995 L 102.487999 0.60199 L 101.303001 0.60199 L 100.710999 0.009003 L 97.155998 0.009003 L 96.564003 0.60199 L 95.378998 0.60199 L 92.417 3.563995 L 92.417 4.156006 L 91.232002 5.93399 L 90.639999 5.341003 L 90.639999 4.156006 L 89.455002 2.972 L 89.455002 2.378998 L 87.084999 0.60199 L 85.900002 0.60199 L 85.307999 0.009003 L 81.753998 0.009003 L 81.161003 0.60199 L 79.384003 1.194 L 77.014 3.563995 L 77.014 4.156006 L 75.829002 5.341003 L 75.237 4.748993 L 74.644997 2.972 L 72.866997 1.194 L 72.275002 1.194 L 71.681999 0.60199 L 70.498001 0.60199 L 69.904999 0.009003 L 66.350998 0.009003 L 65.758003 0.60199 L 63.980999 1.194 L 62.203999 2.972 L 62.203999 3.563995 L 61.019001 5.341003 L 60.426998 5.341003 L 59.834 4.748993 L 59.242001 2.972 L 57.464001 1.194 L 56.872002 1.194 L 55.095001 0.009003 L 51.540001 0.009003 L 50.948002 0.60199 L 49.763 0.60199 L 49.171001 1.194 L 48.577999 1.194 L 46.800999 2.972 L 46.800999 3.563995 L 45.616001 5.341003 L 44.431 4.156006 L 44.431 3.563995 L 42.062 1.194 L 41.469002 1.194 L 39.692001 0.009003 L 36.137001 0.009003 L 35.544998 0.60199 L 34.360001 0.60199 L 31.990999 2.378998 L 31.990999 2.972 L 30.806 4.156006 L 30.806 5.341003 L 30.212999 5.93399 L 29.621 5.341003 L 29.028 3.563995 L 26.066 0.60199 L 24.882 0.60199 L 24.289 0.009003 L 20.735001 0.009003 L 20.142 0.60199 L 18.957001 0.60199 L 15.995 3.563995 L 15.995 4.156006 L 14.81 5.93399 L 14.218 5.341003 L 14.218 4.156006 L 13.033 2.972 L 13.033 2.378998 L 10.664 0.60199 L 9.479 0.60199 L 8.886 0.009003 L 5.332 0.009003 L 4.739 0.60199 L 2.962 1.194 L 0.592 3.563995 L 0.592 4.156006 Z M 6.517 4.156006 L 7.701 4.156006 L 8.294 4.748993 L 8.886 4.748993 L 10.664 7.117996 L 10.664 8.303009 L 8.886 10.673004 L 5.924 10.673004 L 4.147 8.895996 L 4.147 6.526001 L 4.739 5.93399 L 4.739 5.341003 Z M 21.919001 4.156006 L 23.104 4.156006 L 23.697001 4.748993 L 24.289 4.748993 L 25.474001 5.93399 L 25.474001 7.117996 L 26.066 7.710999 L 25.474001 8.303009 L 25.474001 8.895996 L 23.697001 10.673004 L 21.327 10.673004 L 19.549999 8.895996 L 19.549999 8.303009 L 18.957001 7.710999 L 19.549999 7.117996 L 19.549999 5.93399 Z M 37.321999 4.156006 L 38.507 4.156006 L 39.099998 4.748993 L 39.692001 4.748993 L 40.876999 6.526001 L 40.876999 8.895996 L 39.099998 10.673004 L 36.137001 10.673004 L 34.360001 8.303009 L 34.360001 7.117996 L 34.952999 6.526001 L 34.952999 5.93399 Z M 52.724998 4.156006 L 53.91 4.156006 L 56.279999 6.526001 L 56.279999 8.895996 L 54.501999 10.673004 L 51.540001 10.673004 L 49.763 8.303009 L 49.763 6.526001 L 51.540001 4.748993 L 52.132999 4.748993 Z M 67.536003 4.156006 L 68.720001 4.156006 L 69.313004 4.748993 L 69.904999 4.748993 L 71.681999 6.526001 L 71.681999 8.303009 L 69.904999 10.673004 L 66.943001 10.673004 L 65.166 8.895996 L 65.166 6.526001 Z M 82.938004 4.156006 L 84.123001 4.156006 L 84.716003 4.748993 L 85.307999 4.748993 L 87.084999 7.117996 L 87.084999 8.303009 L 85.307999 10.673004 L 82.346001 10.673004 L 80.569 8.895996 L 80.569 5.93399 Z M 98.341003 4.156006 L 99.526001 4.156006 L 100.117996 4.748993 L 100.710999 4.748993 L 101.896004 5.93399 L 101.896004 7.117996 L 102.487999 7.710999 L 101.896004 8.303009 L 101.896004 8.895996 L 100.117996 10.673004 L 97.749001 10.673004 L 95.972 8.895996 L 95.972 8.303009 L 95.378998 7.710999 L 95.972 7.117996 L 95.972 5.93399 Z M 113.744003 4.156006 L 114.929001 4.156006 L 115.521004 4.748993 L 116.113998 4.748993 L 117.299004 6.526001 L 117.299004 8.895996 L 115.521004 10.673004 L 112.558998 10.673004 L 110.781998 8.303009 L 110.781998 7.117996 L 111.374001 6.526001 L 111.374001 5.93399 Z M 156.397995 6.526001 L 156.397995 7.710999 L 158.175003 7.710999 L 159.360001 8.895996 L 159.360001 37.923996 L 157.582993 39.701004 L 156.397995 39.701004 L 156.397995 40.294006 L 170.024002 40.294006 L 170.024002 39.701004 L 168.839005 39.701004 L 167.061996 37.923996 L 167.061996 15.412003 L 170.615997 11.858002 L 171.209 11.858002 L 172.985992 10.673004 L 177.132996 10.673004 L 177.725006 11.264999 L 178.317993 11.264999 L 180.686996 13.63501 L 180.686996 15.412003 L 181.279999 16.005005 L 181.279999 37.332001 L 180.095001 39.108994 L 179.501999 39.108994 L 178.910004 39.701004 L 177.725006 39.701004 L 177.725006 40.294006 L 191.942993 40.294006 L 191.942993 39.701004 L 190.757996 39.701004 L 188.981003 38.516998 L 188.981003 17.190002 L 188.389008 16.597 L 188.389008 16.005005 L 190.757996 13.042999 L 191.350998 13.042999 L 193.128006 11.264999 L 194.313004 11.264999 L 194.904999 10.673004 L 199.052002 10.673004 L 199.645004 11.264999 L 200.237 11.264999 L 201.421997 12.449997 L 201.421997 13.042999 L 202.606995 14.820007 L 202.606995 37.923996 L 200.828995 39.701004 L 199.645004 39.701004 L 199.645004 40.294006 L 213.270004 40.294006 L 213.270004 39.701004 L 211.492996 39.108994 L 210.307999 37.923996 L 210.307999 14.22699 L 209.716003 13.63501 L 209.716003 12.449997 L 209.123001 11.858002 L 208.531006 10.080994 L 206.160995 7.710999 L 205.569 7.710999 L 203.791 6.526001 L 202.606995 6.526001 L 202.014008 5.93399 L 197.867004 5.93399 L 197.274994 6.526001 L 195.498001 6.526001 L 194.904999 7.117996 L 193.128006 7.710999 L 191.942993 8.895996 L 191.350998 8.895996 L 188.389008 11.858002 L 187.796005 11.858002 L 187.203995 11.264999 L 187.203995 10.673004 L 183.649002 7.117996 L 183.057007 7.117996 L 182.464005 6.526001 L 180.686996 6.526001 L 180.095001 5.93399 L 175.947998 5.93399 L 175.354996 6.526001 L 172.393005 7.117996 L 171.209 8.303009 L 170.615997 8.303009 L 168.246002 10.673004 L 167.654007 10.673004 L 167.061996 10.080994 L 167.061996 6.526001 Z M 231.634995 5.93399 L 231.042999 6.526001 L 229.264999 6.526001 L 228.673004 7.117996 L 225.710999 8.303009 L 224.526001 9.488007 L 223.934006 9.488007 L 220.972 12.449997 L 220.972 13.042999 L 219.787003 14.22699 L 219.787003 14.820007 L 218.009003 17.781998 L 218.009003 18.96701 L 217.417007 19.55899 L 217.417007 28.445007 L 218.009003 29.038002 L 218.009003 30.223 L 218.602005 30.815002 L 219.194 32.592003 L 220.378998 33.777 L 220.378998 34.370003 L 223.934006 37.923996 L 224.526001 37.923996 L 225.710999 39.108994 L 226.302994 39.108994 L 228.080994 40.294006 L 231.042999 40.886002 L 231.634995 41.479004 L 237.559006 41.479004 L 238.151993 40.886002 L 239.929001 40.886002 L 240.520996 40.294006 L 241.705994 40.294006 L 242.298996 39.701004 L 244.076004 39.108994 L 245.261002 37.923996 L 245.852997 37.923996 L 249.408005 34.370003 L 250 32.592003 L 248.223007 32 L 248.223007 32.592003 L 245.261002 35.554993 L 244.667999 35.554993 L 243.483002 36.738998 L 242.298996 36.738998 L 241.705994 37.332001 L 240.520996 37.332001 L 239.929001 37.923996 L 235.781998 37.923996 L 235.190002 37.332001 L 234.005005 37.332001 L 233.412003 36.738998 L 231.634995 36.147003 L 228.080994 32.592003 L 228.080994 32 L 226.302994 29.629997 L 226.302994 28.445007 L 225.710999 27.852997 L 225.710999 26.667999 L 225.117996 26.075989 L 225.117996 24.890991 L 224.526001 24.299011 L 224.526001 20.152008 L 223.934006 19.55899 L 224.526001 18.96701 L 224.526001 15.412003 L 225.117996 14.820007 L 225.710999 13.042999 L 227.488007 10.673004 L 228.080994 10.673004 L 229.858002 8.895996 L 230.449997 8.895996 L 231.042999 8.303009 L 232.820007 8.303009 L 233.412003 7.710999 L 235.781998 7.710999 L 236.373993 8.303009 L 238.151993 8.303009 L 241.705994 10.673004 L 239.929001 13.042999 L 239.929001 16.597 L 241.705994 18.373993 L 242.298996 18.373993 L 242.891006 18.96701 L 245.261002 18.96701 L 247.630005 17.190002 L 247.630005 16.597 L 248.223007 16.005005 L 248.223007 12.449997 L 245.261002 8.895996 L 244.667999 8.895996 L 240.520996 6.526001 L 238.744003 6.526001 L 238.151993 5.93399 Z M 136.848007 6.526001 L 136.848007 7.710999 L 138.626007 7.710999 L 139.809998 9.488007 L 139.809998 37.923996 L 138.626007 39.108994 L 136.848007 39.701004 L 136.848007 40.294006 L 150.473999 40.294006 L 150.473999 39.701004 L 149.289001 39.701004 L 147.511993 37.923996 L 147.511993 9.488007 L 148.697006 7.710999 L 150.473999 7.710999 L 150.473999 6.526001 Z M 14.81 9.488007 L 15.403 10.080994 L 15.995 11.858002 L 18.365 14.22699 L 18.957001 14.22699 L 20.735001 15.412003 L 20.142 16.005005 L 18.957001 16.005005 L 15.995 18.96701 L 15.995 19.55899 L 14.81 21.335999 L 14.218 20.744003 L 14.218 19.55899 L 13.033 18.373993 L 13.033 17.781998 L 10.664 16.005005 L 9.479 16.005005 L 8.886 15.412003 L 9.479 14.820007 L 11.256 14.22699 L 13.626 11.858002 L 13.626 11.264999 Z M 30.212999 9.488007 L 30.806 10.080994 L 31.398001 11.858002 L 33.768002 14.22699 L 34.360001 14.22699 L 36.137001 15.412003 L 35.544998 16.005005 L 34.360001 16.005005 L 33.174999 17.190002 L 32.583 17.190002 L 30.806 19.55899 L 30.806 20.744003 L 30.212999 21.335999 L 29.621 20.744003 L 29.028 18.96701 L 26.066 16.005005 L 24.882 16.005005 L 24.289 15.412003 L 24.882 14.820007 L 26.659 14.22699 L 29.028 11.858002 L 29.028 11.264999 Z M 45.616001 9.488007 L 46.209 10.080994 L 46.209 11.264999 L 47.393002 12.449997 L 47.393002 13.042999 L 47.986 13.042999 L 50.948002 15.412003 L 50.355 16.005005 L 48.577999 16.597 L 46.800999 18.373993 L 46.800999 18.96701 L 45.616001 20.744003 L 44.431 19.55899 L 44.431 18.96701 L 42.062 16.597 L 41.469002 16.597 L 39.692001 15.412003 L 40.284 14.820007 L 42.062 14.22699 L 43.839001 12.449997 L 44.431 10.673004 Z M 75.829002 9.488007 L 77.014 10.673004 L 77.607002 12.449997 L 79.384003 14.22699 L 79.975998 14.22699 L 81.753998 15.412003 L 81.161003 16.005005 L 79.384003 16.597 L 77.014 18.96701 L 77.014 19.55899 L 75.829002 20.744003 L 75.237 20.152008 L 74.644997 18.373993 L 72.866997 16.597 L 72.275002 16.597 L 70.498001 15.412003 L 71.681999 14.22699 L 72.275002 14.22699 L 75.237 11.264999 L 75.237 10.080994 Z M 91.232002 9.488007 L 91.824997 10.080994 L 92.417 11.858002 L 94.787003 14.22699 L 95.378998 14.22699 L 97.155998 15.412003 L 96.564003 16.005005 L 95.378998 16.005005 L 92.417 18.96701 L 92.417 19.55899 L 91.232002 21.335999 L 90.639999 20.744003 L 90.639999 19.55899 L 89.455002 18.373993 L 89.455002 17.781998 L 87.084999 16.005005 L 85.900002 16.005005 L 85.307999 15.412003 L 85.900002 14.820007 L 87.678001 14.22699 L 90.046997 11.858002 L 90.046997 11.264999 Z M 106.635002 9.488007 L 107.226997 10.080994 L 107.82 11.858002 L 110.190002 14.22699 L 110.781998 14.22699 L 112.558998 15.412003 L 111.967003 16.005005 L 110.781998 16.005005 L 109.597 17.190002 L 109.004997 17.190002 L 107.226997 19.55899 L 107.226997 20.744003 L 106.635002 21.335999 L 106.042999 20.744003 L 105.449997 18.96701 L 102.487999 16.005005 L 101.303001 16.005005 L 100.710999 15.412003 L 101.303001 14.820007 L 103.081001 14.22699 L 105.449997 11.858002 L 105.449997 11.264999 Z M 60.426998 10.080994 L 61.019001 10.080994 L 61.611 10.673004 L 62.203999 12.449997 L 63.389 13.63501 L 63.980999 13.63501 L 66.350998 15.412003 L 65.758003 16.005005 L 63.980999 16.597 L 62.203999 18.373993 L 62.203999 18.96701 L 61.019001 20.744003 L 60.426998 20.744003 L 59.834 20.152008 L 59.242001 18.373993 L 57.464001 16.597 L 56.872002 16.597 L 55.095001 15.412003 L 57.464001 13.63501 L 58.056999 13.63501 L 59.242001 12.449997 L 59.242001 11.858002 Z M 6.517 19.55899 L 7.701 19.55899 L 8.294 20.152008 L 8.886 20.152008 L 10.664 22.520996 L 10.664 23.705994 L 8.886 26.075989 L 5.924 26.075989 L 4.147 24.299011 L 4.147 21.929001 L 4.739 21.335999 L 4.739 20.744003 Z M 21.919001 19.55899 L 23.104 19.55899 L 23.697001 20.152008 L 24.289 20.152008 L 25.474001 21.335999 L 25.474001 22.520996 L 26.066 23.113998 L 25.474001 23.705994 L 25.474001 24.299011 L 23.697001 26.075989 L 21.327 26.075989 L 19.549999 24.299011 L 19.549999 23.705994 L 18.957001 23.113998 L 19.549999 22.520996 L 19.549999 21.335999 Z M 37.321999 19.55899 L 38.507 19.55899 L 39.099998 20.152008 L 39.692001 20.152008 L 40.876999 21.929001 L 40.876999 24.299011 L 39.099998 26.075989 L 36.137001 26.075989 L 34.360001 23.705994 L 34.360001 22.520996 L 34.952999 21.929001 L 34.952999 21.335999 Z M 52.724998 19.55899 L 54.501999 20.152008 L 56.279999 21.929001 L 56.279999 24.299011 L 54.501999 26.075989 L 51.540001 26.075989 L 49.763 23.705994 L 49.763 21.929001 L 51.540001 20.152008 L 52.132999 20.152008 Z M 68.127998 19.55899 L 69.904999 20.152008 L 71.681999 21.929001 L 71.681999 23.705994 L 69.904999 26.075989 L 66.943001 26.075989 L 65.166 24.299011 L 65.166 21.929001 L 66.943001 20.152008 L 67.536003 20.152008 Z M 82.938004 19.55899 L 84.123001 19.55899 L 84.716003 20.152008 L 85.307999 20.152008 L 87.084999 22.520996 L 87.084999 23.705994 L 85.307999 26.075989 L 82.346001 26.075989 L 80.569 24.299011 L 80.569 21.929001 L 81.161003 21.335999 L 81.161003 20.744003 Z M 98.341003 19.55899 L 99.526001 19.55899 L 100.117996 20.152008 L 100.710999 20.152008 L 101.896004 21.335999 L 101.896004 22.520996 L 102.487999 23.113998 L 101.896004 23.705994 L 101.896004 24.299011 L 100.117996 26.075989 L 97.749001 26.075989 L 97.155998 25.483002 L 96.564003 25.483002 L 95.972 24.890991 L 95.972 23.705994 L 95.378998 23.113998 L 95.972 21.335999 Z M 113.744003 19.55899 L 114.929001 19.55899 L 115.521004 20.152008 L 116.113998 20.152008 L 117.299004 21.929001 L 117.299004 24.299011 L 115.521004 26.075989 L 112.558998 26.075989 L 110.781998 23.705994 L 110.781998 22.520996 L 111.374001 21.929001 L 111.374001 21.335999 Z M 14.81 24.890991 L 15.403 25.483002 L 15.995 27.261002 L 18.365 29.629997 L 18.957001 29.629997 L 20.735001 30.815002 L 20.142 31.407997 L 18.365 32 L 15.995 34.370003 L 15.995 34.961998 L 14.81 36.738998 L 14.218 36.147003 L 14.218 34.961998 L 13.033 33.777 L 13.033 33.184998 L 10.664 31.407997 L 9.479 31.407997 L 8.886 30.815002 L 9.479 30.223 L 11.256 29.629997 L 13.626 27.261002 L 13.626 26.667999 Z M 30.212999 24.890991 L 30.806 25.483002 L 31.398001 27.261002 L 33.768002 29.629997 L 34.360001 29.629997 L 36.137001 30.815002 L 35.544998 31.407997 L 34.360001 31.407997 L 33.174999 32.592003 L 32.583 32.592003 L 30.806 34.961998 L 30.806 36.147003 L 30.212999 36.738998 L 29.621 36.147003 L 29.028 34.370003 L 26.659 32 L 26.066 32 L 24.289 30.815002 L 24.882 30.223 L 26.659 29.629997 L 29.028 27.261002 L 29.028 26.667999 Z M 45.616001 24.890991 L 46.209 25.483002 L 46.209 26.667999 L 47.393002 27.852997 L 47.393002 28.445007 L 47.986 28.445007 L 50.948002 30.815002 L 50.355 31.407997 L 48.577999 32 L 46.800999 33.777 L 46.800999 34.370003 L 45.616001 36.147003 L 44.431 34.961998 L 44.431 34.370003 L 42.062 32 L 41.469002 32 L 39.692001 30.815002 L 40.284 30.223 L 42.062 29.629997 L 43.839001 27.852997 L 44.431 26.075989 Z M 75.829002 24.890991 L 77.014 26.075989 L 77.607002 27.852997 L 79.384003 29.629997 L 79.975998 29.629997 L 81.753998 30.815002 L 81.161003 31.407997 L 79.384003 32 L 77.014 34.370003 L 77.014 34.961998 L 75.829002 36.147003 L 75.237 35.554993 L 74.644997 33.777 L 73.459999 32.592003 L 72.866997 32.592003 L 70.498001 30.815002 L 71.681999 29.629997 L 72.275002 29.629997 L 75.237 26.667999 L 75.237 25.483002 Z M 91.232002 24.890991 L 91.824997 25.483002 L 92.417 27.261002 L 94.787003 29.629997 L 95.378998 29.629997 L 97.155998 30.815002 L 96.564003 31.407997 L 95.378998 31.407997 L 92.417 34.370003 L 92.417 34.961998 L 91.232002 36.738998 L 90.639999 36.147003 L 90.639999 34.961998 L 88.862999 33.184998 L 88.862999 32.592003 L 88.269997 32.592003 L 87.084999 31.407997 L 85.900002 31.407997 L 85.307999 30.815002 L 85.900002 30.223 L 87.678001 29.629997 L 90.046997 27.261002 L 90.046997 26.667999 Z M 106.635002 24.890991 L 107.226997 25.483002 L 107.82 27.261002 L 110.190002 29.629997 L 110.781998 29.629997 L 112.558998 30.815002 L 111.967003 31.407997 L 110.781998 31.407997 L 109.597 32.592003 L 109.004997 32.592003 L 107.226997 34.961998 L 107.226997 36.147003 L 106.635002 36.738998 L 106.042999 36.147003 L 105.449997 34.370003 L 103.081001 32 L 102.487999 32 L 100.710999 30.815002 L 101.303001 30.223 L 103.081001 29.629997 L 105.449997 27.261002 L 105.449997 26.667999 Z M 60.426998 25.483002 L 61.019001 25.483002 L 61.611 26.075989 L 62.203999 27.852997 L 63.389 29.038002 L 63.980999 29.038002 L 66.350998 30.815002 L 65.758003 31.407997 L 63.980999 32 L 62.203999 33.777 L 62.203999 34.370003 L 61.019001 36.147003 L 60.426998 36.147003 L 59.834 35.554993 L 59.242001 33.777 L 57.464001 32 L 56.872002 32 L 55.095001 30.815002 L 57.464001 29.038002 L 58.056999 29.038002 L 59.242001 27.852997 L 59.242001 27.261002 Z M 6.517 34.961998 L 7.701 34.961998 L 8.294 35.554993 L 8.886 35.554993 L 10.664 37.923996 L 10.664 39.108994 L 8.886 41.479004 L 5.924 41.479004 L 4.147 39.701004 L 4.147 37.332001 L 4.739 36.738998 L 4.739 36.147003 Z M 21.919001 34.961998 L 23.104 34.961998 L 23.697001 35.554993 L 24.289 35.554993 L 25.474001 36.738998 L 25.474001 37.923996 L 26.066 38.516998 L 25.474001 39.108994 L 25.474001 39.701004 L 23.697001 41.479004 L 21.327 41.479004 L 19.549999 39.701004 L 19.549999 39.108994 L 18.957001 38.516998 L 19.549999 37.923996 L 19.549999 36.738998 Z M 37.321999 34.961998 L 38.507 34.961998 L 39.099998 35.554993 L 39.692001 35.554993 L 40.876999 37.332001 L 40.876999 39.701004 L 39.099998 41.479004 L 36.137001 41.479004 L 34.360001 39.108994 L 34.360001 37.923996 L 34.952999 37.332001 L 34.952999 36.738998 Z M 52.724998 34.961998 L 54.501999 35.554993 L 56.279999 37.332001 L 56.279999 39.701004 L 54.501999 41.479004 L 51.540001 41.479004 L 49.763 39.701004 L 49.763 37.332001 L 51.540001 35.554993 L 52.132999 35.554993 Z M 68.127998 34.961998 L 69.904999 35.554993 L 71.681999 37.332001 L 71.681999 39.108994 L 69.904999 41.479004 L 66.943001 41.479004 L 65.166 39.701004 L 65.166 37.332001 L 66.943001 35.554993 L 67.536003 35.554993 Z M 82.938004 34.961998 L 84.123001 34.961998 L 84.716003 35.554993 L 85.307999 35.554993 L 87.084999 37.923996 L 87.084999 39.108994 L 85.307999 41.479004 L 82.346001 41.479004 L 80.569 39.701004 L 80.569 37.332001 L 81.161003 36.738998 L 81.161003 36.147003 Z M 98.341003 34.961998 L 99.526001 34.961998 L 100.117996 35.554993 L 100.710999 35.554993 L 101.896004 36.738998 L 101.896004 37.923996 L 102.487999 38.516998 L 101.896004 39.108994 L 101.896004 39.701004 L 100.117996 41.479004 L 97.749001 41.479004 L 97.155998 40.886002 L 96.564003 40.886002 L 95.972 40.294006 L 95.972 39.108994 L 95.378998 38.516998 L 95.972 37.923996 L 95.972 36.738998 Z M 113.744003 34.961998 L 114.929001 34.961998 L 115.521004 35.554993 L 116.113998 35.554993 L 117.299004 37.332001 L 117.299004 39.701004 L 115.521004 41.479004 L 112.558998 41.479004 L 110.781998 39.108994 L 110.781998 37.923996 L 111.374001 37.332001 L 111.374001 36.738998 Z M 136.848007 50.365005 L 136.255997 50.957001 L 136.255997 52.141998 L 136.848007 52.735001 L 137.440994 52.141998 L 138.033005 52.141998 L 138.626007 52.735001 L 138.626007 63.990997 L 140.994995 63.990997 L 140.994995 52.735001 L 141.587997 52.141998 L 143.365005 52.141998 L 143.365005 50.957001 L 142.772995 50.365005 Z M 154.028 50.365005 L 154.028 63.990997 L 155.806 63.990997 L 155.806 59.251007 L 156.397995 58.658997 L 156.990997 58.658997 L 158.175003 59.843994 L 158.175003 61.621002 L 158.768005 62.212997 L 158.768005 63.397995 L 159.360001 63.990997 L 161.136993 63.990997 L 161.136993 62.806 L 160.544998 62.212997 L 160.544998 61.028 L 159.953003 60.436005 L 159.953003 59.251007 L 159.360001 58.658997 L 159.360001 58.065994 L 161.136993 55.697006 L 161.136993 53.326996 L 160.544998 52.735001 L 160.544998 52.141998 L 158.175003 50.365005 Z M 174.763 50.365005 L 173.578003 52.141998 L 173.578003 54.511993 L 172.985992 55.104004 L 172.985992 58.065994 L 172.393005 58.658997 L 172.393005 61.028 L 171.800995 61.621002 L 171.800995 63.990997 L 173.578003 63.990997 L 173.578003 63.397995 L 174.171005 62.806 L 174.171005 61.621002 L 174.763 61.028 L 176.539993 61.028 L 177.132996 61.621002 L 177.132996 63.990997 L 179.501999 63.990997 L 179.501999 63.397995 L 178.910004 62.806 L 178.910004 60.436005 L 178.317993 59.843994 L 178.317993 56.882004 L 177.725006 56.289001 L 177.725006 53.919006 L 177.132996 53.326996 L 177.132996 50.957001 L 176.539993 50.365005 Z M 190.166 50.365005 L 189.572998 50.957001 L 189.572998 63.397995 L 190.166 63.990997 L 194.904999 63.990997 L 196.682007 62.212997 L 196.682007 52.735001 L 195.498001 50.957001 L 194.313004 50.957001 L 193.720001 50.365005 Z M 210.307999 50.365005 L 210.307999 63.990997 L 212.085007 63.990997 L 212.085007 50.365005 Z M 225.710999 50.365005 L 225.710999 63.990997 L 227.488007 63.990997 L 227.488007 58.065994 L 228.080994 57.473999 L 228.673004 58.065994 L 229.264999 61.028 L 230.449997 62.806 L 230.449997 63.990997 L 232.227005 63.990997 L 232.227005 50.365005 L 231.042999 50.365005 L 230.449997 50.957001 L 230.449997 55.697006 L 229.858002 56.289001 L 228.673004 54.511993 L 228.080994 51.550003 L 226.895996 50.365005 Z M 245.261002 50.365005 L 244.667999 50.957001 L 244.076004 50.957001 L 242.891006 52.735001 L 242.891006 62.212997 L 244.667999 63.990997 L 247.630005 63.990997 L 248.223007 63.397995 L 248.815002 63.990997 L 250 63.990997 L 250 57.473999 L 246.445007 57.473999 L 246.445007 59.251007 L 247.037994 59.251007 L 247.630005 59.843994 L 247.630005 61.621002 L 247.037994 62.212997 L 245.852997 62.212997 L 245.261002 61.621002 L 245.261002 52.735001 L 245.852997 52.141998 L 246.445007 52.141998 L 247.630005 53.326996 L 247.630005 54.511993 L 248.223007 55.104004 L 249.408005 55.104004 L 250 54.511993 L 250 53.919006 L 249.408005 53.326996 L 249.408005 52.141998 L 247.630005 50.365005 Z M 156.990997 52.141998 L 157.582993 52.141998 L 158.768005 53.326996 L 158.768005 55.697006 L 157.582993 56.882004 L 156.990997 56.882004 L 155.806 55.697006 L 155.806 53.326996 Z M 192.535995 52.141998 L 193.128006 52.141998 L 194.904999 53.919006 L 194.904999 61.028 L 193.720001 62.212997 L 192.535995 62.212997 L 191.942993 61.621002 L 191.942993 52.735001 Z M 175.354996 55.104004 L 175.947998 55.697006 L 175.947998 56.882004 L 176.539993 57.473999 L 176.539993 58.658997 L 175.947998 59.251007 L 175.354996 59.251007 L 174.763 58.658997 L 174.763 55.697006 Z"/>
</svg>
