<?xml version="1.0" encoding="UTF-8"?>
<svg xmlns="http://www.w3.org/2000/svg" viewBox="0 0 250 250" role="img" aria-label="IMC Trading logo">
  <title>IMC Trading</title>
  <path fill="#030303" fill-rule="evenodd" d="M0 97.749L0 103.081L0.592 103.673L1.185 105.45L2.962 107.227L3.555 107.227L5.332 108.412L4.739 109.005L2.962 109.597L0.592 111.967L0.592 112.559L0 113.152L0 119.076L2.962 122.63L3.555 122.63L5.332 123.815L4.739 124.408L2.962 125L0.592 127.37L0.592 127.962L0 128.555L0 134.479L2.962 138.033L3.555 138.033L4.147 138.626L5.332 138.626L5.924 139.218L8.294 139.218L8.886 138.626L10.071 138.626L10.664 138.033L11.256 138.033L13.626 135.664L13.626 135.071L14.81 133.294L15.403 133.886L15.995 135.664L18.365 138.033L18.957 138.033L19.55 138.626L20.735 138.626L21.327 139.218L23.697 139.218L24.289 138.626L25.474 138.626L26.066 138.033L26.659 138.033L29.028 135.664L29.028 135.071L30.213 133.294L30.806 133.886L31.398 135.664L33.768 138.033L34.36 138.033L34.953 138.626L36.137 138.626L36.73 139.218L39.1 139.218L39.692 138.626L40.877 138.626L41.469 138.033L42.062 138.033L43.839 136.256L44.431 134.479L45.616 133.294L46.209 133.886L46.209 135.071L47.986 137.441L48.578 137.441L50.355 138.626L51.54 138.626L52.133 139.218L54.502 139.218L55.095 138.626L56.28 138.626L59.242 136.256L59.242 135.664L60.427 133.886L61.019 133.886L61.611 134.479L62.204 136.256L65.166 138.626L66.351 138.626L66.943 139.218L69.313 139.218L69.905 138.626L71.09 138.626L73.46 136.848L74.052 136.848L74.052 136.256L75.237 135.071L75.237 133.886L75.829 133.294L77.014 134.479L77.607 136.256L79.384 138.033L79.976 138.033L80.569 138.626L81.754 138.626L82.346 139.218L84.716 139.218L85.308 138.626L86.493 138.626L87.085 138.033L87.678 138.033L90.047 135.664L90.047 135.071L91.232 133.294L91.825 133.886L92.417 135.664L94.787 138.033L95.379 138.033L95.972 138.626L97.156 138.626L97.749 139.218L100.118 139.218L100.711 138.626L101.896 138.626L102.488 138.033L103.081 138.033L105.45 135.664L105.45 135.071L106.635 133.294L107.227 133.886L107.82 135.664L110.19 138.033L110.782 138.033L111.374 138.626L112.559 138.626L113.152 139.218L115.521 139.218L116.114 138.626L117.299 138.626L117.891 138.033L118.483 138.033L120.261 136.256L120.261 135.664L121.445 133.886L121.445 132.109L122.038 131.517L122.038 130.924L121.445 130.332L121.445 128.555L120.853 127.962L120.853 127.37L118.483 125L117.891 125L116.114 123.815L116.706 123.223L118.483 122.63L120.261 120.853L120.261 120.261L121.445 118.483L121.445 116.706L122.038 116.114L122.038 115.521L121.445 114.929L121.445 113.152L120.853 112.559L120.853 111.967L118.483 109.597L117.891 109.597L116.114 108.412L116.706 107.82L118.483 107.227L120.261 105.45L120.261 104.858L121.445 103.081L121.445 101.303L122.038 100.711L122.038 100.118L121.445 99.526L121.445 97.749L120.853 97.156L120.853 96.564L118.483 94.194L117.891 94.194L116.114 93.009L112.559 93.009L111.967 93.602L110.782 93.602L108.412 95.379L108.412 95.972L107.227 97.156L107.227 98.341L106.635 98.934L106.043 98.341L105.45 96.564L102.488 93.602L101.303 93.602L100.711 93.009L97.156 93.009L96.564 93.602L95.379 93.602L92.417 96.564L92.417 97.156L91.232 98.934L90.64 98.341L90.64 97.156L89.455 95.972L89.455 95.379L87.085 93.602L85.9 93.602L85.308 93.009L81.754 93.009L81.161 93.602L79.384 94.194L77.014 96.564L77.014 97.156L75.829 98.341L75.237 97.749L74.645 95.972L72.867 94.194L72.275 94.194L71.682 93.602L70.498 93.602L69.905 93.009L66.351 93.009L65.758 93.602L63.981 94.194L62.204 95.972L62.204 96.564L61.019 98.341L60.427 98.341L59.834 97.749L59.242 95.972L57.464 94.194L56.872 94.194L55.095 93.009L51.54 93.009L50.948 93.602L49.763 93.602L49.171 94.194L48.578 94.194L46.801 95.972L46.801 96.564L45.616 98.341L44.431 97.156L44.431 96.564L42.062 94.194L41.469 94.194L39.692 93.009L36.137 93.009L35.545 93.602L34.36 93.602L31.991 95.379L31.991 95.972L30.806 97.156L30.806 98.341L30.213 98.934L29.621 98.341L29.028 96.564L26.066 93.602L24.882 93.602L24.289 93.009L20.735 93.009L20.142 93.602L18.957 93.602L15.995 96.564L15.995 97.156L14.81 98.934L14.218 98.341L14.218 97.156L13.033 95.972L13.033 95.379L10.664 93.602L9.479 93.602L8.886 93.009L5.332 93.009L4.739 93.602L2.962 94.194L0.592 96.564L0.592 97.156ZM6.517 97.156L7.701 97.156L8.294 97.749L8.886 97.749L10.664 100.118L10.664 101.303L8.886 103.673L5.924 103.673L4.147 101.896L4.147 99.526L4.739 98.934L4.739 98.341ZM21.919 97.156L23.104 97.156L23.697 97.749L24.289 97.749L25.474 98.934L25.474 100.118L26.066 100.711L25.474 101.303L25.474 101.896L23.697 103.673L21.327 103.673L19.55 101.896L19.55 101.303L18.957 100.711L19.55 100.118L19.55 98.934ZM37.322 97.156L38.507 97.156L39.1 97.749L39.692 97.749L40.877 99.526L40.877 101.896L39.1 103.673L36.137 103.673L34.36 101.303L34.36 100.118L34.953 99.526L34.953 98.934ZM52.725 97.156L53.91 97.156L56.28 99.526L56.28 101.896L54.502 103.673L51.54 103.673L49.763 101.303L49.763 99.526L51.54 97.749L52.133 97.749ZM67.536 97.156L68.72 97.156L69.313 97.749L69.905 97.749L71.682 99.526L71.682 101.303L69.905 103.673L66.943 103.673L65.166 101.896L65.166 99.526ZM82.938 97.156L84.123 97.156L84.716 97.749L85.308 97.749L87.085 100.118L87.085 101.303L85.308 103.673L82.346 103.673L80.569 101.896L80.569 98.934ZM98.341 97.156L99.526 97.156L100.118 97.749L100.711 97.749L101.896 98.934L101.896 100.118L102.488 100.711L101.896 101.303L101.896 101.896L100.118 103.673L97.749 103.673L95.972 101.896L95.972 101.303L95.379 100.711L95.972 100.118L95.972 98.934ZM113.744 97.156L114.929 97.156L115.521 97.749L116.114 97.749L117.299 99.526L117.299 101.896L115.521 103.673L112.559 103.673L110.782 101.303L110.782 100.118L111.374 99.526L111.374 98.934ZM156.398 99.526L156.398 100.711L158.175 100.711L159.36 101.896L159.36 130.924L157.583 132.701L156.398 132.701L156.398 133.294L170.024 133.294L170.024 132.701L168.839 132.701L167.062 130.924L167.062 108.412L170.616 104.858L171.209 104.858L172.986 103.673L177.133 103.673L177.725 104.265L178.318 104.265L180.687 106.635L180.687 108.412L181.28 109.005L181.28 130.332L180.095 132.109L179.502 132.109L178.91 132.701L177.725 132.701L177.725 133.294L191.943 133.294L191.943 132.701L190.758 132.701L188.981 131.517L188.981 110.19L188.389 109.597L188.389 109.005L190.758 106.043L191.351 106.043L193.128 104.265L194.313 104.265L194.905 103.673L199.052 103.673L199.645 104.265L200.237 104.265L201.422 105.45L201.422 106.043L202.607 107.82L202.607 130.924L200.829 132.701L199.645 132.701L199.645 133.294L213.27 133.294L213.27 132.701L211.493 132.109L210.308 130.924L210.308 107.227L209.716 106.635L209.716 105.45L209.123 104.858L208.531 103.081L206.161 100.711L205.569 100.711L203.791 99.526L202.607 99.526L202.014 98.934L197.867 98.934L197.275 99.526L195.498 99.526L194.905 100.118L193.128 100.711L191.943 101.896L191.351 101.896L188.389 104.858L187.796 104.858L187.204 104.265L187.204 103.673L183.649 100.118L183.057 100.118L182.464 99.526L180.687 99.526L180.095 98.934L175.948 98.934L175.355 99.526L172.393 100.118L171.209 101.303L170.616 101.303L168.246 103.673L167.654 103.673L167.062 103.081L167.062 99.526ZM231.635 98.934L231.043 99.526L229.265 99.526L228.673 100.118L225.711 101.303L224.526 102.488L223.934 102.488L220.972 105.45L220.972 106.043L219.787 107.227L219.787 107.82L218.009 110.782L218.009 111.967L217.417 112.559L217.417 121.445L218.009 122.038L218.009 123.223L218.602 123.815L219.194 125.592L220.379 126.777L220.379 127.37L223.934 130.924L224.526 130.924L225.711 132.109L226.303 132.109L228.081 133.294L231.043 133.886L231.635 134.479L237.559 134.479L238.152 133.886L239.929 133.886L240.521 133.294L241.706 133.294L242.299 132.701L244.076 132.109L245.261 130.924L245.853 130.924L249.408 127.37L250 125.592L248.223 125L248.223 125.592L245.261 128.555L244.668 128.555L243.483 129.739L242.299 129.739L241.706 130.332L240.521 130.332L239.929 130.924L235.782 130.924L235.19 130.332L234.005 130.332L233.412 129.739L231.635 129.147L228.081 125.592L228.081 125L226.303 122.63L226.303 121.445L225.711 120.853L225.711 119.668L225.118 119.076L225.118 117.891L224.526 117.299L224.526 113.152L223.934 112.559L224.526 111.967L224.526 108.412L225.118 107.82L225.711 106.043L227.488 103.673L228.081 103.673L229.858 101.896L230.45 101.896L231.043 101.303L232.82 101.303L233.412 100.711L235.782 100.711L236.374 101.303L238.152 101.303L241.706 103.673L239.929 106.043L239.929 109.597L241.706 111.374L242.299 111.374L242.891 111.967L245.261 111.967L247.63 110.19L247.63 109.597L248.223 109.005L248.223 105.45L245.261 101.896L244.668 101.896L240.521 99.526L238.744 99.526L238.152 98.934ZM136.848 99.526L136.848 100.711L138.626 100.711L139.81 102.488L139.81 130.924L138.626 132.109L136.848 132.701L136.848 133.294L150.474 133.294L150.474 132.701L149.289 132.701L147.512 130.924L147.512 102.488L148.697 100.711L150.474 100.711L150.474 99.526ZM14.81 102.488L15.403 103.081L15.995 104.858L18.365 107.227L18.957 107.227L20.735 108.412L20.142 109.005L18.957 109.005L15.995 111.967L15.995 112.559L14.81 114.336L14.218 113.744L14.218 112.559L13.033 111.374L13.033 110.782L10.664 109.005L9.479 109.005L8.886 108.412L9.479 107.82L11.256 107.227L13.626 104.858L13.626 104.265ZM30.213 102.488L30.806 103.081L31.398 104.858L33.768 107.227L34.36 107.227L36.137 108.412L35.545 109.005L34.36 109.005L33.175 110.19L32.583 110.19L30.806 112.559L30.806 113.744L30.213 114.336L29.621 113.744L29.028 111.967L26.066 109.005L24.882 109.005L24.289 108.412L24.882 107.82L26.659 107.227L29.028 104.858L29.028 104.265ZM45.616 102.488L46.209 103.081L46.209 104.265L47.393 105.45L47.393 106.043L47.986 106.043L50.948 108.412L50.355 109.005L48.578 109.597L46.801 111.374L46.801 111.967L45.616 113.744L44.431 112.559L44.431 111.967L42.062 109.597L41.469 109.597L39.692 108.412L40.284 107.82L42.062 107.227L43.839 105.45L44.431 103.673ZM75.829 102.488L77.014 103.673L77.607 105.45L79.384 107.227L79.976 107.227L81.754 108.412L81.161 109.005L79.384 109.597L77.014 111.967L77.014 112.559L75.829 113.744L75.237 113.152L74.645 111.374L72.867 109.597L72.275 109.597L70.498 108.412L71.682 107.227L72.275 107.227L75.237 104.265L75.237 103.081ZM91.232 102.488L91.825 103.081L92.417 104.858L94.787 107.227L95.379 107.227L97.156 108.412L96.564 109.005L95.379 109.005L92.417 111.967L92.417 112.559L91.232 114.336L90.64 113.744L90.64 112.559L89.455 111.374L89.455 110.782L87.085 109.005L85.9 109.005L85.308 108.412L85.9 107.82L87.678 107.227L90.047 104.858L90.047 104.265ZM106.635 102.488L107.227 103.081L107.82 104.858L110.19 107.227L110.782 107.227L112.559 108.412L111.967 109.005L110.782 109.005L109.597 110.19L109.005 110.19L107.227 112.559L107.227 113.744L106.635 114.336L106.043 113.744L105.45 111.967L102.488 109.005L101.303 109.005L100.711 108.412L101.303 107.82L103.081 107.227L105.45 104.858L105.45 104.265ZM60.427 103.081L61.019 103.081L61.611 103.673L62.204 105.45L63.389 106.635L63.981 106.635L66.351 108.412L65.758 109.005L63.981 109.597L62.204 111.374L62.204 111.967L61.019 113.744L60.427 113.744L59.834 113.152L59.242 111.374L57.464 109.597L56.872 109.597L55.095 108.412L57.464 106.635L58.057 106.635L59.242 105.45L59.242 104.858ZM6.517 112.559L7.701 112.559L8.294 113.152L8.886 113.152L10.664 115.521L10.664 116.706L8.886 119.076L5.924 119.076L4.147 117.299L4.147 114.929L4.739 114.336L4.739 113.744ZM21.919 112.559L23.104 112.559L23.697 113.152L24.289 113.152L25.474 114.336L25.474 115.521L26.066 116.114L25.474 116.706L25.474 117.299L23.697 119.076L21.327 119.076L19.55 117.299L19.55 116.706L18.957 116.114L19.55 115.521L19.55 114.336ZM37.322 112.559L38.507 112.559L39.1 113.152L39.692 113.152L40.877 114.929L40.877 117.299L39.1 119.076L36.137 119.076L34.36 116.706L34.36 115.521L34.953 114.929L34.953 114.336ZM52.725 112.559L54.502 113.152L56.28 114.929L56.28 117.299L54.502 119.076L51.54 119.076L49.763 116.706L49.763 114.929L51.54 113.152L52.133 113.152ZM68.128 112.559L69.905 113.152L71.682 114.929L71.682 116.706L69.905 119.076L66.943 119.076L65.166 117.299L65.166 114.929L66.943 113.152L67.536 113.152ZM82.938 112.559L84.123 112.559L84.716 113.152L85.308 113.152L87.085 115.521L87.085 116.706L85.308 119.076L82.346 119.076L80.569 117.299L80.569 114.929L81.161 114.336L81.161 113.744ZM98.341 112.559L99.526 112.559L100.118 113.152L100.711 113.152L101.896 114.336L101.896 115.521L102.488 116.114L101.896 116.706L101.896 117.299L100.118 119.076L97.749 119.076L97.156 118.483L96.564 118.483L95.972 117.891L95.972 116.706L95.379 116.114L95.972 114.336ZM113.744 112.559L114.929 112.559L115.521 113.152L116.114 113.152L117.299 114.929L117.299 117.299L115.521 119.076L112.559 119.076L110.782 116.706L110.782 115.521L111.374 114.929L111.374 114.336ZM14.81 117.891L15.403 118.483L15.995 120.261L18.365 122.63L18.957 122.63L20.735 123.815L20.142 124.408L18.365 125L15.995 127.37L15.995 127.962L14.81 129.739L14.218 129.147L14.218 127.962L13.033 126.777L13.033 126.185L10.664 124.408L9.479 124.408L8.886 123.815L9.479 123.223L11.256 122.63L13.626 120.261L13.626 119.668ZM30.213 117.891L30.806 118.483L31.398 120.261L33.768 122.63L34.36 122.63L36.137 123.815L35.545 124.408L34.36 124.408L33.175 125.592L32.583 125.592L30.806 127.962L30.806 129.147L30.213 129.739L29.621 129.147L29.028 127.37L26.659 125L26.066 125L24.289 123.815L24.882 123.223L26.659 122.63L29.028 120.261L29.028 119.668ZM45.616 117.891L46.209 118.483L46.209 119.668L47.393 120.853L47.393 121.445L47.986 121.445L50.948 123.815L50.355 124.408L48.578 125L46.801 126.777L46.801 127.37L45.616 129.147L44.431 127.962L44.431 127.37L42.062 125L41.469 125L39.692 123.815L40.284 123.223L42.062 122.63L43.839 120.853L44.431 119.076ZM75.829 117.891L77.014 119.076L77.607 120.853L79.384 122.63L79.976 122.63L81.754 123.815L81.161 124.408L79.384 125L77.014 127.37L77.014 127.962L75.829 129.147L75.237 128.555L74.645 126.777L73.46 125.592L72.867 125.592L70.498 123.815L71.682 122.63L72.275 122.63L75.237 119.668L75.237 118.483ZM91.232 117.891L91.825 118.483L92.417 120.261L94.787 122.63L95.379 122.63L97.156 123.815L96.564 124.408L95.379 124.408L92.417 127.37L92.417 127.962L91.232 129.739L90.64 129.147L90.64 127.962L88.863 126.185L88.863 125.592L88.27 125.592L87.085 124.408L85.9 124.408L85.308 123.815L85.9 123.223L87.678 122.63L90.047 120.261L90.047 119.668ZM106.635 117.891L107.227 118.483L107.82 120.261L110.19 122.63L110.782 122.63L112.559 123.815L111.967 124.408L110.782 124.408L109.597 125.592L109.005 125.592L107.227 127.962L107.227 129.147L106.635 129.739L106.043 129.147L105.45 127.37L103.081 125L102.488 125L100.711 123.815L101.303 123.223L103.081 122.63L105.45 120.261L105.45 119.668ZM60.427 118.483L61.019 118.483L61.611 119.076L62.204 120.853L63.389 122.038L63.981 122.038L66.351 123.815L65.758 124.408L63.981 125L62.204 126.777L62.204 127.37L61.019 129.147L60.427 129.147L59.834 128.555L59.242 126.777L57.464 125L56.872 125L55.095 123.815L57.464 122.038L58.057 122.038L59.242 120.853L59.242 120.261ZM6.517 127.962L7.701 127.962L8.294 128.555L8.886 128.555L10.664 130.924L10.664 132.109L8.886 134.479L5.924 134.479L4.147 132.701L4.147 130.332L4.739 129.739L4.739 129.147ZM21.919 127.962L23.104 127.962L23.697 128.555L24.289 128.555L25.474 129.739L25.474 130.924L26.066 131.517L25.474 132.109L25.474 132.701L23.697 134.479L21.327 134.479L19.55 132.701L19.55 132.109L18.957 131.517L19.55 130.924L19.55 129.739ZM37.322 127.962L38.507 127.962L39.1 128.555L39.692 128.555L40.877 130.332L40.877 132.701L39.1 134.479L36.137 134.479L34.36 132.109L34.36 130.924L34.953 130.332L34.953 129.739ZM52.725 127.962L54.502 128.555L56.28 130.332L56.28 132.701L54.502 134.479L51.54 134.479L49.763 132.701L49.763 130.332L51.54 128.555L52.133 128.555ZM68.128 127.962L69.905 128.555L71.682 130.332L71.682 132.109L69.905 134.479L66.943 134.479L65.166 132.701L65.166 130.332L66.943 128.555L67.536 128.555ZM82.938 127.962L84.123 127.962L84.716 128.555L85.308 128.555L87.085 130.924L87.085 132.109L85.308 134.479L82.346 134.479L80.569 132.701L80.569 130.332L81.161 129.739L81.161 129.147ZM98.341 127.962L99.526 127.962L100.118 128.555L100.711 128.555L101.896 129.739L101.896 130.924L102.488 131.517L101.896 132.109L101.896 132.701L100.118 134.479L97.749 134.479L97.156 133.886L96.564 133.886L95.972 133.294L95.972 132.109L95.379 131.517L95.972 130.924L95.972 129.739ZM113.744 127.962L114.929 127.962L115.521 128.555L116.114 128.555L117.299 130.332L117.299 132.701L115.521 134.479L112.559 134.479L110.782 132.109L110.782 130.924L111.374 130.332L111.374 129.739ZM136.848 143.365L136.256 143.957L136.256 145.142L136.848 145.735L137.441 145.142L138.033 145.142L138.626 145.735L138.626 156.991L140.995 156.991L140.995 145.735L141.588 145.142L143.365 145.142L143.365 143.957L142.773 143.365ZM154.028 143.365L154.028 156.991L155.806 156.991L155.806 152.251L156.398 151.659L156.991 151.659L158.175 152.844L158.175 154.621L158.768 155.213L158.768 156.398L159.36 156.991L161.137 156.991L161.137 155.806L160.545 155.213L160.545 154.028L159.953 153.436L159.953 152.251L159.36 151.659L159.36 151.066L161.137 148.697L161.137 146.327L160.545 145.735L160.545 145.142L158.175 143.365ZM174.763 143.365L173.578 145.142L173.578 147.512L172.986 148.104L172.986 151.066L172.393 151.659L172.393 154.028L171.801 154.621L171.801 156.991L173.578 156.991L173.578 156.398L174.171 155.806L174.171 154.621L174.763 154.028L176.54 154.028L177.133 154.621L177.133 156.991L179.502 156.991L179.502 156.398L178.91 155.806L178.91 153.436L178.318 152.844L178.318 149.882L177.725 149.289L177.725 146.919L177.133 146.327L177.133 143.957L176.54 143.365ZM190.166 143.365L189.573 143.957L189.573 156.398L190.166 156.991L194.905 156.991L196.682 155.213L196.682 145.735L195.498 143.957L194.313 143.957L193.72 143.365ZM210.308 143.365L210.308 156.991L212.085 156.991L212.085 143.365ZM225.711 143.365L225.711 156.991L227.488 156.991L227.488 151.066L228.081 150.474L228.673 151.066L229.265 154.028L230.45 155.806L230.45 156.991L232.227 156.991L232.227 143.365L231.043 143.365L230.45 143.957L230.45 148.697L229.858 149.289L228.673 147.512L228.081 144.55L226.896 143.365ZM245.261 143.365L244.668 143.957L244.076 143.957L242.891 145.735L242.891 155.213L244.668 156.991L247.63 156.991L248.223 156.398L248.815 156.991L250 156.991L250 150.474L246.445 150.474L246.445 152.251L247.038 152.251L247.63 152.844L247.63 154.621L247.038 155.213L245.853 155.213L245.261 154.621L245.261 145.735L245.853 145.142L246.445 145.142L247.63 146.327L247.63 147.512L248.223 148.104L249.408 148.104L250 147.512L250 146.919L249.408 146.327L249.408 145.142L247.63 143.365ZM156.991 145.142L157.583 145.142L158.768 146.327L158.768 148.697L157.583 149.882L156.991 149.882L155.806 148.697L155.806 146.327ZM192.536 145.142L193.128 145.142L194.905 146.919L194.905 154.028L193.72 155.213L192.536 155.213L191.943 154.621L191.943 145.735ZM175.355 148.104L175.948 148.697L175.948 149.882L176.54 150.474L176.54 151.659L175.948 152.251L175.355 152.251L174.763 151.659L174.763 148.697Z"/>
</svg>
