<?xml version="1.0" encoding="UTF-8"?>
<!-- Generated by Pixelmator Pro 3.8 -->
<svg width="250" height="120" viewBox="0 0 250 120" xmlns="http://www.w3.org/2000/svg">
    <g id="Group">
        <path id="Path" fill="#004c97" fill-rule="evenodd" stroke="none" d="M 249.679001 9.127899 L 182.817993 9.127899 L 182.817993 110.549896 L 207.042999 110.549896 L 207.365997 71.143898 L 246.449005 71.143898 L 246.449005 50.794907 L 207.042999 50.471893 L 207.365997 29.799896 L 249.679001 29.799896 Z M 45.542999 9.127899 L 45.542999 110.549896 L 68.799004 110.549896 L 68.153 48.533905 L 68.475998 38.843903 L 69.767998 41.427902 L 94.316002 110.549896 L 111.758003 110.549896 L 137.274994 40.458893 L 138.244003 38.843903 L 138.567001 47.564896 L 137.921005 110.549896 L 161.822998 110.549896 L 161.822998 9.127899 L 126.292999 9.127899 L 104.652 73.4049 L 104.005997 74.050903 L 103.360001 73.4049 L 101.098999 66.298897 L 80.75 9.127899 Z M 0 9.127899 L 0 110.549896 L 24.548 110.549896 L 24.548 9.127899 Z"/>
    </g>
</svg>
