<?xml version="1.0" encoding="UTF-8"?>
<svg xmlns="http://www.w3.org/2000/svg" viewBox="0 0 250 250" role="img" aria-label="International Monetary Fund logo">
<title>International Monetary Fund</title>
<g transform="translate(0 74.1279) scale(0.323)">
<path fill="#004c97" fill-rule="evenodd" d="M773 0L566 0L566 314L641 314L642 192L763 192L763 129L641 128L642 64L773 64ZM141 0L141 314L213 314L211 122L212 92L216 100L292 314L346 314L425 97L428 92L429 119L427 314L501 314L501 0L391 0L324 199L322 201L320 199L313 177L250 0ZM0 0L0 314L76 314L76 0Z"/>
</g>
</svg>
