<?xml version="1.0" encoding="UTF-8"?>
<!-- Generated by Pixelmator Pro 3.8 -->
<svg width="250" height="28" viewBox="0 0 250 28" xmlns="http://www.w3.org/2000/svg">
    <clipPath id="clipPath1">
        <path d="M 0 -0.031403 L 249.963196 -0.031403 L 249.963196 28.027199 L 0 28.027199 Z"/>
    </clipPath>
    <g id="Group" clip-path="url(#clipPath1)">
        <path id="Path" fill="#006a33" stroke="none" d="M 59.693047 24.266693 C 58.533775 24.09935 57.149158 23.674667 57.005611 23.442406 C 56.971294 23.386879 56.90118 23.450851 56.820892 23.610939 C 56.578228 24.094803 56.68631 24.084801 52.46508 24.013863 C 50.355797 23.978424 47.362099 23.949417 45.812416 23.949417 C 44.262733 23.949417 42.95079 23.920921 42.89698 23.886093 C 42.739964 23.784477 42.784081 23.603241 42.97525 23.564598 C 43.072102 23.545013 43.367786 23.510048 43.632317 23.486893 C 44.499943 23.410957 44.687679 23.236794 44.889259 22.320839 C 44.99609 21.835403 45.017735 20.720901 45.046547 14.221436 C 45.082607 6.086517 45.062893 5.534103 44.72049 5.08519 C 44.523972 4.827545 43.976597 4.578415 43.607006 4.578415 L 43.425282 4.578415 L 43.424213 6.045914 C 43.422993 7.725143 43.401867 7.865616 43.150593 7.865616 C 42.945503 7.865616 42.877415 7.733627 42.877415 7.33606 C 42.877415 6.855209 42.599186 6.401611 42.145191 6.142319 C 41.443378 5.741501 40.830662 5.649948 38.232407 5.557648 L 37.070259 5.516357 L 37.108585 13.402359 C 37.147217 21.351913 37.178532 22.234756 37.439838 22.740067 C 37.689945 23.223724 37.941036 23.317497 39.276234 23.425888 C 39.840176 23.471672 39.944843 23.50206 39.968765 23.626968 C 39.984268 23.707909 39.958553 23.797859 39.911617 23.826866 C 39.791569 23.901062 31.119806 23.880554 31.00045 23.805786 C 30.858175 23.716675 30.88069 23.535645 31.039581 23.491119 C 31.114912 23.470016 31.550945 23.429321 32.008545 23.400688 C 33.001698 23.338547 33.264713 23.21431 33.492283 22.699852 C 33.788441 22.030334 33.812206 21.416496 33.853661 13.365036 L 33.894054 5.519989 L 32.887501 5.562393 C 31.065086 5.63916 29.772026 5.744217 29.493816 5.83812 C 29.015762 5.999466 28.733393 6.273682 28.473484 6.828979 C 28.337584 7.119324 28.199549 7.409714 28.166742 7.474289 C 28.133932 7.538864 28.040487 7.59169 27.959085 7.59169 C 27.760876 7.59169 27.706902 7.206757 27.699484 5.740295 L 27.693684 4.593307 L 27.36105 4.635788 C 26.741955 4.714828 26.36809 5.021881 26.20483 5.585373 C 26.085466 5.99736 26.059252 6.958786 25.926401 15.796448 C 25.860506 20.179932 25.7742 23.851616 25.73461 23.95575 C 25.64489 24.191727 25.434738 24.198532 25.150141 23.974663 C 24.952789 23.819435 19.26366 17.642319 14.440475 12.34639 C 13.37217 11.173363 12.486222 10.213623 12.471712 10.213623 C 12.457208 10.213623 12.461017 10.962036 12.480177 11.876785 C 12.499342 12.791527 12.548832 15.28334 12.590163 17.414154 C 12.631488 19.54496 12.702063 21.517281 12.746998 21.797089 C 12.791926 22.076889 12.916276 22.487099 13.023334 22.708664 C 13.274986 23.229485 13.5618 23.370644 14.474063 23.422661 C 15.258765 23.4674 15.408931 23.52504 15.279855 23.731956 C 15.197499 23.863976 14.807144 23.870338 7.7062 23.855362 C 3.588441 23.84668 0.182808 23.816986 0.138126 23.789368 C 0.093443 23.761757 0.067932 23.681786 0.081439 23.611671 C 0.1002 23.514236 0.267119 23.462822 0.78952 23.393593 C 1.165458 23.343773 1.564336 23.243195 1.675901 23.17009 C 2.232313 22.805519 2.27072 22.122635 2.241699 13.109489 C 2.21792 5.724091 2.217638 5.712753 2.049104 5.348114 C 1.81984 4.852081 1.596621 4.727737 0.746857 4.622696 C 0.191883 4.554092 0.021912 4.504761 0.003057 4.40686 C -0.010385 4.337051 0.021777 4.253265 0.074524 4.220673 C 0.220775 4.13028 7.573208 4.149826 7.664223 4.240845 C 7.850736 4.427368 7.645903 4.559326 7.085318 4.6138 C 6.306293 4.689499 5.921302 4.872421 5.7409 5.252594 C 5.624322 5.498276 5.582768 5.87175 5.524215 7.200256 C 5.433975 9.247696 5.51133 21.518982 5.618164 22.104355 C 5.709671 22.605721 6.002596 23.005943 6.448452 23.238777 C 6.692544 23.366241 6.939542 23.406036 7.625745 23.428452 C 8.998985 23.473297 9.587405 23.289528 10.092648 22.65802 C 10.573912 22.05648 10.558867 22.28434 11.019005 8.628693 C 11.109995 5.928253 11.207343 3.968094 11.254867 3.879288 C 11.3539 3.694244 11.597259 3.609253 11.847954 3.67218 C 12.034626 3.719025 14.091721 5.949219 20.372345 12.913818 C 22.00275 14.721779 23.546366 16.429947 23.802595 16.709755 L 24.268475 17.218491 L 24.226006 11.622414 C 24.197788 7.904297 24.154263 5.910782 24.096308 5.681976 C 23.908892 4.942017 23.527903 4.680603 22.52404 4.603195 C 22.083485 4.569214 21.874666 4.520126 21.845303 4.443604 C 21.74077 4.171188 21.933882 4.152283 24.843164 4.150101 L 27.702581 4.147934 L 27.847902 3.955292 C 27.987976 3.769623 28.007038 3.766205 28.37553 3.860657 C 29.186926 4.068604 30.35029 4.106064 36.040005 4.107407 C 41.042831 4.108582 42.016949 4.090576 42.56403 3.986801 C 43.157658 3.874191 43.218178 3.874802 43.35067 3.994705 C 43.481792 4.113373 43.985718 4.123917 49.178246 4.116684 C 53.904408 4.110107 54.957062 4.089005 55.424683 3.991455 C 55.734005 3.926926 56.02734 3.8741 56.076542 3.874054 C 56.221394 3.874054 56.250706 4.056564 56.171749 4.467163 C 56.131008 4.679001 56.049759 5.481644 55.991188 6.250824 C 55.88229 7.680939 55.811695 7.928528 55.542305 7.82515 C 55.458492 7.792999 55.407337 7.622604 55.373859 7.264084 C 55.31958 6.682831 55.087925 6.135345 54.822739 5.961594 C 54.332458 5.640335 53.868851 5.583191 51.173683 5.511734 C 48.764771 5.447876 48.5438 5.452866 48.453915 5.573135 C 48.305729 5.771423 48.312981 12.394463 48.461613 12.597725 C 48.562649 12.735901 48.694859 12.738869 51.572712 12.667473 C 54.824539 12.5868 54.904575 12.575264 55.325966 12.126717 C 55.424786 12.02153 55.573643 11.935463 55.65675 11.935463 C 55.788631 11.935463 55.802765 11.977791 55.767818 12.268097 C 55.745796 12.451042 55.666275 13.393181 55.591099 14.361732 C 55.449596 16.184967 55.383713 16.45388 55.130085 16.243385 C 55.063347 16.188011 55.008751 16.025467 55.008751 15.882202 C 55.008751 15.421906 54.843567 14.833054 54.649868 14.602859 C 54.264008 14.144295 54.048466 14.109283 51.173683 14.038254 C 48.734776 13.977997 48.544636 13.982925 48.449833 14.108902 C 48.368988 14.216331 48.352806 14.923943 48.371567 17.531525 C 48.39291 20.497963 48.40897 20.849274 48.536152 21.13179 C 48.737995 21.58017 49.088459 21.909653 49.614788 22.145851 C 50.416855 22.505798 51.119965 22.603027 52.973816 22.610352 C 54.950211 22.618164 55.402775 22.529839 55.9772 22.024208 C 56.494907 21.568504 56.67712 21.025024 56.923695 19.201096 C 57.008312 18.57518 57.423828 18.451836 57.535683 19.019424 C 57.839508 20.561111 58.101505 21.147507 58.797436 21.843445 C 59.59515 22.641159 60.528076 23.014908 61.936768 23.101128 C 64.70591 23.27063 66.60955 21.660805 66.209129 19.48819 C 65.965538 18.166527 65.012718 17.100441 62.67889 15.5383 C 60.754463 14.250206 60.119812 13.765892 59.246735 12.91922 C 57.708187 11.427193 57.097847 10.184158 57.092007 8.530869 C 57.087517 7.259155 57.439526 6.429398 58.376457 5.503204 C 58.879032 5.006409 59.125668 4.833527 59.794815 4.509048 C 61.242393 3.807114 62.439358 3.595856 64.596413 3.661621 C 65.995888 3.7043 67.73204 3.935593 68.157547 4.136032 L 68.35321 4.22821 L 68.374184 6.127701 C 68.387657 7.348465 68.365692 8.08223 68.312729 8.181198 C 68.265251 8.269913 68.149162 8.33519 68.038887 8.33519 C 67.84111 8.33519 67.826637 8.305695 67.731606 7.709061 C 67.652184 7.210571 67.235405 6.459885 66.80455 6.039337 C 65.983757 5.238159 64.985428 4.870132 63.618088 4.864655 C 62.332909 4.859497 61.418873 5.15654 60.76535 5.791702 C 60.249695 6.292862 60.05769 6.766144 60.066872 7.513397 C 60.083698 8.883667 60.764347 9.657745 63.578949 11.507538 C 66.045006 13.128258 67.5159 14.352997 68.279671 15.421623 C 68.617241 15.893921 69.175011 16.972488 69.175011 17.152939 C 69.175011 17.205414 69.207153 17.268227 69.246437 17.292503 C 69.311737 17.332855 73.069695 12.309402 77.118233 6.769867 C 79.047104 4.13063 79.13343 4.030533 79.480629 4.030533 C 79.961159 4.030533 79.93972 3.889328 80.366676 9.867203 C 81.149193 20.823578 81.206581 21.43895 81.549255 22.548409 C 81.813896 23.405228 82.205009 23.672264 83.19873 23.674599 C 83.430847 23.675186 83.611282 23.72184 83.691605 23.802162 C 83.808357 23.918922 83.80809 23.940147 83.688141 24.072655 C 83.616577 24.151733 83.412392 24.23671 83.23439 24.26149 C 83.056412 24.286263 81.48436 24.279015 79.740974 24.245369 L 76.571175 24.184196 L 76.54612 24.007744 C 76.520805 23.829445 76.554909 23.804642 76.941948 23.719887 C 77.401031 23.619362 77.402756 23.602722 77.278244 20.47982 C 77.216095 18.920891 77.143959 17.610977 77.117958 17.568901 C 77.088669 17.521469 76.049408 17.492393 74.383781 17.492393 C 71.936035 17.492393 71.683075 17.504585 71.541908 17.629364 C 71.220123 17.913757 67.531395 23.356079 67.531395 23.54644 C 67.531395 23.777962 67.65567 23.831993 68.18811 23.831993 C 68.64473 23.831993 68.962959 23.993439 68.810791 24.147888 C 68.747765 24.211861 68.133469 24.245674 66.775856 24.259895 C 65.706291 24.271103 63.845036 24.301743 62.639736 24.32798 C 60.968822 24.364349 60.268871 24.349785 59.693027 24.26667 Z M 77.040138 16.162971 C 77.086578 16.087845 76.883598 11.449768 76.797569 10.620056 C 76.77388 10.391617 76.723724 10.215515 76.686104 10.228729 C 76.568756 10.269943 72.546112 16.107681 72.588165 16.175728 C 72.646393 16.269928 76.98172 16.257515 77.040138 16.162971 Z M 131.984009 24.294487 C 130.669159 24.115349 129.354218 23.699165 129.158279 23.400124 C 129.055481 23.243225 129.041428 22.900253 129.062943 21.070557 C 129.089417 18.816864 129.113464 18.66642 129.447189 18.66642 C 129.624069 18.66642 129.753418 18.891907 129.753418 19.200272 C 129.753418 19.593422 130.103775 20.665115 130.385376 21.133263 C 131.138245 22.384972 132.66362 23.130035 134.465683 23.126259 C 136.205292 23.12262 137.637863 22.388969 138.207336 21.210091 C 138.56337 20.473038 138.499008 19.397301 138.045776 18.509888 C 137.5569 17.552704 136.812698 16.86573 134.801605 15.515221 C 132.944321 14.267982 132.288986 13.766212 131.407272 12.916267 C 129.883377 11.447273 129.259766 10.159286 129.26506 8.491745 C 129.272339 6.200653 130.923248 4.523087 133.818283 3.865005 C 135.409256 3.503357 138.412064 3.616302 140.231461 4.106216 L 140.554214 4.193115 L 140.554214 6.140366 C 140.554214 7.211349 140.532837 8.143326 140.506699 8.211426 C 140.442764 8.378067 140.107483 8.369003 140.01973 8.198257 C 139.981018 8.122925 139.929993 7.909393 139.906372 7.723755 C 139.801376 6.898987 138.992538 5.858353 138.088806 5.385284 C 137.384201 5.016449 136.744537 4.879059 135.745407 4.881958 C 134.424698 4.885834 133.673706 5.133728 132.959656 5.801651 C 132.458542 6.27037 132.240555 6.790436 132.240555 7.517197 C 132.240555 8.856964 132.978287 9.69371 135.779953 11.531624 C 137.715454 12.801346 138.587921 13.476112 139.581451 14.471741 C 140.992126 15.885422 141.484329 16.914093 141.551071 18.58815 C 141.594971 19.689644 141.467896 20.308212 141.021378 21.166489 C 140.460678 22.244225 139.269577 23.248413 137.946915 23.758476 C 136.756393 24.217598 136.151932 24.313187 134.253754 24.342522 C 133.306732 24.357155 132.285339 24.335541 131.984009 24.294487 Z M 207.999847 24.293663 C 206.55777 24.1343 205.200073 23.677162 204.022598 22.954506 C 203.151123 22.419647 201.923325 21.201828 201.323853 20.277687 C 198.574432 16.039268 199.029709 9.983505 202.363449 6.44957 C 204.120697 4.586792 206.515884 3.639587 209.468033 3.639984 C 211.671158 3.640564 213.343399 4.060638 215.024734 5.036804 C 215.91597 5.554245 217.231918 6.882095 217.783356 7.820389 C 218.819519 9.58342 219.278488 11.602409 219.190338 14.009537 C 219.059006 17.595406 217.618103 20.613739 215.155106 22.462242 C 213.252472 23.890198 210.567581 24.577415 207.999847 24.293663 Z M 211.606873 22.688248 C 213.9207 21.922684 215.18956 19.614265 215.452957 15.691193 C 215.749573 11.273506 214.409897 7.599854 211.903885 5.958939 C 211.11412 5.441803 210.668472 5.254196 209.822968 5.082932 C 208.066116 4.727081 206.304016 5.261673 205.115479 6.511108 C 204.285263 7.383865 203.658234 8.778046 203.362305 10.409271 C 203.188156 11.369209 203.121552 13.791931 203.240707 14.831871 C 203.708282 18.912415 205.568222 21.757858 208.356842 22.658768 C 209.43718 23.00779 210.608978 23.018417 211.606873 22.688248 Z M 239.248489 24.332977 C 237.680542 24.151253 236.768143 23.919312 235.75676 23.445351 C 234.876465 23.032837 234.232574 22.581848 233.476746 21.848419 C 233.121841 21.504036 232.819641 21.237129 232.805176 21.255295 C 232.79071 21.273476 232.736618 21.617432 232.684952 22.019653 C 232.544495 23.113182 232.443741 23.505013 232.243057 23.738403 L 232.061615 23.949402 L 229.413269 23.942406 C 220.81694 23.919685 218.822418 23.889023 218.730453 23.778221 C 218.57312 23.588631 218.782455 23.488838 219.459564 23.430649 C 220.245621 23.363098 220.451981 23.229004 220.643066 22.661591 C 220.901138 21.895279 220.943115 20.42215 220.918655 12.992073 L 220.894943 5.791534 L 220.72052 5.437637 C 220.624573 5.242981 220.448471 5.026962 220.329178 4.957596 C 220.060562 4.801392 219.394394 4.656662 218.944016 4.656662 C 218.579468 4.656662 218.395157 4.525894 218.506271 4.346085 C 218.563019 4.254303 219.272614 4.23558 222.857407 4.231308 C 227.217712 4.226135 227.438431 4.240143 227.332687 4.515732 C 227.299789 4.601456 227.09996 4.645569 226.575867 4.682755 C 225.515808 4.758011 225.211212 4.926331 224.994278 5.556732 C 224.838959 6.008133 224.835068 20.076599 224.990051 20.897003 C 225.131561 21.646049 225.273651 21.910118 225.680069 22.179321 C 226.135178 22.480766 226.529343 22.531754 228.330292 22.522118 C 229.95845 22.513412 230.727951 22.401772 231.289673 22.092751 C 231.648056 21.895599 232.071945 21.331154 232.211548 20.865166 C 232.294266 20.589104 232.278595 20.539413 231.901306 19.881409 C 230.854568 18.055916 230.374878 16.210564 230.374878 14.009537 C 230.374878 11.032768 231.368637 8.365692 233.186981 6.462479 C 235.008453 4.555939 237.312683 3.639206 240.283249 3.639206 C 245.494919 3.639206 248.962753 6.401978 249.857635 11.266998 C 249.962463 11.836792 249.979828 12.320808 249.950394 13.8498 C 249.911301 15.881134 249.821747 16.437798 249.30159 17.883736 C 248.097305 21.231354 245.441559 23.525551 242.021164 24.172966 C 241.381851 24.293976 239.732971 24.38913 239.248489 24.332977 Z M 242.218521 22.764343 C 243.008606 22.542519 243.557968 22.203812 244.231979 21.522934 C 244.769577 20.979897 244.93541 20.746284 245.270874 20.059471 C 245.738556 19.101982 246.075272 17.862381 246.215317 16.582649 C 246.359909 15.261116 246.281387 12.667656 246.064209 11.594467 C 245.471909 8.667343 244.050354 6.539902 242.027069 5.552689 C 240.032272 4.579376 237.708313 4.855652 236.225922 6.24234 C 235.156616 7.24263 234.583298 8.408188 234.195541 10.370132 C 233.995422 11.382683 233.952301 14.064377 234.117126 15.246223 C 234.653702 19.093597 236.466156 21.758499 239.155975 22.654984 C 240.114044 22.974289 241.317673 23.017273 242.218521 22.764343 Z M 170.348007 23.812431 C 169.995819 23.481529 165.773743 18.908287 160.556 13.205994 C 159.051926 11.562241 157.810532 10.228119 157.797379 10.241287 C 157.78421 10.254456 157.811951 12.373474 157.859024 14.950226 L 157.944595 19.635231 L 158.73616 20.609787 C 159.740875 21.846741 160.597382 22.757912 161.04483 23.065758 C 161.326553 23.259605 161.498367 23.313995 161.925369 23.344551 C 162.383194 23.377304 162.461975 23.405258 162.500305 23.548553 C 162.526245 23.645576 162.499298 23.74865 162.435349 23.796516 C 162.361862 23.851547 160.96907 23.873955 158.190598 23.864807 C 155.916138 23.857315 154.013565 23.84687 153.962662 23.841591 C 153.823059 23.827126 153.755432 23.526985 153.862671 23.397774 C 153.928925 23.31794 154.12294 23.284042 154.514816 23.283844 C 155.227936 23.283257 155.604446 23.090164 155.566681 22.743797 C 155.549545 22.586632 154.895538 21.725945 153.367584 19.849724 L 151.192886 17.179337 L 148.229965 17.179337 L 145.267044 17.179337 L 145.209351 18.564186 C 145.13562 20.334167 145.198105 22.127953 145.347885 22.540359 C 145.582077 23.185303 146.002167 23.421066 146.985489 23.459427 C 147.554138 23.481621 147.625809 23.513512 147.584854 23.726158 C 147.559174 23.859566 147.375122 23.86747 144.25444 23.869247 C 141.216553 23.870949 140.940262 23.860184 140.814774 23.734726 C 140.614685 23.534714 140.74588 23.467308 141.443115 23.411873 C 142.260117 23.346916 142.604568 23.154251 142.868622 22.614548 C 143.063065 22.217148 143.076492 22.063454 143.696716 13.14357 C 144.043457 8.156708 144.357498 3.996735 144.394592 3.899185 C 144.470276 3.700104 144.769455 3.595398 145.034988 3.675064 C 145.172058 3.716202 151.192978 11.151237 155.799179 16.967407 L 156.034225 17.264214 L 156.085922 16.067337 C 156.114334 15.409058 156.217361 12.408829 156.31485 9.400162 L 156.492096 3.92984 L 156.679031 3.778488 C 156.785629 3.692154 156.941376 3.641541 157.041489 3.660675 C 157.406342 3.730423 157.125519 3.434921 163.410797 10.362549 C 165.543106 12.712761 167.814789 15.214561 168.459 15.922081 L 169.630295 17.208496 L 169.635162 14.826347 C 169.637802 13.516167 169.620209 10.947357 169.596024 9.117874 L 169.552048 5.791534 L 169.356369 5.404266 C 169.071655 4.840759 168.874466 4.729675 167.973984 4.625549 C 167.288406 4.54628 167.204041 4.519516 167.204041 4.381363 C 167.204041 4.140778 167.558731 4.123901 171.508698 4.176544 C 173.488846 4.202927 176.834747 4.230927 178.944046 4.23877 C 182.442734 4.251785 182.856369 4.267197 183.660126 4.414383 C 184.658813 4.597275 185.746353 4.97847 186.253387 5.323364 C 187.093765 5.894989 187.787552 6.95047 188.00531 7.988647 C 188.207382 8.952042 188.026703 10.442657 187.569977 11.580147 C 187.048706 12.878387 186.169174 13.818504 184.892303 14.442261 C 183.751434 14.999573 183.218643 15.10527 181.5504 15.10527 C 180.135406 15.10527 179.924881 15.063377 180.025269 14.801781 C 180.072876 14.677696 180.273804 14.631821 181.0681 14.563698 C 182.597702 14.432503 183.982361 13.111046 184.444122 11.341789 C 184.614059 10.690704 184.604248 9.141525 184.425827 8.452606 C 184.233597 7.71022 183.84259 7.0121 183.326965 6.490509 C 182.775894 5.93306 182.185684 5.627899 181.335892 5.461075 C 180.618027 5.320145 179.12291 5.346024 178.967346 5.50209 C 178.885254 5.584427 178.868393 7.123184 178.879425 13.524414 C 178.888138 18.577957 178.922745 21.638474 178.975021 21.979736 C 179.137375 23.039551 179.531128 23.419617 180.386353 23.342072 C 181.354309 23.254295 181.856995 22.804901 183.483505 20.573196 C 184.000061 19.864441 186.183701 16.906059 188.336044 13.999039 C 190.488358 11.09201 193.041809 7.636597 194.010361 6.320343 C 194.978912 5.004089 195.865265 3.857697 195.980042 3.772797 C 196.19754 3.611908 196.525116 3.618118 196.693329 3.786316 C 196.793854 3.886841 196.793976 3.888229 197.323746 11.231071 C 198.023331 20.927422 198.05925 21.29248 198.413406 22.305801 C 198.569061 22.751183 198.996674 23.182198 199.332794 23.232483 C 199.483292 23.255005 199.817749 23.302254 200.076035 23.337479 C 200.470901 23.391342 200.545639 23.426285 200.545639 23.557014 C 200.545639 23.887726 200.334198 23.905724 196.794342 23.876457 C 194.080322 23.854019 193.430176 23.828545 193.375748 23.742538 C 193.26741 23.571388 193.337051 23.487717 193.691925 23.362671 C 193.898224 23.289986 194.062286 23.170212 194.121094 23.049332 C 194.258179 22.767624 194.048462 17.346756 193.894363 17.188904 C 193.806366 17.098747 193.343246 17.092331 191.069702 17.149765 L 188.350296 17.218468 L 186.3246 20.147057 C 185.210449 21.757774 184.309143 23.127579 184.321671 23.191063 C 184.359497 23.382858 184.580688 23.469986 185.116272 23.504089 C 185.6306 23.536835 185.764725 23.62413 185.631012 23.839104 C 185.576324 23.927025 185.383316 23.942139 184.679504 23.913582 C 183.498459 23.865677 177.208969 23.819839 175.735107 23.848389 C 172.897354 23.903374 172.627106 23.878716 172.743484 23.575417 C 172.772354 23.50016 172.978348 23.44857 173.388306 23.413918 C 174.125565 23.351593 174.361908 23.245338 174.549438 22.891914 C 174.851151 22.323235 174.874161 21.660294 174.874161 13.539932 C 174.874161 5.868118 174.871048 5.707169 174.717636 5.405258 C 174.631546 5.23584 174.470718 5.031281 174.360229 4.950653 C 173.928146 4.635361 172.412735 4.560486 171.995575 4.833817 C 171.886948 4.904999 171.732956 5.131989 171.653397 5.338257 C 171.488449 5.765747 171.445114 7.253311 171.291245 17.766335 C 171.244614 20.95179 171.185669 23.66037 171.160248 23.7854 C 171.114639 24.009598 170.968628 24.153473 170.792313 24.147919 C 170.742661 24.146332 170.54274 23.995384 170.348022 23.812431 Z M 150.010773 15.768555 C 149.950989 15.589157 145.5242 10.222 145.479218 10.274368 C 145.415619 10.348434 145.235413 15.68325 145.29335 15.776993 C 145.357132 15.880196 150.045197 15.871819 150.010773 15.768555 Z M 193.879333 15.7901 C 193.898438 15.757813 193.849213 14.498695 193.769928 12.992073 C 193.690659 11.485435 193.624252 10.155884 193.622406 10.037506 C 193.620514 9.919128 193.588837 9.822266 193.55191 9.822266 C 193.481537 9.822266 189.510635 15.497581 189.425156 15.720352 C 189.380173 15.837593 189.570877 15.848801 191.610229 15.848801 C 192.839111 15.848801 193.860214 15.822388 193.879333 15.7901 Z"/>
        <g id="g1">
            <path id="path1" fill="#ffffff" fill-rule="evenodd" stroke="none" d="M 94.874886 26.41877 L 119.715347 26.41877 L 119.715347 1.578186 L 94.874886 1.578186 Z"/>
            <path id="path2" fill="#ec6d2d" fill-rule="evenodd" stroke="none" d="M 93.266396 -0.031403 L 121.324989 -0.031403 L 121.324989 28.027199 L 93.266396 28.027199 Z M 94.874886 26.41877 L 119.715347 26.41877 L 119.715347 1.578186 L 94.874886 1.578186 Z"/>
            <path id="path3" fill="#e3b228" fill-rule="evenodd" stroke="none" d="M 118.358398 7.890732 L 118.350327 7.883804 L 118.349319 7.883804 C 118.179703 7.782272 117.921242 7.723419 117.748154 7.799576 C 116.64045 7.69342 115.582344 7.704956 114.461945 7.718811 L 114.383476 7.718811 C 113.822693 7.725739 113.24115 7.732666 112.660751 7.722275 L 107.964355 7.626511 C 106.801674 7.597931 105.638382 7.606018 104.476219 7.650742 C 103.600433 7.657669 102.748878 7.68074 101.882324 7.706131 C 100.979996 7.730377 98.824577 7.73613 97.536858 7.740753 C 97.172997 7.739853 96.809128 7.74176 96.445297 7.74649 C 96.292984 7.754562 96.108368 7.966873 96.104904 8.13649 C 96.103897 8.233414 96.159142 8.341873 96.321831 8.358017 C 96.442993 8.369553 97.221855 8.374161 98.637642 8.369553 L 100.083443 8.36377 C 100.467682 8.362762 100.64653 8.368378 100.729607 8.359161 L 100.739998 8.359161 C 101.802704 8.251862 102.870041 8.257629 103.901588 8.264557 L 103.981209 8.264557 C 104.6493 8.268021 105.340469 8.271484 106.035095 8.243774 C 106.179329 8.277222 106.331635 8.246124 106.47818 8.216064 L 106.500107 8.212601 C 106.565872 8.199936 106.633949 8.18721 106.69857 8.181473 C 106.856644 8.227615 107.037811 8.225311 107.228195 8.220703 C 107.412811 8.216095 107.599739 8.213776 107.770508 8.253006 L 107.771515 8.257614 L 107.800369 8.256607 L 107.801376 8.253143 C 107.951378 8.202377 108.08754 8.228897 108.232925 8.256607 C 108.306679 8.272888 108.381477 8.284073 108.456779 8.29007 C 109.798721 8.253143 111.2826 8.300461 113.134552 8.442368 L 114.010338 8.536987 L 114.010338 8.537994 L 114.019554 8.537994 C 114.798416 8.461838 115.602661 8.520676 116.380363 8.578369 C 116.386902 8.578613 116.39344 8.578949 116.399971 8.579391 C 116.984978 8.62207 117.537682 8.66246 118.086922 8.650909 L 118.090385 8.656708 L 118.122696 8.645172 L 118.121689 8.638245 L 118.412468 8.406326 L 118.413475 8.407333 L 118.426186 8.392334 L 118.425179 8.391327 C 118.522484 8.229248 118.494705 8.021408 118.358253 7.890564 Z"/>
            <path id="path4" fill="#006a32" fill-rule="evenodd" stroke="none" d="M 110.589409 17.866661 L 110.613647 17.851662 L 110.613647 17.793968 L 110.592873 15.966324 L 110.592873 15.961716 L 110.591858 15.957115 C 110.562561 15.657608 110.547165 15.356911 110.5457 15.055977 C 110.537628 14.694832 110.529564 14.319839 110.481094 13.987541 C 110.471848 13.514473 110.377235 13.005638 110.286087 12.515266 L 110.226089 12.181808 L 110.220299 12.149498 L 110.197235 12.126427 C 110.124542 12.053741 110.099159 11.960281 110.071465 11.854126 C 110.047218 11.76413 110.023003 11.672974 109.967613 11.585289 C 109.845306 11.36145 109.651459 11.144531 109.479523 10.952988 L 109.470314 10.943787 C 109.42762 10.884933 109.378006 10.854935 109.334152 10.826096 C 109.308769 10.809952 109.284538 10.794922 109.258003 10.771866 L 109.218773 10.738403 L 109.194527 10.744202 L 109.163391 10.718811 C 109.008766 10.595352 108.86454 10.54805 108.697227 10.492661 L 108.693764 10.491653 C 108.645309 10.422424 108.552994 10.412033 108.490677 10.410889 L 108.490677 10.365891 L 108.404137 10.352036 L 107.996826 10.290878 L 107.936829 10.281631 L 107.899902 10.331253 C 107.884911 10.350845 107.881447 10.355484 107.796059 10.324326 C 107.754517 10.307907 107.711113 10.296661 107.666817 10.290863 L 107.619514 10.286255 L 107.595268 10.309326 C 107.580849 10.298569 107.565384 10.289291 107.549118 10.281616 L 107.380653 10.23085 L 107.366798 10.309311 C 107.299599 10.306793 107.232872 10.321487 107.172951 10.352005 L 106.905258 10.352005 L 106.656021 10.353012 L 106.684868 10.447617 L 106.68026 10.452225 C 106.570641 10.42453 106.487564 10.491455 106.440262 10.529541 L 106.417191 10.549133 C 106.328346 10.564133 106.278725 10.601059 106.242958 10.627594 C 106.216423 10.647202 106.208336 10.654129 106.184113 10.655304 L 106.14257 10.659912 L 106.116035 10.692215 C 106.050705 10.745499 105.97702 10.787598 105.897957 10.816833 L 105.760651 10.877991 L 105.790642 10.906845 C 105.766785 10.917206 105.744926 10.931656 105.726028 10.949524 L 105.59333 10.949524 L 105.59333 11.053368 L 105.578331 11.051018 L 105.504486 11.019882 C 105.498734 11.017532 105.450256 11.083336 105.450256 11.083336 C 105.369484 11.196419 105.264488 11.307182 105.153709 11.424866 C 105.024475 11.56218 104.889473 11.705246 104.787933 11.859863 L 104.756798 11.906013 L 104.776405 11.952164 C 104.752159 11.967163 104.689857 12.006393 104.678322 12.08139 C 104.638321 12.131775 104.613861 12.192719 104.607933 12.256775 C 104.605576 12.271767 104.603325 12.292542 104.598686 12.301773 C 104.55658 12.353561 104.53051 12.416527 104.523689 12.482918 C 104.516762 12.520996 104.513298 12.542923 104.497154 12.562538 L 104.431389 12.645615 L 104.460236 12.667542 C 104.440636 12.717148 104.440636 12.769073 104.439453 12.800224 C 104.439453 12.814079 104.439453 12.830215 104.437103 12.841759 L 104.394409 12.868294 L 104.403618 12.934059 C 104.422081 13.063286 104.404633 13.182129 104.388626 13.307899 C 104.36676 13.434341 104.360176 13.56295 104.369026 13.690964 C 104.319405 13.76712 104.330948 13.858269 104.339027 13.913658 C 104.342491 13.933258 104.345955 13.959808 104.34481 13.972496 L 104.279045 14.02327 L 104.326355 14.100571 C 104.362122 14.159416 104.333275 14.254028 104.306747 14.34288 C 104.281357 14.429413 104.251358 14.535568 104.282501 14.627869 C 104.252716 14.651825 104.236725 14.688988 104.239815 14.727097 C 104.239815 14.797478 104.234032 14.819405 104.230598 14.82402 L 104.182137 14.924408 L 104.175209 14.963631 L 104.262901 15.02478 C 104.255219 15.078453 104.256393 15.133026 104.266365 15.186317 C 104.276756 15.253242 104.279045 15.28093 104.259438 15.307465 L 104.204048 15.405548 L 104.258286 15.470154 L 104.258286 15.488617 C 104.255928 15.532463 104.250214 15.612076 104.306747 15.670921 C 104.307755 15.682449 104.310211 15.692841 104.313675 15.703232 L 104.214439 15.728615 L 104.27906 15.865921 L 104.272133 15.900536 C 104.262917 15.940918 104.244453 16.021683 104.28598 16.092072 C 104.254845 16.172836 104.274452 16.251297 104.286987 16.303215 C 104.290451 16.318214 104.296242 16.337837 104.297379 16.351677 C 104.202759 16.450905 104.248917 16.581291 104.274315 16.651672 C 104.230469 16.718597 104.24086 16.79821 104.250076 16.846664 L 104.123146 16.889359 L 104.25238 17.020897 C 104.243942 17.054649 104.249336 17.09037 104.26738 17.120125 C 104.282379 17.144363 104.301994 17.158195 104.321609 17.167427 L 104.282379 17.180145 L 104.286987 17.192818 L 104.286987 17.193825 L 104.333138 17.311516 L 104.330788 17.325363 C 104.320663 17.391624 104.335022 17.459305 104.371178 17.515747 C 104.357872 17.531601 104.350525 17.55159 104.350395 17.572281 L 104.299629 17.623055 L 104.348083 17.693436 C 104.386169 17.748817 104.37233 17.820358 104.34462 17.933426 C 104.319237 18.032661 104.288086 18.158424 104.345634 18.266884 L 104.274094 18.337265 L 104.364098 18.40303 C 104.362259 18.407867 104.35994 18.412514 104.35717 18.416885 C 104.334106 18.459579 104.292549 18.53804 104.344498 18.624573 L 104.33989 18.614189 C 104.358345 18.654572 104.350273 18.722649 104.340889 18.79303 C 104.329361 18.895721 104.314369 19.020332 104.368607 19.143784 L 104.351288 19.26725 L 104.354752 19.252251 C 104.343071 19.292358 104.347618 19.335457 104.367424 19.372246 L 104.328194 19.390701 L 104.355904 19.476089 C 104.38102 19.579865 104.390739 19.686775 104.38475 19.793388 C 104.38475 20.012611 104.385757 20.262993 104.584366 20.453377 L 104.627068 20.493759 L 104.683601 20.47644 C 104.832451 20.432594 104.839378 20.284904 104.843987 20.205292 C 104.843987 20.187973 104.845001 20.171837 104.84745 20.159134 L 104.849808 20.137215 L 104.844025 20.115288 C 104.784027 19.913376 104.80941 19.649147 104.832489 19.416077 L 104.848633 19.238396 L 104.85099 19.210686 L 104.83831 19.185295 C 104.797928 19.10453 104.808311 19.023766 104.818703 18.930305 C 104.83564 18.838799 104.832489 18.744713 104.809486 18.654549 C 104.842949 18.227631 104.823349 17.719948 104.804886 17.274574 C 104.799133 17.08535 104.791031 16.906509 104.787575 16.740356 L 104.787575 16.73114 C 104.767136 16.512917 104.762894 16.293472 104.774895 16.074615 C 104.780678 15.877319 104.78643 15.67424 104.769112 15.48732 C 104.816414 15.273865 104.81411 15.078873 104.809486 14.872337 C 104.808487 14.778885 104.80603 14.681953 104.809486 14.581573 L 104.810501 14.55619 L 104.803574 14.54351 C 104.849731 14.486977 104.860115 14.429291 104.837029 14.373901 C 104.854263 14.302086 104.863167 14.228531 104.863564 14.154678 C 104.862755 14.103943 104.867393 14.053268 104.877419 14.003525 L 104.883202 13.979286 L 104.876274 13.955048 C 104.863594 13.910042 104.876274 13.858116 104.888977 13.802742 C 104.912086 13.729683 104.913284 13.651466 104.892441 13.577744 C 104.973221 13.417366 104.989372 13.221214 105.006676 13.029678 L 105.012459 12.963913 C 105.019386 12.922371 105.004387 12.883141 104.970917 12.848526 L 104.970917 12.842743 C 104.970917 12.758514 105.014763 12.690445 105.069 12.603905 C 105.143845 12.501038 105.193626 12.382111 105.214386 12.256599 L 105.216736 12.232361 L 105.215736 12.226578 L 105.2388 12.205803 C 105.275719 12.175804 105.33226 12.127335 105.331108 12.051186 C 105.33107 12.037437 105.32872 12.023781 105.324181 12.010803 C 105.385475 11.951851 105.437256 11.883728 105.477646 11.808884 C 105.535339 11.71312 105.576874 11.642731 105.689957 11.610428 L 105.745346 11.594292 L 105.760345 11.537758 C 105.776482 11.475449 105.830727 11.439674 105.918419 11.385452 C 105.991562 11.345154 106.056839 11.291992 106.111115 11.228531 C 106.183807 11.234306 106.228813 11.214676 106.254196 11.185837 C 106.333435 11.162895 106.406425 11.122261 106.467667 11.066994 C 106.561127 10.992004 106.591125 10.975845 106.655739 11.003532 L 106.72036 11.033524 L 106.760742 10.993134 L 106.768814 10.990784 C 106.797661 10.982712 106.849579 10.968872 106.879585 10.921555 C 106.904243 10.915756 106.92852 10.908417 106.952278 10.899628 C 107.005356 10.880035 107.018051 10.87886 107.035355 10.888107 C 107.063972 10.905823 107.098663 10.910843 107.131126 10.901947 L 107.13459 10.910019 L 107.208435 10.900772 L 107.306519 10.888107 C 107.599602 10.850021 107.853455 10.817719 108.081917 10.940018 L 108.163841 10.985016 L 108.212303 10.911179 L 108.243446 10.944641 C 108.302292 11.010399 108.404984 11.123474 108.553833 11.098091 C 108.586151 11.125793 108.62307 11.148857 108.655373 11.16732 L 108.698067 11.193848 L 108.698067 11.198456 L 108.717667 11.224983 C 108.763824 11.287285 108.8619 11.316139 108.941521 11.319603 C 109.113449 11.500748 109.287682 11.747665 109.287682 11.856125 L 109.287682 11.957664 L 109.362686 11.957664 L 109.365036 11.96344 C 109.392746 12.09729 109.431961 12.263435 109.535812 12.371895 C 109.505814 12.439972 109.532349 12.523048 109.54274 12.557663 L 109.553123 12.594582 L 109.52774 12.670738 L 109.594666 12.738815 L 109.609657 12.74688 C 109.606194 12.817261 109.637367 12.881874 109.659279 12.928032 C 109.665741 12.940788 109.671516 12.953888 109.67659 12.967262 L 109.660454 13.004181 C 109.569298 13.178406 109.691589 13.27533 109.750458 13.32148 C 109.758186 13.32711 109.765511 13.333275 109.772377 13.339943 C 109.726219 13.374557 109.728531 13.411484 109.720459 13.473785 L 109.727379 13.549942 L 109.758553 13.600708 L 109.76091 13.600708 L 109.764374 13.611099 C 109.76783 13.626091 109.775902 13.646866 109.788612 13.669937 L 109.753998 13.703392 L 109.729752 13.794548 L 109.780525 13.868393 L 109.819756 13.888 C 109.820511 13.923828 109.82959 13.958977 109.846291 13.990685 L 109.852074 14.005684 L 109.842857 14.050682 C 109.809402 14.217987 109.766701 14.433746 109.870567 14.606827 L 109.86132 14.616035 C 109.812859 14.679497 109.825554 14.753342 109.833649 14.807571 C 109.835999 14.82489 109.841713 14.85257 109.838249 14.861801 L 109.812866 14.966797 C 109.812866 14.971405 109.846321 14.980652 109.876328 14.986404 C 109.872864 14.997932 109.868256 15.007179 109.865936 15.018715 L 109.844017 15.13871 L 109.884407 15.13871 C 109.87748 15.180252 109.876335 15.218323 109.875153 15.254097 C 109.874146 15.315247 109.871689 15.354469 109.84977 15.38678 L 109.841698 15.400635 L 109.837097 15.416771 C 109.807098 15.527534 109.847481 15.631386 109.879784 15.714455 L 109.898247 15.75946 C 109.875587 15.782822 109.863853 15.814667 109.865936 15.847145 C 109.865936 15.856392 109.870544 15.863281 109.872856 15.871391 L 109.849792 15.894455 L 109.8694 15.9533 C 109.880928 15.987915 109.900566 16.008682 109.925934 16.02137 L 109.908615 16.025978 C 109.905151 16.026993 109.905151 16.105598 109.905151 16.105598 L 109.905151 16.133301 L 109.84169 16.151756 L 109.874001 16.218681 C 109.851082 16.256012 109.845215 16.301353 109.857864 16.343292 L 109.814018 16.421753 C 109.816368 16.419403 109.820946 16.467903 109.860168 16.486366 C 109.819786 16.625984 109.921333 16.727516 109.980171 16.788666 C 109.999329 16.806496 110.017075 16.82579 110.033249 16.846359 L 109.982483 16.846359 L 110.020561 16.977898 L 110.021568 16.981361 L 109.995041 17.009064 L 109.911957 17.050598 L 109.938484 17.163673 L 109.93042 17.190201 C 109.910812 17.250198 109.925812 17.289429 109.943123 17.313667 C 109.946594 17.319443 109.951195 17.321732 109.955803 17.325195 C 109.915489 17.362221 109.890053 17.412682 109.884262 17.467117 L 109.875023 17.562881 L 109.952332 17.574417 C 109.945648 17.594139 109.939873 17.614166 109.935013 17.634415 C 109.924622 17.670181 109.91655 17.70134 109.899239 17.725563 L 109.900253 17.726578 L 109.893326 17.738106 L 110.02948 17.814262 C 110.01281 17.845802 109.999649 17.879074 109.99025 17.91349 L 109.976402 17.955025 L 109.966011 17.955025 L 109.851776 17.956032 L 109.858696 18.08757 C 109.864883 18.110588 109.868744 18.134163 109.870232 18.157951 C 109.872986 18.185165 109.877609 18.212151 109.884087 18.238724 L 109.884087 18.370262 C 109.884087 18.387573 109.884087 18.41526 109.88987 18.444099 L 109.87487 18.452171 L 109.885262 18.524864 C 109.891052 18.561783 109.887619 18.597549 109.885262 18.634476 C 109.884254 18.656403 109.881798 18.679474 109.881798 18.703705 L 109.78949 18.752167 L 109.902573 18.875626 L 109.901558 18.880234 C 109.88401 18.917488 109.874191 18.957916 109.872711 18.999077 L 109.791946 18.999077 L 109.929253 19.166374 C 109.940788 19.181374 109.95118 19.2183 109.959244 19.245995 L 109.961594 19.256378 C 109.90506 19.309456 109.895828 19.390228 109.892365 19.434074 C 109.890015 19.453674 109.887756 19.482529 109.883118 19.489449 L 109.885475 19.487099 L 109.920097 19.533249 C 109.898094 19.549614 109.880295 19.570969 109.868164 19.595558 C 109.855568 19.625809 109.85157 19.658951 109.856628 19.691322 L 109.723938 19.691322 L 109.833549 19.800934 L 109.730858 19.834396 L 109.816238 19.905922 L 109.816238 20.17823 C 109.816238 20.227844 109.840492 20.269379 109.880867 20.290154 C 109.883369 20.291451 109.886116 20.292252 109.888931 20.292503 C 109.937279 20.322166 109.99575 20.330521 110.050468 20.315567 L 110.050468 20.428642 L 110.182014 20.389412 C 110.260277 20.362556 110.3442 20.356583 110.425484 20.372093 L 110.533943 20.395164 L 110.547798 20.285545 C 110.600876 19.87825 110.590492 19.484795 110.580116 19.104034 C 110.5709 18.733658 110.561653 18.380592 110.608963 18.036751 C 110.629768 17.979935 110.622505 17.916618 110.589363 17.86599 Z"/>
            <path id="path5" fill="#295493" fill-rule="evenodd" stroke="none" d="M 102.796188 17.866661 L 102.820427 17.851662 L 102.799652 15.966324 L 102.799652 15.961716 L 102.798637 15.957115 C 102.769348 15.657608 102.753944 15.356911 102.752487 15.055977 C 102.744415 14.694832 102.736343 14.319839 102.686714 13.987541 C 102.678642 13.514473 102.584023 13.005638 102.492867 12.515266 L 102.432869 12.181808 L 102.427086 12.149498 L 102.404015 12.126427 C 102.33017 12.053741 102.305939 11.960281 102.278244 11.854126 C 102.254005 11.76413 102.229782 11.672974 102.173241 11.585289 C 102.052086 11.36145 101.857086 11.144531 101.685158 10.952988 L 101.677086 10.943787 C 101.634392 10.884933 101.583618 10.854935 101.539772 10.826096 C 101.514389 10.809952 101.490158 10.794922 101.463623 10.771866 L 101.424385 10.738403 L 101.400139 10.744202 L 101.369003 10.718811 C 101.214386 10.595352 101.070152 10.54805 100.902847 10.492661 L 100.899384 10.491653 C 100.850922 10.422424 100.759766 10.412033 100.696297 10.410889 L 100.696297 10.365891 L 100.609756 10.352036 L 100.202446 10.290878 L 100.142448 10.281631 L 100.105522 10.331253 C 100.090523 10.350845 100.087059 10.355484 100.001671 10.324326 C 99.96244 10.310471 99.920898 10.295471 99.873596 10.290863 L 99.825127 10.286255 L 99.802063 10.309326 C 99.787224 10.298584 99.771378 10.289322 99.754753 10.281616 L 99.586288 10.23085 L 99.572433 10.309311 C 99.505234 10.306686 99.438477 10.321396 99.378586 10.352005 L 99.110893 10.352005 L 98.860497 10.353012 L 98.890495 10.447617 L 98.885887 10.452225 C 98.776276 10.42453 98.693199 10.491455 98.647041 10.529541 C 98.638969 10.536469 98.629715 10.54567 98.622795 10.549133 C 98.558945 10.559906 98.498947 10.586929 98.448563 10.627594 C 98.422028 10.647202 98.41394 10.654129 98.389709 10.655304 L 98.348175 10.659912 L 98.32164 10.692215 C 98.25631 10.745499 98.182625 10.787598 98.103561 10.816833 L 97.966248 10.877991 L 97.996246 10.906845 C 97.972176 10.91745 97.949966 10.93187 97.930473 10.949524 L 97.798927 10.949524 L 97.798927 11.053368 C 97.793839 11.053421 97.788773 11.05262 97.783936 11.051018 L 97.708939 11.019882 C 97.689034 11.039085 97.671234 11.060356 97.655853 11.083336 C 97.575089 11.196419 97.470085 11.307182 97.359314 11.424866 C 97.23008 11.56218 97.09507 11.705246 96.993538 11.859863 L 96.962395 11.906013 L 96.983177 11.952164 C 96.958931 11.967163 96.895485 12.006393 96.885094 12.08139 C 96.83548 12.135628 96.823944 12.208313 96.815865 12.256775 C 96.813927 12.27198 96.810852 12.287025 96.806656 12.301773 C 96.765526 12.354149 96.739586 12.416809 96.731651 12.482918 C 96.724724 12.520996 96.72126 12.542923 96.705116 12.562538 L 96.639351 12.645615 L 96.669342 12.667542 C 96.648567 12.717148 96.648567 12.769073 96.648567 12.800224 C 96.648422 12.814095 96.647636 12.827957 96.64621 12.841759 L 96.602364 12.868294 L 96.611572 12.934059 C 96.630035 13.063286 96.61393 13.182129 96.596581 13.307899 C 96.575287 13.43441 96.56871 13.56295 96.576973 13.690964 C 96.527359 13.76712 96.538902 13.858269 96.548126 13.913658 C 96.55159 13.933258 96.555054 13.959808 96.553909 13.972496 L 96.488136 14.02327 L 96.534294 14.100571 C 96.570061 14.159416 96.541214 14.254028 96.514687 14.34288 C 96.49044 14.429413 96.460457 14.535568 96.491623 14.627869 C 96.461197 14.651268 96.445396 14.689003 96.450089 14.727097 C 96.450089 14.797478 96.443161 14.819405 96.439697 14.82402 L 96.391235 14.924408 L 96.383163 14.963631 L 96.470863 15.02478 C 96.464104 15.078545 96.46566 15.133026 96.475464 15.186317 C 96.485855 15.253242 96.488136 15.28093 96.468544 15.307465 L 96.413155 15.405548 L 96.468544 15.470154 L 96.467529 15.488617 C 96.465172 15.532463 96.461746 15.612076 96.515991 15.670921 C 96.516998 15.682449 96.519455 15.692841 96.522919 15.703232 L 96.423691 15.728615 L 96.488304 15.865921 L 96.481377 15.900536 C 96.470985 15.940918 96.45253 16.021683 96.494049 16.092072 C 96.472771 16.160896 96.473114 16.234596 96.495064 16.303215 C 96.498528 16.318214 96.504311 16.337837 96.505455 16.351677 C 96.411987 16.450905 96.456993 16.581291 96.482384 16.651672 C 96.438538 16.718597 96.448929 16.79821 96.458138 16.846664 L 96.331215 16.889359 L 96.461601 17.020897 C 96.453156 17.054649 96.458565 17.09037 96.476601 17.120125 C 96.489235 17.14122 96.508217 17.157776 96.53083 17.167427 L 96.49044 17.180145 L 96.496223 17.192818 L 96.496223 17.193825 L 96.542381 17.311516 L 96.541374 17.325363 C 96.531433 17.391472 96.545341 17.458954 96.580605 17.515747 C 96.56778 17.531868 96.560493 17.551697 96.55983 17.572281 L 96.509056 17.623055 L 96.55867 17.693436 C 96.596748 17.748817 96.581741 17.820358 96.554062 17.933426 C 96.528679 18.032661 96.49752 18.158424 96.556419 18.266884 L 96.484879 18.337265 L 96.574883 18.40303 L 96.567963 18.416885 C 96.544891 18.459579 96.503342 18.53804 96.556427 18.624573 L 96.550644 18.614189 C 96.569099 18.654572 96.562172 18.722649 96.552994 18.79303 C 96.528984 18.910225 96.538589 19.031815 96.580696 19.143784 L 96.562241 19.26725 L 96.565704 19.252251 C 96.554832 19.29232 96.558937 19.334984 96.577232 19.372246 L 96.53801 19.390701 L 96.56572 19.476089 C 96.591248 19.579803 96.601357 19.686722 96.595703 19.793388 C 96.596718 20.012611 96.596718 20.262993 96.796478 20.453377 L 96.839172 20.493759 L 96.895714 20.47644 C 97.044563 20.432594 97.051483 20.284904 97.056099 20.205292 C 97.056099 20.187973 97.056099 20.171837 97.058456 20.159134 L 97.060806 20.137215 L 97.055023 20.115288 C 96.995026 19.913376 97.020409 19.649147 97.042351 19.416077 C 97.048134 19.352615 97.053886 19.29493 97.057343 19.238396 L 97.0597 19.210686 L 97.04702 19.185295 C 97.006638 19.10453 97.017029 19.023766 97.02742 18.930305 C 97.044907 18.838844 97.041748 18.744629 97.018173 18.654549 C 97.051628 18.227631 97.032028 17.719948 97.013565 17.274574 C 97.006638 17.08535 96.998566 16.906509 96.996246 16.740356 L 96.996246 16.73114 C 96.970863 16.518837 96.977791 16.293846 96.983543 16.074615 C 96.989326 15.877319 96.995071 15.67424 96.977753 15.48732 C 97.023911 15.273865 97.021599 15.078873 97.018143 14.872337 C 97.017128 14.778885 97.014679 14.681953 97.018143 14.581573 L 97.01915 14.55619 L 97.012222 14.54351 C 97.05722 14.486977 97.068764 14.429291 97.044533 14.373901 C 97.06646 14.296593 97.068779 14.220444 97.071068 14.154678 C 97.073418 14.101601 97.074532 14.050835 97.08606 14.003525 L 97.091843 13.979286 L 97.084923 13.955048 C 97.076447 13.904091 97.080399 13.851837 97.096451 13.802742 C 97.120621 13.729919 97.122231 13.651489 97.101059 13.577744 C 97.180679 13.417366 97.197983 13.221214 97.214142 13.029678 L 97.219925 12.963913 C 97.225838 12.921188 97.210808 12.878235 97.179543 12.848526 L 97.179543 12.842743 C 97.179543 12.758514 97.222237 12.690445 97.277618 12.603905 C 97.352547 12.501205 97.401985 12.382164 97.421852 12.256599 L 97.425316 12.232361 L 97.422966 12.226578 L 97.44603 12.205803 C 97.482956 12.175804 97.539497 12.127335 97.538338 12.051186 C 97.53772 12.037491 97.535393 12.023926 97.53141 12.010803 C 97.602951 11.947342 97.645645 11.874657 97.684875 11.808884 C 97.741417 11.71312 97.782959 11.642731 97.897186 11.610428 L 97.952576 11.594292 L 97.967575 11.537758 C 97.983711 11.475449 98.039108 11.439674 98.126808 11.385452 C 98.199783 11.345406 98.264725 11.292198 98.318352 11.228531 C 98.391037 11.234306 98.436043 11.214676 98.462578 11.185837 C 98.541817 11.162895 98.614807 11.122261 98.676041 11.066994 C 98.769508 10.992004 98.799507 10.975845 98.864128 11.003532 L 98.928741 11.033524 L 98.969131 10.993134 C 98.972305 10.992783 98.97541 10.991989 98.978371 10.990784 C 99.007225 10.982712 99.056831 10.968872 99.08799 10.921555 C 99.1157 10.915771 99.141068 10.906555 99.161842 10.899628 C 99.21376 10.880035 99.226456 10.87886 99.243759 10.888107 C 99.272377 10.905823 99.307068 10.910843 99.339531 10.901947 L 99.341888 10.910019 L 99.416893 10.900772 L 99.516121 10.888107 C 99.808044 10.850021 100.061897 10.817719 100.290367 10.940018 L 100.372284 10.985016 L 100.420753 10.911179 C 100.431381 10.921753 100.441391 10.932922 100.450745 10.944641 C 100.50959 11.010399 100.612289 11.123474 100.762291 11.098091 C 100.794609 11.125793 100.83152 11.148857 100.863831 11.16732 L 100.906525 11.193848 L 100.906525 11.198456 L 100.927299 11.224983 C 100.973457 11.287285 101.071541 11.316139 101.149994 11.319603 C 101.321922 11.500748 101.496162 11.747665 101.496162 11.856125 L 101.496162 11.957664 L 101.572319 11.957664 L 101.573326 11.96344 C 101.602173 12.09729 101.641403 12.263435 101.744095 12.371895 C 101.71524 12.439972 101.740631 12.523048 101.751022 12.557663 L 101.761414 12.594582 L 101.736031 12.670738 L 101.802948 12.738815 L 101.817947 12.74688 C 101.814484 12.817261 101.84565 12.881874 101.867561 12.928032 L 101.886024 12.967262 L 101.868706 13.004181 C 101.77755 13.178406 101.899879 13.27533 101.95871 13.32148 L 101.980629 13.339943 C 101.934479 13.374557 101.936783 13.411484 101.927559 13.473785 L 101.935623 13.549942 L 101.966766 13.600708 L 101.969116 13.600708 L 101.97258 13.611099 C 101.977188 13.626091 101.984116 13.646866 101.996826 13.669937 L 101.962204 13.703392 L 101.937965 13.794548 L 101.988731 13.868393 L 102.031425 13.884537 C 102.030418 13.926071 102.047569 13.961838 102.057961 13.987221 L 102.063736 14.00222 L 102.054497 14.047218 C 102.021034 14.214523 101.97834 14.43029 102.082199 14.603363 L 102.074127 14.612572 C 102.025673 14.676033 102.038361 14.749878 102.0476 14.804108 C 102.04995 14.821426 102.054527 14.849106 102.052208 14.858337 L 102.025681 14.963333 C 102.025681 14.967941 102.059135 14.977188 102.089142 14.982941 C 102.085678 14.994469 102.08107 15.003716 102.078751 15.015251 L 102.056831 15.135246 L 102.098366 15.135246 C 102.091438 15.176788 102.090294 15.214859 102.089149 15.250633 C 102.08815 15.311783 102.085686 15.351006 102.063766 15.383324 L 102.055702 15.397171 L 102.051094 15.413345 C 102.021095 15.524117 102.061485 15.627953 102.09494 15.711029 L 102.112259 15.756027 C 102.089966 15.779617 102.078285 15.81131 102.079941 15.843719 C 102.079941 15.852936 102.084549 15.859863 102.085724 15.867966 L 102.063805 15.891029 L 102.083405 15.949875 C 102.093796 15.984489 102.114578 16.005257 102.139946 16.017952 L 102.122627 16.02256 C 102.119164 16.023567 102.119164 16.102173 102.119164 16.102173 L 102.119164 16.129875 L 102.05455 16.146019 L 102.086861 16.212936 C 102.063942 16.250275 102.058067 16.295616 102.070724 16.337555 L 102.026878 16.416008 C 102.027885 16.413658 102.034943 16.462166 102.074188 16.480621 C 102.033798 16.620232 102.134186 16.721771 102.194183 16.782928 C 102.213646 16.800453 102.231415 16.819763 102.247261 16.840614 L 102.196495 16.840614 L 102.234573 16.972153 L 102.23558 16.975616 C 102.225876 16.983994 102.216995 16.993263 102.209053 17.003319 L 102.124825 17.044861 L 102.151352 17.157936 L 102.14328 17.184464 C 102.12368 17.244461 102.139816 17.283691 102.15596 17.307922 C 102.159424 17.313705 102.164024 17.315994 102.168633 17.319458 C 102.127876 17.356148 102.102348 17.406792 102.097092 17.46138 L 102.087883 17.557144 L 102.166336 17.56868 C 102.159416 17.589455 102.152489 17.609062 102.147881 17.628677 C 102.137489 17.664444 102.129417 17.695595 102.113258 17.719826 L 102.114273 17.720833 L 102.107346 17.732368 L 102.2435 17.808517 C 102.225044 17.844284 102.213509 17.880058 102.204269 17.907745 C 102.201225 17.922073 102.196579 17.936005 102.190414 17.94928 L 102.180031 17.94928 L 102.065796 17.950294 L 102.072723 18.081833 C 102.078903 18.104843 102.082771 18.128426 102.084259 18.152214 C 102.086578 18.179405 102.090813 18.20639 102.096939 18.232979 L 102.096939 18.36451 C 102.096939 18.381836 102.096939 18.409515 102.102715 18.438362 L 102.086548 18.446426 L 102.096939 18.519119 C 102.10154 18.556038 102.099289 18.591812 102.096939 18.628731 C 102.095924 18.65065 102.093475 18.673729 102.093475 18.69796 L 102.001167 18.746422 L 102.114243 18.869881 C 102.095268 18.908379 102.084648 18.950455 102.083069 18.99334 L 102.002304 18.99334 L 102.13961 19.160645 C 102.151146 19.175644 102.161537 19.21257 102.169609 19.240257 L 102.171959 19.250648 C 102.11657 19.303726 102.107338 19.384491 102.10273 19.428337 C 102.100372 19.447937 102.098122 19.476791 102.092339 19.483719 L 102.094696 19.481369 L 102.129311 19.527512 C 102.107307 19.543884 102.089516 19.565231 102.077385 19.589828 C 102.064224 19.619919 102.060211 19.653229 102.065857 19.685593 L 101.933159 19.685593 L 102.04277 19.795204 L 101.940079 19.828659 L 102.025467 19.9002 L 102.025467 20.172501 C 102.025467 20.222115 102.049706 20.263649 102.088928 20.284416 L 102.097 20.286766 C 102.145348 20.316437 102.203819 20.324783 102.258537 20.309837 L 102.258537 20.422905 L 102.388924 20.383682 C 102.467583 20.356773 102.551888 20.350807 102.633545 20.366364 L 102.742012 20.389435 L 102.755859 20.279816 C 102.808937 19.87252 102.798553 19.479065 102.788177 19.098305 C 102.777786 18.727928 102.76857 18.374855 102.81588 18.031021 C 102.847054 17.961792 102.81588 17.899483 102.79628 17.86602 Z"/>
            <path id="path6" fill="#ec6d2d" fill-rule="evenodd" stroke="none" d="M 118.246475 18.006271 L 118.270714 17.990097 L 118.270714 17.933571 L 118.249931 16.105911 L 118.249931 16.093239 C 118.219589 15.794189 118.203796 15.493835 118.202621 15.193253 C 118.194557 14.832108 118.186485 14.457123 118.138008 14.127129 C 118.128761 13.651756 118.034164 13.144073 117.94416 12.65255 L 117.883003 12.31794 L 117.878395 12.287941 L 117.855331 12.263702 C 117.789459 12.186043 117.745979 12.091904 117.729553 11.991402 C 117.705315 11.901405 117.681099 11.809097 117.62571 11.721413 C 117.503403 11.498726 117.309555 11.280647 117.137619 11.089119 L 117.12838 11.078728 C 117.090828 11.031563 117.044617 10.992004 116.992218 10.962189 C 116.966835 10.94487 116.942604 10.93103 116.916061 10.907959 L 116.876831 10.874512 L 116.852585 10.880249 L 116.822594 10.854858 C 116.683388 10.749893 116.525047 10.67308 116.356438 10.628723 L 116.352974 10.627716 C 116.304504 10.558472 116.212196 10.548096 116.149887 10.545792 L 116.149887 10.501938 L 116.063347 10.488098 L 115.656036 10.428085 L 115.596039 10.418869 L 115.560265 10.467346 C 115.545265 10.488113 115.541801 10.491577 115.455254 10.461563 C 115.416031 10.447708 115.373337 10.431564 115.327187 10.428101 L 115.278717 10.423492 L 115.255653 10.446564 C 115.241081 10.43541 115.225197 10.426102 115.208344 10.418854 L 115.039879 10.368088 L 115.026024 10.446548 C 114.958878 10.44458 114.892288 10.459244 114.832176 10.489243 L 114.564476 10.489243 L 114.315247 10.49025 L 114.345238 10.586014 L 114.34063 10.590622 C 114.23101 10.562912 114.146782 10.629852 114.100624 10.667923 L 114.07756 10.686386 C 114.013519 10.697235 113.953445 10.724686 113.903328 10.766006 C 113.877937 10.785599 113.869865 10.791382 113.844475 10.793701 L 113.80294 10.797165 L 113.775261 10.830627 C 113.738342 10.875626 113.620644 10.926392 113.558334 10.955231 L 113.421028 11.015228 L 113.451019 11.045227 C 113.4272 11.055153 113.405327 11.069221 113.386406 11.086761 L 113.253708 11.086761 L 113.253708 11.191757 C 113.247925 11.191757 113.24218 11.19075 113.239853 11.188293 L 113.164856 11.158302 C 113.144615 11.177086 113.126434 11.197968 113.110619 11.220604 C 113.019936 11.341286 112.920837 11.455414 112.814079 11.562134 C 112.684845 11.700592 112.550995 11.842514 112.448303 11.995979 L 112.41713 12.04213 L 112.437912 12.089432 C 112.413666 12.104431 112.351372 12.143661 112.339836 12.218658 C 112.299805 12.269363 112.275711 12.330803 112.270599 12.395195 C 112.268761 12.410522 112.265274 12.425613 112.260208 12.440201 C 112.218369 12.491699 112.192314 12.554214 112.185211 12.620186 C 112.179459 12.659424 112.17482 12.680191 112.158676 12.700958 L 112.092911 12.782883 L 112.121758 12.80481 C 112.10215 12.854416 112.10215 12.906342 112.100975 12.937492 C 112.100975 12.951347 112.100975 12.968628 112.098625 12.979027 L 112.055931 13.005562 L 112.065147 13.072479 C 112.084747 13.199402 112.067497 13.319397 112.050148 13.445168 C 112.028221 13.571602 112.021645 13.700218 112.03054 13.828232 C 111.980927 13.904388 111.99247 13.994385 112.000549 14.050926 C 112.002907 14.070526 112.007477 14.097076 112.006332 14.10862 L 111.940567 14.160538 L 111.987869 14.236687 C 112.023643 14.296684 111.994797 14.390144 111.968269 14.4813 C 111.944023 14.566673 111.91288 14.672836 111.944023 14.763985 C 111.937096 14.770912 111.927879 14.778976 111.920959 14.788231 C 111.905968 14.810219 111.89904 14.836716 111.901352 14.86322 C 111.901352 14.934761 111.894424 14.955528 111.890961 14.961304 L 111.843658 15.061684 L 111.835587 15.100914 L 111.923279 15.162064 C 111.916565 15.215828 111.918114 15.270309 111.927887 15.323593 C 111.938278 15.390526 111.940567 15.418213 111.920959 15.444748 L 111.86673 15.542824 L 111.920959 15.607437 L 111.920959 15.624756 C 111.918602 15.668602 111.914032 15.749367 111.969429 15.808212 C 111.970428 15.819748 111.972893 15.831276 111.976349 15.839348 L 111.877121 15.864731 L 111.941734 16.003189 L 111.934807 16.036644 C 111.924416 16.078178 111.907097 16.157799 111.947479 16.22934 C 111.917496 16.308952 111.937096 16.388565 111.949837 16.440483 C 111.954445 16.455482 111.959053 16.475098 111.960228 16.488945 C 111.866768 16.587021 111.911758 16.718559 111.937157 16.787781 C 111.893318 16.854706 111.903709 16.934319 111.912918 16.98278 L 111.787148 17.026627 L 111.916382 17.158157 C 111.90863 17.191566 111.914001 17.226669 111.931374 17.256241 C 111.943947 17.277382 111.962952 17.293961 111.985611 17.303543 L 111.946381 17.316216 L 111.950989 17.33007 L 111.997139 17.448914 L 111.996132 17.461624 C 111.986191 17.527725 112.000099 17.595215 112.03537 17.652 C 112.022301 17.668434 112.014999 17.688705 112.014587 17.709694 L 111.963814 17.759308 L 112.012276 17.830841 C 112.051506 17.88623 112.036522 17.957764 112.007668 18.070839 C 111.983429 18.168915 111.953445 18.29583 112.011131 18.404289 L 111.939598 18.47583 L 112.028442 18.540443 L 112.021515 18.554298 C 111.998451 18.595833 111.956902 18.675446 112.009987 18.761978 L 112.005379 18.751595 C 112.023834 18.791977 112.01577 18.858894 112.006386 18.929276 C 111.99485 19.033127 111.979858 19.157738 112.034096 19.281197 L 112.016777 19.405807 L 112.020241 19.388496 C 112.008301 19.428581 112.012871 19.471779 112.032921 19.508492 L 111.992531 19.52581 L 112.020233 19.612343 C 112.045776 19.715675 112.055885 19.822212 112.050232 19.92849 C 112.051239 20.148872 112.051239 20.399254 112.249847 20.588478 L 112.292542 20.62886 L 112.350235 20.612724 C 112.497932 20.567726 112.506004 20.420036 112.51062 20.340424 C 112.510712 20.325394 112.511497 20.310379 112.512978 20.295425 L 112.515335 20.272354 L 112.509544 20.251579 C 112.449547 20.04966 112.47493 19.785439 112.496872 19.551216 L 112.513008 19.37352 L 112.515366 19.345818 L 112.502655 19.321571 C 112.462265 19.239647 112.472664 19.158882 112.483047 19.066574 C 112.500168 18.975029 112.49662 18.880814 112.472664 18.790817 C 112.506119 18.362747 112.486511 17.856216 112.4692 17.409691 C 112.461159 17.232079 112.455002 17.054375 112.450737 16.876625 L 112.450737 16.866241 C 112.43029 16.64801 112.426041 16.428574 112.438026 16.209717 C 112.44381 16.012413 112.449562 15.810493 112.432243 15.623581 C 112.479553 15.410118 112.476097 15.215118 112.472633 15.007439 C 112.470901 14.910522 112.470901 14.813583 112.472633 14.716675 L 112.47364 14.691284 L 112.466713 14.678612 C 112.512863 14.623222 112.524406 14.565536 112.500175 14.510155 C 112.517982 14.438057 112.526894 14.364044 112.526695 14.289772 C 112.526413 14.239441 112.531052 14.189201 112.54055 14.139778 L 112.546341 14.114388 L 112.539413 14.090149 C 112.531952 14.039078 112.536293 13.986977 112.552086 13.937843 C 112.575188 13.864792 112.576393 13.786575 112.55555 13.712845 C 112.63517 13.553619 112.652481 13.356323 112.669785 13.164787 L 112.674393 13.099014 C 112.680702 13.056252 112.665611 13.013123 112.634003 12.983635 L 112.634003 12.977852 C 112.634003 12.892471 112.677849 12.824394 112.732079 12.737854 C 112.807854 12.635513 112.857735 12.516357 112.877464 12.390564 L 112.880928 12.36631 L 112.878578 12.36171 C 112.885979 12.354469 112.893669 12.347534 112.901642 12.340927 C 112.939728 12.308617 112.99511 12.261314 112.99395 12.184013 C 112.994011 12.170624 112.991661 12.157333 112.987022 12.144783 C 113.058571 12.08017 113.101257 12.008629 113.141647 11.942856 C 113.199341 11.84594 113.240875 11.776711 113.353958 11.744408 L 113.40934 11.727089 L 113.424339 11.671707 C 113.440475 11.609398 113.495872 11.572472 113.583565 11.518242 C 113.656258 11.478264 113.721146 11.425491 113.775116 11.36248 C 113.848961 11.368233 113.893959 11.348625 113.919342 11.319794 C 113.99881 11.29657 114.072121 11.255974 114.133965 11.200943 C 114.22628 11.124794 114.257431 11.108643 114.322044 11.137489 L 114.385506 11.16748 L 114.425896 11.125938 C 114.429092 11.125694 114.432213 11.124901 114.435143 11.123589 C 114.479546 11.116302 114.519096 11.091324 114.544762 11.054359 C 114.569931 11.049065 114.594627 11.041733 114.618607 11.032433 C 114.670532 11.012833 114.68322 11.011658 114.701683 11.022041 C 114.720146 11.033577 114.754761 11.046288 114.796303 11.035896 L 114.799767 11.042824 L 114.873611 11.033577 L 114.972847 11.020897 C 115.26593 10.983978 115.519783 10.950516 115.748245 11.073975 L 115.83017 11.117821 L 115.878632 11.045128 L 115.909798 11.077446 C 115.968651 11.143204 116.071342 11.256287 116.220192 11.232056 C 116.252502 11.259758 116.289429 11.282822 116.321732 11.302437 L 116.364426 11.32782 L 116.364426 11.332428 L 116.385201 11.36013 C 116.431358 11.421288 116.529434 11.451286 116.607895 11.45359 C 116.779831 11.633591 116.954063 11.88166 116.954063 11.99012 L 116.954063 12.091652 L 117.030212 12.091652 L 117.031227 12.097435 C 117.058899 12.231285 117.098145 12.396278 117.200844 12.50589 C 117.173134 12.573967 117.19738 12.655884 117.208908 12.690506 L 117.219299 12.727425 L 117.193916 12.803574 L 117.260841 12.871651 L 117.275833 12.880898 C 117.27713 12.944244 117.294609 13.006203 117.326607 13.06089 L 117.343925 13.098969 L 117.327782 13.137047 C 117.235474 13.311272 117.358955 13.408195 117.416626 13.454346 L 117.439697 13.472809 C 117.394691 13.508575 117.395851 13.544342 117.387772 13.606651 L 117.394699 13.68396 L 117.425865 13.733566 L 117.428223 13.733566 L 117.431686 13.745102 C 117.437477 13.765587 117.445618 13.785332 117.455933 13.803947 L 117.420158 13.837402 L 117.397095 13.928558 L 117.447861 14.001251 L 117.488243 14.020851 C 117.487236 14.062386 117.503242 14.098152 117.513634 14.123543 C 117.515991 14.128151 117.518242 14.132751 117.519417 14.139679 L 117.51017 14.184677 C 117.475555 14.351982 117.434013 14.567749 117.53788 14.741974 L 117.528664 14.750046 C 117.481354 14.813499 117.492897 14.886192 117.502136 14.940422 C 117.504486 14.957741 117.509064 14.98658 117.506737 14.995804 L 117.481354 15.099655 C 117.480347 15.104256 117.514809 15.113503 117.543663 15.12043 C 117.540199 15.130821 117.535591 15.140038 117.534416 15.151604 L 117.511353 15.271591 L 117.552887 15.271591 C 117.545967 15.311981 117.544823 15.351212 117.543648 15.386978 C 117.542633 15.448128 117.540184 15.48851 117.519402 15.519669 L 117.504402 15.53466 L 117.499794 15.551979 C 117.469803 15.661591 117.510185 15.765434 117.543648 15.848511 L 117.560959 15.894661 C 117.538612 15.917747 117.526901 15.949112 117.528648 15.981201 C 117.529655 15.990448 117.533249 15.998512 117.535576 16.00544 L 117.513649 16.027367 L 117.533249 16.087364 C 117.542419 16.116608 117.562729 16.141068 117.58979 16.155441 L 117.572479 16.160049 C 117.569016 16.160049 117.569016 16.23851 117.569016 16.23851 L 117.569016 16.267357 L 117.504395 16.284668 L 117.536713 16.350441 C 117.520569 16.381607 117.50325 16.426598 117.520569 16.476212 L 117.476723 16.553513 C 117.47773 16.551163 117.48365 16.59967 117.522881 16.619278 C 117.482491 16.757736 117.582878 16.859276 117.642883 16.920433 C 117.662727 16.938423 117.680527 16.958542 117.695961 16.980431 L 117.645187 16.980431 L 117.683266 17.109657 L 117.684273 17.113121 C 117.675026 17.121193 117.666954 17.131584 117.65889 17.140823 L 117.575806 17.183517 L 117.602333 17.296593 L 117.594269 17.32312 C 117.574661 17.381966 117.590805 17.422348 117.606941 17.445427 C 117.610405 17.45121 117.615013 17.453499 117.619621 17.456963 C 117.5793 17.493988 117.553871 17.544449 117.54808 17.598885 L 117.538834 17.694649 L 117.617302 17.706184 C 117.610939 17.72612 117.60479 17.746117 117.598839 17.766182 C 117.589592 17.801949 117.58152 17.834259 117.564224 17.858482 L 117.565239 17.858482 L 117.557167 17.871193 L 117.693321 17.947342 C 117.67746 17.979118 117.664711 18.012344 117.655243 18.04657 L 117.640244 18.08696 L 117.630997 18.08696 L 117.51561 18.087967 L 117.522537 18.219505 C 117.529465 18.24028 117.531784 18.263351 117.535248 18.289886 C 117.537712 18.316986 117.541565 18.343941 117.546783 18.370651 L 117.546783 18.503342 C 117.546837 18.527687 117.548767 18.551987 117.552567 18.576035 L 117.537567 18.584106 L 117.547958 18.656792 C 117.551422 18.693634 117.551422 18.730721 117.547958 18.767555 C 117.545563 18.790176 117.544411 18.812897 117.544495 18.835632 L 117.451027 18.884102 L 117.56411 19.007553 C 117.545425 19.046509 117.535202 19.088974 117.534119 19.132164 L 117.453346 19.132164 L 117.590652 19.299469 C 117.602188 19.313324 117.612579 19.351395 117.619507 19.377937 L 117.622971 19.388321 C 117.566429 19.442551 117.557198 19.523315 117.552582 19.566017 C 117.550224 19.585617 117.547974 19.614471 117.543335 19.622551 L 117.544342 19.620193 L 117.580116 19.665192 C 117.558006 19.681915 117.540199 19.703667 117.528191 19.728653 C 117.514893 19.758713 117.510872 19.792061 117.516655 19.824417 L 117.383965 19.824417 L 117.493576 19.934036 L 117.390884 19.967484 L 117.476273 20.039024 L 117.476273 20.311325 C 117.476273 20.360939 117.500519 20.401321 117.539734 20.422096 L 117.547806 20.425552 C 117.600883 20.460167 117.660881 20.459015 117.709343 20.448624 L 117.709343 20.560539 L 117.839729 20.522469 C 117.918419 20.495834 118.002556 20.489487 118.084351 20.504005 L 118.192818 20.527069 L 118.206665 20.417458 C 118.248795 20.025101 118.259598 19.630013 118.238983 19.235939 C 118.21907 18.879639 118.22834 18.522301 118.266685 18.167511 C 118.296684 18.100586 118.265678 18.038284 118.245911 18.005974 Z"/>
        </g>
    </g>
</svg>
