<?xml version="1.0" encoding="UTF-8"?>
<!-- Generated by Pixelmator Pro 3.8 -->
<svg width="250" height="70" viewBox="0 0 250 70" xmlns="http://www.w3.org/2000/svg">
    <g id="Group">
        <path id="Path" fill="#54301a" fill-rule="evenodd" stroke="none" d="M 58.507198 40.8209 L 57.895199 41.310501 L 57.283199 42.412102 L 57.283199 44.125702 L 57.528 44.737701 L 58.139999 45.472099 L 58.996799 45.9617 L 60.343201 46.084099 L 61.5672 45.716904 L 62.6688 44.2481 L 62.791199 42.901703 L 62.424 41.800102 L 61.812 41.065697 L 60.832802 40.576103 L 59.119202 40.576103 Z M 25.948799 40.698502 L 25.214399 41.310501 L 24.6024 42.289703 L 24.6024 44.2481 L 25.091999 45.104897 L 26.316 45.9617 L 28.274401 45.9617 L 29.131201 45.472099 L 29.988001 44.2481 L 29.988001 42.289703 L 29.253599 41.188103 L 28.519199 40.698502 Z M 243.820801 20.992096 L 242.719193 20.257706 L 240.760803 19.645706 L 238.190399 19.5233 L 235.130402 20.257706 L 233.294403 21.359299 L 231.825607 22.828094 L 230.601593 24.541702 L 230.112 24.1745 L 229.255203 20.012894 L 221.299194 20.012894 L 221.299194 21.359299 L 225.216003 21.481705 L 225.216003 40.576103 L 224.726395 42.412102 L 223.747192 43.391296 L 222.768005 43.758499 L 221.299194 43.880898 L 221.299194 45.472099 L 233.783997 45.472099 L 233.783997 43.880898 L 231.580795 43.268898 L 230.846405 42.167297 L 230.479202 40.8209 L 230.479202 28.458496 L 231.091202 25.888107 L 231.947998 24.541702 L 233.171997 23.440094 L 234.151199 22.9505 L 236.476807 22.460907 L 238.190399 22.705704 L 239.659195 23.684906 L 240.3936 25.153702 L 240.760803 27.6017 L 240.883194 41.555298 L 240.3936 42.901703 L 239.659195 43.636101 L 237.823196 44.125702 L 237.823196 45.716904 L 249.940796 45.716904 L 249.940796 44.003304 L 248.104797 43.268898 L 247.125595 42.412102 L 246.268799 40.086502 L 246.024002 24.664093 L 245.534393 23.072906 L 244.922394 22.093704 Z M 163.159195 20.747299 L 161.935196 20.012894 L 159.976807 19.5233 L 157.651199 19.645706 L 156.059998 20.1353 L 154.835999 20.869705 L 153.612 22.093704 L 152.020798 24.908905 L 151.653595 24.786499 L 150.919205 20.012894 L 142.1064 20.012894 L 142.1064 21.359299 L 146.880005 21.481705 L 146.757599 41.432899 L 146.390396 42.656898 L 145.5336 43.513702 L 144.187195 44.003304 L 142.1064 44.125702 L 142.228806 45.716904 L 156.794403 45.716904 L 156.794403 44.125702 L 154.468796 44.003304 L 153.734406 43.758499 L 153 43.1465 L 152.510406 41.922501 L 152.265594 40.2089 L 152.265594 28.948105 L 152.877594 26.622498 L 153.856796 25.031296 L 155.203201 23.684906 L 156.916794 22.9505 L 158.018402 22.9505 L 158.875198 23.317703 L 160.833603 25.398499 L 161.567993 25.888107 L 162.424805 26.010498 L 163.648804 25.520905 L 164.383194 24.541702 L 164.5056 23.440094 L 164.260803 22.338501 Z M 197.063995 21.481705 L 195.5952 23.195297 L 195.105606 25.031296 L 195.350403 26.500107 L 196.084793 27.234497 L 196.696793 27.479294 L 198.4104 27.356903 L 199.389603 26.500107 L 200.246399 23.440094 L 200.980804 22.093704 L 201.837601 21.359299 L 203.551193 20.747299 L 205.754395 20.747299 L 207.590393 21.359299 L 208.324799 22.093704 L 209.304001 24.786499 L 209.181595 30.172104 L 205.999207 30.416901 L 201.348007 31.396103 L 197.553604 33.109703 L 195.717606 34.700897 L 194.371201 37.271301 L 194.126404 38.372902 L 194.126404 40.2089 L 194.615997 41.922501 L 195.839996 43.880898 L 197.186401 44.982498 L 199.0224 45.839302 L 200.491196 46.084099 L 202.694397 45.9617 L 204.530396 45.472099 L 207.345596 43.880898 L 209.426407 41.922501 L 210.283203 43.880898 L 211.262405 44.8601 L 212.975998 45.716904 L 215.668793 45.839302 L 217.137604 45.472099 L 218.483994 44.615303 L 219.463196 43.1465 L 219.952805 41.555298 L 220.075195 40.086502 L 219.340805 40.086502 L 218.851196 41.800102 L 217.749603 42.656898 L 216.158401 42.5345 L 215.423996 41.800102 L 215.056793 40.453697 L 215.056793 24.664093 L 214.689606 23.195297 L 213.343201 21.114502 L 211.874405 20.1353 L 210.038406 19.5233 L 207.345596 19.156097 L 203.796005 19.156097 L 201.715195 19.400894 L 199.511993 20.012894 Z M 209.671204 31.885696 L 209.671204 40.086502 L 206.733597 42.412102 L 204.897598 43.1465 L 202.939194 43.268898 L 201.225601 42.656898 L 200.123993 41.432899 L 199.511993 39.474503 L 199.634399 37.638496 L 200.735992 35.557701 L 201.960007 34.333702 L 204.163193 32.987297 L 206.978394 32.008102 L 208.324799 31.763306 Z M 126.5616 19.156097 L 123.746399 19.645706 L 121.420799 20.624893 L 119.952003 21.604095 L 118.115997 23.5625 L 116.647202 26.255295 L 116.035202 28.336105 L 115.667999 30.416901 L 115.667999 35.0681 L 116.279999 38.005699 L 117.626404 41.065697 L 118.727997 42.5345 L 120.1968 43.880898 L 122.277603 45.104897 L 124.236 45.839302 L 126.194397 46.206497 L 128.887207 46.206497 L 130.845596 45.839302 L 133.783203 44.615303 L 135.619202 43.268898 L 137.699997 40.8209 L 138.679199 38.862503 L 139.413605 36.292099 L 139.780807 33.109703 L 139.658401 30.172104 L 138.679199 26.255295 L 137.699997 24.296906 L 135.741592 21.971298 L 133.905594 20.624893 L 131.580002 19.645706 L 128.887207 19.156097 Z M 126.316803 20.747299 L 128.887207 20.747299 L 131.335205 21.604095 L 132.804001 23.072906 L 133.660797 25.031296 L 134.150406 28.703293 L 134.028 37.026497 L 133.660797 39.474503 L 133.171204 41.065697 L 132.314407 42.656898 L 131.212799 43.758499 L 129.621597 44.492897 L 127.907997 44.737701 L 124.725601 44.370499 L 123.501602 43.758499 L 122.5224 42.779297 L 121.665604 41.065697 L 121.053596 37.271301 L 121.053596 28.580902 L 121.665604 24.786499 L 122.644798 22.828094 L 123.746399 21.726501 L 124.603203 21.236893 Z M 191.800797 18.054504 L 190.209595 17.932098 L 189.475204 18.299301 L 188.618393 19.768097 L 188.251205 20.992096 L 187.272003 21.848907 L 186.048004 21.848907 L 184.212006 20.502502 L 181.029602 19.278503 L 179.4384 19.033707 L 175.643997 19.033707 L 174.297607 19.278503 L 171.360001 20.502502 L 169.401596 22.216095 L 168.5448 23.440094 L 167.810394 25.031296 L 167.320801 26.867294 L 167.198395 28.825699 L 167.688004 32.497704 L 168.5448 34.333702 L 170.013596 35.924896 L 171.727203 36.904099 L 173.685593 37.3937 L 173.807999 37.883301 L 169.891205 38.984901 L 168.177597 39.964104 L 167.198395 40.943298 L 166.464005 42.656898 L 166.464005 44.370499 L 166.831207 45.472099 L 167.320801 46.206497 L 168.667206 47.308098 L 171.604797 48.409698 L 174.052795 48.776901 L 183.232803 49.021698 L 186.048004 50.0009 L 186.9048 50.735298 L 187.5168 51.959297 L 187.639206 53.428101 L 186.782394 55.508904 L 185.558395 56.732903 L 184.212006 57.589699 L 182.498398 58.201698 L 180.417603 58.568901 L 175.276794 58.568901 L 173.318405 58.201698 L 170.992798 56.977699 L 170.136002 55.7537 L 170.136002 52.938499 L 169.646393 51.592102 L 168.912003 50.980103 L 167.443207 50.857697 L 166.586395 51.347298 L 165.974396 52.3265 L 165.607193 54.6521 L 166.219193 56.610497 L 168.055206 58.446503 L 169.891205 59.303299 L 174.175201 60.160103 L 177.112793 60.282501 L 180.172806 60.037697 L 183.600006 59.303299 L 185.803207 58.324097 L 186.660004 57.712097 L 188.740799 55.386497 L 189.842407 52.693703 L 189.964798 50.0009 L 189.720001 48.532097 L 189.230392 47.308098 L 187.5168 45.349701 L 185.803207 44.370499 L 183.355194 43.758499 L 173.073593 43.268898 L 171.604797 43.024101 L 170.748001 42.656898 L 170.136002 42.044899 L 170.013596 40.8209 L 170.258408 40.2089 L 171.727203 39.1073 L 174.175201 38.372902 L 178.703995 37.638496 L 181.764008 36.7817 L 183.967194 35.680099 L 186.048004 33.844101 L 187.027206 32.252899 L 187.761597 29.560104 L 187.639206 26.132904 L 186.782394 23.684906 L 189.964798 23.5625 L 191.066406 23.072906 L 191.923203 22.338501 L 192.535202 21.114502 L 192.535202 20.012894 L 192.290405 19.5233 L 192.290405 18.666504 Z M 176.623199 20.380096 L 178.826401 20.380096 L 180.907196 21.359299 L 182.131195 22.9505 L 182.865601 25.520905 L 182.988007 30.661697 L 182.620804 32.987297 L 181.641602 35.190498 L 180.907196 35.924896 L 179.193604 36.659302 L 176.133606 36.659302 L 174.542404 36.047302 L 173.563202 35.0681 L 172.584 32.252899 L 172.461594 26.622498 L 173.318405 23.317703 L 174.052795 22.093704 L 175.031998 21.114502 Z M 70.012802 9.608902 L 70.012802 10.710495 L 74.296799 10.832901 L 74.296799 41.800102 L 73.562401 43.1465 L 72.705597 43.880898 L 71.726402 44.2481 L 70.135201 44.370499 L 70.135201 45.472099 L 80.171997 45.349701 L 80.049599 44.2481 L 78.335999 44.125702 L 77.479202 43.758499 L 76.5 42.656898 L 76.132797 41.800102 L 75.888 38.617699 L 76.010399 14.504898 L 76.377602 14.504898 L 76.989601 15.4841 L 89.596802 45.104897 L 90.698402 45.227303 L 103.060799 14.749695 L 103.428001 14.872101 L 103.428001 40.698502 L 102.816002 42.656898 L 101.347198 43.758499 L 98.8992 44.125702 L 98.8992 45.227303 L 112.852798 45.227303 L 112.852798 44.125702 L 110.282402 43.758499 L 109.425598 43.024101 L 108.813599 42.044899 L 108.446404 40.453697 L 108.568802 10.710495 L 112.240799 10.710495 L 112.240799 9.608902 L 102.9384 9.731293 L 92.0448 36.7817 L 91.677597 36.7817 L 80.171997 9.608902 Z M 35.251202 9.608902 L 35.251202 10.710495 L 39.4128 10.832901 L 39.4128 40.698502 L 39.045601 42.289703 L 38.188801 43.268898 L 36.720001 43.880898 L 34.271999 44.125702 L 34.271999 45.227303 L 49.816799 45.227303 L 49.816799 44.125702 L 46.8792 43.758499 L 45.655201 43.024101 L 45.043201 42.289703 L 44.675999 40.943298 L 44.798401 30.294495 L 50.673599 30.294495 L 53.855999 29.927307 L 57.528 28.825699 L 59.8536 27.356903 L 61.444801 25.520905 L 62.301601 23.684906 L 62.6688 21.971298 L 62.6688 17.320099 L 61.812 14.260101 L 60.832802 12.791306 L 59.608799 11.689697 L 57.7728 10.710495 L 54.467999 9.853699 L 52.142399 9.608902 Z M 44.798401 10.955307 L 49.082401 10.955307 L 52.509602 11.567307 L 54.9576 12.791306 L 56.793598 14.872101 L 57.405602 16.340897 L 57.7728 18.421707 L 57.7728 21.604095 L 57.283199 23.807297 L 56.181599 25.765701 L 54.9576 26.9897 L 53.611198 27.846497 L 50.3064 28.825699 L 44.675999 28.825699 Z M 25.091999 9.608902 L 10.5264 9.608902 L 10.5264 10.710495 L 15.3 10.832901 L 15.3 37.760902 L 15.0552 39.352097 L 14.1984 41.922501 L 12.9744 43.391296 L 10.7712 44.370499 L 7.956 44.492897 L 6.6096 43.880898 L 5.508 42.412102 L 5.2632 41.188103 L 5.2632 39.1073 L 4.896 37.883301 L 4.1616 37.148903 L 3.4272 36.904099 L 1.7136 37.026497 L 0.7344 37.760902 L 0.1224 38.862503 L 0 41.310501 L 0.7344 43.391296 L 2.2032 44.8601 L 4.284 45.716904 L 5.7528 45.9617 L 9.3024 46.084099 L 12.1176 45.839302 L 15.912 44.615303 L 17.136 43.758499 L 18.7272 41.922501 L 19.584 40.086502 L 20.318399 36.047302 L 20.4408 10.710495 L 25.091999 10.710495 Z"/>
    </g>
</svg>
