<?xml version="1.0" encoding="UTF-8"?>
<svg xmlns="http://www.w3.org/2000/svg" viewBox="0 0 250 250" role="img" aria-label="J.P. Morgan logo">
<title>J.P. Morgan</title>
<g transform="translate(0 97.6505) scale(0.1224)">
<path fill="#54301a" fill-rule="evenodd" d="M478 271L473 275L468 284L468 298L470 303L475 309L482 313L493 314L503 311L512 299L513 288L510 279L505 273L497 269L483 269ZM212 270L206 275L201 283L201 299L205 306L215 313L231 313L238 309L245 299L245 283L239 274L233 270ZM1992 109L1983 103L1967 98L1946 97L1921 103L1906 112L1894 124L1884 138L1880 135L1873 101L1808 101L1808 112L1840 113L1840 269L1836 284L1828 292L1820 295L1808 296L1808 309L1910 309L1910 296L1892 291L1886 282L1883 271L1883 170L1888 149L1895 138L1905 129L1913 125L1932 121L1946 123L1958 131L1964 143L1967 163L1968 277L1964 288L1958 294L1943 298L1943 311L2042 311L2042 297L2027 291L2019 284L2012 265L2010 139L2006 126L2001 118ZM1333 107L1323 101L1307 97L1288 98L1275 102L1265 108L1255 118L1242 141L1239 140L1233 101L1161 101L1161 112L1200 113L1199 276L1196 286L1189 293L1178 297L1161 298L1162 311L1281 311L1281 298L1262 297L1256 295L1250 290L1246 280L1244 266L1244 174L1249 155L1257 142L1268 131L1282 125L1291 125L1298 128L1314 145L1320 149L1327 150L1337 146L1343 138L1344 129L1342 120ZM1610 113L1598 127L1594 142L1596 154L1602 160L1607 162L1621 161L1629 154L1636 129L1642 118L1649 112L1663 107L1681 107L1696 112L1702 118L1710 140L1709 184L1683 186L1645 194L1614 208L1599 221L1588 242L1586 251L1586 266L1590 280L1600 296L1611 305L1626 312L1638 314L1656 313L1671 309L1694 296L1711 280L1718 296L1726 304L1740 311L1762 312L1774 309L1785 302L1793 290L1797 277L1798 265L1792 265L1788 279L1779 286L1766 285L1760 279L1757 268L1757 139L1754 127L1743 110L1731 102L1716 97L1694 94L1665 94L1648 96L1630 101ZM1713 198L1713 265L1689 284L1674 290L1658 291L1644 286L1635 276L1630 260L1631 245L1640 228L1650 218L1668 207L1691 199L1702 197ZM1034 94L1011 98L992 106L980 114L965 130L953 152L948 169L945 186L945 224L950 248L961 273L970 285L982 296L999 306L1015 312L1031 315L1053 315L1069 312L1093 302L1108 291L1125 271L1133 255L1139 234L1142 208L1141 184L1133 152L1125 136L1109 117L1094 106L1075 98L1053 94ZM1032 107L1053 107L1073 114L1085 126L1092 142L1096 172L1095 240L1092 260L1088 273L1081 286L1072 295L1059 301L1045 303L1019 300L1009 295L1001 287L994 273L989 242L989 171L994 140L1002 124L1011 115L1018 111ZM1567 85L1554 84L1548 87L1541 99L1538 109L1530 116L1520 116L1505 105L1479 95L1466 93L1435 93L1424 95L1400 105L1384 119L1377 129L1371 142L1367 157L1366 173L1370 203L1377 218L1389 231L1403 239L1419 243L1420 247L1388 256L1374 264L1366 272L1360 286L1360 300L1363 309L1367 315L1378 324L1402 333L1422 336L1497 338L1520 346L1527 352L1532 362L1533 374L1526 391L1516 401L1505 408L1491 413L1474 416L1432 416L1416 413L1397 403L1390 393L1390 370L1386 359L1380 354L1368 353L1361 357L1356 365L1353 384L1358 400L1373 415L1388 422L1423 429L1447 430L1472 428L1500 422L1518 414L1525 409L1542 390L1551 368L1552 346L1550 334L1546 324L1532 308L1518 300L1498 295L1414 291L1402 289L1395 286L1390 281L1389 271L1391 266L1403 257L1423 251L1460 245L1485 238L1503 229L1520 214L1528 201L1534 179L1533 151L1526 131L1552 130L1561 126L1568 120L1573 110L1573 101L1571 97L1571 90ZM1443 104L1461 104L1478 112L1488 125L1494 146L1495 188L1492 207L1484 225L1478 231L1464 237L1439 237L1426 232L1418 224L1410 201L1409 155L1416 128L1422 118L1430 110ZM572 16L572 25L607 26L607 279L601 290L594 296L586 299L573 300L573 309L655 308L654 299L640 298L633 295L625 286L622 279L620 253L621 56L624 56L629 64L732 306L741 307L842 58L845 59L845 270L840 286L828 295L808 298L808 307L922 307L922 298L901 295L894 289L889 281L886 268L887 25L917 25L917 16L841 17L752 238L749 238L655 16ZM288 16L288 25L322 26L322 270L319 283L312 291L300 296L280 298L280 307L407 307L407 298L383 295L373 289L368 283L365 272L366 185L414 185L440 182L470 173L489 161L502 146L509 131L512 117L512 79L505 54L497 42L487 33L472 25L445 18L426 16ZM366 27L401 27L429 32L449 42L464 59L469 71L472 88L472 114L468 132L459 148L449 158L438 165L411 173L365 173ZM205 16L86 16L86 25L125 26L125 246L123 259L116 280L106 292L88 300L65 301L54 296L45 284L43 274L43 257L40 247L34 241L28 239L14 240L6 246L1 255L0 275L6 292L18 304L35 311L47 313L76 314L99 312L130 302L140 295L153 280L160 265L166 232L167 25L205 25Z"/>
</g>
</svg>
