<?xml version="1.0" encoding="UTF-8"?>
<!-- Generated by Pixelmator Pro 3.8 -->
<svg width="250" height="52" viewBox="0 0 250 52" xmlns="http://www.w3.org/2000/svg">
    <g id="Group">
        <path id="Path" fill="#54301a" fill-rule="evenodd" stroke="none" d="M 58.507198 31.8209 L 57.895199 32.310501 L 57.283199 33.412102 L 57.283199 35.125702 L 57.528 35.737701 L 58.139999 36.472099 L 58.996799 36.9617 L 60.343201 37.084099 L 61.5672 36.716904 L 62.6688 35.2481 L 62.791199 33.901703 L 62.424 32.800102 L 61.812 32.065697 L 60.832802 31.576103 L 59.119202 31.576103 Z M 25.948799 31.698502 L 25.214399 32.310501 L 24.6024 33.289703 L 24.6024 35.2481 L 25.091999 36.104897 L 26.316 36.9617 L 28.274401 36.9617 L 29.131201 36.472099 L 29.988001 35.2481 L 29.988001 33.289703 L 29.253599 32.188103 L 28.519199 31.698502 Z M 243.820801 11.992096 L 242.719193 11.257706 L 240.760803 10.645706 L 238.190399 10.5233 L 235.130402 11.257706 L 233.294403 12.359299 L 231.825607 13.828094 L 230.601593 15.541702 L 230.112 15.1745 L 229.255203 11.012894 L 221.299194 11.012894 L 221.299194 12.359299 L 225.216003 12.481705 L 225.216003 31.576103 L 224.726395 33.412102 L 223.747192 34.391296 L 222.768005 34.758499 L 221.299194 34.880898 L 221.299194 36.472099 L 233.783997 36.472099 L 233.783997 34.880898 L 231.580795 34.268898 L 230.846405 33.167297 L 230.479202 31.8209 L 230.479202 19.458496 L 231.091202 16.888107 L 231.947998 15.541702 L 233.171997 14.440094 L 234.151199 13.9505 L 236.476807 13.460907 L 238.190399 13.705704 L 239.659195 14.684906 L 240.3936 16.153702 L 240.760803 18.6017 L 240.883194 32.555298 L 240.3936 33.901703 L 239.659195 34.636101 L 237.823196 35.125702 L 237.823196 36.716904 L 249.940796 36.716904 L 249.940796 35.003304 L 248.104797 34.268898 L 247.125595 33.412102 L 246.268799 31.086502 L 246.024002 15.664093 L 245.534393 14.072906 L 244.922394 13.093704 Z M 163.159195 11.747299 L 161.935196 11.012894 L 159.976807 10.5233 L 157.651199 10.645706 L 156.059998 11.1353 L 154.835999 11.869705 L 153.612 13.093704 L 152.020798 15.908905 L 151.653595 15.786499 L 150.919205 11.012894 L 142.1064 11.012894 L 142.1064 12.359299 L 146.880005 12.481705 L 146.757599 32.432899 L 146.390396 33.656898 L 145.5336 34.513702 L 144.187195 35.003304 L 142.1064 35.125702 L 142.228806 36.716904 L 156.794403 36.716904 L 156.794403 35.125702 L 154.468796 35.003304 L 153.734406 34.758499 L 153 34.1465 L 152.510406 32.922501 L 152.265594 31.2089 L 152.265594 19.948105 L 152.877594 17.622498 L 153.856796 16.031296 L 155.203201 14.684906 L 156.916794 13.9505 L 158.018402 13.9505 L 158.875198 14.317703 L 160.833603 16.398499 L 161.567993 16.888107 L 162.424805 17.010498 L 163.648804 16.520905 L 164.383194 15.541702 L 164.5056 14.440094 L 164.260803 13.338501 Z M 197.063995 12.481705 L 195.5952 14.195297 L 195.105606 16.031296 L 195.350403 17.500107 L 196.084793 18.234497 L 196.696793 18.479294 L 198.4104 18.356903 L 199.389603 17.500107 L 200.246399 14.440094 L 200.980804 13.093704 L 201.837601 12.359299 L 203.551193 11.747299 L 205.754395 11.747299 L 207.590393 12.359299 L 208.324799 13.093704 L 209.304001 15.786499 L 209.181595 21.172104 L 205.999207 21.416901 L 201.348007 22.396103 L 197.553604 24.109703 L 195.717606 25.700897 L 194.371201 28.271301 L 194.126404 29.372902 L 194.126404 31.2089 L 194.615997 32.922501 L 195.839996 34.880898 L 197.186401 35.982498 L 199.0224 36.839302 L 200.491196 37.084099 L 202.694397 36.9617 L 204.530396 36.472099 L 207.345596 34.880898 L 209.426407 32.922501 L 210.283203 34.880898 L 211.262405 35.8601 L 212.975998 36.716904 L 215.668793 36.839302 L 217.137604 36.472099 L 218.483994 35.615303 L 219.463196 34.1465 L 219.952805 32.555298 L 220.075195 31.086502 L 219.340805 31.086502 L 218.851196 32.800102 L 217.749603 33.656898 L 216.158401 33.5345 L 215.423996 32.800102 L 215.056793 31.453697 L 215.056793 15.664093 L 214.689606 14.195297 L 213.343201 12.114502 L 211.874405 11.1353 L 210.038406 10.5233 L 207.345596 10.156097 L 203.796005 10.156097 L 201.715195 10.400894 L 199.511993 11.012894 Z M 209.671204 22.885696 L 209.671204 31.086502 L 206.733597 33.412102 L 204.897598 34.1465 L 202.939194 34.268898 L 201.225601 33.656898 L 200.123993 32.432899 L 199.511993 30.474503 L 199.634399 28.638496 L 200.735992 26.557701 L 201.960007 25.333702 L 204.163193 23.987297 L 206.978394 23.008102 L 208.324799 22.763306 Z M 126.5616 10.156097 L 123.746399 10.645706 L 121.420799 11.624893 L 119.952003 12.604095 L 118.115997 14.5625 L 116.647202 17.255295 L 116.035202 19.336105 L 115.667999 21.416901 L 115.667999 26.0681 L 116.279999 29.005699 L 117.626404 32.065697 L 118.727997 33.5345 L 120.1968 34.880898 L 122.277603 36.104897 L 124.236 36.839302 L 126.194397 37.206497 L 128.887207 37.206497 L 130.845596 36.839302 L 133.783203 35.615303 L 135.619202 34.268898 L 137.699997 31.8209 L 138.679199 29.862503 L 139.413605 27.292099 L 139.780807 24.109703 L 139.658401 21.172104 L 138.679199 17.255295 L 137.699997 15.296906 L 135.741592 12.971298 L 133.905594 11.624893 L 131.580002 10.645706 L 128.887207 10.156097 Z M 126.316803 11.747299 L 128.887207 11.747299 L 131.335205 12.604095 L 132.804001 14.072906 L 133.660797 16.031296 L 134.150406 19.703293 L 134.028 28.026497 L 133.660797 30.474503 L 133.171204 32.065697 L 132.314407 33.656898 L 131.212799 34.758499 L 129.621597 35.492897 L 127.907997 35.737701 L 124.725601 35.370499 L 123.501602 34.758499 L 122.5224 33.779297 L 121.665604 32.065697 L 121.053596 28.271301 L 121.053596 19.580902 L 121.665604 15.786499 L 122.644798 13.828094 L 123.746399 12.726501 L 124.603203 12.236893 Z M 191.800797 9.054504 L 190.209595 8.932098 L 189.475204 9.299301 L 188.618393 10.768097 L 188.251205 11.992096 L 187.272003 12.848907 L 186.048004 12.848907 L 184.212006 11.502502 L 181.029602 10.278503 L 179.4384 10.033707 L 175.643997 10.033707 L 174.297607 10.278503 L 171.360001 11.502502 L 169.401596 13.216095 L 168.5448 14.440094 L 167.810394 16.031296 L 167.320801 17.867294 L 167.198395 19.825699 L 167.688004 23.497704 L 168.5448 25.333702 L 170.013596 26.924896 L 171.727203 27.904099 L 173.685593 28.3937 L 173.807999 28.883301 L 169.891205 29.984901 L 168.177597 30.964104 L 167.198395 31.943298 L 166.464005 33.656898 L 166.464005 35.370499 L 166.831207 36.472099 L 167.320801 37.206497 L 168.667206 38.308098 L 171.604797 39.409698 L 174.052795 39.776901 L 183.232803 40.021698 L 186.048004 41.0009 L 186.9048 41.735298 L 187.5168 42.959297 L 187.639206 44.428101 L 186.782394 46.508904 L 185.558395 47.732903 L 184.212006 48.589699 L 182.498398 49.201698 L 180.417603 49.568901 L 175.276794 49.568901 L 173.318405 49.201698 L 170.992798 47.977699 L 170.136002 46.7537 L 170.136002 43.938499 L 169.646393 42.592102 L 168.912003 41.980103 L 167.443207 41.857697 L 166.586395 42.347298 L 165.974396 43.3265 L 165.607193 45.6521 L 166.219193 47.610497 L 168.055206 49.446503 L 169.891205 50.303299 L 174.175201 51.160103 L 177.112793 51.282501 L 180.172806 51.037697 L 183.600006 50.303299 L 185.803207 49.324097 L 186.660004 48.712097 L 188.740799 46.386497 L 189.842407 43.693703 L 189.964798 41.0009 L 189.720001 39.532097 L 189.230392 38.308098 L 187.5168 36.349701 L 185.803207 35.370499 L 183.355194 34.758499 L 173.073593 34.268898 L 171.604797 34.024101 L 170.748001 33.656898 L 170.136002 33.044899 L 170.013596 31.8209 L 170.258408 31.2089 L 171.727203 30.1073 L 174.175201 29.372902 L 178.703995 28.638496 L 181.764008 27.7817 L 183.967194 26.680099 L 186.048004 24.844101 L 187.027206 23.252899 L 187.761597 20.560104 L 187.639206 17.132904 L 186.782394 14.684906 L 189.964798 14.5625 L 191.066406 14.072906 L 191.923203 13.338501 L 192.535202 12.114502 L 192.535202 11.012894 L 192.290405 10.5233 L 192.290405 9.666504 Z M 176.623199 11.380096 L 178.826401 11.380096 L 180.907196 12.359299 L 182.131195 13.9505 L 182.865601 16.520905 L 182.988007 21.661697 L 182.620804 23.987297 L 181.641602 26.190498 L 180.907196 26.924896 L 179.193604 27.659302 L 176.133606 27.659302 L 174.542404 27.047302 L 173.563202 26.0681 L 172.584 23.252899 L 172.461594 17.622498 L 173.318405 14.317703 L 174.052795 13.093704 L 175.031998 12.114502 Z M 70.012802 0.608902 L 70.012802 1.710495 L 74.296799 1.832901 L 74.296799 32.800102 L 73.562401 34.1465 L 72.705597 34.880898 L 71.726402 35.2481 L 70.135201 35.370499 L 70.135201 36.472099 L 80.171997 36.349701 L 80.049599 35.2481 L 78.335999 35.125702 L 77.479202 34.758499 L 76.5 33.656898 L 76.132797 32.800102 L 75.888 29.617699 L 76.010399 5.504898 L 76.377602 5.504898 L 76.989601 6.4841 L 89.596802 36.104897 L 90.698402 36.227303 L 103.060799 5.749695 L 103.428001 5.872101 L 103.428001 31.698502 L 102.816002 33.656898 L 101.347198 34.758499 L 98.8992 35.125702 L 98.8992 36.227303 L 112.852798 36.227303 L 112.852798 35.125702 L 110.282402 34.758499 L 109.425598 34.024101 L 108.813599 33.044899 L 108.446404 31.453697 L 108.568802 1.710495 L 112.240799 1.710495 L 112.240799 0.608902 L 102.9384 0.731293 L 92.0448 27.7817 L 91.677597 27.7817 L 80.171997 0.608902 Z M 35.251202 0.608902 L 35.251202 1.710495 L 39.4128 1.832901 L 39.4128 31.698502 L 39.045601 33.289703 L 38.188801 34.268898 L 36.720001 34.880898 L 34.271999 35.125702 L 34.271999 36.227303 L 49.816799 36.227303 L 49.816799 35.125702 L 46.8792 34.758499 L 45.655201 34.024101 L 45.043201 33.289703 L 44.675999 31.943298 L 44.798401 21.294495 L 50.673599 21.294495 L 53.855999 20.927307 L 57.528 19.825699 L 59.8536 18.356903 L 61.444801 16.520905 L 62.301601 14.684906 L 62.6688 12.971298 L 62.6688 8.320099 L 61.812 5.260101 L 60.832802 3.791306 L 59.608799 2.689697 L 57.7728 1.710495 L 54.467999 0.853699 L 52.142399 0.608902 Z M 44.798401 1.955307 L 49.082401 1.955307 L 52.509602 2.567307 L 54.9576 3.791306 L 56.793598 5.872101 L 57.405602 7.340897 L 57.7728 9.421707 L 57.7728 12.604095 L 57.283199 14.807297 L 56.181599 16.765701 L 54.9576 17.9897 L 53.611198 18.846497 L 50.3064 19.825699 L 44.675999 19.825699 Z M 25.091999 0.608902 L 10.5264 0.608902 L 10.5264 1.710495 L 15.3 1.832901 L 15.3 28.760902 L 15.0552 30.352097 L 14.1984 32.922501 L 12.9744 34.391296 L 10.7712 35.370499 L 7.956 35.492897 L 6.6096 34.880898 L 5.508 33.412102 L 5.2632 32.188103 L 5.2632 30.1073 L 4.896 28.883301 L 4.1616 28.148903 L 3.4272 27.904099 L 1.7136 28.026497 L 0.7344 28.760902 L 0.1224 29.862503 L 0 32.310501 L 0.7344 34.391296 L 2.2032 35.8601 L 4.284 36.716904 L 5.7528 36.9617 L 9.3024 37.084099 L 12.1176 36.839302 L 15.912 35.615303 L 17.136 34.758499 L 18.7272 32.922501 L 19.584 31.086502 L 20.318399 27.047302 L 20.4408 1.710495 L 25.091999 1.710495 Z"/>
    </g>
</svg>
