<?xml version="1.0" encoding="UTF-8"?>
<svg xmlns="http://www.w3.org/2000/svg" viewBox="0 0 250 250" role="img" aria-label="KPMG logo">
<title>KPMG</title>
<g transform="translate(0 75.1302) scale(0.2604)">
<path fill="#003087" fill-rule="evenodd" d="M0 377L48 376L71 299L79 299L117 376L176 377L149 323L139 298L224 299L201 377L253 377L277 298L404 299L382 377L434 377L456 299L480 299L481 377L526 376L576 298L609 300L592 377L644 377L657 312L661 298L691 300L690 306L692 324L696 337L701 347L707 355L718 365L741 376L766 381L790 382L833 379L882 370L900 299L959 298L959 0L746 0L746 190L730 205L729 0L516 0L515 173L498 172L498 0L285 0L284 173L267 172L267 0L54 0L54 199ZM753 305L754 298L845 300L835 338L809 342L788 341L772 335L758 321ZM623 225L624 230L610 290L582 288ZM478 223L480 226L479 290L459 289ZM354 213L355 225L353 233L346 248L338 256L327 261L314 263L289 262L304 206L310 205L341 206L350 209ZM755 7L952 8L951 290L902 289L910 258L810 258L802 290L754 289L754 281L758 264L769 239L785 219L797 210L805 206L820 202L837 202L850 207L855 212L858 218L859 230L918 230L920 221L920 202L918 195L913 186L908 180L900 174L890 169L877 165L857 162L826 162L809 164L776 173L755 184ZM524 7L721 8L721 217L712 230L701 252L695 270L691 290L663 289L687 173L604 173L531 287L528 290L523 289ZM293 7L490 8L489 173L441 173L407 289L358 289L372 282L385 271L392 262L400 245L404 225L404 206L402 198L397 189L387 180L377 176L367 174L292 172ZM63 7L259 8L259 186L228 288L226 290L133 289L127 277L127 275L220 181L226 173L163 173L86 255L85 252L109 173L62 172Z"/>
</g>
</svg>
