<?xml version="1.0" encoding="UTF-8"?>
<!-- Generated by Pixelmator Pro 3.8 -->
<svg width="250" height="120" viewBox="0 0 250 120" xmlns="http://www.w3.org/2000/svg">
    <g id="Group">
        <path id="Path" fill="#003087" fill-rule="evenodd" stroke="none" d="M 0 108.301003 L 12.4992 108.040604 L 18.4884 87.989799 L 20.5716 87.989799 L 30.466801 108.040604 L 45.830399 108.301003 L 38.799599 94.239403 L 36.195599 87.729401 L 58.329601 87.989799 L 52.340401 108.301003 L 65.881203 108.301003 L 72.130798 87.729401 L 105.201599 87.989799 L 99.472801 108.301003 L 113.013603 108.301003 L 118.742401 87.989799 L 124.991997 87.989799 L 125.252403 108.301003 L 136.970398 108.040604 L 149.990402 87.729401 L 158.583603 88.250198 L 154.156799 108.301003 L 167.697601 108.301003 L 171.082794 91.375 L 172.124405 87.729401 L 179.936401 88.250198 L 179.675995 89.812599 L 180.196793 94.499802 L 181.238403 97.885002 L 182.540405 100.488998 L 184.102798 102.572197 L 186.967194 105.176201 L 192.956406 108.040604 L 199.4664 109.342598 L 205.716003 109.602997 L 216.913193 108.8218 L 229.672806 106.478203 L 234.360001 87.989799 L 249.723602 87.729401 L 249.723602 10.130203 L 194.258408 10.130203 L 194.258408 59.606201 L 190.091995 63.512199 L 189.831604 10.130203 L 134.366394 10.130203 L 134.106003 55.179398 L 129.679199 54.919006 L 129.679199 10.130203 L 74.213997 10.130203 L 73.953598 55.179398 L 69.526802 54.919006 L 69.526802 10.130203 L 14.0616 10.130203 L 14.0616 61.949799 Z M 196.081207 89.5522 L 196.341599 87.729401 L 220.037994 88.250198 L 217.434006 98.145401 L 210.663605 99.186996 L 205.195206 98.926598 L 201.028793 97.364197 L 197.383194 93.718597 Z M 162.229202 68.7202 L 162.489594 70.022202 L 158.843994 85.646202 L 151.552795 85.125397 Z M 124.471199 68.199402 L 124.991997 68.980598 L 124.731598 85.646202 L 119.523598 85.385803 Z M 92.181602 65.595398 L 92.442001 68.7202 L 91.921204 70.803398 L 90.098396 74.709396 L 88.015198 76.792603 L 85.150803 78.094597 L 81.765602 78.615402 L 75.2556 78.355003 L 79.161598 63.772598 L 80.723999 63.512199 L 88.796402 63.772598 L 91.139999 64.553802 Z M 196.602005 11.953003 L 247.900803 12.213394 L 247.640396 85.646202 L 234.880798 85.385803 L 236.964005 77.3134 L 210.923996 77.3134 L 208.840805 85.646202 L 196.341599 85.385803 L 196.341599 83.302597 L 197.383194 78.875801 L 200.247604 72.365799 L 204.414001 67.157799 L 207.538803 64.814201 L 209.621994 63.772598 L 213.528 62.731003 L 217.954803 62.731003 L 221.339996 64.032997 L 222.641998 65.334999 L 223.423203 66.8974 L 223.683594 70.022202 L 239.047195 70.022202 L 239.567993 67.678596 L 239.567993 62.731003 L 239.047195 60.908203 L 237.745193 58.564598 L 236.443207 57.002197 L 234.360001 55.439804 L 231.755997 54.137802 L 228.370804 53.096207 L 223.162796 52.315002 L 215.090393 52.315002 L 210.663605 52.8358 L 202.070404 55.179398 L 196.602005 58.0438 Z M 136.4496 11.953003 L 187.748398 12.213394 L 187.748398 66.637001 L 185.4048 70.022202 L 182.540405 75.750999 L 180.977997 80.438202 L 179.936401 85.646202 L 172.645203 85.385803 L 178.894806 55.179398 L 157.281601 55.179398 L 138.2724 84.864998 L 137.491196 85.646202 L 136.189194 85.385803 Z M 76.297203 11.953003 L 127.596001 12.213394 L 127.335602 55.179398 L 114.836403 55.179398 L 105.982803 85.385803 L 93.223198 85.385803 L 96.868797 83.563004 L 100.253998 80.698601 L 102.076797 78.355003 L 104.160004 73.9282 L 105.201599 68.7202 L 105.201599 63.772598 L 104.680801 61.6894 L 103.378799 59.345802 L 100.774803 57.002197 L 98.170799 55.960602 L 95.566803 55.439804 L 76.036797 54.919006 Z M 16.405199 11.953003 L 67.443604 12.213394 L 67.443604 58.564598 L 59.371201 85.125397 L 58.850399 85.646202 L 34.633202 85.385803 L 33.070801 82.261002 L 33.070801 81.740196 L 57.287998 57.262604 L 58.850399 55.179398 L 42.445202 55.179398 L 22.3944 76.532204 L 22.134001 75.750999 L 28.3836 55.179398 L 16.1448 54.919006 Z"/>
    </g>
</svg>
