<?xml version="1.0" encoding="UTF-8"?>
<!-- Generated by Pixelmator Pro 3.8 -->
<svg width="250" height="100" viewBox="0 0 250 100" xmlns="http://www.w3.org/2000/svg">
    <g id="Group">
        <path id="Path" fill="#003087" fill-rule="evenodd" stroke="none" d="M 0 98.301003 L 12.4992 98.040604 L 18.4884 77.989799 L 20.5716 77.989799 L 30.466801 98.040604 L 45.830399 98.301003 L 38.799599 84.239403 L 36.195599 77.729401 L 58.329601 77.989799 L 52.340401 98.301003 L 65.881203 98.301003 L 72.130798 77.729401 L 105.201599 77.989799 L 99.472801 98.301003 L 113.013603 98.301003 L 118.742401 77.989799 L 124.991997 77.989799 L 125.252403 98.301003 L 136.970398 98.040604 L 149.990402 77.729401 L 158.583603 78.250198 L 154.156799 98.301003 L 167.697601 98.301003 L 171.082794 81.375 L 172.124405 77.729401 L 179.936401 78.250198 L 179.675995 79.812599 L 180.196793 84.499802 L 181.238403 87.885002 L 182.540405 90.488998 L 184.102798 92.572197 L 186.967194 95.176201 L 192.956406 98.040604 L 199.4664 99.342598 L 205.716003 99.602997 L 216.913193 98.8218 L 229.672806 96.478203 L 234.360001 77.989799 L 249.723602 77.729401 L 249.723602 0.130203 L 194.258408 0.130203 L 194.258408 49.606201 L 190.091995 53.512199 L 189.831604 0.130203 L 134.366394 0.130203 L 134.106003 45.179398 L 129.679199 44.919006 L 129.679199 0.130203 L 74.213997 0.130203 L 73.953598 45.179398 L 69.526802 44.919006 L 69.526802 0.130203 L 14.0616 0.130203 L 14.0616 51.949799 Z M 196.081207 79.5522 L 196.341599 77.729401 L 220.037994 78.250198 L 217.434006 88.145401 L 210.663605 89.186996 L 205.195206 88.926598 L 201.028793 87.364197 L 197.383194 83.718597 Z M 162.229202 58.7202 L 162.489594 60.022202 L 158.843994 75.646202 L 151.552795 75.125397 Z M 124.471199 58.199402 L 124.991997 58.980598 L 124.731598 75.646202 L 119.523598 75.385803 Z M 92.181602 55.595398 L 92.442001 58.7202 L 91.921204 60.803398 L 90.098396 64.709396 L 88.015198 66.792603 L 85.150803 68.094597 L 81.765602 68.615402 L 75.2556 68.355003 L 79.161598 53.772598 L 80.723999 53.512199 L 88.796402 53.772598 L 91.139999 54.553802 Z M 196.602005 1.953003 L 247.900803 2.213394 L 247.640396 75.646202 L 234.880798 75.385803 L 236.964005 67.3134 L 210.923996 67.3134 L 208.840805 75.646202 L 196.341599 75.385803 L 196.341599 73.302597 L 197.383194 68.875801 L 200.247604 62.365799 L 204.414001 57.157799 L 207.538803 54.814201 L 209.621994 53.772598 L 213.528 52.731003 L 217.954803 52.731003 L 221.339996 54.032997 L 222.641998 55.334999 L 223.423203 56.8974 L 223.683594 60.022202 L 239.047195 60.022202 L 239.567993 57.678596 L 239.567993 52.731003 L 239.047195 50.908203 L 237.745193 48.564598 L 236.443207 47.002197 L 234.360001 45.439804 L 231.755997 44.137802 L 228.370804 43.096207 L 223.162796 42.315002 L 215.090393 42.315002 L 210.663605 42.8358 L 202.070404 45.179398 L 196.602005 48.0438 Z M 136.4496 1.953003 L 187.748398 2.213394 L 187.748398 56.637001 L 185.4048 60.022202 L 182.540405 65.750999 L 180.977997 70.438202 L 179.936401 75.646202 L 172.645203 75.385803 L 178.894806 45.179398 L 157.281601 45.179398 L 138.2724 74.864998 L 137.491196 75.646202 L 136.189194 75.385803 Z M 76.297203 1.953003 L 127.596001 2.213394 L 127.335602 45.179398 L 114.836403 45.179398 L 105.982803 75.385803 L 93.223198 75.385803 L 96.868797 73.563004 L 100.253998 70.698601 L 102.076797 68.355003 L 104.160004 63.9282 L 105.201599 58.7202 L 105.201599 53.772598 L 104.680801 51.6894 L 103.378799 49.345802 L 100.774803 47.002197 L 98.170799 45.960602 L 95.566803 45.439804 L 76.036797 44.919006 Z M 16.405199 1.953003 L 67.443604 2.213394 L 67.443604 48.564598 L 59.371201 75.125397 L 58.850399 75.646202 L 34.633202 75.385803 L 33.070801 72.261002 L 33.070801 71.740196 L 57.287998 47.262604 L 58.850399 45.179398 L 42.445202 45.179398 L 22.3944 66.532204 L 22.134001 65.750999 L 28.3836 45.179398 L 16.1448 44.919006 Z"/>
    </g>
</svg>
