<?xml version="1.0" encoding="UTF-8"?>
<!-- Generated by Pixelmator Pro 3.8 -->
<svg width="248" height="48" viewBox="0 0 248 48" xmlns="http://www.w3.org/2000/svg">
    <path id="Path" fill="#000000" stroke="none" d="M 0.31 1.557999 C 0.496 1.867996 1.364 2.177994 2.17 2.177994 C 2.914 2.177994 3.782 2.612 3.968 3.169998 C 4.65 4.906006 4.402 43.718002 3.72 45.019997 C 3.348 45.639999 2.48 46.197998 1.86 46.197998 C 1.178 46.197998 0.62 46.445999 0.62 46.818001 C 0.62 47.190002 6.82 47.438004 17.917999 47.438004 L 35.278 47.438004 L 35.959999 44.028 C 36.889999 39.377998 36.518002 37.704002 35.153999 40.804001 C 33.728001 44.152 31.372 44.958 23.125999 44.958 C 15.562 44.896004 11.284 44.276001 10.478 43.036003 C 10.168 42.540001 9.92 33.302002 9.92 22.452003 C 9.92 4.223999 9.982 2.735992 11.036 2.425995 C 14.694 1.248001 14.074 1 7.254 1 C 2.542 0.938004 0.062 1.186005 0.31 1.557999 Z"/>
    <path id="path1" fill="#000000" stroke="none" d="M 52.762001 24.931999 C 48.917999 35.099998 45.136002 44.028 44.453999 44.834 C 43.771999 45.578003 42.532001 46.197998 41.787998 46.197998 C 40.981998 46.197998 40.175999 46.508003 39.990002 46.818001 C 39.742001 47.190002 41.911999 47.438004 46.004002 47.438004 C 52.080002 47.375999 52.327999 47.375999 50.653999 46.445999 C 48.608002 45.330002 48.608002 45.330002 51.584 36.711998 L 53.506001 31.255997 L 59.706001 31.442001 L 65.968002 31.627998 L 68.634003 38.447998 C 70.059998 42.167999 71.113998 45.764 70.928001 46.321999 C 70.617996 47.314003 71.176003 47.438004 76.260002 47.438004 C 79.856003 47.438004 81.778 47.190002 81.529999 46.818001 C 81.344002 46.445999 80.538002 46.197998 79.732002 46.197998 C 77.003998 46.197998 76.694 45.578003 66.650002 21.211998 C 63.363998 13.151993 60.388 6.518005 60.202 6.518005 C 59.953999 6.518005 56.605999 14.826004 52.762001 24.931999 Z M 59.953999 28.713997 C 57.226002 28.837997 54.869999 28.776001 54.745998 28.589996 C 54.436001 28.279999 57.102001 19.785995 58.776001 15.817993 L 59.644001 13.647995 L 62.248001 21.087997 L 64.914001 28.528 L 59.953999 28.713997 Z"/>
    <path id="path2" fill="#000000" stroke="none" d="M 133.238007 25.18 C 129.393997 35.410004 125.674004 44.337997 125.054001 45.019997 C 124.433998 45.639999 123.255997 46.197998 122.449997 46.197998 C 121.643997 46.197998 120.776001 46.508003 120.589996 46.818001 C 120.342003 47.190002 122.512001 47.438004 126.603996 47.438004 C 132.617996 47.375999 132.865997 47.314003 131.253998 46.445999 C 129.270004 45.391998 129.332001 45.206001 132.246002 36.711998 L 134.106003 31.255997 L 140.306 31.442001 L 146.567993 31.627998 L 149.233994 38.447998 C 150.660004 42.167999 151.714005 45.764 151.528 46.321999 C 151.218002 47.314003 151.776001 47.438004 156.921997 47.438004 C 162.688004 47.438004 163.369995 47.066002 159.774002 45.888 C 157.294006 45.082001 156.177994 42.849998 147.498001 21.832001 C 144.087997 13.399994 141.050003 6.518005 140.802002 6.518005 C 140.554001 6.518005 137.143997 14.888 133.238007 25.18 Z M 140.554001 28.713997 C 137.826004 28.837997 135.470001 28.776001 135.345993 28.589996 C 135.035995 28.279999 137.701996 19.785995 139.376007 15.817993 L 140.244003 13.647995 L 142.848007 21.087997 L 145.514008 28.528 L 140.554001 28.713997 Z"/>
    <path id="path3" fill="#000000" stroke="none" d="M 88.101997 11.044006 C 87.295998 15.817993 87.295998 15.817993 87.977997 15.817993 C 88.288002 15.817993 88.846001 14.949997 89.279999 13.895996 C 90.706001 10.485992 92.07 10.052002 103.106003 9.742004 L 113.087997 9.432007 L 110.050003 13.710007 C 108.375999 16.065994 102.237999 24.188004 96.410004 31.814003 C 90.643997 39.440002 85.807999 46.073997 85.683998 46.57 C 85.498001 47.314003 87.730003 47.438004 100.625999 47.438004 L 115.816002 47.438004 L 116.125999 46.012001 C 116.807999 43.160004 117.304001 38.447998 116.870003 38.882004 C 116.622002 39.068001 116.001999 40.183998 115.444 41.362 C 114.762001 42.725998 113.646004 43.655998 112.220001 44.152 C 110.112 44.834 93 45.330002 93 44.648003 C 93 44.461998 94.363998 42.416 96.038002 40.122002 C 104.779999 28.155998 118.358002 8.130005 118.047997 7.634003 C 117.862 7.386002 111.227997 7.138 103.230003 7.138 L 88.783997 7.138 L 88.101997 11.044006 Z"/>
    <path id="path4" fill="#000000" stroke="none" d="M 165.539993 7.695999 C 165.539993 8.067993 166.160004 8.378006 166.966003 8.378006 C 169.817993 8.378006 169.880005 8.873993 169.880005 26.419998 C 169.880005 42.912003 169.507996 46.197998 167.772003 46.197998 C 167.276001 46.197998 166.656006 46.508003 166.470001 46.818001 C 166.222 47.190002 168.453995 47.438004 172.731995 47.438004 C 176.824005 47.438004 179.179993 47.190002 178.869995 46.879997 C 178.498001 46.57 177.567993 46.197998 176.699997 46.073997 C 174.839996 45.825996 174.281998 43.594002 174.281998 35.781998 L 174.220001 30.697998 L 178.746002 30.697998 L 183.272003 30.697998 L 188.479996 37.641998 C 195.238007 46.57 196.539993 47.438004 202.677994 47.375999 C 207.266006 47.375999 207.451996 46.818001 203.298004 45.949997 C 200.817993 45.391998 198.710007 43.470001 192.820007 36.092003 L 187.302002 29.209999 L 189.472 26.792 C 195.362 20.343994 194.742004 11.973999 188.169998 8.688004 C 186.123993 7.695999 184.016006 7.447998 175.645996 7.261993 C 168.453995 7.076004 165.539993 7.199997 165.539993 7.695999 Z M 181.350006 9.679993 C 184.945999 10.671997 188.294006 14.268005 188.789993 17.740005 C 189.285995 21.026001 188.294006 25.304001 186.619995 26.977997 C 185.194 28.403999 180.481995 29.148003 177.134003 28.466003 L 174.529999 27.907997 L 174.343994 18.794006 C 174.220001 10.548004 174.281998 9.679993 175.274002 9.432007 C 177.257996 8.936005 178.807999 8.998001 181.350006 9.679993 Z"/>
    <path id="path5" fill="#000000" stroke="none" d="M 210.800003 7.757996 C 210.800003 8.067993 211.606003 8.378006 212.660004 8.378006 C 213.837997 8.378006 214.705994 8.811996 215.139999 9.556 C 215.511993 10.300003 215.759995 17.119995 215.759995 27.288002 C 215.759995 37.456001 215.511993 44.276001 215.139999 45.019997 C 214.768005 45.702003 213.837997 46.197998 212.970001 46.197998 C 212.164001 46.197998 211.296005 46.445999 211.110001 46.818001 C 210.427994 47.872002 230.453995 47.624001 234.235992 46.508003 C 240.436005 44.648003 245.272003 39.440002 247.070007 32.496002 C 248.309998 27.970001 248.248001 24.683998 246.822006 20.220001 C 244.714005 13.337997 240.311996 9.494003 232.871994 7.944 C 228.345993 7.014008 210.800003 6.828003 210.800003 7.757996 Z M 233.554001 11.292007 C 240.311996 14.453995 243.350006 20.343994 242.916 29.396004 C 242.544006 36.774002 240.126007 41.052002 234.794006 43.779999 C 232.128006 45.143997 225.679993 45.949997 222.332001 45.330002 L 220.100006 44.896004 L 220.223999 27.412003 L 220.410004 9.927994 L 222.580002 9.556 C 225.990005 8.998001 230.082001 9.617996 233.554001 11.292007 Z"/>
</svg>
