<?xml version="1.0" encoding="UTF-8"?>
<svg xmlns="http://www.w3.org/2000/svg" viewBox="0 0 250 250" role="img" aria-label="London School of Economics logo">
<title>London School of Economics</title>
<g transform="translate(0 0) scale(0.1221)">
<path fill="#e4002b" fill-rule="evenodd" d="M0 0L0 2047L2047 2047L2047 0ZM1326 392L1666 393L1665 530L1460 530L1461 934L1653 935L1652 1081L1460 1082L1461 1513L1666 1514L1665 1653L1325 1652ZM385 392L520 393L521 1513L720 1514L719 1653L386 1653L384 1651ZM1161 393L1160 530L1108 530L1079 535L1040 549L1017 562L1002 573L977 599L966 616L959 632L952 661L948 709L950 737L957 772L965 798L981 838L1000 878L1043 958L1084 1023L1126 1096L1150 1146L1169 1198L1180 1243L1186 1291L1185 1358L1180 1399L1172 1437L1157 1479L1145 1503L1127 1531L1105 1558L1085 1578L1044 1609L1004 1630L952 1647L913 1653L839 1654L837 1653L837 1514L895 1513L924 1507L947 1499L971 1487L996 1469L1020 1443L1036 1413L1041 1396L1045 1370L1047 1328L1044 1298L1038 1269L1027 1235L1011 1196L969 1113L870 944L850 904L827 844L814 790L809 743L811 679L817 635L823 609L839 565L853 538L871 511L891 487L909 469L928 453L954 435L995 414L1041 399L1085 392L1113 391Z"/>
<path fill="#ffffff" fill-rule="evenodd" d="M1326 393L1326 1652L1665 1652L1665 1514L1461 1514L1459 1512L1459 1082L1461 1080L1652 1080L1652 935L1461 935L1459 933L1460 529L1665 529L1665 393ZM385 393L386 1652L719 1652L719 1514L521 1514L519 1512L519 393ZM1160 393L1085 393L1041 400L995 415L954 436L928 454L909 470L892 487L872 511L854 538L840 565L824 609L818 635L812 679L810 743L815 790L828 844L851 904L871 944L956 1088L1007 1185L1025 1227L1037 1262L1044 1292L1048 1328L1046 1370L1042 1396L1037 1413L1021 1443L996 1470L971 1488L947 1500L924 1508L895 1514L837 1515L837 1652L839 1653L913 1652L952 1646L1004 1629L1044 1608L1085 1577L1104 1558L1126 1531L1144 1503L1156 1479L1171 1437L1179 1399L1184 1358L1185 1291L1179 1243L1168 1198L1149 1146L1125 1096L1083 1023L1042 958L999 878L980 838L964 798L956 772L950 744L947 709L952 655L962 622L979 595L1002 572L1017 561L1040 548L1079 534L1108 529L1160 529Z"/>
</g>
</svg>
