<?xml version="1.0" encoding="UTF-8"?>
<svg xmlns="http://www.w3.org/2000/svg" viewBox="0 0 250 250" role="img" aria-label="London Business School logo">
<title>London Business School</title>
<g transform="translate(-7.4503 -7.4503) scale(0.2759)">
<path fill="#001d62" fill-rule="evenodd" d="M575 565L568 566L560 570L553 578L548 592L548 608L554 624L561 631L572 635L582 634L588 631L595 624L601 608L601 592L596 578L588 569ZM470 565L456 569L448 577L444 586L442 601L444 614L448 623L457 632L466 635L476 634L484 630L492 620L496 605L495 589L490 577L482 569ZM139 391L139 435L176 434L183 431L190 424L192 419L192 407L188 399L183 395L169 391ZM591 392L639 392L639 384L635 375L628 368L623 366L612 366L603 370L596 377ZM139 332L139 373L169 372L178 368L181 365L184 358L184 347L181 340L178 337L163 332ZM567 171L556 176L550 183L545 197L545 214L550 228L557 236L566 240L577 240L584 237L592 229L597 217L598 199L596 190L592 182L584 174L576 171ZM458 171L448 175L440 184L435 197L435 217L440 230L448 238L459 242L466 242L479 236L486 227L486 186L483 181L475 174L467 171ZM242 171L233 175L227 181L223 189L220 204L221 216L226 229L231 235L241 240L252 240L260 237L269 227L273 216L274 201L271 188L267 181L261 175L252 171ZM27 27L27 932L932 932L932 792L117 791L118 774L932 774L932 27ZM567 547L582 547L590 549L604 557L614 569L621 589L621 611L614 631L603 644L593 650L583 653L562 652L552 648L545 643L535 631L528 610L528 590L535 569L541 561L549 554L559 549ZM462 547L481 548L496 555L508 568L514 582L516 593L515 614L508 632L496 645L485 651L477 653L461 653L453 651L442 645L429 630L423 613L422 595L424 583L429 570L441 556L451 550ZM263 544L282 545L293 550L302 557L295 568L291 571L286 567L278 564L266 564L260 566L249 575L244 586L244 612L248 621L254 628L265 633L278 633L298 625L305 638L301 642L290 648L274 652L256 650L241 642L231 631L226 621L223 609L223 588L230 567L238 557L245 551L255 546ZM153 509L172 509L183 512L196 519L204 527L196 538L192 541L183 533L175 529L167 527L157 527L146 531L142 535L139 542L140 553L147 561L159 568L177 574L190 581L199 589L206 601L208 617L203 633L190 646L182 650L170 653L153 653L139 649L120 639L114 634L113 631L124 617L136 627L146 632L158 635L165 635L177 632L185 625L187 621L187 608L182 600L174 595L138 581L126 570L120 558L119 541L125 526L135 516L145 511ZM660 504L660 650L641 649L642 513ZM321 513L339 504L340 559L350 552L360 548L378 547L389 551L398 560L402 569L403 576L402 650L382 649L382 576L380 571L376 567L368 565L360 566L351 570L340 581L339 650L320 649ZM426 352L446 353L446 452L444 454L427 454L425 452ZM230 352L249 353L249 422L252 432L255 435L262 437L272 436L279 433L286 428L291 422L292 352L312 353L312 452L310 454L295 453L295 442L287 448L270 455L251 454L244 451L236 444L232 437L229 426ZM540 355L549 364L554 378L553 454L534 454L532 452L532 379L530 374L522 369L513 369L506 371L499 375L491 383L489 454L472 453L473 352L489 353L489 364L499 356L512 351L530 351ZM609 349L625 349L633 351L640 355L651 368L657 385L656 407L590 407L590 413L596 426L600 430L609 435L623 437L635 434L644 429L648 431L652 444L642 450L626 455L609 455L596 451L588 446L576 432L570 415L569 397L575 375L581 366L588 359L597 353ZM792 347L810 349L821 354L829 361L821 373L818 375L813 371L801 366L787 367L780 374L780 382L785 388L817 401L826 409L830 418L831 428L826 442L815 452L799 457L779 455L763 448L755 441L764 428L767 426L774 432L789 438L804 437L810 432L812 428L812 421L806 414L795 410L772 398L765 391L761 382L761 371L766 360L775 352ZM706 347L720 348L729 351L742 360L742 362L732 375L719 367L704 366L697 369L693 376L694 383L700 389L725 398L735 404L741 411L744 419L744 432L739 443L729 452L713 457L702 457L690 454L672 445L669 441L677 429L681 426L688 432L703 438L717 437L721 435L725 430L726 422L720 414L687 399L678 390L675 383L675 370L679 361L689 352L699 348ZM367 347L376 347L388 350L399 356L404 361L396 373L393 375L388 371L377 366L362 367L355 374L355 382L360 388L392 402L399 408L404 418L404 431L398 444L387 453L372 457L362 457L347 453L328 442L338 429L342 426L349 432L364 438L379 437L385 432L387 428L387 421L384 416L347 398L339 389L336 381L336 372L341 360L352 351ZM426 314L446 315L445 337L425 336ZM118 314L172 315L184 319L190 323L198 332L203 347L202 362L198 370L191 377L185 380L186 383L196 386L206 395L210 404L211 418L206 434L193 447L181 452L168 454L119 454L117 452ZM384 160L391 168L396 183L395 257L376 256L376 185L373 177L367 173L351 174L342 179L335 186L333 257L314 256L315 156L331 157L331 168L342 159L356 154L374 155ZM708 157L718 168L722 182L721 256L702 255L702 187L699 178L693 173L677 174L669 178L660 187L659 257L640 256L641 156L657 157L657 166L665 159L679 153L691 152L698 153ZM569 152L585 154L599 161L611 175L618 196L618 215L614 230L610 238L599 250L593 254L576 259L557 257L545 251L532 237L525 217L525 194L529 180L534 171L548 158L557 154ZM245 152L261 154L274 161L287 176L292 188L294 199L293 219L291 227L285 239L272 252L264 256L252 259L242 259L233 257L217 248L210 240L204 229L200 211L202 188L208 174L213 167L228 156ZM118 117L139 118L139 237L195 238L194 257L117 256ZM505 112L505 254L503 256L488 255L488 245L480 253L469 258L455 259L440 255L430 248L423 240L415 223L413 214L413 197L418 179L423 171L432 162L447 155L469 155L477 158L485 164L485 121L501 112Z"/>
<path fill="#ffffff" fill-rule="evenodd" d="M567 548L559 550L549 555L542 561L536 569L529 590L529 610L533 625L538 634L545 642L552 647L562 651L583 652L593 649L603 643L613 631L620 611L620 589L613 569L604 558L590 550L582 548ZM575 564L588 568L597 578L602 592L602 608L596 624L588 632L582 635L572 636L561 632L553 624L547 608L547 592L550 582L554 575L563 567ZM462 548L451 551L441 557L430 570L425 583L423 595L424 613L430 630L442 644L453 650L461 652L477 652L493 646L507 632L514 614L514 586L507 568L496 556L481 549ZM470 564L482 568L491 577L496 589L497 605L495 615L489 626L479 634L466 636L457 633L447 623L443 614L441 600L444 583L451 572L460 566ZM263 545L255 547L245 552L231 567L224 588L224 609L227 621L232 631L241 641L256 649L274 651L290 647L304 638L297 625L287 631L278 634L265 634L254 629L247 621L243 612L243 586L248 575L258 566L266 563L278 563L292 570L301 557L293 551L282 546ZM153 510L140 514L126 526L120 541L121 558L127 570L138 580L174 594L182 599L188 608L188 621L179 632L171 635L158 636L146 633L136 628L124 618L114 631L114 633L123 640L139 648L153 652L170 652L182 649L190 645L202 633L207 617L205 601L198 589L190 582L177 575L159 569L147 562L139 553L138 542L141 535L146 530L157 526L167 526L175 528L183 532L193 540L203 526L193 518L177 511ZM660 505L642 514L642 649L660 649ZM321 514L321 649L339 649L339 581L351 569L366 564L376 566L381 571L383 576L383 649L402 649L402 576L401 569L397 560L389 552L378 548L360 549L339 559L339 505ZM426 353L427 453L445 452L445 353ZM230 353L230 426L233 437L237 444L244 450L251 453L270 454L277 452L296 442L296 453L311 452L311 353L292 353L292 422L286 429L279 434L267 438L255 436L249 428L248 353ZM540 356L530 352L512 352L499 357L489 365L488 353L473 353L473 453L489 453L489 385L499 374L513 368L522 368L527 370L531 374L533 379L534 453L553 453L553 378L548 364ZM609 350L597 354L588 360L576 375L570 397L571 415L577 432L588 445L596 450L609 454L626 454L642 449L652 443L647 431L644 430L635 435L623 438L609 436L600 431L593 423L589 413L590 406L656 406L656 385L650 368L640 356L633 352L625 350ZM595 377L603 369L612 365L623 365L628 367L636 375L640 384L639 393L590 392ZM792 348L779 351L767 360L762 371L762 382L766 391L772 397L795 409L806 413L813 421L813 428L807 436L801 439L785 438L765 428L760 435L757 443L779 454L799 456L815 451L825 442L830 428L829 418L825 409L817 402L785 389L779 382L779 374L785 367L790 365L805 366L820 373L828 361L821 355L810 350ZM706 348L693 351L686 355L680 361L676 370L676 383L679 390L687 398L720 413L726 419L726 430L721 436L717 438L703 439L688 433L680 427L670 442L677 447L693 454L702 456L713 456L729 451L738 443L743 432L742 415L738 408L731 402L700 390L693 383L692 376L697 368L704 365L719 366L733 374L741 360L729 352L720 349ZM376 348L367 348L352 352L342 360L337 372L338 385L347 397L381 413L386 417L388 421L388 428L386 432L379 438L360 438L349 433L341 427L329 442L347 452L362 456L372 456L387 452L397 444L403 431L403 418L398 408L392 403L380 397L363 391L354 382L354 374L362 366L377 365L395 373L403 360L388 351ZM426 315L426 336L445 336L445 315ZM118 315L119 453L168 453L181 451L193 446L205 434L210 418L209 404L205 395L196 387L186 384L184 382L185 379L191 376L197 370L201 362L202 347L197 332L190 324L184 320L172 316ZM139 390L169 390L183 394L189 399L193 407L193 419L191 424L183 432L176 435L138 435ZM139 331L163 331L178 336L182 340L185 347L185 358L182 365L178 369L169 373L138 373ZM384 161L374 156L356 155L342 160L331 169L330 157L315 157L315 256L333 256L333 188L342 178L354 172L370 173L376 181L377 256L395 256L395 183L393 174L388 165ZM708 158L698 154L691 153L679 154L665 160L657 167L656 157L641 157L641 256L659 256L659 187L669 177L680 172L693 172L700 178L702 182L703 255L721 255L721 182L717 168ZM569 153L557 155L548 159L535 171L530 180L526 194L526 217L533 237L545 250L557 256L576 258L593 253L599 249L609 238L613 230L617 215L617 196L610 175L599 162L585 155ZM567 170L576 170L584 173L593 182L597 190L599 199L599 212L597 221L593 229L588 235L577 241L566 241L557 237L549 228L544 214L544 197L549 183L556 175ZM245 153L228 157L214 167L209 174L203 188L201 211L205 229L209 237L217 247L233 256L242 258L252 258L264 255L272 251L284 239L288 232L292 219L293 199L291 188L286 176L274 162L261 155ZM242 170L252 170L261 174L270 184L275 201L274 216L270 227L260 238L252 241L241 241L231 236L225 229L220 216L219 204L222 189L226 181L233 174ZM118 118L118 256L194 256L194 238L138 237L138 118ZM504 112L487 120L484 165L477 159L469 156L447 156L432 163L424 171L419 179L414 197L414 214L416 223L424 240L430 247L440 254L455 258L469 257L480 252L488 244L489 255L504 254ZM458 170L467 170L475 173L484 181L487 186L487 227L479 237L466 243L459 243L448 239L439 230L434 217L434 197L439 184L448 174Z"/>
<path fill="#e31b3f" fill-rule="evenodd" d="M118 775L118 791L932 791L932 775Z"/>
</g>
</svg>
