<?xml version="1.0" encoding="UTF-8"?>
<svg xmlns="http://www.w3.org/2000/svg" viewBox="0 0 250 250" role="img" aria-label="Macquarie logo">
  <title>Macquarie</title>
  <path fill="#000000" fill-rule="evenodd" d="M18.624 103.293L14.677 104.403L9.99 106.746L7.647 108.473L5.057 111.063L3.453 113.16L1.357 117.23L0.247 121.3L0 123.273L0 126.727L0.617 130.55L2.097 134.497L4.317 138.074L7.893 141.774L11.347 144.117L13.567 145.227L16.28 146.214L20.474 147.077L26.764 147.077L30.217 146.46L34.904 144.734L38.234 142.76L39.961 141.404L42.181 139.184L44.277 136.347L46.004 132.893L47.237 128.207L47.361 122.903L46.867 119.943L45.387 115.75L43.044 111.926L39.467 108.226L35.767 105.76L32.437 104.28L28.12 103.17L26.27 102.923L21.09 102.923ZM38.357 109.46L41.441 112.543L43.907 116.49L44.894 119.08L45.511 121.547L45.757 123.397L45.757 126.48L45.017 130.427L43.661 133.88L41.317 137.457L38.234 140.54L38.234 140.047L39.714 138.32L41.194 135.977L42.427 133.263L43.291 130.427L43.784 126.48L43.661 121.67L43.044 118.587L42.057 115.75L40.947 113.53L38.111 109.706ZM9.003 109.583L9.373 109.706L7.647 111.803L5.92 114.64L4.44 118.34L3.577 123.15L3.577 127.097L4.317 131.413L5.303 134.25L6.783 137.087L9.373 140.417L9.25 140.664L6.66 138.32L3.947 134.497L2.343 130.55L1.603 125.987L1.973 121.053L3.083 117.477L5.303 113.53L6.907 111.556ZM117.908 113.9L115.935 114.27L113.592 115.257L111.988 116.367L110.385 117.97L108.905 120.437L108.288 122.287L108.041 123.643L108.041 126.357L108.288 127.837L109.521 130.797L110.878 132.647L112.235 133.88L113.715 134.867L115.812 135.73L117.662 136.1L120.622 136.1L123.212 135.483L124.938 134.62L126.295 133.633L128.268 131.29L125.802 129.44L125.308 130.303L123.582 131.907L121.238 133.017L118.525 133.263L116.675 132.893L115.318 132.277L113.222 130.55L111.741 128.207L111.248 126.11L111.248 123.767L111.741 121.793L112.728 120.067L114.578 118.217L116.428 117.23L117.785 116.86L120.498 116.86L122.718 117.6L124.322 118.71L125.802 120.56L128.268 118.71L125.925 116.12L123.705 114.763L120.498 113.9ZM132.708 118.093L131.968 119.08L130.735 121.793L130.365 123.52L130.365 126.727L130.982 129.07L131.722 130.673L132.955 132.4L134.682 134.003L137.025 135.36L139.862 136.1L142.822 136.1L144.179 135.853L146.645 134.867L148.372 133.633L150.839 135.73L155.032 135.73L150.469 131.413L151.949 127.96L152.195 126.727L152.195 123.52L151.949 122.163L151.085 119.943L149.975 118.217L148.125 116.367L146.645 115.38L144.179 114.393L141.712 114.023L139.615 114.147L138.382 114.393L135.915 115.38L134.312 116.49ZM97.558 114.27L95.091 114.393L85.348 135.73L88.308 135.73L91.021 130.18L101.751 130.18L104.218 135.607L107.301 135.73L107.301 135.36ZM59.077 114.393L59.077 135.73L62.037 135.73L62.161 118.093L69.561 135.73L72.274 135.73L79.551 118.093L79.674 135.73L82.758 135.607L82.634 114.393L77.948 114.393L70.918 131.413L70.178 130.057L63.888 114.517ZM156.142 114.393L156.265 128.453L156.759 130.55L157.745 132.523L159.225 134.127L160.705 135.113L163.789 136.1L167.366 136.1L170.202 135.36L171.682 134.497L173.656 132.4L174.396 131.043L175.012 128.947L175.136 114.393L172.052 114.393L172.052 127.22L171.436 129.81L170.819 130.92L169.709 132.03L167.982 132.893L166.749 133.14L164.529 133.14L162.432 132.523L161.322 131.783L160.212 130.427L159.719 129.44L159.349 127.837L159.349 114.393ZM186.359 114.393L176.616 135.853L179.699 135.853L182.289 130.303L193.143 130.303L195.609 135.73L198.693 135.853L198.816 135.73L189.073 114.393ZM201.406 114.393L201.406 135.73L204.489 135.853L204.613 126.727L211.149 126.727L217.193 135.73L220.77 135.73L214.85 126.85L214.973 126.603L216.453 126.233L217.686 125.493L218.796 124.383L219.536 123.027L219.906 121.793L219.906 119.45L219.413 117.723L218.55 116.367L216.7 115.01L214.48 114.393ZM224.716 114.393L224.716 135.73L227.8 135.73L227.8 114.393ZM232.98 114.393L232.98 135.73L250 135.73L250 132.77L236.063 132.647L236.186 126.11L248.397 126.11L248.273 123.15L236.31 123.273L236.063 123.027L236.063 117.353L249.753 117.23L249.753 114.393ZM22.817 114.763L24.544 114.763L26.394 115.133L28.49 116.12L29.847 117.107L31.574 119.08L32.437 120.683L33.054 122.533L33.3 124.26L33.3 125.863L32.93 127.96L31.82 130.55L30.957 131.783L29.477 133.263L28.244 134.127L25.9 135.113L24.42 135.36L23.064 135.36L21.09 134.99L18.747 133.88L17.637 133.017L15.417 130.303L14.43 127.96L14.06 125.987L14.06 124.137L14.43 122.163L14.924 120.683L16.28 118.463L18.87 116.12L20.597 115.257ZM16.404 115.503L16.65 115.627L14.677 117.723L13.197 120.437L12.457 123.273L12.457 126.727L12.827 128.453L13.69 130.673L14.677 132.277L16.65 134.373L16.527 134.62L14.43 133.14L12.457 131.043L11.223 128.947L10.483 126.233L10.607 123.027L11.593 120.313L12.95 118.34L14.43 116.86ZM31.08 115.627L33.3 117.23L35.644 120.067L36.384 121.67L36.877 123.52L36.877 126.603L36.137 129.07L35.15 130.797L32.684 133.387L30.957 134.62L30.834 134.373L32.807 132.153L34.04 129.933L34.657 128.083L35.027 125L34.78 122.533L34.164 120.437L32.684 117.723L30.834 115.75ZM140.109 116.86L143.069 116.983L145.905 118.34L146.892 119.203L148.249 121.053L149.112 124.013L148.989 126.48L148.249 128.947L148.002 129.193L145.165 126.85L143.315 128.577L143.192 128.947L146.029 131.537L144.302 132.647L142.205 133.263L139.245 133.017L136.408 131.537L135.175 130.303L134.435 129.193L133.448 126.233L133.572 123.15L133.942 121.793L134.805 120.19L136.038 118.833L137.395 117.847ZM204.613 117.477L204.859 117.23L213.986 117.23L215.466 117.847L216.33 118.71L216.7 119.45L216.823 121.177L216.576 122.04L215.343 123.397L214.11 123.89L204.736 123.89ZM96.448 118.34L100.518 127.22L100.395 127.343L92.378 127.22ZM187.716 118.34L191.786 127.097L191.663 127.343L183.646 127.22Z"/>
</svg>
