<?xml version="1.0" encoding="UTF-8"?>
<!-- Generated by Pixelmator Pro 3.8 -->
<svg width="250" height="46" viewBox="0 0 250 46" xmlns="http://www.w3.org/2000/svg">
    <path id="Path" fill="#000000" fill-rule="evenodd" stroke="none" d="M 18.624001 1.292999 L 14.677 2.403 L 9.99 4.746002 L 7.647 6.472992 L 5.057 9.063004 L 3.453 11.160004 L 1.357 15.230011 L 0.247 19.300003 L 0 21.273003 L 0 24.726997 L 0.617 28.550003 L 2.097 32.496994 L 4.317 36.074005 L 7.893 39.774002 L 11.347 42.117004 L 13.567 43.227005 L 16.280001 44.214005 L 20.474001 45.076996 L 26.764 45.076996 L 30.216999 44.460007 L 34.903999 42.733994 L 38.234001 40.759995 L 39.960999 39.404007 L 42.181 37.184006 L 44.277 34.347 L 46.004002 30.893005 L 47.237 26.207001 L 47.361 20.903 L 46.867001 17.942993 L 45.387001 13.75 L 43.043999 9.925995 L 39.466999 6.225998 L 35.766998 3.76001 L 32.437 2.279999 L 28.120001 1.169998 L 26.27 0.923004 L 21.09 0.923004 Z M 38.356998 7.459991 L 41.441002 10.542999 L 43.907001 14.48999 L 44.894001 17.080002 L 45.511002 19.546997 L 45.757 21.397003 L 45.757 24.480003 L 45.016998 28.427002 L 43.660999 31.880005 L 41.317001 35.457001 L 38.234001 38.539993 L 38.234001 38.046997 L 39.714001 36.320007 L 41.194 33.977005 L 42.426998 31.263 L 43.291 28.427002 L 43.784 24.480003 L 43.660999 19.669998 L 43.043999 16.587006 L 42.056999 13.75 L 40.946999 11.529999 L 38.111 7.705994 Z M 9.003 7.583008 L 9.373 7.705994 L 7.647 9.803009 L 5.92 12.639999 L 4.44 16.339996 L 3.577 21.150002 L 3.577 25.097 L 4.317 29.412994 L 5.303 32.25 L 6.783 35.087006 L 9.373 38.417007 L 9.25 38.664001 L 6.66 36.320007 L 3.947 32.496994 L 2.343 28.550003 L 1.603 23.987 L 1.973 19.053009 L 3.083 15.47699 L 5.303 11.529999 L 6.907 9.556 Z M 117.907997 11.899994 L 115.934998 12.269989 L 113.592003 13.257004 L 111.987999 14.367004 L 110.385002 15.970001 L 108.904999 18.436996 L 108.288002 20.287003 L 108.041 21.642998 L 108.041 24.357002 L 108.288002 25.836998 L 109.521004 28.796997 L 110.877998 30.647003 L 112.235001 31.880005 L 113.714996 32.867004 L 115.811996 33.729996 L 117.662003 34.100006 L 120.622002 34.100006 L 123.211998 33.483002 L 124.938004 32.619995 L 126.294998 31.632996 L 128.268005 29.289993 L 125.802002 27.440002 L 125.307999 28.302994 L 123.582001 29.906998 L 121.237999 31.016998 L 118.525002 31.263 L 116.675003 30.893005 L 115.318001 30.276993 L 113.222 28.550003 L 111.740997 26.207001 L 111.248001 24.110001 L 111.248001 21.766998 L 111.740997 19.792999 L 112.727997 18.067001 L 114.578003 16.21701 L 116.428001 15.230011 L 117.785004 14.860001 L 120.498001 14.860001 L 122.718002 15.600006 L 124.321999 16.709991 L 125.802002 18.559998 L 128.268005 16.709991 L 125.925003 14.119995 L 123.705002 12.763 L 120.498001 11.899994 Z M 132.707993 16.093002 L 131.968002 17.080002 L 130.735001 19.792999 L 130.365005 21.519997 L 130.365005 24.726997 L 130.981995 27.070007 L 131.722 28.673004 L 132.955002 30.399994 L 134.682007 32.003006 L 137.024994 33.360001 L 139.862 34.100006 L 142.822006 34.100006 L 144.179001 33.852997 L 146.645004 32.867004 L 148.371994 31.632996 L 150.839005 33.729996 L 155.031998 33.729996 L 150.468994 29.412994 L 151.949005 25.959999 L 152.195007 24.726997 L 152.195007 21.519997 L 151.949005 20.163002 L 151.085007 17.942993 L 149.975006 16.21701 L 148.125 14.367004 L 146.645004 13.380005 L 144.179001 12.393005 L 141.712006 12.02301 L 139.615005 12.147003 L 138.382004 12.393005 L 135.914993 13.380005 L 134.311996 14.48999 Z M 97.557999 12.269989 L 95.091003 12.393005 L 85.348 33.729996 L 88.307999 33.729996 L 91.021004 28.179993 L 101.750999 28.179993 L 104.218002 33.606995 L 107.301003 33.729996 L 107.301003 33.360001 Z M 59.077 12.393005 L 59.077 33.729996 L 62.036999 33.729996 L 62.160999 16.093002 L 69.560997 33.729996 L 72.274002 33.729996 L 79.551003 16.093002 L 79.674004 33.729996 L 82.758003 33.606995 L 82.634003 12.393005 L 77.947998 12.393005 L 70.917999 29.412994 L 70.178001 28.057007 L 63.888 12.516998 Z M 156.141998 12.393005 L 156.264999 26.453003 L 156.759003 28.550003 L 157.744995 30.522995 L 159.225006 32.126999 L 160.705002 33.113007 L 163.789001 34.100006 L 167.365997 34.100006 L 170.201996 33.360001 L 171.682007 32.496994 L 173.656006 30.399994 L 174.395996 29.042999 L 175.011993 26.947006 L 175.136002 12.393005 L 172.052002 12.393005 L 172.052002 25.220001 L 171.436005 27.809998 L 170.819 28.919998 L 169.709 30.029999 L 167.981995 30.893005 L 166.748993 31.139999 L 164.529007 31.139999 L 162.432007 30.522995 L 161.322006 29.783005 L 160.212006 28.427002 L 159.718994 27.440002 L 159.348999 25.836998 L 159.348999 12.393005 Z M 186.358994 12.393005 L 176.615997 33.852997 L 179.699005 33.852997 L 182.289001 28.302994 L 193.143005 28.302994 L 195.608994 33.729996 L 198.692993 33.852997 L 198.815994 33.729996 L 189.072998 12.393005 Z M 201.406006 12.393005 L 201.406006 33.729996 L 204.488998 33.852997 L 204.613007 24.726997 L 211.149002 24.726997 L 217.192993 33.729996 L 220.770004 33.729996 L 214.850006 24.849998 L 214.973007 24.602997 L 216.453003 24.233002 L 217.686005 23.492996 L 218.796005 22.383003 L 219.535995 21.027 L 219.906006 19.792999 L 219.906006 17.449997 L 219.412994 15.722992 L 218.550003 14.367004 L 216.699997 13.01001 L 214.479996 12.393005 Z M 224.716003 12.393005 L 224.716003 33.729996 L 227.800003 33.729996 L 227.800003 12.393005 Z M 232.979996 12.393005 L 232.979996 33.729996 L 250 33.729996 L 250 30.770004 L 236.063004 30.647003 L 236.186005 24.110001 L 248.397003 24.110001 L 248.272995 21.150002 L 236.309998 21.273003 L 236.063004 21.027 L 236.063004 15.352997 L 249.753006 15.230011 L 249.753006 12.393005 Z M 22.816999 12.763 L 24.544001 12.763 L 26.393999 13.132996 L 28.49 14.119995 L 29.847 15.106995 L 31.573999 17.080002 L 32.437 18.682999 L 33.054001 20.532997 L 33.299999 22.260002 L 33.299999 23.862999 L 32.93 25.959999 L 31.82 28.550003 L 30.957001 29.783005 L 29.476999 31.263 L 28.243999 32.126999 L 25.9 33.113007 L 24.42 33.360001 L 23.063999 33.360001 L 21.09 32.990005 L 18.747 31.880005 L 17.636999 31.016998 L 15.417 28.302994 L 14.43 25.959999 L 14.06 23.987 L 14.06 22.137001 L 14.43 20.163002 L 14.924 18.682999 L 16.280001 16.462997 L 18.870001 14.119995 L 20.597 13.257004 Z M 16.403999 13.502991 L 16.65 13.626999 L 14.677 15.722992 L 13.197 18.436996 L 12.457 21.273003 L 12.457 24.726997 L 12.827 26.453003 L 13.69 28.673004 L 14.677 30.276993 L 16.65 32.373001 L 16.527 32.619995 L 14.43 31.139999 L 12.457 29.042999 L 11.223 26.947006 L 10.483 24.233002 L 10.607 21.027 L 11.593 18.313004 L 12.95 16.339996 L 14.43 14.860001 Z M 31.08 13.626999 L 33.299999 15.230011 L 35.644001 18.067001 L 36.383999 19.669998 L 36.876999 21.519997 L 36.876999 24.602997 L 36.137001 27.070007 L 35.150002 28.796997 L 32.683998 31.386993 L 30.957001 32.619995 L 30.834 32.373001 L 32.806999 30.153 L 34.040001 27.932999 L 34.657001 26.082993 L 35.027 23 L 34.779999 20.532997 L 34.164001 18.436996 L 32.683998 15.722992 L 30.834 13.75 Z M 140.108994 14.860001 L 143.069 14.983002 L 145.904999 16.339996 L 146.891998 17.203003 L 148.248993 19.053009 L 149.112 22.013 L 148.988998 24.480003 L 148.248993 26.947006 L 148.001999 27.192993 L 145.164993 24.849998 L 143.315002 26.576996 L 143.192001 26.947006 L 146.029007 29.537003 L 144.302002 30.647003 L 142.205002 31.263 L 139.244995 31.016998 L 136.408005 29.537003 L 135.175003 28.302994 L 134.434998 27.192993 L 133.447998 24.233002 L 133.572006 21.150002 L 133.942001 19.792999 L 134.804993 18.190002 L 136.037994 16.833008 L 137.395004 15.847 Z M 204.613007 15.47699 L 204.858994 15.230011 L 213.985992 15.230011 L 215.466003 15.847 L 216.330002 16.709991 L 216.699997 17.449997 L 216.822998 19.177002 L 216.576004 20.040001 L 215.343002 21.397003 L 214.110001 21.889999 L 204.735992 21.889999 Z M 96.447998 16.339996 L 100.517998 25.220001 L 100.394997 25.343002 L 92.377998 25.220001 Z M 187.716003 16.339996 L 191.785995 25.097 L 191.662994 25.343002 L 183.645996 25.220001 Z"/>
</svg>
