<?xml version="1.0" encoding="UTF-8"?>
<svg xmlns="http://www.w3.org/2000/svg" viewBox="0 0 250 250" role="img" aria-label="McKinsey &amp; Company logo">
<title>McKinsey &amp; Company</title>
<g transform="translate(0 86.4258) scale(0.1953)">
<path fill="#051c2c" fill-rule="evenodd" d="M1279 252L1240 252L1240 259L1249 260L1254 266L1254 271L1233 316L1210 270L1211 266L1216 260L1224 259L1224 252L1172 252L1172 259L1178 259L1189 269L1223 337L1195 388L1195 390L1202 394L1230 343L1263 270L1274 259L1279 259ZM691 252L691 259L698 259L707 268L707 332L700 340L691 341L691 348L741 347L740 341L732 340L725 332L725 279L735 268L741 264L753 261L763 264L766 267L769 274L769 331L761 340L753 341L753 348L802 348L802 341L794 340L787 333L786 330L786 280L788 276L794 270L801 265L809 262L820 262L824 264L828 268L830 273L830 332L820 341L815 340L815 348L864 347L863 340L856 340L848 332L848 272L843 260L835 253L827 250L814 250L804 254L785 268L783 261L779 256L773 252L767 250L751 250L745 252L739 256L725 270L721 252ZM975 264L975 266L988 284L994 284L991 274L993 264L999 258L1004 256L1018 256L1025 259L1031 265L1034 272L1033 290L1010 294L1000 297L989 302L981 309L978 315L977 321L978 331L983 341L992 348L999 350L1006 350L1013 348L1023 341L1032 330L1035 330L1037 348L1119 348L1119 341L1113 341L1109 339L1102 331L1102 280L1110 271L1123 263L1137 261L1142 263L1146 267L1149 274L1149 332L1141 340L1133 341L1133 348L1183 348L1183 341L1175 340L1167 331L1167 272L1165 265L1156 254L1150 251L1131 250L1125 252L1116 258L1103 271L1101 267L1100 257L1098 251L1068 252L1068 259L1077 260L1085 269L1085 331L1076 340L1061 340L1052 332L1052 274L1049 265L1042 257L1033 252L1026 250L1007 249L991 253L979 260ZM1033 296L1034 319L1030 325L1021 333L1015 336L1005 336L1000 333L995 325L995 316L999 308L1006 303ZM947 253L932 249L919 250L907 256L895 270L891 251L861 251L861 259L870 260L877 268L877 378L870 386L861 387L861 394L911 394L911 388L903 387L895 379L896 333L903 342L913 348L920 350L933 350L941 348L951 342L959 332L964 322L967 311L968 303L967 285L964 274L960 266L955 259ZM920 261L930 261L939 265L943 269L948 278L951 299L948 322L944 330L938 336L929 340L919 340L908 336L899 327L895 318L895 286L901 274L910 265ZM632 250L623 253L613 259L605 267L601 273L595 290L596 314L604 331L615 342L624 347L634 350L652 350L662 347L671 342L677 337L684 328L690 314L691 291L689 282L685 273L681 267L673 259L661 252L648 249ZM646 257L655 259L662 263L666 267L670 274L673 291L672 318L667 330L660 337L650 341L637 341L626 336L622 332L617 323L614 309L614 289L616 277L622 266L632 259ZM286 206L282 211L278 220L277 235L280 247L289 261L277 272L269 285L265 300L266 317L270 327L275 334L286 343L294 347L306 350L324 350L338 347L351 341L362 333L372 341L383 346L393 348L414 348L414 340L405 340L375 316L379 311L385 298L388 286L389 273L391 269L401 259L408 258L408 252L355 252L355 259L360 259L368 262L373 266L378 275L377 298L372 310L370 311L343 287L307 251L300 248L290 238L287 231L287 220L289 215L294 209L305 204L319 204L332 210L341 219L346 228L347 234L354 234L354 199L347 199L343 202L338 202L321 197L306 197L298 199ZM290 268L293 266L316 291L352 324L356 329L344 336L330 339L316 338L310 336L298 329L286 316L281 303L282 283ZM507 197L497 200L484 207L474 216L465 229L460 240L455 259L456 291L459 302L466 317L473 327L486 339L496 345L512 350L542 349L551 346L566 337L579 322L585 308L577 309L572 318L560 330L553 334L544 337L522 338L510 335L502 331L490 320L486 314L480 300L478 286L478 252L480 238L486 224L491 217L497 212L506 207L514 205L529 205L541 209L554 220L562 232L565 239L567 251L574 251L574 199L568 199L562 203L555 203L527 196ZM844 52L806 53L806 60L814 60L819 65L821 70L799 117L776 69L778 65L783 60L790 60L790 52L738 53L739 60L744 60L755 70L789 138L760 190L766 194L769 194L791 152L830 69L839 60L845 60ZM693 51L681 56L669 68L664 76L661 84L659 95L659 106L662 120L667 130L676 141L683 146L693 150L709 151L719 149L730 143L741 130L746 117L739 118L737 122L728 130L713 134L698 132L692 129L683 120L679 114L675 102L676 96L739 91L739 83L737 73L730 61L723 55L717 52L708 50ZM719 63L723 75L722 85L683 89L674 88L675 81L679 71L688 61L695 58L706 57L714 59ZM601 51L590 56L583 64L581 70L582 86L584 90L595 100L619 110L634 118L639 124L640 131L638 136L632 141L625 143L611 142L601 137L592 128L588 121L587 115L581 115L581 148L586 148L590 145L598 145L607 149L617 151L630 150L642 144L647 138L651 129L651 114L646 105L636 97L611 87L598 80L594 76L592 69L594 63L597 60L604 57L614 57L624 61L630 66L635 72L638 79L638 82L644 82L644 53L639 53L637 55L628 55L618 51L611 50ZM215 50L199 56L185 70L178 86L177 109L180 121L185 131L192 140L197 144L207 149L216 151L227 151L239 148L249 142L259 130L263 122L264 116L259 116L250 127L246 130L238 133L219 133L208 128L200 120L193 105L192 91L195 76L201 65L207 60L214 57L227 57L231 59L235 63L238 71L237 85L244 84L257 63L250 57L237 51ZM429 4L424 6L420 10L419 20L424 27L429 29L434 29L439 27L443 23L444 12L439 6L434 4ZM265 0L266 7L274 7L284 16L284 132L274 141L265 141L265 148L323 148L323 141L315 141L305 132L305 90L320 75L370 147L509 148L509 141L503 141L499 139L493 131L493 81L506 68L514 64L523 62L528 62L533 64L538 69L540 73L540 133L533 140L524 141L524 148L575 148L575 141L567 141L558 132L558 72L552 59L540 51L525 50L515 53L503 62L494 71L492 68L489 52L459 52L459 60L467 60L474 66L476 70L476 131L466 141L452 141L442 131L442 52L408 53L408 60L418 61L425 69L425 131L415 141L402 141L392 135L384 127L333 59L374 16L387 7L396 7L396 0L342 0L342 7L350 7L358 16L358 19L306 77L305 16L313 8L323 7L323 0ZM0 0L0 7L8 7L18 16L18 132L10 140L0 141L0 148L46 148L46 141L37 141L27 131L28 22L81 151L134 25L135 132L127 140L117 141L117 148L174 148L174 141L164 140L155 130L155 18L164 8L174 7L174 0L135 0L95 97L88 111L85 106L43 0Z"/>
</g>
</svg>
