<?xml version="1.0" encoding="UTF-8"?>
<!-- Generated by Pixelmator Pro 3.8 -->
<svg width="250" height="78" viewBox="0 0 250 78" xmlns="http://www.w3.org/2000/svg">
    <g id="Group">
        <path id="Path" fill="#051c2c" fill-rule="evenodd" stroke="none" d="M 249.788696 49.641403 L 242.171997 49.641403 L 242.171997 51.008499 L 243.929703 51.203796 L 244.906204 52.375603 L 244.906204 53.352097 L 240.804901 62.140602 L 236.313004 53.156799 L 236.508301 52.375603 L 237.484802 51.203796 L 239.047195 51.008499 L 239.047195 49.641403 L 228.891602 49.641403 L 228.891602 51.008499 L 230.0634 51.008499 L 232.2117 52.961502 L 238.851898 66.241898 L 233.383499 76.202202 L 233.383499 76.592796 L 234.750595 77.374001 L 240.218994 67.413696 L 246.663895 53.156799 L 248.812195 51.008499 L 249.788696 51.008499 Z M 134.952301 49.641403 L 134.952301 51.008499 L 136.319397 51.008499 L 138.077103 52.766197 L 138.077103 65.265404 L 136.710007 66.827797 L 134.952301 67.023102 L 134.952301 68.390198 L 144.7173 68.194901 L 144.522003 67.023102 L 142.959595 66.827797 L 141.592499 65.265404 L 141.592499 54.914497 L 143.545502 52.766197 L 144.7173 51.985001 L 147.060898 51.399101 L 149.013901 51.985001 L 149.599792 52.5709 L 150.185699 53.938004 L 150.185699 65.070099 L 148.623306 66.827797 L 147.060898 67.023102 L 147.060898 68.390198 L 156.6306 68.390198 L 156.6306 67.023102 L 155.068207 66.827797 L 153.701096 65.460701 L 153.505798 64.874802 L 153.505798 55.109802 L 153.896393 54.328598 L 155.068207 53.156799 L 156.435303 52.180298 L 157.997696 51.594398 L 160.145996 51.594398 L 160.9272 51.985001 L 161.708405 52.766197 L 162.098999 53.742699 L 162.098999 65.265404 L 160.145996 67.023102 L 159.169495 66.827797 L 159.169495 68.390198 L 168.739197 68.194901 L 168.5439 66.827797 L 167.176804 66.827797 L 165.614395 65.265404 L 165.614395 53.547401 L 164.637894 51.203796 L 163.0755 49.8367 L 161.513107 49.250801 L 158.974197 49.250801 L 157.021194 50.031998 L 153.310501 52.766197 L 152.919907 51.399101 L 152.138702 50.4226 L 150.966904 49.641403 L 149.795105 49.250801 L 146.670303 49.250801 L 145.498505 49.641403 L 144.326706 50.4226 L 141.592499 53.156799 L 140.811295 49.641403 Z M 190.417496 51.985001 L 190.417496 52.375603 L 192.956406 55.890999 L 194.128204 55.890999 L 193.542297 53.938004 L 193.932907 51.985001 L 195.104706 50.813202 L 196.081207 50.4226 L 198.815399 50.4226 L 200.182495 51.008499 L 201.354294 52.180298 L 201.940201 53.547401 L 201.744904 57.062798 L 197.253006 57.844002 L 195.300003 58.429901 L 193.151703 59.406403 L 191.589294 60.773499 L 191.003403 61.945297 L 190.808105 63.117104 L 191.003403 65.070099 L 191.979904 67.023102 L 193.737595 68.390198 L 195.104706 68.7808 L 196.471802 68.7808 L 197.838898 68.390198 L 199.791901 67.023102 L 201.549606 64.874802 L 202.135498 64.874802 L 202.526093 68.390198 L 218.540695 68.390198 L 218.540695 67.023102 L 217.368896 67.023102 L 216.587708 66.6325 L 215.220596 65.070099 L 215.220596 55.109802 L 216.783005 53.352097 L 219.321899 51.789703 L 222.056107 51.399101 L 223.032593 51.789703 L 223.813797 52.5709 L 224.399704 53.938004 L 224.399704 65.265404 L 222.837296 66.827797 L 221.274902 67.023102 L 221.274902 68.390198 L 231.039902 68.390198 L 231.039902 67.023102 L 229.477493 66.827797 L 227.9151 65.070099 L 227.9151 53.547401 L 227.524506 52.180298 L 225.7668 50.031998 L 224.595001 49.446098 L 220.884293 49.250801 L 219.712494 49.641403 L 217.954803 50.813202 L 215.415894 53.352097 L 215.025299 52.5709 L 214.830002 50.617897 L 214.439407 49.446098 L 208.580399 49.641403 L 208.580399 51.008499 L 210.338104 51.203796 L 211.900497 52.961502 L 211.900497 65.070099 L 210.142807 66.827797 L 207.213303 66.827797 L 205.455597 65.265404 L 205.455597 53.938004 L 204.869705 52.180298 L 203.502594 50.617897 L 201.744904 49.641403 L 200.377808 49.250801 L 196.667099 49.055496 L 193.542297 49.8367 L 191.1987 51.203796 Z M 201.744904 58.234596 L 201.940201 62.726501 L 201.158997 63.8983 L 199.401306 65.460701 L 198.229507 66.0466 L 196.276505 66.0466 L 195.300003 65.460701 L 194.323502 63.8983 L 194.323502 62.140602 L 195.104706 60.578201 L 196.471802 59.6017 Z M 184.949097 49.8367 L 182.019608 49.055496 L 179.480698 49.250801 L 177.1371 50.4226 L 174.793503 53.156799 L 174.012299 49.446098 L 168.153305 49.446098 L 168.153305 51.008499 L 169.910995 51.203796 L 171.278107 52.766197 L 171.278107 74.249199 L 169.910995 75.8116 L 168.153305 76.006897 L 168.153305 77.374001 L 177.918304 77.374001 L 177.918304 76.202202 L 176.355896 76.006897 L 174.793503 74.444504 L 174.9888 65.460701 L 176.355896 67.218399 L 178.308899 68.390198 L 179.675995 68.7808 L 182.214905 68.7808 L 183.777298 68.390198 L 185.730301 67.218399 L 187.292694 65.265404 L 188.269196 63.312401 L 188.855103 61.164101 L 189.0504 59.6017 L 188.855103 56.086304 L 188.269196 53.938004 L 187.488007 52.375603 L 186.511505 51.008499 Z M 179.675995 51.399101 L 181.628998 51.399101 L 183.386703 52.180298 L 184.167892 52.961502 L 185.144394 54.7192 L 185.730301 58.820503 L 185.144394 63.312401 L 184.363205 64.874802 L 183.191406 66.0466 L 181.433701 66.827797 L 179.480698 66.827797 L 177.332397 66.0466 L 175.574707 64.288902 L 174.793503 62.531197 L 174.793503 56.281601 L 175.965302 53.938004 L 177.723007 52.180298 Z M 123.429604 49.250801 L 121.671898 49.8367 L 119.718903 51.008499 L 118.156502 52.5709 L 117.375298 53.742699 L 116.203499 57.062798 L 116.398804 61.75 L 117.961197 65.070099 L 120.109497 67.218399 L 121.867203 68.194901 L 123.820198 68.7808 L 127.335602 68.7808 L 129.288605 68.194901 L 131.046295 67.218399 L 132.218094 66.241898 L 133.585205 64.4842 L 134.757004 61.75 L 134.952301 57.258102 L 134.561707 55.500397 L 133.780502 53.742699 L 132.999298 52.5709 L 131.436905 51.008499 L 129.093307 49.641403 L 126.554398 49.055496 Z M 126.163803 50.617897 L 127.921501 51.008499 L 129.288605 51.789703 L 130.069794 52.5709 L 130.850998 53.938004 L 131.436905 57.258102 L 131.241592 62.531197 L 130.265106 64.874802 L 128.897995 66.241898 L 126.945 67.023102 L 124.406097 67.023102 L 122.257797 66.0466 L 121.476601 65.265404 L 120.500099 63.507698 L 119.9142 60.773499 L 119.9142 56.8675 L 120.304802 54.523903 L 121.476601 52.375603 L 123.429604 51.008499 Z M 55.855801 40.6576 L 55.0746 41.634102 L 54.2934 43.3918 L 54.098099 46.321297 L 54.683998 48.664902 L 56.4417 51.399101 L 54.098099 53.547401 L 52.535702 56.086304 L 51.754501 59.0158 L 51.949799 62.335899 L 52.730999 64.288902 L 53.7075 65.655998 L 55.855801 67.413696 L 57.418201 68.194901 L 59.761799 68.7808 L 63.277199 68.7808 L 66.011398 68.194901 L 68.550301 67.023102 L 70.698601 65.460701 L 72.651604 67.023102 L 74.799896 67.999603 L 76.752899 68.390198 L 80.854202 68.390198 L 80.854202 66.827797 L 79.096497 66.827797 L 73.237503 62.140602 L 74.0187 61.164101 L 75.190498 58.625198 L 75.776398 56.281601 L 75.971703 53.742699 L 76.362297 52.961502 L 78.3153 51.008499 L 79.682404 50.813202 L 79.682404 49.641403 L 69.331497 49.641403 L 69.331497 51.008499 L 70.307999 51.008499 L 71.870399 51.594398 L 72.846901 52.375603 L 73.823402 54.133301 L 73.628098 58.625198 L 72.651604 60.968803 L 72.261002 61.164101 L 66.9879 56.476898 L 59.9571 49.446098 L 58.59 48.860199 L 56.637001 46.907204 L 56.051102 45.5401 L 56.051102 43.3918 L 56.4417 42.415298 L 57.418201 41.2435 L 59.566502 40.266998 L 62.300701 40.266998 L 64.8396 41.438797 L 66.597298 43.196503 L 67.573799 44.954201 L 67.769096 46.125999 L 69.1362 46.125999 L 69.1362 39.290497 L 67.769096 39.290497 L 66.9879 39.876404 L 66.011398 39.876404 L 62.691299 38.899902 L 59.761799 38.899902 L 58.199402 39.290497 Z M 56.637001 52.766197 L 57.2229 52.375603 L 61.714802 57.258102 L 68.745598 63.703003 L 69.526802 64.679497 L 67.183197 66.0466 L 64.448997 66.6325 L 61.714802 66.437202 L 60.542999 66.0466 L 58.199402 64.679497 L 55.855801 62.140602 L 54.879299 59.6017 L 55.0746 55.695702 Z M 99.017097 38.899902 L 97.064102 39.485802 L 94.5252 40.852898 L 92.572197 42.610603 L 90.814499 45.149498 L 89.837997 47.297798 L 88.861504 51.008499 L 89.056801 57.258102 L 89.6427 59.406403 L 91.009804 62.335899 L 92.3769 64.288902 L 94.915802 66.6325 L 96.868797 67.804298 L 99.993599 68.7808 L 105.8526 68.585503 L 107.610298 67.999603 L 110.539803 66.241898 L 113.078697 63.312401 L 114.250504 60.578201 L 112.688103 60.773499 L 111.711601 62.531197 L 109.367996 64.874802 L 108.0009 65.655998 L 106.243202 66.241898 L 101.946602 66.437202 L 99.602997 65.851303 L 98.040604 65.070099 L 95.696999 62.921799 L 94.915802 61.75 L 93.744003 59.0158 L 93.353401 56.281601 L 93.353401 49.641403 L 93.744003 46.907204 L 94.915802 44.172997 L 95.892303 42.805901 L 97.064102 41.829399 L 98.8218 40.852898 L 100.384201 40.462303 L 103.313698 40.462303 L 105.657303 41.2435 L 108.196198 43.3918 L 109.758598 45.735397 L 110.344498 47.102501 L 110.7351 49.446098 L 112.102203 49.446098 L 112.102203 39.290497 L 110.930397 39.290497 L 109.758598 40.071701 L 108.391502 40.071701 L 102.923103 38.704597 Z M 164.833206 10.581406 L 157.411804 10.776703 L 157.411804 12.143799 L 158.974197 12.143799 L 159.950699 13.1203 L 160.341293 14.096802 L 156.044693 23.275894 L 151.552795 13.901505 L 151.943405 13.1203 L 152.919907 12.143799 L 154.287003 12.143799 L 154.287003 10.581406 L 144.131393 10.776703 L 144.326706 12.143799 L 145.303207 12.143799 L 147.451508 14.096802 L 154.091705 27.377197 L 148.427994 37.532799 L 149.599792 38.314003 L 150.185699 38.314003 L 154.4823 30.111404 L 162.098999 13.901505 L 163.856705 12.143799 L 165.028503 12.143799 Z M 135.342896 10.386093 L 132.999298 11.362595 L 130.655701 13.706207 L 129.679199 15.2686 L 129.093307 16.830994 L 128.702698 18.979294 L 128.702698 21.127594 L 129.288605 23.861801 L 130.265106 25.814804 L 132.022797 27.963104 L 133.389893 28.939606 L 135.342896 29.720795 L 138.467697 29.916107 L 140.4207 29.525497 L 142.569 28.353699 L 144.7173 25.814804 L 145.693802 23.275894 L 144.326706 23.471207 L 143.936096 24.252396 L 142.178406 25.814804 L 139.248901 26.595993 L 136.319397 26.205399 L 135.147598 25.619507 L 133.389893 23.861801 L 132.608704 22.690002 L 131.827499 20.346405 L 132.022797 19.174606 L 144.326706 18.198105 L 144.326706 16.635696 L 143.936096 14.682693 L 142.569 12.339096 L 141.201904 11.167297 L 140.030106 10.581406 L 138.2724 10.190796 Z M 140.4207 12.729706 L 141.201904 15.073303 L 141.006607 17.026306 L 133.389893 17.807495 L 131.632202 17.612198 L 131.827499 16.245102 L 132.608704 14.292099 L 134.366394 12.339096 L 135.733505 11.753204 L 137.881805 11.557907 L 139.444199 11.948502 Z M 117.375298 10.386093 L 115.226997 11.362595 L 113.859901 12.925003 L 113.469299 14.096802 L 113.664597 17.221603 L 114.055199 18.002808 L 116.203499 19.955795 L 120.890701 21.908798 L 123.820198 23.471207 L 124.7967 24.643005 L 124.991997 26.010101 L 124.601402 26.986603 L 123.429604 27.963104 L 122.0625 28.353699 L 119.3283 28.158401 L 117.375298 27.1819 L 115.617599 25.424194 L 114.836403 24.057098 L 114.641098 22.8853 L 113.469299 22.8853 L 113.469299 29.3302 L 114.445801 29.3302 L 115.226997 28.744293 L 116.789398 28.744293 L 118.547096 29.525497 L 120.500099 29.916107 L 123.039001 29.720795 L 125.382599 28.548996 L 126.3591 27.377197 L 127.140297 25.619507 L 127.140297 22.690002 L 126.163803 20.932297 L 124.2108 19.369904 L 119.3283 17.416901 L 116.789398 16.049805 L 116.008202 15.2686 L 115.617599 13.901505 L 116.008202 12.729706 L 116.594101 12.143799 L 117.961197 11.557907 L 119.9142 11.557907 L 121.867203 12.339096 L 123.039001 13.315598 L 124.015503 14.487396 L 124.601402 15.854507 L 124.601402 16.440399 L 125.773201 16.440399 L 125.773201 10.776703 L 124.7967 10.776703 L 124.406097 11.167297 L 122.648399 11.167297 L 120.695396 10.386093 L 119.3283 10.190796 Z M 41.989498 10.190796 L 38.8647 11.362595 L 36.130501 14.096802 L 34.763401 17.221603 L 34.5681 21.713501 L 35.153999 24.057098 L 36.130501 26.010101 L 37.497601 27.767807 L 38.474098 28.548996 L 40.427101 29.525497 L 42.184799 29.916107 L 44.333099 29.916107 L 46.676701 29.3302 L 48.6297 28.158401 L 50.582699 25.814804 L 51.363899 24.252396 L 51.5592 23.080597 L 50.582699 23.080597 L 48.825001 25.228897 L 48.0438 25.814804 L 46.4814 26.400696 L 42.770699 26.400696 L 40.622398 25.424194 L 39.060001 23.861801 L 37.692902 20.932297 L 37.497601 18.198105 L 38.0835 15.2686 L 39.255299 13.1203 L 40.427101 12.143799 L 41.794201 11.557907 L 44.333099 11.557907 L 45.1143 11.948502 L 45.8955 12.729706 L 46.4814 14.292099 L 46.286098 17.026306 L 47.653198 16.830994 L 50.192101 12.729706 L 48.825001 11.557907 L 46.286098 10.386093 Z M 83.783699 1.207001 L 82.807198 1.597595 L 82.026001 2.378799 L 81.830704 4.331802 L 82.807198 5.698898 L 83.783699 6.089493 L 84.760201 6.089493 L 85.736702 5.698898 L 86.517899 4.917694 L 86.713203 2.769394 L 85.736702 1.597595 L 84.760201 1.207001 Z M 51.754501 0.425797 L 51.949799 1.792892 L 53.512199 1.792892 L 55.465199 3.550598 L 55.465199 26.205399 L 53.512199 27.963104 L 51.754501 27.963104 L 51.754501 29.3302 L 63.081902 29.3302 L 63.081902 27.963104 L 61.519501 27.963104 L 59.566502 26.205399 L 59.566502 18.002808 L 62.495998 15.073303 L 72.261002 29.134903 L 99.4077 29.3302 L 99.4077 27.963104 L 98.235901 27.963104 L 97.454697 27.572495 L 96.282898 26.010101 L 96.282898 16.245102 L 98.8218 13.706207 L 100.384201 12.925003 L 102.141899 12.534393 L 103.118401 12.534393 L 104.094902 12.925003 L 105.071404 13.901505 L 105.461998 14.682693 L 105.461998 26.400696 L 104.094902 27.767807 L 102.337196 27.963104 L 102.337196 29.3302 L 112.297501 29.3302 L 112.297501 27.963104 L 110.7351 27.963104 L 108.977402 26.205399 L 108.977402 14.487396 L 107.805603 11.948502 L 105.461998 10.386093 L 102.532501 10.190796 L 100.579498 10.776703 L 98.235901 12.534393 L 96.478203 14.292099 L 96.087601 13.706207 L 95.501701 10.581406 L 89.6427 10.581406 L 89.6427 12.143799 L 91.205101 12.143799 L 92.572197 13.315598 L 92.962799 14.096802 L 92.962799 26.010101 L 91.009804 27.963104 L 88.275597 27.963104 L 86.322601 26.010101 L 86.322601 10.581406 L 79.682404 10.776703 L 79.682404 12.143799 L 81.635399 12.339096 L 83.002502 13.901505 L 83.002502 26.010101 L 81.0495 27.963104 L 78.510597 27.963104 L 76.557602 26.791306 L 74.995201 25.228897 L 65.034897 11.948502 L 73.042198 3.550598 L 75.5811 1.792892 L 77.338799 1.792892 L 77.338799 0.425797 L 66.792603 0.425797 L 66.792603 1.792892 L 68.355003 1.792892 L 69.917397 3.550598 L 69.917397 4.136505 L 59.761799 15.463898 L 59.566502 3.550598 L 61.128899 1.988205 L 63.081902 1.792892 L 63.081902 0.425797 Z M 0 0.425797 L 0 1.792892 L 1.5624 1.792892 L 3.5154 3.550598 L 3.5154 26.205399 L 1.953 27.767807 L 0 27.963104 L 0 29.3302 L 8.9838 29.3302 L 8.9838 27.963104 L 7.2261 27.963104 L 5.2731 26.010101 L 5.4684 4.722397 L 15.8193 29.916107 L 26.1702 5.308304 L 26.365499 26.205399 L 24.803101 27.767807 L 22.8501 27.963104 L 22.8501 29.3302 L 33.982201 29.3302 L 33.982201 27.963104 L 32.029202 27.767807 L 30.2715 25.814804 L 30.2715 3.941193 L 32.029202 1.988205 L 33.982201 1.792892 L 33.982201 0.425797 L 26.365499 0.425797 L 18.553499 19.369904 L 17.186399 22.104095 L 16.6005 21.127594 L 8.3979 0.425797 Z"/>
    </g>
</svg>
