<?xml version="1.0" encoding="UTF-8"?>
<!-- Generated by Pixelmator Pro 3.8 -->
<svg width="250" height="110" viewBox="0 0 250 110" xmlns="http://www.w3.org/2000/svg">
    <g id="Group">
        <path id="Path" fill="#051c2c" fill-rule="evenodd" stroke="none" d="M 249.788696 65.641403 L 242.171997 65.641403 L 242.171997 67.008499 L 243.929703 67.203796 L 244.906204 68.375603 L 244.906204 69.352097 L 240.804901 78.140602 L 236.313004 69.156799 L 236.508301 68.375603 L 237.484802 67.203796 L 239.047195 67.008499 L 239.047195 65.641403 L 228.891602 65.641403 L 228.891602 67.008499 L 230.0634 67.008499 L 232.2117 68.961502 L 238.851898 82.241898 L 233.383499 92.202202 L 233.383499 92.592796 L 234.750595 93.374001 L 240.218994 83.413696 L 246.663895 69.156799 L 248.812195 67.008499 L 249.788696 67.008499 Z M 134.952301 65.641403 L 134.952301 67.008499 L 136.319397 67.008499 L 138.077103 68.766197 L 138.077103 81.265404 L 136.710007 82.827797 L 134.952301 83.023102 L 134.952301 84.390198 L 144.7173 84.194901 L 144.522003 83.023102 L 142.959595 82.827797 L 141.592499 81.265404 L 141.592499 70.914497 L 143.545502 68.766197 L 144.7173 67.985001 L 147.060898 67.399101 L 149.013901 67.985001 L 149.599792 68.5709 L 150.185699 69.938004 L 150.185699 81.070099 L 148.623306 82.827797 L 147.060898 83.023102 L 147.060898 84.390198 L 156.6306 84.390198 L 156.6306 83.023102 L 155.068207 82.827797 L 153.701096 81.460701 L 153.505798 80.874802 L 153.505798 71.109802 L 153.896393 70.328598 L 155.068207 69.156799 L 156.435303 68.180298 L 157.997696 67.594398 L 160.145996 67.594398 L 160.9272 67.985001 L 161.708405 68.766197 L 162.098999 69.742699 L 162.098999 81.265404 L 160.145996 83.023102 L 159.169495 82.827797 L 159.169495 84.390198 L 168.739197 84.194901 L 168.5439 82.827797 L 167.176804 82.827797 L 165.614395 81.265404 L 165.614395 69.547401 L 164.637894 67.203796 L 163.0755 65.8367 L 161.513107 65.250801 L 158.974197 65.250801 L 157.021194 66.031998 L 153.310501 68.766197 L 152.919907 67.399101 L 152.138702 66.4226 L 150.966904 65.641403 L 149.795105 65.250801 L 146.670303 65.250801 L 145.498505 65.641403 L 144.326706 66.4226 L 141.592499 69.156799 L 140.811295 65.641403 Z M 190.417496 67.985001 L 190.417496 68.375603 L 192.956406 71.890999 L 194.128204 71.890999 L 193.542297 69.938004 L 193.932907 67.985001 L 195.104706 66.813202 L 196.081207 66.4226 L 198.815399 66.4226 L 200.182495 67.008499 L 201.354294 68.180298 L 201.940201 69.547401 L 201.744904 73.062798 L 197.253006 73.844002 L 195.300003 74.429901 L 193.151703 75.406403 L 191.589294 76.773499 L 191.003403 77.945297 L 190.808105 79.117104 L 191.003403 81.070099 L 191.979904 83.023102 L 193.737595 84.390198 L 195.104706 84.7808 L 196.471802 84.7808 L 197.838898 84.390198 L 199.791901 83.023102 L 201.549606 80.874802 L 202.135498 80.874802 L 202.526093 84.390198 L 218.540695 84.390198 L 218.540695 83.023102 L 217.368896 83.023102 L 216.587708 82.6325 L 215.220596 81.070099 L 215.220596 71.109802 L 216.783005 69.352097 L 219.321899 67.789703 L 222.056107 67.399101 L 223.032593 67.789703 L 223.813797 68.5709 L 224.399704 69.938004 L 224.399704 81.265404 L 222.837296 82.827797 L 221.274902 83.023102 L 221.274902 84.390198 L 231.039902 84.390198 L 231.039902 83.023102 L 229.477493 82.827797 L 227.9151 81.070099 L 227.9151 69.547401 L 227.524506 68.180298 L 225.7668 66.031998 L 224.595001 65.446098 L 220.884293 65.250801 L 219.712494 65.641403 L 217.954803 66.813202 L 215.415894 69.352097 L 215.025299 68.5709 L 214.830002 66.617897 L 214.439407 65.446098 L 208.580399 65.641403 L 208.580399 67.008499 L 210.338104 67.203796 L 211.900497 68.961502 L 211.900497 81.070099 L 210.142807 82.827797 L 207.213303 82.827797 L 205.455597 81.265404 L 205.455597 69.938004 L 204.869705 68.180298 L 203.502594 66.617897 L 201.744904 65.641403 L 200.377808 65.250801 L 196.667099 65.055496 L 193.542297 65.8367 L 191.1987 67.203796 Z M 201.744904 74.234596 L 201.940201 78.726501 L 201.158997 79.8983 L 199.401306 81.460701 L 198.229507 82.0466 L 196.276505 82.0466 L 195.300003 81.460701 L 194.323502 79.8983 L 194.323502 78.140602 L 195.104706 76.578201 L 196.471802 75.6017 Z M 184.949097 65.8367 L 182.019608 65.055496 L 179.480698 65.250801 L 177.1371 66.4226 L 174.793503 69.156799 L 174.012299 65.446098 L 168.153305 65.446098 L 168.153305 67.008499 L 169.910995 67.203796 L 171.278107 68.766197 L 171.278107 90.249199 L 169.910995 91.8116 L 168.153305 92.006897 L 168.153305 93.374001 L 177.918304 93.374001 L 177.918304 92.202202 L 176.355896 92.006897 L 174.793503 90.444504 L 174.9888 81.460701 L 176.355896 83.218399 L 178.308899 84.390198 L 179.675995 84.7808 L 182.214905 84.7808 L 183.777298 84.390198 L 185.730301 83.218399 L 187.292694 81.265404 L 188.269196 79.312401 L 188.855103 77.164101 L 189.0504 75.6017 L 188.855103 72.086304 L 188.269196 69.938004 L 187.488007 68.375603 L 186.511505 67.008499 Z M 179.675995 67.399101 L 181.628998 67.399101 L 183.386703 68.180298 L 184.167892 68.961502 L 185.144394 70.7192 L 185.730301 74.820503 L 185.144394 79.312401 L 184.363205 80.874802 L 183.191406 82.0466 L 181.433701 82.827797 L 179.480698 82.827797 L 177.332397 82.0466 L 175.574707 80.288902 L 174.793503 78.531197 L 174.793503 72.281601 L 175.965302 69.938004 L 177.723007 68.180298 Z M 123.429604 65.250801 L 121.671898 65.8367 L 119.718903 67.008499 L 118.156502 68.5709 L 117.375298 69.742699 L 116.203499 73.062798 L 116.398804 77.75 L 117.961197 81.070099 L 120.109497 83.218399 L 121.867203 84.194901 L 123.820198 84.7808 L 127.335602 84.7808 L 129.288605 84.194901 L 131.046295 83.218399 L 132.218094 82.241898 L 133.585205 80.4842 L 134.757004 77.75 L 134.952301 73.258102 L 134.561707 71.500397 L 133.780502 69.742699 L 132.999298 68.5709 L 131.436905 67.008499 L 129.093307 65.641403 L 126.554398 65.055496 Z M 126.163803 66.617897 L 127.921501 67.008499 L 129.288605 67.789703 L 130.069794 68.5709 L 130.850998 69.938004 L 131.436905 73.258102 L 131.241592 78.531197 L 130.265106 80.874802 L 128.897995 82.241898 L 126.945 83.023102 L 124.406097 83.023102 L 122.257797 82.0466 L 121.476601 81.265404 L 120.500099 79.507698 L 119.9142 76.773499 L 119.9142 72.8675 L 120.304802 70.523903 L 121.476601 68.375603 L 123.429604 67.008499 Z M 55.855801 56.6576 L 55.0746 57.634102 L 54.2934 59.3918 L 54.098099 62.321297 L 54.683998 64.664902 L 56.4417 67.399101 L 54.098099 69.547401 L 52.535702 72.086304 L 51.754501 75.0158 L 51.949799 78.335899 L 52.730999 80.288902 L 53.7075 81.655998 L 55.855801 83.413696 L 57.418201 84.194901 L 59.761799 84.7808 L 63.277199 84.7808 L 66.011398 84.194901 L 68.550301 83.023102 L 70.698601 81.460701 L 72.651604 83.023102 L 74.799896 83.999603 L 76.752899 84.390198 L 80.854202 84.390198 L 80.854202 82.827797 L 79.096497 82.827797 L 73.237503 78.140602 L 74.0187 77.164101 L 75.190498 74.625198 L 75.776398 72.281601 L 75.971703 69.742699 L 76.362297 68.961502 L 78.3153 67.008499 L 79.682404 66.813202 L 79.682404 65.641403 L 69.331497 65.641403 L 69.331497 67.008499 L 70.307999 67.008499 L 71.870399 67.594398 L 72.846901 68.375603 L 73.823402 70.133301 L 73.628098 74.625198 L 72.651604 76.968803 L 72.261002 77.164101 L 66.9879 72.476898 L 59.9571 65.446098 L 58.59 64.860199 L 56.637001 62.907204 L 56.051102 61.5401 L 56.051102 59.3918 L 56.4417 58.415298 L 57.418201 57.2435 L 59.566502 56.266998 L 62.300701 56.266998 L 64.8396 57.438797 L 66.597298 59.196503 L 67.573799 60.954201 L 67.769096 62.125999 L 69.1362 62.125999 L 69.1362 55.290497 L 67.769096 55.290497 L 66.9879 55.876404 L 66.011398 55.876404 L 62.691299 54.899902 L 59.761799 54.899902 L 58.199402 55.290497 Z M 56.637001 68.766197 L 57.2229 68.375603 L 61.714802 73.258102 L 68.745598 79.703003 L 69.526802 80.679497 L 67.183197 82.0466 L 64.448997 82.6325 L 61.714802 82.437202 L 60.542999 82.0466 L 58.199402 80.679497 L 55.855801 78.140602 L 54.879299 75.6017 L 55.0746 71.695702 Z M 99.017097 54.899902 L 97.064102 55.485802 L 94.5252 56.852898 L 92.572197 58.610603 L 90.814499 61.149498 L 89.837997 63.297798 L 88.861504 67.008499 L 89.056801 73.258102 L 89.6427 75.406403 L 91.009804 78.335899 L 92.3769 80.288902 L 94.915802 82.6325 L 96.868797 83.804298 L 99.993599 84.7808 L 105.8526 84.585503 L 107.610298 83.999603 L 110.539803 82.241898 L 113.078697 79.312401 L 114.250504 76.578201 L 112.688103 76.773499 L 111.711601 78.531197 L 109.367996 80.874802 L 108.0009 81.655998 L 106.243202 82.241898 L 101.946602 82.437202 L 99.602997 81.851303 L 98.040604 81.070099 L 95.696999 78.921799 L 94.915802 77.75 L 93.744003 75.0158 L 93.353401 72.281601 L 93.353401 65.641403 L 93.744003 62.907204 L 94.915802 60.172997 L 95.892303 58.805901 L 97.064102 57.829399 L 98.8218 56.852898 L 100.384201 56.462303 L 103.313698 56.462303 L 105.657303 57.2435 L 108.196198 59.3918 L 109.758598 61.735397 L 110.344498 63.102501 L 110.7351 65.446098 L 112.102203 65.446098 L 112.102203 55.290497 L 110.930397 55.290497 L 109.758598 56.071701 L 108.391502 56.071701 L 102.923103 54.704597 Z M 164.833206 26.581406 L 157.411804 26.776703 L 157.411804 28.143799 L 158.974197 28.143799 L 159.950699 29.1203 L 160.341293 30.096802 L 156.044693 39.275894 L 151.552795 29.901505 L 151.943405 29.1203 L 152.919907 28.143799 L 154.287003 28.143799 L 154.287003 26.581406 L 144.131393 26.776703 L 144.326706 28.143799 L 145.303207 28.143799 L 147.451508 30.096802 L 154.091705 43.377197 L 148.427994 53.532799 L 149.599792 54.314003 L 150.185699 54.314003 L 154.4823 46.111404 L 162.098999 29.901505 L 163.856705 28.143799 L 165.028503 28.143799 Z M 135.342896 26.386093 L 132.999298 27.362595 L 130.655701 29.706207 L 129.679199 31.2686 L 129.093307 32.830994 L 128.702698 34.979294 L 128.702698 37.127594 L 129.288605 39.861801 L 130.265106 41.814804 L 132.022797 43.963104 L 133.389893 44.939606 L 135.342896 45.720795 L 138.467697 45.916107 L 140.4207 45.525497 L 142.569 44.353699 L 144.7173 41.814804 L 145.693802 39.275894 L 144.326706 39.471207 L 143.936096 40.252396 L 142.178406 41.814804 L 139.248901 42.595993 L 136.319397 42.205399 L 135.147598 41.619507 L 133.389893 39.861801 L 132.608704 38.690002 L 131.827499 36.346405 L 132.022797 35.174606 L 144.326706 34.198105 L 144.326706 32.635696 L 143.936096 30.682693 L 142.569 28.339096 L 141.201904 27.167297 L 140.030106 26.581406 L 138.2724 26.190796 Z M 140.4207 28.729706 L 141.201904 31.073303 L 141.006607 33.026306 L 133.389893 33.807495 L 131.632202 33.612198 L 131.827499 32.245102 L 132.608704 30.292099 L 134.366394 28.339096 L 135.733505 27.753204 L 137.881805 27.557907 L 139.444199 27.948502 Z M 117.375298 26.386093 L 115.226997 27.362595 L 113.859901 28.925003 L 113.469299 30.096802 L 113.664597 33.221603 L 114.055199 34.002808 L 116.203499 35.955795 L 120.890701 37.908798 L 123.820198 39.471207 L 124.7967 40.643005 L 124.991997 42.010101 L 124.601402 42.986603 L 123.429604 43.963104 L 122.0625 44.353699 L 119.3283 44.158401 L 117.375298 43.1819 L 115.617599 41.424194 L 114.836403 40.057098 L 114.641098 38.8853 L 113.469299 38.8853 L 113.469299 45.3302 L 114.445801 45.3302 L 115.226997 44.744293 L 116.789398 44.744293 L 118.547096 45.525497 L 120.500099 45.916107 L 123.039001 45.720795 L 125.382599 44.548996 L 126.3591 43.377197 L 127.140297 41.619507 L 127.140297 38.690002 L 126.163803 36.932297 L 124.2108 35.369904 L 119.3283 33.416901 L 116.789398 32.049805 L 116.008202 31.2686 L 115.617599 29.901505 L 116.008202 28.729706 L 116.594101 28.143799 L 117.961197 27.557907 L 119.9142 27.557907 L 121.867203 28.339096 L 123.039001 29.315598 L 124.015503 30.487396 L 124.601402 31.854507 L 124.601402 32.440399 L 125.773201 32.440399 L 125.773201 26.776703 L 124.7967 26.776703 L 124.406097 27.167297 L 122.648399 27.167297 L 120.695396 26.386093 L 119.3283 26.190796 Z M 41.989498 26.190796 L 38.8647 27.362595 L 36.130501 30.096802 L 34.763401 33.221603 L 34.5681 37.713501 L 35.153999 40.057098 L 36.130501 42.010101 L 37.497601 43.767807 L 38.474098 44.548996 L 40.427101 45.525497 L 42.184799 45.916107 L 44.333099 45.916107 L 46.676701 45.3302 L 48.6297 44.158401 L 50.582699 41.814804 L 51.363899 40.252396 L 51.5592 39.080597 L 50.582699 39.080597 L 48.825001 41.228897 L 48.0438 41.814804 L 46.4814 42.400696 L 42.770699 42.400696 L 40.622398 41.424194 L 39.060001 39.861801 L 37.692902 36.932297 L 37.497601 34.198105 L 38.0835 31.2686 L 39.255299 29.1203 L 40.427101 28.143799 L 41.794201 27.557907 L 44.333099 27.557907 L 45.1143 27.948502 L 45.8955 28.729706 L 46.4814 30.292099 L 46.286098 33.026306 L 47.653198 32.830994 L 50.192101 28.729706 L 48.825001 27.557907 L 46.286098 26.386093 Z M 83.783699 17.207001 L 82.807198 17.597595 L 82.026001 18.378799 L 81.830704 20.331802 L 82.807198 21.698898 L 83.783699 22.089493 L 84.760201 22.089493 L 85.736702 21.698898 L 86.517899 20.917694 L 86.713203 18.769394 L 85.736702 17.597595 L 84.760201 17.207001 Z M 51.754501 16.425797 L 51.949799 17.792892 L 53.512199 17.792892 L 55.465199 19.550598 L 55.465199 42.205399 L 53.512199 43.963104 L 51.754501 43.963104 L 51.754501 45.3302 L 63.081902 45.3302 L 63.081902 43.963104 L 61.519501 43.963104 L 59.566502 42.205399 L 59.566502 34.002808 L 62.495998 31.073303 L 72.261002 45.134903 L 99.4077 45.3302 L 99.4077 43.963104 L 98.235901 43.963104 L 97.454697 43.572495 L 96.282898 42.010101 L 96.282898 32.245102 L 98.8218 29.706207 L 100.384201 28.925003 L 102.141899 28.534393 L 103.118401 28.534393 L 104.094902 28.925003 L 105.071404 29.901505 L 105.461998 30.682693 L 105.461998 42.400696 L 104.094902 43.767807 L 102.337196 43.963104 L 102.337196 45.3302 L 112.297501 45.3302 L 112.297501 43.963104 L 110.7351 43.963104 L 108.977402 42.205399 L 108.977402 30.487396 L 107.805603 27.948502 L 105.461998 26.386093 L 102.532501 26.190796 L 100.579498 26.776703 L 98.235901 28.534393 L 96.478203 30.292099 L 96.087601 29.706207 L 95.501701 26.581406 L 89.6427 26.581406 L 89.6427 28.143799 L 91.205101 28.143799 L 92.572197 29.315598 L 92.962799 30.096802 L 92.962799 42.010101 L 91.009804 43.963104 L 88.275597 43.963104 L 86.322601 42.010101 L 86.322601 26.581406 L 79.682404 26.776703 L 79.682404 28.143799 L 81.635399 28.339096 L 83.002502 29.901505 L 83.002502 42.010101 L 81.0495 43.963104 L 78.510597 43.963104 L 76.557602 42.791306 L 74.995201 41.228897 L 65.034897 27.948502 L 73.042198 19.550598 L 75.5811 17.792892 L 77.338799 17.792892 L 77.338799 16.425797 L 66.792603 16.425797 L 66.792603 17.792892 L 68.355003 17.792892 L 69.917397 19.550598 L 69.917397 20.136505 L 59.761799 31.463898 L 59.566502 19.550598 L 61.128899 17.988205 L 63.081902 17.792892 L 63.081902 16.425797 Z M 0 16.425797 L 0 17.792892 L 1.5624 17.792892 L 3.5154 19.550598 L 3.5154 42.205399 L 1.953 43.767807 L 0 43.963104 L 0 45.3302 L 8.9838 45.3302 L 8.9838 43.963104 L 7.2261 43.963104 L 5.2731 42.010101 L 5.4684 20.722397 L 15.8193 45.916107 L 26.1702 21.308304 L 26.365499 42.205399 L 24.803101 43.767807 L 22.8501 43.963104 L 22.8501 45.3302 L 33.982201 45.3302 L 33.982201 43.963104 L 32.029202 43.767807 L 30.2715 41.814804 L 30.2715 19.941193 L 32.029202 17.988205 L 33.982201 17.792892 L 33.982201 16.425797 L 26.365499 16.425797 L 18.553499 35.369904 L 17.186399 38.104095 L 16.6005 37.127594 L 8.3979 16.425797 Z"/>
    </g>
</svg>
