<?xml version="1.0" encoding="UTF-8"?>
<!-- Generated by Pixelmator Pro 3.8 -->
<svg width="250" height="70" viewBox="0 0 250 70" xmlns="http://www.w3.org/2000/svg">
    <g id="Group">
        <path id="Path" fill="#000000" fill-rule="evenodd" stroke="none" d="M 29.4261 62.052902 L 29.6703 62.297096 L 29.7924 64.128601 L 29.548201 66.448502 L 29.059799 66.936897 L 30.769199 66.936897 L 30.2808 66.814796 L 30.158701 65.837997 L 30.402901 62.541298 L 30.8913 62.175003 Z M 35.531101 61.930801 L 33.6996 62.175003 L 31.746 62.175003 L 31.623899 62.419197 L 31.623899 63.029701 L 32.112301 62.541298 L 33.333302 62.541298 L 33.577499 64.861198 L 33.577499 66.692703 L 33.211201 66.936897 L 34.7985 66.814796 L 34.310101 66.692703 L 34.188 66.2043 L 34.065899 62.419197 L 35.2869 62.419197 L 35.653198 62.7855 Z M 39.926701 61.320297 L 38.827801 61.198196 L 37.728901 61.442398 L 36.752102 62.297096 L 36.385799 63.029701 L 36.263699 64.0065 L 36.752102 65.349602 L 37.728901 66.2043 L 38.0952 66.326401 L 39.8046 66.2043 L 40.781399 65.593803 L 41.391899 64.494904 L 41.269798 62.663399 L 40.9035 62.052902 Z M 38.2173 61.564499 L 39.194099 61.564499 L 39.682499 61.808701 L 40.659302 63.029701 L 40.781399 64.861198 L 40.048801 65.715897 L 39.560398 65.960098 L 38.583599 65.960098 L 38.0952 65.715897 L 37.362598 64.983299 L 36.9963 64.128601 L 36.874199 63.518097 L 36.9963 62.663399 L 37.728901 61.808701 Z M 23.8095 61.198196 L 24.1758 61.442398 L 23.931601 63.029701 L 23.3211 65.471703 L 22.832701 65.837997 L 25.152599 66.448502 L 26.1294 66.448502 L 26.862 66.2043 L 27.594601 65.593803 L 28.083 64.616997 L 28.205099 63.762299 L 27.960899 62.7855 L 27.594601 62.297096 L 26.739901 61.6866 L 24.1758 61.076103 Z M 24.9084 61.564499 L 26.495701 62.052902 L 27.106199 62.663399 L 27.4725 63.518097 L 27.4725 64.372803 L 27.2283 65.1054 L 26.6178 65.837997 L 25.7631 66.2043 L 24.6642 66.082199 L 24.053699 65.593803 L 24.42 63.151802 Z M 20.390699 59.610901 L 20.634899 59.977203 L 20.634899 60.343498 L 20.024401 61.930801 L 19.535999 62.7855 L 19.169701 63.884399 L 18.925501 64.128601 L 18.5592 64.128601 L 21.0012 65.227501 L 21.489599 64.494904 L 20.634899 64.739098 L 19.9023 64.372803 L 19.780199 63.884399 L 20.390699 62.541298 L 20.757 62.419197 L 21.245399 62.663399 L 21.6117 63.273903 L 21.978001 62.419197 L 21.123301 62.297096 L 20.634899 61.808701 L 21.3675 60.343498 L 21.978001 60.5877 L 22.344299 61.320297 L 22.588499 61.198196 L 22.832701 60.5877 Z M 45.665401 58.3899 L 43.8339 59.366699 L 43.467602 59.733002 L 43.8339 59.733002 L 44.200199 60.099297 L 45.665401 62.9076 L 45.909599 63.640198 L 45.665401 63.884399 L 45.909599 63.884399 L 47.008499 63.396004 L 47.1306 63.151802 L 46.275902 62.7855 L 45.543301 61.320297 L 46.397999 60.831902 L 47.008499 61.076103 L 46.764301 60.221397 L 45.4212 60.954002 L 44.566502 59.4888 L 45.543301 58.878304 L 46.153801 59.122498 L 45.909599 58.3899 Z M 16.2393 57.291 L 16.6056 57.779404 L 14.652 61.076103 L 13.9194 61.442398 L 14.0415 61.6866 L 14.7741 62.175003 L 15.2625 62.297096 L 14.8962 61.808701 L 15.873 60.343498 L 16.4835 60.831902 L 16.6056 62.419197 L 16.8498 63.273903 L 17.9487 64.0065 L 17.3382 63.029701 L 17.094 61.564499 L 17.216101 60.831902 L 17.7045 60.709801 L 18.437099 60.099297 L 18.681299 59.366699 L 18.5592 58.878304 L 18.315001 58.512001 Z M 17.216101 58.145699 L 17.9487 58.756203 L 18.070801 59.366699 L 17.3382 60.465599 L 16.727699 60.5877 L 15.9951 59.977203 L 16.971901 58.267799 Z M 46.764301 57.657303 L 46.6422 57.901497 L 47.1306 57.901497 L 47.496899 58.267799 L 49.3284 60.954002 L 49.4505 61.808701 L 50.793598 60.954002 L 49.816799 60.5877 L 47.7411 57.535202 L 47.863201 57.046799 Z M 12.9426 54.848999 L 11.9658 54.9711 L 11.2332 55.337402 L 10.3785 56.314201 L 10.1343 57.046799 L 10.1343 57.779404 L 10.3785 58.634102 L 11.5995 59.977203 L 12.21 60.343498 L 12.6984 60.221397 L 13.1868 59.610901 L 12.6984 59.855103 L 12.21 59.855103 L 11.1111 59.000397 L 10.7448 58.023598 L 10.7448 57.291 L 11.1111 56.436302 L 11.9658 55.581596 L 12.4542 55.337402 L 13.431 55.337402 L 14.0415 55.703697 L 14.8962 56.680496 L 15.0183 57.1689 L 14.7741 57.779404 L 15.6288 56.924698 L 14.2857 55.459503 Z M 52.502998 53.017502 L 52.1367 53.139603 L 51.404099 53.994301 L 52.014599 53.8722 L 54.4566 56.314201 L 54.212399 56.436302 L 52.258801 56.192101 L 48.962101 56.07 L 51.6483 59.000397 L 52.014599 60.099297 L 53.113499 59.000397 L 52.502998 59.122498 L 50.183102 56.802597 L 50.671501 56.680496 L 52.7472 56.924698 L 55.433399 56.924698 L 54.822899 56.07 L 52.380901 53.505898 Z M 53.723999 50.941803 L 56.288101 54.726898 L 56.532299 55.337402 L 56.288101 55.825798 L 56.6544 55.581596 L 57.2649 54.604797 L 56.410198 54.238503 L 55.799702 53.383797 L 56.776501 52.284897 L 58.608002 52.7733 L 59.340599 51.796501 L 58.3638 52.040703 L 54.334499 50.941803 Z M 54.822899 51.918602 L 55.311298 51.796501 L 55.799702 51.918602 L 56.288101 52.284897 L 55.677601 53.017502 Z M 9.768 50.5755 L 9.6459 50.941803 L 9.1575 51.430199 L 6.2271 53.505898 L 5.7387 53.383797 L 5.8608 53.750099 L 6.7155 54.726898 L 6.5934 54.238503 L 7.326 53.505898 L 9.2796 52.040703 L 10.1343 51.552299 L 10.5006 51.6744 Z M 6.7155 45.569397 L 6.8376 45.935699 L 5.3724 46.912498 L 3.1746 48.011398 L 2.8083 48.011398 L 2.5641 47.767197 L 2.6862 48.377701 L 3.9072 50.5755 L 4.7619 51.185997 L 5.9829 51.308098 L 6.9597 51.063904 L 7.9365 50.209198 L 8.1807 49.720802 L 8.3028 48.866096 L 8.0586 47.889297 L 6.9597 45.691498 Z M 7.0818 46.790398 L 7.5702 47.523003 L 7.8144 48.377701 L 7.6923 49.232399 L 7.4481 49.720802 L 6.7155 50.4534 L 5.8608 50.819702 L 5.0061 50.819702 L 4.2735 50.4534 L 3.7851 49.842903 L 3.4188 49.110298 L 3.4188 48.744003 L 3.7851 48.377701 L 5.3724 47.523003 Z M 15.9951 45.447304 L 15.6288 45.203102 L 14.652 45.203102 L 13.7973 45.813599 L 13.6752 46.424103 L 14.0415 46.790398 L 15.6288 46.302002 Z M 15.2625 45.935699 L 14.5299 46.424103 L 14.1636 46.302002 L 14.1636 46.0578 L 14.652 45.569397 L 15.0183 45.569397 Z M 57.631199 44.348396 L 56.898602 45.569397 L 57.2649 45.325203 L 57.631199 45.325203 L 60.5616 46.668297 L 60.195301 46.912498 L 55.433399 48.377701 L 55.677601 48.621902 L 59.096401 50.209198 L 59.706902 50.697601 L 59.706902 51.063904 L 60.195301 50.331299 L 60.317402 49.598701 L 60.0732 49.964996 L 59.584801 49.964996 L 57.020699 48.866096 L 57.020699 48.499802 L 61.294201 47.1567 L 61.7826 46.790398 L 57.7533 44.8368 Z M 50.183102 43.493698 L 50.061001 43.982101 L 51.0378 44.714699 L 51.404099 44.714699 L 52.014599 44.226303 L 51.892502 43.860001 L 50.915699 43.249496 L 50.5494 43.249496 Z M 50.5494 43.615799 L 50.915699 43.615799 L 51.404099 43.982101 L 50.793598 44.226303 L 50.5494 44.104202 Z M 29.914499 42.028503 L 29.7924 42.272697 L 30.2808 43.371597 L 30.525 43.371597 Z M 58.730099 40.074898 L 58.3638 40.807503 L 57.7533 43.371597 L 58.730099 43.7379 L 58.241699 42.883202 L 58.485901 41.662201 L 58.730099 41.173798 L 58.9743 41.173798 L 62.393101 44.8368 L 63.3699 41.417999 L 63.125702 41.173798 L 62.393101 40.929604 L 62.8815 41.784302 L 62.515202 43.371597 L 62.148899 43.7379 Z M 0.1221 39.830704 L 0.6105 41.173798 L 0.7326 40.807503 L 2.1978 40.929604 L 2.5641 41.5401 L 2.6862 42.272697 L 2.0757 42.761101 L 0.9768 43.249496 L 1.0989 44.104202 L 1.3431 44.592598 L 1.3431 44.226303 L 2.3199 43.249496 L 5.6166 41.051697 L 4.884 40.807503 L 0.8547 40.319099 Z M 2.6862 41.051697 L 2.9304 40.929604 L 4.3956 41.173798 L 3.7851 41.662201 L 2.9304 41.906403 Z M 52.991402 39.2202 L 52.7472 39.586502 L 52.7472 39.952797 L 53.113499 40.319099 L 53.723999 40.319099 L 53.968201 39.952797 L 53.8461 39.2202 L 53.601898 39.098099 Z M 34.554298 38.975998 L 34.432201 39.464401 L 34.676399 40.563301 L 35.042702 41.295898 L 35.409 41.662201 L 35.653198 41.662201 L 35.2869 41.173798 L 35.042702 39.830704 Z M 35.653198 38.853897 L 36.263699 41.051697 L 36.874199 41.662201 L 37.118401 41.662201 L 36.5079 40.563301 L 36.385799 39.830704 L 36.019501 39.098099 Z M 23.931601 38.853897 L 24.9084 39.952797 L 27.2283 41.173798 L 28.083 41.051697 L 26.862 40.807503 L 26.495701 40.4412 L 25.0305 39.708603 L 24.9084 39.3423 L 25.641001 38.853897 L 25.885201 38.853897 L 26.862 39.708603 L 26.495701 38.853897 L 25.885201 38.609703 L 25.2747 38.609703 L 24.9084 38.975998 Z M 58.730099 38.243401 L 58.730099 39.2202 L 59.096401 38.853897 L 61.7826 39.098099 L 63.3699 39.464401 L 63.492001 39.830704 L 63.736198 38.975998 L 63.736198 38.1213 L 63.492001 38.609703 L 63.247799 38.731796 L 59.340599 38.243401 L 59.096401 38.1213 L 58.9743 37.754997 Z M 36.874199 37.632896 L 36.874199 38.1213 L 37.118401 38.487602 L 37.362598 39.586502 L 38.339401 40.685402 L 38.583599 40.685402 L 37.851002 39.952797 L 37.118401 37.877098 Z M 10.3785 37.266602 L 10.5006 37.754997 L 10.8669 38.1213 L 11.4774 38.365501 L 13.1868 38.487602 L 13.6752 38.243401 L 13.5531 37.510803 L 12.5763 37.0224 L 11.1111 36.900299 L 10.5006 37.0224 Z M 11.5995 37.388702 L 12.8205 37.632896 L 12.9426 37.999199 L 12.6984 38.243401 L 12.0879 38.1213 L 11.5995 37.877098 Z M 0.3663 35.435097 L 0 36.167702 L 0 38.365501 L 0.2442 38.853897 L 1.221 38.975998 L 1.221 38.731796 L 0.7326 38.609703 L 0.3663 38.1213 L 0.2442 37.632896 L 0.3663 36.533997 L 1.4652 35.313004 L 2.1978 35.068802 L 3.2967 35.068802 L 4.3956 35.801399 L 4.6398 36.289803 L 4.6398 37.877098 L 4.1514 38.487602 L 3.9072 38.487602 L 3.663 38.731796 L 4.884 38.731796 L 5.0061 36.656097 L 4.884 36.045601 L 4.2735 35.068802 L 3.1746 34.458298 L 1.8315 34.458298 L 0.9768 34.8246 Z M 63.858299 37.266602 L 63.858299 35.9235 L 63.614101 36.167702 L 63.125702 36.167702 L 62.148899 35.801399 L 62.026798 34.458298 L 62.515202 34.092003 L 63.858299 33.7257 L 63.736198 32.382599 L 63.736198 32.626801 L 63.3699 33.115196 L 58.8522 34.946701 L 59.096401 35.190903 L 62.759399 36.411903 L 63.492001 36.778198 Z M 61.6605 34.458298 L 61.7826 35.068802 L 61.538399 35.679298 L 60.439499 35.313004 L 60.195301 35.068802 Z M 27.8388 32.382599 L 27.7167 32.871002 L 27.8388 33.7257 L 28.205099 34.214104 L 28.449301 34.214104 L 28.205099 33.6036 L 28.205099 32.626801 L 28.083 32.382599 Z M 42.1245 28.353302 L 42.6129 28.841705 L 42.979198 28.841705 L 43.345501 28.353302 L 42.979198 28.597504 L 42.6129 28.475403 L 42.490799 27.987 Z M 0.7326 27.864899 L 0.4884 29.330093 L 0.7326 28.963806 L 2.3199 28.963806 L 4.1514 29.330093 L 0.3663 32.016296 L 0 32.5047 L 4.3956 33.237297 L 4.7619 33.7257 L 5.0061 32.260498 L 4.7619 32.382599 L 4.6398 32.748901 L 2.0757 32.5047 L 1.221 32.260498 L 4.884 29.696396 L 5.4945 29.085907 L 1.221 28.475403 L 0.7326 28.1091 Z M 31.501801 27.742798 L 32.112301 27.620697 L 31.746 27.498596 Z M 62.8815 26.766006 L 62.759399 27.498596 L 61.1721 29.330093 L 60.195301 28.963806 L 59.340599 28.963806 L 58.730099 29.452194 L 58.608002 30.795303 L 58.9743 32.382599 L 58.9743 32.016296 L 59.584801 31.649994 L 62.637299 31.161606 L 63.3699 31.161606 L 63.736198 31.405807 L 63.614101 30.3069 L 63.3699 29.818497 L 63.247799 30.429001 L 61.538399 30.673203 L 61.416302 29.940598 L 62.637299 28.719604 L 63.125702 27.987 L 63.125702 27.254395 Z M 61.1721 29.940598 L 61.294201 30.673203 L 61.049999 30.917404 L 59.584801 31.161606 L 58.9743 31.039505 L 58.8522 30.429001 L 59.096401 29.940598 L 59.584801 29.574295 L 60.5616 29.452194 Z M 31.3797 26.766006 L 31.9902 26.766006 L 32.6007 27.376495 L 33.821701 27.376495 L 34.310101 27.132294 L 34.7985 27.132294 L 35.409 27.376495 L 35.042702 26.888107 L 33.577499 27.010193 L 33.333302 26.766006 L 33.333302 26.521805 L 32.966999 26.888107 L 32.6007 26.888107 L 32.356499 26.643906 Z M 165.567596 25.178696 L 166.544403 25.300797 L 167.276993 26.033401 L 167.276993 39.3423 L 167.032806 40.196999 L 166.666504 40.563301 L 165.811798 40.685402 L 165.811798 40.929604 L 172.7715 40.929604 L 174.847198 39.952797 L 175.824005 38.853897 L 176.312393 37.877098 L 176.556595 36.656097 L 176.434494 35.313004 L 175.824005 33.969902 L 174.602997 32.748901 L 173.137802 32.016296 L 173.015701 31.772095 L 173.748306 31.039505 L 174.725098 29.330093 L 174.847198 27.620697 L 174.480896 26.643906 L 173.382004 25.544998 L 171.672607 24.934494 Z M 169.230606 32.5047 L 171.672607 32.626801 L 172.7715 33.237297 L 173.870407 34.458298 L 174.480896 35.801399 L 174.602997 38.1213 L 174.236694 38.975998 L 173.259903 39.952797 L 172.038895 40.319099 L 171.062103 40.319099 L 169.963196 40.074898 L 169.230606 39.464401 L 169.108505 39.098099 Z M 169.474792 25.544998 L 170.940002 25.544998 L 171.550507 25.7892 L 172.527298 26.643906 L 172.8936 27.376495 L 173.137802 28.231201 L 173.015701 30.184799 L 172.527298 31.161606 L 171.672607 31.772095 L 170.329498 31.894196 L 169.352707 31.772095 L 169.108505 31.527893 L 169.230606 25.667099 Z M 136.8741 25.056595 L 137.240402 25.300797 L 137.973007 25.422897 L 138.339294 25.7892 L 138.461395 26.277603 L 138.461395 39.2202 L 138.217194 40.196999 L 137.850906 40.563301 L 136.996201 40.685402 L 136.996201 40.929604 L 142.368607 40.929604 L 142.368607 40.685402 L 140.903397 40.4412 L 140.537094 39.952797 L 140.414993 39.3423 L 140.414993 26.033401 L 141.025497 25.300797 L 141.880203 25.178696 L 141.758102 24.934494 Z M 116.361298 25.178696 L 117.338097 25.300797 L 117.948601 25.667099 L 118.192802 27.498596 L 118.070702 39.708603 L 117.704399 40.4412 L 116.7276 40.685402 L 116.7276 40.929604 L 122.222099 41.173798 L 125.885101 41.051697 L 127.228203 40.685402 L 128.815506 39.952797 L 130.769104 38.243401 L 131.501694 37.144501 L 132.234299 35.313004 L 132.600601 33.359398 L 132.600601 32.016296 L 132.234299 30.184799 L 131.623795 28.719604 L 131.013306 27.864899 L 129.670197 26.521805 L 127.838699 25.544998 L 125.030403 24.934494 Z M 120.634804 25.667099 L 124.419899 25.7892 L 126.007202 26.277603 L 127.838699 27.376495 L 128.937607 28.475403 L 130.036499 30.3069 L 130.524902 31.894196 L 130.647003 32.871002 L 130.402802 35.557198 L 130.036499 36.656097 L 129.059692 38.243401 L 127.9608 39.2202 L 126.8619 39.830704 L 125.152496 40.319099 L 121.977898 40.319099 L 120.756897 39.952797 L 120.1464 39.2202 L 120.0243 37.999199 L 120.0243 26.155502 L 120.1464 25.911301 Z M 111.233101 24.690308 L 110.500504 24.934494 L 102.319801 24.934494 L 102.319801 25.178696 L 103.2966 25.300797 L 103.785004 25.544998 L 104.151299 26.155502 L 104.151299 39.098099 L 104.029198 39.952797 L 103.540802 40.563301 L 102.686096 40.685402 L 102.686096 40.929604 L 104.3955 40.929604 L 104.517601 41.051697 L 111.355202 40.929604 L 111.721497 39.464401 L 111.721497 38.1213 L 111.477303 38.1213 L 111.233101 39.098099 L 110.622597 39.830704 L 110.0121 40.074898 L 108.546898 40.196999 L 106.715401 39.952797 L 106.226997 39.464401 L 105.982803 38.487602 L 105.982803 34.702499 L 106.226997 32.871002 L 109.523697 32.993103 L 110.134201 33.359398 L 110.378403 34.458298 L 110.622597 34.458298 L 110.866798 31.405807 L 110.622597 31.405807 L 110.134201 31.894196 L 109.035301 32.016296 L 106.104897 31.894196 L 106.226997 25.7892 L 109.035301 25.7892 L 110.0121 26.033401 L 110.500504 26.521805 L 110.622597 27.498596 L 110.988899 27.498596 Z M 62.271 24.690308 L 62.148899 25.056595 L 61.6605 25.422897 L 58.119598 26.521805 L 57.509102 26.277603 L 57.997501 27.620697 L 57.997501 27.376495 L 58.241699 27.132294 L 62.148899 25.911301 L 62.637299 26.155502 Z M 241.391693 24.812393 L 235.897202 39.708603 L 234.920395 40.563301 L 233.821503 40.685402 L 233.821503 40.929604 L 238.583405 40.929604 L 238.583405 40.685402 L 237.728699 40.563301 L 237.362396 40.074898 L 237.362396 39.708603 L 238.705505 35.435097 L 239.193893 34.702499 L 243.833694 34.8246 L 245.054703 37.877098 L 245.298904 38.853897 L 245.665207 39.464401 L 245.909393 40.319099 L 245.665207 40.929604 L 249.938705 40.929604 L 249.938705 40.685402 L 248.717697 40.4412 L 247.740906 39.464401 L 246.519897 36.778198 L 246.031494 35.190903 L 245.421005 33.969902 L 245.176804 32.993103 L 244.444199 31.405807 L 241.880096 24.690308 Z M 241.513794 28.231201 L 242.124298 30.184799 L 242.734802 31.527893 L 243.345306 33.969902 L 239.438095 33.6036 L 241.025406 28.597504 Z M 220.512604 26.277603 L 218.803207 28.231201 L 218.070602 29.696396 L 217.582199 31.649994 L 217.582199 33.969902 L 217.826401 35.313004 L 219.047394 37.877098 L 220.0242 38.975998 L 221.367294 39.952797 L 222.954605 40.685402 L 224.175598 41.051697 L 226.129196 41.295898 L 228.082794 41.295898 L 230.280594 41.051697 L 231.257401 40.685402 L 231.501602 40.4412 L 231.745804 39.464401 L 231.867905 37.144501 L 231.623703 37.266602 L 231.013199 38.975998 L 230.402695 39.586502 L 229.303802 40.074898 L 226.007095 40.196999 L 224.175598 39.708603 L 222.588303 38.731796 L 221.001007 37.144501 L 220.0242 35.435097 L 219.535797 33.359398 L 219.535797 31.161606 L 220.146301 28.719604 L 220.756805 27.742798 L 221.977798 26.521805 L 223.442993 25.7892 L 224.4198 25.544998 L 226.983902 25.422897 L 229.181702 25.911301 L 230.158493 26.399704 L 231.013199 27.254395 L 231.379501 28.353302 L 231.379501 28.963806 L 231.501602 29.207993 L 231.745804 29.207993 L 231.990005 25.667099 L 231.867905 25.178696 L 227.716507 24.568207 L 225.274506 24.568207 L 224.297699 24.690308 L 222.222 25.300797 Z M 198.290405 24.568207 L 198.168304 24.934494 L 198.046204 39.830704 L 197.435699 40.563301 L 196.458893 40.685402 L 196.458893 40.929604 L 201.464996 40.929604 L 201.464996 40.685402 L 200.121902 40.4412 L 199.7556 40.074898 L 199.511398 39.464401 L 199.145096 29.818497 L 199.267197 28.1091 L 206.959503 36.533997 L 211.477203 41.051697 L 211.965607 41.051697 L 212.087708 25.911301 L 212.453995 25.422897 L 213.552902 25.056595 L 208.6689 25.178696 L 210.134094 25.422897 L 210.622498 26.033401 L 210.866699 31.405807 L 210.744598 37.754997 L 198.656693 24.690308 Z M 186.202499 24.690308 L 180.830093 39.3423 L 180.219604 40.196999 L 179.6091 40.563301 L 178.510193 40.685402 L 178.632294 40.929604 L 183.394196 40.807503 L 182.539505 40.563301 L 182.173203 40.196999 L 182.173203 39.586502 L 183.760498 34.8246 L 188.400299 34.702499 L 188.766602 35.190903 L 189.743393 37.999199 L 190.109695 38.609703 L 190.598099 40.074898 L 190.475998 40.929604 L 194.749496 40.929604 L 194.627396 40.685402 L 193.772705 40.563301 L 193.284302 40.319099 L 192.551697 39.586502 L 190.8423 35.679298 L 187.301407 26.155502 L 186.568802 24.568207 Z M 186.080399 27.987 L 186.3246 28.231201 L 187.789795 32.748901 L 188.156097 33.481499 L 188.033997 33.847801 L 187.301407 33.969902 L 184.126801 33.847801 L 184.615204 32.016296 L 185.225693 30.551102 L 185.836197 28.353302 Z M 153.113403 24.568207 L 151.159805 25.056595 L 149.938797 25.667099 L 148.229401 27.254395 L 147.496796 28.353302 L 146.642105 30.429001 L 146.397903 31.649994 L 146.397903 34.336197 L 147.130493 36.900299 L 147.740997 38.1213 L 148.595703 39.2202 L 149.450394 39.952797 L 150.915604 40.807503 L 152.136597 41.173798 L 154.456497 41.295898 L 155.799606 41.051697 L 157.509003 40.319099 L 158.974197 39.2202 L 159.951004 37.999199 L 160.561493 36.900299 L 161.171997 35.190903 L 161.416199 33.7257 L 161.416199 31.405807 L 161.171997 30.062698 L 160.317307 27.987 L 159.828903 27.254395 L 158.729996 26.155502 L 157.875305 25.544998 L 156.043793 24.812393 L 154.8228 24.568207 Z M 152.625 25.422897 L 154.700699 25.422897 L 155.555405 25.667099 L 156.654297 26.277603 L 157.997406 27.620697 L 158.729996 28.841705 L 159.462601 31.405807 L 159.462601 34.946701 L 159.218399 36.289803 L 158.607895 37.754997 L 158.119507 38.487602 L 157.1427 39.464401 L 156.043793 40.074898 L 154.578598 40.4412 L 153.845993 40.4412 L 152.380798 40.074898 L 151.281906 39.464401 L 150.305099 38.609703 L 149.572495 37.632896 L 148.717804 35.9235 L 148.229401 33.481499 L 148.351501 30.429001 L 148.717804 28.963806 L 149.328293 27.742798 L 150.915604 26.155502 L 151.770294 25.667099 Z M 81.440697 24.690308 L 81.196503 25.7892 L 80.8302 30.184799 L 80.341797 33.359398 L 79.7313 39.464401 L 79.487099 40.196999 L 79.120796 40.563301 L 78.143997 40.685402 L 78.143997 40.929604 L 82.661697 40.685402 L 81.440697 40.4412 L 81.074402 39.708603 L 81.440697 34.580399 L 81.806999 32.016296 L 81.806999 30.673203 L 82.051201 29.330093 L 82.783798 30.551102 L 83.760597 32.871002 L 87.667801 40.685402 L 87.912003 40.929604 L 88.156197 40.929604 L 92.0634 32.626801 L 93.894897 29.207993 L 94.2612 31.527893 L 94.993797 39.830704 L 94.871696 40.807503 L 99.267303 40.929604 L 99.267303 40.685402 L 98.046303 40.563301 L 97.557899 40.319099 L 97.069504 39.830704 L 96.825302 39.2202 L 95.970596 32.5047 L 95.237999 25.056595 L 94.871696 24.568207 L 93.528603 27.132294 L 88.766701 37.510803 L 88.400398 37.999199 L 88.034103 37.510803 L 81.9291 24.812393 L 81.684898 24.568207 Z M 34.920601 23.957703 L 34.920601 24.201904 L 35.164799 24.446106 L 36.141602 24.446106 L 36.9963 24.690308 L 36.752102 24.446106 L 36.263699 24.324005 L 35.2869 24.324005 Z M 34.920601 22.614594 L 34.432201 23.5914 L 34.7985 23.5914 L 34.7985 23.225098 L 35.042702 23.102997 Z M 0.8547 27.010193 L 1.7094 26.521805 L 6.105 26.399704 L 6.3492 26.277603 L 5.8608 25.667099 L 2.5641 22.980896 L 2.5641 22.370407 L 2.1978 22.980896 L 2.0757 23.835602 L 2.442 23.5914 L 3.663 24.568207 L 3.2967 25.7892 L 1.3431 25.7892 Z M 3.7851 25.178696 L 4.0293 24.812393 L 5.2503 25.667099 L 4.5177 25.911301 L 3.7851 25.422897 Z M 32.234402 21.882004 L 32.722801 21.882004 L 32.966999 22.126205 L 32.966999 22.736694 L 33.0891 22.004105 L 32.966999 21.759903 Z M 47.1306 21.3936 L 46.6422 21.3936 L 46.397999 21.637802 L 46.397999 21.882004 L 46.886398 22.004105 Z M 35.775299 20.783096 L 35.8974 21.882004 L 36.141602 22.126205 L 36.263699 21.2715 Z M 34.310101 20.416794 L 34.310101 20.783096 L 34.7985 20.783096 Z M 58.241699 19.562103 L 57.142799 19.928406 L 56.288101 20.660995 L 55.921799 21.2715 L 55.921799 22.736694 L 56.410198 23.713501 L 57.020699 24.324005 L 57.875401 24.690308 L 58.9743 24.690308 L 59.951099 24.324005 L 60.805801 23.469299 L 61.049999 22.614594 L 61.049999 21.759903 L 60.927898 21.2715 L 60.317402 20.294693 L 59.340599 19.684204 Z M 59.706902 20.294693 L 60.317402 20.783096 L 60.5616 21.2715 L 60.5616 22.492493 L 60.317402 22.980896 L 58.9743 24.079803 L 58.485901 24.201904 L 57.2649 24.079803 L 56.532299 23.347198 L 56.288101 22.736694 L 56.288101 22.126205 L 56.532299 21.515701 L 57.142799 20.783096 L 58.3638 20.172607 Z M 4.1514 19.0737 L 3.4188 20.538895 L 3.5409 21.882004 L 4.1514 22.370407 L 5.2503 22.370407 L 5.7387 22.004105 L 5.9829 22.492493 L 6.5934 23.102997 L 7.326 23.102997 L 7.6923 22.858795 L 8.4249 21.759903 L 8.6691 20.905197 L 8.3028 21.2715 L 4.7619 19.440002 L 4.3956 19.0737 L 4.5177 18.829498 Z M 6.105 21.515701 L 6.4713 21.027298 L 7.6923 21.637802 L 7.9365 22.004105 L 7.4481 22.492493 L 6.7155 22.492493 L 6.105 22.004105 Z M 3.663 20.660995 L 4.1514 19.928406 L 4.3956 19.928406 L 5.8608 20.660995 L 6.105 21.027298 L 5.3724 21.759903 L 4.3956 21.759903 L 3.7851 21.2715 Z M 45.909599 18.463196 L 44.566502 17.486404 L 43.7118 18.218994 L 42.979198 18.585297 L 43.467602 19.806305 L 45.4212 19.806305 L 45.543301 19.0737 L 45.909599 18.829498 Z M 45.4212 18.951599 L 44.9328 19.440002 L 43.589699 19.317902 L 43.7118 18.707397 L 44.200199 18.585297 L 44.444401 18.341095 L 44.9328 18.463196 Z M 35.653198 15.899094 L 34.7985 16.631699 L 34.310101 16.631699 L 33.943802 16.387497 L 34.432201 16.8759 L 34.7985 16.998001 L 35.409 16.509598 Z M 55.311298 12.846603 L 54.822899 12.846603 L 51.0378 14.556 L 50.427299 14.678101 L 50.061001 14.433899 L 50.427299 15.044403 L 51.0378 15.532806 L 51.0378 15.044403 L 52.258801 14.433899 L 52.502998 14.433899 L 53.3577 15.288605 L 53.3577 15.654907 L 52.502998 17.120102 L 53.113499 17.852707 L 53.479801 17.974792 L 53.3577 16.998001 Z M 54.334499 13.701294 L 53.723999 14.800201 L 53.479801 14.922302 L 52.991402 14.067596 L 53.479801 13.823395 Z M 28.9377 11.015106 L 27.960899 11.381393 L 27.350401 11.381393 L 26.9841 11.625595 L 25.5189 11.991898 L 24.542101 12.602402 L 24.1758 12.602402 L 22.832701 13.212906 L 20.634899 13.701294 L 19.0476 14.433899 L 17.582399 14.800201 L 16.971901 15.410706 L 13.6752 17.730606 L 11.3553 20.416794 L 9.1575 24.079803 L 8.7912 25.667099 L 8.547 26.033401 L 8.4249 27.132294 L 7.5702 29.452194 L 7.5702 31.039505 L 7.326 31.894196 L 7.326 36.411903 L 7.8144 42.028503 L 8.7912 43.7379 L 9.5238 45.813599 L 10.1343 46.546204 L 10.2564 47.034599 L 11.5995 49.3545 L 12.4542 50.4534 L 14.1636 52.162804 L 15.9951 53.505898 L 16.727699 54.238503 L 21.733801 57.291 L 23.3211 57.901497 L 27.4725 58.756203 L 31.9902 59.000397 L 38.2173 59.000397 L 39.194099 58.634102 L 39.438301 58.3899 L 40.292999 58.3899 L 40.781399 58.023598 L 41.147701 58.023598 L 42.002399 57.657303 L 45.054901 55.703697 L 45.787498 55.703697 L 47.1306 55.215302 L 48.595798 54.116402 L 49.694698 52.895401 L 52.258801 48.988197 L 52.991402 47.278801 L 54.822899 44.226303 L 55.677601 42.028503 L 55.921799 40.807503 L 56.288101 40.196999 L 56.776501 37.754997 L 56.898602 33.115196 L 56.6544 32.626801 L 56.288101 30.429001 L 55.5555 27.987 L 54.700802 25.911301 L 53.601898 23.957703 L 53.479801 23.225098 L 52.991402 22.248306 L 50.671501 19.317902 L 48.717899 17.242203 L 41.880299 12.968704 L 40.292999 12.3582 L 39.438301 12.236099 L 38.339401 11.625595 L 34.676399 11.015106 Z M 34.554298 57.046799 L 35.164799 57.046799 L 35.2869 57.535202 L 34.432201 57.413101 Z M 27.4725 57.1689 L 27.594601 56.802597 L 27.960899 56.802597 L 28.205099 57.046799 L 27.960899 57.291 Z M 32.112301 54.848999 L 32.6007 55.215302 L 32.4786 55.825798 L 31.9902 55.947899 L 31.746 55.703697 L 31.746 55.215302 Z M 35.164799 53.8722 L 36.019501 54.116402 L 35.775299 54.604797 L 36.141602 55.093201 L 37.362598 55.215302 L 37.851002 55.581596 L 37.728901 56.436302 L 36.9963 57.1689 L 36.385799 56.924698 L 36.752102 56.558403 L 36.752102 56.192101 L 36.5079 55.947899 L 34.7985 55.215302 L 34.432201 54.848999 L 34.432201 54.482697 Z M 28.5714 54.482697 L 28.449301 54.848999 L 28.083 54.848999 L 27.7167 54.604797 L 26.862 54.9711 L 26.3736 54.848999 L 26.3736 54.604797 L 26.6178 54.360603 L 27.960899 53.8722 Z M 42.490799 53.750099 L 42.735001 53.750099 L 43.345501 54.482697 L 43.345501 55.093201 L 43.101299 55.337402 L 42.6129 55.337402 L 42.246601 54.9711 L 42.246601 53.994301 Z M 36.385799 53.750099 L 36.752102 53.505898 L 37.362598 53.627998 L 37.240501 53.994301 L 36.630001 53.994301 Z M 30.2808 53.750099 L 30.525 53.505898 L 31.013399 53.505898 L 31.257601 53.750099 L 31.013399 53.994301 L 30.6471 53.994301 Z M 40.048801 53.017502 L 39.3162 55.703697 L 38.827801 56.436302 L 38.339401 56.436302 L 38.339401 55.825798 L 37.973099 55.215302 L 37.484699 54.9711 L 37.362598 54.482697 L 38.0952 54.360603 L 38.339401 53.505898 L 38.827801 52.895401 Z M 23.198999 55.947899 L 24.1758 54.604797 L 24.6642 53.017502 L 24.9084 52.7733 L 25.885201 53.139603 L 26.3736 53.750099 L 25.396799 55.215302 L 25.396799 55.825798 L 26.3736 55.703697 L 27.350401 55.337402 L 27.7167 55.337402 L 28.5714 55.825798 L 28.9377 55.459503 L 29.304001 54.482697 L 29.7924 54.360603 L 30.402901 54.482697 L 30.6471 54.726898 L 30.769199 56.802597 L 30.8913 56.192101 L 31.3797 56.192101 L 31.623899 56.558403 L 31.9902 56.558403 L 32.234402 56.314201 L 33.333302 55.947899 L 33.333302 54.604797 L 33.0891 54.360603 L 32.4786 54.360603 L 32.234402 54.116402 L 32.234402 53.8722 L 32.4786 53.627998 L 33.333302 53.627998 L 33.821701 53.8722 L 33.943802 55.215302 L 34.676399 55.703697 L 35.775299 55.947899 L 36.019501 56.558403 L 34.920601 56.558403 L 34.432201 56.314201 L 33.943802 56.314201 L 33.211201 57.535202 L 31.623899 57.535202 L 30.769199 57.046799 L 30.525 57.413101 L 29.1819 57.535202 L 28.449301 56.558403 L 28.083 56.314201 L 27.594601 56.314201 L 26.3736 56.924698 L 26.007299 56.924698 L 23.687401 56.314201 Z M 23.8095 52.651199 L 23.931601 53.750099 L 23.5653 54.726898 L 23.0769 55.215302 L 21.978001 55.337402 L 21.733801 55.093201 L 21.733801 54.116402 L 22.2222 53.383797 L 22.9548 52.651199 L 23.3211 52.529099 Z M 39.682499 55.947899 L 39.926701 55.581596 L 39.926701 54.9711 L 40.292999 54.360603 L 40.659302 52.7733 L 41.147701 52.162804 L 42.1245 52.162804 L 42.490799 52.529099 L 44.3223 53.383797 L 45.299099 54.116402 L 44.688599 54.726898 L 44.200199 54.848999 L 42.857101 53.383797 L 42.002399 53.017502 L 41.758202 53.261703 L 41.636101 53.750099 L 42.002399 55.581596 L 41.758202 55.825798 L 40.9035 55.947899 L 40.537201 56.192101 L 39.926701 56.192101 Z M 42.368698 51.552299 L 42.6129 51.308098 L 43.467602 51.308098 L 44.200199 51.6744 L 44.810699 52.284897 L 44.9328 53.139603 L 44.688599 53.383797 L 42.979198 52.284897 Z M 44.444401 49.598701 L 44.688599 49.598701 L 44.9328 49.842903 L 44.9328 50.331299 L 45.543301 51.308098 L 46.886398 52.529099 L 46.886398 52.895401 L 46.397999 53.383797 L 45.909599 53.383797 L 44.9328 51.918602 L 44.078098 51.063904 L 43.7118 50.941803 L 43.589699 50.4534 L 43.7118 50.209198 Z M 38.339401 50.941803 L 37.973099 51.308098 L 37.240501 51.430199 L 36.141602 51.918602 L 34.554298 51.796501 L 34.188 51.430199 L 34.432201 51.185997 L 35.409 50.819702 L 36.5079 49.842903 L 36.9963 49.598701 L 37.6068 49.598701 L 38.0952 50.087097 Z M 19.780199 48.011398 L 20.2686 48.011398 L 20.879101 48.377701 L 22.7106 50.331299 L 23.443199 50.819702 L 24.9084 51.185997 L 27.7167 52.651199 L 29.6703 53.139603 L 30.0366 53.505898 L 29.7924 53.750099 L 29.304001 53.750099 L 27.2283 53.261703 L 23.8095 51.552299 L 22.4664 50.697601 L 20.1465 48.866096 L 19.6581 48.2556 Z M 31.868099 47.645103 L 33.455399 49.3545 L 33.6996 49.842903 L 33.943802 51.063904 L 33.455399 51.430199 L 33.0891 51.430199 L 32.6007 51.063904 L 31.9902 49.720802 L 31.868099 48.866096 L 31.501801 48.133499 L 31.501801 47.889297 Z M 18.437099 47.645103 L 18.925501 48.2556 L 18.8034 48.866096 L 16.4835 51.308098 L 15.873 51.430199 L 14.4078 49.964996 L 14.2857 49.232399 L 15.2625 48.133499 L 16.117201 47.767197 L 17.4603 47.523003 Z M 43.7118 47.034599 L 43.589699 47.400902 L 42.246601 48.499802 L 41.391899 48.377701 L 41.269798 47.400902 L 41.636101 47.034599 L 43.467602 46.790398 Z M 30.6471 46.179901 L 31.257601 46.790398 L 31.257601 48.499802 L 31.868099 50.331299 L 31.746 51.063904 L 30.8913 50.941803 L 30.6471 50.697601 L 29.7924 48.744003 L 29.059799 48.011398 L 28.5714 47.889297 L 28.5714 47.400902 Z M 31.3797 45.325203 L 31.746 45.325203 L 32.234402 45.691498 L 32.234402 45.935699 L 33.211201 47.278801 L 33.577499 48.133499 L 34.7985 49.598701 L 35.164799 50.4534 L 34.920601 50.697601 L 34.676399 50.697601 L 34.188 50.209198 L 34.065899 49.842903 L 33.455399 49.232399 L 33.333302 48.866096 L 32.356499 47.767197 L 31.1355 45.935699 L 31.1355 45.569397 Z M 47.863201 44.9589 L 48.2295 45.325203 L 48.595798 46.424103 L 47.618999 47.400902 L 47.496899 48.011398 L 47.985298 48.499802 L 49.4505 48.011398 L 50.305199 48.011398 L 50.5494 48.2556 L 50.427299 48.988197 L 49.694698 49.964996 L 49.084202 50.209198 L 49.3284 49.3545 L 48.84 48.988197 L 48.473701 48.988197 L 47.252701 49.476601 L 46.764301 49.476601 L 46.153801 48.988197 L 46.153801 47.645103 L 46.764301 46.668297 L 47.252701 45.447304 Z M 17.094 45.081001 L 17.826599 46.0578 L 17.9487 46.424103 L 17.826599 46.912498 L 16.727699 47.1567 L 16.4835 47.400902 L 15.5067 47.523003 L 14.8962 47.889297 L 13.9194 48.866096 L 13.1868 48.011398 L 12.5763 46.668297 L 12.5763 45.935699 L 12.8205 45.203102 L 13.431 44.714699 L 14.4078 44.470497 L 16.117201 44.470497 Z M 32.112301 44.8368 L 32.6007 44.470497 L 36.874199 44.226303 L 37.240501 44.714699 L 37.240501 45.813599 L 36.752102 47.645103 L 37.118401 48.133499 L 38.2173 48.621902 L 39.682499 50.5755 L 38.949902 50.697601 L 38.339401 49.720802 L 37.728901 49.110298 L 37.362598 48.988197 L 35.775299 49.842903 L 35.531101 49.720802 L 34.310101 48.377701 L 32.722801 45.813599 L 32.234402 45.325203 Z M 48.473701 44.226303 L 49.572601 45.325203 L 51.6483 46.0578 L 51.770401 46.668297 L 51.0378 47.645103 L 49.9389 47.400902 L 48.473701 48.011398 L 48.107399 48.011398 L 47.863201 47.645103 L 48.351601 47.034599 L 49.206299 46.912498 L 49.3284 46.668297 L 48.473701 45.081001 L 48.107399 44.714699 Z M 41.514 44.592598 L 42.002399 44.226303 L 42.1245 44.9589 L 42.735001 45.935699 L 43.589699 46.0578 L 44.200199 45.813599 L 44.444401 46.179901 L 44.200199 46.424103 L 42.6129 46.790398 L 42.1245 46.546204 L 41.636101 46.0578 Z M 38.0952 44.226303 L 37.851002 44.8368 L 37.6068 44.592598 L 37.6068 44.348396 Z M 11.2332 43.615799 L 11.9658 42.883202 L 13.3089 42.516899 L 14.2857 42.516899 L 16.2393 43.005302 L 16.727699 43.615799 L 16.6056 44.104202 L 16.2393 44.104202 L 15.873 43.860001 L 14.7741 43.860001 L 13.1868 44.226303 L 12.0879 45.081001 L 11.4774 44.348396 Z M 48.595798 43.249496 L 48.962101 42.761101 L 49.694698 42.394798 L 50.305199 42.394798 L 51.770401 42.761101 L 52.625099 43.493698 L 52.869301 43.982101 L 52.869301 44.592598 L 52.625099 45.081001 L 52.1367 45.447304 L 50.915699 45.447304 L 49.572601 44.8368 L 48.717899 43.982101 Z M 40.659302 41.784302 L 41.0256 41.906403 L 41.147701 46.912498 L 40.659302 47.767197 L 40.659302 48.2556 L 41.758202 49.232399 L 40.659302 50.087097 L 40.292999 50.087097 L 38.339401 48.2556 L 37.484699 48.011398 L 37.240501 47.767197 L 37.240501 47.1567 L 38.0952 45.935699 L 38.339401 44.8368 L 38.949902 44.104202 L 39.3162 44.226303 L 39.438301 44.592598 L 39.438301 46.0578 L 39.682499 46.668297 L 39.682499 47.523003 L 39.438301 47.767197 L 38.583599 47.034599 L 38.0952 47.034599 L 39.194099 48.011398 L 39.682499 48.011398 L 40.170898 47.400902 L 39.682499 44.8368 L 39.682499 43.127403 L 40.170898 42.272697 Z M 45.299099 41.5401 L 45.787498 41.906403 L 46.153801 43.005302 L 45.909599 43.860001 L 45.4212 44.714699 L 44.688599 45.447304 L 44.200199 45.447304 L 43.345501 45.813599 L 42.857101 45.325203 L 42.6129 44.592598 L 42.246601 44.104202 L 42.368698 43.493698 L 42.735001 43.493698 L 43.101299 43.7379 L 43.8339 44.714699 L 44.566502 43.615799 L 44.200199 42.028503 L 44.688599 41.662201 Z M 15.5067 41.295898 L 15.7509 41.295898 L 15.9951 41.5401 L 15.9951 42.150597 L 15.5067 42.272697 L 15.1404 41.906403 Z M 49.694698 41.784302 L 50.671501 41.295898 L 51.6483 41.173798 L 52.380901 41.784302 L 53.3577 41.784302 L 53.968201 42.028503 L 53.968201 42.394798 L 53.723999 42.639 L 53.601898 43.127403 L 52.991402 43.371597 L 52.380901 42.639 L 51.6483 42.272697 Z M 30.8913 40.807503 L 31.257601 41.051697 L 31.501801 41.5401 L 31.501801 42.028503 L 31.868099 42.883202 L 31.013399 43.860001 L 29.914499 44.348396 L 29.4261 43.860001 L 29.304001 43.371597 L 28.5714 42.150597 L 28.693501 41.784302 L 29.548201 41.784302 L 29.548201 41.295898 L 30.0366 40.807503 Z M 14.8962 40.929604 L 14.8962 41.5401 L 14.5299 41.906403 L 13.5531 41.906403 L 12.4542 42.150597 L 11.1111 42.883202 L 10.8669 42.883202 L 10.3785 42.394798 L 10.0122 41.173798 L 10.2564 40.929604 L 13.1868 41.051697 L 14.0415 40.807503 Z M 28.9377 39.952797 L 29.1819 39.586502 L 30.2808 39.2202 L 31.3797 40.196999 L 31.257601 40.563301 L 30.769199 40.4412 L 30.2808 39.952797 L 29.914499 40.074898 L 29.7924 40.4412 L 29.1819 40.563301 L 28.9377 40.319099 Z M 9.6459 39.3423 L 9.8901 39.098099 L 10.1343 39.098099 L 10.5006 39.3423 L 12.21 39.830704 L 14.0415 39.830704 L 14.7741 39.464401 L 15.0183 39.708603 L 14.5299 40.196999 L 13.7973 40.563301 L 10.8669 40.563301 L 9.8901 40.074898 L 9.6459 39.708603 Z M 19.169701 39.3423 L 18.1929 39.952797 L 17.826599 39.952797 L 17.4603 39.464401 L 17.7045 39.2202 L 18.681299 38.975998 Z M 29.6703 38.609703 L 29.6703 38.975998 L 29.304001 39.3423 L 28.815599 39.3423 L 28.5714 38.975998 L 29.1819 38.487602 Z M 49.816799 39.098099 L 50.061001 38.609703 L 50.427299 38.365501 L 50.671501 38.487602 L 51.282001 39.464401 L 50.183102 39.586502 Z M 31.257601 38.243401 L 31.623899 38.609703 L 31.623899 39.098099 L 31.3797 39.3423 L 30.8913 39.3423 L 30.6471 39.2202 L 30.525 38.731796 Z M 50.671501 37.266602 L 52.258801 38.243401 L 52.7472 38.365501 L 54.4566 38.243401 L 54.822899 38.609703 L 54.700802 40.196999 L 53.968201 41.295898 L 53.2356 41.417999 L 51.526199 40.685402 L 50.183102 40.929604 L 49.694698 40.563301 L 49.816799 40.196999 L 50.305199 39.952797 L 51.770401 39.830704 L 52.1367 39.464401 L 52.1367 39.098099 L 51.770401 38.731796 L 51.159901 38.487602 L 50.427299 37.754997 Z M 51.159901 36.900299 L 51.892502 36.900299 L 52.991402 36.533997 L 54.090302 36.533997 L 54.945 37.144501 L 54.945 37.632896 L 54.578701 37.999199 L 53.2356 37.999199 L 51.770401 37.510803 Z M 9.0354 37.144501 L 9.8901 36.289803 L 12.6984 36.289803 L 14.1636 36.900299 L 14.7741 37.632896 L 14.7741 38.365501 L 14.652 38.731796 L 13.9194 39.3423 L 13.3089 39.464401 L 12.3321 39.2202 L 11.2332 39.2202 L 10.2564 38.731796 Z M 43.956001 42.516899 L 43.8339 43.493698 L 43.345501 43.371597 L 42.002399 42.516899 L 41.514 41.784302 L 41.514 40.563301 L 41.0256 40.685402 L 40.9035 41.173798 L 40.048801 41.906403 L 39.8046 42.394798 L 37.851002 43.860001 L 33.943802 43.982101 L 33.0891 44.226303 L 32.4786 43.493698 L 31.868099 41.5401 L 31.501801 40.929604 L 31.868099 40.4412 L 31.9902 39.586502 L 32.4786 39.464401 L 32.966999 39.830704 L 32.844898 40.319099 L 32.966999 40.807503 L 33.333302 41.051697 L 33.455399 42.394798 L 34.065899 43.127403 L 34.554298 43.371597 L 36.263699 43.371597 L 39.071999 41.906403 L 39.8046 41.295898 L 40.292999 40.563301 L 39.438301 39.830704 L 39.3162 38.975998 L 39.071999 38.487602 L 38.339401 37.877098 L 37.851002 37.877098 L 38.7057 38.731796 L 39.071999 39.952797 L 39.682499 40.807503 L 38.827801 41.5401 L 37.362598 41.662201 L 37.362598 42.028503 L 36.9963 42.272697 L 35.775299 41.906403 L 36.385799 42.272697 L 36.752102 42.761101 L 36.5079 43.005302 L 34.676399 43.127403 L 33.943802 42.516899 L 33.821701 41.173798 L 33.455399 39.708603 L 33.0891 39.3423 L 33.0891 39.098099 L 34.432201 38.1213 L 35.8974 37.754997 L 36.385799 37.0224 L 37.362598 36.167702 L 38.461498 35.679298 L 39.071999 35.679298 L 39.926701 36.411903 L 41.0256 38.609703 L 41.636101 39.098099 L 42.368698 39.098099 L 42.979198 39.586502 L 42.979198 40.074898 L 43.467602 40.929604 L 43.467602 41.906403 Z M 16.971901 35.801399 L 17.216101 35.679298 L 18.5592 37.144501 L 18.5592 37.388702 L 18.315001 37.632896 L 16.8498 37.510803 L 16.8498 36.045601 Z M 42.979198 34.946701 L 43.589699 34.946701 L 44.444401 35.801399 L 44.9328 36.656097 L 45.054901 39.2202 L 45.299099 40.196999 L 45.176998 41.173798 L 44.810699 41.295898 L 44.3223 41.173798 L 43.589699 40.4412 L 43.101299 38.975998 L 42.002399 37.877098 L 42.246601 35.679298 Z M 9.0354 35.313004 L 9.4017 34.946701 L 12.0879 34.946701 L 13.1868 35.313004 L 13.7973 35.313004 L 14.5299 35.9235 L 14.4078 36.289803 L 14.0415 36.289803 L 12.9426 35.679298 L 10.3785 35.679298 L 9.4017 35.9235 L 9.0354 35.801399 Z M 52.258801 33.969902 L 52.502998 33.969902 L 52.7472 34.214104 L 52.7472 34.580399 L 52.502998 34.8246 L 52.1367 34.702499 L 52.014599 34.214104 Z M 54.212399 33.7257 L 54.578701 33.847801 L 54.4566 34.336197 L 54.212399 34.336197 L 53.968201 33.969902 Z M 17.216101 38.487602 L 17.216101 38.243401 L 17.7045 37.877098 L 19.2918 37.632896 L 18.315001 36.289803 L 18.1929 35.801399 L 18.5592 35.557198 L 19.2918 35.801399 L 19.4139 35.068802 L 20.1465 34.336197 L 20.2686 33.6036 L 20.757 34.214104 L 20.5128 36.045601 L 20.5128 37.144501 L 20.2686 37.388702 L 19.9023 37.388702 L 20.5128 37.510803 L 21.3675 37.144501 L 23.931601 34.946701 L 25.0305 34.336197 L 26.251499 34.092003 L 26.9841 34.8246 L 26.739901 35.068802 L 25.396799 34.946701 L 24.42 35.435097 L 23.687401 36.167702 L 23.443199 36.778198 L 22.4664 37.388702 L 22.1001 38.487602 L 21.6117 38.975998 L 21.245399 38.975998 L 20.879101 38.731796 L 18.681299 38.731796 Z M 19.535999 33.847801 L 19.0476 34.336197 L 19.0476 34.580399 L 18.681299 34.8246 L 18.437099 34.458298 L 18.070801 34.458298 L 17.9487 35.068802 L 17.7045 35.068802 L 17.4603 34.8246 L 17.4603 34.214104 L 17.9487 33.847801 L 18.681299 33.6036 Z M 50.793598 33.6036 L 51.159901 33.359398 L 51.6483 33.7257 L 51.770401 35.068802 L 52.014599 35.313004 L 52.869301 35.068802 L 53.113499 33.969902 L 53.479801 33.847801 L 53.723999 34.092003 L 53.8461 34.8246 L 54.822899 34.946701 L 55.067101 35.190903 L 54.822899 36.167702 L 54.090302 36.167702 L 53.601898 35.801399 L 53.2356 35.801399 L 52.502998 36.289803 L 51.526199 36.289803 L 50.915699 35.679298 L 50.793598 35.313004 Z M 43.2234 33.237297 L 43.589699 33.359398 L 43.589699 33.847801 L 43.467602 34.092003 L 43.101299 34.214104 L 42.857101 33.969902 L 42.979198 33.481499 Z M 38.2173 33.237297 L 39.560398 33.237297 L 39.926701 33.481499 L 40.659302 35.557198 L 41.391899 36.533997 L 41.391899 37.0224 L 41.0256 37.388702 L 39.926701 35.801399 L 38.0952 34.702499 L 37.973099 33.481499 Z M 37.118401 32.016296 L 37.362598 33.969902 L 37.728901 34.458298 L 37.728901 35.313004 L 36.874199 35.801399 L 35.531101 37.266602 L 32.6007 37.999199 L 32.722801 38.731796 L 32.356499 39.2202 L 31.501801 38.1213 L 31.501801 37.877098 L 31.013399 37.877098 L 30.525 38.365501 L 30.158701 38.487602 L 29.914499 38.243401 L 29.7924 37.877098 L 30.158701 37.510803 L 30.6471 37.510803 L 31.1355 36.778198 L 31.623899 36.778198 L 31.9902 37.144501 L 31.9902 37.754997 L 32.234402 37.632896 L 32.4786 37.0224 L 32.844898 36.656097 L 33.821701 36.289803 L 34.920601 35.435097 L 36.019501 34.214104 L 36.141602 33.7257 L 36.5079 33.237297 L 36.752102 31.649994 Z M 31.1355 31.649994 L 31.3797 31.161606 L 32.112301 31.161606 L 32.6007 31.405807 L 33.455399 31.161606 L 33.943802 31.405807 L 34.554298 32.016296 L 34.676399 32.748901 L 34.188 33.359398 L 33.0891 32.871002 L 31.3797 32.748901 L 31.1355 32.5047 Z M 29.1819 31.527893 L 29.304001 31.283707 L 30.0366 31.283707 L 30.2808 32.016296 L 31.1355 32.993103 L 32.356499 33.115196 L 33.577499 33.6036 L 34.188 33.6036 L 34.920601 33.115196 L 35.2869 32.382599 L 35.775299 32.382599 L 35.8974 33.237297 L 35.653198 33.847801 L 33.821701 35.9235 L 32.966999 36.045601 L 32.6007 35.435097 L 31.868099 35.313004 L 31.623899 35.557198 L 32.234402 35.679298 L 32.4786 36.045601 L 31.746 36.656097 L 31.501801 36.411903 L 31.501801 35.801399 L 30.402901 35.679298 L 29.914499 34.946701 L 29.914499 34.458298 L 30.158701 34.092003 L 30.158701 33.359398 L 29.1819 32.260498 Z M 50.915699 32.016296 L 51.404099 32.016296 L 51.282001 31.649994 L 51.404099 31.283707 L 52.625099 30.673203 L 53.601898 30.673203 L 53.968201 30.795303 L 54.212399 31.161606 L 53.723999 31.649994 L 52.869301 32.138397 L 51.6483 32.260498 L 53.113499 32.382599 L 54.578701 31.405807 L 54.945 31.649994 L 55.067101 32.382599 L 54.212399 33.237297 L 52.7472 33.481499 L 50.793598 32.871002 Z M 32.722801 30.673203 L 33.0891 30.917404 L 32.722801 31.161606 L 32.4786 30.917404 Z M 28.5714 30.551102 L 29.059799 30.673203 L 28.5714 31.527893 L 28.5714 32.138397 L 29.6703 33.6036 L 29.6703 35.068802 L 29.7924 35.313004 L 30.402901 35.679298 L 30.525 35.9235 L 30.525 36.778198 L 28.3272 38.853897 L 28.5714 40.319099 L 29.059799 41.051697 L 29.059799 41.295898 L 28.3272 41.784302 L 28.3272 42.394798 L 29.304001 44.226303 L 29.304001 44.9589 L 26.3736 46.912498 L 25.396799 47.889297 L 26.3736 47.523003 L 27.7167 46.424103 L 29.1819 45.569397 L 31.868099 43.615799 L 32.234402 43.7379 L 32.234402 44.226303 L 30.6471 45.691498 L 28.9377 46.912498 L 26.1294 48.377701 L 25.641001 48.866096 L 25.885201 48.988197 L 26.1294 48.744003 L 27.2283 48.744003 L 27.350401 48.2556 L 27.594601 48.011398 L 28.205099 48.011398 L 28.693501 48.2556 L 29.548201 49.232399 L 29.914499 50.5755 L 29.914499 50.941803 L 29.6703 51.063904 L 29.304001 50.941803 L 28.5714 50.209198 L 28.3272 49.3545 L 27.4725 48.866096 L 28.205099 49.964996 L 28.083 50.5755 L 27.7167 50.5755 L 26.495701 49.598701 L 24.42 49.3545 L 23.687401 48.621902 L 23.0769 47.645103 L 23.0769 47.034599 L 24.6642 45.813599 L 25.0305 45.935699 L 24.9084 47.1567 L 25.152599 47.278801 L 25.2747 45.691498 L 25.152599 45.447304 L 24.6642 45.203102 L 23.198999 46.546204 L 22.588499 46.790398 L 22.344299 46.546204 L 22.4664 46.0578 L 23.931601 45.081001 L 24.6642 44.226303 L 24.42 44.104202 L 23.198999 45.203102 L 22.344299 45.691498 L 21.489599 45.447304 L 21.8559 45.081001 L 22.832701 44.714699 L 23.3211 44.226303 L 23.3211 43.860001 L 22.588499 44.104202 L 21.6117 44.8368 L 21.123301 44.714699 L 21.978001 43.615799 L 21.978001 43.249496 L 20.634899 44.226303 L 19.780199 44.104202 L 19.2918 43.493698 L 19.169701 43.005302 L 19.4139 42.761101 L 20.024401 42.639 L 20.2686 42.272697 L 18.925501 42.150597 L 18.681299 41.906403 L 18.8034 41.662201 L 19.169701 41.417999 L 20.634899 41.662201 L 21.3675 41.295898 L 21.123301 41.173798 L 18.437099 41.173798 L 18.1929 40.929604 L 18.1929 40.563301 L 18.925501 39.952797 L 19.535999 39.952797 L 20.5128 40.4412 L 21.3675 40.4412 L 21.6117 40.196999 L 20.390699 40.074898 L 19.535999 39.3423 L 19.780199 39.098099 L 22.344299 39.3423 L 22.588499 39.952797 L 23.443199 41.051697 L 24.786301 41.784302 L 26.007299 42.028503 L 26.739901 42.394798 L 27.2283 42.394798 L 26.739901 41.906403 L 26.251499 41.906403 L 25.152599 41.295898 L 24.42 41.173798 L 23.931601 40.807503 L 22.588499 38.975998 L 22.588499 38.243401 L 22.832701 37.754997 L 24.42 38.487602 L 24.9084 38.487602 L 25.152599 38.243401 L 26.3736 38.1213 L 27.4725 39.098099 L 27.594601 38.853897 L 27.4725 38.243401 L 26.6178 37.510803 L 25.885201 37.388702 L 24.542101 37.999199 L 24.1758 37.999199 L 23.5653 37.754997 L 23.3211 37.388702 L 24.053699 36.656097 L 24.053699 36.411903 L 24.297899 36.167702 L 25.152599 35.9235 L 27.2283 35.9235 L 27.4725 36.045601 L 27.8388 37.144501 L 28.205099 37.144501 L 27.8388 35.557198 L 26.9841 34.092003 L 26.739901 32.748901 L 27.350401 31.772095 Z M 15.1404 30.917404 L 15.2625 32.016296 L 14.4078 34.946701 L 12.8205 34.702499 L 11.9658 34.336197 L 9.6459 34.336197 L 9.4017 33.969902 L 9.6459 33.359398 L 9.6459 32.5047 L 10.0122 32.260498 L 11.3553 33.237297 L 12.6984 33.6036 L 13.5531 33.481499 L 13.9194 33.115196 L 14.1636 32.382599 L 14.1636 31.405807 L 13.7973 30.673203 L 13.9194 30.3069 L 14.4078 30.3069 Z M 41.758202 30.062698 L 42.1245 30.184799 L 41.880299 30.551102 L 41.636101 30.3069 Z M 35.164799 31.405807 L 34.7985 31.649994 L 33.577499 30.429001 L 32.112301 30.429001 L 31.501801 30.795303 L 31.013399 30.673203 L 31.013399 30.429001 L 31.746 29.940598 L 31.868099 29.696396 L 33.943802 29.452194 L 34.432201 29.818497 Z M 46.6422 29.330093 L 47.1306 30.062698 L 47.1306 30.551102 L 47.863201 32.382599 L 47.863201 38.365501 L 46.886398 41.173798 L 46.886398 41.5401 L 46.397999 42.150597 L 46.153801 41.906403 L 45.787498 40.929604 L 45.543301 37.632896 L 45.054901 35.9235 L 44.078098 34.702499 L 43.8339 33.969902 L 46.153801 31.649994 L 46.153801 31.161606 L 46.5201 30.551102 L 46.275902 29.574295 Z M 40.292999 28.1091 L 40.659302 28.231201 L 40.4151 28.719604 L 40.170898 28.475403 Z M 25.641001 28.963806 L 25.396799 29.207993 L 25.152599 29.207993 L 23.687401 30.917404 L 23.0769 31.161606 L 22.588499 31.161606 L 22.4664 32.5047 L 21.489599 33.359398 L 20.879101 33.237297 L 21.3675 32.626801 L 21.3675 32.260498 L 21.123301 31.894196 L 21.245399 31.405807 L 21.733801 31.283707 L 22.1001 30.673203 L 21.733801 29.940598 L 22.1001 29.696396 L 22.4664 30.062698 L 22.7106 30.062698 L 22.832701 29.574295 L 23.3211 29.330093 L 23.687401 28.475403 L 24.053699 28.1091 L 24.42 28.231201 L 24.297899 29.207993 L 24.9084 29.085907 L 25.396799 28.719604 Z M 50.305199 27.498596 L 51.282001 28.841705 L 50.915699 29.207993 L 50.427299 29.330093 L 49.572601 29.085907 L 49.084202 28.475403 L 49.816799 27.742798 Z M 36.385799 26.521805 L 36.752102 26.521805 L 37.484699 27.254395 L 37.484699 29.330093 L 36.752102 29.940598 L 36.385799 29.574295 L 36.5079 27.742798 L 36.263699 27.010193 Z M 16.6056 26.521805 L 16.971901 26.521805 L 17.216101 26.766006 L 17.3382 27.254395 L 16.971901 27.620697 L 16.4835 27.132294 Z M 52.869301 26.277603 L 53.3577 26.399704 L 53.479801 27.254395 L 52.991402 27.620697 L 52.625099 27.254395 L 52.625099 26.521805 Z M 42.002399 26.399704 L 42.002399 26.643906 L 41.514 27.132294 L 40.9035 27.132294 L 41.147701 26.766006 Z M 21.123301 26.277603 L 21.6117 26.888107 L 21.8559 27.498596 L 21.8559 28.1091 L 21.3675 29.452194 L 21.3675 30.673203 L 20.5128 31.405807 L 20.390699 32.260498 L 20.024401 32.748901 L 18.5592 33.359398 L 18.070801 33.359398 L 17.826599 33.115196 L 19.4139 28.719604 L 20.5128 26.766006 Z M 31.1355 26.033401 L 32.234402 25.7892 L 34.188 25.7892 L 35.2869 26.155502 L 35.8974 26.766006 L 36.141602 27.376495 L 36.263699 30.184799 L 36.141602 30.917404 L 35.653198 31.161606 L 35.409 30.917404 L 35.2869 29.330093 L 34.188 28.841705 L 33.0891 29.207993 L 31.9902 28.475403 L 31.501801 28.475403 L 31.013399 28.963806 L 31.746 28.963806 L 31.746 29.818497 L 30.8913 29.940598 L 30.525 29.452194 L 30.2808 28.597504 L 30.525 27.376495 Z M 21.978001 25.7892 L 22.2222 25.7892 L 22.4664 26.033401 L 22.4664 26.399704 L 22.9548 27.376495 L 22.832701 28.1091 L 22.4664 28.1091 L 22.344299 27.376495 L 21.8559 26.643906 L 21.733801 26.033401 Z M 24.9084 25.422897 L 25.152599 25.667099 L 25.152599 25.911301 L 24.6642 26.643906 L 24.6642 26.888107 L 24.297899 27.254395 L 23.687401 27.376495 L 23.687401 27.010193 L 24.1758 25.911301 L 24.6642 25.422897 Z M 23.5653 24.812393 L 23.8095 25.056595 L 23.8095 25.422897 L 23.443199 26.033401 L 23.443199 26.399704 L 23.198999 26.643906 L 22.9548 26.399704 L 22.9548 25.667099 L 23.0769 25.300797 Z M 51.770401 24.446106 L 52.7472 25.422897 L 52.258801 26.399704 L 52.1367 27.498596 L 53.479801 28.1091 L 53.968201 28.597504 L 54.212399 29.940598 L 53.723999 30.3069 L 51.770401 30.795303 L 50.915699 31.283707 L 50.427299 31.161606 L 49.9389 30.3069 L 50.061001 29.818497 L 51.404099 29.574295 L 52.258801 28.963806 L 50.915699 27.864899 L 50.793598 27.132294 L 50.5494 26.888107 L 49.572601 27.376495 L 48.717899 28.231201 L 48.351601 27.742798 L 48.351601 27.254395 L 48.107399 26.643906 L 48.473701 26.277603 L 48.962101 26.155502 L 50.5494 25.178696 L 51.159901 24.568207 Z M 30.2808 24.201904 L 31.1355 24.201904 L 31.501801 24.690308 L 31.257601 25.178696 L 30.769199 25.544998 L 29.7924 25.422897 L 29.914499 24.568207 Z M 40.9035 23.835602 L 41.514 23.957703 L 43.345501 24.812393 L 44.200199 25.7892 L 44.078098 26.155502 L 43.467602 26.033401 L 43.101299 26.643906 L 42.857101 26.399704 L 42.857101 26.155502 L 42.368698 26.155502 L 42.002399 25.911301 L 41.514 26.033401 L 40.9035 26.521805 L 40.292999 27.498596 L 39.682499 28.1091 L 39.682499 28.475403 L 40.292999 29.207993 L 40.537201 30.062698 L 40.9035 30.062698 L 41.636101 30.673203 L 42.246601 30.673203 L 42.857101 30.062698 L 42.979198 29.696396 L 42.1245 29.330093 L 41.391899 28.475403 L 41.514 27.620697 L 42.002399 27.132294 L 43.101299 27.132294 L 44.3223 26.766006 L 44.9328 27.376495 L 45.4212 28.841705 L 45.4212 29.818497 L 44.9328 30.551102 L 44.566502 32.138397 L 43.956001 32.748901 L 43.467602 32.626801 L 43.101299 32.260498 L 43.101299 32.016296 L 44.078098 30.917404 L 44.444401 29.452194 L 44.200199 29.207993 L 43.956001 29.207993 L 43.589699 29.574295 L 43.956001 29.940598 L 43.956001 30.3069 L 43.467602 31.161606 L 42.735001 31.894196 L 42.6129 33.359398 L 42.002399 34.8246 L 41.391899 35.435097 L 41.147701 35.435097 L 40.9035 35.190903 L 40.537201 33.359398 L 39.8046 32.748901 L 37.851002 32.382599 L 36.9963 30.795303 L 37.6068 29.818497 L 37.851002 29.085907 L 39.438301 27.620697 L 40.292999 25.422897 L 40.292999 24.568207 Z M 14.7741 23.102997 L 15.0183 23.102997 L 15.2625 23.347198 L 15.2625 23.713501 L 14.8962 24.568207 L 15.3846 25.056595 L 17.094 25.300797 L 17.9487 25.544998 L 18.1929 25.7892 L 18.070801 26.277603 L 17.4603 26.277603 L 16.2393 25.7892 L 15.3846 25.911301 L 15.6288 26.766006 L 16.361401 28.1091 L 16.361401 28.841705 L 16.117201 29.452194 L 15.5067 29.330093 L 14.8962 27.987 L 14.5299 26.399704 L 14.0415 25.7892 L 13.5531 25.911301 L 12.9426 26.766006 L 12.5763 26.888107 L 12.3321 26.643906 L 12.3321 26.155502 L 13.7973 24.079803 Z M 40.537201 22.736694 L 41.0256 22.614594 L 41.391899 22.736694 L 43.101299 23.957703 L 45.054901 24.690308 L 45.787498 25.422897 L 46.0317 26.033401 L 46.397999 26.399704 L 47.1306 28.1091 L 48.473701 30.3069 L 48.84 31.405807 L 48.717899 38.853897 L 48.2295 40.4412 L 47.374802 42.272697 L 46.6422 42.639 L 46.764301 42.028503 L 47.496899 40.929604 L 47.496899 40.196999 L 48.107399 38.853897 L 48.351601 37.388702 L 48.351601 32.871002 L 48.2295 32.138397 L 47.7411 31.161606 L 47.496899 29.696396 L 46.764301 28.475403 L 46.153801 27.864899 L 45.4212 26.643906 L 44.3223 25.422897 L 44.078098 24.934494 L 43.345501 24.324005 L 42.979198 24.324005 L 41.636101 23.5914 L 40.9035 23.469299 L 40.4151 22.980896 Z M 45.4212 22.492493 L 45.665401 22.492493 L 45.909599 22.736694 L 45.787498 23.225098 L 45.4212 23.225098 L 45.176998 22.980896 L 45.176998 22.736694 Z M 50.061001 22.004105 L 50.427299 22.370407 L 50.671501 23.225098 L 51.0378 23.713501 L 51.159901 24.079803 L 50.5494 24.812393 L 48.351601 25.911301 L 47.618999 25.7892 L 47.374802 25.178696 L 47.496899 24.446106 L 48.107399 23.713501 L 48.2295 23.225098 L 49.084202 22.370407 Z M 26.862 21.882004 L 27.106199 22.126205 L 26.9841 23.102997 L 26.739901 23.347198 L 26.6178 24.079803 L 26.3736 24.324005 L 26.3736 25.422897 L 26.6178 26.399704 L 27.350401 27.620697 L 28.205099 28.475403 L 29.548201 29.085907 L 29.4261 27.376495 L 29.548201 26.643906 L 29.914499 26.155502 L 30.402901 26.277603 L 30.402901 26.766006 L 30.0366 27.742798 L 29.7924 29.818497 L 28.9377 29.940598 L 27.594601 30.795303 L 26.495701 32.016296 L 26.007299 33.237297 L 25.641001 33.6036 L 24.542101 33.969902 L 21.123301 36.533997 L 21.245399 34.092003 L 21.6117 33.7257 L 22.4664 33.359398 L 23.0769 32.748901 L 23.5653 31.649994 L 25.0305 30.062698 L 26.251499 30.184799 L 26.862 29.574295 L 26.739901 28.963806 L 26.3736 28.597504 L 26.1294 28.597504 L 25.885201 28.353302 L 25.396799 28.475403 L 25.0305 28.353302 L 25.152599 26.888107 L 25.641001 26.033401 L 25.5189 24.934494 L 25.152599 24.690308 L 23.5653 24.324005 L 23.443199 23.957703 L 23.931601 23.469299 L 25.2747 22.614594 Z M 38.461498 21.515701 L 38.949902 22.248306 L 39.071999 24.446106 L 38.7057 25.911301 L 38.461498 26.399704 L 38.0952 26.643906 L 37.973099 25.422897 L 38.2173 24.201904 L 38.2173 21.515701 Z M 40.170898 20.905197 L 42.735001 21.515701 L 44.810699 23.225098 L 46.275902 24.690308 L 47.7411 27.132294 L 47.985298 28.231201 L 49.084202 29.452194 L 48.84 30.062698 L 48.2295 29.452194 L 47.863201 28.475403 L 47.496899 28.1091 L 46.0317 25.178696 L 44.688599 23.957703 L 44.200199 23.713501 L 43.345501 23.5914 L 42.490799 23.102997 L 42.002399 22.614594 L 40.537201 22.004105 L 40.048801 21.3936 Z M 30.6471 20.905197 L 31.013399 21.2715 L 29.548201 24.079803 L 29.1819 25.911301 L 28.9377 26.155502 L 28.449301 26.033401 L 28.3272 23.957703 L 29.059799 22.492493 L 29.1819 21.882004 L 29.4261 21.3936 Z M 24.6642 21.3936 L 27.2283 20.538895 L 27.7167 21.027298 L 27.350401 21.3936 L 26.3736 21.637802 L 23.443199 23.102997 L 20.024401 26.399704 L 19.535999 27.620697 L 18.5592 29.330093 L 18.5592 29.696396 L 17.582399 32.016296 L 17.216101 33.6036 L 16.361401 35.9235 L 16.361401 37.510803 L 16.6056 37.999199 L 16.727699 38.853897 L 17.582399 40.929604 L 18.315001 42.150597 L 19.2918 44.348396 L 22.1001 46.912498 L 22.588499 47.767197 L 23.443199 48.744003 L 23.5653 49.232399 L 24.053699 49.720802 L 24.6642 49.964996 L 26.1294 49.964996 L 27.7167 51.185997 L 28.5714 51.185997 L 29.7924 51.552299 L 32.356499 51.552299 L 33.577499 51.918602 L 34.554298 51.918602 L 34.7985 52.162804 L 36.263699 52.284897 L 37.362598 51.918602 L 37.851002 51.918602 L 40.4151 50.697601 L 42.6129 49.110298 L 44.688599 46.668297 L 45.4212 45.569397 L 46.0317 44.226303 L 47.618999 42.394798 L 48.717899 40.074898 L 48.717899 39.586502 L 48.962101 39.2202 L 49.3284 35.557198 L 49.3284 32.748901 L 49.084202 31.405807 L 49.4505 31.039505 L 49.9389 31.039505 L 50.183102 31.283707 L 50.5494 32.748901 L 49.694698 38.365501 L 48.84 40.929604 L 48.595798 42.272697 L 45.665401 47.400902 L 42.6129 50.697601 L 40.659302 52.040703 L 39.3162 52.651199 L 38.583599 52.651199 L 35.653198 53.383797 L 33.455399 53.383797 L 32.6007 53.017502 L 30.0366 52.895401 L 29.6703 52.651199 L 28.205099 52.284897 L 22.9548 49.842903 L 21.0012 47.889297 L 19.0476 47.1567 L 18.1929 46.302002 L 16.8498 42.761101 L 16.8498 42.272697 L 15.9951 40.563301 L 15.5067 39.098099 L 15.5067 38.1213 L 15.2625 37.266602 L 15.2625 34.702499 L 15.7509 32.382599 L 16.6056 30.062698 L 17.582399 28.475403 L 17.826599 27.742798 L 19.6581 25.300797 L 21.489599 23.469299 L 23.687401 21.882004 Z M 20.634899 20.416794 L 21.123301 20.905197 L 21.489599 21.637802 L 21.489599 22.736694 L 20.879101 23.102997 L 19.780199 22.004105 L 19.780199 21.3936 L 20.2686 20.538895 Z M 43.956001 21.149399 L 44.566502 20.905197 L 45.543301 20.905197 L 46.5201 20.294693 L 47.008499 20.294693 L 47.985298 21.2715 L 48.2295 21.759903 L 48.107399 22.614594 L 47.252701 24.446106 L 46.886398 24.690308 L 46.0317 23.957703 L 46.0317 23.469299 L 46.397999 22.614594 L 45.665401 22.126205 L 44.9328 22.370407 L 44.3223 22.370407 L 43.589699 21.515701 Z M 47.252701 19.440002 L 47.618999 19.440002 L 48.351601 19.928406 L 49.4505 21.027298 L 49.572601 21.515701 L 49.3284 21.759903 L 48.717899 21.637802 L 47.1306 19.684204 Z M 36.385799 19.440002 L 36.874199 19.317902 L 37.973099 20.294693 L 37.851002 20.783096 Z M 30.0366 20.416794 L 30.525 19.928406 L 31.257601 19.562103 L 32.966999 19.195801 L 34.920601 19.317902 L 35.653198 19.806305 L 36.874199 20.172607 L 37.362598 21.027298 L 37.484699 22.370407 L 37.728901 22.736694 L 37.728901 23.957703 L 37.362598 25.7892 L 36.9963 26.155502 L 36.752102 26.155502 L 35.653198 25.667099 L 33.821701 25.544998 L 33.0891 25.300797 L 31.868099 25.178696 L 31.746 24.079803 L 31.3797 23.713501 L 30.525 23.469299 L 30.525 23.102997 L 30.769199 22.858795 L 31.257601 22.858795 L 31.9902 23.469299 L 32.4786 23.347198 L 32.6007 22.980896 L 31.9902 23.102997 L 31.257601 22.858795 L 31.1355 21.515701 L 32.6007 19.806305 L 30.525 20.660995 Z M 35.531101 19.195801 L 35.653198 18.951599 L 36.263699 19.195801 L 36.019501 19.440002 L 35.775299 19.440002 Z M 34.920601 18.707397 L 35.2869 18.951599 L 35.042702 19.195801 L 34.7985 18.951599 Z M 21.3675 18.341095 L 21.8559 18.707397 L 22.4664 19.928406 L 23.443199 20.905197 L 23.443199 21.2715 L 22.4664 22.004105 L 22.1001 21.637802 L 21.123301 19.928406 L 20.634899 19.440002 L 20.2686 19.440002 L 19.169701 21.2715 L 19.169701 22.004105 L 20.2686 23.5914 L 19.535999 24.324005 L 18.681299 22.736694 L 17.7045 21.759903 L 17.3382 21.637802 L 16.971901 21.149399 L 17.582399 20.660995 L 18.437099 21.027298 L 18.8034 20.660995 L 19.4139 19.440002 L 20.024401 18.829498 Z M 35.8974 17.974792 L 36.385799 17.974792 L 37.118401 18.341095 L 39.071999 19.928406 L 39.3162 20.660995 L 40.048801 21.882004 L 40.170898 23.835602 L 39.8046 26.277603 L 39.560398 26.888107 L 38.461498 28.231201 L 38.0952 28.1091 L 37.973099 27.620697 L 38.0952 27.254395 L 38.827801 26.521805 L 39.071999 26.033401 L 39.071999 25.422897 L 39.3162 24.812393 L 39.3162 22.370407 L 38.949902 21.759903 L 38.949902 21.3936 L 38.2173 20.172607 L 37.240501 19.195801 L 36.019501 18.585297 L 35.653198 18.218994 Z M 33.211201 17.730606 L 33.577499 18.218994 L 33.211201 18.585297 L 31.868099 18.707397 L 30.8913 19.440002 L 30.402901 19.440002 L 29.548201 20.294693 L 28.693501 21.759903 L 27.8388 24.079803 L 27.8388 25.056595 L 28.083 26.033401 L 28.9377 27.010193 L 28.815599 28.1091 L 28.5714 28.231201 L 27.7167 27.498596 L 26.9841 26.277603 L 26.9841 23.5914 L 27.2283 23.225098 L 27.2283 22.736694 L 27.594601 21.759903 L 28.693501 19.928406 L 29.914499 18.707397 L 30.6471 18.341095 L 31.257601 18.341095 L 32.844898 17.730606 Z M 24.42 16.8759 L 25.396799 16.753799 L 25.7631 16.998001 L 27.106199 19.806305 L 26.6178 20.172607 L 25.641001 20.416794 L 25.396799 20.172607 L 25.152599 19.195801 L 24.297899 17.608505 Z M 46.886398 18.341095 L 46.764301 19.195801 L 46.0317 20.294693 L 45.299099 20.660995 L 43.8339 20.783096 L 43.101299 21.149399 L 41.880299 21.027298 L 39.8046 20.416794 L 39.3162 20.050507 L 39.194099 19.684204 L 39.8046 19.440002 L 41.147701 19.562103 L 41.514 19.317902 L 42.246601 18.463196 L 42.246601 16.998001 L 42.490799 17.242203 L 42.735001 17.242203 L 43.956001 16.021194 L 44.444401 16.021194 L 45.787498 16.8759 L 46.397999 17.486404 Z M 28.693501 14.922302 L 29.914499 15.776993 L 29.7924 16.631699 L 28.815599 16.753799 L 28.3272 16.998001 L 27.594601 16.143295 L 28.3272 15.532806 Z M 43.8339 14.800201 L 47.252701 16.8759 L 48.351601 17.730606 L 50.427299 19.806305 L 52.380901 22.370407 L 53.8461 25.178696 L 55.311298 28.597504 L 55.5555 30.184799 L 56.166 32.138397 L 56.410198 34.092003 L 56.288101 37.388702 L 55.921799 39.2202 L 54.822899 42.272697 L 54.700802 43.127403 L 53.8461 44.9589 L 52.7472 46.668297 L 51.282001 49.476601 L 48.717899 53.139603 L 47.008499 54.726898 L 45.543301 55.337402 L 45.299099 55.093201 L 45.299099 54.848999 L 47.374802 53.139603 L 47.985298 52.406998 L 47.496899 52.040703 L 46.764301 51.918602 L 45.787498 50.941803 L 45.176998 49.842903 L 45.176998 48.988197 L 45.543301 48.744003 L 45.787498 48.988197 L 45.909599 49.476601 L 46.5201 49.964996 L 48.473701 50.087097 L 48.595798 51.063904 L 48.962101 51.430199 L 49.9389 50.5755 L 50.427299 49.476601 L 51.770401 47.523003 L 53.479801 44.348396 L 53.968201 43.127403 L 53.968201 42.761101 L 54.578701 41.784302 L 54.945 40.4412 L 54.945 39.586502 L 55.311298 38.853897 L 55.311298 37.388702 L 55.5555 36.411903 L 55.5555 32.260498 L 54.945 30.673203 L 54.822899 29.818497 L 54.334499 28.597504 L 54.334499 28.1091 L 53.968201 27.376495 L 53.723999 26.277603 L 52.991402 24.934494 L 51.159901 23.225098 L 50.915699 22.492493 L 49.9389 20.783096 L 47.7411 18.829498 L 46.886398 17.486404 L 45.787498 16.387497 L 44.688599 15.899094 L 43.589699 14.922302 Z M 38.949902 14.678101 L 39.071999 15.776993 L 40.170898 17.120102 L 40.170898 17.486404 L 39.8046 17.730606 L 38.583599 16.509598 L 37.6068 16.387497 L 37.118401 16.8759 L 36.9963 17.242203 L 36.5079 17.730606 L 36.263699 17.730606 L 36.019501 17.486404 L 37.484699 15.288605 L 38.2173 14.556 Z M 43.345501 15.776993 L 42.857101 16.387497 L 42.002399 15.532806 L 41.391899 15.166504 L 40.9035 15.166504 L 40.659302 15.410706 L 40.659302 15.899094 L 41.514 16.998001 L 41.758202 17.852707 L 41.636101 18.585297 L 41.269798 19.0737 L 39.071999 18.951599 L 38.2173 18.585297 L 37.362598 17.974792 L 37.362598 17.364304 L 37.973099 16.8759 L 39.194099 17.974792 L 40.659302 17.852707 L 40.781399 17.364304 L 40.659302 16.998001 L 39.682499 15.654907 L 39.682499 15.166504 L 40.537201 14.433899 L 41.147701 14.433899 L 42.246601 14.800201 L 42.979198 15.288605 Z M 28.083 14.433899 L 28.3272 14.800201 L 27.594601 15.410706 L 25.2747 16.143295 L 23.3211 16.509598 L 23.0769 16.753799 L 23.198999 17.242203 L 23.931601 17.852707 L 24.42 19.0737 L 24.6642 19.317902 L 24.786301 19.806305 L 24.6642 20.783096 L 24.1758 20.783096 L 23.198999 20.050507 L 22.7106 19.440002 L 22.7106 18.951599 L 22.2222 18.218994 L 22.1001 17.730606 L 21.733801 17.486404 L 19.2918 18.585297 L 18.5592 19.684204 L 17.826599 19.562103 L 15.9951 21.149399 L 15.9951 21.3936 L 16.361401 21.759903 L 17.094 22.004105 L 18.1929 22.980896 L 18.925501 24.568207 L 18.925501 24.934494 L 18.681299 25.178696 L 16.971901 24.934494 L 15.9951 24.568207 L 15.7509 24.324005 L 15.9951 23.713501 L 15.873 22.980896 L 14.7741 22.248306 L 14.1636 22.736694 L 11.7216 25.911301 L 11.4774 26.643906 L 11.5995 26.888107 L 12.3321 27.376495 L 13.1868 27.498596 L 13.3089 27.010193 L 13.7973 26.521805 L 14.0415 26.766006 L 14.4078 28.475403 L 14.652 28.719604 L 14.8962 29.818497 L 14.5299 29.940598 L 13.431 29.207993 L 12.4542 28.963806 L 12.4542 29.330093 L 13.6752 31.405807 L 13.6752 32.138397 L 13.1868 32.871002 L 12.5763 32.993103 L 11.8437 32.748901 L 9.5238 31.527893 L 9.4017 30.184799 L 9.6459 29.818497 L 9.6459 29.207993 L 9.8901 28.841705 L 10.0122 27.987 L 11.1111 25.544998 L 13.9194 22.004105 L 17.582399 18.218994 L 17.9487 17.974792 L 20.1465 17.364304 L 20.879101 16.998001 L 21.245399 16.998001 L 21.8559 16.631699 L 22.9548 16.387497 L 23.687401 15.899094 L 24.053699 15.899094 L 24.6642 15.532806 L 25.2747 15.410706 L 26.3736 14.800201 Z M 35.164799 14.189697 L 35.2869 13.701294 L 35.653198 13.701294 L 35.8974 14.067596 L 35.653198 14.311798 Z M 36.263699 13.701294 L 36.752102 13.701294 L 36.385799 13.945496 Z M 31.1355 13.457108 L 31.501801 13.823395 L 31.9902 15.410706 L 32.844898 17.242203 L 32.112301 17.730606 L 31.623899 17.730606 L 30.0366 18.341095 L 28.205099 19.806305 L 27.594601 19.684204 L 27.350401 19.440002 L 27.2283 18.707397 L 26.3736 16.998001 L 26.495701 16.387497 L 27.350401 16.387497 L 27.594601 16.631699 L 27.594601 17.242203 L 27.8388 17.730606 L 28.3272 17.730606 L 28.815599 17.364304 L 30.525 17.242203 L 30.525 16.143295 L 30.8913 15.288605 L 29.914499 15.166504 L 29.548201 14.800201 L 29.4261 14.311798 L 29.7924 13.945496 L 30.769199 13.457108 Z M 33.455399 13.212906 L 34.188 13.457108 L 34.432201 13.823395 L 33.821701 14.433899 L 33.333302 14.311798 L 33.0891 13.945496 L 33.0891 13.579193 Z M 31.9902 12.968704 L 32.4786 12.968704 L 32.4786 14.067596 L 32.966999 14.800201 L 33.455399 16.021194 L 33.6996 16.143295 L 33.943802 15.776993 L 34.920601 15.532806 L 35.775299 14.678101 L 36.141602 14.922302 L 35.8974 15.288605 L 35.8974 15.776993 L 36.752102 14.189697 L 37.240501 14.067596 L 37.484699 14.311798 L 36.630001 16.021194 L 34.7985 17.974792 L 34.188 18.096893 L 32.722801 16.021194 L 32.112301 14.678101 Z M 34.554298 11.869797 L 36.5079 11.747696 L 37.240501 11.869797 L 38.827801 12.602402 L 41.147701 13.335007 L 41.758202 13.701294 L 40.048801 13.945496 L 38.461498 13.823395 L 37.118401 12.968704 L 36.385799 12.846603 Z M 28.205099 11.869797 L 29.6703 11.625595 L 31.1355 11.625595 L 31.9902 11.747696 L 32.234402 11.991898 L 29.914499 13.212906 L 28.815599 13.335007 L 27.8388 13.823395 L 26.1294 14.189697 L 23.5653 15.410706 L 21.978001 15.776993 L 19.9023 16.753799 L 17.582399 17.486404 L 15.5067 19.440002 L 11.1111 24.324005 L 9.768 26.888107 L 8.7912 30.429001 L 8.9133 33.6036 L 8.547 34.580399 L 8.547 36.289803 L 8.7912 38.1213 L 9.0354 38.731796 L 9.0354 39.830704 L 10.1343 42.883202 L 11.4774 45.081001 L 12.8205 48.011398 L 13.431 48.866096 L 13.9194 49.964996 L 15.9951 52.040703 L 16.727699 52.529099 L 16.6056 51.918602 L 16.8498 51.552299 L 17.582399 51.185997 L 17.7045 52.040703 L 18.315001 52.651199 L 18.8034 52.7733 L 19.169701 52.406998 L 19.2918 51.796501 L 18.681299 51.308098 L 19.169701 51.063904 L 20.390699 51.063904 L 20.390699 50.819702 L 20.1465 50.5755 L 18.437099 50.087097 L 18.437099 49.842903 L 19.2918 48.988197 L 19.535999 48.988197 L 20.390699 49.720802 L 20.634899 49.720802 L 21.489599 50.5755 L 22.588499 51.308098 L 22.9548 52.040703 L 22.2222 52.529099 L 21.0012 54.482697 L 20.2686 54.360603 L 18.070801 53.261703 L 17.4603 52.7733 L 16.971901 52.651199 L 16.971901 52.895401 L 18.070801 53.750099 L 20.2686 54.848999 L 22.1001 55.947899 L 22.588499 56.436302 L 24.297899 57.046799 L 24.786301 57.046799 L 26.3736 57.657303 L 27.2283 57.657303 L 28.449301 58.023598 L 29.548201 58.145699 L 34.676399 58.023598 L 37.973099 57.535202 L 39.8046 56.802597 L 40.292999 56.802597 L 41.391899 56.192101 L 42.246601 56.07 L 43.589699 55.459503 L 43.956001 55.581596 L 43.956001 55.825798 L 41.880299 57.1689 L 41.147701 57.535202 L 39.8046 57.779404 L 38.583599 58.3899 L 29.4261 58.512001 L 24.542101 57.657303 L 22.832701 57.1689 L 22.588499 56.924698 L 21.8559 56.680496 L 20.1465 55.459503 L 17.826599 54.238503 L 14.1636 51.430199 L 13.0647 50.331299 L 10.989 47.400902 L 10.5006 46.179901 L 9.6459 44.714699 L 9.4017 43.860001 L 8.6691 42.883202 L 8.3028 41.417999 L 8.3028 40.563301 L 7.9365 39.098099 L 8.1807 29.818497 L 9.0354 26.888107 L 9.5238 25.911301 L 9.6459 24.812393 L 10.0122 23.713501 L 10.5006 23.225098 L 10.7448 22.614594 L 13.0647 19.317902 L 14.7741 17.608505 L 16.6056 16.509598 L 17.826599 15.532806 L 20.2686 14.556 L 21.489599 14.311798 L 22.344299 13.945496 L 23.3211 13.823395 L 24.786301 13.090805 Z M 11.1111 10.526703 L 10.8669 10.526703 L 12.0879 14.678101 L 10.7448 14.311798 L 8.6691 13.457108 L 7.9365 13.335007 L 10.7448 17.120102 L 10.6227 17.608505 L 10.989 17.486404 L 11.5995 16.8759 L 11.5995 16.631699 L 11.2332 16.753799 L 9.8901 15.288605 L 9.768 14.556 L 12.4542 15.532806 L 12.8205 15.532806 L 12.6984 14.678101 L 11.7216 12.113998 L 11.9658 11.991898 L 14.2857 14.067596 L 15.2625 13.090805 L 14.8962 13.335007 L 14.5299 13.335007 Z M 49.084202 8.817307 L 48.717899 8.939407 L 47.7411 9.794098 L 47.374802 10.526703 L 47.374802 12.113998 L 47.7411 12.846603 L 48.473701 13.579193 L 49.816799 14.189697 L 50.5494 13.457108 L 50.061001 13.701294 L 49.4505 13.701294 L 48.84 13.335007 L 47.985298 12.236099 L 47.985298 10.893005 L 48.2295 10.282501 L 49.206299 9.305695 L 50.183102 9.061493 L 51.0378 9.427795 L 52.014599 10.404602 L 52.1367 10.893005 L 51.892502 11.503494 L 52.7472 10.526703 L 51.770401 9.549896 L 50.793598 8.939407 Z M 15.2625 7.474197 L 13.1868 8.939407 L 13.6752 8.939407 L 14.2857 9.671997 L 15.9951 12.3582 L 15.873 12.968704 L 18.070801 11.625595 L 18.070801 11.259293 L 17.7045 10.648804 L 17.7045 11.259293 L 16.727699 11.991898 L 16.117201 11.381393 L 15.5067 10.404602 L 16.2393 9.794098 L 16.8498 10.0383 L 16.727699 9.549896 L 16.4835 9.183594 L 15.5067 9.916199 L 15.2625 9.916199 L 14.4078 8.695206 L 14.5299 8.328903 L 15.1404 7.962601 L 15.7509 8.206802 L 15.5067 7.474197 Z M 21.245399 5.276398 L 20.634899 5.154297 L 19.780199 5.276398 L 17.826599 6.009003 L 17.216101 6.497406 L 17.582399 6.497406 L 18.1929 7.352097 L 19.2918 10.0383 L 19.169701 10.770905 L 19.535999 10.770905 L 21.733801 9.794098 L 22.344299 9.305695 L 22.7106 8.695206 L 22.832701 8.206802 L 22.7106 6.741592 L 22.4664 6.253204 L 21.733801 5.520599 Z M 19.780199 5.6427 L 20.2686 5.6427 L 21.245399 6.009003 L 21.8559 6.619507 L 22.344299 7.596298 L 22.344299 8.451004 L 22.1001 8.939407 L 21.3675 9.671997 L 20.5128 10.0383 L 20.1465 10.0383 L 19.780199 9.671997 L 18.437099 6.497406 L 18.437099 6.253204 L 18.681299 6.009003 Z M 36.141602 7.962601 L 37.484699 8.328903 L 37.362598 7.718399 L 38.2173 6.619507 L 38.949902 6.741592 L 39.560398 6.985794 L 39.682499 8.939407 L 40.537201 9.061493 L 42.368698 9.794098 L 42.1245 9.549896 L 42.1245 8.939407 L 43.345501 6.253204 L 43.589699 6.497406 L 45.054901 11.015106 L 45.4212 11.015106 L 47.1306 7.229996 L 47.374802 6.985794 L 47.7411 6.985794 L 47.252701 6.619507 L 46.397999 6.375305 L 46.764301 6.741592 L 46.764301 6.985794 L 45.4212 9.916199 L 45.176998 9.671997 L 44.810699 8.206802 L 43.589699 4.910095 L 41.636101 8.939407 L 40.9035 9.061493 L 40.292999 8.451004 L 39.682499 3.811203 L 38.949902 4.543793 L 37.118401 7.352097 L 36.630001 7.8405 Z M 39.194099 4.910095 L 39.438301 5.6427 L 39.3162 6.619507 L 38.339401 6.253204 Z M 24.786301 3.689102 L 23.3211 4.055405 L 23.8095 4.299606 L 24.053699 4.910095 L 24.786301 8.084702 L 24.786301 8.451004 L 24.542101 8.817307 L 25.2747 8.695206 L 26.007299 8.328903 L 25.5189 8.206802 L 24.786301 5.764801 L 24.42 4.177505 Z M 32.966999 2.956497 L 33.455399 3.3228 L 33.211201 6.741592 L 33.0891 7.352097 L 32.722801 7.718399 L 34.065899 7.962601 L 35.164799 7.8405 L 35.8974 7.229996 L 36.019501 6.863693 L 36.019501 6.131104 L 35.164799 5.154297 L 35.653198 4.543793 L 35.775299 3.933304 L 35.531101 3.444901 L 35.042702 3.078598 Z M 34.310101 5.276398 L 35.164799 5.886902 L 35.409 6.619507 L 35.2869 7.229996 L 34.676399 7.718399 L 34.310101 7.718399 L 33.821701 7.474197 L 33.6996 7.229996 L 33.821701 5.6427 L 33.943802 5.398499 Z M 34.188 3.200699 L 34.554298 3.200699 L 35.164799 3.933304 L 35.164799 4.421707 L 34.7985 5.032196 L 33.943802 4.910095 L 33.943802 3.933304 Z M 28.449301 2.956497 L 27.594601 3.3228 L 26.9841 3.933304 L 26.6178 4.665894 L 26.6178 6.375305 L 27.106199 7.229996 L 27.8388 7.8405 L 29.7924 7.962601 L 30.6471 7.596298 L 31.1355 7.107895 L 31.623899 6.009003 L 31.623899 4.787994 L 31.1355 3.689102 L 30.525 3.200699 L 29.914499 2.956497 Z M 28.5714 3.200699 L 29.4261 3.200699 L 29.914499 3.444901 L 30.6471 4.177505 L 30.8913 4.665894 L 31.013399 5.276398 L 30.8913 6.619507 L 30.158701 7.474197 L 29.6703 7.718399 L 28.815599 7.718399 L 28.3272 7.474197 L 27.594601 6.741592 L 27.2283 5.886902 L 27.2283 4.421707 L 27.7167 3.689102 Z"/>
    </g>
</svg>
