<?xml version="1.0" encoding="UTF-8"?>
<svg xmlns="http://www.w3.org/2000/svg" viewBox="0 0 250 250" role="img" aria-label="Mediobanca logo">
<title>Mediobanca</title>
<g transform="translate(0 92.9565) scale(0.1221)">
<path fill="#000000" fill-rule="evenodd" d="M241 484L243 486L244 501L242 520L238 524L252 524L248 523L247 515L249 488L253 485ZM291 483L276 485L260 485L259 487L259 492L263 488L273 488L275 507L275 522L272 524L285 523L281 522L280 518L279 487L289 487L292 490ZM327 478L318 477L309 479L301 486L298 492L297 500L301 511L309 518L312 519L326 518L334 513L339 504L338 489L335 484ZM313 480L321 480L325 482L333 492L334 507L328 514L324 516L316 516L312 514L306 508L303 501L302 496L303 489L309 482ZM195 477L198 479L196 492L191 512L187 515L206 520L214 520L220 518L226 513L230 505L231 498L229 490L226 486L219 481L198 476ZM204 480L217 484L222 489L225 496L225 503L223 509L218 515L211 518L202 517L197 513L200 493ZM167 464L169 467L169 470L164 483L160 490L157 499L155 501L152 501L172 510L176 504L169 506L163 503L162 499L167 488L170 487L174 489L177 494L180 487L173 486L169 482L175 470L180 472L183 478L185 477L187 472ZM374 454L359 462L356 465L359 465L362 468L374 491L376 497L374 499L376 499L385 495L386 493L379 490L373 478L380 474L385 476L383 469L372 475L365 463L373 458L378 460L376 454ZM133 445L136 449L120 476L114 479L115 481L121 485L125 486L122 482L130 470L135 474L136 487L138 494L147 500L142 492L140 480L141 474L145 473L151 468L153 462L152 458L150 455ZM141 452L147 457L148 462L142 471L137 472L131 467L139 453ZM383 448L382 450L386 450L389 453L404 475L405 482L416 475L408 472L391 447L392 443ZM106 425L98 426L92 429L85 437L83 443L83 449L85 456L95 467L100 470L104 469L108 464L104 466L100 466L91 459L88 451L88 445L91 438L98 431L102 429L110 429L115 432L122 440L123 444L121 449L128 442L117 430ZM430 410L427 411L421 418L426 417L446 437L444 438L428 436L401 435L423 459L426 468L435 459L430 460L411 441L415 440L432 442L454 442L449 435L429 414ZM440 393L461 424L463 429L461 433L464 431L469 423L462 420L457 413L465 404L480 408L486 400L478 402L445 393ZM449 401L453 400L457 401L461 404L456 410ZM80 390L79 393L75 397L51 414L47 413L48 416L55 424L54 420L60 414L76 402L83 398L86 399ZM55 349L56 352L44 360L26 369L23 369L21 367L22 372L32 390L39 395L49 396L57 394L65 387L67 383L68 376L66 368L57 350ZM58 359L62 365L64 372L63 379L61 383L55 389L48 392L41 392L35 389L31 384L28 378L28 375L31 372L44 365ZM131 348L128 346L120 346L113 351L112 356L115 359L128 355ZM125 352L119 356L116 355L116 353L120 349L123 349ZM472 339L466 349L469 347L472 347L496 358L493 360L454 372L456 374L484 387L489 391L489 394L493 388L494 382L492 385L488 385L467 376L467 373L502 362L506 359L473 343ZM411 332L410 336L418 342L421 342L426 338L425 335L417 330L414 330ZM414 333L417 333L421 336L416 338L414 337ZM245 320L244 322L248 331L250 331ZM481 304L478 310L473 331L481 334L477 327L479 317L481 313L483 313L511 343L519 315L517 313L511 311L515 318L512 331L509 334ZM1 302L5 313L6 310L18 311L21 316L22 322L17 326L8 330L9 337L11 341L11 338L19 330L46 312L40 310L7 306ZM22 312L24 311L36 313L31 317L24 319ZM434 297L432 300L432 303L435 306L440 306L442 303L441 297L439 296ZM283 295L282 299L284 308L287 314L290 317L292 317L289 313L287 302ZM292 294L297 312L302 317L304 317L299 308L298 302L295 296ZM196 294L204 303L223 313L230 312L220 310L217 307L205 301L204 298L210 294L212 294L220 301L217 294L212 292L207 292L204 295ZM481 289L481 297L484 294L506 296L519 299L520 302L522 295L522 288L520 292L518 293L486 289L484 288L483 285ZM302 284L302 288L304 291L306 300L314 309L316 309L310 303L304 286ZM85 281L86 285L89 288L94 290L108 291L112 289L111 283L103 279L91 278L86 279ZM95 282L105 284L106 287L104 289L99 288L95 286ZM3 266L0 272L0 290L2 294L10 295L10 293L6 292L3 288L2 284L3 275L12 265L18 263L27 263L36 269L38 273L38 286L34 291L32 291L30 293L40 293L41 276L40 271L35 263L26 258L15 258L8 261ZM523 281L523 270L521 272L517 272L509 269L508 258L512 255L523 252L522 241L522 243L519 247L482 262L484 264L514 274L520 277ZM505 258L506 263L504 268L495 265L493 263ZM228 241L227 245L228 252L231 256L233 256L231 251L231 243L230 241ZM345 208L349 212L352 212L355 208L352 210L349 209L348 205ZM6 204L4 216L6 213L19 213L34 216L3 238L0 242L36 248L39 252L41 240L39 241L38 244L17 242L10 240L40 219L45 214L10 209L6 206ZM258 203L263 202L260 201ZM515 195L514 201L501 216L493 213L486 213L481 217L480 228L483 241L483 238L488 235L513 231L519 231L522 233L521 224L519 220L518 225L504 227L503 221L513 211L517 205L517 199ZM501 221L502 227L500 229L488 231L483 230L482 225L484 221L488 218L496 217ZM257 195L262 195L267 200L277 200L281 198L285 198L290 200L287 196L275 197L273 195L273 193L270 196L267 196L265 194ZM1356 182L1364 183L1370 189L1370 298L1368 305L1365 308L1358 309L1358 311L1415 311L1432 303L1440 294L1444 286L1446 276L1445 265L1440 254L1430 244L1418 238L1417 236L1423 230L1431 216L1432 202L1429 194L1420 185L1406 180ZM1386 242L1406 243L1415 248L1424 258L1429 269L1430 288L1427 295L1419 303L1409 306L1401 306L1392 304L1386 299L1385 296ZM1388 185L1400 185L1405 187L1413 194L1416 200L1418 207L1417 223L1413 231L1406 236L1395 237L1387 236L1385 234L1386 186ZM1121 181L1124 183L1130 184L1133 187L1134 191L1134 297L1132 305L1129 308L1122 309L1122 311L1166 311L1166 309L1154 307L1151 303L1150 298L1150 189L1155 183L1162 182L1161 180ZM953 182L961 183L966 186L968 201L967 301L964 307L956 309L956 311L1001 313L1031 312L1042 309L1055 303L1071 289L1077 280L1083 265L1086 249L1086 238L1083 223L1078 211L1073 204L1062 193L1047 185L1024 180ZM988 186L1019 187L1032 191L1047 200L1056 209L1065 224L1069 237L1070 245L1068 267L1065 276L1057 289L1048 297L1039 302L1025 306L999 306L989 303L984 297L983 287L983 190L984 188ZM911 178L905 180L838 180L838 182L846 183L850 185L853 190L853 296L852 303L848 308L841 309L841 311L855 311L856 312L912 311L915 299L915 288L913 288L911 296L906 302L901 304L889 305L874 303L870 299L868 291L868 260L870 245L897 246L902 249L904 258L906 258L908 233L906 233L902 237L893 238L869 237L870 187L893 187L901 189L905 193L906 201L909 201ZM510 178L509 181L505 184L476 193L471 191L475 202L475 200L477 198L509 188L513 190ZM1977 179L1932 301L1924 308L1915 309L1915 311L1954 311L1954 309L1947 308L1944 304L1944 301L1955 266L1959 260L1997 261L2007 286L2009 294L2012 299L2014 306L2012 311L2047 311L2047 309L2037 307L2029 299L2019 277L2015 264L2010 254L2008 246L2002 233L1981 178ZM1978 207L1983 223L1988 234L1993 254L1961 251L1974 210ZM1806 191L1792 207L1786 219L1782 235L1782 254L1784 265L1794 286L1802 295L1813 303L1826 309L1836 312L1852 314L1868 314L1886 312L1894 309L1896 307L1898 299L1899 280L1897 281L1892 295L1887 300L1878 304L1851 305L1836 301L1823 293L1810 280L1802 266L1798 249L1798 231L1803 211L1808 203L1818 193L1830 187L1838 185L1859 184L1877 188L1885 192L1892 199L1895 208L1895 213L1896 215L1898 215L1900 186L1899 182L1865 177L1845 177L1837 178L1820 183ZM1624 177L1623 180L1622 302L1617 308L1609 309L1609 311L1650 311L1650 309L1639 307L1636 304L1634 299L1631 220L1632 206L1695 275L1732 312L1736 312L1737 188L1740 184L1749 181L1709 182L1721 184L1725 189L1727 233L1726 285L1627 178ZM1525 178L1481 298L1476 305L1471 308L1462 309L1463 311L1502 310L1495 308L1492 305L1492 300L1505 261L1543 260L1546 264L1554 287L1557 292L1561 304L1560 311L1595 311L1594 309L1587 308L1583 306L1577 300L1563 268L1534 190L1528 177ZM1524 205L1526 207L1538 244L1541 250L1540 253L1534 254L1508 253L1512 238L1517 226L1522 208ZM1254 177L1238 181L1228 186L1214 199L1208 208L1201 225L1199 235L1199 257L1205 278L1210 288L1217 297L1224 303L1236 310L1246 313L1265 314L1276 312L1290 306L1302 297L1310 287L1315 278L1320 264L1322 252L1322 233L1320 222L1313 205L1309 199L1300 190L1293 185L1278 179L1268 177ZM1250 184L1267 184L1274 186L1283 191L1294 202L1300 212L1306 233L1306 262L1304 273L1299 285L1295 291L1287 299L1278 304L1266 307L1260 307L1248 304L1239 299L1231 292L1225 284L1218 270L1214 250L1215 225L1218 213L1223 203L1236 190L1243 186ZM667 178L665 187L662 223L658 249L653 299L651 305L648 308L640 309L640 311L677 309L667 307L664 301L667 259L670 238L670 227L672 216L678 226L686 245L718 309L720 311L722 311L754 243L769 215L772 234L778 302L777 310L813 311L813 309L803 308L799 306L795 302L793 297L786 242L780 181L777 177L766 198L727 283L724 287L721 283L671 179L669 177ZM286 172L286 174L288 176L296 176L303 178L301 176L297 175L289 175ZM286 161L282 169L285 169L285 166L287 165ZM7 197L14 193L50 192L52 191L48 186L21 164L21 159L18 164L17 171L20 169L30 177L27 187L11 187ZM31 182L33 179L43 186L37 188L31 184ZM264 155L268 155L270 157L270 162L271 156L270 154ZM386 151L382 151L380 153L380 155L384 156ZM293 146L294 155L296 157L297 150ZM281 143L281 146L285 146ZM477 136L468 139L461 145L458 150L458 162L462 170L467 175L474 178L483 178L491 175L498 168L500 161L500 154L499 150L494 142L486 137ZM489 142L494 146L496 150L496 160L494 164L483 173L479 174L469 173L463 167L461 162L461 157L463 152L468 146L478 141ZM34 132L28 144L29 155L34 159L43 159L47 156L49 160L54 165L60 165L63 163L69 154L71 147L68 150L39 135L36 132L37 130ZM50 152L53 148L63 153L65 156L61 160L55 160L50 156ZM30 145L34 139L36 139L48 145L50 148L44 154L36 154L31 150ZM376 127L365 119L358 125L352 128L356 138L372 138L373 132L376 130ZM372 131L368 135L357 134L358 129L362 128L364 126L368 127ZM292 106L285 112L281 112L278 110L282 114L285 115L290 111ZM453 81L449 81L418 95L413 96L410 94L413 99L418 103L418 99L428 94L430 94L437 101L437 104L430 116L435 122L438 123L437 115ZM445 88L440 97L438 98L434 91L438 89ZM237 66L229 69L224 69L221 71L209 74L201 79L198 79L187 84L169 88L156 94L144 97L139 102L112 121L93 143L75 173L72 186L70 189L69 198L62 217L62 230L60 237L60 274L64 320L72 334L78 351L83 357L84 361L95 380L102 389L116 403L131 414L137 420L178 445L191 450L225 457L262 459L313 459L321 456L323 454L330 454L334 451L337 451L344 448L369 432L375 432L386 428L398 419L407 409L428 377L434 363L449 338L456 320L458 310L461 305L465 285L466 247L464 243L461 225L455 205L448 188L439 172L438 166L434 158L415 134L399 117L343 82L330 77L323 76L314 71L284 66ZM283 443L288 443L289 447L282 446ZM225 444L226 441L229 441L231 443L229 445ZM263 425L267 428L266 433L262 434L260 432L260 428ZM288 417L295 419L293 423L296 427L306 428L310 431L309 438L303 444L298 442L301 439L301 436L299 434L285 428L282 425L282 422ZM234 422L233 425L230 425L227 423L220 426L216 425L216 423L218 421L229 417ZM348 416L350 416L355 422L355 427L353 429L349 429L346 426L346 418ZM298 416L301 414L306 415L305 418L300 418ZM248 416L250 414L254 414L256 416L254 418L251 418ZM328 410L322 432L318 438L314 438L314 433L311 428L307 426L306 422L312 421L314 414L318 409ZM190 434L198 423L202 410L204 408L212 411L216 416L208 428L208 433L216 432L224 429L227 429L234 433L237 430L240 422L244 421L249 422L251 424L252 441L253 436L257 436L259 439L262 439L264 437L273 434L273 423L271 421L266 421L264 419L264 417L266 415L273 415L277 417L278 428L284 432L293 434L295 439L286 439L282 437L278 437L272 447L259 447L252 443L250 446L239 447L233 439L230 437L226 437L216 442L213 442L194 437ZM195 407L196 416L193 424L189 428L180 429L178 427L178 419L182 413L188 407L191 406ZM325 434L327 431L327 426L330 421L333 408L337 403L345 403L348 406L363 413L371 419L366 424L362 425L351 413L344 410L342 412L341 416L344 431L342 433L335 434L332 436L327 436ZM347 398L349 396L356 396L362 399L367 404L368 411L366 413L352 404ZM364 382L366 382L368 384L368 388L373 396L384 406L384 409L380 413L376 413L368 401L361 394L358 393L357 389L358 387ZM314 393L311 396L305 397L296 401L283 400L280 397L282 395L290 392L299 384L303 382L308 382L312 386ZM162 369L166 369L171 372L186 388L192 392L204 395L227 407L243 411L246 414L244 416L240 416L223 412L195 398L184 391L165 376L161 371ZM261 366L274 380L276 384L278 394L274 397L271 397L267 394L262 383L261 376L258 370L258 368ZM151 366L155 371L154 376L135 396L130 397L118 385L117 379L125 370L132 367L143 365ZM358 361L357 364L346 373L339 372L338 364L341 361L356 359ZM251 354L256 359L256 373L261 388L260 394L253 393L251 391L244 375L238 369L234 368L234 364ZM257 347L260 347L264 350L264 352L272 363L275 370L285 382L288 389L286 391L284 391L280 387L279 384L274 379L273 376L265 367L255 352L255 349ZM392 344L395 347L398 356L390 364L389 369L393 373L405 369L412 369L414 371L413 377L407 385L402 387L404 380L400 377L397 377L387 381L383 381L378 377L378 366L383 358L387 348ZM140 345L146 353L147 356L146 360L137 362L135 364L127 365L122 368L114 376L108 369L103 358L103 352L105 346L110 342L118 340L132 340ZM263 343L267 340L302 338L305 342L305 351L301 366L304 370L313 374L325 390L319 391L314 383L309 378L306 377L293 384L291 383L281 372L268 351L264 347ZM397 338L406 347L423 353L424 358L418 366L409 364L397 369L394 369L392 366L396 361L403 360L404 358L397 345L394 342ZM340 341L344 338L345 344L350 352L357 353L362 351L364 354L362 356L349 359L345 357L341 353ZM312 338L310 343L308 341L308 339ZM92 333L98 327L109 324L117 324L133 328L137 333L136 337L133 337L130 335L121 335L108 338L99 345L94 339ZM398 330L401 326L407 323L412 323L424 326L431 332L433 336L433 341L431 345L427 348L417 348L406 343L399 336ZM333 318L336 319L337 360L333 367L333 371L342 379L333 386L330 386L314 371L307 369L305 367L305 362L312 352L314 343L319 337L322 338L323 341L323 353L325 358L325 365L323 367L316 361L312 361L321 369L325 369L329 364L325 343L325 329L329 322ZM371 316L375 319L378 328L376 335L372 342L366 348L362 348L355 351L351 347L349 341L346 337L347 332L350 332L353 334L359 342L365 333L362 320L366 317ZM127 314L129 314L131 316L131 321L127 322L124 319ZM407 318L415 314L423 313L429 318L437 318L442 320L442 323L440 325L439 329L434 331L429 325L423 322ZM253 310L256 312L258 316L258 320L261 327L254 335L245 339L241 335L240 331L234 321L235 318L242 318L242 314L246 310ZM122 311L122 316L119 319L111 319L102 321L91 327L89 327L85 323L82 313L84 311L108 312L115 310ZM237 303L239 300L248 297L257 305L256 308L252 307L248 303L245 304L244 307L239 308L237 306ZM79 298L81 296L83 296L86 298L100 302L115 302L121 299L123 301L119 305L113 308L89 308L81 304L79 301ZM157 298L149 303L146 303L143 299L145 297L153 295ZM243 292L243 295L240 298L236 298L234 295L239 291ZM408 296L410 292L413 290L415 291L420 299L411 300ZM256 289L259 292L259 296L257 298L253 298L251 297L250 293ZM415 281L428 289L432 290L446 289L449 292L448 305L442 314L436 315L422 309L411 311L407 308L408 305L412 303L424 302L427 299L427 296L424 293L419 291L413 285ZM419 278L425 278L434 275L443 275L450 280L450 284L447 287L436 287L424 283ZM74 280L81 273L104 273L116 278L121 284L121 290L120 293L114 298L109 299L101 297L92 297L84 293ZM360 324L359 332L355 331L344 324L340 318L340 308L336 309L335 313L328 319L326 323L310 335L278 336L271 338L266 332L261 316L258 311L261 307L262 300L266 299L270 302L269 306L270 310L273 312L274 323L279 329L283 331L297 331L320 319L326 314L330 308L323 302L322 295L320 291L314 286L310 286L317 293L320 303L325 310L318 316L306 317L306 320L303 322L293 319L298 322L301 326L299 328L284 329L278 324L277 313L274 301L271 298L271 296L282 288L294 285L298 279L306 272L315 268L320 268L327 274L336 292L341 296L347 296L352 300L352 304L356 311L356 319ZM139 269L141 268L152 280L152 282L150 284L138 283L138 271ZM352 262L357 262L364 269L368 276L369 297L371 305L370 313L367 314L363 313L357 307L353 295L344 286L346 268ZM74 265L77 262L99 262L108 265L113 265L119 270L118 273L115 273L106 268L85 268L77 270L74 269ZM428 254L430 254L432 256L432 259L430 261L427 260L426 256ZM444 252L447 253L446 257L444 257L442 254ZM141 291L141 289L145 286L158 284L150 273L149 269L152 267L158 269L159 263L165 257L166 251L170 256L168 271L168 280L166 282L163 282L168 283L175 280L196 262L205 257L215 255L221 261L219 263L208 262L200 266L194 272L192 277L184 282L181 291L177 295L174 295L171 293L153 293ZM160 253L156 257L156 259L153 261L151 258L148 258L147 263L145 263L143 261L143 256L147 253L153 251ZM416 251L419 249L423 252L424 263L426 265L433 263L435 254L438 253L440 255L441 261L449 262L451 264L449 272L443 272L439 269L436 269L430 273L422 273L417 268L416 265ZM354 248L357 249L357 253L356 255L353 256L351 254L352 250ZM313 248L324 248L327 250L333 267L339 275L339 279L336 282L327 269L312 260L311 250ZM304 238L306 254L309 258L309 265L302 269L291 281L267 287L268 293L265 297L258 288L258 286L254 286L250 290L247 291L245 289L244 286L247 283L251 283L255 277L259 277L262 280L262 285L264 284L266 279L269 276L277 273L286 266L295 256L296 252L299 248L301 235ZM255 235L257 231L263 231L267 233L274 231L278 233L283 238L284 244L280 249L271 245L257 244L255 242ZM239 234L240 232L246 232L248 238L255 246L265 247L275 251L280 251L286 247L289 241L293 241L294 248L292 253L277 270L270 271L267 266L261 265L259 267L264 268L266 271L260 276L258 274L258 269L249 268L245 262L245 258L247 255L247 249L239 240ZM417 238L421 238L420 235L421 232L431 227L439 227L442 228L444 231L440 235L433 239L423 240L435 241L447 233L450 235L451 241L444 248L432 250L416 245ZM268 227L271 229L268 231L266 229ZM234 226L238 227L234 234L234 239L243 251L243 263L244 265L249 268L250 270L250 277L232 294L234 306L238 312L238 314L232 318L232 323L240 338L240 344L216 360L208 368L216 365L227 356L239 349L261 333L264 334L264 338L251 350L237 360L214 372L210 376L212 377L214 375L223 375L224 371L226 369L231 369L235 371L242 379L245 390L245 393L243 394L240 393L234 387L232 380L225 376L231 385L230 390L227 390L217 382L200 380L194 374L189 366L189 361L202 351L205 352L204 362L206 363L207 350L206 348L202 346L190 357L185 359L183 357L184 353L196 345L202 338L200 337L190 346L183 350L176 348L179 345L187 342L191 338L191 335L185 337L177 343L173 342L180 333L180 330L169 338L162 337L158 332L157 328L159 326L164 325L166 322L155 321L153 319L154 317L157 315L169 317L175 314L173 313L151 313L149 311L149 308L155 303L160 303L168 307L175 307L177 305L167 304L160 298L162 296L183 298L185 303L192 312L203 318L213 320L219 323L223 323L219 319L215 319L206 314L200 313L196 310L185 295L185 289L187 285L200 291L204 291L206 289L216 288L225 296L226 294L225 289L218 283L212 282L201 287L198 287L193 285L191 282L197 276L197 274L199 272L206 270L223 270L225 271L228 280L231 280L228 267L221 255L219 244L224 236ZM124 229L125 238L118 262L105 260L98 257L79 257L77 254L79 249L79 242L82 240L93 248L104 251L111 250L114 247L116 241L116 233L113 227L114 224L118 224ZM342 222L345 223L343 226L341 224ZM288 233L285 235L275 225L263 225L258 228L254 227L254 225L260 221L261 219L278 217L282 220ZM382 216L386 222L386 226L392 241L392 290L384 313L384 316L380 321L378 319L375 311L373 284L369 270L361 260L359 254L378 235L378 231L381 226L379 218ZM330 206L333 207L331 211L329 209ZM210 213L208 215L206 215L194 229L189 231L185 231L184 242L176 249L171 248L175 243L175 240L173 237L174 233L178 232L181 227L178 221L181 219L184 222L186 222L187 218L191 216L194 209L197 206L200 207L199 215L204 214L208 211ZM412 201L420 212L417 215L413 216L406 214L402 209L408 203ZM298 193L301 193L307 199L307 216L301 221L298 218L299 203L297 197ZM136 193L139 193L141 195L142 199L139 202L135 198ZM433 191L437 192L438 199L434 202L431 199L431 193ZM344 192L344 194L340 198L335 198L337 195ZM173 191L177 196L179 201L179 206L175 217L175 227L168 233L167 240L164 244L152 249L148 249L146 247L159 211L168 195ZM255 189L264 187L280 187L289 190L294 195L296 200L297 223L296 229L292 231L290 229L289 216L280 212L271 215L262 209L258 209L254 213L260 213L260 220L253 221L250 217L248 210L250 200ZM180 187L182 187L184 189L184 192L188 200L187 206L184 206L183 200L179 194L178 189ZM204 184L206 186L206 188L202 194L202 196L199 199L194 200L194 197L198 188L202 184ZM193 179L195 181L195 184L192 189L192 192L190 194L188 192L188 186L189 183ZM424 176L432 184L428 192L427 201L438 206L442 210L444 221L440 224L424 228L417 232L413 231L409 224L410 220L421 218L428 213L417 204L416 198L414 196L406 200L399 207L396 203L396 199L394 194L397 191L401 190L414 182L419 177ZM248 174L255 174L258 178L256 182L252 185L244 184L245 177ZM335 171L340 172L355 179L362 187L361 190L356 189L353 194L351 192L351 190L347 190L344 188L340 189L335 193L330 201L325 206L325 209L330 215L332 222L335 222L341 227L346 227L351 222L352 219L345 216L339 209L340 202L344 198L353 198L363 195L368 200L372 212L372 220L368 226L365 239L360 244L356 243L353 240L353 238L361 229L364 217L362 215L360 215L357 218L360 221L360 224L356 231L350 237L349 249L344 261L339 266L337 266L335 264L332 249L326 244L310 241L303 228L308 220L310 214L323 202L330 184L330 177ZM121 165L123 165L125 167L125 170L122 177L126 181L140 183L147 185L149 187L148 191L143 191L133 187L126 188L128 195L134 206L134 212L132 217L127 216L122 205L119 192L115 187L111 188L106 195L103 196L101 194L101 190L113 173ZM332 162L336 161L339 162L353 172L369 178L375 184L377 189L380 192L386 206L397 224L400 233L399 294L395 307L388 322L382 325L383 320L389 311L389 305L394 294L396 282L396 245L395 239L391 231L389 219L383 209L378 204L372 194L363 184L361 180L355 175L352 175L341 169L335 168L331 164ZM372 160L374 160L376 162L375 166L372 166L370 164L370 162ZM410 156L413 159L415 166L418 170L419 173L414 179L396 188L390 187L388 182L389 176L394 170L395 166L402 159ZM220 155L222 157L221 165L219 167L218 173L216 175L216 184L218 192L224 202L231 209L242 214L241 200L242 194L245 190L249 191L249 195L246 203L244 220L237 221L226 228L217 238L213 248L210 251L201 254L173 275L174 255L177 252L184 249L189 244L193 235L205 222L215 223L220 218L219 213L216 210L214 210L212 208L208 209L205 208L206 196L210 189L209 180L206 178L193 175L192 172L196 168L207 161ZM315 152L319 158L320 176L317 188L315 192L312 194L311 184L313 174L313 152ZM329 147L350 152L367 166L379 178L391 198L393 207L402 217L400 222L395 217L392 209L389 206L377 182L366 172L362 170L355 169L348 165L344 161L332 156L328 151ZM251 147L254 150L242 173L239 188L237 190L233 189L232 172L238 160L239 155L241 151ZM202 151L223 144L227 148L224 151L216 153L192 165L164 192L160 202L152 216L152 219L144 238L141 251L134 270L134 283L136 287L137 294L144 311L150 321L158 339L181 360L185 367L192 375L193 379L197 383L202 385L214 385L227 395L234 395L244 398L265 398L275 401L283 401L285 403L297 404L306 401L310 401L331 391L349 378L366 358L372 349L377 338L390 323L399 304L399 300L401 297L404 267L404 244L402 233L405 230L409 230L411 232L414 244L407 290L400 311L398 322L374 364L349 391L333 402L322 407L316 407L292 413L274 413L267 410L246 409L243 407L231 404L188 384L172 368L156 362L149 355L138 326L138 322L131 308L127 296L127 288L125 281L125 260L129 241L136 222L144 209L146 203L161 183L176 168L194 155ZM169 143L173 147L176 153L176 162L171 165L162 156L162 151L166 144ZM360 149L365 147L373 147L381 142L385 142L393 150L395 154L394 161L387 176L384 178L377 172L377 168L380 161L374 157L368 159L363 159L357 152ZM387 135L390 135L396 139L405 148L406 152L404 154L399 153L386 137ZM298 135L302 134L311 142L310 146ZM246 143L250 139L256 136L270 133L286 134L292 138L302 141L306 148L307 159L309 162L309 172L306 187L303 190L301 190L292 186L277 185L271 183L261 182L260 173L257 170L250 168L250 165L252 163L256 163L262 168L266 167L267 164L262 165L256 163L255 152L267 138L250 145ZM291 133L292 131L297 133L295 135L293 135ZM286 129L289 131L287 133L285 131ZM175 126L179 129L184 139L192 147L192 150L184 156L181 153L173 139L169 135L166 135L157 150L157 156L166 169L160 175L153 162L145 154L142 153L139 149L144 145L151 148L154 145L159 135L164 130ZM294 123L298 123L304 126L320 139L322 145L328 155L329 171L326 191L324 196L315 207L312 206L311 202L312 199L318 193L320 189L320 184L322 179L322 159L319 154L319 151L313 141L305 133L295 128L292 125ZM272 121L275 125L272 128L261 129L253 135L249 135L242 142L235 154L228 173L228 181L230 189L237 197L236 206L234 207L227 201L221 191L221 169L223 166L223 162L226 154L235 139L245 129L251 126L256 126L269 121ZM200 114L208 113L211 115L222 138L218 141L210 143L208 141L206 133L199 120ZM384 126L383 133L377 142L371 145L359 146L353 149L343 148L326 143L322 140L321 137L326 135L337 136L340 134L346 127L346 115L348 117L350 117L360 107L364 107L375 114L380 119ZM235 98L245 105L244 112L236 113L232 115L226 108L232 103ZM359 97L387 114L396 121L413 138L429 159L441 182L453 210L455 223L460 239L462 255L461 282L458 297L449 322L448 329L441 344L432 358L420 381L399 411L385 424L373 429L371 427L371 425L388 411L393 405L389 402L383 401L375 393L370 384L370 377L373 375L375 377L376 381L381 385L397 386L398 394L401 397L409 390L413 381L424 365L438 339L442 329L442 326L447 318L450 307L450 300L453 294L453 282L455 274L455 240L450 227L449 220L445 210L445 206L442 200L440 191L434 180L419 166L417 160L409 146L391 130L384 119L375 110L366 106L357 98ZM319 96L320 105L329 116L329 119L326 121L316 111L308 110L304 114L303 117L299 121L297 121L295 119L307 101L313 95ZM355 105L351 110L344 103L339 100L335 100L333 102L333 106L340 115L342 122L341 128L338 132L320 131L313 128L306 123L306 118L311 114L321 123L333 122L334 118L333 115L325 104L325 100L332 94L337 94L346 97L352 101ZM230 94L232 97L226 102L207 108L191 111L189 113L190 117L196 122L200 132L202 134L203 138L202 146L198 146L190 140L186 135L186 131L182 125L181 121L178 119L158 128L152 137L146 136L131 149L131 151L134 154L140 156L149 164L155 177L155 180L153 182L139 180L131 177L129 175L131 170L130 164L121 158L116 162L96 188L94 194L95 196L101 200L108 201L109 197L113 193L115 195L118 209L120 211L122 220L119 221L110 215L102 213L102 216L112 233L112 239L108 245L103 246L97 244L78 234L77 223L79 220L79 215L81 212L82 205L91 185L114 156L144 125L147 123L165 118L171 115L174 115L179 112L188 110L194 106L197 106L202 103L207 102L216 97ZM288 92L289 88L292 88L294 91L292 93ZM297 88L301 88L298 90ZM255 86L258 89L262 102L269 117L263 121L259 121L246 126L231 138L226 137L224 135L223 129L216 115L217 110L224 110L226 112L226 117L228 121L232 121L236 118L250 117L250 108L253 101L245 100L242 97L241 93L244 90L252 86ZM274 84L280 86L282 89L277 94L273 93L271 90L271 87ZM262 82L266 82L266 91L270 97L274 107L276 108L278 105L286 103L293 96L296 98L294 101L294 105L301 92L305 91L307 93L300 107L285 123L280 124L268 107L263 96ZM283 73L299 72L305 73L318 79L337 85L342 88L328 90L315 89L304 82L298 81ZM231 73L243 71L255 71L262 72L264 74L245 84L236 85L228 89L214 92L193 102L180 105L163 113L144 119L127 135L91 175L80 196L72 225L73 251L70 259L70 273L72 288L74 293L74 302L83 327L94 345L105 369L110 376L114 385L131 402L137 406L136 401L138 398L144 395L145 402L150 407L154 408L157 405L158 400L153 396L157 394L167 394L167 392L165 390L151 386L151 384L158 377L160 377L167 383L169 383L176 390L185 396L188 402L182 406L172 422L166 421L148 412L143 408L139 407L139 409L148 416L166 425L181 434L185 438L199 443L203 443L216 448L223 448L233 451L242 452L284 451L311 447L326 441L330 441L339 436L346 435L357 430L360 431L360 433L343 444L337 447L326 449L316 454L241 455L201 448L187 444L185 442L179 440L165 430L146 420L116 397L107 388L90 364L86 354L79 342L77 335L71 327L68 315L68 308L65 296L67 220L74 196L78 188L79 179L82 170L86 166L88 161L107 134L121 120L136 111L146 103L166 95L176 93L183 90L191 89L203 83ZM91 62L89 62L99 96L88 93L71 86L65 85L88 116L87 120L90 119L95 114L95 112L92 113L81 101L80 95L102 103L105 103L104 96L96 75L98 74L117 91L125 83L122 85L119 85ZM402 48L399 49L391 56L388 62L388 75L391 81L397 87L408 92L414 86L410 88L405 88L400 85L393 76L393 65L395 60L403 52L411 50L418 53L426 61L427 65L425 70L432 62L424 54L416 49ZM125 37L108 49L112 49L117 55L131 77L130 82L148 71L148 68L145 63L145 68L137 74L132 69L127 61L133 56L138 58L137 54L135 51L127 57L125 57L118 47L119 44L124 41L129 43L127 37ZM174 19L169 18L162 19L146 25L141 29L144 29L149 36L158 58L157 64L160 64L178 56L183 52L186 47L187 43L186 31L184 27L178 21ZM162 22L166 22L174 25L179 30L183 38L183 45L181 49L175 55L168 58L165 58L162 55L151 29L151 27L153 25ZM296 41L307 44L306 39L313 30L319 31L324 33L325 49L332 50L347 56L345 54L345 49L355 27L357 29L369 66L372 66L386 35L388 33L391 33L387 30L380 28L383 31L383 33L372 57L370 55L367 43L357 16L341 49L335 50L330 45L325 7L319 13L304 36L300 40ZM321 16L323 22L322 30L314 27ZM203 6L191 9L195 11L197 16L203 42L203 45L201 48L207 47L213 44L209 43L203 23L200 10ZM270 0L274 3L272 31L271 36L268 39L279 41L288 40L294 35L295 32L295 26L288 18L292 13L293 8L291 4L287 1ZM281 19L288 24L290 30L289 35L284 39L281 39L277 37L276 35L277 22L278 20ZM280 2L283 2L288 8L288 12L285 17L278 16L278 8ZM233 0L226 3L221 8L218 14L218 28L222 35L228 40L244 41L251 38L255 34L259 25L259 15L255 6L250 2L245 0ZM234 2L241 2L245 4L251 10L253 14L254 19L253 30L247 37L243 39L236 39L232 37L226 31L223 24L223 12L227 6Z"/>
</g>
</svg>
