<?xml version="1.0" encoding="UTF-8"?>
<!-- Generated by Pixelmator Pro 3.8 -->
<svg width="250" height="65" viewBox="0 0 250 65" xmlns="http://www.w3.org/2000/svg">
    <g id="Group">
        <path id="Path" fill="#000000" fill-rule="evenodd" stroke="none" d="M 29.4261 60.052902 L 29.6703 60.297096 L 29.7924 62.128601 L 29.548201 64.448502 L 29.059799 64.936897 L 30.769199 64.936897 L 30.2808 64.814796 L 30.158701 63.837997 L 30.402901 60.541298 L 30.8913 60.175003 Z M 35.531101 59.930801 L 33.6996 60.175003 L 31.746 60.175003 L 31.623899 60.419197 L 31.623899 61.029701 L 32.112301 60.541298 L 33.333302 60.541298 L 33.577499 62.861198 L 33.577499 64.692703 L 33.211201 64.936897 L 34.7985 64.814796 L 34.310101 64.692703 L 34.188 64.2043 L 34.065899 60.419197 L 35.2869 60.419197 L 35.653198 60.7855 Z M 39.926701 59.320297 L 38.827801 59.198196 L 37.728901 59.442398 L 36.752102 60.297096 L 36.385799 61.029701 L 36.263699 62.0065 L 36.752102 63.349602 L 37.728901 64.2043 L 38.0952 64.326401 L 39.8046 64.2043 L 40.781399 63.593803 L 41.391899 62.494904 L 41.269798 60.663399 L 40.9035 60.052902 Z M 38.2173 59.564499 L 39.194099 59.564499 L 39.682499 59.808701 L 40.659302 61.029701 L 40.781399 62.861198 L 40.048801 63.715897 L 39.560398 63.960098 L 38.583599 63.960098 L 38.0952 63.715897 L 37.362598 62.983299 L 36.9963 62.128601 L 36.874199 61.518097 L 36.9963 60.663399 L 37.728901 59.808701 Z M 23.8095 59.198196 L 24.1758 59.442398 L 23.931601 61.029701 L 23.3211 63.471703 L 22.832701 63.837997 L 25.152599 64.448502 L 26.1294 64.448502 L 26.862 64.2043 L 27.594601 63.593803 L 28.083 62.616997 L 28.205099 61.762299 L 27.960899 60.7855 L 27.594601 60.297096 L 26.739901 59.6866 L 24.1758 59.076103 Z M 24.9084 59.564499 L 26.495701 60.052902 L 27.106199 60.663399 L 27.4725 61.518097 L 27.4725 62.372803 L 27.2283 63.1054 L 26.6178 63.837997 L 25.7631 64.2043 L 24.6642 64.082199 L 24.053699 63.593803 L 24.42 61.151802 Z M 20.390699 57.610901 L 20.634899 57.977203 L 20.634899 58.343498 L 20.024401 59.930801 L 19.535999 60.7855 L 19.169701 61.884399 L 18.925501 62.128601 L 18.5592 62.128601 L 21.0012 63.227501 L 21.489599 62.494904 L 20.634899 62.739098 L 19.9023 62.372803 L 19.780199 61.884399 L 20.390699 60.541298 L 20.757 60.419197 L 21.245399 60.663399 L 21.6117 61.273903 L 21.978001 60.419197 L 21.123301 60.297096 L 20.634899 59.808701 L 21.3675 58.343498 L 21.978001 58.5877 L 22.344299 59.320297 L 22.588499 59.198196 L 22.832701 58.5877 Z M 45.665401 56.3899 L 43.8339 57.366699 L 43.467602 57.733002 L 43.8339 57.733002 L 44.200199 58.099297 L 45.665401 60.9076 L 45.909599 61.640198 L 45.665401 61.884399 L 45.909599 61.884399 L 47.008499 61.396004 L 47.1306 61.151802 L 46.275902 60.7855 L 45.543301 59.320297 L 46.397999 58.831902 L 47.008499 59.076103 L 46.764301 58.221397 L 45.4212 58.954002 L 44.566502 57.4888 L 45.543301 56.878304 L 46.153801 57.122498 L 45.909599 56.3899 Z M 16.2393 55.291 L 16.6056 55.779404 L 14.652 59.076103 L 13.9194 59.442398 L 14.0415 59.6866 L 14.7741 60.175003 L 15.2625 60.297096 L 14.8962 59.808701 L 15.873 58.343498 L 16.4835 58.831902 L 16.6056 60.419197 L 16.8498 61.273903 L 17.9487 62.0065 L 17.3382 61.029701 L 17.094 59.564499 L 17.216101 58.831902 L 17.7045 58.709801 L 18.437099 58.099297 L 18.681299 57.366699 L 18.5592 56.878304 L 18.315001 56.512001 Z M 17.216101 56.145699 L 17.9487 56.756203 L 18.070801 57.366699 L 17.3382 58.465599 L 16.727699 58.5877 L 15.9951 57.977203 L 16.971901 56.267799 Z M 46.764301 55.657303 L 46.6422 55.901497 L 47.1306 55.901497 L 47.496899 56.267799 L 49.3284 58.954002 L 49.4505 59.808701 L 50.793598 58.954002 L 49.816799 58.5877 L 47.7411 55.535202 L 47.863201 55.046799 Z M 12.9426 52.848999 L 11.9658 52.9711 L 11.2332 53.337402 L 10.3785 54.314201 L 10.1343 55.046799 L 10.1343 55.779404 L 10.3785 56.634102 L 11.5995 57.977203 L 12.21 58.343498 L 12.6984 58.221397 L 13.1868 57.610901 L 12.6984 57.855103 L 12.21 57.855103 L 11.1111 57.000397 L 10.7448 56.023598 L 10.7448 55.291 L 11.1111 54.436302 L 11.9658 53.581596 L 12.4542 53.337402 L 13.431 53.337402 L 14.0415 53.703697 L 14.8962 54.680496 L 15.0183 55.1689 L 14.7741 55.779404 L 15.6288 54.924698 L 14.2857 53.459503 Z M 52.502998 51.017502 L 52.1367 51.139603 L 51.404099 51.994301 L 52.014599 51.8722 L 54.4566 54.314201 L 54.212399 54.436302 L 52.258801 54.192101 L 48.962101 54.07 L 51.6483 57.000397 L 52.014599 58.099297 L 53.113499 57.000397 L 52.502998 57.122498 L 50.183102 54.802597 L 50.671501 54.680496 L 52.7472 54.924698 L 55.433399 54.924698 L 54.822899 54.07 L 52.380901 51.505898 Z M 53.723999 48.941803 L 56.288101 52.726898 L 56.532299 53.337402 L 56.288101 53.825798 L 56.6544 53.581596 L 57.2649 52.604797 L 56.410198 52.238503 L 55.799702 51.383797 L 56.776501 50.284897 L 58.608002 50.7733 L 59.340599 49.796501 L 58.3638 50.040703 L 54.334499 48.941803 Z M 54.822899 49.918602 L 55.311298 49.796501 L 55.799702 49.918602 L 56.288101 50.284897 L 55.677601 51.017502 Z M 9.768 48.5755 L 9.6459 48.941803 L 9.1575 49.430199 L 6.2271 51.505898 L 5.7387 51.383797 L 5.8608 51.750099 L 6.7155 52.726898 L 6.5934 52.238503 L 7.326 51.505898 L 9.2796 50.040703 L 10.1343 49.552299 L 10.5006 49.6744 Z M 6.7155 43.569397 L 6.8376 43.935699 L 5.3724 44.912498 L 3.1746 46.011398 L 2.8083 46.011398 L 2.5641 45.767197 L 2.6862 46.377701 L 3.9072 48.5755 L 4.7619 49.185997 L 5.9829 49.308098 L 6.9597 49.063904 L 7.9365 48.209198 L 8.1807 47.720802 L 8.3028 46.866096 L 8.0586 45.889297 L 6.9597 43.691498 Z M 7.0818 44.790398 L 7.5702 45.523003 L 7.8144 46.377701 L 7.6923 47.232399 L 7.4481 47.720802 L 6.7155 48.4534 L 5.8608 48.819702 L 5.0061 48.819702 L 4.2735 48.4534 L 3.7851 47.842903 L 3.4188 47.110298 L 3.4188 46.744003 L 3.7851 46.377701 L 5.3724 45.523003 Z M 15.9951 43.447304 L 15.6288 43.203102 L 14.652 43.203102 L 13.7973 43.813599 L 13.6752 44.424103 L 14.0415 44.790398 L 15.6288 44.302002 Z M 15.2625 43.935699 L 14.5299 44.424103 L 14.1636 44.302002 L 14.1636 44.0578 L 14.652 43.569397 L 15.0183 43.569397 Z M 57.631199 42.348396 L 56.898602 43.569397 L 57.2649 43.325203 L 57.631199 43.325203 L 60.5616 44.668297 L 60.195301 44.912498 L 55.433399 46.377701 L 55.677601 46.621902 L 59.096401 48.209198 L 59.706902 48.697601 L 59.706902 49.063904 L 60.195301 48.331299 L 60.317402 47.598701 L 60.0732 47.964996 L 59.584801 47.964996 L 57.020699 46.866096 L 57.020699 46.499802 L 61.294201 45.1567 L 61.7826 44.790398 L 57.7533 42.8368 Z M 50.183102 41.493698 L 50.061001 41.982101 L 51.0378 42.714699 L 51.404099 42.714699 L 52.014599 42.226303 L 51.892502 41.860001 L 50.915699 41.249496 L 50.5494 41.249496 Z M 50.5494 41.615799 L 50.915699 41.615799 L 51.404099 41.982101 L 50.793598 42.226303 L 50.5494 42.104202 Z M 29.914499 40.028503 L 29.7924 40.272697 L 30.2808 41.371597 L 30.525 41.371597 Z M 58.730099 38.074898 L 58.3638 38.807503 L 57.7533 41.371597 L 58.730099 41.7379 L 58.241699 40.883202 L 58.485901 39.662201 L 58.730099 39.173798 L 58.9743 39.173798 L 62.393101 42.8368 L 63.3699 39.417999 L 63.125702 39.173798 L 62.393101 38.929604 L 62.8815 39.784302 L 62.515202 41.371597 L 62.148899 41.7379 Z M 0.1221 37.830704 L 0.6105 39.173798 L 0.7326 38.807503 L 2.1978 38.929604 L 2.5641 39.5401 L 2.6862 40.272697 L 2.0757 40.761101 L 0.9768 41.249496 L 1.0989 42.104202 L 1.3431 42.592598 L 1.3431 42.226303 L 2.3199 41.249496 L 5.6166 39.051697 L 4.884 38.807503 L 0.8547 38.319099 Z M 2.6862 39.051697 L 2.9304 38.929604 L 4.3956 39.173798 L 3.7851 39.662201 L 2.9304 39.906403 Z M 52.991402 37.2202 L 52.7472 37.586502 L 52.7472 37.952797 L 53.113499 38.319099 L 53.723999 38.319099 L 53.968201 37.952797 L 53.8461 37.2202 L 53.601898 37.098099 Z M 34.554298 36.975998 L 34.432201 37.464401 L 34.676399 38.563301 L 35.042702 39.295898 L 35.409 39.662201 L 35.653198 39.662201 L 35.2869 39.173798 L 35.042702 37.830704 Z M 35.653198 36.853897 L 36.263699 39.051697 L 36.874199 39.662201 L 37.118401 39.662201 L 36.5079 38.563301 L 36.385799 37.830704 L 36.019501 37.098099 Z M 23.931601 36.853897 L 24.9084 37.952797 L 27.2283 39.173798 L 28.083 39.051697 L 26.862 38.807503 L 26.495701 38.4412 L 25.0305 37.708603 L 24.9084 37.3423 L 25.641001 36.853897 L 25.885201 36.853897 L 26.862 37.708603 L 26.495701 36.853897 L 25.885201 36.609703 L 25.2747 36.609703 L 24.9084 36.975998 Z M 58.730099 36.243401 L 58.730099 37.2202 L 59.096401 36.853897 L 61.7826 37.098099 L 63.3699 37.464401 L 63.492001 37.830704 L 63.736198 36.975998 L 63.736198 36.1213 L 63.492001 36.609703 L 63.247799 36.731796 L 59.340599 36.243401 L 59.096401 36.1213 L 58.9743 35.754997 Z M 36.874199 35.632896 L 36.874199 36.1213 L 37.118401 36.487602 L 37.362598 37.586502 L 38.339401 38.685402 L 38.583599 38.685402 L 37.851002 37.952797 L 37.118401 35.877098 Z M 10.3785 35.266602 L 10.5006 35.754997 L 10.8669 36.1213 L 11.4774 36.365501 L 13.1868 36.487602 L 13.6752 36.243401 L 13.5531 35.510803 L 12.5763 35.0224 L 11.1111 34.900299 L 10.5006 35.0224 Z M 11.5995 35.388702 L 12.8205 35.632896 L 12.9426 35.999199 L 12.6984 36.243401 L 12.0879 36.1213 L 11.5995 35.877098 Z M 0.3663 33.435097 L 0 34.167702 L 0 36.365501 L 0.2442 36.853897 L 1.221 36.975998 L 1.221 36.731796 L 0.7326 36.609703 L 0.3663 36.1213 L 0.2442 35.632896 L 0.3663 34.533997 L 1.4652 33.313004 L 2.1978 33.068802 L 3.2967 33.068802 L 4.3956 33.801399 L 4.6398 34.289803 L 4.6398 35.877098 L 4.1514 36.487602 L 3.9072 36.487602 L 3.663 36.731796 L 4.884 36.731796 L 5.0061 34.656097 L 4.884 34.045601 L 4.2735 33.068802 L 3.1746 32.458298 L 1.8315 32.458298 L 0.9768 32.8246 Z M 63.858299 35.266602 L 63.858299 33.9235 L 63.614101 34.167702 L 63.125702 34.167702 L 62.148899 33.801399 L 62.026798 32.458298 L 62.515202 32.092003 L 63.858299 31.7257 L 63.736198 30.382599 L 63.736198 30.626801 L 63.3699 31.115196 L 58.8522 32.946701 L 59.096401 33.190903 L 62.759399 34.411903 L 63.492001 34.778198 Z M 61.6605 32.458298 L 61.7826 33.068802 L 61.538399 33.679298 L 60.439499 33.313004 L 60.195301 33.068802 Z M 27.8388 30.382599 L 27.7167 30.871002 L 27.8388 31.7257 L 28.205099 32.214104 L 28.449301 32.214104 L 28.205099 31.6036 L 28.205099 30.626801 L 28.083 30.382599 Z M 42.1245 26.353302 L 42.6129 26.841705 L 42.979198 26.841705 L 43.345501 26.353302 L 42.979198 26.597504 L 42.6129 26.475403 L 42.490799 25.987 Z M 0.7326 25.864899 L 0.4884 27.330093 L 0.7326 26.963806 L 2.3199 26.963806 L 4.1514 27.330093 L 0.3663 30.016296 L 0 30.5047 L 4.3956 31.237297 L 4.7619 31.7257 L 5.0061 30.260498 L 4.7619 30.382599 L 4.6398 30.748901 L 2.0757 30.5047 L 1.221 30.260498 L 4.884 27.696396 L 5.4945 27.085907 L 1.221 26.475403 L 0.7326 26.1091 Z M 31.501801 25.742798 L 32.112301 25.620697 L 31.746 25.498596 Z M 62.8815 24.766006 L 62.759399 25.498596 L 61.1721 27.330093 L 60.195301 26.963806 L 59.340599 26.963806 L 58.730099 27.452194 L 58.608002 28.795303 L 58.9743 30.382599 L 58.9743 30.016296 L 59.584801 29.649994 L 62.637299 29.161606 L 63.3699 29.161606 L 63.736198 29.405807 L 63.614101 28.3069 L 63.3699 27.818497 L 63.247799 28.429001 L 61.538399 28.673203 L 61.416302 27.940598 L 62.637299 26.719604 L 63.125702 25.987 L 63.125702 25.254395 Z M 61.1721 27.940598 L 61.294201 28.673203 L 61.049999 28.917404 L 59.584801 29.161606 L 58.9743 29.039505 L 58.8522 28.429001 L 59.096401 27.940598 L 59.584801 27.574295 L 60.5616 27.452194 Z M 31.3797 24.766006 L 31.9902 24.766006 L 32.6007 25.376495 L 33.821701 25.376495 L 34.310101 25.132294 L 34.7985 25.132294 L 35.409 25.376495 L 35.042702 24.888107 L 33.577499 25.010193 L 33.333302 24.766006 L 33.333302 24.521805 L 32.966999 24.888107 L 32.6007 24.888107 L 32.356499 24.643906 Z M 165.567596 23.178696 L 166.544403 23.300797 L 167.276993 24.033401 L 167.276993 37.3423 L 167.032806 38.196999 L 166.666504 38.563301 L 165.811798 38.685402 L 165.811798 38.929604 L 172.7715 38.929604 L 174.847198 37.952797 L 175.824005 36.853897 L 176.312393 35.877098 L 176.556595 34.656097 L 176.434494 33.313004 L 175.824005 31.969902 L 174.602997 30.748901 L 173.137802 30.016296 L 173.015701 29.772095 L 173.748306 29.039505 L 174.725098 27.330093 L 174.847198 25.620697 L 174.480896 24.643906 L 173.382004 23.544998 L 171.672607 22.934494 Z M 169.230606 30.5047 L 171.672607 30.626801 L 172.7715 31.237297 L 173.870407 32.458298 L 174.480896 33.801399 L 174.602997 36.1213 L 174.236694 36.975998 L 173.259903 37.952797 L 172.038895 38.319099 L 171.062103 38.319099 L 169.963196 38.074898 L 169.230606 37.464401 L 169.108505 37.098099 Z M 169.474792 23.544998 L 170.940002 23.544998 L 171.550507 23.7892 L 172.527298 24.643906 L 172.8936 25.376495 L 173.137802 26.231201 L 173.015701 28.184799 L 172.527298 29.161606 L 171.672607 29.772095 L 170.329498 29.894196 L 169.352707 29.772095 L 169.108505 29.527893 L 169.230606 23.667099 Z M 136.8741 23.056595 L 137.240402 23.300797 L 137.973007 23.422897 L 138.339294 23.7892 L 138.461395 24.277603 L 138.461395 37.2202 L 138.217194 38.196999 L 137.850906 38.563301 L 136.996201 38.685402 L 136.996201 38.929604 L 142.368607 38.929604 L 142.368607 38.685402 L 140.903397 38.4412 L 140.537094 37.952797 L 140.414993 37.3423 L 140.414993 24.033401 L 141.025497 23.300797 L 141.880203 23.178696 L 141.758102 22.934494 Z M 116.361298 23.178696 L 117.338097 23.300797 L 117.948601 23.667099 L 118.192802 25.498596 L 118.070702 37.708603 L 117.704399 38.4412 L 116.7276 38.685402 L 116.7276 38.929604 L 122.222099 39.173798 L 125.885101 39.051697 L 127.228203 38.685402 L 128.815506 37.952797 L 130.769104 36.243401 L 131.501694 35.144501 L 132.234299 33.313004 L 132.600601 31.359398 L 132.600601 30.016296 L 132.234299 28.184799 L 131.623795 26.719604 L 131.013306 25.864899 L 129.670197 24.521805 L 127.838699 23.544998 L 125.030403 22.934494 Z M 120.634804 23.667099 L 124.419899 23.7892 L 126.007202 24.277603 L 127.838699 25.376495 L 128.937607 26.475403 L 130.036499 28.3069 L 130.524902 29.894196 L 130.647003 30.871002 L 130.402802 33.557198 L 130.036499 34.656097 L 129.059692 36.243401 L 127.9608 37.2202 L 126.8619 37.830704 L 125.152496 38.319099 L 121.977898 38.319099 L 120.756897 37.952797 L 120.1464 37.2202 L 120.0243 35.999199 L 120.0243 24.155502 L 120.1464 23.911301 Z M 111.233101 22.690308 L 110.500504 22.934494 L 102.319801 22.934494 L 102.319801 23.178696 L 103.2966 23.300797 L 103.785004 23.544998 L 104.151299 24.155502 L 104.151299 37.098099 L 104.029198 37.952797 L 103.540802 38.563301 L 102.686096 38.685402 L 102.686096 38.929604 L 104.3955 38.929604 L 104.517601 39.051697 L 111.355202 38.929604 L 111.721497 37.464401 L 111.721497 36.1213 L 111.477303 36.1213 L 111.233101 37.098099 L 110.622597 37.830704 L 110.0121 38.074898 L 108.546898 38.196999 L 106.715401 37.952797 L 106.226997 37.464401 L 105.982803 36.487602 L 105.982803 32.702499 L 106.226997 30.871002 L 109.523697 30.993103 L 110.134201 31.359398 L 110.378403 32.458298 L 110.622597 32.458298 L 110.866798 29.405807 L 110.622597 29.405807 L 110.134201 29.894196 L 109.035301 30.016296 L 106.104897 29.894196 L 106.226997 23.7892 L 109.035301 23.7892 L 110.0121 24.033401 L 110.500504 24.521805 L 110.622597 25.498596 L 110.988899 25.498596 Z M 62.271 22.690308 L 62.148899 23.056595 L 61.6605 23.422897 L 58.119598 24.521805 L 57.509102 24.277603 L 57.997501 25.620697 L 57.997501 25.376495 L 58.241699 25.132294 L 62.148899 23.911301 L 62.637299 24.155502 Z M 241.391693 22.812393 L 235.897202 37.708603 L 234.920395 38.563301 L 233.821503 38.685402 L 233.821503 38.929604 L 238.583405 38.929604 L 238.583405 38.685402 L 237.728699 38.563301 L 237.362396 38.074898 L 237.362396 37.708603 L 238.705505 33.435097 L 239.193893 32.702499 L 243.833694 32.8246 L 245.054703 35.877098 L 245.298904 36.853897 L 245.665207 37.464401 L 245.909393 38.319099 L 245.665207 38.929604 L 249.938705 38.929604 L 249.938705 38.685402 L 248.717697 38.4412 L 247.740906 37.464401 L 246.519897 34.778198 L 246.031494 33.190903 L 245.421005 31.969902 L 245.176804 30.993103 L 244.444199 29.405807 L 241.880096 22.690308 Z M 241.513794 26.231201 L 242.124298 28.184799 L 242.734802 29.527893 L 243.345306 31.969902 L 239.438095 31.6036 L 241.025406 26.597504 Z M 220.512604 24.277603 L 218.803207 26.231201 L 218.070602 27.696396 L 217.582199 29.649994 L 217.582199 31.969902 L 217.826401 33.313004 L 219.047394 35.877098 L 220.0242 36.975998 L 221.367294 37.952797 L 222.954605 38.685402 L 224.175598 39.051697 L 226.129196 39.295898 L 228.082794 39.295898 L 230.280594 39.051697 L 231.257401 38.685402 L 231.501602 38.4412 L 231.745804 37.464401 L 231.867905 35.144501 L 231.623703 35.266602 L 231.013199 36.975998 L 230.402695 37.586502 L 229.303802 38.074898 L 226.007095 38.196999 L 224.175598 37.708603 L 222.588303 36.731796 L 221.001007 35.144501 L 220.0242 33.435097 L 219.535797 31.359398 L 219.535797 29.161606 L 220.146301 26.719604 L 220.756805 25.742798 L 221.977798 24.521805 L 223.442993 23.7892 L 224.4198 23.544998 L 226.983902 23.422897 L 229.181702 23.911301 L 230.158493 24.399704 L 231.013199 25.254395 L 231.379501 26.353302 L 231.379501 26.963806 L 231.501602 27.207993 L 231.745804 27.207993 L 231.990005 23.667099 L 231.867905 23.178696 L 227.716507 22.568207 L 225.274506 22.568207 L 224.297699 22.690308 L 222.222 23.300797 Z M 198.290405 22.568207 L 198.168304 22.934494 L 198.046204 37.830704 L 197.435699 38.563301 L 196.458893 38.685402 L 196.458893 38.929604 L 201.464996 38.929604 L 201.464996 38.685402 L 200.121902 38.4412 L 199.7556 38.074898 L 199.511398 37.464401 L 199.145096 27.818497 L 199.267197 26.1091 L 206.959503 34.533997 L 211.477203 39.051697 L 211.965607 39.051697 L 212.087708 23.911301 L 212.453995 23.422897 L 213.552902 23.056595 L 208.6689 23.178696 L 210.134094 23.422897 L 210.622498 24.033401 L 210.866699 29.405807 L 210.744598 35.754997 L 198.656693 22.690308 Z M 186.202499 22.690308 L 180.830093 37.3423 L 180.219604 38.196999 L 179.6091 38.563301 L 178.510193 38.685402 L 178.632294 38.929604 L 183.394196 38.807503 L 182.539505 38.563301 L 182.173203 38.196999 L 182.173203 37.586502 L 183.760498 32.8246 L 188.400299 32.702499 L 188.766602 33.190903 L 189.743393 35.999199 L 190.109695 36.609703 L 190.598099 38.074898 L 190.475998 38.929604 L 194.749496 38.929604 L 194.627396 38.685402 L 193.772705 38.563301 L 193.284302 38.319099 L 192.551697 37.586502 L 190.8423 33.679298 L 187.301407 24.155502 L 186.568802 22.568207 Z M 186.080399 25.987 L 186.3246 26.231201 L 187.789795 30.748901 L 188.156097 31.481499 L 188.033997 31.847801 L 187.301407 31.969902 L 184.126801 31.847801 L 184.615204 30.016296 L 185.225693 28.551102 L 185.836197 26.353302 Z M 153.113403 22.568207 L 151.159805 23.056595 L 149.938797 23.667099 L 148.229401 25.254395 L 147.496796 26.353302 L 146.642105 28.429001 L 146.397903 29.649994 L 146.397903 32.336197 L 147.130493 34.900299 L 147.740997 36.1213 L 148.595703 37.2202 L 149.450394 37.952797 L 150.915604 38.807503 L 152.136597 39.173798 L 154.456497 39.295898 L 155.799606 39.051697 L 157.509003 38.319099 L 158.974197 37.2202 L 159.951004 35.999199 L 160.561493 34.900299 L 161.171997 33.190903 L 161.416199 31.7257 L 161.416199 29.405807 L 161.171997 28.062698 L 160.317307 25.987 L 159.828903 25.254395 L 158.729996 24.155502 L 157.875305 23.544998 L 156.043793 22.812393 L 154.8228 22.568207 Z M 152.625 23.422897 L 154.700699 23.422897 L 155.555405 23.667099 L 156.654297 24.277603 L 157.997406 25.620697 L 158.729996 26.841705 L 159.462601 29.405807 L 159.462601 32.946701 L 159.218399 34.289803 L 158.607895 35.754997 L 158.119507 36.487602 L 157.1427 37.464401 L 156.043793 38.074898 L 154.578598 38.4412 L 153.845993 38.4412 L 152.380798 38.074898 L 151.281906 37.464401 L 150.305099 36.609703 L 149.572495 35.632896 L 148.717804 33.9235 L 148.229401 31.481499 L 148.351501 28.429001 L 148.717804 26.963806 L 149.328293 25.742798 L 150.915604 24.155502 L 151.770294 23.667099 Z M 81.440697 22.690308 L 81.196503 23.7892 L 80.8302 28.184799 L 80.341797 31.359398 L 79.7313 37.464401 L 79.487099 38.196999 L 79.120796 38.563301 L 78.143997 38.685402 L 78.143997 38.929604 L 82.661697 38.685402 L 81.440697 38.4412 L 81.074402 37.708603 L 81.440697 32.580399 L 81.806999 30.016296 L 81.806999 28.673203 L 82.051201 27.330093 L 82.783798 28.551102 L 83.760597 30.871002 L 87.667801 38.685402 L 87.912003 38.929604 L 88.156197 38.929604 L 92.0634 30.626801 L 93.894897 27.207993 L 94.2612 29.527893 L 94.993797 37.830704 L 94.871696 38.807503 L 99.267303 38.929604 L 99.267303 38.685402 L 98.046303 38.563301 L 97.557899 38.319099 L 97.069504 37.830704 L 96.825302 37.2202 L 95.970596 30.5047 L 95.237999 23.056595 L 94.871696 22.568207 L 93.528603 25.132294 L 88.766701 35.510803 L 88.400398 35.999199 L 88.034103 35.510803 L 81.9291 22.812393 L 81.684898 22.568207 Z M 34.920601 21.957703 L 34.920601 22.201904 L 35.164799 22.446106 L 36.141602 22.446106 L 36.9963 22.690308 L 36.752102 22.446106 L 36.263699 22.324005 L 35.2869 22.324005 Z M 34.920601 20.614594 L 34.432201 21.5914 L 34.7985 21.5914 L 34.7985 21.225098 L 35.042702 21.102997 Z M 0.8547 25.010193 L 1.7094 24.521805 L 6.105 24.399704 L 6.3492 24.277603 L 5.8608 23.667099 L 2.5641 20.980896 L 2.5641 20.370407 L 2.1978 20.980896 L 2.0757 21.835602 L 2.442 21.5914 L 3.663 22.568207 L 3.2967 23.7892 L 1.3431 23.7892 Z M 3.7851 23.178696 L 4.0293 22.812393 L 5.2503 23.667099 L 4.5177 23.911301 L 3.7851 23.422897 Z M 32.234402 19.882004 L 32.722801 19.882004 L 32.966999 20.126205 L 32.966999 20.736694 L 33.0891 20.004105 L 32.966999 19.759903 Z M 47.1306 19.3936 L 46.6422 19.3936 L 46.397999 19.637802 L 46.397999 19.882004 L 46.886398 20.004105 Z M 35.775299 18.783096 L 35.8974 19.882004 L 36.141602 20.126205 L 36.263699 19.2715 Z M 34.310101 18.416794 L 34.310101 18.783096 L 34.7985 18.783096 Z M 58.241699 17.562103 L 57.142799 17.928406 L 56.288101 18.660995 L 55.921799 19.2715 L 55.921799 20.736694 L 56.410198 21.713501 L 57.020699 22.324005 L 57.875401 22.690308 L 58.9743 22.690308 L 59.951099 22.324005 L 60.805801 21.469299 L 61.049999 20.614594 L 61.049999 19.759903 L 60.927898 19.2715 L 60.317402 18.294693 L 59.340599 17.684204 Z M 59.706902 18.294693 L 60.317402 18.783096 L 60.5616 19.2715 L 60.5616 20.492493 L 60.317402 20.980896 L 58.9743 22.079803 L 58.485901 22.201904 L 57.2649 22.079803 L 56.532299 21.347198 L 56.288101 20.736694 L 56.288101 20.126205 L 56.532299 19.515701 L 57.142799 18.783096 L 58.3638 18.172607 Z M 4.1514 17.0737 L 3.4188 18.538895 L 3.5409 19.882004 L 4.1514 20.370407 L 5.2503 20.370407 L 5.7387 20.004105 L 5.9829 20.492493 L 6.5934 21.102997 L 7.326 21.102997 L 7.6923 20.858795 L 8.4249 19.759903 L 8.6691 18.905197 L 8.3028 19.2715 L 4.7619 17.440002 L 4.3956 17.0737 L 4.5177 16.829498 Z M 6.105 19.515701 L 6.4713 19.027298 L 7.6923 19.637802 L 7.9365 20.004105 L 7.4481 20.492493 L 6.7155 20.492493 L 6.105 20.004105 Z M 3.663 18.660995 L 4.1514 17.928406 L 4.3956 17.928406 L 5.8608 18.660995 L 6.105 19.027298 L 5.3724 19.759903 L 4.3956 19.759903 L 3.7851 19.2715 Z M 45.909599 16.463196 L 44.566502 15.486404 L 43.7118 16.218994 L 42.979198 16.585297 L 43.467602 17.806305 L 45.4212 17.806305 L 45.543301 17.0737 L 45.909599 16.829498 Z M 45.4212 16.951599 L 44.9328 17.440002 L 43.589699 17.317902 L 43.7118 16.707397 L 44.200199 16.585297 L 44.444401 16.341095 L 44.9328 16.463196 Z M 35.653198 13.899094 L 34.7985 14.631699 L 34.310101 14.631699 L 33.943802 14.387497 L 34.432201 14.8759 L 34.7985 14.998001 L 35.409 14.509598 Z M 55.311298 10.846603 L 54.822899 10.846603 L 51.0378 12.556 L 50.427299 12.678101 L 50.061001 12.433899 L 50.427299 13.044403 L 51.0378 13.532806 L 51.0378 13.044403 L 52.258801 12.433899 L 52.502998 12.433899 L 53.3577 13.288605 L 53.3577 13.654907 L 52.502998 15.120102 L 53.113499 15.852707 L 53.479801 15.974792 L 53.3577 14.998001 Z M 54.334499 11.701294 L 53.723999 12.800201 L 53.479801 12.922302 L 52.991402 12.067596 L 53.479801 11.823395 Z M 28.9377 9.015106 L 27.960899 9.381393 L 27.350401 9.381393 L 26.9841 9.625595 L 25.5189 9.991898 L 24.542101 10.602402 L 24.1758 10.602402 L 22.832701 11.212906 L 20.634899 11.701294 L 19.0476 12.433899 L 17.582399 12.800201 L 16.971901 13.410706 L 13.6752 15.730606 L 11.3553 18.416794 L 9.1575 22.079803 L 8.7912 23.667099 L 8.547 24.033401 L 8.4249 25.132294 L 7.5702 27.452194 L 7.5702 29.039505 L 7.326 29.894196 L 7.326 34.411903 L 7.8144 40.028503 L 8.7912 41.7379 L 9.5238 43.813599 L 10.1343 44.546204 L 10.2564 45.034599 L 11.5995 47.3545 L 12.4542 48.4534 L 14.1636 50.162804 L 15.9951 51.505898 L 16.727699 52.238503 L 21.733801 55.291 L 23.3211 55.901497 L 27.4725 56.756203 L 31.9902 57.000397 L 38.2173 57.000397 L 39.194099 56.634102 L 39.438301 56.3899 L 40.292999 56.3899 L 40.781399 56.023598 L 41.147701 56.023598 L 42.002399 55.657303 L 45.054901 53.703697 L 45.787498 53.703697 L 47.1306 53.215302 L 48.595798 52.116402 L 49.694698 50.895401 L 52.258801 46.988197 L 52.991402 45.278801 L 54.822899 42.226303 L 55.677601 40.028503 L 55.921799 38.807503 L 56.288101 38.196999 L 56.776501 35.754997 L 56.898602 31.115196 L 56.6544 30.626801 L 56.288101 28.429001 L 55.5555 25.987 L 54.700802 23.911301 L 53.601898 21.957703 L 53.479801 21.225098 L 52.991402 20.248306 L 50.671501 17.317902 L 48.717899 15.242203 L 41.880299 10.968704 L 40.292999 10.3582 L 39.438301 10.236099 L 38.339401 9.625595 L 34.676399 9.015106 Z M 34.554298 55.046799 L 35.164799 55.046799 L 35.2869 55.535202 L 34.432201 55.413101 Z M 27.4725 55.1689 L 27.594601 54.802597 L 27.960899 54.802597 L 28.205099 55.046799 L 27.960899 55.291 Z M 32.112301 52.848999 L 32.6007 53.215302 L 32.4786 53.825798 L 31.9902 53.947899 L 31.746 53.703697 L 31.746 53.215302 Z M 35.164799 51.8722 L 36.019501 52.116402 L 35.775299 52.604797 L 36.141602 53.093201 L 37.362598 53.215302 L 37.851002 53.581596 L 37.728901 54.436302 L 36.9963 55.1689 L 36.385799 54.924698 L 36.752102 54.558403 L 36.752102 54.192101 L 36.5079 53.947899 L 34.7985 53.215302 L 34.432201 52.848999 L 34.432201 52.482697 Z M 28.5714 52.482697 L 28.449301 52.848999 L 28.083 52.848999 L 27.7167 52.604797 L 26.862 52.9711 L 26.3736 52.848999 L 26.3736 52.604797 L 26.6178 52.360603 L 27.960899 51.8722 Z M 42.490799 51.750099 L 42.735001 51.750099 L 43.345501 52.482697 L 43.345501 53.093201 L 43.101299 53.337402 L 42.6129 53.337402 L 42.246601 52.9711 L 42.246601 51.994301 Z M 36.385799 51.750099 L 36.752102 51.505898 L 37.362598 51.627998 L 37.240501 51.994301 L 36.630001 51.994301 Z M 30.2808 51.750099 L 30.525 51.505898 L 31.013399 51.505898 L 31.257601 51.750099 L 31.013399 51.994301 L 30.6471 51.994301 Z M 40.048801 51.017502 L 39.3162 53.703697 L 38.827801 54.436302 L 38.339401 54.436302 L 38.339401 53.825798 L 37.973099 53.215302 L 37.484699 52.9711 L 37.362598 52.482697 L 38.0952 52.360603 L 38.339401 51.505898 L 38.827801 50.895401 Z M 23.198999 53.947899 L 24.1758 52.604797 L 24.6642 51.017502 L 24.9084 50.7733 L 25.885201 51.139603 L 26.3736 51.750099 L 25.396799 53.215302 L 25.396799 53.825798 L 26.3736 53.703697 L 27.350401 53.337402 L 27.7167 53.337402 L 28.5714 53.825798 L 28.9377 53.459503 L 29.304001 52.482697 L 29.7924 52.360603 L 30.402901 52.482697 L 30.6471 52.726898 L 30.769199 54.802597 L 30.8913 54.192101 L 31.3797 54.192101 L 31.623899 54.558403 L 31.9902 54.558403 L 32.234402 54.314201 L 33.333302 53.947899 L 33.333302 52.604797 L 33.0891 52.360603 L 32.4786 52.360603 L 32.234402 52.116402 L 32.234402 51.8722 L 32.4786 51.627998 L 33.333302 51.627998 L 33.821701 51.8722 L 33.943802 53.215302 L 34.676399 53.703697 L 35.775299 53.947899 L 36.019501 54.558403 L 34.920601 54.558403 L 34.432201 54.314201 L 33.943802 54.314201 L 33.211201 55.535202 L 31.623899 55.535202 L 30.769199 55.046799 L 30.525 55.413101 L 29.1819 55.535202 L 28.449301 54.558403 L 28.083 54.314201 L 27.594601 54.314201 L 26.3736 54.924698 L 26.007299 54.924698 L 23.687401 54.314201 Z M 23.8095 50.651199 L 23.931601 51.750099 L 23.5653 52.726898 L 23.0769 53.215302 L 21.978001 53.337402 L 21.733801 53.093201 L 21.733801 52.116402 L 22.2222 51.383797 L 22.9548 50.651199 L 23.3211 50.529099 Z M 39.682499 53.947899 L 39.926701 53.581596 L 39.926701 52.9711 L 40.292999 52.360603 L 40.659302 50.7733 L 41.147701 50.162804 L 42.1245 50.162804 L 42.490799 50.529099 L 44.3223 51.383797 L 45.299099 52.116402 L 44.688599 52.726898 L 44.200199 52.848999 L 42.857101 51.383797 L 42.002399 51.017502 L 41.758202 51.261703 L 41.636101 51.750099 L 42.002399 53.581596 L 41.758202 53.825798 L 40.9035 53.947899 L 40.537201 54.192101 L 39.926701 54.192101 Z M 42.368698 49.552299 L 42.6129 49.308098 L 43.467602 49.308098 L 44.200199 49.6744 L 44.810699 50.284897 L 44.9328 51.139603 L 44.688599 51.383797 L 42.979198 50.284897 Z M 44.444401 47.598701 L 44.688599 47.598701 L 44.9328 47.842903 L 44.9328 48.331299 L 45.543301 49.308098 L 46.886398 50.529099 L 46.886398 50.895401 L 46.397999 51.383797 L 45.909599 51.383797 L 44.9328 49.918602 L 44.078098 49.063904 L 43.7118 48.941803 L 43.589699 48.4534 L 43.7118 48.209198 Z M 38.339401 48.941803 L 37.973099 49.308098 L 37.240501 49.430199 L 36.141602 49.918602 L 34.554298 49.796501 L 34.188 49.430199 L 34.432201 49.185997 L 35.409 48.819702 L 36.5079 47.842903 L 36.9963 47.598701 L 37.6068 47.598701 L 38.0952 48.087097 Z M 19.780199 46.011398 L 20.2686 46.011398 L 20.879101 46.377701 L 22.7106 48.331299 L 23.443199 48.819702 L 24.9084 49.185997 L 27.7167 50.651199 L 29.6703 51.139603 L 30.0366 51.505898 L 29.7924 51.750099 L 29.304001 51.750099 L 27.2283 51.261703 L 23.8095 49.552299 L 22.4664 48.697601 L 20.1465 46.866096 L 19.6581 46.2556 Z M 31.868099 45.645103 L 33.455399 47.3545 L 33.6996 47.842903 L 33.943802 49.063904 L 33.455399 49.430199 L 33.0891 49.430199 L 32.6007 49.063904 L 31.9902 47.720802 L 31.868099 46.866096 L 31.501801 46.133499 L 31.501801 45.889297 Z M 18.437099 45.645103 L 18.925501 46.2556 L 18.8034 46.866096 L 16.4835 49.308098 L 15.873 49.430199 L 14.4078 47.964996 L 14.2857 47.232399 L 15.2625 46.133499 L 16.117201 45.767197 L 17.4603 45.523003 Z M 43.7118 45.034599 L 43.589699 45.400902 L 42.246601 46.499802 L 41.391899 46.377701 L 41.269798 45.400902 L 41.636101 45.034599 L 43.467602 44.790398 Z M 30.6471 44.179901 L 31.257601 44.790398 L 31.257601 46.499802 L 31.868099 48.331299 L 31.746 49.063904 L 30.8913 48.941803 L 30.6471 48.697601 L 29.7924 46.744003 L 29.059799 46.011398 L 28.5714 45.889297 L 28.5714 45.400902 Z M 31.3797 43.325203 L 31.746 43.325203 L 32.234402 43.691498 L 32.234402 43.935699 L 33.211201 45.278801 L 33.577499 46.133499 L 34.7985 47.598701 L 35.164799 48.4534 L 34.920601 48.697601 L 34.676399 48.697601 L 34.188 48.209198 L 34.065899 47.842903 L 33.455399 47.232399 L 33.333302 46.866096 L 32.356499 45.767197 L 31.1355 43.935699 L 31.1355 43.569397 Z M 47.863201 42.9589 L 48.2295 43.325203 L 48.595798 44.424103 L 47.618999 45.400902 L 47.496899 46.011398 L 47.985298 46.499802 L 49.4505 46.011398 L 50.305199 46.011398 L 50.5494 46.2556 L 50.427299 46.988197 L 49.694698 47.964996 L 49.084202 48.209198 L 49.3284 47.3545 L 48.84 46.988197 L 48.473701 46.988197 L 47.252701 47.476601 L 46.764301 47.476601 L 46.153801 46.988197 L 46.153801 45.645103 L 46.764301 44.668297 L 47.252701 43.447304 Z M 17.094 43.081001 L 17.826599 44.0578 L 17.9487 44.424103 L 17.826599 44.912498 L 16.727699 45.1567 L 16.4835 45.400902 L 15.5067 45.523003 L 14.8962 45.889297 L 13.9194 46.866096 L 13.1868 46.011398 L 12.5763 44.668297 L 12.5763 43.935699 L 12.8205 43.203102 L 13.431 42.714699 L 14.4078 42.470497 L 16.117201 42.470497 Z M 32.112301 42.8368 L 32.6007 42.470497 L 36.874199 42.226303 L 37.240501 42.714699 L 37.240501 43.813599 L 36.752102 45.645103 L 37.118401 46.133499 L 38.2173 46.621902 L 39.682499 48.5755 L 38.949902 48.697601 L 38.339401 47.720802 L 37.728901 47.110298 L 37.362598 46.988197 L 35.775299 47.842903 L 35.531101 47.720802 L 34.310101 46.377701 L 32.722801 43.813599 L 32.234402 43.325203 Z M 48.473701 42.226303 L 49.572601 43.325203 L 51.6483 44.0578 L 51.770401 44.668297 L 51.0378 45.645103 L 49.9389 45.400902 L 48.473701 46.011398 L 48.107399 46.011398 L 47.863201 45.645103 L 48.351601 45.034599 L 49.206299 44.912498 L 49.3284 44.668297 L 48.473701 43.081001 L 48.107399 42.714699 Z M 41.514 42.592598 L 42.002399 42.226303 L 42.1245 42.9589 L 42.735001 43.935699 L 43.589699 44.0578 L 44.200199 43.813599 L 44.444401 44.179901 L 44.200199 44.424103 L 42.6129 44.790398 L 42.1245 44.546204 L 41.636101 44.0578 Z M 38.0952 42.226303 L 37.851002 42.8368 L 37.6068 42.592598 L 37.6068 42.348396 Z M 11.2332 41.615799 L 11.9658 40.883202 L 13.3089 40.516899 L 14.2857 40.516899 L 16.2393 41.005302 L 16.727699 41.615799 L 16.6056 42.104202 L 16.2393 42.104202 L 15.873 41.860001 L 14.7741 41.860001 L 13.1868 42.226303 L 12.0879 43.081001 L 11.4774 42.348396 Z M 48.595798 41.249496 L 48.962101 40.761101 L 49.694698 40.394798 L 50.305199 40.394798 L 51.770401 40.761101 L 52.625099 41.493698 L 52.869301 41.982101 L 52.869301 42.592598 L 52.625099 43.081001 L 52.1367 43.447304 L 50.915699 43.447304 L 49.572601 42.8368 L 48.717899 41.982101 Z M 40.659302 39.784302 L 41.0256 39.906403 L 41.147701 44.912498 L 40.659302 45.767197 L 40.659302 46.2556 L 41.758202 47.232399 L 40.659302 48.087097 L 40.292999 48.087097 L 38.339401 46.2556 L 37.484699 46.011398 L 37.240501 45.767197 L 37.240501 45.1567 L 38.0952 43.935699 L 38.339401 42.8368 L 38.949902 42.104202 L 39.3162 42.226303 L 39.438301 42.592598 L 39.438301 44.0578 L 39.682499 44.668297 L 39.682499 45.523003 L 39.438301 45.767197 L 38.583599 45.034599 L 38.0952 45.034599 L 39.194099 46.011398 L 39.682499 46.011398 L 40.170898 45.400902 L 39.682499 42.8368 L 39.682499 41.127403 L 40.170898 40.272697 Z M 45.299099 39.5401 L 45.787498 39.906403 L 46.153801 41.005302 L 45.909599 41.860001 L 45.4212 42.714699 L 44.688599 43.447304 L 44.200199 43.447304 L 43.345501 43.813599 L 42.857101 43.325203 L 42.6129 42.592598 L 42.246601 42.104202 L 42.368698 41.493698 L 42.735001 41.493698 L 43.101299 41.7379 L 43.8339 42.714699 L 44.566502 41.615799 L 44.200199 40.028503 L 44.688599 39.662201 Z M 15.5067 39.295898 L 15.7509 39.295898 L 15.9951 39.5401 L 15.9951 40.150597 L 15.5067 40.272697 L 15.1404 39.906403 Z M 49.694698 39.784302 L 50.671501 39.295898 L 51.6483 39.173798 L 52.380901 39.784302 L 53.3577 39.784302 L 53.968201 40.028503 L 53.968201 40.394798 L 53.723999 40.639 L 53.601898 41.127403 L 52.991402 41.371597 L 52.380901 40.639 L 51.6483 40.272697 Z M 30.8913 38.807503 L 31.257601 39.051697 L 31.501801 39.5401 L 31.501801 40.028503 L 31.868099 40.883202 L 31.013399 41.860001 L 29.914499 42.348396 L 29.4261 41.860001 L 29.304001 41.371597 L 28.5714 40.150597 L 28.693501 39.784302 L 29.548201 39.784302 L 29.548201 39.295898 L 30.0366 38.807503 Z M 14.8962 38.929604 L 14.8962 39.5401 L 14.5299 39.906403 L 13.5531 39.906403 L 12.4542 40.150597 L 11.1111 40.883202 L 10.8669 40.883202 L 10.3785 40.394798 L 10.0122 39.173798 L 10.2564 38.929604 L 13.1868 39.051697 L 14.0415 38.807503 Z M 28.9377 37.952797 L 29.1819 37.586502 L 30.2808 37.2202 L 31.3797 38.196999 L 31.257601 38.563301 L 30.769199 38.4412 L 30.2808 37.952797 L 29.914499 38.074898 L 29.7924 38.4412 L 29.1819 38.563301 L 28.9377 38.319099 Z M 9.6459 37.3423 L 9.8901 37.098099 L 10.1343 37.098099 L 10.5006 37.3423 L 12.21 37.830704 L 14.0415 37.830704 L 14.7741 37.464401 L 15.0183 37.708603 L 14.5299 38.196999 L 13.7973 38.563301 L 10.8669 38.563301 L 9.8901 38.074898 L 9.6459 37.708603 Z M 19.169701 37.3423 L 18.1929 37.952797 L 17.826599 37.952797 L 17.4603 37.464401 L 17.7045 37.2202 L 18.681299 36.975998 Z M 29.6703 36.609703 L 29.6703 36.975998 L 29.304001 37.3423 L 28.815599 37.3423 L 28.5714 36.975998 L 29.1819 36.487602 Z M 49.816799 37.098099 L 50.061001 36.609703 L 50.427299 36.365501 L 50.671501 36.487602 L 51.282001 37.464401 L 50.183102 37.586502 Z M 31.257601 36.243401 L 31.623899 36.609703 L 31.623899 37.098099 L 31.3797 37.3423 L 30.8913 37.3423 L 30.6471 37.2202 L 30.525 36.731796 Z M 50.671501 35.266602 L 52.258801 36.243401 L 52.7472 36.365501 L 54.4566 36.243401 L 54.822899 36.609703 L 54.700802 38.196999 L 53.968201 39.295898 L 53.2356 39.417999 L 51.526199 38.685402 L 50.183102 38.929604 L 49.694698 38.563301 L 49.816799 38.196999 L 50.305199 37.952797 L 51.770401 37.830704 L 52.1367 37.464401 L 52.1367 37.098099 L 51.770401 36.731796 L 51.159901 36.487602 L 50.427299 35.754997 Z M 51.159901 34.900299 L 51.892502 34.900299 L 52.991402 34.533997 L 54.090302 34.533997 L 54.945 35.144501 L 54.945 35.632896 L 54.578701 35.999199 L 53.2356 35.999199 L 51.770401 35.510803 Z M 9.0354 35.144501 L 9.8901 34.289803 L 12.6984 34.289803 L 14.1636 34.900299 L 14.7741 35.632896 L 14.7741 36.365501 L 14.652 36.731796 L 13.9194 37.3423 L 13.3089 37.464401 L 12.3321 37.2202 L 11.2332 37.2202 L 10.2564 36.731796 Z M 43.956001 40.516899 L 43.8339 41.493698 L 43.345501 41.371597 L 42.002399 40.516899 L 41.514 39.784302 L 41.514 38.563301 L 41.0256 38.685402 L 40.9035 39.173798 L 40.048801 39.906403 L 39.8046 40.394798 L 37.851002 41.860001 L 33.943802 41.982101 L 33.0891 42.226303 L 32.4786 41.493698 L 31.868099 39.5401 L 31.501801 38.929604 L 31.868099 38.4412 L 31.9902 37.586502 L 32.4786 37.464401 L 32.966999 37.830704 L 32.844898 38.319099 L 32.966999 38.807503 L 33.333302 39.051697 L 33.455399 40.394798 L 34.065899 41.127403 L 34.554298 41.371597 L 36.263699 41.371597 L 39.071999 39.906403 L 39.8046 39.295898 L 40.292999 38.563301 L 39.438301 37.830704 L 39.3162 36.975998 L 39.071999 36.487602 L 38.339401 35.877098 L 37.851002 35.877098 L 38.7057 36.731796 L 39.071999 37.952797 L 39.682499 38.807503 L 38.827801 39.5401 L 37.362598 39.662201 L 37.362598 40.028503 L 36.9963 40.272697 L 35.775299 39.906403 L 36.385799 40.272697 L 36.752102 40.761101 L 36.5079 41.005302 L 34.676399 41.127403 L 33.943802 40.516899 L 33.821701 39.173798 L 33.455399 37.708603 L 33.0891 37.3423 L 33.0891 37.098099 L 34.432201 36.1213 L 35.8974 35.754997 L 36.385799 35.0224 L 37.362598 34.167702 L 38.461498 33.679298 L 39.071999 33.679298 L 39.926701 34.411903 L 41.0256 36.609703 L 41.636101 37.098099 L 42.368698 37.098099 L 42.979198 37.586502 L 42.979198 38.074898 L 43.467602 38.929604 L 43.467602 39.906403 Z M 16.971901 33.801399 L 17.216101 33.679298 L 18.5592 35.144501 L 18.5592 35.388702 L 18.315001 35.632896 L 16.8498 35.510803 L 16.8498 34.045601 Z M 42.979198 32.946701 L 43.589699 32.946701 L 44.444401 33.801399 L 44.9328 34.656097 L 45.054901 37.2202 L 45.299099 38.196999 L 45.176998 39.173798 L 44.810699 39.295898 L 44.3223 39.173798 L 43.589699 38.4412 L 43.101299 36.975998 L 42.002399 35.877098 L 42.246601 33.679298 Z M 9.0354 33.313004 L 9.4017 32.946701 L 12.0879 32.946701 L 13.1868 33.313004 L 13.7973 33.313004 L 14.5299 33.9235 L 14.4078 34.289803 L 14.0415 34.289803 L 12.9426 33.679298 L 10.3785 33.679298 L 9.4017 33.9235 L 9.0354 33.801399 Z M 52.258801 31.969902 L 52.502998 31.969902 L 52.7472 32.214104 L 52.7472 32.580399 L 52.502998 32.8246 L 52.1367 32.702499 L 52.014599 32.214104 Z M 54.212399 31.7257 L 54.578701 31.847801 L 54.4566 32.336197 L 54.212399 32.336197 L 53.968201 31.969902 Z M 17.216101 36.487602 L 17.216101 36.243401 L 17.7045 35.877098 L 19.2918 35.632896 L 18.315001 34.289803 L 18.1929 33.801399 L 18.5592 33.557198 L 19.2918 33.801399 L 19.4139 33.068802 L 20.1465 32.336197 L 20.2686 31.6036 L 20.757 32.214104 L 20.5128 34.045601 L 20.5128 35.144501 L 20.2686 35.388702 L 19.9023 35.388702 L 20.5128 35.510803 L 21.3675 35.144501 L 23.931601 32.946701 L 25.0305 32.336197 L 26.251499 32.092003 L 26.9841 32.8246 L 26.739901 33.068802 L 25.396799 32.946701 L 24.42 33.435097 L 23.687401 34.167702 L 23.443199 34.778198 L 22.4664 35.388702 L 22.1001 36.487602 L 21.6117 36.975998 L 21.245399 36.975998 L 20.879101 36.731796 L 18.681299 36.731796 Z M 19.535999 31.847801 L 19.0476 32.336197 L 19.0476 32.580399 L 18.681299 32.8246 L 18.437099 32.458298 L 18.070801 32.458298 L 17.9487 33.068802 L 17.7045 33.068802 L 17.4603 32.8246 L 17.4603 32.214104 L 17.9487 31.847801 L 18.681299 31.6036 Z M 50.793598 31.6036 L 51.159901 31.359398 L 51.6483 31.7257 L 51.770401 33.068802 L 52.014599 33.313004 L 52.869301 33.068802 L 53.113499 31.969902 L 53.479801 31.847801 L 53.723999 32.092003 L 53.8461 32.8246 L 54.822899 32.946701 L 55.067101 33.190903 L 54.822899 34.167702 L 54.090302 34.167702 L 53.601898 33.801399 L 53.2356 33.801399 L 52.502998 34.289803 L 51.526199 34.289803 L 50.915699 33.679298 L 50.793598 33.313004 Z M 43.2234 31.237297 L 43.589699 31.359398 L 43.589699 31.847801 L 43.467602 32.092003 L 43.101299 32.214104 L 42.857101 31.969902 L 42.979198 31.481499 Z M 38.2173 31.237297 L 39.560398 31.237297 L 39.926701 31.481499 L 40.659302 33.557198 L 41.391899 34.533997 L 41.391899 35.0224 L 41.0256 35.388702 L 39.926701 33.801399 L 38.0952 32.702499 L 37.973099 31.481499 Z M 37.118401 30.016296 L 37.362598 31.969902 L 37.728901 32.458298 L 37.728901 33.313004 L 36.874199 33.801399 L 35.531101 35.266602 L 32.6007 35.999199 L 32.722801 36.731796 L 32.356499 37.2202 L 31.501801 36.1213 L 31.501801 35.877098 L 31.013399 35.877098 L 30.525 36.365501 L 30.158701 36.487602 L 29.914499 36.243401 L 29.7924 35.877098 L 30.158701 35.510803 L 30.6471 35.510803 L 31.1355 34.778198 L 31.623899 34.778198 L 31.9902 35.144501 L 31.9902 35.754997 L 32.234402 35.632896 L 32.4786 35.0224 L 32.844898 34.656097 L 33.821701 34.289803 L 34.920601 33.435097 L 36.019501 32.214104 L 36.141602 31.7257 L 36.5079 31.237297 L 36.752102 29.649994 Z M 31.1355 29.649994 L 31.3797 29.161606 L 32.112301 29.161606 L 32.6007 29.405807 L 33.455399 29.161606 L 33.943802 29.405807 L 34.554298 30.016296 L 34.676399 30.748901 L 34.188 31.359398 L 33.0891 30.871002 L 31.3797 30.748901 L 31.1355 30.5047 Z M 29.1819 29.527893 L 29.304001 29.283707 L 30.0366 29.283707 L 30.2808 30.016296 L 31.1355 30.993103 L 32.356499 31.115196 L 33.577499 31.6036 L 34.188 31.6036 L 34.920601 31.115196 L 35.2869 30.382599 L 35.775299 30.382599 L 35.8974 31.237297 L 35.653198 31.847801 L 33.821701 33.9235 L 32.966999 34.045601 L 32.6007 33.435097 L 31.868099 33.313004 L 31.623899 33.557198 L 32.234402 33.679298 L 32.4786 34.045601 L 31.746 34.656097 L 31.501801 34.411903 L 31.501801 33.801399 L 30.402901 33.679298 L 29.914499 32.946701 L 29.914499 32.458298 L 30.158701 32.092003 L 30.158701 31.359398 L 29.1819 30.260498 Z M 50.915699 30.016296 L 51.404099 30.016296 L 51.282001 29.649994 L 51.404099 29.283707 L 52.625099 28.673203 L 53.601898 28.673203 L 53.968201 28.795303 L 54.212399 29.161606 L 53.723999 29.649994 L 52.869301 30.138397 L 51.6483 30.260498 L 53.113499 30.382599 L 54.578701 29.405807 L 54.945 29.649994 L 55.067101 30.382599 L 54.212399 31.237297 L 52.7472 31.481499 L 50.793598 30.871002 Z M 32.722801 28.673203 L 33.0891 28.917404 L 32.722801 29.161606 L 32.4786 28.917404 Z M 28.5714 28.551102 L 29.059799 28.673203 L 28.5714 29.527893 L 28.5714 30.138397 L 29.6703 31.6036 L 29.6703 33.068802 L 29.7924 33.313004 L 30.402901 33.679298 L 30.525 33.9235 L 30.525 34.778198 L 28.3272 36.853897 L 28.5714 38.319099 L 29.059799 39.051697 L 29.059799 39.295898 L 28.3272 39.784302 L 28.3272 40.394798 L 29.304001 42.226303 L 29.304001 42.9589 L 26.3736 44.912498 L 25.396799 45.889297 L 26.3736 45.523003 L 27.7167 44.424103 L 29.1819 43.569397 L 31.868099 41.615799 L 32.234402 41.7379 L 32.234402 42.226303 L 30.6471 43.691498 L 28.9377 44.912498 L 26.1294 46.377701 L 25.641001 46.866096 L 25.885201 46.988197 L 26.1294 46.744003 L 27.2283 46.744003 L 27.350401 46.2556 L 27.594601 46.011398 L 28.205099 46.011398 L 28.693501 46.2556 L 29.548201 47.232399 L 29.914499 48.5755 L 29.914499 48.941803 L 29.6703 49.063904 L 29.304001 48.941803 L 28.5714 48.209198 L 28.3272 47.3545 L 27.4725 46.866096 L 28.205099 47.964996 L 28.083 48.5755 L 27.7167 48.5755 L 26.495701 47.598701 L 24.42 47.3545 L 23.687401 46.621902 L 23.0769 45.645103 L 23.0769 45.034599 L 24.6642 43.813599 L 25.0305 43.935699 L 24.9084 45.1567 L 25.152599 45.278801 L 25.2747 43.691498 L 25.152599 43.447304 L 24.6642 43.203102 L 23.198999 44.546204 L 22.588499 44.790398 L 22.344299 44.546204 L 22.4664 44.0578 L 23.931601 43.081001 L 24.6642 42.226303 L 24.42 42.104202 L 23.198999 43.203102 L 22.344299 43.691498 L 21.489599 43.447304 L 21.8559 43.081001 L 22.832701 42.714699 L 23.3211 42.226303 L 23.3211 41.860001 L 22.588499 42.104202 L 21.6117 42.8368 L 21.123301 42.714699 L 21.978001 41.615799 L 21.978001 41.249496 L 20.634899 42.226303 L 19.780199 42.104202 L 19.2918 41.493698 L 19.169701 41.005302 L 19.4139 40.761101 L 20.024401 40.639 L 20.2686 40.272697 L 18.925501 40.150597 L 18.681299 39.906403 L 18.8034 39.662201 L 19.169701 39.417999 L 20.634899 39.662201 L 21.3675 39.295898 L 21.123301 39.173798 L 18.437099 39.173798 L 18.1929 38.929604 L 18.1929 38.563301 L 18.925501 37.952797 L 19.535999 37.952797 L 20.5128 38.4412 L 21.3675 38.4412 L 21.6117 38.196999 L 20.390699 38.074898 L 19.535999 37.3423 L 19.780199 37.098099 L 22.344299 37.3423 L 22.588499 37.952797 L 23.443199 39.051697 L 24.786301 39.784302 L 26.007299 40.028503 L 26.739901 40.394798 L 27.2283 40.394798 L 26.739901 39.906403 L 26.251499 39.906403 L 25.152599 39.295898 L 24.42 39.173798 L 23.931601 38.807503 L 22.588499 36.975998 L 22.588499 36.243401 L 22.832701 35.754997 L 24.42 36.487602 L 24.9084 36.487602 L 25.152599 36.243401 L 26.3736 36.1213 L 27.4725 37.098099 L 27.594601 36.853897 L 27.4725 36.243401 L 26.6178 35.510803 L 25.885201 35.388702 L 24.542101 35.999199 L 24.1758 35.999199 L 23.5653 35.754997 L 23.3211 35.388702 L 24.053699 34.656097 L 24.053699 34.411903 L 24.297899 34.167702 L 25.152599 33.9235 L 27.2283 33.9235 L 27.4725 34.045601 L 27.8388 35.144501 L 28.205099 35.144501 L 27.8388 33.557198 L 26.9841 32.092003 L 26.739901 30.748901 L 27.350401 29.772095 Z M 15.1404 28.917404 L 15.2625 30.016296 L 14.4078 32.946701 L 12.8205 32.702499 L 11.9658 32.336197 L 9.6459 32.336197 L 9.4017 31.969902 L 9.6459 31.359398 L 9.6459 30.5047 L 10.0122 30.260498 L 11.3553 31.237297 L 12.6984 31.6036 L 13.5531 31.481499 L 13.9194 31.115196 L 14.1636 30.382599 L 14.1636 29.405807 L 13.7973 28.673203 L 13.9194 28.3069 L 14.4078 28.3069 Z M 41.758202 28.062698 L 42.1245 28.184799 L 41.880299 28.551102 L 41.636101 28.3069 Z M 35.164799 29.405807 L 34.7985 29.649994 L 33.577499 28.429001 L 32.112301 28.429001 L 31.501801 28.795303 L 31.013399 28.673203 L 31.013399 28.429001 L 31.746 27.940598 L 31.868099 27.696396 L 33.943802 27.452194 L 34.432201 27.818497 Z M 46.6422 27.330093 L 47.1306 28.062698 L 47.1306 28.551102 L 47.863201 30.382599 L 47.863201 36.365501 L 46.886398 39.173798 L 46.886398 39.5401 L 46.397999 40.150597 L 46.153801 39.906403 L 45.787498 38.929604 L 45.543301 35.632896 L 45.054901 33.9235 L 44.078098 32.702499 L 43.8339 31.969902 L 46.153801 29.649994 L 46.153801 29.161606 L 46.5201 28.551102 L 46.275902 27.574295 Z M 40.292999 26.1091 L 40.659302 26.231201 L 40.4151 26.719604 L 40.170898 26.475403 Z M 25.641001 26.963806 L 25.396799 27.207993 L 25.152599 27.207993 L 23.687401 28.917404 L 23.0769 29.161606 L 22.588499 29.161606 L 22.4664 30.5047 L 21.489599 31.359398 L 20.879101 31.237297 L 21.3675 30.626801 L 21.3675 30.260498 L 21.123301 29.894196 L 21.245399 29.405807 L 21.733801 29.283707 L 22.1001 28.673203 L 21.733801 27.940598 L 22.1001 27.696396 L 22.4664 28.062698 L 22.7106 28.062698 L 22.832701 27.574295 L 23.3211 27.330093 L 23.687401 26.475403 L 24.053699 26.1091 L 24.42 26.231201 L 24.297899 27.207993 L 24.9084 27.085907 L 25.396799 26.719604 Z M 50.305199 25.498596 L 51.282001 26.841705 L 50.915699 27.207993 L 50.427299 27.330093 L 49.572601 27.085907 L 49.084202 26.475403 L 49.816799 25.742798 Z M 36.385799 24.521805 L 36.752102 24.521805 L 37.484699 25.254395 L 37.484699 27.330093 L 36.752102 27.940598 L 36.385799 27.574295 L 36.5079 25.742798 L 36.263699 25.010193 Z M 16.6056 24.521805 L 16.971901 24.521805 L 17.216101 24.766006 L 17.3382 25.254395 L 16.971901 25.620697 L 16.4835 25.132294 Z M 52.869301 24.277603 L 53.3577 24.399704 L 53.479801 25.254395 L 52.991402 25.620697 L 52.625099 25.254395 L 52.625099 24.521805 Z M 42.002399 24.399704 L 42.002399 24.643906 L 41.514 25.132294 L 40.9035 25.132294 L 41.147701 24.766006 Z M 21.123301 24.277603 L 21.6117 24.888107 L 21.8559 25.498596 L 21.8559 26.1091 L 21.3675 27.452194 L 21.3675 28.673203 L 20.5128 29.405807 L 20.390699 30.260498 L 20.024401 30.748901 L 18.5592 31.359398 L 18.070801 31.359398 L 17.826599 31.115196 L 19.4139 26.719604 L 20.5128 24.766006 Z M 31.1355 24.033401 L 32.234402 23.7892 L 34.188 23.7892 L 35.2869 24.155502 L 35.8974 24.766006 L 36.141602 25.376495 L 36.263699 28.184799 L 36.141602 28.917404 L 35.653198 29.161606 L 35.409 28.917404 L 35.2869 27.330093 L 34.188 26.841705 L 33.0891 27.207993 L 31.9902 26.475403 L 31.501801 26.475403 L 31.013399 26.963806 L 31.746 26.963806 L 31.746 27.818497 L 30.8913 27.940598 L 30.525 27.452194 L 30.2808 26.597504 L 30.525 25.376495 Z M 21.978001 23.7892 L 22.2222 23.7892 L 22.4664 24.033401 L 22.4664 24.399704 L 22.9548 25.376495 L 22.832701 26.1091 L 22.4664 26.1091 L 22.344299 25.376495 L 21.8559 24.643906 L 21.733801 24.033401 Z M 24.9084 23.422897 L 25.152599 23.667099 L 25.152599 23.911301 L 24.6642 24.643906 L 24.6642 24.888107 L 24.297899 25.254395 L 23.687401 25.376495 L 23.687401 25.010193 L 24.1758 23.911301 L 24.6642 23.422897 Z M 23.5653 22.812393 L 23.8095 23.056595 L 23.8095 23.422897 L 23.443199 24.033401 L 23.443199 24.399704 L 23.198999 24.643906 L 22.9548 24.399704 L 22.9548 23.667099 L 23.0769 23.300797 Z M 51.770401 22.446106 L 52.7472 23.422897 L 52.258801 24.399704 L 52.1367 25.498596 L 53.479801 26.1091 L 53.968201 26.597504 L 54.212399 27.940598 L 53.723999 28.3069 L 51.770401 28.795303 L 50.915699 29.283707 L 50.427299 29.161606 L 49.9389 28.3069 L 50.061001 27.818497 L 51.404099 27.574295 L 52.258801 26.963806 L 50.915699 25.864899 L 50.793598 25.132294 L 50.5494 24.888107 L 49.572601 25.376495 L 48.717899 26.231201 L 48.351601 25.742798 L 48.351601 25.254395 L 48.107399 24.643906 L 48.473701 24.277603 L 48.962101 24.155502 L 50.5494 23.178696 L 51.159901 22.568207 Z M 30.2808 22.201904 L 31.1355 22.201904 L 31.501801 22.690308 L 31.257601 23.178696 L 30.769199 23.544998 L 29.7924 23.422897 L 29.914499 22.568207 Z M 40.9035 21.835602 L 41.514 21.957703 L 43.345501 22.812393 L 44.200199 23.7892 L 44.078098 24.155502 L 43.467602 24.033401 L 43.101299 24.643906 L 42.857101 24.399704 L 42.857101 24.155502 L 42.368698 24.155502 L 42.002399 23.911301 L 41.514 24.033401 L 40.9035 24.521805 L 40.292999 25.498596 L 39.682499 26.1091 L 39.682499 26.475403 L 40.292999 27.207993 L 40.537201 28.062698 L 40.9035 28.062698 L 41.636101 28.673203 L 42.246601 28.673203 L 42.857101 28.062698 L 42.979198 27.696396 L 42.1245 27.330093 L 41.391899 26.475403 L 41.514 25.620697 L 42.002399 25.132294 L 43.101299 25.132294 L 44.3223 24.766006 L 44.9328 25.376495 L 45.4212 26.841705 L 45.4212 27.818497 L 44.9328 28.551102 L 44.566502 30.138397 L 43.956001 30.748901 L 43.467602 30.626801 L 43.101299 30.260498 L 43.101299 30.016296 L 44.078098 28.917404 L 44.444401 27.452194 L 44.200199 27.207993 L 43.956001 27.207993 L 43.589699 27.574295 L 43.956001 27.940598 L 43.956001 28.3069 L 43.467602 29.161606 L 42.735001 29.894196 L 42.6129 31.359398 L 42.002399 32.8246 L 41.391899 33.435097 L 41.147701 33.435097 L 40.9035 33.190903 L 40.537201 31.359398 L 39.8046 30.748901 L 37.851002 30.382599 L 36.9963 28.795303 L 37.6068 27.818497 L 37.851002 27.085907 L 39.438301 25.620697 L 40.292999 23.422897 L 40.292999 22.568207 Z M 14.7741 21.102997 L 15.0183 21.102997 L 15.2625 21.347198 L 15.2625 21.713501 L 14.8962 22.568207 L 15.3846 23.056595 L 17.094 23.300797 L 17.9487 23.544998 L 18.1929 23.7892 L 18.070801 24.277603 L 17.4603 24.277603 L 16.2393 23.7892 L 15.3846 23.911301 L 15.6288 24.766006 L 16.361401 26.1091 L 16.361401 26.841705 L 16.117201 27.452194 L 15.5067 27.330093 L 14.8962 25.987 L 14.5299 24.399704 L 14.0415 23.7892 L 13.5531 23.911301 L 12.9426 24.766006 L 12.5763 24.888107 L 12.3321 24.643906 L 12.3321 24.155502 L 13.7973 22.079803 Z M 40.537201 20.736694 L 41.0256 20.614594 L 41.391899 20.736694 L 43.101299 21.957703 L 45.054901 22.690308 L 45.787498 23.422897 L 46.0317 24.033401 L 46.397999 24.399704 L 47.1306 26.1091 L 48.473701 28.3069 L 48.84 29.405807 L 48.717899 36.853897 L 48.2295 38.4412 L 47.374802 40.272697 L 46.6422 40.639 L 46.764301 40.028503 L 47.496899 38.929604 L 47.496899 38.196999 L 48.107399 36.853897 L 48.351601 35.388702 L 48.351601 30.871002 L 48.2295 30.138397 L 47.7411 29.161606 L 47.496899 27.696396 L 46.764301 26.475403 L 46.153801 25.864899 L 45.4212 24.643906 L 44.3223 23.422897 L 44.078098 22.934494 L 43.345501 22.324005 L 42.979198 22.324005 L 41.636101 21.5914 L 40.9035 21.469299 L 40.4151 20.980896 Z M 45.4212 20.492493 L 45.665401 20.492493 L 45.909599 20.736694 L 45.787498 21.225098 L 45.4212 21.225098 L 45.176998 20.980896 L 45.176998 20.736694 Z M 50.061001 20.004105 L 50.427299 20.370407 L 50.671501 21.225098 L 51.0378 21.713501 L 51.159901 22.079803 L 50.5494 22.812393 L 48.351601 23.911301 L 47.618999 23.7892 L 47.374802 23.178696 L 47.496899 22.446106 L 48.107399 21.713501 L 48.2295 21.225098 L 49.084202 20.370407 Z M 26.862 19.882004 L 27.106199 20.126205 L 26.9841 21.102997 L 26.739901 21.347198 L 26.6178 22.079803 L 26.3736 22.324005 L 26.3736 23.422897 L 26.6178 24.399704 L 27.350401 25.620697 L 28.205099 26.475403 L 29.548201 27.085907 L 29.4261 25.376495 L 29.548201 24.643906 L 29.914499 24.155502 L 30.402901 24.277603 L 30.402901 24.766006 L 30.0366 25.742798 L 29.7924 27.818497 L 28.9377 27.940598 L 27.594601 28.795303 L 26.495701 30.016296 L 26.007299 31.237297 L 25.641001 31.6036 L 24.542101 31.969902 L 21.123301 34.533997 L 21.245399 32.092003 L 21.6117 31.7257 L 22.4664 31.359398 L 23.0769 30.748901 L 23.5653 29.649994 L 25.0305 28.062698 L 26.251499 28.184799 L 26.862 27.574295 L 26.739901 26.963806 L 26.3736 26.597504 L 26.1294 26.597504 L 25.885201 26.353302 L 25.396799 26.475403 L 25.0305 26.353302 L 25.152599 24.888107 L 25.641001 24.033401 L 25.5189 22.934494 L 25.152599 22.690308 L 23.5653 22.324005 L 23.443199 21.957703 L 23.931601 21.469299 L 25.2747 20.614594 Z M 38.461498 19.515701 L 38.949902 20.248306 L 39.071999 22.446106 L 38.7057 23.911301 L 38.461498 24.399704 L 38.0952 24.643906 L 37.973099 23.422897 L 38.2173 22.201904 L 38.2173 19.515701 Z M 40.170898 18.905197 L 42.735001 19.515701 L 44.810699 21.225098 L 46.275902 22.690308 L 47.7411 25.132294 L 47.985298 26.231201 L 49.084202 27.452194 L 48.84 28.062698 L 48.2295 27.452194 L 47.863201 26.475403 L 47.496899 26.1091 L 46.0317 23.178696 L 44.688599 21.957703 L 44.200199 21.713501 L 43.345501 21.5914 L 42.490799 21.102997 L 42.002399 20.614594 L 40.537201 20.004105 L 40.048801 19.3936 Z M 30.6471 18.905197 L 31.013399 19.2715 L 29.548201 22.079803 L 29.1819 23.911301 L 28.9377 24.155502 L 28.449301 24.033401 L 28.3272 21.957703 L 29.059799 20.492493 L 29.1819 19.882004 L 29.4261 19.3936 Z M 24.6642 19.3936 L 27.2283 18.538895 L 27.7167 19.027298 L 27.350401 19.3936 L 26.3736 19.637802 L 23.443199 21.102997 L 20.024401 24.399704 L 19.535999 25.620697 L 18.5592 27.330093 L 18.5592 27.696396 L 17.582399 30.016296 L 17.216101 31.6036 L 16.361401 33.9235 L 16.361401 35.510803 L 16.6056 35.999199 L 16.727699 36.853897 L 17.582399 38.929604 L 18.315001 40.150597 L 19.2918 42.348396 L 22.1001 44.912498 L 22.588499 45.767197 L 23.443199 46.744003 L 23.5653 47.232399 L 24.053699 47.720802 L 24.6642 47.964996 L 26.1294 47.964996 L 27.7167 49.185997 L 28.5714 49.185997 L 29.7924 49.552299 L 32.356499 49.552299 L 33.577499 49.918602 L 34.554298 49.918602 L 34.7985 50.162804 L 36.263699 50.284897 L 37.362598 49.918602 L 37.851002 49.918602 L 40.4151 48.697601 L 42.6129 47.110298 L 44.688599 44.668297 L 45.4212 43.569397 L 46.0317 42.226303 L 47.618999 40.394798 L 48.717899 38.074898 L 48.717899 37.586502 L 48.962101 37.2202 L 49.3284 33.557198 L 49.3284 30.748901 L 49.084202 29.405807 L 49.4505 29.039505 L 49.9389 29.039505 L 50.183102 29.283707 L 50.5494 30.748901 L 49.694698 36.365501 L 48.84 38.929604 L 48.595798 40.272697 L 45.665401 45.400902 L 42.6129 48.697601 L 40.659302 50.040703 L 39.3162 50.651199 L 38.583599 50.651199 L 35.653198 51.383797 L 33.455399 51.383797 L 32.6007 51.017502 L 30.0366 50.895401 L 29.6703 50.651199 L 28.205099 50.284897 L 22.9548 47.842903 L 21.0012 45.889297 L 19.0476 45.1567 L 18.1929 44.302002 L 16.8498 40.761101 L 16.8498 40.272697 L 15.9951 38.563301 L 15.5067 37.098099 L 15.5067 36.1213 L 15.2625 35.266602 L 15.2625 32.702499 L 15.7509 30.382599 L 16.6056 28.062698 L 17.582399 26.475403 L 17.826599 25.742798 L 19.6581 23.300797 L 21.489599 21.469299 L 23.687401 19.882004 Z M 20.634899 18.416794 L 21.123301 18.905197 L 21.489599 19.637802 L 21.489599 20.736694 L 20.879101 21.102997 L 19.780199 20.004105 L 19.780199 19.3936 L 20.2686 18.538895 Z M 43.956001 19.149399 L 44.566502 18.905197 L 45.543301 18.905197 L 46.5201 18.294693 L 47.008499 18.294693 L 47.985298 19.2715 L 48.2295 19.759903 L 48.107399 20.614594 L 47.252701 22.446106 L 46.886398 22.690308 L 46.0317 21.957703 L 46.0317 21.469299 L 46.397999 20.614594 L 45.665401 20.126205 L 44.9328 20.370407 L 44.3223 20.370407 L 43.589699 19.515701 Z M 47.252701 17.440002 L 47.618999 17.440002 L 48.351601 17.928406 L 49.4505 19.027298 L 49.572601 19.515701 L 49.3284 19.759903 L 48.717899 19.637802 L 47.1306 17.684204 Z M 36.385799 17.440002 L 36.874199 17.317902 L 37.973099 18.294693 L 37.851002 18.783096 Z M 30.0366 18.416794 L 30.525 17.928406 L 31.257601 17.562103 L 32.966999 17.195801 L 34.920601 17.317902 L 35.653198 17.806305 L 36.874199 18.172607 L 37.362598 19.027298 L 37.484699 20.370407 L 37.728901 20.736694 L 37.728901 21.957703 L 37.362598 23.7892 L 36.9963 24.155502 L 36.752102 24.155502 L 35.653198 23.667099 L 33.821701 23.544998 L 33.0891 23.300797 L 31.868099 23.178696 L 31.746 22.079803 L 31.3797 21.713501 L 30.525 21.469299 L 30.525 21.102997 L 30.769199 20.858795 L 31.257601 20.858795 L 31.9902 21.469299 L 32.4786 21.347198 L 32.6007 20.980896 L 31.9902 21.102997 L 31.257601 20.858795 L 31.1355 19.515701 L 32.6007 17.806305 L 30.525 18.660995 Z M 35.531101 17.195801 L 35.653198 16.951599 L 36.263699 17.195801 L 36.019501 17.440002 L 35.775299 17.440002 Z M 34.920601 16.707397 L 35.2869 16.951599 L 35.042702 17.195801 L 34.7985 16.951599 Z M 21.3675 16.341095 L 21.8559 16.707397 L 22.4664 17.928406 L 23.443199 18.905197 L 23.443199 19.2715 L 22.4664 20.004105 L 22.1001 19.637802 L 21.123301 17.928406 L 20.634899 17.440002 L 20.2686 17.440002 L 19.169701 19.2715 L 19.169701 20.004105 L 20.2686 21.5914 L 19.535999 22.324005 L 18.681299 20.736694 L 17.7045 19.759903 L 17.3382 19.637802 L 16.971901 19.149399 L 17.582399 18.660995 L 18.437099 19.027298 L 18.8034 18.660995 L 19.4139 17.440002 L 20.024401 16.829498 Z M 35.8974 15.974792 L 36.385799 15.974792 L 37.118401 16.341095 L 39.071999 17.928406 L 39.3162 18.660995 L 40.048801 19.882004 L 40.170898 21.835602 L 39.8046 24.277603 L 39.560398 24.888107 L 38.461498 26.231201 L 38.0952 26.1091 L 37.973099 25.620697 L 38.0952 25.254395 L 38.827801 24.521805 L 39.071999 24.033401 L 39.071999 23.422897 L 39.3162 22.812393 L 39.3162 20.370407 L 38.949902 19.759903 L 38.949902 19.3936 L 38.2173 18.172607 L 37.240501 17.195801 L 36.019501 16.585297 L 35.653198 16.218994 Z M 33.211201 15.730606 L 33.577499 16.218994 L 33.211201 16.585297 L 31.868099 16.707397 L 30.8913 17.440002 L 30.402901 17.440002 L 29.548201 18.294693 L 28.693501 19.759903 L 27.8388 22.079803 L 27.8388 23.056595 L 28.083 24.033401 L 28.9377 25.010193 L 28.815599 26.1091 L 28.5714 26.231201 L 27.7167 25.498596 L 26.9841 24.277603 L 26.9841 21.5914 L 27.2283 21.225098 L 27.2283 20.736694 L 27.594601 19.759903 L 28.693501 17.928406 L 29.914499 16.707397 L 30.6471 16.341095 L 31.257601 16.341095 L 32.844898 15.730606 Z M 24.42 14.8759 L 25.396799 14.753799 L 25.7631 14.998001 L 27.106199 17.806305 L 26.6178 18.172607 L 25.641001 18.416794 L 25.396799 18.172607 L 25.152599 17.195801 L 24.297899 15.608505 Z M 46.886398 16.341095 L 46.764301 17.195801 L 46.0317 18.294693 L 45.299099 18.660995 L 43.8339 18.783096 L 43.101299 19.149399 L 41.880299 19.027298 L 39.8046 18.416794 L 39.3162 18.050507 L 39.194099 17.684204 L 39.8046 17.440002 L 41.147701 17.562103 L 41.514 17.317902 L 42.246601 16.463196 L 42.246601 14.998001 L 42.490799 15.242203 L 42.735001 15.242203 L 43.956001 14.021194 L 44.444401 14.021194 L 45.787498 14.8759 L 46.397999 15.486404 Z M 28.693501 12.922302 L 29.914499 13.776993 L 29.7924 14.631699 L 28.815599 14.753799 L 28.3272 14.998001 L 27.594601 14.143295 L 28.3272 13.532806 Z M 43.8339 12.800201 L 47.252701 14.8759 L 48.351601 15.730606 L 50.427299 17.806305 L 52.380901 20.370407 L 53.8461 23.178696 L 55.311298 26.597504 L 55.5555 28.184799 L 56.166 30.138397 L 56.410198 32.092003 L 56.288101 35.388702 L 55.921799 37.2202 L 54.822899 40.272697 L 54.700802 41.127403 L 53.8461 42.9589 L 52.7472 44.668297 L 51.282001 47.476601 L 48.717899 51.139603 L 47.008499 52.726898 L 45.543301 53.337402 L 45.299099 53.093201 L 45.299099 52.848999 L 47.374802 51.139603 L 47.985298 50.406998 L 47.496899 50.040703 L 46.764301 49.918602 L 45.787498 48.941803 L 45.176998 47.842903 L 45.176998 46.988197 L 45.543301 46.744003 L 45.787498 46.988197 L 45.909599 47.476601 L 46.5201 47.964996 L 48.473701 48.087097 L 48.595798 49.063904 L 48.962101 49.430199 L 49.9389 48.5755 L 50.427299 47.476601 L 51.770401 45.523003 L 53.479801 42.348396 L 53.968201 41.127403 L 53.968201 40.761101 L 54.578701 39.784302 L 54.945 38.4412 L 54.945 37.586502 L 55.311298 36.853897 L 55.311298 35.388702 L 55.5555 34.411903 L 55.5555 30.260498 L 54.945 28.673203 L 54.822899 27.818497 L 54.334499 26.597504 L 54.334499 26.1091 L 53.968201 25.376495 L 53.723999 24.277603 L 52.991402 22.934494 L 51.159901 21.225098 L 50.915699 20.492493 L 49.9389 18.783096 L 47.7411 16.829498 L 46.886398 15.486404 L 45.787498 14.387497 L 44.688599 13.899094 L 43.589699 12.922302 Z M 38.949902 12.678101 L 39.071999 13.776993 L 40.170898 15.120102 L 40.170898 15.486404 L 39.8046 15.730606 L 38.583599 14.509598 L 37.6068 14.387497 L 37.118401 14.8759 L 36.9963 15.242203 L 36.5079 15.730606 L 36.263699 15.730606 L 36.019501 15.486404 L 37.484699 13.288605 L 38.2173 12.556 Z M 43.345501 13.776993 L 42.857101 14.387497 L 42.002399 13.532806 L 41.391899 13.166504 L 40.9035 13.166504 L 40.659302 13.410706 L 40.659302 13.899094 L 41.514 14.998001 L 41.758202 15.852707 L 41.636101 16.585297 L 41.269798 17.0737 L 39.071999 16.951599 L 38.2173 16.585297 L 37.362598 15.974792 L 37.362598 15.364304 L 37.973099 14.8759 L 39.194099 15.974792 L 40.659302 15.852707 L 40.781399 15.364304 L 40.659302 14.998001 L 39.682499 13.654907 L 39.682499 13.166504 L 40.537201 12.433899 L 41.147701 12.433899 L 42.246601 12.800201 L 42.979198 13.288605 Z M 28.083 12.433899 L 28.3272 12.800201 L 27.594601 13.410706 L 25.2747 14.143295 L 23.3211 14.509598 L 23.0769 14.753799 L 23.198999 15.242203 L 23.931601 15.852707 L 24.42 17.0737 L 24.6642 17.317902 L 24.786301 17.806305 L 24.6642 18.783096 L 24.1758 18.783096 L 23.198999 18.050507 L 22.7106 17.440002 L 22.7106 16.951599 L 22.2222 16.218994 L 22.1001 15.730606 L 21.733801 15.486404 L 19.2918 16.585297 L 18.5592 17.684204 L 17.826599 17.562103 L 15.9951 19.149399 L 15.9951 19.3936 L 16.361401 19.759903 L 17.094 20.004105 L 18.1929 20.980896 L 18.925501 22.568207 L 18.925501 22.934494 L 18.681299 23.178696 L 16.971901 22.934494 L 15.9951 22.568207 L 15.7509 22.324005 L 15.9951 21.713501 L 15.873 20.980896 L 14.7741 20.248306 L 14.1636 20.736694 L 11.7216 23.911301 L 11.4774 24.643906 L 11.5995 24.888107 L 12.3321 25.376495 L 13.1868 25.498596 L 13.3089 25.010193 L 13.7973 24.521805 L 14.0415 24.766006 L 14.4078 26.475403 L 14.652 26.719604 L 14.8962 27.818497 L 14.5299 27.940598 L 13.431 27.207993 L 12.4542 26.963806 L 12.4542 27.330093 L 13.6752 29.405807 L 13.6752 30.138397 L 13.1868 30.871002 L 12.5763 30.993103 L 11.8437 30.748901 L 9.5238 29.527893 L 9.4017 28.184799 L 9.6459 27.818497 L 9.6459 27.207993 L 9.8901 26.841705 L 10.0122 25.987 L 11.1111 23.544998 L 13.9194 20.004105 L 17.582399 16.218994 L 17.9487 15.974792 L 20.1465 15.364304 L 20.879101 14.998001 L 21.245399 14.998001 L 21.8559 14.631699 L 22.9548 14.387497 L 23.687401 13.899094 L 24.053699 13.899094 L 24.6642 13.532806 L 25.2747 13.410706 L 26.3736 12.800201 Z M 35.164799 12.189697 L 35.2869 11.701294 L 35.653198 11.701294 L 35.8974 12.067596 L 35.653198 12.311798 Z M 36.263699 11.701294 L 36.752102 11.701294 L 36.385799 11.945496 Z M 31.1355 11.457108 L 31.501801 11.823395 L 31.9902 13.410706 L 32.844898 15.242203 L 32.112301 15.730606 L 31.623899 15.730606 L 30.0366 16.341095 L 28.205099 17.806305 L 27.594601 17.684204 L 27.350401 17.440002 L 27.2283 16.707397 L 26.3736 14.998001 L 26.495701 14.387497 L 27.350401 14.387497 L 27.594601 14.631699 L 27.594601 15.242203 L 27.8388 15.730606 L 28.3272 15.730606 L 28.815599 15.364304 L 30.525 15.242203 L 30.525 14.143295 L 30.8913 13.288605 L 29.914499 13.166504 L 29.548201 12.800201 L 29.4261 12.311798 L 29.7924 11.945496 L 30.769199 11.457108 Z M 33.455399 11.212906 L 34.188 11.457108 L 34.432201 11.823395 L 33.821701 12.433899 L 33.333302 12.311798 L 33.0891 11.945496 L 33.0891 11.579193 Z M 31.9902 10.968704 L 32.4786 10.968704 L 32.4786 12.067596 L 32.966999 12.800201 L 33.455399 14.021194 L 33.6996 14.143295 L 33.943802 13.776993 L 34.920601 13.532806 L 35.775299 12.678101 L 36.141602 12.922302 L 35.8974 13.288605 L 35.8974 13.776993 L 36.752102 12.189697 L 37.240501 12.067596 L 37.484699 12.311798 L 36.630001 14.021194 L 34.7985 15.974792 L 34.188 16.096893 L 32.722801 14.021194 L 32.112301 12.678101 Z M 34.554298 9.869797 L 36.5079 9.747696 L 37.240501 9.869797 L 38.827801 10.602402 L 41.147701 11.335007 L 41.758202 11.701294 L 40.048801 11.945496 L 38.461498 11.823395 L 37.118401 10.968704 L 36.385799 10.846603 Z M 28.205099 9.869797 L 29.6703 9.625595 L 31.1355 9.625595 L 31.9902 9.747696 L 32.234402 9.991898 L 29.914499 11.212906 L 28.815599 11.335007 L 27.8388 11.823395 L 26.1294 12.189697 L 23.5653 13.410706 L 21.978001 13.776993 L 19.9023 14.753799 L 17.582399 15.486404 L 15.5067 17.440002 L 11.1111 22.324005 L 9.768 24.888107 L 8.7912 28.429001 L 8.9133 31.6036 L 8.547 32.580399 L 8.547 34.289803 L 8.7912 36.1213 L 9.0354 36.731796 L 9.0354 37.830704 L 10.1343 40.883202 L 11.4774 43.081001 L 12.8205 46.011398 L 13.431 46.866096 L 13.9194 47.964996 L 15.9951 50.040703 L 16.727699 50.529099 L 16.6056 49.918602 L 16.8498 49.552299 L 17.582399 49.185997 L 17.7045 50.040703 L 18.315001 50.651199 L 18.8034 50.7733 L 19.169701 50.406998 L 19.2918 49.796501 L 18.681299 49.308098 L 19.169701 49.063904 L 20.390699 49.063904 L 20.390699 48.819702 L 20.1465 48.5755 L 18.437099 48.087097 L 18.437099 47.842903 L 19.2918 46.988197 L 19.535999 46.988197 L 20.390699 47.720802 L 20.634899 47.720802 L 21.489599 48.5755 L 22.588499 49.308098 L 22.9548 50.040703 L 22.2222 50.529099 L 21.0012 52.482697 L 20.2686 52.360603 L 18.070801 51.261703 L 17.4603 50.7733 L 16.971901 50.651199 L 16.971901 50.895401 L 18.070801 51.750099 L 20.2686 52.848999 L 22.1001 53.947899 L 22.588499 54.436302 L 24.297899 55.046799 L 24.786301 55.046799 L 26.3736 55.657303 L 27.2283 55.657303 L 28.449301 56.023598 L 29.548201 56.145699 L 34.676399 56.023598 L 37.973099 55.535202 L 39.8046 54.802597 L 40.292999 54.802597 L 41.391899 54.192101 L 42.246601 54.07 L 43.589699 53.459503 L 43.956001 53.581596 L 43.956001 53.825798 L 41.880299 55.1689 L 41.147701 55.535202 L 39.8046 55.779404 L 38.583599 56.3899 L 29.4261 56.512001 L 24.542101 55.657303 L 22.832701 55.1689 L 22.588499 54.924698 L 21.8559 54.680496 L 20.1465 53.459503 L 17.826599 52.238503 L 14.1636 49.430199 L 13.0647 48.331299 L 10.989 45.400902 L 10.5006 44.179901 L 9.6459 42.714699 L 9.4017 41.860001 L 8.6691 40.883202 L 8.3028 39.417999 L 8.3028 38.563301 L 7.9365 37.098099 L 8.1807 27.818497 L 9.0354 24.888107 L 9.5238 23.911301 L 9.6459 22.812393 L 10.0122 21.713501 L 10.5006 21.225098 L 10.7448 20.614594 L 13.0647 17.317902 L 14.7741 15.608505 L 16.6056 14.509598 L 17.826599 13.532806 L 20.2686 12.556 L 21.489599 12.311798 L 22.344299 11.945496 L 23.3211 11.823395 L 24.786301 11.090805 Z M 11.1111 8.526703 L 10.8669 8.526703 L 12.0879 12.678101 L 10.7448 12.311798 L 8.6691 11.457108 L 7.9365 11.335007 L 10.7448 15.120102 L 10.6227 15.608505 L 10.989 15.486404 L 11.5995 14.8759 L 11.5995 14.631699 L 11.2332 14.753799 L 9.8901 13.288605 L 9.768 12.556 L 12.4542 13.532806 L 12.8205 13.532806 L 12.6984 12.678101 L 11.7216 10.113998 L 11.9658 9.991898 L 14.2857 12.067596 L 15.2625 11.090805 L 14.8962 11.335007 L 14.5299 11.335007 Z M 49.084202 6.817307 L 48.717899 6.939407 L 47.7411 7.794098 L 47.374802 8.526703 L 47.374802 10.113998 L 47.7411 10.846603 L 48.473701 11.579193 L 49.816799 12.189697 L 50.5494 11.457108 L 50.061001 11.701294 L 49.4505 11.701294 L 48.84 11.335007 L 47.985298 10.236099 L 47.985298 8.893005 L 48.2295 8.282501 L 49.206299 7.305695 L 50.183102 7.061493 L 51.0378 7.427795 L 52.014599 8.404602 L 52.1367 8.893005 L 51.892502 9.503494 L 52.7472 8.526703 L 51.770401 7.549896 L 50.793598 6.939407 Z M 15.2625 5.474197 L 13.1868 6.939407 L 13.6752 6.939407 L 14.2857 7.671997 L 15.9951 10.3582 L 15.873 10.968704 L 18.070801 9.625595 L 18.070801 9.259293 L 17.7045 8.648804 L 17.7045 9.259293 L 16.727699 9.991898 L 16.117201 9.381393 L 15.5067 8.404602 L 16.2393 7.794098 L 16.8498 8.0383 L 16.727699 7.549896 L 16.4835 7.183594 L 15.5067 7.916199 L 15.2625 7.916199 L 14.4078 6.695206 L 14.5299 6.328903 L 15.1404 5.962601 L 15.7509 6.206802 L 15.5067 5.474197 Z M 21.245399 3.276398 L 20.634899 3.154297 L 19.780199 3.276398 L 17.826599 4.009003 L 17.216101 4.497406 L 17.582399 4.497406 L 18.1929 5.352097 L 19.2918 8.0383 L 19.169701 8.770905 L 19.535999 8.770905 L 21.733801 7.794098 L 22.344299 7.305695 L 22.7106 6.695206 L 22.832701 6.206802 L 22.7106 4.741592 L 22.4664 4.253204 L 21.733801 3.520599 Z M 19.780199 3.6427 L 20.2686 3.6427 L 21.245399 4.009003 L 21.8559 4.619507 L 22.344299 5.596298 L 22.344299 6.451004 L 22.1001 6.939407 L 21.3675 7.671997 L 20.5128 8.0383 L 20.1465 8.0383 L 19.780199 7.671997 L 18.437099 4.497406 L 18.437099 4.253204 L 18.681299 4.009003 Z M 36.141602 5.962601 L 37.484699 6.328903 L 37.362598 5.718399 L 38.2173 4.619507 L 38.949902 4.741592 L 39.560398 4.985794 L 39.682499 6.939407 L 40.537201 7.061493 L 42.368698 7.794098 L 42.1245 7.549896 L 42.1245 6.939407 L 43.345501 4.253204 L 43.589699 4.497406 L 45.054901 9.015106 L 45.4212 9.015106 L 47.1306 5.229996 L 47.374802 4.985794 L 47.7411 4.985794 L 47.252701 4.619507 L 46.397999 4.375305 L 46.764301 4.741592 L 46.764301 4.985794 L 45.4212 7.916199 L 45.176998 7.671997 L 44.810699 6.206802 L 43.589699 2.910095 L 41.636101 6.939407 L 40.9035 7.061493 L 40.292999 6.451004 L 39.682499 1.811203 L 38.949902 2.543793 L 37.118401 5.352097 L 36.630001 5.8405 Z M 39.194099 2.910095 L 39.438301 3.6427 L 39.3162 4.619507 L 38.339401 4.253204 Z M 24.786301 1.689102 L 23.3211 2.055405 L 23.8095 2.299606 L 24.053699 2.910095 L 24.786301 6.084702 L 24.786301 6.451004 L 24.542101 6.817307 L 25.2747 6.695206 L 26.007299 6.328903 L 25.5189 6.206802 L 24.786301 3.764801 L 24.42 2.177505 Z M 32.966999 0.956497 L 33.455399 1.3228 L 33.211201 4.741592 L 33.0891 5.352097 L 32.722801 5.718399 L 34.065899 5.962601 L 35.164799 5.8405 L 35.8974 5.229996 L 36.019501 4.863693 L 36.019501 4.131104 L 35.164799 3.154297 L 35.653198 2.543793 L 35.775299 1.933304 L 35.531101 1.444901 L 35.042702 1.078598 Z M 34.310101 3.276398 L 35.164799 3.886902 L 35.409 4.619507 L 35.2869 5.229996 L 34.676399 5.718399 L 34.310101 5.718399 L 33.821701 5.474197 L 33.6996 5.229996 L 33.821701 3.6427 L 33.943802 3.398499 Z M 34.188 1.200699 L 34.554298 1.200699 L 35.164799 1.933304 L 35.164799 2.421707 L 34.7985 3.032196 L 33.943802 2.910095 L 33.943802 1.933304 Z M 28.449301 0.956497 L 27.594601 1.3228 L 26.9841 1.933304 L 26.6178 2.665894 L 26.6178 4.375305 L 27.106199 5.229996 L 27.8388 5.8405 L 29.7924 5.962601 L 30.6471 5.596298 L 31.1355 5.107895 L 31.623899 4.009003 L 31.623899 2.787994 L 31.1355 1.689102 L 30.525 1.200699 L 29.914499 0.956497 Z M 28.5714 1.200699 L 29.4261 1.200699 L 29.914499 1.444901 L 30.6471 2.177505 L 30.8913 2.665894 L 31.013399 3.276398 L 30.8913 4.619507 L 30.158701 5.474197 L 29.6703 5.718399 L 28.815599 5.718399 L 28.3272 5.474197 L 27.594601 4.741592 L 27.2283 3.886902 L 27.2283 2.421707 L 27.7167 1.689102 Z"/>
    </g>
</svg>
