<?xml version="1.0" encoding="UTF-8"?>
<svg xmlns="http://www.w3.org/2000/svg" viewBox="0 0 250 250" role="img" aria-label="Morgan Stanley logo">
  <title>Morgan Stanley</title>
  <path fill="#000000" fill-rule="evenodd" d="M205.38 106.69L205.38 133.01L205.95 133.58L205.95 134.15L206.52 134.15L208.24 135.3L211.1 135.3L211.67 134.73L211.67 133.01L209.38 133.01L208.24 131.86L208.24 106.69ZM0 107.27L0 134.73L2.86 134.73L2.86 111.27L3.43 110.7L4 111.27L4 112.41L4.58 112.99L4.58 114.13L5.15 114.7L5.15 116.42L5.72 116.99L5.72 118.14L6.29 118.71L6.29 119.85L6.86 120.42L6.86 122.14L7.44 122.71L7.44 123.86L8.01 124.43L8.01 125.57L8.58 126.14L8.58 127.86L9.15 128.43L9.15 129.58L9.73 130.15L9.73 131.29L10.3 131.86L10.3 133.58L10.87 134.15L10.87 134.73L13.16 134.73L13.16 134.15L13.73 133.58L13.73 132.44L14.3 131.86L14.3 130.15L14.87 129.58L14.87 128.43L15.45 127.86L15.45 126.72L16.02 126.14L16.02 124.43L16.59 123.86L16.59 122.71L17.16 122.14L17.16 121L17.73 120.42L17.73 118.71L18.31 118.14L18.31 116.99L18.88 116.42L18.88 115.27L19.45 114.7L19.45 113.56L20.02 112.99L20.02 111.27L20.59 110.7L21.17 111.27L21.17 134.73L24.03 134.73L24.03 107.27L18.88 107.27L18.88 108.41L18.31 108.98L18.31 110.7L17.73 111.27L17.73 112.41L17.16 112.99L17.16 114.13L16.59 114.7L16.59 115.85L16.02 116.42L16.02 118.14L15.45 118.71L15.45 119.85L14.87 120.42L14.87 121.57L14.3 122.14L14.3 123.86L13.73 124.43L13.73 125.57L13.16 126.14L13.16 127.29L12.59 127.86L12.59 129L12.01 129.58L11.44 129L11.44 127.86L10.87 127.29L10.87 125.57L10.3 125L10.3 123.86L9.73 123.28L9.73 122.14L9.15 121.57L9.15 120.42L8.58 119.85L8.58 118.14L8.01 117.56L8.01 116.42L7.44 115.85L7.44 114.7L6.86 114.13L6.86 112.41L6.29 111.84L6.29 110.7L5.72 110.13L5.72 108.98L5.15 108.41L5.15 107.27ZM132.72 107.84L131.58 108.98L131.01 108.98L131.01 109.55L129.86 110.7L129.86 111.27L129.29 111.84L129.29 116.42L129.86 116.99L129.86 117.56L131.58 119.28L132.15 119.28L133.3 120.42L134.44 120.42L136.16 121.57L137.3 121.57L137.87 122.14L139.02 122.14L139.59 122.71L140.16 122.71L140.73 123.28L142.45 123.86L144.16 125.57L144.16 126.72L144.74 127.29L144.74 128.43L144.16 129L144.16 130.15L141.88 132.44L140.73 132.44L140.16 133.01L137.3 133.01L136.73 132.44L135.58 132.44L135.01 131.86L134.44 131.86L131.58 129L131.01 127.29L130.43 127.29L129.86 127.86L128.72 127.86L128.72 129L129.29 129.58L129.29 130.15L130.43 131.29L130.43 131.86L132.15 133.58L132.72 133.58L134.44 134.73L135.58 134.73L136.16 135.3L140.73 135.3L141.3 134.73L143.02 134.73L143.59 134.15L144.16 134.15L146.45 131.86L146.45 131.29L147.6 129.58L147.6 125.57L147.03 125L146.45 123.28L143.59 121L143.02 121L142.45 120.42L141.3 120.42L139.59 119.28L138.44 119.28L137.87 118.71L136.73 118.71L136.16 118.14L134.44 117.56L132.15 115.27L132.15 111.84L134.44 109.55L139.59 109.55L140.16 110.13L140.73 110.13L143.59 112.99L143.59 114.13L145.88 114.13L146.45 113.56L145.88 112.99L145.88 111.84L144.74 110.7L144.74 110.13L143.02 108.41L142.45 108.41L140.73 107.27L134.44 107.27L133.87 107.84ZM153.32 107.84L153.32 114.13L152.75 114.7L149.89 114.7L149.89 116.42L150.46 116.99L152.75 116.99L153.32 117.56L153.32 133.58L154.46 134.73L155.61 134.73L156.18 135.3L158.47 135.3L159.04 134.73L159.61 134.73L159.61 133.01L157.32 133.01L156.18 131.86L156.18 117.56L156.75 116.99L159.04 116.99L159.61 116.42L159.61 114.7L156.75 114.7L156.18 114.13L156.18 108.41L155.61 107.84ZM36.04 114.13L35.47 114.7L33.75 114.7L32.61 115.85L32.04 115.85L30.32 117.56L30.32 118.14L29.18 119.85L29.18 121.57L28.6 122.14L28.6 127.29L29.18 127.86L29.18 129.58L29.75 130.15L30.32 131.86L32.04 133.58L32.61 133.58L33.75 134.73L35.47 134.73L36.04 135.3L38.9 135.3L39.47 134.73L40.62 134.73L41.19 134.15L41.76 134.15L44.05 131.86L44.05 131.29L45.19 129.58L45.19 128.43L45.77 127.86L45.77 121.57L45.19 121L45.19 119.85L44.62 119.28L44.05 117.56L41.76 115.27L41.19 115.27L40.62 114.7L39.47 114.7L38.9 114.13ZM69.22 114.13L68.65 114.7L67.51 114.7L66.93 115.27L65.22 115.85L63.5 117.56L63.5 118.14L62.36 119.85L62.36 121L61.78 121.57L61.78 127.86L62.36 128.43L62.36 129.58L62.93 130.15L63.5 131.86L65.79 134.15L66.36 134.15L66.93 134.73L68.08 134.73L68.65 135.3L70.94 135.3L71.51 134.73L72.65 134.73L74.94 132.44L75.51 133.01L75.51 137.59L74.94 138.16L74.94 138.73L73.23 140.45L72.65 140.45L72.08 141.02L66.93 141.02L66.36 140.45L65.22 140.45L64.65 139.87L64.07 139.87L64.07 142.16L64.65 142.16L65.22 142.73L66.93 142.73L67.51 143.31L72.08 143.31L72.65 142.73L73.8 142.73L74.37 142.16L76.09 141.59L76.66 141.02L76.66 140.45L77.8 139.3L77.8 137.59L78.38 137.01L78.38 114.7L76.09 114.7L76.09 115.85L75.51 116.42L74.94 116.42L73.8 115.27L73.23 115.27L72.65 114.7L71.51 114.7L70.94 114.13ZM86.38 115.27L83.52 118.14L84.67 119.28L85.81 119.28L88.1 116.99L89.24 116.99L89.82 116.42L92.68 116.42L93.25 116.99L93.82 116.99L94.97 118.14L94.97 119.28L95.54 119.85L95.54 121L93.82 122.14L90.39 122.14L89.82 122.71L88.67 122.71L88.1 123.28L86.96 123.28L86.38 123.86L85.81 123.86L83.52 126.14L83.52 126.72L82.95 127.29L82.95 131.86L84.1 133.01L84.1 133.58L84.67 134.15L85.24 134.15L86.96 135.3L90.96 135.3L91.53 134.73L92.68 134.73L93.82 133.58L94.39 133.58L94.39 133.01L94.97 132.44L95.54 133.01L95.54 133.58L96.68 134.73L98.97 134.73L98.97 133.01L97.83 131.86L97.83 118.14L97.25 117.56L97.25 116.99L95.54 115.27L94.97 115.27L94.39 114.7L92.68 114.7L92.11 114.13L89.82 114.13L89.24 114.7L87.53 114.7L86.96 115.27ZM116.13 114.7L114.42 114.7L113.84 114.13L112.13 114.13L111.56 114.7L110.41 114.7L109.84 115.27L109.27 115.27L107.55 116.99L106.98 116.42L106.98 114.7L104.12 114.7L104.12 134.73L106.98 134.73L106.98 119.85L109.27 117.56L109.84 117.56L111.56 116.42L113.84 116.42L114.42 116.99L114.99 116.99L116.13 118.14L116.13 134.73L118.99 134.73L118.99 118.14L118.42 117.56L118.42 116.99ZM165.9 115.85L164.19 117.56L164.19 118.71L164.76 118.71L165.33 119.28L166.48 119.28L166.48 118.71L167.62 117.56L168.19 117.56L169.91 116.42L172.77 116.42L173.34 116.99L173.91 116.99L175.63 118.71L175.63 121L173.91 122.14L171.05 122.14L170.48 122.71L168.76 122.71L168.19 123.28L167.62 123.28L167.05 123.86L165.33 124.43L164.19 125.57L164.19 126.14L163.04 127.86L163.04 131.29L163.62 131.86L163.62 132.44L165.9 134.73L167.05 134.73L167.62 135.3L171.05 135.3L171.62 134.73L172.77 134.73L173.34 134.15L173.91 134.15L175.06 133.01L175.63 133.01L176.77 134.73L179.63 134.73L179.63 133.01L179.06 133.01L178.49 132.44L178.49 119.28L177.92 118.71L177.92 117.56L175.63 115.27L175.06 115.27L174.49 114.7L172.77 114.7L172.2 114.13L170.48 114.13L169.91 114.7L168.19 114.7L167.62 115.27ZM197.37 115.27L196.8 115.27L196.22 114.7L194.51 114.7L193.94 114.13L192.79 114.13L192.22 114.7L191.08 114.7L190.5 115.27L188.79 115.85L187.64 116.99L187.07 116.42L187.07 114.7L184.21 114.7L184.21 134.73L187.07 134.73L187.07 119.85L188.79 118.14L189.36 118.14L190.5 116.99L191.65 116.99L192.22 116.42L194.51 116.42L196.22 118.14L196.22 119.28L196.8 119.85L196.8 134.73L199.08 134.73L199.08 117.56L198.51 116.99L198.51 116.42ZM221.4 114.13L220.82 114.7L219.68 114.7L219.11 115.27L217.39 115.85L216.25 116.99L216.25 117.56L214.53 120.42L214.53 123.86L213.96 124.43L213.96 125.57L214.53 126.14L214.53 129L215.1 129.58L215.68 131.29L218.54 134.15L219.11 134.15L219.68 134.73L221.4 134.73L221.97 135.3L224.83 135.3L225.4 134.73L227.12 134.73L228.26 133.58L228.83 133.58L229.98 132.44L230.55 130.72L228.83 129.58L227.69 130.72L227.69 131.29L227.12 131.86L226.54 131.86L224.83 133.01L221.4 133.01L220.82 132.44L220.25 132.44L218.54 130.72L218.54 130.15L217.39 128.43L217.39 125.57L217.96 125L231.12 125L231.12 120.42L230.55 119.85L230.55 118.71L229.98 118.14L229.98 117.56L227.69 115.27L227.12 115.27L226.54 114.7L224.83 114.7L224.26 114.13ZM60.07 114.7L57.21 114.7L56.64 115.27L56.06 115.27L54.35 116.99L54.35 117.56L53.78 118.14L53.2 117.56L53.2 114.7L50.34 114.7L50.34 134.73L53.2 134.73L53.2 122.14L53.78 121.57L54.35 119.85L56.64 117.56L57.78 117.56L58.35 116.99L60.07 116.99ZM250 114.7L247.14 114.7L247.14 115.27L246.57 115.85L246.57 117.56L246 118.14L246 119.28L245.42 119.85L245.42 121L244.85 121.57L244.85 123.28L244.28 123.86L244.28 125L243.71 125.57L243.71 127.29L243.14 127.86L243.14 129L242.56 129.58L241.99 129.58L241.42 129L241.42 127.86L240.27 126.14L240.27 125L239.7 124.43L239.7 123.28L239.13 122.71L239.13 121.57L238.56 121L238.56 119.85L237.99 119.28L237.99 118.14L237.41 117.56L237.41 116.42L236.84 115.85L236.84 115.27L236.27 114.7L233.98 114.7L233.98 115.85L235.13 117.56L235.13 118.71L235.7 119.28L235.7 120.42L236.27 121L236.27 122.14L236.84 122.71L236.84 123.86L237.41 124.43L237.41 125.57L237.99 126.14L237.99 127.29L239.13 129L239.13 130.15L239.7 130.72L239.7 131.86L240.27 132.44L240.27 133.58L240.85 134.15L240.85 135.87L240.27 136.44L240.27 137.59L239.13 138.73L239.13 139.3L237.99 140.45L237.41 140.45L236.84 141.02L233.98 141.02L233.98 143.31L237.41 143.31L237.99 142.73L239.7 142.16L240.27 141.59L240.27 141.02L241.42 139.87L241.42 139.3L243.14 136.44L243.14 135.3L243.71 134.73L243.71 133.01L244.28 132.44L244.28 131.29L244.85 130.72L244.85 129.58L245.42 129L245.42 127.86L246 127.29L246 126.14L246.57 125.57L246.57 124.43L247.14 123.86L247.14 122.71L247.71 122.14L247.71 121L248.28 120.42L248.28 118.71L248.86 118.14L248.86 116.99L249.43 116.42L249.43 115.27ZM36.04 116.42L38.9 116.42L39.47 116.99L40.05 116.99L41.76 118.71L41.76 119.28L42.33 119.85L42.33 121L42.91 121.57L42.91 127.86L42.33 128.43L42.33 129.58L41.76 130.15L41.76 130.72L40.05 132.44L39.47 132.44L38.9 133.01L36.04 133.01L35.47 132.44L34.9 132.44L32.61 130.15L32.61 129.58L32.04 129L32.04 127.29L31.46 126.72L31.46 122.71L32.04 122.14L32.04 120.42L32.61 119.85L32.61 119.28L34.9 116.99L35.47 116.99ZM69.22 116.42L72.08 116.42L72.65 116.99L73.23 116.99L75.51 119.28L75.51 129.58L72.65 132.44L72.08 132.44L71.51 133.01L68.65 133.01L68.08 132.44L67.51 132.44L65.79 130.72L65.79 130.15L65.22 129.58L65.22 128.43L64.65 127.86L64.65 121.57L65.22 121L65.22 119.85L65.79 119.28L65.79 118.71L66.93 117.56L67.51 117.56ZM217.39 120.42L219.11 117.56L219.68 117.56L221.4 116.42L224.83 116.42L225.4 116.99L225.97 116.99L227.69 118.71L227.69 119.28L228.26 119.85L228.26 122.71L227.69 123.28L217.96 123.28L217.39 122.71ZM94.97 123.86L95.54 124.43L95.54 129.58L92.68 132.44L91.53 132.44L90.96 133.01L88.1 133.01L87.53 132.44L86.96 132.44L85.81 130.72L85.81 127.29L87.53 125.57L88.1 125.57L88.67 125L89.82 125L90.39 124.43L92.68 124.43L93.25 123.86ZM175.06 123.86L175.63 124.43L175.63 129.58L175.06 130.15L175.06 130.72L171.62 133.01L168.19 133.01L165.9 130.72L165.9 127.86L168.76 125L169.91 125L170.48 124.43L173.34 124.43L173.91 123.86Z"/>
</svg>
