<?xml version="1.0" encoding="UTF-8"?>
<!-- Generated by Pixelmator Pro 3.8 -->
<svg width="250" height="38" viewBox="0 0 250 38" xmlns="http://www.w3.org/2000/svg">
    <path id="Path" fill="#000000" fill-rule="evenodd" stroke="none" d="M 205.380005 0.690002 L 205.380005 27.009995 L 205.949997 27.580002 L 205.949997 28.149994 L 206.520004 28.149994 L 208.240005 29.300003 L 211.100006 29.300003 L 211.669998 28.729996 L 211.669998 27.009995 L 209.380005 27.009995 L 208.240005 25.860001 L 208.240005 0.690002 Z M 0 1.269989 L 0 28.729996 L 2.86 28.729996 L 2.86 5.269989 L 3.43 4.699997 L 4 5.269989 L 4 6.410004 L 4.58 6.98999 L 4.58 8.130005 L 5.15 8.699997 L 5.15 10.419998 L 5.72 10.98999 L 5.72 12.139999 L 6.29 12.709991 L 6.29 13.850006 L 6.86 14.419998 L 6.86 16.139999 L 7.44 16.709999 L 7.44 17.860001 L 8.01 18.43 L 8.01 19.57 L 8.58 20.139999 L 8.58 21.860001 L 9.15 22.429993 L 9.15 23.580002 L 9.73 24.149994 L 9.73 25.289993 L 10.3 25.860001 L 10.3 27.580002 L 10.87 28.149994 L 10.87 28.729996 L 13.16 28.729996 L 13.16 28.149994 L 13.73 27.580002 L 13.73 26.440002 L 14.3 25.860001 L 14.3 24.149994 L 14.87 23.580002 L 14.87 22.429993 L 15.45 21.860001 L 15.45 20.720001 L 16.02 20.139999 L 16.02 18.43 L 16.59 17.860001 L 16.59 16.709999 L 17.16 16.139999 L 17.16 15 L 17.73 14.419998 L 17.73 12.709991 L 18.309999 12.139999 L 18.309999 10.98999 L 18.879999 10.419998 L 18.879999 9.269989 L 19.450001 8.699997 L 19.450001 7.559998 L 20.02 6.98999 L 20.02 5.269989 L 20.59 4.699997 L 21.17 5.269989 L 21.17 28.729996 L 24.030001 28.729996 L 24.030001 1.269989 L 18.879999 1.269989 L 18.879999 2.410004 L 18.309999 2.980011 L 18.309999 4.699997 L 17.73 5.269989 L 17.73 6.410004 L 17.16 6.98999 L 17.16 8.130005 L 16.59 8.699997 L 16.59 9.850006 L 16.02 10.419998 L 16.02 12.139999 L 15.45 12.709991 L 15.45 13.850006 L 14.87 14.419998 L 14.87 15.570007 L 14.3 16.139999 L 14.3 17.860001 L 13.73 18.43 L 13.73 19.57 L 13.16 20.139999 L 13.16 21.290001 L 12.59 21.860001 L 12.59 23 L 12.01 23.580002 L 11.44 23 L 11.44 21.860001 L 10.87 21.290001 L 10.87 19.57 L 10.3 19 L 10.3 17.860001 L 9.73 17.279999 L 9.73 16.139999 L 9.15 15.570007 L 9.15 14.419998 L 8.58 13.850006 L 8.58 12.139999 L 8.01 11.559998 L 8.01 10.419998 L 7.44 9.850006 L 7.44 8.699997 L 6.86 8.130005 L 6.86 6.410004 L 6.29 5.839996 L 6.29 4.699997 L 5.72 4.130005 L 5.72 2.980011 L 5.15 2.410004 L 5.15 1.269989 Z M 132.720001 1.839996 L 131.580002 2.980011 L 131.009995 2.980011 L 131.009995 3.550003 L 129.860001 4.699997 L 129.860001 5.269989 L 129.289993 5.839996 L 129.289993 10.419998 L 129.860001 10.98999 L 129.860001 11.559998 L 131.580002 13.279999 L 132.149994 13.279999 L 133.300003 14.419998 L 134.440002 14.419998 L 136.160004 15.570007 L 137.300003 15.570007 L 137.869995 16.139999 L 139.020004 16.139999 L 139.589996 16.709999 L 140.160004 16.709999 L 140.729996 17.279999 L 142.449997 17.860001 L 144.160004 19.57 L 144.160004 20.720001 L 144.740005 21.290001 L 144.740005 22.429993 L 144.160004 23 L 144.160004 24.149994 L 141.880005 26.440002 L 140.729996 26.440002 L 140.160004 27.009995 L 137.300003 27.009995 L 136.729996 26.440002 L 135.580002 26.440002 L 135.009995 25.860001 L 134.440002 25.860001 L 131.580002 23 L 131.009995 21.290001 L 130.429993 21.290001 L 129.860001 21.860001 L 128.720001 21.860001 L 128.720001 23 L 129.289993 23.580002 L 129.289993 24.149994 L 130.429993 25.289993 L 130.429993 25.860001 L 132.149994 27.580002 L 132.720001 27.580002 L 134.440002 28.729996 L 135.580002 28.729996 L 136.160004 29.300003 L 140.729996 29.300003 L 141.300003 28.729996 L 143.020004 28.729996 L 143.589996 28.149994 L 144.160004 28.149994 L 146.449997 25.860001 L 146.449997 25.289993 L 147.600006 23.580002 L 147.600006 19.57 L 147.029999 19 L 146.449997 17.279999 L 143.589996 15 L 143.020004 15 L 142.449997 14.419998 L 141.300003 14.419998 L 139.589996 13.279999 L 138.440002 13.279999 L 137.869995 12.709991 L 136.729996 12.709991 L 136.160004 12.139999 L 134.440002 11.559998 L 132.149994 9.269989 L 132.149994 5.839996 L 134.440002 3.550003 L 139.589996 3.550003 L 140.160004 4.130005 L 140.729996 4.130005 L 143.589996 6.98999 L 143.589996 8.130005 L 145.880005 8.130005 L 146.449997 7.559998 L 145.880005 6.98999 L 145.880005 5.839996 L 144.740005 4.699997 L 144.740005 4.130005 L 143.020004 2.410004 L 142.449997 2.410004 L 140.729996 1.269989 L 134.440002 1.269989 L 133.869995 1.839996 Z M 153.320007 1.839996 L 153.320007 8.130005 L 152.75 8.699997 L 149.889999 8.699997 L 149.889999 10.419998 L 150.460007 10.98999 L 152.75 10.98999 L 153.320007 11.559998 L 153.320007 27.580002 L 154.460007 28.729996 L 155.610001 28.729996 L 156.179993 29.300003 L 158.470001 29.300003 L 159.039993 28.729996 L 159.610001 28.729996 L 159.610001 27.009995 L 157.320007 27.009995 L 156.179993 25.860001 L 156.179993 11.559998 L 156.75 10.98999 L 159.039993 10.98999 L 159.610001 10.419998 L 159.610001 8.699997 L 156.75 8.699997 L 156.179993 8.130005 L 156.179993 2.410004 L 155.610001 1.839996 Z M 36.040001 8.130005 L 35.470001 8.699997 L 33.75 8.699997 L 32.610001 9.850006 L 32.040001 9.850006 L 30.32 11.559998 L 30.32 12.139999 L 29.18 13.850006 L 29.18 15.570007 L 28.6 16.139999 L 28.6 21.290001 L 29.18 21.860001 L 29.18 23.580002 L 29.75 24.149994 L 30.32 25.860001 L 32.040001 27.580002 L 32.610001 27.580002 L 33.75 28.729996 L 35.470001 28.729996 L 36.040001 29.300003 L 38.900002 29.300003 L 39.470001 28.729996 L 40.619999 28.729996 L 41.189999 28.149994 L 41.759998 28.149994 L 44.049999 25.860001 L 44.049999 25.289993 L 45.189999 23.580002 L 45.189999 22.429993 L 45.77 21.860001 L 45.77 15.570007 L 45.189999 15 L 45.189999 13.850006 L 44.619999 13.279999 L 44.049999 11.559998 L 41.759998 9.269989 L 41.189999 9.269989 L 40.619999 8.699997 L 39.470001 8.699997 L 38.900002 8.130005 Z M 69.220001 8.130005 L 68.650002 8.699997 L 67.510002 8.699997 L 66.93 9.269989 L 65.220001 9.850006 L 63.5 11.559998 L 63.5 12.139999 L 62.360001 13.850006 L 62.360001 15 L 61.779999 15.570007 L 61.779999 21.860001 L 62.360001 22.429993 L 62.360001 23.580002 L 62.93 24.149994 L 63.5 25.860001 L 65.790001 28.149994 L 66.360001 28.149994 L 66.93 28.729996 L 68.080002 28.729996 L 68.650002 29.300003 L 70.940002 29.300003 L 71.510002 28.729996 L 72.650002 28.729996 L 74.940002 26.440002 L 75.510002 27.009995 L 75.510002 31.589996 L 74.940002 32.160004 L 74.940002 32.729996 L 73.230003 34.449997 L 72.650002 34.449997 L 72.080002 35.020004 L 66.93 35.020004 L 66.360001 34.449997 L 65.220001 34.449997 L 64.650002 33.869995 L 64.07 33.869995 L 64.07 36.160004 L 64.650002 36.160004 L 65.220001 36.729996 L 66.93 36.729996 L 67.510002 37.309998 L 72.080002 37.309998 L 72.650002 36.729996 L 73.800003 36.729996 L 74.370003 36.160004 L 76.089996 35.589996 L 76.660004 35.020004 L 76.660004 34.449997 L 77.800003 33.300003 L 77.800003 31.589996 L 78.379997 31.009995 L 78.379997 8.699997 L 76.089996 8.699997 L 76.089996 9.850006 L 75.510002 10.419998 L 74.940002 10.419998 L 73.800003 9.269989 L 73.230003 9.269989 L 72.650002 8.699997 L 71.510002 8.699997 L 70.940002 8.130005 Z M 86.379997 9.269989 L 83.519997 12.139999 L 84.669998 13.279999 L 85.809998 13.279999 L 88.099998 10.98999 L 89.239998 10.98999 L 89.82 10.419998 L 92.68 10.419998 L 93.25 10.98999 L 93.82 10.98999 L 94.970001 12.139999 L 94.970001 13.279999 L 95.540001 13.850006 L 95.540001 15 L 93.82 16.139999 L 90.389999 16.139999 L 89.82 16.709999 L 88.669998 16.709999 L 88.099998 17.279999 L 86.959999 17.279999 L 86.379997 17.860001 L 85.809998 17.860001 L 83.519997 20.139999 L 83.519997 20.720001 L 82.949997 21.290001 L 82.949997 25.860001 L 84.099998 27.009995 L 84.099998 27.580002 L 84.669998 28.149994 L 85.239998 28.149994 L 86.959999 29.300003 L 90.959999 29.300003 L 91.529999 28.729996 L 92.68 28.729996 L 93.82 27.580002 L 94.389999 27.580002 L 94.389999 27.009995 L 94.970001 26.440002 L 95.540001 27.009995 L 95.540001 27.580002 L 96.68 28.729996 L 98.970001 28.729996 L 98.970001 27.009995 L 97.830002 25.860001 L 97.830002 12.139999 L 97.25 11.559998 L 97.25 10.98999 L 95.540001 9.269989 L 94.970001 9.269989 L 94.389999 8.699997 L 92.68 8.699997 L 92.110001 8.130005 L 89.82 8.130005 L 89.239998 8.699997 L 87.529999 8.699997 L 86.959999 9.269989 Z M 116.129997 8.699997 L 114.419998 8.699997 L 113.839996 8.130005 L 112.129997 8.130005 L 111.559998 8.699997 L 110.410004 8.699997 L 109.839996 9.269989 L 109.269997 9.269989 L 107.550003 10.98999 L 106.980003 10.419998 L 106.980003 8.699997 L 104.120003 8.699997 L 104.120003 28.729996 L 106.980003 28.729996 L 106.980003 13.850006 L 109.269997 11.559998 L 109.839996 11.559998 L 111.559998 10.419998 L 113.839996 10.419998 L 114.419998 10.98999 L 114.989998 10.98999 L 116.129997 12.139999 L 116.129997 28.729996 L 118.989998 28.729996 L 118.989998 12.139999 L 118.419998 11.559998 L 118.419998 10.98999 Z M 165.899994 9.850006 L 164.190002 11.559998 L 164.190002 12.709991 L 164.759995 12.709991 L 165.330002 13.279999 L 166.479996 13.279999 L 166.479996 12.709991 L 167.619995 11.559998 L 168.190002 11.559998 L 169.910004 10.419998 L 172.770004 10.419998 L 173.339996 10.98999 L 173.910004 10.98999 L 175.630005 12.709991 L 175.630005 15 L 173.910004 16.139999 L 171.050003 16.139999 L 170.479996 16.709999 L 168.759995 16.709999 L 168.190002 17.279999 L 167.619995 17.279999 L 167.050003 17.860001 L 165.330002 18.43 L 164.190002 19.57 L 164.190002 20.139999 L 163.039993 21.860001 L 163.039993 25.289993 L 163.619995 25.860001 L 163.619995 26.440002 L 165.899994 28.729996 L 167.050003 28.729996 L 167.619995 29.300003 L 171.050003 29.300003 L 171.619995 28.729996 L 172.770004 28.729996 L 173.339996 28.149994 L 173.910004 28.149994 L 175.059998 27.009995 L 175.630005 27.009995 L 176.770004 28.729996 L 179.630005 28.729996 L 179.630005 27.009995 L 179.059998 27.009995 L 178.490005 26.440002 L 178.490005 13.279999 L 177.919998 12.709991 L 177.919998 11.559998 L 175.630005 9.269989 L 175.059998 9.269989 L 174.490005 8.699997 L 172.770004 8.699997 L 172.199997 8.130005 L 170.479996 8.130005 L 169.910004 8.699997 L 168.190002 8.699997 L 167.619995 9.269989 Z M 197.369995 9.269989 L 196.800003 9.269989 L 196.220001 8.699997 L 194.509995 8.699997 L 193.940002 8.130005 L 192.789993 8.130005 L 192.220001 8.699997 L 191.080002 8.699997 L 190.5 9.269989 L 188.789993 9.850006 L 187.639999 10.98999 L 187.070007 10.419998 L 187.070007 8.699997 L 184.210007 8.699997 L 184.210007 28.729996 L 187.070007 28.729996 L 187.070007 13.850006 L 188.789993 12.139999 L 189.360001 12.139999 L 190.5 10.98999 L 191.649994 10.98999 L 192.220001 10.419998 L 194.509995 10.419998 L 196.220001 12.139999 L 196.220001 13.279999 L 196.800003 13.850006 L 196.800003 28.729996 L 199.080002 28.729996 L 199.080002 11.559998 L 198.509995 10.98999 L 198.509995 10.419998 Z M 221.399994 8.130005 L 220.820007 8.699997 L 219.679993 8.699997 L 219.110001 9.269989 L 217.389999 9.850006 L 216.25 10.98999 L 216.25 11.559998 L 214.529999 14.419998 L 214.529999 17.860001 L 213.960007 18.43 L 213.960007 19.57 L 214.529999 20.139999 L 214.529999 23 L 215.100006 23.580002 L 215.679993 25.289993 L 218.539993 28.149994 L 219.110001 28.149994 L 219.679993 28.729996 L 221.399994 28.729996 L 221.970001 29.300003 L 224.830002 29.300003 L 225.399994 28.729996 L 227.119995 28.729996 L 228.259995 27.580002 L 228.830002 27.580002 L 229.979996 26.440002 L 230.550003 24.720001 L 228.830002 23.580002 L 227.690002 24.720001 L 227.690002 25.289993 L 227.119995 25.860001 L 226.539993 25.860001 L 224.830002 27.009995 L 221.399994 27.009995 L 220.820007 26.440002 L 220.25 26.440002 L 218.539993 24.720001 L 218.539993 24.149994 L 217.389999 22.429993 L 217.389999 19.57 L 217.960007 19 L 231.119995 19 L 231.119995 14.419998 L 230.550003 13.850006 L 230.550003 12.709991 L 229.979996 12.139999 L 229.979996 11.559998 L 227.690002 9.269989 L 227.119995 9.269989 L 226.539993 8.699997 L 224.830002 8.699997 L 224.259995 8.130005 Z M 60.07 8.699997 L 57.209999 8.699997 L 56.639999 9.269989 L 56.060001 9.269989 L 54.349998 10.98999 L 54.349998 11.559998 L 53.779999 12.139999 L 53.200001 11.559998 L 53.200001 8.699997 L 50.34 8.699997 L 50.34 28.729996 L 53.200001 28.729996 L 53.200001 16.139999 L 53.779999 15.570007 L 54.349998 13.850006 L 56.639999 11.559998 L 57.779999 11.559998 L 58.349998 10.98999 L 60.07 10.98999 Z M 250 8.699997 L 247.139999 8.699997 L 247.139999 9.269989 L 246.570007 9.850006 L 246.570007 11.559998 L 246 12.139999 L 246 13.279999 L 245.419998 13.850006 L 245.419998 15 L 244.850006 15.570007 L 244.850006 17.279999 L 244.279999 17.860001 L 244.279999 19 L 243.710007 19.57 L 243.710007 21.290001 L 243.139999 21.860001 L 243.139999 23 L 242.559998 23.580002 L 241.990005 23.580002 L 241.419998 23 L 241.419998 21.860001 L 240.270004 20.139999 L 240.270004 19 L 239.699997 18.43 L 239.699997 17.279999 L 239.130005 16.709999 L 239.130005 15.570007 L 238.559998 15 L 238.559998 13.850006 L 237.990005 13.279999 L 237.990005 12.139999 L 237.410004 11.559998 L 237.410004 10.419998 L 236.839996 9.850006 L 236.839996 9.269989 L 236.270004 8.699997 L 233.979996 8.699997 L 233.979996 9.850006 L 235.130005 11.559998 L 235.130005 12.709991 L 235.699997 13.279999 L 235.699997 14.419998 L 236.270004 15 L 236.270004 16.139999 L 236.839996 16.709999 L 236.839996 17.860001 L 237.410004 18.43 L 237.410004 19.57 L 237.990005 20.139999 L 237.990005 21.290001 L 239.130005 23 L 239.130005 24.149994 L 239.699997 24.720001 L 239.699997 25.860001 L 240.270004 26.440002 L 240.270004 27.580002 L 240.850006 28.149994 L 240.850006 29.869995 L 240.270004 30.440002 L 240.270004 31.589996 L 239.130005 32.729996 L 239.130005 33.300003 L 237.990005 34.449997 L 237.410004 34.449997 L 236.839996 35.020004 L 233.979996 35.020004 L 233.979996 37.309998 L 237.410004 37.309998 L 237.990005 36.729996 L 239.699997 36.160004 L 240.270004 35.589996 L 240.270004 35.020004 L 241.419998 33.869995 L 241.419998 33.300003 L 243.139999 30.440002 L 243.139999 29.300003 L 243.710007 28.729996 L 243.710007 27.009995 L 244.279999 26.440002 L 244.279999 25.289993 L 244.850006 24.720001 L 244.850006 23.580002 L 245.419998 23 L 245.419998 21.860001 L 246 21.290001 L 246 20.139999 L 246.570007 19.57 L 246.570007 18.43 L 247.139999 17.860001 L 247.139999 16.709999 L 247.710007 16.139999 L 247.710007 15 L 248.279999 14.419998 L 248.279999 12.709991 L 248.860001 12.139999 L 248.860001 10.98999 L 249.429993 10.419998 L 249.429993 9.269989 Z M 36.040001 10.419998 L 38.900002 10.419998 L 39.470001 10.98999 L 40.049999 10.98999 L 41.759998 12.709991 L 41.759998 13.279999 L 42.330002 13.850006 L 42.330002 15 L 42.91 15.570007 L 42.91 21.860001 L 42.330002 22.429993 L 42.330002 23.580002 L 41.759998 24.149994 L 41.759998 24.720001 L 40.049999 26.440002 L 39.470001 26.440002 L 38.900002 27.009995 L 36.040001 27.009995 L 35.470001 26.440002 L 34.900002 26.440002 L 32.610001 24.149994 L 32.610001 23.580002 L 32.040001 23 L 32.040001 21.290001 L 31.459999 20.720001 L 31.459999 16.709999 L 32.040001 16.139999 L 32.040001 14.419998 L 32.610001 13.850006 L 32.610001 13.279999 L 34.900002 10.98999 L 35.470001 10.98999 Z M 69.220001 10.419998 L 72.080002 10.419998 L 72.650002 10.98999 L 73.230003 10.98999 L 75.510002 13.279999 L 75.510002 23.580002 L 72.650002 26.440002 L 72.080002 26.440002 L 71.510002 27.009995 L 68.650002 27.009995 L 68.080002 26.440002 L 67.510002 26.440002 L 65.790001 24.720001 L 65.790001 24.149994 L 65.220001 23.580002 L 65.220001 22.429993 L 64.650002 21.860001 L 64.650002 15.570007 L 65.220001 15 L 65.220001 13.850006 L 65.790001 13.279999 L 65.790001 12.709991 L 66.93 11.559998 L 67.510002 11.559998 Z M 217.389999 14.419998 L 219.110001 11.559998 L 219.679993 11.559998 L 221.399994 10.419998 L 224.830002 10.419998 L 225.399994 10.98999 L 225.970001 10.98999 L 227.690002 12.709991 L 227.690002 13.279999 L 228.259995 13.850006 L 228.259995 16.709999 L 227.690002 17.279999 L 217.960007 17.279999 L 217.389999 16.709999 Z M 94.970001 17.860001 L 95.540001 18.43 L 95.540001 23.580002 L 92.68 26.440002 L 91.529999 26.440002 L 90.959999 27.009995 L 88.099998 27.009995 L 87.529999 26.440002 L 86.959999 26.440002 L 85.809998 24.720001 L 85.809998 21.290001 L 87.529999 19.57 L 88.099998 19.57 L 88.669998 19 L 89.82 19 L 90.389999 18.43 L 92.68 18.43 L 93.25 17.860001 Z M 175.059998 17.860001 L 175.630005 18.43 L 175.630005 23.580002 L 175.059998 24.149994 L 175.059998 24.720001 L 171.619995 27.009995 L 168.190002 27.009995 L 165.899994 24.720001 L 165.899994 21.860001 L 168.759995 19 L 169.910004 19 L 170.479996 18.43 L 173.339996 18.43 L 173.910004 17.860001 Z"/>
</svg>
