<?xml version="1.0" encoding="UTF-8"?>
<!-- Generated by Pixelmator Pro 3.8 -->
<svg width="250" height="70" viewBox="0 0 250 70" xmlns="http://www.w3.org/2000/svg">
    <g id="Group">
        <path id="Path" fill="#002c77" fill-rule="evenodd" stroke="none" d="M 186.001205 26.701401 L 182.274399 27.040207 L 179.225204 35.171402 L 178.208801 36.865402 L 177.192398 37.542999 L 172.787994 27.040207 L 168.722397 26.701401 L 175.837204 42.963799 L 175.159607 44.319 L 173.126801 46.013 L 169.399994 45.674202 L 169.399994 49.062202 L 170.416397 49.401001 L 174.143204 49.401001 L 177.192398 47.368202 L 179.902802 42.286201 Z M 89.781998 26.701401 L 90.120796 28.395401 L 95.880402 42.963799 L 99.945999 43.302597 L 106.383202 26.701401 L 102.656403 26.701401 L 99.268402 36.187798 L 97.574402 37.881798 L 93.508797 26.701401 Z M 83.683601 26.701401 L 83.683601 43.302597 L 87.4104 42.963799 L 87.071602 26.701401 Z M 235.127197 26.701401 L 235.127197 43.302597 L 238.854004 43.302597 L 238.854004 32.799797 L 239.531601 31.105804 L 241.225601 29.750595 L 243.936005 29.750595 L 245.630005 31.105804 L 245.968796 32.1222 L 245.968796 43.302597 L 249.695602 43.302597 L 249.695602 30.766998 L 248.679199 28.395401 L 247.324005 27.040207 L 245.968796 26.362595 L 242.242004 26.362595 L 240.209198 27.378998 L 239.192795 28.734207 L 238.515198 27.378998 L 238.854004 27.040207 Z M 217.848404 27.717804 L 217.848404 31.105804 L 220.558807 29.750595 L 223.946793 29.411804 L 225.979599 30.089401 L 226.996002 31.105804 L 227.673599 32.799797 L 226.657196 33.477402 L 225.640793 33.138603 L 221.236404 33.138603 L 218.864807 34.154999 L 217.509598 35.510201 L 216.493195 38.220596 L 217.170807 41.269798 L 218.864807 42.963799 L 220.220001 43.641403 L 224.285599 43.641403 L 226.996002 41.947403 L 227.334793 41.269798 L 227.673599 43.302597 L 231.0616 43.302597 L 231.0616 32.460999 L 230.384003 29.750595 L 229.706406 28.734207 L 227.673599 27.040207 L 225.979599 26.362595 L 221.236404 26.362595 Z M 221.236404 36.187798 L 223.269196 35.510201 L 226.318405 35.848999 L 227.673599 36.865402 L 227.334793 38.220596 L 225.979599 40.253403 L 224.624405 40.931 L 221.914001 40.931 L 220.220001 39.575798 L 220.220001 37.204201 Z M 188.372803 26.701401 L 188.372803 43.302597 L 192.099594 43.302597 L 192.099594 32.460999 L 192.777206 31.105804 L 194.471207 29.750595 L 196.842804 29.750595 L 198.875595 31.783401 L 199.214401 33.8162 L 199.214401 43.302597 L 202.602402 43.302597 L 202.602402 33.8162 L 203.279999 31.444595 L 204.973999 29.750595 L 207.684402 29.750595 L 209.378403 31.444595 L 209.717194 32.460999 L 209.717194 43.302597 L 213.444 43.302597 L 213.444 31.105804 L 212.088806 28.056595 L 210.394806 26.701401 L 209.378403 26.362595 L 205.990402 26.362595 L 204.296402 27.040207 L 202.263596 29.411804 L 200.230804 27.040207 L 198.875595 26.362595 L 195.487595 26.362595 L 194.471207 26.701401 L 192.099594 29.072998 L 191.760803 26.701401 Z M 136.875198 26.701401 L 135.181198 26.362595 L 133.487198 26.701401 L 132.132004 27.378998 L 130.438004 29.411804 L 130.099197 26.701401 L 126.372398 26.701401 L 126.372398 43.302597 L 130.099197 43.302597 L 130.099197 34.154999 L 130.438004 32.799797 L 132.470795 30.428207 L 133.487198 30.089401 L 137.214005 30.428207 Z M 110.448799 27.717804 L 108.077202 30.428207 L 107.060799 33.8162 L 107.399597 37.881798 L 108.754799 40.592201 L 111.126404 42.625 L 113.8368 43.641403 L 118.580002 43.641403 L 122.306801 41.947403 L 122.306801 38.559402 L 119.257599 40.253403 L 116.208397 40.592201 L 113.498001 39.914597 L 111.126404 37.542999 L 111.126404 35.848999 L 122.984398 35.848999 L 122.645599 31.444595 L 120.951599 28.395401 L 119.257599 27.040207 L 117.563599 26.362595 L 113.159203 26.362595 Z M 110.787598 33.138603 L 111.804001 30.766998 L 112.820396 29.750595 L 114.514397 29.072998 L 115.869598 29.072998 L 117.563599 29.750595 L 119.257599 32.1222 L 118.9188 33.477402 Z M 138.569199 21.6194 L 145.006393 43.302597 L 148.7332 43.302597 L 153.476395 27.717804 L 154.154007 28.734207 L 157.203201 38.559402 L 157.880798 41.947403 L 158.558395 43.302597 L 162.285202 43.302597 L 168.722397 21.6194 L 164.995605 21.6194 L 161.268799 34.832603 L 160.252396 37.204201 L 158.897202 33.8162 L 158.219604 30.428207 L 155.509201 21.958206 L 151.782394 21.958206 L 150.4272 27.040207 L 149.072006 30.428207 L 148.394394 33.8162 L 147.0392 37.204201 L 142.296005 21.6194 Z M 75.552399 21.6194 L 75.552399 43.302597 L 79.279198 43.302597 L 79.279198 21.6194 Z M 57.934799 21.280594 L 53.530399 23.652206 L 51.158798 26.701401 L 49.8036 30.766998 L 50.142399 35.848999 L 51.836399 39.237 L 54.546799 41.947403 L 58.6124 43.641403 L 63.694401 43.641403 L 67.421204 41.947403 L 70.131599 39.237 L 71.148003 37.542999 L 72.164398 34.154999 L 71.8256 29.072998 L 70.470398 26.023804 L 67.082397 22.635803 L 65.049599 21.6194 L 62.339199 20.941803 Z M 59.290001 24.668594 L 62.678001 24.668594 L 65.388397 26.023804 L 67.082397 28.056595 L 68.098801 30.766998 L 68.098801 33.8162 L 67.421204 36.187798 L 64.7108 39.237 L 62.000401 40.253403 L 59.967602 40.253403 L 57.257198 39.237 L 55.2244 37.204201 L 53.869202 33.8162 L 53.869202 31.105804 L 54.885601 28.056595 L 56.579601 26.023804 Z M 85.038803 20.264206 L 83.344803 21.280594 L 83.005997 23.3134 L 84.0224 24.668594 L 86.055199 25.007401 L 87.4104 23.990997 L 87.749199 21.958206 L 86.732803 20.602997 Z M 0 26.362595 L 0 38.220596 L 0.3388 38.898201 L 10.164 44.657799 L 11.1804 44.657799 L 28.798 34.154999 L 31.8472 33.138603 L 22.3608 40.592201 L 29.136801 44.657799 L 30.1532 44.657799 L 39.639599 39.237 L 40.3172 38.220596 L 40.3172 26.362595 L 38.962002 25.007401 L 30.830799 20.264206 L 28.798 20.264206 L 10.5028 31.105804 L 8.47 31.444595 L 17.9564 23.990997 L 11.5192 20.264206 L 9.4864 20.264206 L 1.3552 25.007401 Z"/>
    </g>
</svg>
