<?xml version="1.0" encoding="UTF-8"?>
<svg xmlns="http://www.w3.org/2000/svg" viewBox="0 0 250 250" role="img" aria-label="Oliver Wyman logo">
<title>Oliver Wyman</title>
<g transform="translate(0 110.2642) scale(0.3388)">
<path fill="#002c77" fill-rule="evenodd" d="M549 19L538 20L529 44L526 49L523 51L510 20L498 19L519 67L517 71L511 76L500 75L500 85L503 86L514 86L523 80L531 65ZM265 19L266 24L283 67L295 68L314 19L303 19L293 47L288 52L276 19ZM247 19L247 68L258 67L257 19ZM694 19L694 68L705 68L705 37L707 32L712 28L720 28L725 32L726 35L726 68L737 68L737 31L734 24L730 20L726 18L715 18L709 21L706 25L704 21L705 20ZM643 22L643 32L651 28L661 27L667 29L670 32L672 37L669 39L666 38L653 38L646 41L642 45L639 53L641 62L646 67L650 69L662 69L670 64L671 62L672 68L682 68L682 36L680 28L678 25L672 20L667 18L653 18ZM653 47L659 45L668 46L672 49L671 53L667 59L663 61L655 61L650 57L650 50ZM556 19L556 68L567 68L567 36L569 32L574 28L581 28L587 34L588 40L588 68L598 68L598 40L600 33L605 28L613 28L618 33L619 36L619 68L630 68L630 32L626 23L621 19L618 18L608 18L603 20L597 27L591 20L587 18L577 18L574 19L567 26L566 19ZM404 19L399 18L394 19L390 21L385 27L384 19L373 19L373 68L384 68L384 41L385 37L391 30L394 29L405 30ZM326 22L319 30L316 40L317 52L321 60L328 66L336 69L350 69L361 64L361 54L352 59L343 60L335 58L328 51L328 46L363 46L362 33L357 24L352 20L347 18L334 18ZM327 38L330 31L333 28L338 26L342 26L347 28L352 35L351 39ZM409 4L428 68L439 68L453 22L455 25L464 54L466 64L468 68L479 68L498 4L487 4L476 43L473 50L469 40L467 30L459 5L448 5L444 20L440 30L438 40L434 50L420 4ZM223 4L223 68L234 68L234 4ZM171 3L158 10L151 19L147 31L148 46L153 56L161 64L173 69L188 69L199 64L207 56L210 51L213 41L212 26L208 17L198 7L192 4L184 2ZM175 13L185 13L193 17L198 23L201 31L201 40L199 47L191 56L183 59L177 59L169 56L163 50L159 40L159 32L162 23L167 17ZM251 0L246 3L245 9L248 13L254 14L258 11L259 5L256 1ZM0 18L0 53L1 55L30 72L33 72L85 41L94 38L66 60L86 72L89 72L117 56L119 53L119 18L115 14L91 0L85 0L31 32L25 33L53 11L34 0L28 0L4 14Z"/>
</g>
</svg>
