<?xml version="1.0" encoding="UTF-8"?>
<!-- Generated by Pixelmator Pro 3.8 -->
<svg width="250" height="30" viewBox="0 0 250 30" xmlns="http://www.w3.org/2000/svg">
    <g id="Group">
        <path id="Path" fill="#002c77" fill-rule="evenodd" stroke="none" d="M 186.001205 6.701401 L 182.274399 7.040207 L 179.225204 15.171402 L 178.208801 16.865402 L 177.192398 17.542999 L 172.787994 7.040207 L 168.722397 6.701401 L 175.837204 22.963799 L 175.159607 24.319 L 173.126801 26.013 L 169.399994 25.674202 L 169.399994 29.062202 L 170.416397 29.401001 L 174.143204 29.401001 L 177.192398 27.368202 L 179.902802 22.286201 Z M 89.781998 6.701401 L 90.120796 8.395401 L 95.880402 22.963799 L 99.945999 23.302597 L 106.383202 6.701401 L 102.656403 6.701401 L 99.268402 16.187798 L 97.574402 17.881798 L 93.508797 6.701401 Z M 83.683601 6.701401 L 83.683601 23.302597 L 87.4104 22.963799 L 87.071602 6.701401 Z M 235.127197 6.701401 L 235.127197 23.302597 L 238.854004 23.302597 L 238.854004 12.799797 L 239.531601 11.105804 L 241.225601 9.750595 L 243.936005 9.750595 L 245.630005 11.105804 L 245.968796 12.1222 L 245.968796 23.302597 L 249.695602 23.302597 L 249.695602 10.766998 L 248.679199 8.395401 L 247.324005 7.040207 L 245.968796 6.362595 L 242.242004 6.362595 L 240.209198 7.378998 L 239.192795 8.734207 L 238.515198 7.378998 L 238.854004 7.040207 Z M 217.848404 7.717804 L 217.848404 11.105804 L 220.558807 9.750595 L 223.946793 9.411804 L 225.979599 10.089401 L 226.996002 11.105804 L 227.673599 12.799797 L 226.657196 13.477402 L 225.640793 13.138603 L 221.236404 13.138603 L 218.864807 14.154999 L 217.509598 15.510201 L 216.493195 18.220596 L 217.170807 21.269798 L 218.864807 22.963799 L 220.220001 23.641403 L 224.285599 23.641403 L 226.996002 21.947403 L 227.334793 21.269798 L 227.673599 23.302597 L 231.0616 23.302597 L 231.0616 12.460999 L 230.384003 9.750595 L 229.706406 8.734207 L 227.673599 7.040207 L 225.979599 6.362595 L 221.236404 6.362595 Z M 221.236404 16.187798 L 223.269196 15.510201 L 226.318405 15.848999 L 227.673599 16.865402 L 227.334793 18.220596 L 225.979599 20.253403 L 224.624405 20.931 L 221.914001 20.931 L 220.220001 19.575798 L 220.220001 17.204201 Z M 188.372803 6.701401 L 188.372803 23.302597 L 192.099594 23.302597 L 192.099594 12.460999 L 192.777206 11.105804 L 194.471207 9.750595 L 196.842804 9.750595 L 198.875595 11.783401 L 199.214401 13.8162 L 199.214401 23.302597 L 202.602402 23.302597 L 202.602402 13.8162 L 203.279999 11.444595 L 204.973999 9.750595 L 207.684402 9.750595 L 209.378403 11.444595 L 209.717194 12.460999 L 209.717194 23.302597 L 213.444 23.302597 L 213.444 11.105804 L 212.088806 8.056595 L 210.394806 6.701401 L 209.378403 6.362595 L 205.990402 6.362595 L 204.296402 7.040207 L 202.263596 9.411804 L 200.230804 7.040207 L 198.875595 6.362595 L 195.487595 6.362595 L 194.471207 6.701401 L 192.099594 9.072998 L 191.760803 6.701401 Z M 136.875198 6.701401 L 135.181198 6.362595 L 133.487198 6.701401 L 132.132004 7.378998 L 130.438004 9.411804 L 130.099197 6.701401 L 126.372398 6.701401 L 126.372398 23.302597 L 130.099197 23.302597 L 130.099197 14.154999 L 130.438004 12.799797 L 132.470795 10.428207 L 133.487198 10.089401 L 137.214005 10.428207 Z M 110.448799 7.717804 L 108.077202 10.428207 L 107.060799 13.8162 L 107.399597 17.881798 L 108.754799 20.592201 L 111.126404 22.625 L 113.8368 23.641403 L 118.580002 23.641403 L 122.306801 21.947403 L 122.306801 18.559402 L 119.257599 20.253403 L 116.208397 20.592201 L 113.498001 19.914597 L 111.126404 17.542999 L 111.126404 15.848999 L 122.984398 15.848999 L 122.645599 11.444595 L 120.951599 8.395401 L 119.257599 7.040207 L 117.563599 6.362595 L 113.159203 6.362595 Z M 110.787598 13.138603 L 111.804001 10.766998 L 112.820396 9.750595 L 114.514397 9.072998 L 115.869598 9.072998 L 117.563599 9.750595 L 119.257599 12.1222 L 118.9188 13.477402 Z M 138.569199 1.6194 L 145.006393 23.302597 L 148.7332 23.302597 L 153.476395 7.717804 L 154.154007 8.734207 L 157.203201 18.559402 L 157.880798 21.947403 L 158.558395 23.302597 L 162.285202 23.302597 L 168.722397 1.6194 L 164.995605 1.6194 L 161.268799 14.832603 L 160.252396 17.204201 L 158.897202 13.8162 L 158.219604 10.428207 L 155.509201 1.958206 L 151.782394 1.958206 L 150.4272 7.040207 L 149.072006 10.428207 L 148.394394 13.8162 L 147.0392 17.204201 L 142.296005 1.6194 Z M 75.552399 1.6194 L 75.552399 23.302597 L 79.279198 23.302597 L 79.279198 1.6194 Z M 57.934799 1.280594 L 53.530399 3.652206 L 51.158798 6.701401 L 49.8036 10.766998 L 50.142399 15.848999 L 51.836399 19.237 L 54.546799 21.947403 L 58.6124 23.641403 L 63.694401 23.641403 L 67.421204 21.947403 L 70.131599 19.237 L 71.148003 17.542999 L 72.164398 14.154999 L 71.8256 9.072998 L 70.470398 6.023804 L 67.082397 2.635803 L 65.049599 1.6194 L 62.339199 0.941803 Z M 59.290001 4.668594 L 62.678001 4.668594 L 65.388397 6.023804 L 67.082397 8.056595 L 68.098801 10.766998 L 68.098801 13.8162 L 67.421204 16.187798 L 64.7108 19.237 L 62.000401 20.253403 L 59.967602 20.253403 L 57.257198 19.237 L 55.2244 17.204201 L 53.869202 13.8162 L 53.869202 11.105804 L 54.885601 8.056595 L 56.579601 6.023804 Z M 85.038803 0.264206 L 83.344803 1.280594 L 83.005997 3.3134 L 84.0224 4.668594 L 86.055199 5.007401 L 87.4104 3.990997 L 87.749199 1.958206 L 86.732803 0.602997 Z M 0 6.362595 L 0 18.220596 L 0.3388 18.898201 L 10.164 24.657799 L 11.1804 24.657799 L 28.798 14.154999 L 31.8472 13.138603 L 22.3608 20.592201 L 29.136801 24.657799 L 30.1532 24.657799 L 39.639599 19.237 L 40.3172 18.220596 L 40.3172 6.362595 L 38.962002 5.007401 L 30.830799 0.264206 L 28.798 0.264206 L 10.5028 11.105804 L 8.47 11.444595 L 17.9564 3.990997 L 11.5192 0.264206 L 9.4864 0.264206 L 1.3552 5.007401 Z"/>
    </g>
</svg>
