<?xml version="1.0" encoding="UTF-8"?>
<!-- Generated by Pixelmator Pro 3.8 -->
<svg width="250" height="32" viewBox="0 0 250 32" xmlns="http://www.w3.org/2000/svg">
    <path id="Path" fill="#002f54" fill-rule="evenodd" stroke="none" d="M 159.432007 7.653 L 156.927994 12.661011 L 156.927994 14.331001 L 156.511002 14.748001 L 156.511002 17.251999 L 156.927994 17.668999 L 156.927994 19.339005 L 157.345993 19.755997 L 157.345993 20.591003 L 158.598007 23.095001 L 159.432007 23.929993 L 159.432007 24.347 L 162.770996 27.268997 L 167.779999 29.772995 L 169.031998 29.772995 L 169.449005 30.190002 L 170.701004 30.190002 L 171.119003 30.608002 L 173.205002 30.608002 L 173.623001 31.024994 L 179.466003 31.024994 L 179.882996 30.608002 L 181.970001 30.608002 L 182.386993 30.190002 L 184.057007 30.190002 L 184.473999 29.772995 L 186.561005 29.356003 L 188.647995 28.104004 L 189.065002 27.268997 L 189.065002 26.016998 L 187.395996 26.850998 L 186.561005 26.850998 L 185.309006 27.686005 L 183.639008 27.686005 L 183.222 28.104004 L 181.552994 28.104004 L 181.134995 28.520996 L 176.126999 28.520996 L 175.710007 28.104004 L 173.623001 28.104004 L 173.205002 27.686005 L 171.953003 27.686005 L 168.613998 26.016998 L 165.692993 23.513 L 165.692993 23.095001 L 164.440994 21.843002 L 163.606003 20.173996 L 163.606003 19.339005 L 163.188995 18.921997 L 163.188995 17.668999 L 162.770996 17.251999 L 162.770996 12.244003 L 163.188995 11.825989 L 163.188995 10.992004 L 164.440994 8.487 L 165.692993 7.235001 L 165.692993 6.817993 L 166.528 6.401001 L 167.779999 5.149002 L 170.283997 3.895996 L 171.119003 3.895996 L 171.535995 3.479004 L 172.787994 3.479004 L 173.205002 3.061996 L 179.882996 3.061996 L 180.300995 3.479004 L 181.970001 3.479004 L 182.386993 3.895996 L 183.222 3.895996 L 185.725998 5.149002 L 186.143997 5.56601 L 186.143997 8.487 L 188.229996 8.487 L 188.229996 6.401001 L 188.647995 5.983002 L 188.647995 4.313995 L 189.065002 3.895996 L 189.065002 2.643997 L 188.647995 2.22699 L 187.395996 2.22699 L 186.977997 1.809998 L 184.057007 1.809998 L 183.639008 1.391998 L 181.134995 1.391998 L 180.718002 0.975006 L 173.623001 0.975006 L 173.205002 1.391998 L 171.119003 1.391998 L 170.701004 1.809998 L 169.031998 1.809998 L 168.613998 2.22699 L 166.528 2.643997 L 164.022995 3.895996 L 163.188995 4.731003 L 161.518997 5.56601 Z M 217.863007 4.731003 L 214.106995 8.487 L 212.854996 10.992004 L 212.854996 11.825989 L 212.436996 12.244003 L 212.436996 13.913002 L 212.020004 14.331001 L 212.020004 17.251999 L 212.436996 17.668999 L 212.436996 20.173996 L 213.272003 21.425995 L 213.272003 22.259995 L 214.106995 23.929993 L 214.942001 24.764999 L 214.942001 25.182007 L 217.028 27.268997 L 217.445999 27.268997 L 218.279999 28.104004 L 221.619003 29.772995 L 222.453995 29.772995 L 222.871002 30.190002 L 224.123993 30.190002 L 224.541 30.608002 L 227.044998 30.608002 L 227.462006 31.024994 L 232.888 31.024994 L 233.306 30.608002 L 235.391998 30.608002 L 235.809998 30.190002 L 237.061996 30.190002 L 237.479004 29.772995 L 239.565994 29.356003 L 242.070007 28.104004 L 244.156998 26.434006 L 244.574005 26.434006 L 247.078003 23.929993 L 247.078003 23.513 L 248.748001 21.425995 L 248.748001 20.591003 L 250 18.086998 L 250 12.661011 L 249.582993 12.244003 L 249.582993 10.992004 L 247.912994 7.653 L 244.992004 4.731003 L 244.574005 4.731003 L 243.740005 3.895996 L 241.235001 2.643997 L 240.401001 2.643997 L 238.731003 1.809998 L 237.479004 1.809998 L 237.061996 1.391998 L 235.391998 1.391998 L 234.975006 0.975006 L 228.714996 0.975006 L 228.296997 1.391998 L 225.792999 1.391998 L 225.376007 1.809998 L 224.123993 1.809998 L 223.705994 2.22699 L 221.619003 2.643997 L 219.115005 3.895996 L 218.279999 4.731003 Z M 0 1.391998 L 0 3.061996 L 2.504 3.061996 L 2.922 3.479004 L 3.756 3.479004 L 4.591 4.731003 L 4.591 27.268997 L 3.756 28.104004 L 2.087 28.938004 L 0 28.938004 L 0 30.190002 L 6.678 30.190002 L 7.095 29.772995 L 7.93 30.190002 L 14.608 30.190002 L 14.608 28.938004 L 12.938 28.938004 L 12.521 28.520996 L 11.686 28.520996 L 10.851 28.104004 L 10.017 26.850998 L 10.017 4.313995 L 10.434 3.895996 L 12.104 3.895996 L 12.521 3.479004 L 17.528999 3.479004 L 17.947001 3.895996 L 18.781 3.895996 L 20.451 4.731003 L 21.702999 5.983002 L 22.538 7.653 L 22.538 10.992004 L 21.702999 12.661011 L 20.451 13.913002 L 17.947001 15.165001 L 13.356 15.165001 L 12.938 14.748001 L 12.521 15.165001 L 12.521 16 L 12.938 16.834999 L 15.025 16.834999 L 15.442 17.251999 L 18.364 17.251999 L 18.781 16.834999 L 20.868 16.834999 L 21.285 16.417 L 22.120001 16.417 L 24.624001 15.165001 L 25.875999 13.913002 L 26.294001 13.913002 L 26.294001 13.496002 L 27.546 12.244003 L 28.381001 10.574005 L 28.381001 8.487 L 28.798 8.070007 L 28.381001 7.653 L 28.381001 5.983002 L 27.962999 5.149002 L 25.875999 3.061996 L 25.042 2.643997 L 24.207001 2.643997 L 23.790001 2.22699 L 22.955 2.22699 L 22.538 1.809998 L 19.615999 1.809998 L 19.198999 1.391998 L 13.773 1.391998 L 13.356 1.809998 L 2.504 1.809998 L 2.087 1.391998 Z M 50.917999 1.391998 L 50.917999 3.061996 L 53.84 3.061996 L 55.508999 3.895996 L 55.508999 6.401001 L 55.926998 6.817993 L 55.926998 25.182007 L 55.508999 25.598999 L 55.508999 27.686005 L 53.005001 28.938004 L 50.917999 28.938004 L 50.917999 30.190002 L 57.596001 30.190002 L 58.013 29.772995 L 58.848 29.772995 L 59.264999 30.190002 L 65.943001 30.190002 L 65.943001 28.938004 L 63.855999 28.938004 L 63.438999 28.520996 L 62.604 28.520996 L 61.352001 27.268997 L 61.352001 4.731003 L 61.77 3.895996 L 63.021999 3.061996 L 65.943001 3.061996 L 65.943001 1.391998 L 63.855999 1.391998 L 63.438999 1.809998 L 53.84 1.809998 L 53.422001 1.391998 Z M 89.316002 1.391998 L 89.316002 3.061996 L 92.237 3.061996 L 93.906998 4.313995 L 93.906998 27.268997 L 92.653999 28.520996 L 91.82 28.520996 L 91.402 28.938004 L 89.316002 28.938004 L 89.316002 30.190002 L 94.740997 30.190002 L 95.158997 29.772995 L 95.992996 30.190002 L 101.418999 30.190002 L 101.418999 29.356003 L 101.001999 28.938004 L 99.332001 28.938004 L 96.828003 27.686005 L 96.828003 9.73999 L 97.245003 9.321991 L 98.080002 10.156998 L 98.080002 10.574005 L 101.418999 15.165001 L 101.835999 16.417 L 103.505997 18.503998 L 103.922997 19.755997 L 104.758003 20.591003 L 105.175003 21.843002 L 106.010002 22.677994 L 106.427002 23.929993 L 107.262001 24.764999 L 107.679001 26.016998 L 108.514 26.850998 L 110.183998 30.608002 L 110.600998 31.024994 L 111.852997 31.024994 L 115.609001 23.513 L 116.444 22.677994 L 117.695999 20.173996 L 118.530998 19.339005 L 118.947998 18.086998 L 122.287003 13.496002 L 122.705002 12.244003 L 123.957001 10.992004 L 123.957001 10.574005 L 125.209 8.904999 L 125.625999 9.321991 L 125.625999 27.268997 L 124.374001 28.520996 L 123.539001 28.520996 L 123.122002 28.938004 L 121.035004 28.938004 L 121.035004 30.190002 L 127.712997 30.190002 L 128.130005 29.772995 L 128.964996 29.772995 L 129.382004 30.190002 L 136.059998 30.190002 L 136.059998 29.356003 L 135.643005 28.938004 L 133.973007 28.938004 L 131.468994 27.686005 L 131.468994 3.895996 L 133.139008 3.061996 L 135.643005 3.061996 L 136.059998 2.643997 L 136.059998 1.809998 L 135.643005 1.391998 L 134.391006 1.391998 L 133.973007 1.809998 L 127.712997 1.809998 L 127.294998 1.391998 L 126.042999 1.391998 L 125.625999 2.643997 L 124.791 3.479004 L 123.957001 5.56601 L 123.122002 6.401001 L 122.287003 8.487 L 121.452003 9.321991 L 119.782997 12.661011 L 118.113998 14.748001 L 116.444 18.086998 L 115.609001 18.921997 L 114.357002 21.425995 L 112.688004 23.513 L 111.852997 22.677994 L 110.183998 19.339005 L 108.514 17.251999 L 108.097 16 L 106.427002 13.913002 L 106.010002 12.661011 L 105.175003 11.825989 L 104.758003 10.574005 L 103.922997 9.73999 L 103.505997 8.487 L 102.670998 7.653 L 101.835999 5.56601 L 101.001999 4.731003 L 99.332001 1.391998 L 98.497002 1.391998 L 98.080002 1.809998 L 91.402 1.809998 L 90.985001 1.391998 Z M 222.453995 5.149002 L 224.957993 3.895996 L 225.792999 3.895996 L 226.210007 3.479004 L 227.462006 3.479004 L 227.880005 3.061996 L 233.306 3.061996 L 233.723007 3.479004 L 234.975006 3.479004 L 236.227005 4.313995 L 237.061996 4.313995 L 237.895996 5.149002 L 239.149002 5.56601 L 241.235001 7.653 L 241.235001 8.070007 L 242.070007 8.904999 L 243.322006 11.408997 L 243.322006 12.661011 L 243.740005 13.078003 L 243.740005 14.748001 L 244.156998 15.165001 L 244.156998 18.086998 L 243.740005 18.503998 L 243.740005 20.173996 L 243.322006 20.591003 L 242.904999 22.677994 L 242.070007 23.513 L 242.070007 23.929993 L 238.731003 27.268997 L 236.227005 28.520996 L 234.557999 28.520996 L 234.139999 28.938004 L 229.132004 28.938004 L 228.714996 28.520996 L 227.462006 28.520996 L 227.044998 28.104004 L 226.210007 28.104004 L 224.541 27.268997 L 223.289001 26.016998 L 222.871002 26.016998 L 220.367004 23.095001 L 219.115005 20.591003 L 219.115005 19.755997 L 218.697998 19.339005 L 218.697998 18.086998 L 218.279999 17.668999 L 218.279999 11.408997 L 218.697998 10.992004 L 218.697998 10.156998 L 219.949997 7.653 Z"/>
</svg>
