<?xml version="1.0" encoding="UTF-8"?>
<svg xmlns="http://www.w3.org/2000/svg" viewBox="0 0 250 250" role="img" aria-label="PIMCO logo">
  <title>PIMCO</title>
  <path fill="#002F54" fill-rule="evenodd" d="M159.432 116.653L156.928 121.661L156.928 123.331L156.511 123.748L156.511 126.252L156.928 126.669L156.928 128.339L157.346 128.756L157.346 129.591L158.598 132.095L159.432 132.93L159.432 133.347L162.771 136.269L167.78 138.773L169.032 138.773L169.449 139.19L170.701 139.19L171.119 139.608L173.205 139.608L173.623 140.025L179.466 140.025L179.883 139.608L181.97 139.608L182.387 139.19L184.057 139.19L184.474 138.773L186.561 138.356L188.648 137.104L189.065 136.269L189.065 135.017L187.396 135.851L186.561 135.851L185.309 136.686L183.639 136.686L183.222 137.104L181.553 137.104L181.135 137.521L176.127 137.521L175.71 137.104L173.623 137.104L173.205 136.686L171.953 136.686L168.614 135.017L165.693 132.513L165.693 132.095L164.441 130.843L163.606 129.174L163.606 128.339L163.189 127.922L163.189 126.669L162.771 126.252L162.771 121.244L163.189 120.826L163.189 119.992L164.441 117.487L165.693 116.235L165.693 115.818L166.528 115.401L167.78 114.149L170.284 112.896L171.119 112.896L171.536 112.479L172.788 112.479L173.205 112.062L179.883 112.062L180.301 112.479L181.97 112.479L182.387 112.896L183.222 112.896L185.726 114.149L186.144 114.566L186.144 117.487L188.23 117.487L188.23 115.401L188.648 114.983L188.648 113.314L189.065 112.896L189.065 111.644L188.648 111.227L187.396 111.227L186.978 110.81L184.057 110.81L183.639 110.392L181.135 110.392L180.718 109.975L173.623 109.975L173.205 110.392L171.119 110.392L170.701 110.81L169.032 110.81L168.614 111.227L166.528 111.644L164.023 112.896L163.189 113.731L161.519 114.566ZM217.863 113.731L214.107 117.487L212.855 119.992L212.855 120.826L212.437 121.244L212.437 122.913L212.02 123.331L212.02 126.252L212.437 126.669L212.437 129.174L213.272 130.426L213.272 131.26L214.107 132.93L214.942 133.765L214.942 134.182L217.028 136.269L217.446 136.269L218.28 137.104L221.619 138.773L222.454 138.773L222.871 139.19L224.124 139.19L224.541 139.608L227.045 139.608L227.462 140.025L232.888 140.025L233.306 139.608L235.392 139.608L235.81 139.19L237.062 139.19L237.479 138.773L239.566 138.356L242.07 137.104L244.157 135.434L244.574 135.434L247.078 132.93L247.078 132.513L248.748 130.426L248.748 129.591L250 127.087L250 121.661L249.583 121.244L249.583 119.992L247.913 116.653L244.992 113.731L244.574 113.731L243.74 112.896L241.235 111.644L240.401 111.644L238.731 110.81L237.479 110.81L237.062 110.392L235.392 110.392L234.975 109.975L228.715 109.975L228.297 110.392L225.793 110.392L225.376 110.81L224.124 110.81L223.706 111.227L221.619 111.644L219.115 112.896L218.28 113.731ZM0 110.392L0 112.062L2.504 112.062L2.922 112.479L3.756 112.479L4.591 113.731L4.591 136.269L3.756 137.104L2.087 137.938L0 137.938L0 139.19L6.678 139.19L7.095 138.773L7.93 139.19L14.608 139.19L14.608 137.938L12.938 137.938L12.521 137.521L11.686 137.521L10.851 137.104L10.017 135.851L10.017 113.314L10.434 112.896L12.104 112.896L12.521 112.479L17.529 112.479L17.947 112.896L18.781 112.896L20.451 113.731L21.703 114.983L22.538 116.653L22.538 119.992L21.703 121.661L20.451 122.913L17.947 124.165L13.356 124.165L12.938 123.748L12.521 124.165L12.521 125L12.938 125.835L15.025 125.835L15.442 126.252L18.364 126.252L18.781 125.835L20.868 125.835L21.285 125.417L22.12 125.417L24.624 124.165L25.876 122.913L26.294 122.913L26.294 122.496L27.546 121.244L28.381 119.574L28.381 117.487L28.798 117.07L28.381 116.653L28.381 114.983L27.963 114.149L25.876 112.062L25.042 111.644L24.207 111.644L23.79 111.227L22.955 111.227L22.538 110.81L19.616 110.81L19.199 110.392L13.773 110.392L13.356 110.81L2.504 110.81L2.087 110.392ZM50.918 110.392L50.918 112.062L53.84 112.062L55.509 112.896L55.509 115.401L55.927 115.818L55.927 134.182L55.509 134.599L55.509 136.686L53.005 137.938L50.918 137.938L50.918 139.19L57.596 139.19L58.013 138.773L58.848 138.773L59.265 139.19L65.943 139.19L65.943 137.938L63.856 137.938L63.439 137.521L62.604 137.521L61.352 136.269L61.352 113.731L61.77 112.896L63.022 112.062L65.943 112.062L65.943 110.392L63.856 110.392L63.439 110.81L53.84 110.81L53.422 110.392ZM89.316 110.392L89.316 112.062L92.237 112.062L93.907 113.314L93.907 136.269L92.654 137.521L91.82 137.521L91.402 137.938L89.316 137.938L89.316 139.19L94.741 139.19L95.159 138.773L95.993 139.19L101.419 139.19L101.419 138.356L101.002 137.938L99.332 137.938L96.828 136.686L96.828 118.74L97.245 118.322L98.08 119.157L98.08 119.574L101.419 124.165L101.836 125.417L103.506 127.504L103.923 128.756L104.758 129.591L105.175 130.843L106.01 131.678L106.427 132.93L107.262 133.765L107.679 135.017L108.514 135.851L110.184 139.608L110.601 140.025L111.853 140.025L115.609 132.513L116.444 131.678L117.696 129.174L118.531 128.339L118.948 127.087L122.287 122.496L122.705 121.244L123.957 119.992L123.957 119.574L125.209 117.905L125.626 118.322L125.626 136.269L124.374 137.521L123.539 137.521L123.122 137.938L121.035 137.938L121.035 139.19L127.713 139.19L128.13 138.773L128.965 138.773L129.382 139.19L136.06 139.19L136.06 138.356L135.643 137.938L133.973 137.938L131.469 136.686L131.469 112.896L133.139 112.062L135.643 112.062L136.06 111.644L136.06 110.81L135.643 110.392L134.391 110.392L133.973 110.81L127.713 110.81L127.295 110.392L126.043 110.392L125.626 111.644L124.791 112.479L123.957 114.566L123.122 115.401L122.287 117.487L121.452 118.322L119.783 121.661L118.114 123.748L116.444 127.087L115.609 127.922L114.357 130.426L112.688 132.513L111.853 131.678L110.184 128.339L108.514 126.252L108.097 125L106.427 122.913L106.01 121.661L105.175 120.826L104.758 119.574L103.923 118.74L103.506 117.487L102.671 116.653L101.836 114.566L101.002 113.731L99.332 110.392L98.497 110.392L98.08 110.81L91.402 110.81L90.985 110.392ZM222.454 114.149L224.958 112.896L225.793 112.896L226.21 112.479L227.462 112.479L227.88 112.062L233.306 112.062L233.723 112.479L234.975 112.479L236.227 113.314L237.062 113.314L237.896 114.149L239.149 114.566L241.235 116.653L241.235 117.07L242.07 117.905L243.322 120.409L243.322 121.661L243.74 122.078L243.74 123.748L244.157 124.165L244.157 127.087L243.74 127.504L243.74 129.174L243.322 129.591L242.905 131.678L242.07 132.513L242.07 132.93L238.731 136.269L236.227 137.521L234.558 137.521L234.14 137.938L229.132 137.938L228.715 137.521L227.462 137.521L227.045 137.104L226.21 137.104L224.541 136.269L223.289 135.017L222.871 135.017L220.367 132.095L219.115 129.591L219.115 128.756L218.698 128.339L218.698 127.087L218.28 126.669L218.28 120.409L218.698 119.992L218.698 119.157L219.95 116.653Z"/>
</svg>
