<?xml version="1.0" encoding="UTF-8"?>
<svg xmlns="http://www.w3.org/2000/svg" viewBox="0 0 250 250" role="img" aria-label="Princeton University logo">
<title>Princeton University</title>
<g transform="translate(-37.2543 16.7248) scale(0.1585)">
<path fill="#231f20" fill-rule="evenodd" d="M1572 730L1572 761L1575 763L1587 743L1594 737L1600 735L1620 736L1620 832L1610 838L1601 838L1601 843L1656 842L1654 838L1645 838L1638 834L1638 735L1656 735L1663 738L1674 749L1679 764L1684 764L1683 729ZM1133 729L1133 734L1143 735L1148 738L1151 762L1149 831L1145 836L1133 838L1133 843L1234 845L1237 842L1237 812L1231 812L1223 829L1209 838L1179 838L1173 836L1167 827L1168 785L1169 823L1170 785L1186 787L1193 794L1194 806L1201 806L1200 759L1195 760L1194 768L1189 774L1181 778L1168 779L1167 739L1169 735L1202 735L1216 746L1221 757L1227 757L1226 730ZM1503 728L1501 734L1513 736L1518 742L1519 827L1516 834L1501 839L1501 843L1553 843L1553 838L1545 838L1539 834L1536 826L1536 742L1539 737L1553 733L1551 728ZM1260 729L1259 734L1271 737L1276 745L1276 829L1271 837L1260 839L1260 843L1309 843L1308 838L1301 838L1293 828L1294 787L1305 787L1313 790L1328 804L1335 824L1336 837L1340 843L1369 843L1368 838L1361 838L1356 834L1346 805L1339 795L1325 786L1339 783L1350 772L1353 764L1353 754L1346 739L1336 731L1321 728ZM1294 735L1314 734L1326 738L1330 742L1335 753L1335 761L1331 770L1322 779L1310 782L1293 781ZM999 729L1000 734L1014 741L1047 819L1056 846L1060 846L1101 746L1109 737L1119 734L1120 730L1118 728L1079 728L1077 730L1078 733L1089 736L1092 740L1092 750L1065 816L1064 814L1063 816L1033 742L1038 734L1049 733L1050 730L1048 728ZM932 728L930 734L942 736L947 744L948 817L945 834L937 838L931 838L929 843L982 842L981 838L970 836L965 828L965 740L971 735L981 734L981 729ZM781 729L782 734L792 737L801 747L801 828L797 834L783 839L783 843L830 842L828 838L815 834L809 827L809 756L886 845L890 844L890 752L895 739L903 734L910 733L909 728L861 729L861 733L878 738L883 750L882 815L881 811L880 813L808 729ZM638 730L639 734L650 736L655 742L656 818L665 834L677 842L695 846L714 845L734 835L740 827L745 813L746 747L750 737L764 734L764 729L716 730L717 734L730 736L737 746L738 804L737 811L729 825L721 831L710 834L687 830L676 820L673 814L671 743L679 735L690 733L690 729ZM1811 728L1769 728L1769 733L1777 734L1782 738L1783 747L1760 793L1735 743L1736 737L1749 733L1749 729L1702 728L1699 730L1700 734L1711 737L1716 742L1747 804L1747 833L1739 838L1731 838L1731 843L1769 843L1778 845L1784 843L1784 839L1774 838L1766 831L1765 798L1791 746L1801 736L1811 733ZM1417 729L1405 735L1399 742L1395 751L1396 769L1402 779L1409 785L1453 801L1460 810L1460 823L1454 833L1447 838L1425 838L1411 828L1400 806L1396 806L1394 808L1395 830L1393 839L1398 842L1405 837L1409 837L1425 845L1449 845L1463 839L1473 827L1476 815L1473 797L1469 791L1458 783L1416 768L1411 763L1408 752L1411 743L1416 738L1425 734L1434 734L1442 737L1451 745L1460 763L1466 763L1466 733L1461 732L1455 737L1447 731L1437 728ZM291 759L308 789L334 824L332 822L411 746L489 823L478 836L506 801L529 763L526 768L412 658L296 768ZM377 611L373 613L377 614ZM448 602L448 613L451 614L449 608L451 605L455 613L459 606L461 608L460 614L463 614L463 602L460 602L456 609L452 602ZM433 602L438 613L440 612L445 602L442 602L440 610L436 604L437 602ZM419 602L419 604L422 602L424 604L423 613L427 613L427 602L430 605L430 602ZM381 602L383 606L381 613L384 614L384 606L392 614L393 602L390 602L392 604L391 610ZM376 602L366 602L368 605L366 613L371 613L369 612L370 608L373 609L373 606L369 606L371 602L376 604ZM390 594L393 594L391 592ZM448 583L448 594L451 594L449 590L451 586L455 594L459 586L459 594L463 594L463 583L459 584L457 589L454 589L452 583ZM438 583L433 594L437 590L444 594ZM419 583L419 585L424 584L423 594L427 594L428 583L431 585L431 583ZM392 583L390 587L396 590L396 594L398 589L391 585L393 583L398 585ZM376 583L375 594L385 595L386 592L384 594L379 593L383 587L380 589L380 583L385 585L385 583ZM360 583L360 585L365 584L364 594L368 594L369 583L372 585L372 583ZM452 564L457 575L459 574L464 564L461 564L462 567L459 572L455 566L456 564ZM439 565L438 573L440 575L448 574L449 567L446 564ZM444 564L447 567L447 572L442 575L440 566ZM421 564L423 567L421 575L425 575L423 573L426 569L432 575L434 564L430 564L432 566L429 570L424 564ZM388 566L393 565L392 575L397 575L395 574L397 564L400 566L400 564ZM375 564L375 575L386 575L386 573L383 575L378 574L379 570L382 571L382 568L378 568L379 564L385 566L384 564ZM359 564L366 575L372 564L368 564L369 568L366 572L364 564ZM1402 552L1400 554L1401 587L1407 587L1411 579L1426 562L1443 559L1445 561L1445 653L1439 659L1426 660L1426 667L1492 667L1492 660L1479 659L1474 654L1475 559L1485 559L1496 564L1507 577L1512 589L1519 588L1518 553ZM1271 552L1271 559L1279 559L1285 562L1288 569L1287 653L1281 659L1271 659L1271 667L1382 667L1383 635L1381 633L1376 633L1369 646L1357 659L1324 659L1317 651L1318 609L1329 610L1339 619L1340 630L1342 632L1349 630L1348 601L1350 583L1342 582L1338 593L1334 597L1324 601L1317 600L1318 559L1343 559L1348 561L1359 571L1367 583L1371 583L1373 581L1372 554L1370 552ZM1809 552L1760 551L1758 553L1759 558L1776 563L1780 575L1779 626L1778 622L1770 616L1713 552L1676 552L1676 558L1686 562L1697 575L1696 650L1689 658L1679 661L1679 667L1727 666L1725 660L1716 658L1706 650L1706 585L1781 669L1786 669L1788 667L1788 580L1791 568L1801 559L1809 558ZM1184 552L1165 562L1149 583L1144 606L1146 630L1157 651L1170 662L1189 669L1218 669L1238 660L1249 647L1249 643L1242 640L1233 651L1215 659L1202 658L1188 651L1179 639L1175 624L1176 591L1187 568L1201 559L1214 559L1222 563L1234 575L1239 590L1244 593L1249 591L1247 575L1249 558L1241 555L1235 561L1227 555L1215 551ZM1126 552L1076 552L1076 558L1091 562L1096 569L1096 625L1030 552L993 553L993 558L1003 562L1014 574L1014 647L1009 656L996 661L996 667L1044 666L1042 660L1031 657L1024 650L1022 640L1025 586L1098 669L1104 669L1106 665L1107 571L1113 562L1126 558ZM968 551L906 553L907 559L919 561L924 570L925 609L924 651L920 657L906 661L906 667L970 667L970 660L959 659L953 647L953 568L956 562L970 558ZM862 558L850 552L835 551L765 553L765 559L770 559L779 564L782 568L783 577L782 653L777 659L767 660L767 667L827 667L826 660L817 659L812 653L813 613L823 615L835 626L842 643L847 666L890 666L889 660L880 659L876 655L868 632L860 619L845 611L861 606L872 592L872 573ZM812 560L828 559L833 561L842 573L842 590L838 597L829 604L813 605L811 603ZM641 552L642 559L652 561L656 567L657 644L654 655L649 659L639 660L639 667L704 667L703 660L694 659L686 652L686 613L718 614L736 607L746 592L744 568L737 559L722 552ZM704 559L711 563L716 572L718 585L715 594L705 604L687 606L685 604L685 560ZM1592 550L1580 552L1565 559L1548 574L1538 592L1535 617L1542 640L1549 651L1558 659L1579 669L1604 670L1627 662L1645 647L1656 624L1657 598L1652 581L1645 570L1637 563L1613 551ZM1594 558L1606 559L1613 563L1623 576L1627 591L1627 620L1623 638L1615 654L1602 662L1589 662L1576 653L1568 635L1566 617L1567 593L1571 579L1584 562ZM245 534L243 554L244 600L252 653L253 651L569 654L569 657L578 597L577 534L535 540L509 538L481 530L464 522L442 507L422 487L411 471L399 488L381 506L363 519L341 530L305 539L270 539ZM484 603L489 604L489 617L482 616L482 605ZM334 603L339 605L338 617L332 616L332 605ZM483 568L490 570L490 580L488 582L482 580ZM333 568L339 569L338 582L332 580ZM479 560L480 632L478 634L435 635L419 633L416 639L405 639L402 633L351 635L342 632L342 561L344 559L349 560L349 624L356 629L364 630L397 625L404 626L409 630L422 625L455 630L471 627L473 625L474 558ZM414 552L427 549L450 553L471 553L470 625L450 627L420 623L413 626L412 555ZM406 551L410 555L410 624L408 626L395 623L372 627L353 625L351 622L353 552L372 553L395 549Z"/>
<path fill="#ff671f" fill-rule="evenodd" d="M411 747L333 822L377 870L410 897L414 896L448 867L477 837L488 822ZM269 709L296 767L410 657L526 767L553 709L569 652L253 652Z"/>
<path fill="#ffffff" fill-rule="evenodd" d="M483 605L483 616L489 616L489 605ZM333 605L333 616L338 616L337 604ZM483 569L484 581L489 580L488 569ZM333 569L334 581L338 581L338 569ZM444 565L441 566L442 574L446 572ZM478 560L474 559L474 625L469 629L457 631L424 626L409 631L399 626L367 631L350 627L348 624L348 560L343 561L344 633L386 634L397 632L403 633L405 638L416 638L419 632L435 634L479 632ZM414 553L413 625L420 622L450 626L470 624L470 553L450 554L427 550ZM459 602L464 603L463 615L459 614ZM447 602L453 602L456 608L458 606L459 608L455 614L451 606L451 615L447 613L449 605ZM446 602L441 610L442 601ZM433 601L438 602L441 612L437 613ZM419 601L430 601L432 604L430 606L427 603L428 613L426 615L422 613L422 603L418 604ZM460 582L464 584L464 594L460 595L458 594L458 584ZM447 583L453 583L456 589L458 586L459 589L455 595L451 587L452 594L447 594ZM439 582L445 594L443 596L439 591L435 595L432 594L436 587L438 589L436 585ZM419 582L432 583L430 586L427 584L428 594L422 594L423 584L418 585ZM465 564L460 572L461 563ZM451 564L457 564L460 574L456 575ZM441 563L446 563L450 567L450 572L446 576L440 576L437 573L437 566ZM420 564L424 563L431 570L429 564L435 564L431 576L424 569L426 575L420 575L422 573ZM406 552L395 550L372 554L353 553L353 624L372 626L402 622L408 625L409 555ZM377 610L377 615L372 613ZM381 601L391 609L389 602L394 603L392 615L384 607L384 615L380 613L382 609ZM377 602L375 605L370 604L370 606L373 605L373 610L370 609L372 613L367 615L365 613L367 611L365 602ZM389 594L391 591L394 594ZM392 582L397 582L397 586L392 585L398 588L399 593L395 594L396 591L389 587ZM376 582L386 583L384 586L380 584L380 588L384 587L382 591L380 590L380 593L386 591L388 593L385 596L374 594ZM360 582L373 583L371 586L368 584L369 594L363 594L364 584L359 585ZM389 563L401 564L399 567L396 565L398 575L391 575L392 565L387 565ZM374 564L384 563L384 567L379 565L379 568L383 568L382 572L379 571L379 574L387 573L386 576L374 575ZM373 564L368 571L367 564ZM358 564L365 564L365 569L368 571L367 575L363 574ZM412 457L406 462L393 483L377 499L358 513L334 524L301 532L273 532L238 524L236 546L237 609L242 647L244 647L253 690L271 738L294 782L327 830L365 871L409 908L426 898L453 875L487 839L516 801L542 757L561 714L570 680L572 679L579 650L581 627L583 626L585 578L587 577L584 524L549 532L521 532L499 528L480 521L447 501L428 482ZM411 470L423 487L442 506L464 521L481 529L517 538L552 538L574 533L578 534L579 597L574 637L560 694L541 742L515 789L489 825L447 870L412 899L386 880L344 838L313 798L288 756L269 714L255 670L247 633L242 582L243 537L245 533L270 538L305 538L341 529L363 518L381 505L398 488Z"/>
</g>
</svg>
