<?xml version="1.0" encoding="UTF-8"?>
<!-- Generated by Pixelmator Pro 3.8 -->
<svg width="250" height="75" viewBox="0 0 250 75" xmlns="http://www.w3.org/2000/svg">
    <g id="Group">
        <path id="Path" fill="#231f20" fill-rule="evenodd" stroke="none" d="M 211.9077 45.429802 L 211.9077 50.3433 L 212.383194 50.660301 L 214.285202 47.490303 L 215.394699 46.539299 L 216.345703 46.222298 L 219.515701 46.380798 L 219.515701 61.596802 L 217.930695 62.547798 L 216.504196 62.547798 L 216.504196 63.340302 L 225.221695 63.181801 L 224.904694 62.547798 L 223.478195 62.547798 L 222.368698 61.913803 L 222.368698 46.222298 L 225.221695 46.222298 L 226.331207 46.6978 L 228.074707 48.441299 L 228.867203 50.818802 L 229.659698 50.818802 L 229.501205 45.271301 Z M 142.326202 45.271301 L 142.326202 46.063797 L 143.911194 46.222298 L 144.703705 46.6978 L 145.179199 50.501801 L 144.862198 61.438301 L 144.228195 62.230797 L 142.326202 62.547798 L 142.326202 63.340302 L 158.334702 63.657303 L 158.810196 63.181801 L 158.810196 58.426804 L 157.859207 58.426804 L 156.591202 61.1213 L 154.372192 62.547798 L 149.617203 62.547798 L 148.666199 62.230797 L 147.715195 60.804298 L 147.873703 54.147301 L 148.032196 60.170303 L 148.190704 54.147301 L 150.7267 54.464302 L 151.836197 55.573799 L 151.994705 57.4758 L 153.104202 57.4758 L 152.945694 50.026299 L 152.153198 50.184799 L 151.994705 51.452797 L 151.202194 52.403801 L 149.934204 53.037804 L 147.873703 53.196297 L 147.715195 46.8563 L 148.032196 46.222298 L 153.262695 46.222298 L 155.481705 47.965797 L 156.2742 49.709297 L 157.225204 49.709297 L 157.066696 45.429802 Z M 200.971207 45.112801 L 200.654205 46.063797 L 202.556198 46.380798 L 203.348694 47.331802 L 203.507202 60.804298 L 203.031693 61.913803 L 200.654205 62.706299 L 200.654205 63.340302 L 208.896194 63.340302 L 208.896194 62.547798 L 207.628204 62.547798 L 206.6772 61.913803 L 206.201706 60.645798 L 206.201706 47.331802 L 206.6772 46.539299 L 208.896194 45.905296 L 208.579193 45.112801 Z M 162.455704 45.271301 L 162.297195 46.063797 L 164.199203 46.539299 L 164.991699 47.807297 L 164.991699 61.1213 L 164.199203 62.389297 L 162.455704 62.706299 L 162.455704 63.340302 L 170.222198 63.340302 L 170.063705 62.547798 L 168.954193 62.547798 L 167.686203 60.962799 L 167.844696 54.464302 L 169.588196 54.464302 L 170.856201 54.939796 L 173.233704 57.158798 L 174.343201 60.328796 L 174.501694 62.389297 L 175.135696 63.340302 L 179.732193 63.340302 L 179.5737 62.547798 L 178.464203 62.547798 L 177.671707 61.913803 L 176.0867 57.317299 L 174.977203 55.7323 L 172.758194 54.305801 L 174.977203 53.830299 L 176.720703 52.0868 L 177.196198 50.818802 L 177.196198 49.233803 L 176.0867 46.8563 L 174.501694 45.588303 L 172.124207 45.112801 Z M 167.844696 46.222298 L 171.014694 46.063797 L 172.916702 46.6978 L 173.550705 47.331802 L 174.343201 49.075302 L 174.343201 50.3433 L 173.709198 51.769798 L 172.2827 53.196297 L 170.380707 53.671799 L 167.686203 53.513298 Z M 121.087196 45.271301 L 121.245697 46.063797 L 123.464699 47.173302 L 128.695206 59.536301 L 130.121704 63.815804 L 130.755707 63.815804 L 137.254196 47.965797 L 138.522202 46.539299 L 140.107193 46.063797 L 140.265701 45.429802 L 139.9487 45.112801 L 133.767197 45.112801 L 133.450195 45.429802 L 133.608704 45.905296 L 135.352203 46.380798 L 135.827698 47.014801 L 135.827698 48.5998 L 131.548203 59.060799 L 131.389694 58.743797 L 131.231201 59.060799 L 126.476196 47.331802 L 127.2687 46.063797 L 129.012207 45.905296 L 129.1707 45.429802 L 128.853699 45.112801 Z M 110.467697 45.112801 L 110.150703 46.063797 L 112.052696 46.380798 L 112.8452 47.648804 L 113.0037 59.219299 L 112.528198 61.913803 L 111.260201 62.547798 L 110.309196 62.547798 L 109.992203 63.340302 L 118.3927 63.181801 L 118.2342 62.547798 L 116.4907 62.230797 L 115.698196 60.962799 L 115.698196 47.014801 L 116.6492 46.222298 L 118.2342 46.063797 L 118.2342 45.271301 Z M 86.534203 45.271301 L 86.692703 46.063797 L 88.277702 46.539299 L 89.704201 48.124298 L 89.704201 60.962799 L 89.070198 61.913803 L 86.851196 62.706299 L 86.851196 63.340302 L 94.300697 63.181801 L 93.983704 62.547798 L 91.923203 61.913803 L 90.972198 60.804298 L 90.972198 49.550797 L 103.176697 63.657303 L 103.810699 63.498802 L 103.810699 48.916801 L 104.603203 46.8563 L 105.871201 46.063797 L 106.980698 45.905296 L 106.822197 45.112801 L 99.214203 45.271301 L 99.214203 45.905296 L 101.908699 46.6978 L 102.701202 48.5998 L 102.542702 58.902298 L 102.384201 58.268303 L 102.2257 58.585297 L 90.813698 45.271301 Z M 63.868698 45.429802 L 64.027199 46.063797 L 65.770699 46.380798 L 66.563202 47.331802 L 66.721703 59.3778 L 68.148201 61.913803 L 70.050201 63.181801 L 72.903198 63.815804 L 75.914703 63.657303 L 79.084702 62.072304 L 80.035698 60.804298 L 80.828201 58.585297 L 80.986702 48.124298 L 81.620697 46.539299 L 83.839699 46.063797 L 83.839699 45.271301 L 76.231697 45.429802 L 76.390198 46.063797 L 78.450699 46.380798 L 79.560204 47.965797 L 79.718697 57.158798 L 79.560204 58.268303 L 78.292198 60.487297 L 77.0242 61.438301 L 75.280701 61.913803 L 71.635201 61.2798 L 69.891701 59.694801 L 69.416199 58.743797 L 69.099197 47.490303 L 70.367203 46.222298 L 72.110703 45.905296 L 72.110703 45.271301 Z M 249.7892 45.112801 L 243.132202 45.112801 L 243.132202 45.905296 L 244.400208 46.063797 L 245.192703 46.6978 L 245.351196 48.124298 L 241.705704 55.415298 L 237.743195 47.490303 L 237.901703 46.539299 L 239.962204 45.905296 L 239.962204 45.271301 L 232.512695 45.112801 L 232.037201 45.429802 L 232.195694 46.063797 L 233.939194 46.539299 L 234.731705 47.331802 L 239.645203 57.158798 L 239.645203 61.755302 L 238.377197 62.547798 L 237.109207 62.547798 L 237.109207 63.340302 L 243.132202 63.340302 L 244.558701 63.657303 L 245.509705 63.340302 L 245.509705 62.706299 L 243.924698 62.547798 L 242.656693 61.438301 L 242.498199 56.207802 L 246.619202 47.965797 L 248.204193 46.380798 L 249.7892 45.905296 Z M 187.340195 45.271301 L 185.438202 46.222298 L 184.487198 47.331802 L 183.853195 48.758301 L 184.011703 51.611298 L 184.962708 53.196297 L 186.072205 54.147301 L 193.046204 56.683296 L 194.155701 58.109802 L 194.155701 60.170303 L 193.204697 61.755302 L 192.0952 62.547798 L 188.6082 62.547798 L 186.389206 60.962799 L 184.645706 57.4758 L 184.011703 57.4758 L 183.694702 57.792801 L 183.853195 61.2798 L 183.536194 62.706299 L 184.328705 63.181801 L 185.438202 62.389297 L 186.072205 62.389297 L 188.6082 63.657303 L 192.412201 63.657303 L 194.631195 62.706299 L 196.216202 60.804298 L 196.691696 58.902298 L 196.216202 56.049301 L 195.582199 55.098297 L 193.838699 53.830299 L 187.181702 51.452797 L 186.389206 50.660301 L 185.913696 48.916801 L 186.389206 47.490303 L 187.181702 46.6978 L 188.6082 46.063797 L 190.034698 46.063797 L 191.302704 46.539299 L 192.729202 47.807297 L 194.155701 50.660301 L 195.106705 50.660301 L 195.106705 45.905296 L 194.314194 45.746803 L 193.363205 46.539299 L 192.0952 45.588303 L 190.510193 45.112801 Z M 8.8692 50.026299 L 11.5637 54.781303 L 15.6847 60.328796 L 15.3677 60.011803 L 27.8892 47.965797 L 40.252201 60.170303 L 38.508701 62.230797 L 42.946701 56.683296 L 46.592201 50.660301 L 46.116699 51.452797 L 28.047701 34.017807 L 9.6617 51.452797 Z M 22.5002 26.568298 L 21.866199 26.8853 L 22.5002 27.043793 Z M 33.7537 25.1418 L 33.7537 26.8853 L 34.229198 27.043793 L 33.912201 26.092804 L 34.229198 25.617294 L 34.863201 26.8853 L 35.4972 25.775803 L 35.814201 26.092804 L 35.655701 27.043793 L 36.131199 27.043793 L 36.131199 25.1418 L 35.655701 25.1418 L 35.021702 26.251297 L 34.387699 25.1418 Z M 31.3762 25.1418 L 32.168701 26.8853 L 32.485699 26.726807 L 33.278198 25.1418 L 32.8027 25.1418 L 32.485699 26.409805 L 31.8517 25.458801 L 32.010201 25.1418 Z M 29.1572 25.1418 L 29.1572 25.458801 L 29.6327 25.1418 L 29.949699 25.458801 L 29.791201 26.8853 L 30.4252 26.8853 L 30.4252 25.1418 L 30.9007 25.617294 L 30.9007 25.1418 Z M 23.134199 25.1418 L 23.4512 25.775803 L 23.134199 26.8853 L 23.609699 27.043793 L 23.609699 25.775803 L 24.877701 27.043793 L 25.0362 25.1418 L 24.560699 25.1418 L 24.877701 25.458801 L 24.7192 26.409805 Z M 22.3417 25.1418 L 20.756701 25.1418 L 21.0737 25.617294 L 20.756701 26.8853 L 21.5492 26.8853 L 21.232201 26.726807 L 21.390699 26.092804 L 21.866199 26.251297 L 21.866199 25.775803 L 21.232201 25.775803 L 21.5492 25.1418 L 22.3417 25.458801 Z M 24.560699 23.873795 L 25.0362 23.873795 L 24.7192 23.556793 Z M 33.7537 22.130295 L 33.7537 23.873795 L 34.229198 23.873795 L 33.912201 23.239807 L 34.229198 22.605804 L 34.863201 23.873795 L 35.4972 22.605804 L 35.4972 23.873795 L 36.131199 23.873795 L 36.131199 22.130295 L 35.4972 22.288803 L 35.180199 23.081299 L 34.7047 23.081299 L 34.387699 22.130295 Z M 32.168701 22.130295 L 31.3762 23.873795 L 32.010201 23.239807 L 33.119701 23.873795 Z M 29.1572 22.130295 L 29.1572 22.447296 L 29.949699 22.288803 L 29.791201 23.873795 L 30.4252 23.873795 L 30.5837 22.130295 L 31.0592 22.447296 L 31.0592 22.130295 Z M 24.877701 22.130295 L 24.560699 22.764297 L 25.5117 23.239807 L 25.5117 23.873795 L 25.828699 23.081299 L 24.7192 22.447296 L 25.0362 22.130295 L 25.828699 22.447296 Z M 22.3417 22.130295 L 22.183201 23.873795 L 23.7682 24.032303 L 23.926701 23.556793 L 23.609699 23.873795 L 22.8172 23.715302 L 23.4512 22.764297 L 22.9757 23.081299 L 22.9757 22.130295 L 23.7682 22.447296 L 23.7682 22.130295 Z M 19.8057 22.130295 L 19.8057 22.447296 L 20.5982 22.288803 L 20.439699 23.873795 L 21.0737 23.873795 L 21.232201 22.130295 L 21.707701 22.447296 L 21.707701 22.130295 Z M 34.387699 19.118805 L 35.180199 20.862305 L 35.4972 20.703796 L 36.2897 19.118805 L 35.814201 19.118805 L 35.972698 19.594299 L 35.4972 20.386795 L 34.863201 19.435806 L 35.021702 19.118805 Z M 32.327202 19.277298 L 32.168701 20.545303 L 32.485699 20.862305 L 33.7537 20.703796 L 33.912201 19.594299 L 33.436699 19.118805 Z M 33.119701 19.118805 L 33.5952 19.594299 L 33.5952 20.386795 L 32.8027 20.862305 L 32.485699 19.435806 Z M 29.474199 19.118805 L 29.791201 19.594299 L 29.474199 20.862305 L 30.1082 20.862305 L 29.791201 20.545303 L 30.266701 19.911301 L 31.217699 20.862305 L 31.5347 19.118805 L 30.9007 19.118805 L 31.217699 19.435806 L 30.742201 20.069794 L 29.949699 19.118805 Z M 24.2437 19.435806 L 25.0362 19.277298 L 24.877701 20.862305 L 25.6702 20.862305 L 25.353201 20.703796 L 25.6702 19.118805 L 26.1457 19.435806 L 26.1457 19.118805 Z M 22.183201 19.118805 L 22.183201 20.862305 L 23.926701 20.862305 L 23.926701 20.545303 L 23.4512 20.862305 L 22.658701 20.703796 L 22.8172 20.069794 L 23.2927 20.228302 L 23.2927 19.752808 L 22.658701 19.752808 L 22.8172 19.118805 L 23.7682 19.435806 L 23.609699 19.118805 Z M 19.6472 19.118805 L 20.756701 20.862305 L 21.707701 19.118805 L 21.0737 19.118805 L 21.232201 19.752808 L 20.756701 20.386795 L 20.439699 19.118805 Z M 184.962708 17.216797 L 184.645706 17.533798 L 184.804199 22.764297 L 185.755203 22.764297 L 186.389206 21.496307 L 188.766693 18.801804 L 191.461197 18.326294 L 191.778198 18.643295 L 191.778198 33.225296 L 190.827194 34.1763 L 188.766693 34.334793 L 188.766693 35.444298 L 199.227707 35.444298 L 199.227707 34.334793 L 197.167206 34.1763 L 196.374695 33.383804 L 196.533203 18.326294 L 198.118195 18.326294 L 199.861694 19.118805 L 201.605194 21.179306 L 202.397705 23.081299 L 203.507202 22.922806 L 203.348694 17.375305 Z M 164.199203 17.216797 L 164.199203 18.326294 L 165.467194 18.326294 L 166.418198 18.801804 L 166.893707 19.911301 L 166.735199 33.225296 L 165.784195 34.1763 L 164.199203 34.1763 L 164.199203 35.444298 L 181.792694 35.444298 L 181.951202 30.372299 L 181.634201 30.055298 L 180.841705 30.055298 L 179.732193 32.115799 L 177.8302 34.1763 L 172.599701 34.1763 L 171.490204 32.908295 L 171.648697 26.251297 L 173.392197 26.409805 L 174.977203 27.836304 L 175.135696 29.579803 L 175.452698 29.896805 L 176.562195 29.579803 L 176.403702 24.983307 L 176.720703 22.130295 L 175.452698 21.971802 L 174.818695 23.715302 L 174.184692 24.349304 L 172.599701 24.983307 L 171.490204 24.824799 L 171.648697 18.326294 L 175.611206 18.326294 L 176.403702 18.643295 L 178.147202 20.228302 L 179.415207 22.130295 L 180.049194 22.130295 L 180.366196 21.813293 L 180.207703 17.533798 L 179.890701 17.216797 Z M 249.472198 17.216797 L 241.705704 17.058304 L 241.388702 17.375305 L 241.547195 18.167801 L 244.241699 18.960297 L 244.875702 20.862305 L 244.717194 28.945801 L 244.558701 28.311798 L 243.290695 27.360794 L 234.256195 17.216797 L 228.391693 17.216797 L 228.391693 18.167801 L 229.9767 18.801804 L 231.7202 20.862305 L 231.561707 32.749802 L 230.452194 34.017807 L 228.867203 34.493301 L 228.867203 35.444298 L 236.475204 35.285797 L 236.158203 34.334793 L 234.731705 34.017807 L 233.146698 32.749802 L 233.146698 22.447296 L 245.034195 35.761299 L 245.826706 35.761299 L 246.143707 35.444298 L 246.143707 21.6548 L 246.619202 19.752808 L 248.204193 18.326294 L 249.472198 18.167801 Z M 150.409698 17.216797 L 147.398193 18.801804 L 144.862198 22.130295 L 144.069702 25.775803 L 144.386703 29.579803 L 146.130203 32.908295 L 148.190704 34.651794 L 151.202194 35.761299 L 155.798706 35.761299 L 158.968704 34.334793 L 160.712204 32.274307 L 160.712204 31.640305 L 159.602707 31.164795 L 158.176193 32.908295 L 155.323196 34.1763 L 153.262695 34.017807 L 151.043701 32.908295 L 149.617203 31.006302 L 148.9832 28.628799 L 149.141693 23.3983 L 150.885193 19.752808 L 153.104202 18.326294 L 155.164703 18.326294 L 156.432693 18.960297 L 158.334702 20.862305 L 159.127197 23.239807 L 159.919693 23.715302 L 160.712204 23.3983 L 160.395203 20.862305 L 160.712204 18.167801 L 159.444199 17.692307 L 158.493195 18.643295 L 157.225204 17.692307 L 155.323196 17.058304 Z M 141.216705 17.216797 L 133.291702 17.216797 L 133.291702 18.167801 L 135.669205 18.801804 L 136.4617 19.911301 L 136.4617 28.787292 L 126.000702 17.216797 L 120.1362 17.375305 L 120.1362 18.167801 L 121.721199 18.801804 L 123.464699 20.703796 L 123.464699 32.274307 L 122.672203 33.700806 L 120.611702 34.493301 L 120.611702 35.444298 L 128.219696 35.285797 L 127.902702 34.334793 L 126.159203 33.859299 L 125.049698 32.749802 L 124.732697 31.164795 L 125.208199 22.605804 L 136.778702 35.761299 L 137.729706 35.761299 L 138.046707 35.127296 L 138.2052 20.228302 L 139.156204 18.801804 L 141.216705 18.167801 Z M 116.173698 17.058304 L 106.346703 17.375305 L 106.505203 18.326294 L 108.407204 18.643295 L 109.199699 20.069794 L 109.3582 26.251297 L 109.199699 32.908295 L 108.565697 33.859299 L 106.346703 34.493301 L 106.346703 35.444298 L 116.4907 35.444298 L 116.4907 34.334793 L 114.7472 34.1763 L 113.796204 32.274307 L 113.796204 19.752808 L 114.271698 18.801804 L 116.4907 18.167801 Z M 99.372704 18.167801 L 97.470703 17.216797 L 95.093201 17.058304 L 83.998199 17.375305 L 83.998199 18.326294 L 84.790703 18.326294 L 86.217201 19.118805 L 86.692703 19.752808 L 86.851196 21.179306 L 86.692703 33.225296 L 85.9002 34.1763 L 84.315201 34.334793 L 84.315201 35.444298 L 93.825203 35.444298 L 93.666702 34.334793 L 92.240196 34.1763 L 91.447701 33.225296 L 91.606201 26.8853 L 93.1912 27.202301 L 95.093201 28.945801 L 96.202698 31.640305 L 96.995201 35.285797 L 103.810699 35.285797 L 103.652199 34.334793 L 102.2257 34.1763 L 101.591698 33.542297 L 100.3237 29.896805 L 99.055702 27.836304 L 96.6782 26.568298 L 99.214203 25.775803 L 100.957703 23.556793 L 100.957703 20.545303 Z M 91.447701 18.484802 L 93.983704 18.326294 L 94.776199 18.643295 L 96.202698 20.545303 L 96.202698 23.239807 L 95.568703 24.349304 L 94.142197 25.458801 L 91.606201 25.617294 L 91.2892 25.300293 Z M 64.3442 17.216797 L 64.502701 18.326294 L 66.0877 18.643295 L 66.721703 19.594299 L 66.880203 31.798798 L 66.404701 33.542297 L 65.612198 34.1763 L 64.027199 34.334793 L 64.027199 35.444298 L 74.329697 35.444298 L 74.171204 34.334793 L 72.744698 34.1763 L 71.4767 33.066803 L 71.4767 26.8853 L 76.548698 27.043793 L 79.401703 25.934296 L 80.986702 23.556793 L 80.669701 19.752808 L 79.560204 18.326294 L 77.182701 17.216797 Z M 74.329697 18.326294 L 75.439201 18.960297 L 76.231697 20.386795 L 76.548698 22.447296 L 76.073196 23.873795 L 74.488197 25.458801 L 71.635201 25.775803 L 71.318199 25.458801 L 71.318199 18.484802 Z M 215.077698 16.899796 L 213.175705 17.216797 L 210.798203 18.326294 L 208.103699 20.703796 L 206.518707 23.556793 L 206.043198 27.519302 L 207.152695 31.164795 L 208.262207 32.908295 L 209.688705 34.1763 L 213.017197 35.761299 L 216.979706 35.9198 L 220.625198 34.651794 L 223.478195 32.274307 L 225.221695 28.628799 L 225.380203 24.507797 L 224.587708 21.813293 L 223.478195 20.069794 L 222.210205 18.960297 L 218.406204 17.058304 Z M 215.394699 18.167801 L 217.296707 18.326294 L 218.406204 18.960297 L 219.991196 21.020798 L 220.625198 23.3983 L 220.625198 27.994797 L 219.991196 30.847794 L 218.723206 33.383804 L 216.662704 34.651794 L 214.602203 34.651794 L 212.541702 33.225296 L 211.273697 30.372299 L 210.956696 27.519302 L 211.115204 23.715302 L 211.749207 21.496307 L 213.809692 18.801804 Z M 1.5782 14.3638 L 1.2612 17.533798 L 1.4197 24.824799 L 2.6877 33.225296 L 2.8462 32.908295 L 52.932201 33.383804 L 52.932201 33.859299 L 54.3587 24.349304 L 54.200199 14.3638 L 47.543201 15.314804 L 43.422199 14.997803 L 38.9842 13.729797 L 36.2897 12.461807 L 32.8027 10.084305 L 29.6327 6.914307 L 27.8892 4.378296 L 25.9872 7.0728 L 23.134199 9.925797 L 20.2812 11.986298 L 16.794201 13.729797 L 11.0882 15.156296 L 5.5407 15.156296 Z M 39.459702 25.300293 L 40.252201 25.458801 L 40.252201 27.519302 L 39.1427 27.360794 L 39.1427 25.617294 Z M 15.6847 25.300293 L 16.4772 25.617294 L 16.318701 27.519302 L 15.3677 27.360794 L 15.3677 25.617294 Z M 39.301201 19.752808 L 40.410702 20.069794 L 40.410702 21.6548 L 40.0937 21.971802 L 39.1427 21.6548 Z M 15.5262 19.752808 L 16.4772 19.911301 L 16.318701 21.971802 L 15.3677 21.6548 Z M 38.667198 18.484802 L 38.825699 29.896805 L 38.508701 30.213806 L 31.693199 30.372299 L 29.1572 30.055298 L 28.6817 31.006302 L 26.9382 31.006302 L 26.4627 30.055298 L 18.3792 30.372299 L 16.9527 29.896805 L 16.9527 18.643295 L 17.269699 18.326294 L 18.062201 18.484802 L 18.062201 28.628799 L 19.1717 29.421295 L 20.439699 29.579803 L 25.6702 28.787292 L 26.779699 28.945801 L 27.572201 29.579803 L 29.6327 28.787292 L 34.863201 29.579803 L 37.3992 29.104294 L 37.716202 28.787292 L 37.874699 18.167801 Z M 28.3647 17.216797 L 30.4252 16.741302 L 34.070702 17.375305 L 37.3992 17.375305 L 37.2407 28.787292 L 34.070702 29.104294 L 29.315701 28.470306 L 28.2062 28.945801 L 28.047701 17.692307 Z M 27.096701 17.058304 L 27.7307 17.692307 L 27.7307 28.628799 L 27.4137 28.945801 L 25.353201 28.470306 L 21.707701 29.104294 L 18.696199 28.787292 L 18.3792 28.311798 L 18.696199 17.216797 L 21.707701 17.375305 L 25.353201 16.741302 Z"/>
        <path id="path1" fill="#ff671f" fill-rule="evenodd" stroke="none" d="M 27.8892 48.124298 L 15.5262 60.011803 L 22.5002 67.619797 L 27.7307 71.8993 L 28.3647 71.740799 L 33.7537 67.144302 L 38.350201 62.389297 L 40.0937 60.011803 Z M 5.3822 42.101303 L 9.6617 51.294296 L 27.7307 33.859299 L 46.116699 51.294296 L 50.396198 42.101303 L 52.932201 33.066803 L 2.8462 33.066803 Z"/>
        <path id="path2" fill="#ffffff" fill-rule="evenodd" stroke="none" d="M 39.301201 25.617294 L 39.301201 27.360794 L 40.252201 27.360794 L 40.252201 25.617294 Z M 15.5262 25.617294 L 15.5262 27.360794 L 16.318701 27.360794 L 16.1602 25.458801 Z M 39.301201 19.911301 L 39.459702 21.813293 L 40.252201 21.6548 L 40.0937 19.911301 Z M 15.5262 19.911301 L 15.6847 21.813293 L 16.318701 21.813293 L 16.318701 19.911301 Z M 33.119701 19.277298 L 32.644199 19.435806 L 32.8027 20.703796 L 33.436699 20.386795 Z M 38.508701 18.484802 L 37.874699 18.326294 L 37.874699 28.787292 L 37.082199 29.421295 L 35.180199 29.738297 L 29.949699 28.945801 L 27.572201 29.738297 L 25.9872 28.945801 L 20.915199 29.738297 L 18.220699 29.104294 L 17.9037 28.628799 L 17.9037 18.484802 L 17.1112 18.643295 L 17.269699 30.055298 L 23.926701 30.213806 L 25.6702 29.896805 L 26.621201 30.055298 L 26.9382 30.847794 L 28.6817 30.847794 L 29.1572 29.896805 L 31.693199 30.213806 L 38.667198 29.896805 Z M 28.3647 17.375305 L 28.2062 28.787292 L 29.315701 28.311798 L 34.070702 28.945801 L 37.2407 28.628799 L 37.2407 17.375305 L 34.070702 17.533798 L 30.4252 16.899796 Z M 35.4972 25.1418 L 36.2897 25.300293 L 36.131199 27.202301 L 35.4972 27.043793 Z M 33.5952 25.1418 L 34.5462 25.1418 L 35.021702 26.092804 L 35.338699 25.775803 L 35.4972 26.092804 L 34.863201 27.043793 L 34.229198 25.775803 L 34.229198 27.202301 L 33.5952 26.8853 L 33.912201 25.617294 Z M 33.436699 25.1418 L 32.644199 26.409805 L 32.8027 24.983307 Z M 31.3762 24.983307 L 32.168701 25.1418 L 32.644199 26.726807 L 32.010201 26.8853 Z M 29.1572 24.983307 L 30.9007 24.983307 L 31.217699 25.458801 L 30.9007 25.775803 L 30.4252 25.300293 L 30.5837 26.8853 L 30.266701 27.202301 L 29.6327 26.8853 L 29.6327 25.300293 L 28.998699 25.458801 Z M 35.655701 21.971802 L 36.2897 22.288803 L 36.2897 23.873795 L 35.655701 24.032303 L 35.338699 23.873795 L 35.338699 22.288803 Z M 33.5952 22.130295 L 34.5462 22.130295 L 35.021702 23.081299 L 35.338699 22.605804 L 35.4972 23.081299 L 34.863201 24.032303 L 34.229198 22.764297 L 34.387699 23.873795 L 33.5952 23.873795 Z M 32.327202 21.971802 L 33.278198 23.873795 L 32.961201 24.190796 L 32.327202 23.3983 L 31.693199 24.032303 L 31.217699 23.873795 L 31.8517 22.764297 L 32.168701 23.081299 L 31.8517 22.447296 Z M 29.1572 21.971802 L 31.217699 22.130295 L 30.9007 22.605804 L 30.4252 22.288803 L 30.5837 23.873795 L 29.6327 23.873795 L 29.791201 22.288803 L 28.998699 22.447296 Z M 36.4482 19.118805 L 35.655701 20.386795 L 35.814201 18.960297 Z M 34.229198 19.118805 L 35.180199 19.118805 L 35.655701 20.703796 L 35.021702 20.862305 Z M 32.644199 18.960297 L 33.436699 18.960297 L 34.070702 19.594299 L 34.070702 20.386795 L 33.436699 21.020798 L 32.485699 21.020798 L 32.010201 20.545303 L 32.010201 19.435806 Z M 29.315701 19.118805 L 29.949699 18.960297 L 31.0592 20.069794 L 30.742201 19.118805 L 31.693199 19.118805 L 31.0592 21.020798 L 29.949699 19.911301 L 30.266701 20.862305 L 29.315701 20.862305 L 29.6327 20.545303 Z M 27.096701 17.216797 L 25.353201 16.899796 L 21.707701 17.533798 L 18.696199 17.375305 L 18.696199 28.628799 L 21.707701 28.945801 L 26.4627 28.311798 L 27.4137 28.787292 L 27.572201 17.692307 Z M 22.5002 26.409805 L 22.5002 27.202301 L 21.707701 26.8853 Z M 23.134199 24.983307 L 24.7192 26.251297 L 24.402201 25.1418 L 25.1947 25.300293 L 24.877701 27.202301 L 23.609699 25.934296 L 23.609699 27.202301 L 22.9757 26.8853 L 23.2927 26.251297 Z M 22.5002 25.1418 L 22.183201 25.617294 L 21.390699 25.458801 L 21.390699 25.775803 L 21.866199 25.617294 L 21.866199 26.409805 L 21.390699 26.251297 L 21.707701 26.8853 L 20.915199 27.202301 L 20.5982 26.8853 L 20.915199 26.568298 L 20.5982 25.1418 Z M 24.402201 23.873795 L 24.7192 23.3983 L 25.1947 23.873795 Z M 24.877701 21.971802 L 25.6702 21.971802 L 25.6702 22.605804 L 24.877701 22.447296 L 25.828699 22.922806 L 25.9872 23.715302 L 25.353201 23.873795 L 25.5117 23.3983 L 24.402201 22.764297 Z M 22.3417 21.971802 L 23.926701 22.130295 L 23.609699 22.605804 L 22.9757 22.288803 L 22.9757 22.922806 L 23.609699 22.764297 L 23.2927 23.3983 L 22.9757 23.239807 L 22.9757 23.715302 L 23.926701 23.3983 L 24.2437 23.715302 L 23.7682 24.190796 L 22.0247 23.873795 Z M 19.8057 21.971802 L 21.866199 22.130295 L 21.5492 22.605804 L 21.0737 22.288803 L 21.232201 23.873795 L 20.2812 23.873795 L 20.439699 22.288803 L 19.6472 22.447296 Z M 24.402201 18.960297 L 26.304199 19.118805 L 25.9872 19.594299 L 25.5117 19.277298 L 25.828699 20.862305 L 24.7192 20.862305 L 24.877701 19.277298 L 24.085199 19.277298 Z M 22.0247 19.118805 L 23.609699 18.960297 L 23.609699 19.594299 L 22.8172 19.277298 L 22.8172 19.752808 L 23.4512 19.752808 L 23.2927 20.386795 L 22.8172 20.228302 L 22.8172 20.703796 L 24.085199 20.545303 L 23.926701 21.020798 L 22.0247 20.862305 Z M 21.866199 19.118805 L 21.0737 20.228302 L 20.915199 19.118805 Z M 19.488701 19.118805 L 20.5982 19.118805 L 20.5982 19.911301 L 21.0737 20.228302 L 20.915199 20.862305 L 20.2812 20.703796 Z M 28.047701 2.159302 L 27.096701 2.951797 L 25.0362 6.280304 L 22.5002 8.816299 L 19.488701 11.035294 L 15.6847 12.778793 L 10.4542 14.046799 L 6.0162 14.046799 L 0.4687 12.778793 L 0.1517 16.265793 L 0.3102 26.251297 L 1.1027 32.274307 L 1.4197 32.274307 L 2.8462 39.089798 L 5.6992 46.6978 L 9.3447 53.671799 L 14.5752 61.2798 L 20.5982 67.778297 L 27.572201 73.642799 L 30.266701 72.0578 L 34.5462 68.4123 L 39.9352 62.706299 L 44.5317 56.683296 L 48.652699 49.709297 L 51.6642 42.893799 L 53.090698 37.504799 L 53.4077 37.346298 L 54.5172 32.749802 L 54.834202 29.104294 L 55.151199 28.945801 L 55.468201 21.337799 L 55.785198 21.179306 L 55.3097 12.778793 L 49.762199 14.046799 L 45.3242 14.046799 L 41.8372 13.412796 L 38.825699 12.303299 L 33.5952 9.133301 L 30.5837 6.121796 Z M 27.8892 4.219803 L 29.791201 6.914307 L 32.8027 9.925797 L 36.2897 12.303299 L 38.9842 13.571304 L 44.690201 14.997803 L 50.237701 14.997803 L 53.724701 14.205307 L 54.3587 14.3638 L 54.5172 24.349304 L 53.724701 30.689301 L 51.505699 39.723801 L 48.494202 47.331802 L 44.373199 54.781303 L 40.252201 60.487297 L 33.5952 67.619797 L 28.047701 72.216301 L 23.926701 69.204803 L 17.269699 62.547798 L 12.3562 56.207802 L 8.3937 49.550797 L 5.3822 42.893799 L 3.1632 35.9198 L 1.8952 30.055298 L 1.1027 21.971802 L 1.2612 14.839294 L 1.5782 14.205307 L 5.5407 14.997803 L 11.0882 14.997803 L 16.794201 13.571304 L 20.2812 11.827805 L 23.134199 9.767303 L 25.828699 7.0728 Z"/>
    </g>
</svg>
