<?xml version="1.0" encoding="UTF-8"?>
<!-- Generated by Pixelmator Pro 3.8 -->
<svg width="250" height="72" viewBox="0 0 250 72" xmlns="http://www.w3.org/2000/svg">
    <g id="Group">
        <path id="Path" fill="#231f20" fill-rule="evenodd" stroke="none" d="M 211.9077 43.429802 L 211.9077 48.3433 L 212.383194 48.660301 L 214.285202 45.490303 L 215.394699 44.539299 L 216.345703 44.222298 L 219.515701 44.380798 L 219.515701 59.596802 L 217.930695 60.547798 L 216.504196 60.547798 L 216.504196 61.340302 L 225.221695 61.181801 L 224.904694 60.547798 L 223.478195 60.547798 L 222.368698 59.913803 L 222.368698 44.222298 L 225.221695 44.222298 L 226.331207 44.6978 L 228.074707 46.441299 L 228.867203 48.818802 L 229.659698 48.818802 L 229.501205 43.271301 Z M 142.326202 43.271301 L 142.326202 44.063797 L 143.911194 44.222298 L 144.703705 44.6978 L 145.179199 48.501801 L 144.862198 59.438301 L 144.228195 60.230797 L 142.326202 60.547798 L 142.326202 61.340302 L 158.334702 61.657303 L 158.810196 61.181801 L 158.810196 56.426804 L 157.859207 56.426804 L 156.591202 59.1213 L 154.372192 60.547798 L 149.617203 60.547798 L 148.666199 60.230797 L 147.715195 58.804298 L 147.873703 52.147301 L 148.032196 58.170303 L 148.190704 52.147301 L 150.7267 52.464302 L 151.836197 53.573799 L 151.994705 55.4758 L 153.104202 55.4758 L 152.945694 48.026299 L 152.153198 48.184799 L 151.994705 49.452797 L 151.202194 50.403801 L 149.934204 51.037804 L 147.873703 51.196297 L 147.715195 44.8563 L 148.032196 44.222298 L 153.262695 44.222298 L 155.481705 45.965797 L 156.2742 47.709297 L 157.225204 47.709297 L 157.066696 43.429802 Z M 200.971207 43.112801 L 200.654205 44.063797 L 202.556198 44.380798 L 203.348694 45.331802 L 203.507202 58.804298 L 203.031693 59.913803 L 200.654205 60.706299 L 200.654205 61.340302 L 208.896194 61.340302 L 208.896194 60.547798 L 207.628204 60.547798 L 206.6772 59.913803 L 206.201706 58.645798 L 206.201706 45.331802 L 206.6772 44.539299 L 208.896194 43.905296 L 208.579193 43.112801 Z M 162.455704 43.271301 L 162.297195 44.063797 L 164.199203 44.539299 L 164.991699 45.807297 L 164.991699 59.1213 L 164.199203 60.389297 L 162.455704 60.706299 L 162.455704 61.340302 L 170.222198 61.340302 L 170.063705 60.547798 L 168.954193 60.547798 L 167.686203 58.962799 L 167.844696 52.464302 L 169.588196 52.464302 L 170.856201 52.939796 L 173.233704 55.158798 L 174.343201 58.328796 L 174.501694 60.389297 L 175.135696 61.340302 L 179.732193 61.340302 L 179.5737 60.547798 L 178.464203 60.547798 L 177.671707 59.913803 L 176.0867 55.317299 L 174.977203 53.7323 L 172.758194 52.305801 L 174.977203 51.830299 L 176.720703 50.0868 L 177.196198 48.818802 L 177.196198 47.233803 L 176.0867 44.8563 L 174.501694 43.588303 L 172.124207 43.112801 Z M 167.844696 44.222298 L 171.014694 44.063797 L 172.916702 44.6978 L 173.550705 45.331802 L 174.343201 47.075302 L 174.343201 48.3433 L 173.709198 49.769798 L 172.2827 51.196297 L 170.380707 51.671799 L 167.686203 51.513298 Z M 121.087196 43.271301 L 121.245697 44.063797 L 123.464699 45.173302 L 128.695206 57.536301 L 130.121704 61.815804 L 130.755707 61.815804 L 137.254196 45.965797 L 138.522202 44.539299 L 140.107193 44.063797 L 140.265701 43.429802 L 139.9487 43.112801 L 133.767197 43.112801 L 133.450195 43.429802 L 133.608704 43.905296 L 135.352203 44.380798 L 135.827698 45.014801 L 135.827698 46.5998 L 131.548203 57.060799 L 131.389694 56.743797 L 131.231201 57.060799 L 126.476196 45.331802 L 127.2687 44.063797 L 129.012207 43.905296 L 129.1707 43.429802 L 128.853699 43.112801 Z M 110.467697 43.112801 L 110.150703 44.063797 L 112.052696 44.380798 L 112.8452 45.648804 L 113.0037 57.219299 L 112.528198 59.913803 L 111.260201 60.547798 L 110.309196 60.547798 L 109.992203 61.340302 L 118.3927 61.181801 L 118.2342 60.547798 L 116.4907 60.230797 L 115.698196 58.962799 L 115.698196 45.014801 L 116.6492 44.222298 L 118.2342 44.063797 L 118.2342 43.271301 Z M 86.534203 43.271301 L 86.692703 44.063797 L 88.277702 44.539299 L 89.704201 46.124298 L 89.704201 58.962799 L 89.070198 59.913803 L 86.851196 60.706299 L 86.851196 61.340302 L 94.300697 61.181801 L 93.983704 60.547798 L 91.923203 59.913803 L 90.972198 58.804298 L 90.972198 47.550797 L 103.176697 61.657303 L 103.810699 61.498802 L 103.810699 46.916801 L 104.603203 44.8563 L 105.871201 44.063797 L 106.980698 43.905296 L 106.822197 43.112801 L 99.214203 43.271301 L 99.214203 43.905296 L 101.908699 44.6978 L 102.701202 46.5998 L 102.542702 56.902298 L 102.384201 56.268303 L 102.2257 56.585297 L 90.813698 43.271301 Z M 63.868698 43.429802 L 64.027199 44.063797 L 65.770699 44.380798 L 66.563202 45.331802 L 66.721703 57.3778 L 68.148201 59.913803 L 70.050201 61.181801 L 72.903198 61.815804 L 75.914703 61.657303 L 79.084702 60.072304 L 80.035698 58.804298 L 80.828201 56.585297 L 80.986702 46.124298 L 81.620697 44.539299 L 83.839699 44.063797 L 83.839699 43.271301 L 76.231697 43.429802 L 76.390198 44.063797 L 78.450699 44.380798 L 79.560204 45.965797 L 79.718697 55.158798 L 79.560204 56.268303 L 78.292198 58.487297 L 77.0242 59.438301 L 75.280701 59.913803 L 71.635201 59.2798 L 69.891701 57.694801 L 69.416199 56.743797 L 69.099197 45.490303 L 70.367203 44.222298 L 72.110703 43.905296 L 72.110703 43.271301 Z M 249.7892 43.112801 L 243.132202 43.112801 L 243.132202 43.905296 L 244.400208 44.063797 L 245.192703 44.6978 L 245.351196 46.124298 L 241.705704 53.415298 L 237.743195 45.490303 L 237.901703 44.539299 L 239.962204 43.905296 L 239.962204 43.271301 L 232.512695 43.112801 L 232.037201 43.429802 L 232.195694 44.063797 L 233.939194 44.539299 L 234.731705 45.331802 L 239.645203 55.158798 L 239.645203 59.755302 L 238.377197 60.547798 L 237.109207 60.547798 L 237.109207 61.340302 L 243.132202 61.340302 L 244.558701 61.657303 L 245.509705 61.340302 L 245.509705 60.706299 L 243.924698 60.547798 L 242.656693 59.438301 L 242.498199 54.207802 L 246.619202 45.965797 L 248.204193 44.380798 L 249.7892 43.905296 Z M 187.340195 43.271301 L 185.438202 44.222298 L 184.487198 45.331802 L 183.853195 46.758301 L 184.011703 49.611298 L 184.962708 51.196297 L 186.072205 52.147301 L 193.046204 54.683296 L 194.155701 56.109802 L 194.155701 58.170303 L 193.204697 59.755302 L 192.0952 60.547798 L 188.6082 60.547798 L 186.389206 58.962799 L 184.645706 55.4758 L 184.011703 55.4758 L 183.694702 55.792801 L 183.853195 59.2798 L 183.536194 60.706299 L 184.328705 61.181801 L 185.438202 60.389297 L 186.072205 60.389297 L 188.6082 61.657303 L 192.412201 61.657303 L 194.631195 60.706299 L 196.216202 58.804298 L 196.691696 56.902298 L 196.216202 54.049301 L 195.582199 53.098297 L 193.838699 51.830299 L 187.181702 49.452797 L 186.389206 48.660301 L 185.913696 46.916801 L 186.389206 45.490303 L 187.181702 44.6978 L 188.6082 44.063797 L 190.034698 44.063797 L 191.302704 44.539299 L 192.729202 45.807297 L 194.155701 48.660301 L 195.106705 48.660301 L 195.106705 43.905296 L 194.314194 43.746803 L 193.363205 44.539299 L 192.0952 43.588303 L 190.510193 43.112801 Z M 8.8692 48.026299 L 11.5637 52.781303 L 15.6847 58.328796 L 15.3677 58.011803 L 27.8892 45.965797 L 40.252201 58.170303 L 38.508701 60.230797 L 42.946701 54.683296 L 46.592201 48.660301 L 46.116699 49.452797 L 28.047701 32.017807 L 9.6617 49.452797 Z M 22.5002 24.568298 L 21.866199 24.8853 L 22.5002 25.043793 Z M 33.7537 23.1418 L 33.7537 24.8853 L 34.229198 25.043793 L 33.912201 24.092804 L 34.229198 23.617294 L 34.863201 24.8853 L 35.4972 23.775803 L 35.814201 24.092804 L 35.655701 25.043793 L 36.131199 25.043793 L 36.131199 23.1418 L 35.655701 23.1418 L 35.021702 24.251297 L 34.387699 23.1418 Z M 31.3762 23.1418 L 32.168701 24.8853 L 32.485699 24.726807 L 33.278198 23.1418 L 32.8027 23.1418 L 32.485699 24.409805 L 31.8517 23.458801 L 32.010201 23.1418 Z M 29.1572 23.1418 L 29.1572 23.458801 L 29.6327 23.1418 L 29.949699 23.458801 L 29.791201 24.8853 L 30.4252 24.8853 L 30.4252 23.1418 L 30.9007 23.617294 L 30.9007 23.1418 Z M 23.134199 23.1418 L 23.4512 23.775803 L 23.134199 24.8853 L 23.609699 25.043793 L 23.609699 23.775803 L 24.877701 25.043793 L 25.0362 23.1418 L 24.560699 23.1418 L 24.877701 23.458801 L 24.7192 24.409805 Z M 22.3417 23.1418 L 20.756701 23.1418 L 21.0737 23.617294 L 20.756701 24.8853 L 21.5492 24.8853 L 21.232201 24.726807 L 21.390699 24.092804 L 21.866199 24.251297 L 21.866199 23.775803 L 21.232201 23.775803 L 21.5492 23.1418 L 22.3417 23.458801 Z M 24.560699 21.873795 L 25.0362 21.873795 L 24.7192 21.556793 Z M 33.7537 20.130295 L 33.7537 21.873795 L 34.229198 21.873795 L 33.912201 21.239807 L 34.229198 20.605804 L 34.863201 21.873795 L 35.4972 20.605804 L 35.4972 21.873795 L 36.131199 21.873795 L 36.131199 20.130295 L 35.4972 20.288803 L 35.180199 21.081299 L 34.7047 21.081299 L 34.387699 20.130295 Z M 32.168701 20.130295 L 31.3762 21.873795 L 32.010201 21.239807 L 33.119701 21.873795 Z M 29.1572 20.130295 L 29.1572 20.447296 L 29.949699 20.288803 L 29.791201 21.873795 L 30.4252 21.873795 L 30.5837 20.130295 L 31.0592 20.447296 L 31.0592 20.130295 Z M 24.877701 20.130295 L 24.560699 20.764297 L 25.5117 21.239807 L 25.5117 21.873795 L 25.828699 21.081299 L 24.7192 20.447296 L 25.0362 20.130295 L 25.828699 20.447296 Z M 22.3417 20.130295 L 22.183201 21.873795 L 23.7682 22.032303 L 23.926701 21.556793 L 23.609699 21.873795 L 22.8172 21.715302 L 23.4512 20.764297 L 22.9757 21.081299 L 22.9757 20.130295 L 23.7682 20.447296 L 23.7682 20.130295 Z M 19.8057 20.130295 L 19.8057 20.447296 L 20.5982 20.288803 L 20.439699 21.873795 L 21.0737 21.873795 L 21.232201 20.130295 L 21.707701 20.447296 L 21.707701 20.130295 Z M 34.387699 17.118805 L 35.180199 18.862305 L 35.4972 18.703796 L 36.2897 17.118805 L 35.814201 17.118805 L 35.972698 17.594299 L 35.4972 18.386795 L 34.863201 17.435806 L 35.021702 17.118805 Z M 32.327202 17.277298 L 32.168701 18.545303 L 32.485699 18.862305 L 33.7537 18.703796 L 33.912201 17.594299 L 33.436699 17.118805 Z M 33.119701 17.118805 L 33.5952 17.594299 L 33.5952 18.386795 L 32.8027 18.862305 L 32.485699 17.435806 Z M 29.474199 17.118805 L 29.791201 17.594299 L 29.474199 18.862305 L 30.1082 18.862305 L 29.791201 18.545303 L 30.266701 17.911301 L 31.217699 18.862305 L 31.5347 17.118805 L 30.9007 17.118805 L 31.217699 17.435806 L 30.742201 18.069794 L 29.949699 17.118805 Z M 24.2437 17.435806 L 25.0362 17.277298 L 24.877701 18.862305 L 25.6702 18.862305 L 25.353201 18.703796 L 25.6702 17.118805 L 26.1457 17.435806 L 26.1457 17.118805 Z M 22.183201 17.118805 L 22.183201 18.862305 L 23.926701 18.862305 L 23.926701 18.545303 L 23.4512 18.862305 L 22.658701 18.703796 L 22.8172 18.069794 L 23.2927 18.228302 L 23.2927 17.752808 L 22.658701 17.752808 L 22.8172 17.118805 L 23.7682 17.435806 L 23.609699 17.118805 Z M 19.6472 17.118805 L 20.756701 18.862305 L 21.707701 17.118805 L 21.0737 17.118805 L 21.232201 17.752808 L 20.756701 18.386795 L 20.439699 17.118805 Z M 184.962708 15.216797 L 184.645706 15.533798 L 184.804199 20.764297 L 185.755203 20.764297 L 186.389206 19.496307 L 188.766693 16.801804 L 191.461197 16.326294 L 191.778198 16.643295 L 191.778198 31.225296 L 190.827194 32.1763 L 188.766693 32.334793 L 188.766693 33.444298 L 199.227707 33.444298 L 199.227707 32.334793 L 197.167206 32.1763 L 196.374695 31.383804 L 196.533203 16.326294 L 198.118195 16.326294 L 199.861694 17.118805 L 201.605194 19.179306 L 202.397705 21.081299 L 203.507202 20.922806 L 203.348694 15.375305 Z M 164.199203 15.216797 L 164.199203 16.326294 L 165.467194 16.326294 L 166.418198 16.801804 L 166.893707 17.911301 L 166.735199 31.225296 L 165.784195 32.1763 L 164.199203 32.1763 L 164.199203 33.444298 L 181.792694 33.444298 L 181.951202 28.372299 L 181.634201 28.055298 L 180.841705 28.055298 L 179.732193 30.115799 L 177.8302 32.1763 L 172.599701 32.1763 L 171.490204 30.908295 L 171.648697 24.251297 L 173.392197 24.409805 L 174.977203 25.836304 L 175.135696 27.579803 L 175.452698 27.896805 L 176.562195 27.579803 L 176.403702 22.983307 L 176.720703 20.130295 L 175.452698 19.971802 L 174.818695 21.715302 L 174.184692 22.349304 L 172.599701 22.983307 L 171.490204 22.824799 L 171.648697 16.326294 L 175.611206 16.326294 L 176.403702 16.643295 L 178.147202 18.228302 L 179.415207 20.130295 L 180.049194 20.130295 L 180.366196 19.813293 L 180.207703 15.533798 L 179.890701 15.216797 Z M 249.472198 15.216797 L 241.705704 15.058304 L 241.388702 15.375305 L 241.547195 16.167801 L 244.241699 16.960297 L 244.875702 18.862305 L 244.717194 26.945801 L 244.558701 26.311798 L 243.290695 25.360794 L 234.256195 15.216797 L 228.391693 15.216797 L 228.391693 16.167801 L 229.9767 16.801804 L 231.7202 18.862305 L 231.561707 30.749802 L 230.452194 32.017807 L 228.867203 32.493301 L 228.867203 33.444298 L 236.475204 33.285797 L 236.158203 32.334793 L 234.731705 32.017807 L 233.146698 30.749802 L 233.146698 20.447296 L 245.034195 33.761299 L 245.826706 33.761299 L 246.143707 33.444298 L 246.143707 19.6548 L 246.619202 17.752808 L 248.204193 16.326294 L 249.472198 16.167801 Z M 150.409698 15.216797 L 147.398193 16.801804 L 144.862198 20.130295 L 144.069702 23.775803 L 144.386703 27.579803 L 146.130203 30.908295 L 148.190704 32.651794 L 151.202194 33.761299 L 155.798706 33.761299 L 158.968704 32.334793 L 160.712204 30.274307 L 160.712204 29.640305 L 159.602707 29.164795 L 158.176193 30.908295 L 155.323196 32.1763 L 153.262695 32.017807 L 151.043701 30.908295 L 149.617203 29.006302 L 148.9832 26.628799 L 149.141693 21.3983 L 150.885193 17.752808 L 153.104202 16.326294 L 155.164703 16.326294 L 156.432693 16.960297 L 158.334702 18.862305 L 159.127197 21.239807 L 159.919693 21.715302 L 160.712204 21.3983 L 160.395203 18.862305 L 160.712204 16.167801 L 159.444199 15.692307 L 158.493195 16.643295 L 157.225204 15.692307 L 155.323196 15.058304 Z M 141.216705 15.216797 L 133.291702 15.216797 L 133.291702 16.167801 L 135.669205 16.801804 L 136.4617 17.911301 L 136.4617 26.787292 L 126.000702 15.216797 L 120.1362 15.375305 L 120.1362 16.167801 L 121.721199 16.801804 L 123.464699 18.703796 L 123.464699 30.274307 L 122.672203 31.700806 L 120.611702 32.493301 L 120.611702 33.444298 L 128.219696 33.285797 L 127.902702 32.334793 L 126.159203 31.859299 L 125.049698 30.749802 L 124.732697 29.164795 L 125.208199 20.605804 L 136.778702 33.761299 L 137.729706 33.761299 L 138.046707 33.127296 L 138.2052 18.228302 L 139.156204 16.801804 L 141.216705 16.167801 Z M 116.173698 15.058304 L 106.346703 15.375305 L 106.505203 16.326294 L 108.407204 16.643295 L 109.199699 18.069794 L 109.3582 24.251297 L 109.199699 30.908295 L 108.565697 31.859299 L 106.346703 32.493301 L 106.346703 33.444298 L 116.4907 33.444298 L 116.4907 32.334793 L 114.7472 32.1763 L 113.796204 30.274307 L 113.796204 17.752808 L 114.271698 16.801804 L 116.4907 16.167801 Z M 99.372704 16.167801 L 97.470703 15.216797 L 95.093201 15.058304 L 83.998199 15.375305 L 83.998199 16.326294 L 84.790703 16.326294 L 86.217201 17.118805 L 86.692703 17.752808 L 86.851196 19.179306 L 86.692703 31.225296 L 85.9002 32.1763 L 84.315201 32.334793 L 84.315201 33.444298 L 93.825203 33.444298 L 93.666702 32.334793 L 92.240196 32.1763 L 91.447701 31.225296 L 91.606201 24.8853 L 93.1912 25.202301 L 95.093201 26.945801 L 96.202698 29.640305 L 96.995201 33.285797 L 103.810699 33.285797 L 103.652199 32.334793 L 102.2257 32.1763 L 101.591698 31.542297 L 100.3237 27.896805 L 99.055702 25.836304 L 96.6782 24.568298 L 99.214203 23.775803 L 100.957703 21.556793 L 100.957703 18.545303 Z M 91.447701 16.484802 L 93.983704 16.326294 L 94.776199 16.643295 L 96.202698 18.545303 L 96.202698 21.239807 L 95.568703 22.349304 L 94.142197 23.458801 L 91.606201 23.617294 L 91.2892 23.300293 Z M 64.3442 15.216797 L 64.502701 16.326294 L 66.0877 16.643295 L 66.721703 17.594299 L 66.880203 29.798798 L 66.404701 31.542297 L 65.612198 32.1763 L 64.027199 32.334793 L 64.027199 33.444298 L 74.329697 33.444298 L 74.171204 32.334793 L 72.744698 32.1763 L 71.4767 31.066803 L 71.4767 24.8853 L 76.548698 25.043793 L 79.401703 23.934296 L 80.986702 21.556793 L 80.669701 17.752808 L 79.560204 16.326294 L 77.182701 15.216797 Z M 74.329697 16.326294 L 75.439201 16.960297 L 76.231697 18.386795 L 76.548698 20.447296 L 76.073196 21.873795 L 74.488197 23.458801 L 71.635201 23.775803 L 71.318199 23.458801 L 71.318199 16.484802 Z M 215.077698 14.899796 L 213.175705 15.216797 L 210.798203 16.326294 L 208.103699 18.703796 L 206.518707 21.556793 L 206.043198 25.519302 L 207.152695 29.164795 L 208.262207 30.908295 L 209.688705 32.1763 L 213.017197 33.761299 L 216.979706 33.9198 L 220.625198 32.651794 L 223.478195 30.274307 L 225.221695 26.628799 L 225.380203 22.507797 L 224.587708 19.813293 L 223.478195 18.069794 L 222.210205 16.960297 L 218.406204 15.058304 Z M 215.394699 16.167801 L 217.296707 16.326294 L 218.406204 16.960297 L 219.991196 19.020798 L 220.625198 21.3983 L 220.625198 25.994797 L 219.991196 28.847794 L 218.723206 31.383804 L 216.662704 32.651794 L 214.602203 32.651794 L 212.541702 31.225296 L 211.273697 28.372299 L 210.956696 25.519302 L 211.115204 21.715302 L 211.749207 19.496307 L 213.809692 16.801804 Z M 1.5782 12.3638 L 1.2612 15.533798 L 1.4197 22.824799 L 2.6877 31.225296 L 2.8462 30.908295 L 52.932201 31.383804 L 52.932201 31.859299 L 54.3587 22.349304 L 54.200199 12.3638 L 47.543201 13.314804 L 43.422199 12.997803 L 38.9842 11.729797 L 36.2897 10.461807 L 32.8027 8.084305 L 29.6327 4.914307 L 27.8892 2.378296 L 25.9872 5.0728 L 23.134199 7.925797 L 20.2812 9.986298 L 16.794201 11.729797 L 11.0882 13.156296 L 5.5407 13.156296 Z M 39.459702 23.300293 L 40.252201 23.458801 L 40.252201 25.519302 L 39.1427 25.360794 L 39.1427 23.617294 Z M 15.6847 23.300293 L 16.4772 23.617294 L 16.318701 25.519302 L 15.3677 25.360794 L 15.3677 23.617294 Z M 39.301201 17.752808 L 40.410702 18.069794 L 40.410702 19.6548 L 40.0937 19.971802 L 39.1427 19.6548 Z M 15.5262 17.752808 L 16.4772 17.911301 L 16.318701 19.971802 L 15.3677 19.6548 Z M 38.667198 16.484802 L 38.825699 27.896805 L 38.508701 28.213806 L 31.693199 28.372299 L 29.1572 28.055298 L 28.6817 29.006302 L 26.9382 29.006302 L 26.4627 28.055298 L 18.3792 28.372299 L 16.9527 27.896805 L 16.9527 16.643295 L 17.269699 16.326294 L 18.062201 16.484802 L 18.062201 26.628799 L 19.1717 27.421295 L 20.439699 27.579803 L 25.6702 26.787292 L 26.779699 26.945801 L 27.572201 27.579803 L 29.6327 26.787292 L 34.863201 27.579803 L 37.3992 27.104294 L 37.716202 26.787292 L 37.874699 16.167801 Z M 28.3647 15.216797 L 30.4252 14.741302 L 34.070702 15.375305 L 37.3992 15.375305 L 37.2407 26.787292 L 34.070702 27.104294 L 29.315701 26.470306 L 28.2062 26.945801 L 28.047701 15.692307 Z M 27.096701 15.058304 L 27.7307 15.692307 L 27.7307 26.628799 L 27.4137 26.945801 L 25.353201 26.470306 L 21.707701 27.104294 L 18.696199 26.787292 L 18.3792 26.311798 L 18.696199 15.216797 L 21.707701 15.375305 L 25.353201 14.741302 Z"/>
        <path id="path1" fill="#ff671f" fill-rule="evenodd" stroke="none" d="M 27.8892 46.124298 L 15.5262 58.011803 L 22.5002 65.619797 L 27.7307 69.8993 L 28.3647 69.740799 L 33.7537 65.144302 L 38.350201 60.389297 L 40.0937 58.011803 Z M 5.3822 40.101303 L 9.6617 49.294296 L 27.7307 31.859299 L 46.116699 49.294296 L 50.396198 40.101303 L 52.932201 31.066803 L 2.8462 31.066803 Z"/>
        <path id="path2" fill="#ffffff" fill-rule="evenodd" stroke="none" d="M 39.301201 23.617294 L 39.301201 25.360794 L 40.252201 25.360794 L 40.252201 23.617294 Z M 15.5262 23.617294 L 15.5262 25.360794 L 16.318701 25.360794 L 16.1602 23.458801 Z M 39.301201 17.911301 L 39.459702 19.813293 L 40.252201 19.6548 L 40.0937 17.911301 Z M 15.5262 17.911301 L 15.6847 19.813293 L 16.318701 19.813293 L 16.318701 17.911301 Z M 33.119701 17.277298 L 32.644199 17.435806 L 32.8027 18.703796 L 33.436699 18.386795 Z M 38.508701 16.484802 L 37.874699 16.326294 L 37.874699 26.787292 L 37.082199 27.421295 L 35.180199 27.738297 L 29.949699 26.945801 L 27.572201 27.738297 L 25.9872 26.945801 L 20.915199 27.738297 L 18.220699 27.104294 L 17.9037 26.628799 L 17.9037 16.484802 L 17.1112 16.643295 L 17.269699 28.055298 L 23.926701 28.213806 L 25.6702 27.896805 L 26.621201 28.055298 L 26.9382 28.847794 L 28.6817 28.847794 L 29.1572 27.896805 L 31.693199 28.213806 L 38.667198 27.896805 Z M 28.3647 15.375305 L 28.2062 26.787292 L 29.315701 26.311798 L 34.070702 26.945801 L 37.2407 26.628799 L 37.2407 15.375305 L 34.070702 15.533798 L 30.4252 14.899796 Z M 35.4972 23.1418 L 36.2897 23.300293 L 36.131199 25.202301 L 35.4972 25.043793 Z M 33.5952 23.1418 L 34.5462 23.1418 L 35.021702 24.092804 L 35.338699 23.775803 L 35.4972 24.092804 L 34.863201 25.043793 L 34.229198 23.775803 L 34.229198 25.202301 L 33.5952 24.8853 L 33.912201 23.617294 Z M 33.436699 23.1418 L 32.644199 24.409805 L 32.8027 22.983307 Z M 31.3762 22.983307 L 32.168701 23.1418 L 32.644199 24.726807 L 32.010201 24.8853 Z M 29.1572 22.983307 L 30.9007 22.983307 L 31.217699 23.458801 L 30.9007 23.775803 L 30.4252 23.300293 L 30.5837 24.8853 L 30.266701 25.202301 L 29.6327 24.8853 L 29.6327 23.300293 L 28.998699 23.458801 Z M 35.655701 19.971802 L 36.2897 20.288803 L 36.2897 21.873795 L 35.655701 22.032303 L 35.338699 21.873795 L 35.338699 20.288803 Z M 33.5952 20.130295 L 34.5462 20.130295 L 35.021702 21.081299 L 35.338699 20.605804 L 35.4972 21.081299 L 34.863201 22.032303 L 34.229198 20.764297 L 34.387699 21.873795 L 33.5952 21.873795 Z M 32.327202 19.971802 L 33.278198 21.873795 L 32.961201 22.190796 L 32.327202 21.3983 L 31.693199 22.032303 L 31.217699 21.873795 L 31.8517 20.764297 L 32.168701 21.081299 L 31.8517 20.447296 Z M 29.1572 19.971802 L 31.217699 20.130295 L 30.9007 20.605804 L 30.4252 20.288803 L 30.5837 21.873795 L 29.6327 21.873795 L 29.791201 20.288803 L 28.998699 20.447296 Z M 36.4482 17.118805 L 35.655701 18.386795 L 35.814201 16.960297 Z M 34.229198 17.118805 L 35.180199 17.118805 L 35.655701 18.703796 L 35.021702 18.862305 Z M 32.644199 16.960297 L 33.436699 16.960297 L 34.070702 17.594299 L 34.070702 18.386795 L 33.436699 19.020798 L 32.485699 19.020798 L 32.010201 18.545303 L 32.010201 17.435806 Z M 29.315701 17.118805 L 29.949699 16.960297 L 31.0592 18.069794 L 30.742201 17.118805 L 31.693199 17.118805 L 31.0592 19.020798 L 29.949699 17.911301 L 30.266701 18.862305 L 29.315701 18.862305 L 29.6327 18.545303 Z M 27.096701 15.216797 L 25.353201 14.899796 L 21.707701 15.533798 L 18.696199 15.375305 L 18.696199 26.628799 L 21.707701 26.945801 L 26.4627 26.311798 L 27.4137 26.787292 L 27.572201 15.692307 Z M 22.5002 24.409805 L 22.5002 25.202301 L 21.707701 24.8853 Z M 23.134199 22.983307 L 24.7192 24.251297 L 24.402201 23.1418 L 25.1947 23.300293 L 24.877701 25.202301 L 23.609699 23.934296 L 23.609699 25.202301 L 22.9757 24.8853 L 23.2927 24.251297 Z M 22.5002 23.1418 L 22.183201 23.617294 L 21.390699 23.458801 L 21.390699 23.775803 L 21.866199 23.617294 L 21.866199 24.409805 L 21.390699 24.251297 L 21.707701 24.8853 L 20.915199 25.202301 L 20.5982 24.8853 L 20.915199 24.568298 L 20.5982 23.1418 Z M 24.402201 21.873795 L 24.7192 21.3983 L 25.1947 21.873795 Z M 24.877701 19.971802 L 25.6702 19.971802 L 25.6702 20.605804 L 24.877701 20.447296 L 25.828699 20.922806 L 25.9872 21.715302 L 25.353201 21.873795 L 25.5117 21.3983 L 24.402201 20.764297 Z M 22.3417 19.971802 L 23.926701 20.130295 L 23.609699 20.605804 L 22.9757 20.288803 L 22.9757 20.922806 L 23.609699 20.764297 L 23.2927 21.3983 L 22.9757 21.239807 L 22.9757 21.715302 L 23.926701 21.3983 L 24.2437 21.715302 L 23.7682 22.190796 L 22.0247 21.873795 Z M 19.8057 19.971802 L 21.866199 20.130295 L 21.5492 20.605804 L 21.0737 20.288803 L 21.232201 21.873795 L 20.2812 21.873795 L 20.439699 20.288803 L 19.6472 20.447296 Z M 24.402201 16.960297 L 26.304199 17.118805 L 25.9872 17.594299 L 25.5117 17.277298 L 25.828699 18.862305 L 24.7192 18.862305 L 24.877701 17.277298 L 24.085199 17.277298 Z M 22.0247 17.118805 L 23.609699 16.960297 L 23.609699 17.594299 L 22.8172 17.277298 L 22.8172 17.752808 L 23.4512 17.752808 L 23.2927 18.386795 L 22.8172 18.228302 L 22.8172 18.703796 L 24.085199 18.545303 L 23.926701 19.020798 L 22.0247 18.862305 Z M 21.866199 17.118805 L 21.0737 18.228302 L 20.915199 17.118805 Z M 19.488701 17.118805 L 20.5982 17.118805 L 20.5982 17.911301 L 21.0737 18.228302 L 20.915199 18.862305 L 20.2812 18.703796 Z M 28.047701 0.159302 L 27.096701 0.951797 L 25.0362 4.280304 L 22.5002 6.816299 L 19.488701 9.035294 L 15.6847 10.778793 L 10.4542 12.046799 L 6.0162 12.046799 L 0.4687 10.778793 L 0.1517 14.265793 L 0.3102 24.251297 L 1.1027 30.274307 L 1.4197 30.274307 L 2.8462 37.089798 L 5.6992 44.6978 L 9.3447 51.671799 L 14.5752 59.2798 L 20.5982 65.778297 L 27.572201 71.642799 L 30.266701 70.0578 L 34.5462 66.4123 L 39.9352 60.706299 L 44.5317 54.683296 L 48.652699 47.709297 L 51.6642 40.893799 L 53.090698 35.504799 L 53.4077 35.346298 L 54.5172 30.749802 L 54.834202 27.104294 L 55.151199 26.945801 L 55.468201 19.337799 L 55.785198 19.179306 L 55.3097 10.778793 L 49.762199 12.046799 L 45.3242 12.046799 L 41.8372 11.412796 L 38.825699 10.303299 L 33.5952 7.133301 L 30.5837 4.121796 Z M 27.8892 2.219803 L 29.791201 4.914307 L 32.8027 7.925797 L 36.2897 10.303299 L 38.9842 11.571304 L 44.690201 12.997803 L 50.237701 12.997803 L 53.724701 12.205307 L 54.3587 12.3638 L 54.5172 22.349304 L 53.724701 28.689301 L 51.505699 37.723801 L 48.494202 45.331802 L 44.373199 52.781303 L 40.252201 58.487297 L 33.5952 65.619797 L 28.047701 70.216301 L 23.926701 67.204803 L 17.269699 60.547798 L 12.3562 54.207802 L 8.3937 47.550797 L 5.3822 40.893799 L 3.1632 33.9198 L 1.8952 28.055298 L 1.1027 19.971802 L 1.2612 12.839294 L 1.5782 12.205307 L 5.5407 12.997803 L 11.0882 12.997803 L 16.794201 11.571304 L 20.2812 9.827805 L 23.134199 7.767303 L 25.828699 5.0728 Z"/>
    </g>
</svg>
