<?xml version="1.0" encoding="UTF-8"?>
<svg xmlns="http://www.w3.org/2000/svg" viewBox="0 0 250 250" role="img" aria-label="Rothschild &amp; Co logo">
  <title>Rothschild &amp; Co</title>
  <path fill="#001655" fill-rule="evenodd" d="M15.97 103.368L15.97 110.337L17.422 111.498L17.422 120.79L17.131 121.08L13.066 112.95L13.647 110.627L10.743 104.82L10.453 104.82L9.582 107.143L6.969 106.562L6.969 107.143L9.872 112.95L11.324 112.95L11.905 113.531L15.679 121.37L15.389 121.951L7.84 115.854L8.13 114.402L2.613 110.046L2.613 112.66L0 113.531L5.226 117.596L7.259 117.305L16.841 125.145L5.226 134.437L4.646 134.146L4.355 132.985L1.161 138.502L7.259 136.76L6.098 135.598L15.389 128.339L15.679 128.92L10.453 139.373L9.292 138.211L9.001 144.599L13.647 140.244L12.195 140.244L11.905 139.663L17.131 129.21L17.422 129.501L17.422 141.115L17.131 141.405L16.26 140.825L15.97 141.115L18.293 146.632L20.616 140.825L19.454 141.405L18.873 141.115L18.873 129.21L19.164 128.92L24.681 139.954L24.39 140.244L22.938 140.244L27.584 144.599L27.294 138.211L26.132 139.373L25.552 138.792L24.971 137.05L20.906 128.92L21.196 128.339L30.488 135.598L29.326 136.76L35.134 138.502L32.23 132.985L31.94 132.985L31.94 134.146L31.359 134.437L20.906 126.307L19.744 124.855L29.326 117.305L31.359 117.596L36.585 113.531L33.682 112.66L33.972 112.369L33.972 110.046L28.455 114.402L28.455 115.854L27.003 117.305L21.196 121.661L20.906 121.08L24.681 113.531L25.261 112.95L26.423 112.95L29.617 106.852L29.326 106.562L27.003 107.143L25.842 104.82L22.648 110.918L23.519 112.66L19.164 121.37L18.873 121.08L18.873 111.498L20.325 110.337L20.325 103.368L18.293 105.11ZM44.715 113.821L44.715 135.889L48.49 135.889L48.49 127.758L48.78 127.468L52.265 127.468L56.039 135.889L60.105 135.889L56.039 127.178L56.33 126.597L56.911 126.597L58.943 124.855L60.105 122.242L60.105 119.048L59.233 117.015L58.362 115.854L56.62 114.692L54.878 114.111L53.136 114.111L52.846 113.821ZM195.122 114.692L193.961 115.854L193.089 117.596L193.089 120.499L194.541 123.113L195.122 123.403L195.122 123.984L192.218 126.597L191.347 128.92L191.347 130.662L192.509 133.566L194.541 135.308L196.864 136.179L200.348 136.179L202.091 135.598L204.413 134.146L206.156 135.598L210.221 135.598L206.736 131.823L206.736 131.243L207.607 129.501L207.898 126.887L208.188 126.597L210.221 126.597L210.511 126.307L210.511 123.984L210.221 123.693L205.285 123.693L204.994 128.049L204.413 129.21L200.639 124.855L203.833 121.951L204.413 120.79L204.704 118.467L203.833 116.144L202.381 114.692L200.058 113.821L197.445 113.821ZM223.577 113.821L220.093 115.273L218.06 117.305L217.189 119.048L216.609 121.37L216.609 128.92L218.06 132.695L220.383 135.017L223.287 136.179L227.062 136.179L229.965 135.017L231.998 133.275L232.869 131.823L233.449 129.21L229.675 129.21L229.675 130.081L228.804 131.533L227.933 132.404L226.481 132.985L224.158 132.985L222.416 132.114L220.964 130.372L220.383 128.63L220.383 121.37L220.964 119.628L223.287 117.305L226.481 117.015L227.933 117.596L229.094 118.757L229.675 120.499L233.449 120.499L233.449 119.919L232.288 117.015L230.256 114.983L228.513 114.111L227.352 114.111L227.062 113.821ZM81.01 116.144L81.01 119.628L80.72 119.919L78.107 119.919L78.107 122.822L80.72 122.822L81.01 123.113L81.01 132.695L82.172 135.017L84.495 136.179L87.689 136.179L88.85 135.889L88.85 132.695L88.56 132.985L85.656 132.985L84.785 132.114L84.785 123.113L85.075 122.822L88.85 122.822L88.85 120.209L88.56 119.919L85.075 119.919L84.785 119.628L84.785 114.111ZM91.463 114.111L91.463 135.889L95.238 135.889L95.238 126.307L96.109 124.274L97.271 123.113L98.142 122.822L100.465 123.113L101.626 124.855L101.626 135.889L105.11 135.889L105.11 123.693L104.239 121.661L103.078 120.499L101.336 119.628L98.432 119.628L96.109 120.79L95.528 121.661L95.238 121.37L95.238 114.111ZM139.373 114.111L139.373 135.889L143.148 135.889L143.148 126.016L143.728 124.564L145.761 122.822L148.084 123.113L149.245 124.274L149.535 125.145L149.535 135.889L153.02 135.889L153.02 124.274L151.858 121.37L150.987 120.499L148.955 119.628L146.341 119.628L144.89 120.209L143.438 121.37L143.148 121.08L143.148 114.111ZM159.988 114.111L156.794 115.854L156.214 116.434L156.214 117.886L159.988 117.886ZM163.182 114.111L163.182 132.404L163.473 132.695L163.473 133.856L165.505 135.889L168.699 136.179L168.99 135.889L168.99 132.985L167.828 132.985L166.957 132.114L166.957 114.111ZM185.54 114.111L182.056 114.111L182.056 120.79L181.765 121.08L179.152 119.628L175.958 119.628L173.635 120.79L171.603 123.403L170.732 126.887L171.022 130.952L172.184 133.566L174.216 135.598L176.539 136.469L179.443 136.179L182.056 134.437L182.346 134.727L182.346 135.889L185.54 135.889ZM199.768 116.725L201.22 118.177L201.22 120.209L200.348 121.37L198.316 122.532L196.864 121.08L196.283 119.919L196.283 118.177L197.735 116.725ZM48.49 117.596L48.78 117.305L53.717 117.305L54.588 117.596L56.33 119.628L56.33 122.242L56.039 122.822L54.588 123.984L53.426 124.274L48.78 124.274L48.49 123.984ZM67.654 119.628L65.912 120.209L64.17 121.37L63.008 122.822L61.847 125.726L61.847 130.081L63.298 133.566L64.75 135.017L67.073 136.179L69.686 136.469L72.009 135.889L74.913 133.856L76.365 130.952L76.655 126.307L75.203 122.532L73.461 120.79L70.848 119.628ZM111.789 119.919L110.046 120.79L108.595 122.242L108.014 123.403L108.014 125.726L108.595 127.178L110.918 128.92L113.821 129.21L114.111 129.501L116.144 129.501L117.596 130.372L117.886 131.823L116.144 133.566L112.66 133.566L111.208 132.404L110.627 130.952L107.724 130.952L107.433 131.243L108.304 133.566L110.046 135.308L111.789 136.179L115.854 136.469L118.177 135.889L120.499 133.856L121.08 132.695L121.08 129.791L120.499 128.63L119.628 127.758L117.886 126.887L112.369 126.016L111.498 125.145L111.208 124.274L111.498 123.403L113.24 122.242L116.144 122.532L117.305 123.693L117.596 124.564L120.79 124.564L120.79 123.693L119.919 121.951L118.757 120.79L117.015 119.919L115.854 119.628ZM128.63 119.628L125.726 121.08L123.984 123.113L123.113 125.726L123.113 130.081L124.274 133.275L126.016 135.017L128.63 136.179L132.114 136.179L134.146 135.308L135.889 133.856L136.76 132.114L137.05 130.662L136.76 130.372L133.566 130.372L133.275 131.533L131.823 132.985L130.952 133.275L128.92 132.985L126.887 130.662L126.887 128.92L126.597 128.63L126.887 125.145L128.049 123.403L129.791 122.532L131.243 122.532L132.695 123.403L133.566 124.855L133.566 125.436L136.76 125.436L137.05 124.564L135.889 121.951L134.146 120.499L131.823 119.628ZM241.58 119.628L238.676 120.79L236.643 122.822L235.482 125.726L235.482 129.791L236.353 132.404L238.676 135.017L240.708 135.889L243.322 136.179L246.806 135.017L248.839 132.985L250 130.372L250 125.436L248.839 122.822L247.387 121.08L245.064 119.919ZM156.504 119.919L156.504 135.889L159.698 135.889L159.698 119.919ZM20.616 121.661L20.906 121.37L21.196 121.661L20.906 121.951ZM177.41 122.532L180.023 122.822L181.475 124.274L182.056 126.016L182.056 130.081L181.185 132.114L179.733 133.275L177.12 133.275L176.539 132.985L175.087 131.533L174.506 130.081L174.506 126.016L174.797 124.855L176.249 123.113ZM68.235 122.822L70.267 122.822L72.009 123.984L72.88 125.726L72.88 130.372L72.59 131.243L71.719 132.404L70.267 133.275L68.235 133.275L67.073 132.695L65.912 131.533L65.331 129.21L65.621 125.436L66.202 124.274ZM241.58 122.822L243.902 122.822L246.225 125.145L246.225 126.307L246.516 126.597L246.225 130.662L245.354 132.114L244.193 132.985L241.58 132.985L240.999 132.695L239.547 131.243L239.257 130.372L239.257 128.92L238.966 128.63L239.257 125.436L239.837 124.274ZM195.122 127.758L196.864 126.307L197.445 126.307L200.929 129.791L202.381 131.823L200.929 132.985L199.477 132.985L199.187 133.275L198.026 133.275L196.283 132.695L195.122 131.533L194.541 130.081ZM15.389 128.339L15.679 128.049L15.97 128.339L15.679 128.63ZM20.616 128.339L20.906 128.049L21.196 128.339L20.906 128.63Z"/>
</svg>
