<?xml version="1.0" encoding="UTF-8"?>
<!-- Generated by Pixelmator Pro 3.8 -->
<svg width="250" height="44" viewBox="0 0 250 44" xmlns="http://www.w3.org/2000/svg">
    <path id="Path" fill="#001655" fill-rule="evenodd" stroke="none" d="M 15.97 0.367996 L 15.97 7.337006 L 17.422001 8.498001 L 17.422001 17.790009 L 17.131001 18.080002 L 13.066 9.949997 L 13.647 7.626999 L 10.743 1.820007 L 10.453 1.820007 L 9.582 4.143005 L 6.969 3.561996 L 6.969 4.143005 L 9.872 9.949997 L 11.324 9.949997 L 11.905 10.531006 L 15.679 18.369995 L 15.389 18.950989 L 7.84 12.854004 L 8.13 11.402008 L 2.613 7.04599 L 2.613 9.660004 L 0 10.531006 L 5.226 14.596008 L 7.259 14.304993 L 16.841 22.144997 L 5.226 31.436996 L 4.646 31.145996 L 4.355 29.985001 L 1.161 35.501999 L 7.259 33.759995 L 6.098 32.598007 L 15.389 25.339005 L 15.679 25.919998 L 10.453 36.373001 L 9.292 35.210999 L 9.001 41.598999 L 13.647 37.244003 L 12.195 37.244003 L 11.905 36.662994 L 17.131001 26.210007 L 17.422001 26.501007 L 17.422001 38.115005 L 17.131001 38.404999 L 16.26 37.824997 L 15.97 38.115005 L 18.292999 43.632004 L 20.615999 37.824997 L 19.454 38.404999 L 18.872999 38.115005 L 18.872999 26.210007 L 19.164 25.919998 L 24.681 36.953995 L 24.389999 37.244003 L 22.938 37.244003 L 27.584 41.598999 L 27.294001 35.210999 L 26.132 36.373001 L 25.552 35.792007 L 24.971001 34.050003 L 20.906 25.919998 L 21.195999 25.339005 L 30.488001 32.598007 L 29.326 33.759995 L 35.133999 35.501999 L 32.23 29.985001 L 31.940001 29.985001 L 31.940001 31.145996 L 31.358999 31.436996 L 20.906 23.306999 L 19.743999 21.855003 L 29.326 14.304993 L 31.358999 14.596008 L 36.584999 10.531006 L 33.681999 9.660004 L 33.972 9.369003 L 33.972 7.04599 L 28.455 11.402008 L 28.455 12.854004 L 27.003 14.304993 L 21.195999 18.661011 L 20.906 18.080002 L 24.681 10.531006 L 25.261 9.949997 L 26.423 9.949997 L 29.617001 3.85199 L 29.326 3.561996 L 27.003 4.143005 L 25.841999 1.820007 L 22.648001 7.917999 L 23.518999 9.660004 L 19.164 18.369995 L 18.872999 18.080002 L 18.872999 8.498001 L 20.325001 7.337006 L 20.325001 0.367996 L 18.292999 2.110001 Z M 44.715 10.820999 L 44.715 32.889008 L 48.490002 32.889008 L 48.490002 24.758003 L 48.779999 24.468002 L 52.264999 24.468002 L 56.039001 32.889008 L 60.105 32.889008 L 56.039001 24.178001 L 56.330002 23.597 L 56.910999 23.597 L 58.943001 21.855003 L 60.105 19.241997 L 60.105 16.048004 L 59.233002 14.014999 L 58.362 12.854004 L 56.619999 11.692001 L 54.877998 11.110992 L 53.136002 11.110992 L 52.846001 10.820999 Z M 195.121994 11.692001 L 193.960999 12.854004 L 193.089005 14.596008 L 193.089005 17.498993 L 194.541 20.112999 L 195.121994 20.403 L 195.121994 20.984001 L 192.218002 23.597 L 191.347 25.919998 L 191.347 27.662003 L 192.509003 30.565994 L 194.541 32.307999 L 196.863998 33.179001 L 200.348007 33.179001 L 202.091003 32.598007 L 204.412994 31.145996 L 206.156006 32.598007 L 210.220993 32.598007 L 206.735992 28.822998 L 206.735992 28.242996 L 207.606995 26.501007 L 207.897995 23.887001 L 208.188004 23.597 L 210.220993 23.597 L 210.511002 23.306999 L 210.511002 20.984001 L 210.220993 20.693001 L 205.285004 20.693001 L 204.994003 25.048996 L 204.412994 26.210007 L 200.639008 21.855003 L 203.832993 18.950989 L 204.412994 17.790009 L 204.703995 15.46701 L 203.832993 13.143997 L 202.380997 11.692001 L 200.057999 10.820999 L 197.445007 10.820999 Z M 223.576996 10.820999 L 220.093002 12.27301 L 218.059998 14.304993 L 217.188995 16.048004 L 216.608994 18.369995 L 216.608994 25.919998 L 218.059998 29.695007 L 220.382996 32.016998 L 223.287003 33.179001 L 227.061996 33.179001 L 229.964996 32.016998 L 231.998001 30.274994 L 232.869003 28.822998 L 233.449005 26.210007 L 229.675003 26.210007 L 229.675003 27.080994 L 228.804001 28.533005 L 227.932999 29.404007 L 226.481003 29.985001 L 224.158005 29.985001 L 222.416 29.113998 L 220.964005 27.371994 L 220.382996 25.630005 L 220.382996 18.369995 L 220.964005 16.627991 L 223.287003 14.304993 L 226.481003 14.014999 L 227.932999 14.596008 L 229.093994 15.757004 L 229.675003 17.498993 L 233.449005 17.498993 L 233.449005 16.919006 L 232.287994 14.014999 L 230.255997 11.983002 L 228.513 11.110992 L 227.352005 11.110992 L 227.061996 10.820999 Z M 81.010002 13.143997 L 81.010002 16.627991 L 80.720001 16.919006 L 78.107002 16.919006 L 78.107002 19.821999 L 80.720001 19.821999 L 81.010002 20.112999 L 81.010002 29.695007 L 82.171997 32.016998 L 84.495003 33.179001 L 87.689003 33.179001 L 88.849998 32.889008 L 88.849998 29.695007 L 88.559998 29.985001 L 85.655998 29.985001 L 84.785004 29.113998 L 84.785004 20.112999 L 85.074997 19.821999 L 88.849998 19.821999 L 88.849998 17.209 L 88.559998 16.919006 L 85.074997 16.919006 L 84.785004 16.627991 L 84.785004 11.110992 Z M 91.462997 11.110992 L 91.462997 32.889008 L 95.237999 32.889008 L 95.237999 23.306999 L 96.109001 21.274002 L 97.271004 20.112999 L 98.141998 19.821999 L 100.464996 20.112999 L 101.625999 21.855003 L 101.625999 32.889008 L 105.110001 32.889008 L 105.110001 20.693001 L 104.238998 18.661011 L 103.078003 17.498993 L 101.335999 16.627991 L 98.431999 16.627991 L 96.109001 17.790009 L 95.528 18.661011 L 95.237999 18.369995 L 95.237999 11.110992 Z M 139.373001 11.110992 L 139.373001 32.889008 L 143.147995 32.889008 L 143.147995 23.015999 L 143.727997 21.564003 L 145.761002 19.821999 L 148.084 20.112999 L 149.244995 21.274002 L 149.535004 22.144997 L 149.535004 32.889008 L 153.020004 32.889008 L 153.020004 21.274002 L 151.858002 18.369995 L 150.987 17.498993 L 148.955002 16.627991 L 146.341003 16.627991 L 144.889999 17.209 L 143.438004 18.369995 L 143.147995 18.080002 L 143.147995 11.110992 Z M 159.988007 11.110992 L 156.794006 12.854004 L 156.214005 13.43399 L 156.214005 14.886002 L 159.988007 14.886002 Z M 163.182007 11.110992 L 163.182007 29.404007 L 163.473007 29.695007 L 163.473007 30.856003 L 165.505005 32.889008 L 168.699005 33.179001 L 168.990005 32.889008 L 168.990005 29.985001 L 167.828003 29.985001 L 166.957001 29.113998 L 166.957001 11.110992 Z M 185.539993 11.110992 L 182.056 11.110992 L 182.056 17.790009 L 181.764999 18.080002 L 179.151993 16.627991 L 175.957993 16.627991 L 173.634995 17.790009 L 171.602997 20.403 L 170.731995 23.887001 L 171.022003 27.951996 L 172.184006 30.565994 L 174.216003 32.598007 L 176.539001 33.468994 L 179.442993 33.179001 L 182.056 31.436996 L 182.345993 31.727005 L 182.345993 32.889008 L 185.539993 32.889008 Z M 199.768005 13.725006 L 201.220001 15.177002 L 201.220001 17.209 L 200.348007 18.369995 L 198.315994 19.531998 L 196.863998 18.080002 L 196.283005 16.919006 L 196.283005 15.177002 L 197.735001 13.725006 Z M 48.490002 14.596008 L 48.779999 14.304993 L 53.716999 14.304993 L 54.588001 14.596008 L 56.330002 16.627991 L 56.330002 19.241997 L 56.039001 19.821999 L 54.588001 20.984001 L 53.425999 21.274002 L 48.779999 21.274002 L 48.490002 20.984001 Z M 67.653999 16.627991 L 65.912003 17.209 L 64.169998 18.369995 L 63.007999 19.821999 L 61.847 22.725998 L 61.847 27.080994 L 63.298 30.565994 L 64.75 32.016998 L 67.072998 33.179001 L 69.685997 33.468994 L 72.009003 32.889008 L 74.913002 30.856003 L 76.364998 27.951996 L 76.654999 23.306999 L 75.203003 19.531998 L 73.460999 17.790009 L 70.848 16.627991 Z M 111.789001 16.919006 L 110.045998 17.790009 L 108.595001 19.241997 L 108.014 20.403 L 108.014 22.725998 L 108.595001 24.178001 L 110.917999 25.919998 L 113.820999 26.210007 L 114.111 26.501007 L 116.143997 26.501007 L 117.596001 27.371994 L 117.886002 28.822998 L 116.143997 30.565994 L 112.660004 30.565994 L 111.208 29.404007 L 110.626999 27.951996 L 107.723999 27.951996 L 107.432999 28.242996 L 108.304001 30.565994 L 110.045998 32.307999 L 111.789001 33.179001 L 115.853996 33.468994 L 118.177002 32.889008 L 120.499001 30.856003 L 121.080002 29.695007 L 121.080002 26.791 L 120.499001 25.630005 L 119.627998 24.758003 L 117.886002 23.887001 L 112.369003 23.015999 L 111.498001 22.144997 L 111.208 21.274002 L 111.498001 20.403 L 113.239998 19.241997 L 116.143997 19.531998 L 117.305 20.693001 L 117.596001 21.564003 L 120.790001 21.564003 L 120.790001 20.693001 L 119.918999 18.950989 L 118.757004 17.790009 L 117.014999 16.919006 L 115.853996 16.627991 Z M 128.630005 16.627991 L 125.725998 18.080002 L 123.984001 20.112999 L 123.112999 22.725998 L 123.112999 27.080994 L 124.274002 30.274994 L 126.015999 32.016998 L 128.630005 33.179001 L 132.113998 33.179001 L 134.145996 32.307999 L 135.889008 30.856003 L 136.759995 29.113998 L 137.050003 27.662003 L 136.759995 27.371994 L 133.565994 27.371994 L 133.274994 28.533005 L 131.822998 29.985001 L 130.951996 30.274994 L 128.919998 29.985001 L 126.887001 27.662003 L 126.887001 25.919998 L 126.597 25.630005 L 126.887001 22.144997 L 128.048996 20.403 L 129.791 19.531998 L 131.242996 19.531998 L 132.695007 20.403 L 133.565994 21.855003 L 133.565994 22.435997 L 136.759995 22.435997 L 137.050003 21.564003 L 135.889008 18.950989 L 134.145996 17.498993 L 131.822998 16.627991 Z M 241.580002 16.627991 L 238.675995 17.790009 L 236.643005 19.821999 L 235.481995 22.725998 L 235.481995 26.791 L 236.352997 29.404007 L 238.675995 32.016998 L 240.707993 32.889008 L 243.322006 33.179001 L 246.806 32.016998 L 248.839005 29.985001 L 250 27.371994 L 250 22.435997 L 248.839005 19.821999 L 247.386993 18.080002 L 245.063995 16.919006 Z M 156.503998 16.919006 L 156.503998 32.889008 L 159.697998 32.889008 L 159.697998 16.919006 Z M 20.615999 18.661011 L 20.906 18.369995 L 21.195999 18.661011 L 20.906 18.950989 Z M 177.410004 19.531998 L 180.022995 19.821999 L 181.475006 21.274002 L 182.056 23.015999 L 182.056 27.080994 L 181.184998 29.113998 L 179.733002 30.274994 L 177.119995 30.274994 L 176.539001 29.985001 L 175.087006 28.533005 L 174.505997 27.080994 L 174.505997 23.015999 L 174.796997 21.855003 L 176.248993 20.112999 Z M 68.235001 19.821999 L 70.266998 19.821999 L 72.009003 20.984001 L 72.879997 22.725998 L 72.879997 27.371994 L 72.589996 28.242996 L 71.719002 29.404007 L 70.266998 30.274994 L 68.235001 30.274994 L 67.072998 29.695007 L 65.912003 28.533005 L 65.331001 26.210007 L 65.621002 22.435997 L 66.202003 21.274002 Z M 241.580002 19.821999 L 243.901993 19.821999 L 246.225006 22.144997 L 246.225006 23.306999 L 246.516006 23.597 L 246.225006 27.662003 L 245.354004 29.113998 L 244.192993 29.985001 L 241.580002 29.985001 L 240.998993 29.695007 L 239.546997 28.242996 L 239.257004 27.371994 L 239.257004 25.919998 L 238.966003 25.630005 L 239.257004 22.435997 L 239.837006 21.274002 Z M 195.121994 24.758003 L 196.863998 23.306999 L 197.445007 23.306999 L 200.929001 26.791 L 202.380997 28.822998 L 200.929001 29.985001 L 199.477005 29.985001 L 199.186996 30.274994 L 198.026001 30.274994 L 196.283005 29.695007 L 195.121994 28.533005 L 194.541 27.080994 Z M 15.389 25.339005 L 15.679 25.048996 L 15.97 25.339005 L 15.679 25.630005 Z M 20.615999 25.339005 L 20.906 25.048996 L 21.195999 25.339005 L 20.906 25.630005 Z"/>
</svg>
