<?xml version="1.0" encoding="UTF-8"?>
<!-- Generated by Pixelmator Pro 3.8 -->
<svg width="250" height="60" viewBox="0 0 250 60" xmlns="http://www.w3.org/2000/svg">
    <path id="Path" fill="#000000" fill-rule="evenodd" stroke="none" d="M 250 11.751999 L 154.848999 11.751999 L 154.587997 11.490997 L 154.587997 0.281998 L 153.024002 0.281998 L 153.024002 11.230011 L 152.763 11.490997 L 118.092003 11.490997 L 118.092003 46.423004 L 117.831001 46.684006 L 0 46.684006 L 0 48.248001 L 117.831001 48.248001 L 118.092003 48.509003 L 118.092003 59.718002 L 119.394997 59.718002 L 119.655998 59.457993 L 119.655998 48.509003 L 119.917 48.248001 L 154.587997 48.248001 L 154.587997 13.31601 L 154.848999 13.054993 L 250 13.054993 Z M 119.655998 13.31601 L 119.917 13.054993 L 152.763 13.054993 L 153.285004 13.576996 L 153.285004 46.423004 L 153.024002 46.684006 L 119.917 46.684006 L 119.655998 46.423004 Z M 11.731 21.136993 L 8.863 22.440002 L 7.821 24.264999 L 7.821 26.089996 L 8.081 26.872009 L 9.906 28.696999 L 13.816 30.781998 L 15.12 32.085999 L 15.12 33.910004 L 14.338 34.953003 L 12.774 35.473999 L 9.906 34.953003 L 8.342 33.910004 L 7.56 35.473999 L 9.906 36.778 L 13.556 37.039001 L 15.12 36.516998 L 16.423 35.473999 L 17.205 33.910004 L 17.205 31.564003 L 15.641 29.478996 L 10.688 26.610992 L 9.906 25.567993 L 9.906 24.526001 L 11.47 22.960999 L 14.338 22.960999 L 16.423 24.003998 L 17.205 22.440002 L 16.163 21.65799 L 14.338 21.136993 Z M 172.835999 21.65799 L 165.798004 21.397003 L 165.798004 36.778 L 167.623001 36.778 L 167.623001 31.303001 L 167.882996 31.042999 L 170.751007 31.303001 L 172.835999 30.781998 L 174.921997 28.957001 L 175.442993 27.914001 L 175.703995 26.610992 L 175.442993 24.264999 L 174.921997 23.222 Z M 167.882996 22.960999 L 171.011002 22.960999 L 172.054001 23.222 L 173.097 24.003998 L 173.617996 25.307999 L 173.617996 27.132004 L 172.054001 29.218002 L 171.533005 29.478996 L 167.882996 29.478996 L 167.623001 29.218002 L 167.623001 23.222 Z M 68.300003 25.307999 L 63.608002 36.778 L 65.693001 36.778 L 66.214996 34.953003 L 66.997002 33.910004 L 71.429001 33.910004 L 72.732002 36.778 L 74.556999 36.778 L 69.863998 25.307999 Z M 27.632999 26.350006 L 26.069 27.653999 L 25.025999 29.478996 L 24.764999 31.824997 L 25.808001 34.692001 L 27.112 35.996002 L 28.676001 36.778 L 30.24 37.039001 L 33.106998 39.906006 L 35.453999 40.949005 L 36.495998 39.645004 L 35.974998 39.645004 L 34.150002 38.602997 L 32.847 37.039001 L 34.672001 36.257004 L 36.495998 34.432007 L 37.018002 33.389008 L 37.278 30.261002 L 36.757 28.696999 L 34.931999 26.610992 L 33.368 25.82901 L 29.718 25.567993 Z M 185.871002 26.350006 L 184.307007 27.653999 L 183.264008 29.478996 L 183.003006 31.824997 L 184.046005 34.692001 L 186.130997 36.516998 L 187.695999 37.039001 L 190.824005 37.039001 L 192.908997 36.257004 L 194.733994 34.432007 L 195.516006 32.346001 L 195.516006 30.261002 L 194.473007 27.914001 L 193.169998 26.610992 L 190.563004 25.567993 L 187.955994 25.567993 Z M 45.881001 25.82901 L 45.881001 33.910004 L 46.662998 35.735001 L 47.445 36.516998 L 49.791 37.298996 L 51.616001 37.298996 L 53.962002 36.516998 L 55.005001 35.473999 L 55.527 33.910004 L 55.527 25.82901 L 53.702 25.82901 L 53.702 33.910004 L 52.397999 35.473999 L 51.616001 35.735001 L 49.008999 35.473999 L 47.706001 33.910004 L 47.706001 25.82901 Z M 82.899002 25.82901 L 82.899002 36.778 L 84.723999 36.778 L 84.723999 32.607002 L 84.984001 32.346001 L 86.288002 32.346001 L 86.808998 32.867996 L 89.154999 36.778 L 91.240997 36.778 L 88.373001 32.346001 L 89.416 31.824997 L 90.719002 30.261002 L 90.980003 28.696999 L 90.459 27.132004 L 89.677002 26.350006 L 88.373001 25.82901 Z M 99.844002 25.82901 L 99.844002 36.778 L 106.882004 36.778 L 106.882004 35.473999 L 101.929001 35.473999 L 101.667999 35.214005 L 101.667999 32.085999 L 101.929001 31.824997 L 105.838997 31.824997 L 105.838997 30.521004 L 101.929001 30.521004 L 101.667999 30.261002 L 101.667999 27.392998 L 101.929001 27.132004 L 106.882004 27.132004 L 106.882004 25.82901 Z M 204.380005 25.82901 L 204.380005 36.778 L 206.203995 36.778 L 206.203995 25.82901 Z M 216.110992 25.82901 L 216.110992 36.778 L 217.934998 36.778 L 217.934998 28.957001 L 218.195999 28.696999 L 224.712997 37.039001 L 226.276993 37.039001 L 226.276993 25.82901 L 224.712997 25.82901 L 224.712997 33.649994 L 224.453003 33.910004 L 217.934998 25.82901 Z M 234.358994 25.82901 L 234.358994 27.132004 L 238.007996 27.132004 L 238.268997 27.392998 L 238.268997 36.778 L 240.093994 36.778 L 240.093994 27.392998 L 240.354996 27.132004 L 244.003998 27.132004 L 244.003998 25.82901 Z M 29.979 27.132004 L 32.585999 27.132004 L 33.629002 27.653999 L 34.931999 28.957001 L 35.453999 30 L 35.453999 32.607002 L 34.931999 33.649994 L 32.847 35.473999 L 31.804001 35.735001 L 29.718 35.473999 L 28.676001 34.953003 L 27.112 32.867996 L 26.851 31.824997 L 27.112 29.738998 L 28.936001 27.653999 Z M 84.723999 27.392998 L 84.984001 27.132004 L 87.591003 27.132004 L 88.894997 28.175003 L 88.894997 29.738998 L 87.851997 30.781998 L 84.984001 30.781998 L 84.723999 30.521004 Z M 187.955994 27.132004 L 190.563004 27.132004 L 191.606003 27.653999 L 193.431 29.738998 L 193.690994 30.781998 L 193.431 32.867996 L 192.908997 33.910004 L 190.824005 35.473999 L 189.781006 35.735001 L 187.695999 35.473999 L 185.610001 33.649994 L 185.089005 32.607002 L 185.089005 30 L 185.610001 28.957001 L 186.912994 27.653999 Z M 69.082001 27.914001 L 69.603996 28.175003 L 70.906998 31.564003 L 70.647003 32.346001 L 67.778999 32.346001 L 67.517998 32.085999 Z"/>
    <path id="path1" fill="#9fcbed" fill-rule="evenodd" stroke="none" d="M 119.917 13.576996 L 119.917 46.423004 L 152.763 46.423004 L 152.763 13.576996 Z"/>
</svg>
