<?xml version="1.0" encoding="UTF-8"?>
<svg xmlns="http://www.w3.org/2000/svg" viewBox="0 0 250 250" role="img" aria-label="Squarepoint Capital logo">
  <title>Squarepoint Capital</title>
  <path fill="#000000" fill-rule="evenodd" d="M250 106.752L154.849 106.752L154.588 106.491L154.588 95.282L153.024 95.282L153.024 106.23L152.763 106.491L118.092 106.491L118.092 141.423L117.831 141.684L0 141.684L0 143.248L117.831 143.248L118.092 143.509L118.092 154.718L119.395 154.718L119.656 154.458L119.656 143.509L119.917 143.248L154.588 143.248L154.588 108.316L154.849 108.055L250 108.055ZM119.656 108.316L119.917 108.055L152.763 108.055L153.285 108.577L153.285 141.423L153.024 141.684L119.917 141.684L119.656 141.423ZM11.731 116.137L8.863 117.44L7.821 119.265L7.821 121.09L8.081 121.872L9.906 123.697L13.816 125.782L15.12 127.086L15.12 128.91L14.338 129.953L12.774 130.474L9.906 129.953L8.342 128.91L7.56 130.474L9.906 131.778L13.556 132.039L15.12 131.517L16.423 130.474L17.205 128.91L17.205 126.564L15.641 124.479L10.688 121.611L9.906 120.568L9.906 119.526L11.47 117.961L14.338 117.961L16.423 119.004L17.205 117.44L16.163 116.658L14.338 116.137ZM172.836 116.658L165.798 116.397L165.798 131.778L167.623 131.778L167.623 126.303L167.883 126.043L170.751 126.303L172.836 125.782L174.922 123.957L175.443 122.914L175.704 121.611L175.443 119.265L174.922 118.222ZM167.883 117.961L171.011 117.961L172.054 118.222L173.097 119.004L173.618 120.308L173.618 122.132L172.054 124.218L171.533 124.479L167.883 124.479L167.623 124.218L167.623 118.222ZM68.3 120.308L63.608 131.778L65.693 131.778L66.215 129.953L66.997 128.91L71.429 128.91L72.732 131.778L74.557 131.778L69.864 120.308ZM27.633 121.35L26.069 122.654L25.026 124.479L24.765 126.825L25.808 129.692L27.112 130.996L28.676 131.778L30.24 132.039L33.107 134.906L35.454 135.949L36.496 134.645L35.975 134.645L34.15 133.603L32.847 132.039L34.672 131.257L36.496 129.432L37.018 128.389L37.278 125.261L36.757 123.697L34.932 121.611L33.368 120.829L29.718 120.568ZM185.871 121.35L184.307 122.654L183.264 124.479L183.003 126.825L184.046 129.692L186.131 131.517L187.696 132.039L190.824 132.039L192.909 131.257L194.734 129.432L195.516 127.346L195.516 125.261L194.473 122.914L193.17 121.611L190.563 120.568L187.956 120.568ZM45.881 120.829L45.881 128.91L46.663 130.735L47.445 131.517L49.791 132.299L51.616 132.299L53.962 131.517L55.005 130.474L55.527 128.91L55.527 120.829L53.702 120.829L53.702 128.91L52.398 130.474L51.616 130.735L49.009 130.474L47.706 128.91L47.706 120.829ZM82.899 120.829L82.899 131.778L84.724 131.778L84.724 127.607L84.984 127.346L86.288 127.346L86.809 127.868L89.155 131.778L91.241 131.778L88.373 127.346L89.416 126.825L90.719 125.261L90.98 123.697L90.459 122.132L89.677 121.35L88.373 120.829ZM99.844 120.829L99.844 131.778L106.882 131.778L106.882 130.474L101.929 130.474L101.668 130.214L101.668 127.086L101.929 126.825L105.839 126.825L105.839 125.521L101.929 125.521L101.668 125.261L101.668 122.393L101.929 122.132L106.882 122.132L106.882 120.829ZM204.38 120.829L204.38 131.778L206.204 131.778L206.204 120.829ZM216.111 120.829L216.111 131.778L217.935 131.778L217.935 123.957L218.196 123.697L224.713 132.039L226.277 132.039L226.277 120.829L224.713 120.829L224.713 128.65L224.453 128.91L217.935 120.829ZM234.359 120.829L234.359 122.132L238.008 122.132L238.269 122.393L238.269 131.778L240.094 131.778L240.094 122.393L240.355 122.132L244.004 122.132L244.004 120.829ZM29.979 122.132L32.586 122.132L33.629 122.654L34.932 123.957L35.454 125L35.454 127.607L34.932 128.65L32.847 130.474L31.804 130.735L29.718 130.474L28.676 129.953L27.112 127.868L26.851 126.825L27.112 124.739L28.936 122.654ZM84.724 122.393L84.984 122.132L87.591 122.132L88.895 123.175L88.895 124.739L87.852 125.782L84.984 125.782L84.724 125.521ZM187.956 122.132L190.563 122.132L191.606 122.654L193.431 124.739L193.691 125.782L193.431 127.868L192.909 128.91L190.824 130.474L189.781 130.735L187.696 130.474L185.61 128.65L185.089 127.607L185.089 125L185.61 123.957L186.913 122.654ZM69.082 122.914L69.604 123.175L70.907 126.564L70.647 127.346L67.779 127.346L67.518 127.086Z"/>
  <path fill="#9FCBED" fill-rule="evenodd" d="M119.917 108.577L119.917 141.423L152.763 141.423L152.763 108.577Z"/>
</svg>
