<?xml version="1.0" encoding="UTF-8"?>
<svg xmlns="http://www.w3.org/2000/svg" viewBox="0 0 250 250" role="img" aria-label="Toulouse School of Economics logo">
<title>Toulouse School of Economics</title>
<g transform="translate(-27.7452 55.1967) scale(0.1468)">
<path fill="#061987" fill-rule="evenodd" d="M1654 651L1654 762L1673 762L1673 651ZM1840 649L1824 654L1818 658L1812 665L1808 676L1808 686L1812 698L1824 708L1838 712L1856 714L1866 718L1872 725L1873 735L1866 744L1857 748L1848 749L1839 747L1831 743L1824 733L1823 726L1806 726L1806 732L1808 740L1813 749L1822 757L1829 761L1841 764L1859 764L1875 759L1881 755L1887 748L1891 738L1890 719L1887 712L1880 705L1873 701L1858 697L1843 696L1831 691L1826 684L1826 677L1830 670L1839 665L1856 665L1864 669L1870 675L1873 684L1890 684L1890 677L1883 663L1872 654L1856 649ZM1737 649L1718 655L1707 663L1701 670L1696 679L1691 694L1691 719L1696 734L1701 743L1713 755L1724 761L1731 763L1754 764L1767 761L1782 752L1789 744L1793 736L1795 726L1778 726L1773 736L1769 740L1755 747L1739 748L1726 743L1718 736L1711 722L1709 713L1709 700L1713 685L1718 677L1726 670L1740 665L1750 665L1764 670L1774 679L1778 689L1795 689L1795 683L1789 670L1777 658L1768 653L1758 650ZM1468 651L1468 762L1486 762L1486 688L1491 677L1498 670L1509 665L1520 665L1530 670L1535 676L1539 686L1540 762L1558 762L1559 685L1563 677L1570 670L1581 665L1595 666L1602 670L1609 679L1612 689L1612 762L1630 762L1630 682L1625 667L1617 657L1603 650L1585 649L1571 654L1561 662L1557 669L1554 669L1553 665L1549 660L1540 653L1527 649L1512 649L1499 654L1489 663L1487 667L1486 651ZM1384 649L1369 653L1360 658L1345 673L1339 685L1337 693L1336 714L1339 728L1345 740L1361 756L1371 761L1384 764L1402 764L1417 760L1426 755L1440 741L1448 723L1450 709L1447 686L1443 677L1437 668L1427 659L1416 653L1406 650ZM1387 665L1402 666L1412 670L1419 675L1424 681L1429 691L1431 701L1430 720L1424 732L1418 739L1411 744L1398 748L1383 747L1369 740L1361 731L1356 721L1355 715L1355 698L1361 682L1372 671ZM1222 651L1222 762L1240 762L1240 694L1245 681L1256 670L1269 665L1280 666L1288 670L1295 677L1300 690L1300 762L1318 762L1318 688L1315 674L1307 661L1298 654L1288 650L1269 649L1256 653L1250 657L1244 663L1241 669L1240 651ZM1139 649L1124 653L1116 657L1103 668L1097 677L1092 690L1091 717L1093 727L1097 736L1103 745L1114 755L1126 761L1138 764L1156 764L1169 761L1179 756L1195 740L1200 731L1203 720L1204 698L1201 685L1195 673L1180 658L1171 653L1161 650ZM1142 665L1157 666L1172 674L1179 682L1184 692L1185 698L1184 721L1178 733L1167 743L1153 748L1141 748L1126 742L1120 737L1114 729L1109 713L1110 694L1117 680L1128 670ZM1007 653L998 658L987 668L977 688L975 711L978 728L987 745L996 754L1008 761L1021 764L1039 764L1052 761L1069 750L1076 740L1080 726L1062 726L1058 735L1051 742L1040 747L1024 748L1012 744L1002 735L998 729L995 720L994 697L1000 681L1009 671L1024 665L1035 665L1049 670L1057 677L1063 689L1080 689L1079 681L1073 669L1063 659L1052 653L1037 649L1021 649ZM866 608L866 762L966 762L966 745L886 744L887 691L949 691L949 674L886 673L887 625L964 624L964 608ZM1653 605L1653 631L1674 631L1674 605ZM366 561L366 763L534 763L534 701L438 700L439 683L534 682L533 638L438 637L439 620L534 620L534 561ZM1596 441L1577 450L1566 461L1563 466L1556 484L1556 511L1561 525L1572 540L1581 547L1599 554L1614 555L1629 553L1643 547L1650 542L1662 527L1669 506L1669 489L1664 471L1658 461L1647 450L1642 447L1623 440ZM1601 457L1616 456L1623 457L1632 461L1642 470L1648 481L1650 489L1650 506L1648 514L1643 523L1634 532L1625 537L1604 538L1593 534L1583 526L1575 510L1573 497L1577 479L1580 473L1589 463ZM1388 440L1373 445L1363 451L1350 466L1343 485L1343 510L1349 527L1359 540L1370 548L1386 554L1413 554L1422 551L1436 543L1448 529L1452 521L1456 506L1456 488L1450 469L1441 456L1426 445L1415 441ZM1388 457L1404 456L1413 458L1422 463L1429 470L1435 480L1437 489L1437 506L1435 514L1430 523L1421 532L1412 537L1391 538L1386 537L1377 532L1367 521L1361 506L1361 489L1367 473L1376 463ZM1263 440L1244 447L1228 461L1222 472L1218 484L1218 510L1223 525L1234 540L1243 547L1261 554L1287 554L1305 547L1311 543L1321 532L1327 521L1331 506L1330 483L1322 464L1316 456L1301 445L1290 441ZM1263 457L1278 456L1285 457L1294 461L1304 470L1310 481L1312 489L1312 506L1309 516L1299 530L1287 537L1266 538L1255 534L1245 526L1240 518L1236 506L1236 489L1242 473L1251 463ZM1028 440L1016 444L1006 450L996 460L993 465L986 483L986 512L991 526L996 534L1004 543L1011 548L1026 554L1054 554L1071 547L1081 538L1087 528L1090 517L1072 517L1068 526L1062 532L1052 537L1032 538L1023 535L1013 527L1005 511L1003 496L1004 487L1008 475L1012 469L1022 460L1029 457L1044 456L1051 457L1061 462L1070 472L1072 479L1090 479L1090 476L1084 461L1075 451L1069 447L1050 440ZM1748 396L1723 396L1708 402L1702 408L1697 418L1695 441L1673 441L1672 443L1673 457L1696 458L1696 553L1714 553L1715 457L1748 457L1748 441L1714 440L1714 425L1717 419L1724 413L1748 412ZM1470 396L1470 553L1488 553L1488 396ZM1107 397L1108 553L1126 553L1126 485L1132 470L1140 462L1149 457L1167 457L1174 461L1182 470L1186 485L1186 553L1204 553L1204 478L1201 465L1196 456L1190 449L1176 441L1152 440L1138 446L1131 452L1127 458L1126 396ZM902 397L886 402L878 407L867 420L863 435L866 454L870 460L881 470L909 481L930 486L944 493L950 499L953 505L952 521L946 529L933 536L907 537L894 532L885 524L878 511L877 502L858 502L858 507L861 520L866 530L875 541L885 548L902 554L933 554L949 549L957 544L967 534L972 524L974 515L972 497L965 485L952 475L937 469L914 464L899 459L892 455L883 444L883 432L886 426L893 419L906 414L925 414L937 419L948 430L952 443L970 443L969 431L959 413L946 403L929 397ZM397 349L383 358L375 366L368 376L363 389L362 418L365 430L369 438L380 450L393 458L416 466L451 472L460 475L469 481L470 487L469 490L462 495L447 496L437 493L432 488L430 480L359 480L360 499L363 510L368 520L375 529L388 539L396 543L416 549L433 551L467 551L488 548L511 539L523 530L530 522L539 503L541 490L541 473L539 462L533 449L520 435L504 426L489 421L484 421L466 416L459 416L440 411L433 405L432 401L434 397L438 394L446 392L455 392L467 397L470 401L471 407L539 406L538 395L532 377L524 365L511 354L492 345L463 339L437 339L414 343ZM1366 232L1366 306L1368 318L1375 331L1387 341L1398 345L1412 346L1429 341L1438 334L1443 326L1445 344L1462 344L1462 232L1444 232L1443 304L1440 312L1435 319L1429 324L1418 329L1403 328L1397 325L1389 317L1384 302L1384 232ZM1077 232L1077 311L1079 319L1088 334L1097 341L1114 346L1122 346L1132 344L1141 340L1149 333L1154 325L1155 344L1172 344L1172 232L1155 232L1154 302L1146 318L1139 324L1128 329L1113 328L1106 324L1100 318L1095 307L1094 232ZM1628 230L1612 233L1602 238L1590 249L1584 259L1580 270L1579 297L1580 304L1585 317L1590 325L1600 335L1610 341L1619 344L1638 346L1650 344L1668 336L1678 326L1684 314L1684 308L1666 309L1662 318L1655 324L1647 328L1625 329L1614 324L1603 313L1597 299L1598 290L1684 289L1684 276L1679 258L1673 248L1662 238L1648 232ZM1597 274L1603 260L1608 254L1620 247L1630 245L1640 246L1652 251L1661 261L1665 272L1664 276ZM1519 230L1504 233L1495 238L1488 245L1483 260L1484 271L1490 283L1499 289L1512 293L1525 294L1541 299L1546 304L1548 309L1547 319L1543 324L1534 329L1516 329L1505 323L1500 316L1498 308L1481 308L1481 313L1485 325L1494 336L1510 344L1530 346L1549 341L1561 331L1566 319L1566 304L1564 297L1558 288L1548 282L1509 274L1503 269L1501 265L1501 258L1504 253L1510 248L1523 245L1539 250L1546 257L1548 264L1566 264L1561 248L1552 238L1539 232ZM1287 230L1274 232L1262 237L1246 251L1237 268L1234 289L1237 308L1240 315L1247 326L1253 332L1263 339L1276 344L1296 346L1318 340L1331 331L1337 324L1346 307L1348 296L1348 280L1346 269L1340 256L1328 242L1308 232ZM1283 247L1299 247L1310 251L1317 256L1323 263L1329 277L1329 299L1323 313L1313 323L1299 329L1283 329L1271 324L1260 313L1254 300L1254 275L1259 264L1268 254L1274 250ZM997 230L981 233L969 239L957 250L947 269L945 279L945 296L948 310L953 320L963 332L973 339L986 344L1006 346L1026 341L1035 336L1046 326L1056 308L1058 298L1058 278L1056 268L1051 257L1038 242L1022 233L1006 230ZM994 247L1009 247L1019 250L1031 260L1039 275L1040 293L1039 300L1034 312L1022 324L1010 329L994 329L980 323L970 313L964 298L964 278L970 263L977 255L987 249ZM853 189L853 206L902 207L903 344L921 344L922 206L971 206L971 189ZM189 189L190 331L710 330L710 188ZM1198 186L1198 344L1216 343L1215 186Z"/>
</g>
</svg>
