<?xml version="1.0" encoding="UTF-8"?>
<!-- Generated by Pixelmator Pro 3.8 -->
<svg width="250" height="86" viewBox="0 0 250 86" xmlns="http://www.w3.org/2000/svg">
    <g id="Group">
        <path id="Path" fill="#061987" fill-rule="evenodd" stroke="none" d="M 215.061996 68.763496 L 215.061996 85.058296 L 217.851196 85.058296 L 217.851196 68.763496 Z M 242.366806 68.469902 L 240.018005 69.203903 L 239.137207 69.7911 L 238.256393 70.818703 L 237.669205 72.433502 L 237.669205 73.901497 L 238.256393 75.663101 L 240.018005 77.131104 L 242.073196 77.7183 L 244.715607 78.011902 L 246.183594 78.599098 L 247.064407 79.626701 L 247.211197 81.094704 L 246.183594 82.415901 L 244.862396 83.003098 L 243.541199 83.149902 L 242.220001 82.8563 L 241.045593 82.269096 L 240.018005 80.801102 L 239.871201 79.773499 L 237.375595 79.773499 L 237.375595 80.654297 L 237.669205 81.828697 L 238.403198 83.149902 L 239.724396 84.324303 L 240.751999 84.911499 L 242.513596 85.351898 L 245.156006 85.351898 L 247.504807 84.617897 L 248.385605 84.030701 L 249.266403 83.003098 L 249.853607 81.535103 L 249.706802 78.745903 L 249.266403 77.7183 L 248.2388 76.690697 L 247.211197 76.1035 L 245.009201 75.516296 L 242.807205 75.369499 L 241.045593 74.635498 L 240.3116 73.607903 L 240.3116 72.580299 L 240.898804 71.552696 L 242.220001 70.818703 L 244.715607 70.818703 L 245.889999 71.405899 L 246.770798 72.286697 L 247.211197 73.607903 L 249.706802 73.607903 L 249.706802 72.580299 L 248.679199 70.525101 L 247.064407 69.203903 L 244.715607 68.469902 Z M 227.246399 68.469902 L 224.457199 69.3507 L 222.842407 70.525101 L 221.961594 71.552696 L 221.2276 72.873901 L 220.493607 75.075897 L 220.493607 78.745903 L 221.2276 80.947899 L 221.961594 82.269096 L 223.723206 84.030701 L 225.337997 84.911499 L 226.365601 85.205101 L 229.742004 85.351898 L 231.650406 84.911499 L 233.852402 83.590302 L 234.880005 82.415901 L 235.467194 81.241501 L 235.760803 79.773499 L 233.265198 79.773499 L 232.531204 81.241501 L 231.944 81.828697 L 229.888794 82.8563 L 227.539993 83.003098 L 225.631607 82.269096 L 224.457199 81.241501 L 223.429596 79.186302 L 223.136002 77.865097 L 223.136002 75.956703 L 223.723206 73.7547 L 224.457199 72.580299 L 225.631607 71.552696 L 227.686798 70.818703 L 229.1548 70.818703 L 231.210007 71.552696 L 232.677994 72.873901 L 233.265198 74.341904 L 235.760803 74.341904 L 235.760803 73.461098 L 234.880005 71.552696 L 233.118393 69.7911 L 231.797195 69.057098 L 230.329193 68.616699 Z M 187.757202 68.763496 L 187.757202 85.058296 L 190.399597 85.058296 L 190.399597 74.195099 L 191.133606 72.580299 L 192.161194 71.552696 L 193.776001 70.818703 L 195.390793 70.818703 L 196.858795 71.552696 L 197.592804 72.433502 L 198.179993 73.901497 L 198.326797 85.058296 L 200.969193 85.058296 L 201.115997 73.7547 L 201.703201 72.580299 L 202.730804 71.552696 L 204.345596 70.818703 L 206.400803 70.9655 L 207.428406 71.552696 L 208.455994 72.873901 L 208.896393 74.341904 L 208.896393 85.058296 L 211.538803 85.058296 L 211.538803 73.314301 L 210.804794 71.112297 L 209.630402 69.644302 L 207.575195 68.616699 L 204.9328 68.469902 L 202.877594 69.203903 L 201.409607 70.378304 L 200.822403 71.405899 L 200.382004 71.405899 L 200.235199 70.818703 L 199.647995 70.084702 L 198.326797 69.057098 L 196.418396 68.469902 L 194.2164 68.469902 L 192.307999 69.203903 L 190.839996 70.525101 L 190.546402 71.112297 L 190.399597 68.763496 Z M 175.425995 68.469902 L 173.223999 69.057098 L 171.902802 69.7911 L 169.700806 71.993103 L 168.820007 73.7547 L 168.526398 74.9291 L 168.379593 78.011902 L 168.820007 80.067101 L 169.700806 81.828697 L 172.049606 84.177498 L 173.517593 84.911499 L 175.425995 85.351898 L 178.068405 85.351898 L 180.270401 84.764702 L 181.591599 84.030701 L 183.646805 81.975502 L 184.821198 79.333099 L 185.114807 77.277901 L 184.674393 73.901497 L 184.087204 72.580299 L 183.206406 71.259102 L 181.738403 69.937897 L 180.123596 69.057098 L 178.655594 68.616699 Z M 175.866394 70.818703 L 178.068405 70.9655 L 179.536407 71.552696 L 180.563995 72.286697 L 181.298004 73.167503 L 182.031998 74.635498 L 182.325607 76.1035 L 182.178802 78.8927 L 181.298004 80.654297 L 180.417206 81.6819 L 179.389603 82.415901 L 177.481201 83.003098 L 175.279205 82.8563 L 173.223999 81.828697 L 172.049606 80.5075 L 171.315598 79.039497 L 171.168793 78.158699 L 171.168793 75.663101 L 172.049606 73.314301 L 173.664398 71.699501 Z M 151.644394 68.763496 L 151.644394 85.058296 L 154.286804 85.058296 L 154.286804 75.075897 L 155.020798 73.167503 L 156.635605 71.552696 L 158.544006 70.818703 L 160.158798 70.9655 L 161.333206 71.552696 L 162.360794 72.580299 L 163.094803 74.488701 L 163.094803 85.058296 L 165.737198 85.058296 L 165.737198 74.195099 L 165.296799 72.1399 L 164.122406 70.231499 L 162.801193 69.203903 L 161.333206 68.616699 L 158.544006 68.469902 L 156.635605 69.057098 L 155.754807 69.644302 L 154.873993 70.525101 L 154.433594 71.405899 L 154.286804 68.763496 Z M 139.460007 68.469902 L 137.257996 69.057098 L 136.083603 69.644302 L 134.175201 71.259102 L 133.294403 72.580299 L 132.560394 74.488701 L 132.413605 78.452301 L 132.707199 79.920303 L 133.294403 81.241501 L 134.175201 82.562698 L 135.789993 84.030701 L 137.551605 84.911499 L 139.313202 85.351898 L 141.955597 85.351898 L 143.863998 84.911499 L 145.332001 84.177498 L 147.680801 81.828697 L 148.414795 80.5075 L 148.855194 78.8927 L 149.001999 75.663101 L 148.5616 73.7547 L 147.680801 71.993103 L 145.478806 69.7911 L 144.157593 69.057098 L 142.689606 68.616699 Z M 139.900406 70.818703 L 142.102402 70.9655 L 144.304398 72.1399 L 145.332001 73.314301 L 146.065994 74.782303 L 146.212799 75.663101 L 146.065994 79.039497 L 145.185196 80.801102 L 143.570404 82.269096 L 141.515198 83.003098 L 139.753601 83.003098 L 137.551605 82.122299 L 136.670807 81.388298 L 135.789993 80.213898 L 135.056 77.865097 L 135.202805 75.075897 L 136.230392 73.020699 L 137.8452 71.552696 Z M 120.082397 69.057098 L 118.7612 69.7911 L 117.1464 71.259102 L 115.678398 74.195099 L 115.384804 77.571503 L 115.825203 80.067101 L 117.1464 82.562698 L 118.467598 83.883904 L 120.229202 84.911499 L 122.137604 85.351898 L 124.779999 85.351898 L 126.6884 84.911499 L 129.184006 83.2967 L 130.211594 81.828697 L 130.798798 79.773499 L 128.156403 79.773499 L 127.569199 81.094704 L 126.541603 82.122299 L 124.926804 82.8563 L 122.578003 83.003098 L 120.816399 82.415901 L 119.348396 81.094704 L 118.7612 80.213898 L 118.320801 78.8927 L 118.174004 75.516296 L 119.054802 73.167503 L 120.375999 71.699501 L 122.578003 70.818703 L 124.192802 70.818703 L 126.248001 71.552696 L 127.422401 72.580299 L 128.303207 74.341904 L 130.798798 74.341904 L 130.651993 73.167503 L 129.771194 71.405899 L 128.303207 69.937897 L 126.6884 69.057098 L 124.486397 68.469902 L 122.137604 68.469902 Z M 99.383598 62.451103 L 99.383598 85.058296 L 114.063599 85.058296 L 114.063599 82.562698 L 102.319603 82.415901 L 102.4664 74.635498 L 111.568001 74.635498 L 111.568001 72.1399 L 102.319603 71.993103 L 102.4664 64.946701 L 113.769997 64.799896 L 113.769997 62.451103 Z M 214.915207 62.010696 L 214.915207 65.827499 L 217.998001 65.827499 L 217.998001 62.010696 Z M 25.983601 55.551498 L 25.983601 85.205101 L 50.646 85.205101 L 50.646 76.1035 L 36.5532 75.956703 L 36.700001 73.461098 L 50.646 73.314301 L 50.499199 66.855103 L 36.5532 66.708298 L 36.700001 64.2127 L 50.646 64.2127 L 50.646 55.551498 Z M 206.547607 37.935501 L 203.758408 39.256699 L 202.1436 40.871498 L 201.703201 41.605499 L 200.675598 44.247902 L 200.675598 48.211502 L 201.409607 50.266701 L 203.024399 52.468697 L 204.345596 53.4963 L 206.988007 54.523903 L 209.190002 54.6707 L 211.391998 54.377098 L 213.447205 53.4963 L 214.474792 52.762299 L 216.236404 50.560303 L 217.264008 47.477501 L 217.264008 44.981903 L 216.529999 42.3395 L 215.6492 40.871498 L 214.034393 39.256699 L 213.3004 38.816299 L 210.5112 37.788696 Z M 207.281601 40.284302 L 209.483597 40.137497 L 210.5112 40.284302 L 211.832397 40.871498 L 213.3004 42.192703 L 214.181198 43.807503 L 214.474792 44.981903 L 214.474792 47.477501 L 214.181198 48.651901 L 213.447205 49.973099 L 212.126007 51.294296 L 210.804794 52.028297 L 207.722 52.175102 L 206.107193 51.587898 L 204.639206 50.413498 L 203.464798 48.064697 L 203.171204 46.156303 L 203.758408 43.513901 L 204.198807 42.633102 L 205.520004 41.1651 Z M 176.013199 37.788696 L 173.811203 38.522705 L 172.343201 39.403503 L 170.434799 41.605499 L 169.407196 44.394699 L 169.407196 48.064697 L 170.287994 50.560303 L 171.755997 52.468697 L 173.370804 53.643097 L 175.719604 54.523903 L 179.683197 54.523903 L 181.004395 54.083504 L 183.059601 52.909103 L 184.821198 50.853897 L 185.408401 49.679497 L 185.995605 47.477501 L 185.995605 44.835098 L 185.114807 42.045898 L 183.793594 40.137497 L 181.591599 38.522705 L 179.976807 37.935501 Z M 176.013199 40.284302 L 178.362 40.137497 L 179.683197 40.431099 L 181.004395 41.1651 L 182.031998 42.192703 L 182.912796 43.660698 L 183.206406 44.981903 L 183.206406 47.477501 L 182.912796 48.651901 L 182.178802 49.973099 L 180.857605 51.294296 L 179.536407 52.028297 L 176.453598 52.175102 L 175.719604 52.028297 L 174.398407 51.294296 L 172.930405 49.679497 L 172.049606 47.477501 L 172.049606 44.981903 L 172.930405 42.633102 L 174.251602 41.1651 Z M 157.663193 37.788696 L 154.873993 38.816299 L 152.525208 40.871498 L 151.644394 42.486298 L 151.057205 44.247902 L 151.057205 48.064697 L 151.791199 50.266701 L 153.406006 52.468697 L 154.727203 53.4963 L 157.369598 54.523903 L 161.186401 54.523903 L 163.828796 53.4963 L 164.709595 52.909103 L 166.177597 51.294296 L 167.058395 49.679497 L 167.645599 47.477501 L 167.498795 44.101097 L 166.324402 41.311897 L 165.443604 40.137497 L 163.241592 38.522705 L 161.626801 37.935501 Z M 157.663193 40.284302 L 159.865204 40.137497 L 160.892807 40.284302 L 162.214005 40.871498 L 163.682007 42.192703 L 164.562805 43.807503 L 164.8564 44.981903 L 164.8564 47.477501 L 164.416 48.945503 L 162.947998 51.000702 L 161.186401 52.028297 L 158.103607 52.175102 L 156.4888 51.587898 L 155.020798 50.413498 L 154.286804 49.239098 L 153.6996 47.477501 L 153.6996 44.981903 L 154.580399 42.633102 L 155.901596 41.1651 Z M 123.165199 37.788696 L 121.403603 38.3759 L 119.9356 39.256699 L 118.467598 40.724701 L 118.027199 41.458702 L 116.999603 44.101097 L 116.999603 48.358299 L 117.733597 50.413498 L 118.467598 51.587898 L 119.641998 52.909103 L 120.669601 53.643097 L 122.871597 54.523903 L 126.982002 54.523903 L 129.4776 53.4963 L 130.945602 52.175102 L 131.826401 50.7071 L 132.2668 49.0923 L 129.624405 49.0923 L 129.037201 50.413498 L 128.156403 51.294296 L 126.6884 52.028297 L 123.752403 52.175102 L 122.431198 51.734703 L 120.963203 50.560303 L 119.788803 48.211502 L 119.495201 46.009499 L 119.641998 44.688301 L 120.229202 42.926697 L 120.816399 42.045898 L 122.284401 40.724701 L 123.311996 40.284302 L 125.514 40.137497 L 126.541603 40.284302 L 128.009598 41.018303 L 129.330795 42.486298 L 129.624405 43.513901 L 132.2668 43.513901 L 132.2668 43.073502 L 131.386002 40.871498 L 130.064804 39.403503 L 129.184006 38.816299 L 126.394798 37.788696 Z M 228.861206 31.329498 L 225.191193 31.329498 L 222.989197 32.210297 L 222.108398 33.091095 L 221.374405 34.559097 L 221.080795 37.935501 L 217.851196 37.935501 L 217.704407 38.229095 L 217.851196 40.284302 L 221.2276 40.431099 L 221.2276 54.377098 L 223.869995 54.377098 L 224.0168 40.284302 L 228.861206 40.284302 L 228.861206 37.935501 L 223.869995 37.788696 L 223.869995 35.5867 L 224.310394 34.705902 L 225.337997 33.825104 L 228.861206 33.678299 Z M 188.050797 31.329498 L 188.050797 54.377098 L 190.693207 54.377098 L 190.693207 31.329498 Z M 134.762405 31.476303 L 134.909195 54.377098 L 137.551605 54.377098 L 137.551605 44.394699 L 138.432404 42.192703 L 139.606796 41.018303 L 140.927994 40.284302 L 143.570404 40.284302 L 144.598007 40.871498 L 145.7724 42.192703 L 146.359604 44.394699 L 146.359604 54.377098 L 149.001999 54.377098 L 149.001999 43.367104 L 148.5616 41.458702 L 147.827606 40.137497 L 146.946793 39.109894 L 144.891602 37.935501 L 141.368393 37.788696 L 139.313202 38.669495 L 138.285599 39.550293 L 137.698395 40.431099 L 137.551605 31.329498 Z M 104.668404 31.476303 L 102.319603 32.210297 L 101.145203 32.944305 L 99.530403 34.852707 L 98.943199 37.054703 L 99.383598 39.843903 L 99.970802 40.724701 L 101.585602 42.192703 L 105.695999 43.807503 L 108.778801 44.541496 L 110.834 45.569099 L 111.714798 46.449898 L 112.155197 47.330704 L 112.0084 49.679497 L 111.127602 50.853897 L 109.2192 51.8815 L 105.402397 52.028297 L 103.494003 51.294296 L 102.172798 50.119904 L 101.145203 48.211502 L 100.998398 46.890297 L 98.209198 46.890297 L 98.209198 47.624298 L 98.649597 49.5327 L 99.383598 51.000702 L 100.704803 52.615501 L 102.172798 53.643097 L 104.668404 54.523903 L 109.2192 54.523903 L 111.568001 53.789902 L 112.742401 53.055901 L 114.210403 51.587898 L 114.944397 50.119904 L 115.237999 48.798698 L 114.944397 46.156303 L 113.916801 44.394699 L 112.0084 42.926697 L 109.806396 42.045898 L 106.43 41.311897 L 104.227997 40.577904 L 103.200401 39.990707 L 101.879204 38.3759 L 101.879204 36.614304 L 102.319603 35.733505 L 103.347198 34.705902 L 105.2556 33.971893 L 108.0448 33.971893 L 109.806396 34.705902 L 111.421204 36.320694 L 112.0084 38.229095 L 114.650803 38.229095 L 114.503998 36.467499 L 113.036003 33.825104 L 111.127602 32.357101 L 108.632004 31.476303 Z M 30.534401 24.429901 L 28.4792 25.751099 L 27.3048 26.925507 L 26.277201 28.393494 L 25.5432 30.301895 L 25.3964 34.559097 L 25.8368 36.320694 L 26.424 37.495102 L 28.038799 39.256699 L 29.947201 40.431099 L 33.323601 41.605499 L 38.461601 42.486298 L 39.782799 42.926697 L 41.104 43.807503 L 41.250801 44.688301 L 41.104 45.1287 L 40.076401 45.862701 L 37.874401 46.009499 L 36.406399 45.569099 L 35.672401 44.835098 L 35.378799 43.660698 L 24.955999 43.660698 L 25.1028 46.449898 L 25.5432 48.064697 L 26.277201 49.5327 L 27.3048 50.853897 L 29.2132 52.321899 L 30.3876 52.909103 L 33.323601 53.789902 L 35.819199 54.083504 L 40.810398 54.083504 L 43.8932 53.643097 L 47.2696 52.321899 L 49.0312 51.000702 L 50.0588 49.826302 L 51.380001 47.037102 L 51.673599 45.1287 L 51.673599 42.633102 L 51.380001 41.018303 L 50.499199 39.109894 L 48.590801 37.054703 L 46.242001 35.733505 L 44.040001 34.999496 L 43.306 34.999496 L 40.663601 34.265503 L 39.636002 34.265503 L 36.846802 33.531494 L 35.819199 32.650696 L 35.672401 32.063507 L 35.966 31.476303 L 36.5532 31.035904 L 37.7276 30.742294 L 39.048801 30.742294 L 40.810398 31.476303 L 41.250801 32.063507 L 41.397598 32.944305 L 51.380001 32.797501 L 51.2332 31.182693 L 50.352402 28.540298 L 49.178001 26.778702 L 47.2696 25.163895 L 44.4804 23.842697 L 40.223202 22.961899 L 36.406399 22.961899 L 33.029999 23.549103 Z M 172.7836 7.254303 L 172.7836 18.117493 L 173.077194 19.879105 L 174.104797 21.787506 L 175.866394 23.255493 L 177.481201 23.842697 L 179.536407 23.989502 L 182.031998 23.255493 L 183.353195 22.227905 L 184.087204 21.053497 L 184.380798 23.695908 L 186.876404 23.695908 L 186.876404 7.254303 L 184.233994 7.254303 L 184.087204 17.823898 L 183.646805 18.998306 L 182.912796 20.025894 L 182.031998 20.759903 L 180.417206 21.493896 L 178.215195 21.347107 L 177.334396 20.906693 L 176.160004 19.7323 L 175.425995 17.530304 L 175.425995 7.254303 Z M 130.358398 7.254303 L 130.358398 18.851501 L 130.651993 20.025894 L 131.973206 22.227905 L 133.294403 23.255493 L 135.789993 23.989502 L 136.964401 23.989502 L 138.432404 23.695908 L 139.753601 23.108704 L 140.927994 22.0811 L 141.662003 20.906693 L 141.808807 23.695908 L 144.304398 23.695908 L 144.304398 7.254303 L 141.808807 7.254303 L 141.662003 17.530304 L 140.487595 19.879105 L 139.460007 20.759903 L 137.8452 21.493896 L 135.643204 21.347107 L 134.615601 20.759903 L 133.734802 19.879105 L 133.000793 18.264297 L 132.854004 7.254303 Z M 211.245193 6.960693 L 208.896393 7.401093 L 207.428406 8.135101 L 205.666794 9.749893 L 204.785995 11.217896 L 204.198807 12.832703 L 204.052002 16.796295 L 204.198807 17.823898 L 204.9328 19.7323 L 205.666794 20.906693 L 207.134796 22.374695 L 208.602798 23.255493 L 209.923996 23.695908 L 212.713196 23.989502 L 214.474792 23.695908 L 217.117203 22.5215 L 218.585205 21.053497 L 219.466003 19.291901 L 219.466003 18.411102 L 216.823593 18.557907 L 216.236404 19.879105 L 215.208801 20.759903 L 214.034393 21.347107 L 210.804794 21.493896 L 209.190002 20.759903 L 207.575195 19.145096 L 206.694397 17.089905 L 206.841202 15.768707 L 219.466003 15.621902 L 219.466003 13.713501 L 218.731995 11.071106 L 217.851196 9.603104 L 216.236404 8.135101 L 214.181198 7.254303 Z M 206.694397 13.419907 L 207.575195 11.3647 L 208.309204 10.483902 L 210.070801 9.456299 L 211.538803 9.162704 L 213.006805 9.309494 L 214.768402 10.043503 L 216.0896 11.511505 L 216.676804 13.126297 L 216.529999 13.713501 Z M 195.244003 6.960693 L 193.042007 7.401093 L 191.720795 8.135101 L 190.693207 9.162704 L 189.959198 11.3647 L 190.106003 12.979507 L 190.986801 14.741104 L 192.307999 15.621902 L 194.2164 16.209106 L 196.124802 16.355896 L 198.473602 17.089905 L 199.207596 17.823898 L 199.501205 18.557907 L 199.354401 20.025894 L 198.767197 20.759903 L 197.445999 21.493896 L 194.803604 21.493896 L 193.188797 20.613098 L 192.454803 19.585495 L 192.161194 18.411102 L 189.665604 18.411102 L 189.665604 19.145096 L 190.252808 20.906693 L 191.574005 22.5215 L 193.922806 23.695908 L 196.858795 23.989502 L 199.647995 23.255493 L 201.409607 21.787506 L 202.1436 20.025894 L 202.1436 17.823898 L 201.850006 16.796295 L 200.969193 15.475098 L 199.501205 14.594299 L 193.776001 13.419907 L 192.895203 12.685898 L 192.601593 12.098694 L 192.601593 11.071106 L 193.042007 10.337097 L 193.922806 9.603104 L 195.831207 9.162704 L 198.179993 9.896698 L 199.207596 10.924301 L 199.501205 11.951904 L 202.1436 11.951904 L 201.409607 9.603104 L 200.088394 8.135101 L 198.179993 7.254303 Z M 161.186401 6.960693 L 159.278 7.254303 L 157.516403 7.988297 L 155.167603 10.043503 L 153.846405 12.539093 L 153.406006 15.621902 L 153.846405 18.411102 L 154.286804 19.438705 L 155.314407 21.053497 L 156.195206 21.934296 L 157.663193 22.961899 L 159.571594 23.695908 L 162.507599 23.989502 L 165.737198 23.108704 L 167.645599 21.787506 L 168.526398 20.759903 L 169.847595 18.264297 L 170.141205 16.649506 L 170.141205 14.300705 L 169.847595 12.685898 L 168.966797 10.777496 L 167.2052 8.722305 L 164.269196 7.254303 Z M 160.599197 9.456299 L 162.947998 9.456299 L 164.562805 10.043503 L 165.590393 10.777496 L 166.471207 11.805099 L 167.352005 13.860306 L 167.352005 17.089905 L 166.471207 19.145096 L 165.003204 20.613098 L 162.947998 21.493896 L 160.599197 21.493896 L 158.837601 20.759903 L 157.222794 19.145096 L 156.341995 17.236694 L 156.341995 13.566696 L 157.076004 11.951904 L 158.397202 10.483902 L 159.278 9.896698 Z M 118.614403 6.960693 L 116.265602 7.401093 L 114.503998 8.281906 L 112.742401 9.896698 L 111.274399 12.685898 L 110.980797 14.1539 L 110.980797 16.649506 L 111.421204 18.704697 L 112.155197 20.172699 L 113.623199 21.934296 L 115.091202 22.961899 L 116.999603 23.695908 L 119.9356 23.989502 L 122.871597 23.255493 L 124.192802 22.5215 L 125.807602 21.053497 L 127.275597 18.411102 L 127.569199 16.9431 L 127.569199 14.007095 L 127.275597 12.539093 L 126.541603 10.924301 L 124.633202 8.722305 L 122.284401 7.401093 L 119.9356 6.960693 Z M 118.174004 9.456299 L 120.375999 9.456299 L 121.844002 9.896698 L 123.605598 11.3647 L 124.779999 13.566696 L 124.926804 16.209106 L 124.779999 17.236694 L 124.045998 18.998306 L 122.284401 20.759903 L 120.522797 21.493896 L 118.174004 21.493896 L 116.118797 20.613098 L 114.650803 19.145096 L 113.769997 16.9431 L 113.769997 14.007095 L 114.650803 11.805099 L 115.678398 10.630707 L 117.1464 9.749893 Z M 97.475197 0.941895 L 97.475197 3.4375 L 104.668404 3.584305 L 104.815201 23.695908 L 107.457603 23.695908 L 107.604401 3.4375 L 114.7976 3.4375 L 114.7976 0.941895 Z M 0 0.941895 L 0.1468 21.787506 L 76.482803 21.640701 L 76.482803 0.795105 Z M 148.121201 0.501495 L 148.121201 23.695908 L 150.763596 23.549103 L 150.616806 0.501495 Z"/>
    </g>
</svg>
