<?xml version="1.0" encoding="UTF-8"?>
<!-- Generated by Pixelmator Pro 3.8 -->
<svg width="250" height="95" viewBox="0 0 250 95" xmlns="http://www.w3.org/2000/svg">
    <g id="Group">
        <path id="Path" fill="#061987" fill-rule="evenodd" stroke="none" d="M 215.061996 73.763496 L 215.061996 90.058296 L 217.851196 90.058296 L 217.851196 73.763496 Z M 242.366806 73.469902 L 240.018005 74.203903 L 239.137207 74.7911 L 238.256393 75.818703 L 237.669205 77.433502 L 237.669205 78.901497 L 238.256393 80.663101 L 240.018005 82.131104 L 242.073196 82.7183 L 244.715607 83.011902 L 246.183594 83.599098 L 247.064407 84.626701 L 247.211197 86.094704 L 246.183594 87.415901 L 244.862396 88.003098 L 243.541199 88.149902 L 242.220001 87.8563 L 241.045593 87.269096 L 240.018005 85.801102 L 239.871201 84.773499 L 237.375595 84.773499 L 237.375595 85.654297 L 237.669205 86.828697 L 238.403198 88.149902 L 239.724396 89.324303 L 240.751999 89.911499 L 242.513596 90.351898 L 245.156006 90.351898 L 247.504807 89.617897 L 248.385605 89.030701 L 249.266403 88.003098 L 249.853607 86.535103 L 249.706802 83.745903 L 249.266403 82.7183 L 248.2388 81.690697 L 247.211197 81.1035 L 245.009201 80.516296 L 242.807205 80.369499 L 241.045593 79.635498 L 240.3116 78.607903 L 240.3116 77.580299 L 240.898804 76.552696 L 242.220001 75.818703 L 244.715607 75.818703 L 245.889999 76.405899 L 246.770798 77.286697 L 247.211197 78.607903 L 249.706802 78.607903 L 249.706802 77.580299 L 248.679199 75.525101 L 247.064407 74.203903 L 244.715607 73.469902 Z M 227.246399 73.469902 L 224.457199 74.3507 L 222.842407 75.525101 L 221.961594 76.552696 L 221.2276 77.873901 L 220.493607 80.075897 L 220.493607 83.745903 L 221.2276 85.947899 L 221.961594 87.269096 L 223.723206 89.030701 L 225.337997 89.911499 L 226.365601 90.205101 L 229.742004 90.351898 L 231.650406 89.911499 L 233.852402 88.590302 L 234.880005 87.415901 L 235.467194 86.241501 L 235.760803 84.773499 L 233.265198 84.773499 L 232.531204 86.241501 L 231.944 86.828697 L 229.888794 87.8563 L 227.539993 88.003098 L 225.631607 87.269096 L 224.457199 86.241501 L 223.429596 84.186302 L 223.136002 82.865097 L 223.136002 80.956703 L 223.723206 78.7547 L 224.457199 77.580299 L 225.631607 76.552696 L 227.686798 75.818703 L 229.1548 75.818703 L 231.210007 76.552696 L 232.677994 77.873901 L 233.265198 79.341904 L 235.760803 79.341904 L 235.760803 78.461098 L 234.880005 76.552696 L 233.118393 74.7911 L 231.797195 74.057098 L 230.329193 73.616699 Z M 187.757202 73.763496 L 187.757202 90.058296 L 190.399597 90.058296 L 190.399597 79.195099 L 191.133606 77.580299 L 192.161194 76.552696 L 193.776001 75.818703 L 195.390793 75.818703 L 196.858795 76.552696 L 197.592804 77.433502 L 198.179993 78.901497 L 198.326797 90.058296 L 200.969193 90.058296 L 201.115997 78.7547 L 201.703201 77.580299 L 202.730804 76.552696 L 204.345596 75.818703 L 206.400803 75.9655 L 207.428406 76.552696 L 208.455994 77.873901 L 208.896393 79.341904 L 208.896393 90.058296 L 211.538803 90.058296 L 211.538803 78.314301 L 210.804794 76.112297 L 209.630402 74.644302 L 207.575195 73.616699 L 204.9328 73.469902 L 202.877594 74.203903 L 201.409607 75.378304 L 200.822403 76.405899 L 200.382004 76.405899 L 200.235199 75.818703 L 199.647995 75.084702 L 198.326797 74.057098 L 196.418396 73.469902 L 194.2164 73.469902 L 192.307999 74.203903 L 190.839996 75.525101 L 190.546402 76.112297 L 190.399597 73.763496 Z M 175.425995 73.469902 L 173.223999 74.057098 L 171.902802 74.7911 L 169.700806 76.993103 L 168.820007 78.7547 L 168.526398 79.9291 L 168.379593 83.011902 L 168.820007 85.067101 L 169.700806 86.828697 L 172.049606 89.177498 L 173.517593 89.911499 L 175.425995 90.351898 L 178.068405 90.351898 L 180.270401 89.764702 L 181.591599 89.030701 L 183.646805 86.975502 L 184.821198 84.333099 L 185.114807 82.277901 L 184.674393 78.901497 L 184.087204 77.580299 L 183.206406 76.259102 L 181.738403 74.937897 L 180.123596 74.057098 L 178.655594 73.616699 Z M 175.866394 75.818703 L 178.068405 75.9655 L 179.536407 76.552696 L 180.563995 77.286697 L 181.298004 78.167503 L 182.031998 79.635498 L 182.325607 81.1035 L 182.178802 83.8927 L 181.298004 85.654297 L 180.417206 86.6819 L 179.389603 87.415901 L 177.481201 88.003098 L 175.279205 87.8563 L 173.223999 86.828697 L 172.049606 85.5075 L 171.315598 84.039497 L 171.168793 83.158699 L 171.168793 80.663101 L 172.049606 78.314301 L 173.664398 76.699501 Z M 151.644394 73.763496 L 151.644394 90.058296 L 154.286804 90.058296 L 154.286804 80.075897 L 155.020798 78.167503 L 156.635605 76.552696 L 158.544006 75.818703 L 160.158798 75.9655 L 161.333206 76.552696 L 162.360794 77.580299 L 163.094803 79.488701 L 163.094803 90.058296 L 165.737198 90.058296 L 165.737198 79.195099 L 165.296799 77.1399 L 164.122406 75.231499 L 162.801193 74.203903 L 161.333206 73.616699 L 158.544006 73.469902 L 156.635605 74.057098 L 155.754807 74.644302 L 154.873993 75.525101 L 154.433594 76.405899 L 154.286804 73.763496 Z M 139.460007 73.469902 L 137.257996 74.057098 L 136.083603 74.644302 L 134.175201 76.259102 L 133.294403 77.580299 L 132.560394 79.488701 L 132.413605 83.452301 L 132.707199 84.920303 L 133.294403 86.241501 L 134.175201 87.562698 L 135.789993 89.030701 L 137.551605 89.911499 L 139.313202 90.351898 L 141.955597 90.351898 L 143.863998 89.911499 L 145.332001 89.177498 L 147.680801 86.828697 L 148.414795 85.5075 L 148.855194 83.8927 L 149.001999 80.663101 L 148.5616 78.7547 L 147.680801 76.993103 L 145.478806 74.7911 L 144.157593 74.057098 L 142.689606 73.616699 Z M 139.900406 75.818703 L 142.102402 75.9655 L 144.304398 77.1399 L 145.332001 78.314301 L 146.065994 79.782303 L 146.212799 80.663101 L 146.065994 84.039497 L 145.185196 85.801102 L 143.570404 87.269096 L 141.515198 88.003098 L 139.753601 88.003098 L 137.551605 87.122299 L 136.670807 86.388298 L 135.789993 85.213898 L 135.056 82.865097 L 135.202805 80.075897 L 136.230392 78.020699 L 137.8452 76.552696 Z M 120.082397 74.057098 L 118.7612 74.7911 L 117.1464 76.259102 L 115.678398 79.195099 L 115.384804 82.571503 L 115.825203 85.067101 L 117.1464 87.562698 L 118.467598 88.883904 L 120.229202 89.911499 L 122.137604 90.351898 L 124.779999 90.351898 L 126.6884 89.911499 L 129.184006 88.2967 L 130.211594 86.828697 L 130.798798 84.773499 L 128.156403 84.773499 L 127.569199 86.094704 L 126.541603 87.122299 L 124.926804 87.8563 L 122.578003 88.003098 L 120.816399 87.415901 L 119.348396 86.094704 L 118.7612 85.213898 L 118.320801 83.8927 L 118.174004 80.516296 L 119.054802 78.167503 L 120.375999 76.699501 L 122.578003 75.818703 L 124.192802 75.818703 L 126.248001 76.552696 L 127.422401 77.580299 L 128.303207 79.341904 L 130.798798 79.341904 L 130.651993 78.167503 L 129.771194 76.405899 L 128.303207 74.937897 L 126.6884 74.057098 L 124.486397 73.469902 L 122.137604 73.469902 Z M 99.383598 67.451103 L 99.383598 90.058296 L 114.063599 90.058296 L 114.063599 87.562698 L 102.319603 87.415901 L 102.4664 79.635498 L 111.568001 79.635498 L 111.568001 77.1399 L 102.319603 76.993103 L 102.4664 69.946701 L 113.769997 69.799896 L 113.769997 67.451103 Z M 214.915207 67.010696 L 214.915207 70.827499 L 217.998001 70.827499 L 217.998001 67.010696 Z M 25.983601 60.551498 L 25.983601 90.205101 L 50.646 90.205101 L 50.646 81.1035 L 36.5532 80.956703 L 36.700001 78.461098 L 50.646 78.314301 L 50.499199 71.855103 L 36.5532 71.708298 L 36.700001 69.2127 L 50.646 69.2127 L 50.646 60.551498 Z M 206.547607 42.935501 L 203.758408 44.256699 L 202.1436 45.871498 L 201.703201 46.605499 L 200.675598 49.247902 L 200.675598 53.211502 L 201.409607 55.266701 L 203.024399 57.468697 L 204.345596 58.4963 L 206.988007 59.523903 L 209.190002 59.6707 L 211.391998 59.377098 L 213.447205 58.4963 L 214.474792 57.762299 L 216.236404 55.560303 L 217.264008 52.477501 L 217.264008 49.981903 L 216.529999 47.3395 L 215.6492 45.871498 L 214.034393 44.256699 L 213.3004 43.816299 L 210.5112 42.788696 Z M 207.281601 45.284302 L 209.483597 45.137497 L 210.5112 45.284302 L 211.832397 45.871498 L 213.3004 47.192703 L 214.181198 48.807503 L 214.474792 49.981903 L 214.474792 52.477501 L 214.181198 53.651901 L 213.447205 54.973099 L 212.126007 56.294296 L 210.804794 57.028297 L 207.722 57.175102 L 206.107193 56.587898 L 204.639206 55.413498 L 203.464798 53.064697 L 203.171204 51.156303 L 203.758408 48.513901 L 204.198807 47.633102 L 205.520004 46.1651 Z M 176.013199 42.788696 L 173.811203 43.522705 L 172.343201 44.403503 L 170.434799 46.605499 L 169.407196 49.394699 L 169.407196 53.064697 L 170.287994 55.560303 L 171.755997 57.468697 L 173.370804 58.643097 L 175.719604 59.523903 L 179.683197 59.523903 L 181.004395 59.083504 L 183.059601 57.909103 L 184.821198 55.853897 L 185.408401 54.679497 L 185.995605 52.477501 L 185.995605 49.835098 L 185.114807 47.045898 L 183.793594 45.137497 L 181.591599 43.522705 L 179.976807 42.935501 Z M 176.013199 45.284302 L 178.362 45.137497 L 179.683197 45.431099 L 181.004395 46.1651 L 182.031998 47.192703 L 182.912796 48.660698 L 183.206406 49.981903 L 183.206406 52.477501 L 182.912796 53.651901 L 182.178802 54.973099 L 180.857605 56.294296 L 179.536407 57.028297 L 176.453598 57.175102 L 175.719604 57.028297 L 174.398407 56.294296 L 172.930405 54.679497 L 172.049606 52.477501 L 172.049606 49.981903 L 172.930405 47.633102 L 174.251602 46.1651 Z M 157.663193 42.788696 L 154.873993 43.816299 L 152.525208 45.871498 L 151.644394 47.486298 L 151.057205 49.247902 L 151.057205 53.064697 L 151.791199 55.266701 L 153.406006 57.468697 L 154.727203 58.4963 L 157.369598 59.523903 L 161.186401 59.523903 L 163.828796 58.4963 L 164.709595 57.909103 L 166.177597 56.294296 L 167.058395 54.679497 L 167.645599 52.477501 L 167.498795 49.101097 L 166.324402 46.311897 L 165.443604 45.137497 L 163.241592 43.522705 L 161.626801 42.935501 Z M 157.663193 45.284302 L 159.865204 45.137497 L 160.892807 45.284302 L 162.214005 45.871498 L 163.682007 47.192703 L 164.562805 48.807503 L 164.8564 49.981903 L 164.8564 52.477501 L 164.416 53.945503 L 162.947998 56.000702 L 161.186401 57.028297 L 158.103607 57.175102 L 156.4888 56.587898 L 155.020798 55.413498 L 154.286804 54.239098 L 153.6996 52.477501 L 153.6996 49.981903 L 154.580399 47.633102 L 155.901596 46.1651 Z M 123.165199 42.788696 L 121.403603 43.3759 L 119.9356 44.256699 L 118.467598 45.724701 L 118.027199 46.458702 L 116.999603 49.101097 L 116.999603 53.358299 L 117.733597 55.413498 L 118.467598 56.587898 L 119.641998 57.909103 L 120.669601 58.643097 L 122.871597 59.523903 L 126.982002 59.523903 L 129.4776 58.4963 L 130.945602 57.175102 L 131.826401 55.7071 L 132.2668 54.0923 L 129.624405 54.0923 L 129.037201 55.413498 L 128.156403 56.294296 L 126.6884 57.028297 L 123.752403 57.175102 L 122.431198 56.734703 L 120.963203 55.560303 L 119.788803 53.211502 L 119.495201 51.009499 L 119.641998 49.688301 L 120.229202 47.926697 L 120.816399 47.045898 L 122.284401 45.724701 L 123.311996 45.284302 L 125.514 45.137497 L 126.541603 45.284302 L 128.009598 46.018303 L 129.330795 47.486298 L 129.624405 48.513901 L 132.2668 48.513901 L 132.2668 48.073502 L 131.386002 45.871498 L 130.064804 44.403503 L 129.184006 43.816299 L 126.394798 42.788696 Z M 228.861206 36.329498 L 225.191193 36.329498 L 222.989197 37.210297 L 222.108398 38.091095 L 221.374405 39.559097 L 221.080795 42.935501 L 217.851196 42.935501 L 217.704407 43.229095 L 217.851196 45.284302 L 221.2276 45.431099 L 221.2276 59.377098 L 223.869995 59.377098 L 224.0168 45.284302 L 228.861206 45.284302 L 228.861206 42.935501 L 223.869995 42.788696 L 223.869995 40.5867 L 224.310394 39.705902 L 225.337997 38.825104 L 228.861206 38.678299 Z M 188.050797 36.329498 L 188.050797 59.377098 L 190.693207 59.377098 L 190.693207 36.329498 Z M 134.762405 36.476303 L 134.909195 59.377098 L 137.551605 59.377098 L 137.551605 49.394699 L 138.432404 47.192703 L 139.606796 46.018303 L 140.927994 45.284302 L 143.570404 45.284302 L 144.598007 45.871498 L 145.7724 47.192703 L 146.359604 49.394699 L 146.359604 59.377098 L 149.001999 59.377098 L 149.001999 48.367104 L 148.5616 46.458702 L 147.827606 45.137497 L 146.946793 44.109894 L 144.891602 42.935501 L 141.368393 42.788696 L 139.313202 43.669495 L 138.285599 44.550293 L 137.698395 45.431099 L 137.551605 36.329498 Z M 104.668404 36.476303 L 102.319603 37.210297 L 101.145203 37.944305 L 99.530403 39.852707 L 98.943199 42.054703 L 99.383598 44.843903 L 99.970802 45.724701 L 101.585602 47.192703 L 105.695999 48.807503 L 108.778801 49.541496 L 110.834 50.569099 L 111.714798 51.449898 L 112.155197 52.330704 L 112.0084 54.679497 L 111.127602 55.853897 L 109.2192 56.8815 L 105.402397 57.028297 L 103.494003 56.294296 L 102.172798 55.119904 L 101.145203 53.211502 L 100.998398 51.890297 L 98.209198 51.890297 L 98.209198 52.624298 L 98.649597 54.5327 L 99.383598 56.000702 L 100.704803 57.615501 L 102.172798 58.643097 L 104.668404 59.523903 L 109.2192 59.523903 L 111.568001 58.789902 L 112.742401 58.055901 L 114.210403 56.587898 L 114.944397 55.119904 L 115.237999 53.798698 L 114.944397 51.156303 L 113.916801 49.394699 L 112.0084 47.926697 L 109.806396 47.045898 L 106.43 46.311897 L 104.227997 45.577904 L 103.200401 44.990707 L 101.879204 43.3759 L 101.879204 41.614304 L 102.319603 40.733505 L 103.347198 39.705902 L 105.2556 38.971893 L 108.0448 38.971893 L 109.806396 39.705902 L 111.421204 41.320694 L 112.0084 43.229095 L 114.650803 43.229095 L 114.503998 41.467499 L 113.036003 38.825104 L 111.127602 37.357101 L 108.632004 36.476303 Z M 30.534401 29.429901 L 28.4792 30.751099 L 27.3048 31.925507 L 26.277201 33.393494 L 25.5432 35.301895 L 25.3964 39.559097 L 25.8368 41.320694 L 26.424 42.495102 L 28.038799 44.256699 L 29.947201 45.431099 L 33.323601 46.605499 L 38.461601 47.486298 L 39.782799 47.926697 L 41.104 48.807503 L 41.250801 49.688301 L 41.104 50.1287 L 40.076401 50.862701 L 37.874401 51.009499 L 36.406399 50.569099 L 35.672401 49.835098 L 35.378799 48.660698 L 24.955999 48.660698 L 25.1028 51.449898 L 25.5432 53.064697 L 26.277201 54.5327 L 27.3048 55.853897 L 29.2132 57.321899 L 30.3876 57.909103 L 33.323601 58.789902 L 35.819199 59.083504 L 40.810398 59.083504 L 43.8932 58.643097 L 47.2696 57.321899 L 49.0312 56.000702 L 50.0588 54.826302 L 51.380001 52.037102 L 51.673599 50.1287 L 51.673599 47.633102 L 51.380001 46.018303 L 50.499199 44.109894 L 48.590801 42.054703 L 46.242001 40.733505 L 44.040001 39.999496 L 43.306 39.999496 L 40.663601 39.265503 L 39.636002 39.265503 L 36.846802 38.531494 L 35.819199 37.650696 L 35.672401 37.063507 L 35.966 36.476303 L 36.5532 36.035904 L 37.7276 35.742294 L 39.048801 35.742294 L 40.810398 36.476303 L 41.250801 37.063507 L 41.397598 37.944305 L 51.380001 37.797501 L 51.2332 36.182693 L 50.352402 33.540298 L 49.178001 31.778702 L 47.2696 30.163895 L 44.4804 28.842697 L 40.223202 27.961899 L 36.406399 27.961899 L 33.029999 28.549103 Z M 172.7836 12.254303 L 172.7836 23.117493 L 173.077194 24.879105 L 174.104797 26.787506 L 175.866394 28.255493 L 177.481201 28.842697 L 179.536407 28.989502 L 182.031998 28.255493 L 183.353195 27.227905 L 184.087204 26.053497 L 184.380798 28.695908 L 186.876404 28.695908 L 186.876404 12.254303 L 184.233994 12.254303 L 184.087204 22.823898 L 183.646805 23.998306 L 182.912796 25.025894 L 182.031998 25.759903 L 180.417206 26.493896 L 178.215195 26.347107 L 177.334396 25.906693 L 176.160004 24.7323 L 175.425995 22.530304 L 175.425995 12.254303 Z M 130.358398 12.254303 L 130.358398 23.851501 L 130.651993 25.025894 L 131.973206 27.227905 L 133.294403 28.255493 L 135.789993 28.989502 L 136.964401 28.989502 L 138.432404 28.695908 L 139.753601 28.108704 L 140.927994 27.0811 L 141.662003 25.906693 L 141.808807 28.695908 L 144.304398 28.695908 L 144.304398 12.254303 L 141.808807 12.254303 L 141.662003 22.530304 L 140.487595 24.879105 L 139.460007 25.759903 L 137.8452 26.493896 L 135.643204 26.347107 L 134.615601 25.759903 L 133.734802 24.879105 L 133.000793 23.264297 L 132.854004 12.254303 Z M 211.245193 11.960693 L 208.896393 12.401093 L 207.428406 13.135101 L 205.666794 14.749893 L 204.785995 16.217896 L 204.198807 17.832703 L 204.052002 21.796295 L 204.198807 22.823898 L 204.9328 24.7323 L 205.666794 25.906693 L 207.134796 27.374695 L 208.602798 28.255493 L 209.923996 28.695908 L 212.713196 28.989502 L 214.474792 28.695908 L 217.117203 27.5215 L 218.585205 26.053497 L 219.466003 24.291901 L 219.466003 23.411102 L 216.823593 23.557907 L 216.236404 24.879105 L 215.208801 25.759903 L 214.034393 26.347107 L 210.804794 26.493896 L 209.190002 25.759903 L 207.575195 24.145096 L 206.694397 22.089905 L 206.841202 20.768707 L 219.466003 20.621902 L 219.466003 18.713501 L 218.731995 16.071106 L 217.851196 14.603104 L 216.236404 13.135101 L 214.181198 12.254303 Z M 206.694397 18.419907 L 207.575195 16.3647 L 208.309204 15.483902 L 210.070801 14.456299 L 211.538803 14.162704 L 213.006805 14.309494 L 214.768402 15.043503 L 216.0896 16.511505 L 216.676804 18.126297 L 216.529999 18.713501 Z M 195.244003 11.960693 L 193.042007 12.401093 L 191.720795 13.135101 L 190.693207 14.162704 L 189.959198 16.3647 L 190.106003 17.979507 L 190.986801 19.741104 L 192.307999 20.621902 L 194.2164 21.209106 L 196.124802 21.355896 L 198.473602 22.089905 L 199.207596 22.823898 L 199.501205 23.557907 L 199.354401 25.025894 L 198.767197 25.759903 L 197.445999 26.493896 L 194.803604 26.493896 L 193.188797 25.613098 L 192.454803 24.585495 L 192.161194 23.411102 L 189.665604 23.411102 L 189.665604 24.145096 L 190.252808 25.906693 L 191.574005 27.5215 L 193.922806 28.695908 L 196.858795 28.989502 L 199.647995 28.255493 L 201.409607 26.787506 L 202.1436 25.025894 L 202.1436 22.823898 L 201.850006 21.796295 L 200.969193 20.475098 L 199.501205 19.594299 L 193.776001 18.419907 L 192.895203 17.685898 L 192.601593 17.098694 L 192.601593 16.071106 L 193.042007 15.337097 L 193.922806 14.603104 L 195.831207 14.162704 L 198.179993 14.896698 L 199.207596 15.924301 L 199.501205 16.951904 L 202.1436 16.951904 L 201.409607 14.603104 L 200.088394 13.135101 L 198.179993 12.254303 Z M 161.186401 11.960693 L 159.278 12.254303 L 157.516403 12.988297 L 155.167603 15.043503 L 153.846405 17.539093 L 153.406006 20.621902 L 153.846405 23.411102 L 154.286804 24.438705 L 155.314407 26.053497 L 156.195206 26.934296 L 157.663193 27.961899 L 159.571594 28.695908 L 162.507599 28.989502 L 165.737198 28.108704 L 167.645599 26.787506 L 168.526398 25.759903 L 169.847595 23.264297 L 170.141205 21.649506 L 170.141205 19.300705 L 169.847595 17.685898 L 168.966797 15.777496 L 167.2052 13.722305 L 164.269196 12.254303 Z M 160.599197 14.456299 L 162.947998 14.456299 L 164.562805 15.043503 L 165.590393 15.777496 L 166.471207 16.805099 L 167.352005 18.860306 L 167.352005 22.089905 L 166.471207 24.145096 L 165.003204 25.613098 L 162.947998 26.493896 L 160.599197 26.493896 L 158.837601 25.759903 L 157.222794 24.145096 L 156.341995 22.236694 L 156.341995 18.566696 L 157.076004 16.951904 L 158.397202 15.483902 L 159.278 14.896698 Z M 118.614403 11.960693 L 116.265602 12.401093 L 114.503998 13.281906 L 112.742401 14.896698 L 111.274399 17.685898 L 110.980797 19.1539 L 110.980797 21.649506 L 111.421204 23.704697 L 112.155197 25.172699 L 113.623199 26.934296 L 115.091202 27.961899 L 116.999603 28.695908 L 119.9356 28.989502 L 122.871597 28.255493 L 124.192802 27.5215 L 125.807602 26.053497 L 127.275597 23.411102 L 127.569199 21.9431 L 127.569199 19.007095 L 127.275597 17.539093 L 126.541603 15.924301 L 124.633202 13.722305 L 122.284401 12.401093 L 119.9356 11.960693 Z M 118.174004 14.456299 L 120.375999 14.456299 L 121.844002 14.896698 L 123.605598 16.3647 L 124.779999 18.566696 L 124.926804 21.209106 L 124.779999 22.236694 L 124.045998 23.998306 L 122.284401 25.759903 L 120.522797 26.493896 L 118.174004 26.493896 L 116.118797 25.613098 L 114.650803 24.145096 L 113.769997 21.9431 L 113.769997 19.007095 L 114.650803 16.805099 L 115.678398 15.630707 L 117.1464 14.749893 Z M 97.475197 5.941895 L 97.475197 8.4375 L 104.668404 8.584305 L 104.815201 28.695908 L 107.457603 28.695908 L 107.604401 8.4375 L 114.7976 8.4375 L 114.7976 5.941895 Z M 0 5.941895 L 0.1468 26.787506 L 76.482803 26.640701 L 76.482803 5.795105 Z M 148.121201 5.501495 L 148.121201 28.695908 L 150.763596 28.549103 L 150.616806 5.501495 Z"/>
    </g>
</svg>
