<?xml version="1.0" encoding="UTF-8"?>
<svg xmlns="http://www.w3.org/2000/svg" viewBox="0 0 250 250" role="img" aria-label="UBS logo">
  <title>UBS</title>
  <path fill="#010101" fill-rule="evenodd" d="M42.61 77.01L42.42 77.21L41.24 77.4L41.24 83.85L41.05 84.05L38.51 84.05L38.31 83.85L38.31 81.31L38.12 81.12L35.77 81.12L35.77 83.85L35.57 84.05L32.84 84.05L32.64 83.85L32.64 81.12L30.3 81.12L30.3 88.35L30.49 88.74L30.88 88.74L32.45 87.96L33.42 87.76L34.01 87.37L34.4 87.37L34.99 86.98L35.38 86.98L36.55 86.4L36.94 86.4L37.14 86.59L37.14 88.55L36.75 88.94L36.36 88.94L35.77 89.33L35.38 89.33L34.79 89.72L34.4 89.72L33.82 90.11L33.42 90.11L32.84 90.5L32.45 90.5L30.88 91.28L31.27 91.28L31.86 91.67L32.25 91.67L32.84 92.06L33.23 92.06L34.79 92.85L35.18 92.85L36.36 93.43L36.75 93.43L37.14 93.82L37.14 95.78L36.94 95.97L35.97 95.78L35.38 95.39L34.99 95.39L34.4 95L34.01 95L33.42 94.61L33.03 94.61L32.45 94.21L32.06 94.21L31.47 93.82L31.08 93.82L30.3 93.43L30.3 101.06L32.64 101.06L32.64 98.51L33.03 98.12L35.57 98.12L35.77 98.32L35.77 101.06L38.31 101.06L38.31 98.32L38.51 98.12L41.05 98.12L41.24 98.32L41.24 112.39L40.85 112.98L40.66 112.98L37.14 110.05L36.94 110.05L33.82 107.31L33.62 107.31L32.84 106.53L32.64 106.53L31.86 105.75L31.67 105.75L30.88 104.96L30.69 104.96L27.56 102.23L27.37 102.23L24.43 99.69L24.24 99.69L23.46 98.91L23.26 98.91L22.28 97.93L22.09 97.93L21.31 97.15L21.11 97.15L20.33 96.36L20.13 96.36L19.35 95.58L19.16 95.58L15.83 92.85L15.64 92.85L14.66 92.06L13.29 91.48L12.9 91.67L11.92 92.85L11.53 93.63L11.53 94.02L12.12 95L13.49 96.17L13.68 96.17L14.66 97.15L14.86 97.15L15.83 98.12L16.03 98.12L16.42 98.51L16.22 99.1L14.66 100.66L13.88 100.27L12.71 99.3L11.92 99.49L11.92 99.69L11.14 100.47L10.95 101.06L12.9 102.81L12.9 103.21L11.34 104.96L10.95 104.96L9.19 103.6L8.8 103.6L7.62 104.96L7.62 105.55L7.82 105.75L8.01 105.75L10.16 107.7L10.36 107.7L11.14 108.48L11.34 108.48L12.12 109.27L12.31 109.27L13.29 110.05L13.68 108.68L13.88 108.48L13.88 108.09L14.07 107.9L14.07 107.51L14.27 107.31L14.27 106.92L14.46 106.72L14.46 106.33L14.66 106.14L14.66 105.75L14.86 105.55L14.86 105.16L15.05 104.96L15.05 104.57L15.44 103.79L15.83 103.4L16.81 103.99L17.4 104.57L17.4 105.16L17.2 105.36L17.2 105.94L17.01 106.14L17.01 106.53L16.81 106.72L16.81 107.11L16.22 108.48L16.22 109.07L16.03 109.27L15.64 110.83L17.79 109.85L18.18 109.46L19.55 108.87L19.94 108.48L21.11 107.9L21.89 108.09L23.06 109.27L21.5 110.44L20.52 110.83L20.13 111.22L18.18 112.2L17.79 112.59L17.59 112.59L17.2 112.98L17.2 113.17L19.35 115.13L19.55 115.13L20.33 115.91L20.52 115.91L22.67 117.67L22.87 117.67L23.85 116.5L24.04 115.72L22.28 114.15L22.28 113.76L23.06 112.78L23.06 112.59L24.04 111.81L24.43 112L26 113.57L26.19 113.57L26.19 113.37L27.17 112.39L27.56 111.61L27.37 111.22L26 110.05L25.8 109.46L26.19 108.68L27.56 107.51L29.52 109.27L29.71 109.27L32.64 111.81L32.84 111.81L33.62 112.59L33.82 112.59L34.79 113.57L34.99 113.57L35.77 114.35L35.97 114.35L39.68 117.67L36.36 120.8L36.16 120.8L35.18 121.77L34.99 121.77L34.21 122.56L34.01 122.56L31.86 124.51L31.67 124.51L27.17 128.23L24.82 125.68L24.04 125.68L23.65 125.88L22.87 126.66L22.67 127.05L22.67 127.83L24.04 129.59L24.43 130.38L24.24 130.57L23.65 130.57L22.87 130.18L21.31 129.01L20.72 128.81L20.33 128.42L19.16 127.83L18.76 127.83L17.98 127.44L17.4 127.44L17.2 127.25L16.42 127.25L16.22 127.05L10.56 127.05L10.36 127.25L9.77 127.25L8.6 127.83L8.21 127.83L5.28 129.59L2.93 131.94L2.93 132.13L1.95 133.31L0.98 135.26L0.98 135.65L0.59 136.43L0.59 137.02L0.39 137.22L0.39 137.8L0.2 138L0.2 139.17L0 139.37L0 141.71L0.2 141.91L0.2 143.28L0.39 143.47L0.39 144.25L0.59 144.45L1.17 146.6L2.15 148.55L0 150.51L0 151.29L0.39 152.07L1.56 153.24L1.95 153.44L2.54 153.44L3.91 152.27L4.69 151.88L6.65 153.24L9.58 154.81L9.97 154.81L10.75 155.2L11.34 155.2L11.53 155.39L12.71 155.39L12.9 155.59L17.4 155.59L17.59 155.39L18.96 155.2L19.55 154.81L20.91 154.42L22.87 153.24L25.22 151.09L25.22 150.9L26.39 149.53L27.56 147.19L27.56 146.79L27.95 146.01L27.95 145.43L28.15 145.23L28.15 144.64L28.34 144.45L28.34 139.56L28.15 139.37L28.15 138.19L27.95 138L27.76 137.02L27.17 136.04L27.17 135.65L26.78 135.07L26.58 133.89L26.78 133.7L27.17 133.7L28.54 135.07L28.54 135.26L29.52 136.04L29.91 136.04L30.69 135.65L31.67 134.48L31.67 134.09L29.91 131.74L29.91 131.35L30.88 130.38L31.08 130.38L31.86 129.59L32.06 129.59L33.03 128.62L33.23 128.62L34.01 127.83L34.21 127.83L36.16 126.08L36.36 126.08L40.85 122.36L41.24 122.75L41.24 137.02L41.05 137.22L39.09 137.22L38.9 137.41L37.72 137.41L37.72 140.15L40.27 140.34L40.46 140.54L40.85 140.54L41.05 140.73L41.05 141.13L40.46 141.52L37.72 142.3L35.77 143.28L34.01 144.64L33.82 144.64L31.47 146.99L31.47 147.19L30.88 147.77L30.69 148.36L30.3 148.75L29.32 151.09L29.32 151.68L29.12 151.88L29.12 152.46L28.93 152.66L28.93 153.64L28.73 153.83L28.73 156.96L28.93 157.15L28.93 158.13L29.12 158.33L29.12 158.91L29.32 159.11L29.71 160.67L30.49 162.24L30.88 162.63L31.67 164L34.01 166.34L34.21 166.34L35.18 167.12L35.77 167.32L36.16 167.71L36.94 168.1L37.33 168.1L37.92 168.49L38.31 168.49L38.9 168.88L40.07 169.08L40.27 169.27L40.85 169.27L41.24 169.86L41.24 172.2L41.63 172.6L42.42 172.79L42.61 172.99L43.98 172.99L44.76 172.6L45.15 172.2L45.15 170.05L45.93 169.27L46.33 169.27L46.52 169.08L49.26 168.3L50.43 167.71L50.82 167.32L51.41 167.12L52.78 165.95L52.97 165.95L54.93 164L56.68 161.26L56.68 160.87L57.27 159.7L57.27 159.11L57.47 158.91L57.47 158.33L57.66 158.13L57.66 156.96L57.86 156.76L57.86 154.03L57.66 153.83L57.66 152.66L57.47 152.46L57.27 151.09L57.08 150.9L57.08 150.51L56.68 149.92L56.49 149.14L56.1 148.75L55.9 148.16L54.93 146.99L54.93 146.79L52.38 144.25L52.19 144.25L51.21 143.47L49.65 142.69L49.26 142.69L48.67 142.3L45.93 141.52L45.35 140.93L45.54 140.54L45.93 140.54L46.13 140.34L48.08 140.34L48.28 140.15L48.67 140.15L49.06 139.76L49.06 139.37L49.26 139.17L49.26 138.39L49.06 138.19L49.06 137.8L48.67 137.41L48.28 137.22L45.93 137.22L45.35 136.83L45.35 132.92L45.15 132.72L45.15 123.92L45.35 123.73L45.35 122.56L45.54 122.36L46.52 123.14L46.72 123.14L51.41 127.05L51.6 127.05L52.58 128.03L52.78 128.03L53.56 128.81L53.75 128.81L56.68 131.35L56.68 131.74L56.1 132.33L56.1 132.53L55.51 133.11L54.93 134.09L55.12 134.87L55.9 135.65L56.68 136.04L57.27 136.04L58.05 135.26L58.05 135.07L59.03 133.89L59.42 133.7L59.81 133.89L59.81 134.87L58.64 137.61L58.64 138.19L58.44 138.39L58.44 138.98L58.25 139.17L58.25 140.15L58.05 140.34L58.05 143.47L58.25 143.67L58.44 145.62L58.64 145.82L59.03 147.38L60.2 149.53L61.77 151.29L61.77 151.49L63.92 153.44L66.46 154.81L66.85 154.81L68.22 155.39L69.19 155.39L69.39 155.59L73.89 155.59L74.08 155.39L75.06 155.39L75.25 155.2L76.43 155L77.01 154.61L77.4 154.61L78.58 154.03L78.97 153.64L79.55 153.44L81.7 151.68L81.9 151.68L83.66 153.24L84.05 153.44L84.64 153.44L86 152.27L86 152.07L86.4 151.68L86.59 150.51L84.64 148.75L84.64 147.97L85.61 146.01L85.61 145.62L86 144.84L86 144.25L86.2 144.06L86.2 136.63L84.83 133.89L84.44 133.5L83.85 132.33L81.7 129.98L81.51 129.98L80.14 128.81L77.21 127.44L76.62 127.44L76.43 127.25L75.84 127.25L75.65 127.05L74.28 127.05L74.08 126.86L71.74 126.86L71.54 127.05L70.37 127.05L70.17 127.25L69.39 127.25L69.19 127.44L68.61 127.44L68.41 127.64L67.44 127.83L66.65 128.23L66.26 128.62L65.68 128.81L65.29 129.2L64.7 129.4L62.94 130.77L62.35 130.77L62.16 130.38L62.74 129.2L64.11 127.44L64.11 127.25L62.74 125.88L62.35 125.68L61.77 125.68L61.38 126.08L61.18 126.08L61.18 126.27L60.4 127.05L59.81 128.03L59.42 128.23L54.93 124.51L54.73 124.51L53.95 123.73L53.75 123.73L52.78 122.75L52.58 122.75L51.8 121.97L51.6 121.97L50.82 121.19L50.63 121.19L49.65 120.21L49.45 120.21L48.67 119.43L48.48 119.43L47.69 118.65L47.5 118.65L46.72 117.87L46.72 117.67L47.69 116.69L47.89 116.69L50.04 114.74L50.23 114.74L52.19 112.98L52.38 112.98L53.17 112.2L53.36 112.2L54.14 111.42L54.34 111.42L58.84 107.7L59.23 107.7L60.99 109.66L58.84 111.61L59.81 112.78L59.81 112.98L60.4 113.57L61.18 112.78L61.38 112.78L62.55 111.81L64.31 113.76L64.31 114.15L62.55 115.72L62.35 115.72L62.35 116.11L63.72 117.67L63.72 117.87L64.11 117.67L65.09 116.69L65.29 116.69L67.24 114.93L67.44 114.93L69.39 113.17L69.59 113.17L69.59 112.98L68.8 112.39L66.07 111.02L65.68 110.63L64.31 110.05L63.92 109.66L63.72 109.66L63.53 109.27L65.09 107.7L66.26 108.29L66.65 108.68L68.02 109.27L68.41 109.66L69.78 110.24L70.17 110.63L70.95 110.83L70.76 110.05L70.56 109.85L70.56 109.27L70.17 108.48L70.17 107.9L69.98 107.7L69.98 107.31L69.39 105.94L69.39 105.36L69.19 105.16L69.19 104.57L70.56 103.4L70.76 103.4L71.34 104.18L71.34 104.57L71.74 105.16L72.91 109.27L73.3 109.85L73.89 109.66L74.47 109.07L75.45 108.48L76.43 107.51L76.62 107.51L78.97 105.16L78.97 104.96L78.38 104.38L78.38 104.18L77.6 103.6L77.01 103.79L76.43 104.38L75.45 104.96L75.06 104.77L73.49 103.21L73.49 103.01L74.47 102.03L74.67 102.03L75.65 101.06L75.65 100.86L74.08 99.1L72.91 100.08L71.74 100.66L70.95 99.88L70.37 98.91L70.37 98.51L71.93 96.95L72.13 96.95L74.28 95L74.47 95L75.06 94.02L74.86 93.24L73.89 91.87L73.69 91.87L73.3 91.48L72.32 91.48L68.8 94.41L68.61 94.41L67.63 95.39L67.44 95.39L66.65 96.17L66.46 96.17L65.68 96.95L65.48 96.95L64.5 97.93L64.31 97.93L63.53 98.71L63.33 98.71L62.35 99.69L62.16 99.69L61.38 100.47L61.18 100.47L60.2 101.45L60.01 101.45L59.23 102.23L59.03 102.23L58.25 103.01L58.05 103.01L57.08 103.99L56.88 103.99L56.1 104.77L55.9 104.77L55.12 105.55L54.93 105.55L53.95 106.53L53.75 106.53L47.11 112L45.54 112.98L45.35 112.78L45.35 110.83L45.15 110.63L45.15 77.4L44.76 77.4L43.98 77.01ZM9.77 130.57L10.95 130.38L11.14 130.18L13.68 130.18L13.88 130.38L14.46 130.38L15.64 130.96L17.01 132.33L17.59 133.7L17.59 135.26L17.4 135.46L17.2 136.43L15.64 138.19L14.27 138.78L12.51 138.78L10.56 137.8L9.58 136.63L8.99 135.07L8.6 135.07L6.84 136.63L6.84 137.61L7.43 138.78L8.99 140.54L10.56 141.52L10.95 141.52L11.73 141.91L12.9 141.91L13.49 142.3L13.49 143.08L13.29 143.28L13.29 144.84L13.49 145.04L13.49 145.62L13.68 145.82L13.88 146.6L15.44 148.55L15.64 148.55L16.42 149.34L17.2 149.53L17.98 149.14L19.55 147.97L19.55 147.77L18.37 147.19L17.01 145.82L16.42 144.45L16.42 142.49L17.01 141.32L18.18 140.15L19.35 139.56L19.94 139.56L20.13 139.37L21.5 139.37L21.7 139.56L22.09 139.56L22.48 139.76L24.24 141.52L24.82 142.69L24.82 143.08L25.02 143.28L25.02 145.23L24.82 145.43L24.82 146.01L24.63 146.21L24.43 146.99L24.04 147.38L23.65 148.16L21.31 150.51L18.96 151.88L18.57 151.88L17.79 152.27L17.2 152.27L17.01 152.46L15.64 152.46L15.44 152.66L13.88 152.66L13.68 152.46L12.51 152.46L12.31 152.27L11.14 152.07L8.41 150.7L7.43 149.92L7.62 149.34L8.01 149.14L9.38 147.77L9.38 147.38L8.8 146.21L7.82 145.23L7.04 145.04L6.84 144.84L5.28 146.01L4.69 146.21L4.3 145.82L3.91 145.04L3.91 144.64L3.52 143.86L3.52 143.08L3.32 142.89L3.13 140.15L3.32 139.95L3.32 138.78L3.52 138.58L3.52 138L3.71 137.8L3.91 136.83L4.3 136.24L4.3 135.85L4.69 135.46L4.89 134.87L5.86 133.7L5.86 133.5L7.23 132.13L7.43 132.13L8.6 131.16ZM76.23 130.38L76.43 130.57L77.8 130.96L78.97 131.94L79.16 131.94L81.51 134.48L82.88 137.02L82.88 137.41L83.07 137.61L83.07 138.39L83.27 138.58L83.27 142.89L83.07 143.08L83.07 144.06L82.88 144.25L82.88 144.64L82.29 145.62L82.29 146.01L81.9 146.4L81.12 146.01L79.95 145.04L78.97 145.04L77.4 146.79L77.4 147.77L77.6 148.16L78.97 149.53L78.97 149.92L77.8 150.9L75.45 152.07L75.06 152.07L74.86 152.27L74.08 152.27L73.89 152.46L69.59 152.46L69.39 152.27L68.8 152.27L68.61 152.07L67.63 151.88L66.46 151.29L66.07 150.9L65.48 150.7L64.7 149.92L64.5 149.92L63.53 148.94L63.53 148.75L62.55 147.58L61.96 146.4L61.96 146.01L61.77 145.82L61.77 145.04L61.57 144.84L61.77 142.69L62.74 140.93L63.53 140.15L64.5 139.56L65.09 139.56L65.29 139.37L66.46 139.37L66.65 139.56L67.24 139.56L68.41 140.15L69.59 141.32L69.78 142.1L69.98 142.3L69.98 143.08L70.17 143.28L70.17 143.67L69.98 143.86L69.98 145.04L69.39 146.21L68.41 147.19L67.04 147.77L67.04 147.97L67.24 147.97L68.02 148.75L69.39 149.53L69.78 149.53L70.76 148.75L70.95 148.75L72.32 147.19L73.3 145.23L73.3 142.69L73.1 142.49L73.1 142.1L73.3 141.91L75.45 141.71L77.4 140.73L78.97 139.17L79.75 137.61L79.75 136.83L79.36 136.43L79.36 136.24L78.19 135.26L77.4 135.07L77.4 135.65L77.21 135.85L77.01 136.63L76.43 137.22L76.43 137.41L75.25 138.39L74.47 138.78L73.69 138.78L73.49 138.98L72.32 138.78L70.76 138L69.78 137.02L69 135.65L69 133.89L69.98 131.94L70.76 131.16L72.13 130.38L72.52 130.38L72.71 130.18L75.45 130.18L75.65 130.38ZM33.23 150.12L34.99 148.36L36.16 147.77L36.75 147.77L36.94 147.58L38.12 147.58L38.31 147.77L38.9 147.77L39.68 148.16L41.05 149.53L41.63 150.7L41.63 153.05L41.24 153.64L41.24 154.03L40.66 154.61L40.66 154.81L40.07 155.39L38.9 155.98L36.36 155.98L36.16 155.79L35.38 155.79L34.99 155.59L34.99 158.52L35.77 158.72L35.97 158.91L36.75 158.91L36.94 159.11L39.29 159.11L39.48 158.91L39.87 158.91L41.24 158.33L43.39 156.57L44.76 157.94L46.13 158.72L46.52 158.72L46.72 158.91L47.5 158.91L47.69 159.11L49.84 159.11L50.04 158.91L50.63 158.91L51.41 158.33L51.41 155.59L50.63 155.79L50.43 155.98L47.69 155.98L47.5 155.79L46.72 155.59L45.54 154.42L45.15 153.64L45.15 153.24L44.96 153.05L44.96 150.7L45.54 149.53L47.3 147.97L47.69 147.97L47.89 147.77L48.67 147.77L48.87 147.58L51.02 147.97L52.58 148.94L53.75 150.31L54.34 151.68L54.34 152.27L54.53 152.46L54.73 155.98L54.53 156.18L54.53 157.74L54.34 157.94L54.34 158.52L53.75 159.7L53.75 160.09L53.36 160.48L53.17 161.06L52.58 161.65L52.58 161.85L50.63 163.8L50.43 163.8L49.26 164.78L47.3 165.75L45.74 166.15L45.15 165.36L45.15 164L44.96 163.8L44.96 163.41L43.78 162.82L42.61 162.82L41.44 163.41L41.44 164L41.24 164.19L41.24 165.56L40.85 166.15L38.7 165.56L37.14 164.78L35.97 163.8L35.77 163.8L33.82 161.65L32.64 159.5L32.64 159.11L32.06 157.74L32.06 156.76L31.86 156.57L31.86 153.83L32.06 153.64L32.06 152.66L32.25 152.46L32.45 151.49Z"/>
  <path fill="#FC0101" fill-rule="evenodd" d="M239.84 91.09L237.88 90.89L237.69 90.7L235.73 90.7L235.54 90.5L230.06 90.5L229.87 90.7L228.11 90.7L227.91 90.89L226.35 91.09L226.15 91.28L225.18 91.48L224.59 91.87L224.2 91.87L223.61 92.26L223.22 92.26L220.29 94.02L219.7 94.61L219.51 94.61L216.58 97.73L215.79 99.3L215.4 99.69L215.4 100.08L214.82 101.06L214.82 101.45L214.23 102.81L214.03 104.38L213.84 104.57L213.84 105.55L213.64 105.75L213.64 110.44L213.84 110.63L213.84 111.61L214.03 111.81L214.03 112.39L214.23 112.59L214.62 114.15L215.79 116.5L216.18 116.89L216.58 117.67L217.55 118.65L217.55 118.84L219.9 120.99L220.09 120.99L220.68 121.58L220.88 121.58L222.44 122.75L223.81 123.34L224.2 123.73L224.59 123.73L226.74 124.9L227.13 124.9L229.09 125.88L230.45 126.27L231.43 126.86L231.82 126.86L232.41 127.25L233.78 127.64L234.75 128.23L235.14 128.23L238.27 129.79L238.66 130.18L239.25 130.38L241.2 132.13L241.2 132.33L241.99 133.31L243.35 136.24L243.35 139.17L243.55 139.37L243.55 140.54L243.35 140.73L243.35 144.45L243.16 144.64L242.96 145.82L242.57 146.4L242.57 146.79L241.99 147.97L241.01 149.14L241.01 149.34L238.86 151.29L236.9 152.27L236.51 152.27L235.73 152.66L235.14 152.66L234.95 152.85L233.78 152.85L233.58 153.05L228.89 153.05L228.69 152.85L227.52 152.85L227.33 152.66L225.96 152.46L223.22 151.29L221.46 149.92L221.27 149.92L219.9 148.55L219.9 148.36L218.73 146.99L217.36 144.25L217.36 143.86L217.16 143.67L217.16 143.28L216.58 141.91L216.38 140.34L216.18 140.15L215.99 137.8L215.79 137.61L215.79 136.24L215.6 136.04L213.06 136.04L213.06 137.02L213.25 137.22L213.25 142.3L213.45 142.49L213.45 146.4L213.64 146.6L213.64 147.38L213.84 147.58L214.03 149.34L214.82 150.9L214.82 151.29L215.4 152.66L215.79 153.05L216.18 153.05L216.77 153.44L217.16 153.44L217.36 153.64L217.75 153.64L219.12 154.22L221.27 154.61L221.46 154.81L222.24 154.81L222.44 155L223.22 155L223.42 155.2L224.39 155.2L224.59 155.39L226.15 155.39L226.35 155.59L233.58 155.59L233.78 155.39L234.95 155.39L235.14 155.2L235.93 155.2L236.12 155L237.49 154.81L237.69 154.61L238.66 154.42L239.64 153.83L240.03 153.83L240.81 153.44L241.2 153.05L241.79 152.85L242.96 151.88L243.16 151.88L244.72 150.31L244.92 150.31L244.92 150.12L246.29 148.75L246.29 148.55L247.26 147.38L248.83 144.06L248.83 143.47L249.22 142.69L249.41 141.13L249.61 140.93L249.61 139.95L249.8 139.76L249.8 138.39L250 138.19L250 134.87L249.8 134.68L249.61 132.33L249.41 132.13L249.41 131.55L249.22 131.35L249.22 130.77L249.02 130.57L248.63 129.01L248.24 128.42L248.24 128.03L247.85 127.25L247.46 126.86L247.26 126.27L246.29 125.1L246.29 124.9L243.16 121.97L242.96 121.97L241.99 121.19L241.01 120.8L240.62 120.41L234.95 117.67L234.36 117.67L234.17 117.47L233.19 117.28L232.6 116.89L231.63 116.69L231.04 116.3L229.67 115.91L228.69 115.32L228.3 115.32L227.33 114.74L226.94 114.74L224 113.17L221.27 110.63L219.9 108.09L219.9 107.51L219.7 107.31L219.7 102.03L219.9 101.84L219.9 100.86L220.09 100.66L220.09 100.08L220.48 99.49L220.48 99.1L221.66 97.15L223.22 95.58L225.96 94.02L226.35 94.02L227.72 93.43L228.3 93.43L228.5 93.24L229.28 93.24L229.48 93.04L232.8 92.85L232.99 93.04L234.36 93.04L234.56 93.24L235.34 93.24L235.54 93.43L237.1 93.82L239.44 95.19L241.4 97.15L241.4 97.34L242.57 98.91L243.16 100.08L243.16 100.47L243.55 101.06L243.55 101.45L244.14 102.81L244.33 104.18L244.53 104.38L244.53 105.16L244.72 105.36L244.72 106.14L244.92 106.33L245.11 107.9L247.65 107.9L247.65 104.77L247.46 104.57L247.46 99.3L247.26 99.1L247.26 95.78L247.07 95.58L247.07 94.21L246.87 93.82L244.92 92.85L244.53 92.85L243.94 92.46L243.55 92.46L243.35 92.26L242.96 92.26L242.77 92.06L242.38 92.06L242.18 91.87L241.79 91.87L241.59 91.67L241.2 91.67ZM102.42 91.28L102.42 93.63L109.07 93.63L109.46 94.02L109.46 136.24L109.66 136.43L109.66 139.17L109.85 139.37L109.85 140.54L110.05 140.73L110.05 141.52L110.24 141.71L110.63 143.86L111.22 145.04L111.22 145.43L111.61 146.01L111.61 146.4L112 147.19L112.39 147.58L112.59 148.16L113.57 149.34L113.57 149.53L115.52 151.49L115.72 151.49L116.3 152.07L117.47 152.66L117.87 153.05L118.65 153.44L119.04 153.44L120.02 154.03L120.41 154.03L121.77 154.61L122.36 154.61L122.56 154.81L123.14 154.81L123.34 155L124.12 155L124.32 155.2L125.29 155.2L125.49 155.39L133.11 155.39L133.31 155.2L134.87 155.2L135.07 155L136.04 155L136.24 154.81L137.02 154.81L137.8 154.42L138.39 154.42L138.98 154.03L140.34 153.64L141.52 153.05L141.91 152.66L142.49 152.46L143.86 151.29L144.06 151.29L145.43 149.92L145.43 149.73L146.21 148.94L146.21 148.75L146.99 147.77L148.36 145.04L148.36 144.64L148.55 144.45L148.55 144.06L149.14 142.69L149.34 141.32L149.53 141.13L149.53 139.37L149.73 139.17L149.73 126.66L149.92 126.47L149.92 94.02L150.31 93.63L156.37 93.63L156.37 91.28L139.76 91.28L139.76 93.63L146.4 93.63L146.6 93.82L146.6 133.31L146.4 133.5L146.4 137.8L146.21 138L146.21 139.76L146.01 139.95L146.01 140.93L145.82 141.13L145.82 141.71L145.62 141.91L145.62 142.49L145.43 142.69L145.23 143.67L143.67 146.99L142.3 148.55L142.3 148.75L140.73 150.12L138.58 151.29L138.19 151.29L137.41 151.68L136.83 151.68L136.63 151.88L135.85 151.88L135.65 152.07L134.09 152.07L133.89 152.27L130.77 152.27L130.57 152.07L129.01 152.07L128.81 151.88L128.03 151.88L127.83 151.68L127.25 151.68L127.05 151.49L126.08 151.29L125.49 150.9L125.1 150.9L122.95 149.53L121.19 147.77L121.19 147.58L120.41 146.6L119.04 143.67L118.84 142.49L118.65 142.3L118.65 141.52L118.45 141.32L118.45 140.54L118.26 140.34L118.26 138.98L118.06 138.78L118.06 136.63L117.87 136.43L117.87 132.13L117.67 131.94L117.67 94.02L117.87 93.82L124.12 93.82L124.32 93.63L125.1 93.63L125.1 91.28ZM160.09 91.28L160.28 91.67L160.28 93.63L166.54 93.63L167.32 94.02L167.32 152.07L167.12 152.27L161.06 152.27L160.87 152.46L160.28 152.46L160.28 154.22L160.09 154.61L160.28 154.81L162.63 154.81L162.82 154.61L186.67 154.61L186.86 154.42L190.58 154.42L190.77 154.22L191.75 154.22L191.95 154.03L192.53 154.03L192.73 153.83L193.32 153.83L193.51 153.64L195.07 153.24L198.2 151.68L198.79 151.09L199.77 150.51L201.72 148.55L201.72 148.36L203.09 146.6L204.07 144.64L204.07 144.25L204.46 143.47L204.46 142.89L204.65 142.69L204.65 142.1L204.85 141.91L204.85 140.73L205.04 140.54L205.04 134.28L204.85 134.09L204.85 132.92L204.65 132.72L204.65 132.13L204.46 131.94L204.46 131.35L204.26 131.16L204.07 130.18L203.67 129.59L203.48 128.81L203.09 128.42L202.5 127.25L201.72 126.47L201.72 126.27L200.94 125.49L200.74 125.49L199.96 124.71L199.77 124.71L198.79 123.92L197.22 123.14L196.83 123.14L196.25 122.75L195.86 122.75L194.49 122.17L193.9 122.17L193.71 121.97L193.12 121.97L192.92 121.77L191.95 121.77L191.75 121.58L190.77 121.58L190.58 121.38L188.04 121.19L187.45 120.8L188.82 120.21L189.6 120.21L190.38 119.82L191.75 119.62L195.07 118.26L195.47 117.87L196.05 117.67L196.44 117.28L197.22 116.89L198.01 116.11L198.2 116.11L199.37 114.93L199.37 114.74L200.16 113.96L200.35 113.37L200.74 112.98L201.72 110.63L201.72 110.05L201.92 109.85L201.92 109.27L202.11 109.07L202.11 108.09L202.31 107.9L202.31 103.21L202.11 103.01L202.11 102.03L201.92 101.84L201.72 100.47L201.52 100.27L201.33 99.3L200.35 97.34L199.37 96.17L199.37 95.97L198.01 94.61L197.81 94.61L196.64 93.63L194.29 92.46L193.9 92.46L193.12 92.06L192.53 92.06L192.34 91.87L191.75 91.87L191.56 91.67L190.58 91.67L190.38 91.48L186.67 91.48L186.47 91.28ZM175.92 93.82L176.9 93.82L177.09 93.63L184.32 93.63L184.52 93.82L185.69 93.82L185.89 94.02L187.06 94.21L188.62 95L189.8 95.97L189.99 95.97L191.56 97.73L192.73 99.69L192.73 100.08L193.12 100.66L193.12 101.06L193.51 101.84L193.51 102.42L193.71 102.62L193.71 103.4L193.9 103.6L193.9 105.36L194.1 105.55L194.1 107.7L193.9 107.9L193.9 109.46L193.71 109.66L193.71 110.63L193.51 110.83L193.51 111.42L193.32 111.61L192.92 113.17L192.14 114.74L191.16 115.91L191.16 116.11L188.82 118.26L186.86 119.23L186.47 119.23L186.28 119.43L185.3 119.43L185.11 119.62L183.54 119.62L183.35 119.82L180.41 119.82L180.22 120.02L176.31 120.02L175.72 119.43L175.72 94.02ZM175.92 122.56L185.5 122.56L185.69 122.75L186.86 122.75L187.06 122.95L188.23 123.14L190.77 124.51L192.92 126.47L192.92 126.66L194.1 128.03L195.47 130.77L195.66 131.94L195.86 132.13L195.86 133.11L196.05 133.31L196.05 134.87L196.25 135.07L196.25 139.95L196.05 140.15L196.05 141.52L195.86 141.71L195.86 142.3L195.66 142.49L195.66 143.08L195.47 143.28L195.27 144.25L194.29 146.21L193.32 147.38L193.32 147.58L190.77 149.92L188.23 151.29L187.84 151.29L186.47 151.88L185.69 151.88L185.5 152.07L183.15 152.07L182.96 152.27L175.92 152.27L175.72 152.07L175.72 122.75Z"/>
</svg>
