<?xml version="1.0" encoding="UTF-8"?>
<!-- Generated by Pixelmator Pro 3.8 -->
<svg width="250" height="96" viewBox="0 0 250 96" xmlns="http://www.w3.org/2000/svg">
    <path id="Path" fill="#010101" fill-rule="evenodd" stroke="none" d="M 42.610001 0.01001 L 42.419998 0.209991 L 41.240002 0.399994 L 41.240002 6.850006 L 41.049999 7.050003 L 38.509998 7.050003 L 38.310001 6.850006 L 38.310001 4.309998 L 38.119999 4.119995 L 35.77 4.119995 L 35.77 6.850006 L 35.57 7.050003 L 32.84 7.050003 L 32.639999 6.850006 L 32.639999 4.119995 L 30.299999 4.119995 L 30.299999 11.350006 L 30.49 11.73999 L 30.879999 11.73999 L 32.450001 10.959991 L 33.419998 10.76001 L 34.009998 10.369995 L 34.400002 10.369995 L 34.990002 9.980011 L 35.380001 9.980011 L 36.549999 9.399994 L 36.939999 9.399994 L 37.139999 9.589996 L 37.139999 11.550003 L 36.75 11.940002 L 36.360001 11.940002 L 35.77 12.330002 L 35.380001 12.330002 L 34.790001 12.720001 L 34.400002 12.720001 L 33.82 13.110001 L 33.419998 13.110001 L 32.84 13.5 L 32.450001 13.5 L 30.879999 14.279999 L 31.27 14.279999 L 31.860001 14.669998 L 32.25 14.669998 L 32.84 15.059998 L 33.23 15.059998 L 34.790001 15.850006 L 35.18 15.850006 L 36.360001 16.429993 L 36.75 16.429993 L 37.139999 16.820007 L 37.139999 18.779999 L 36.939999 18.970001 L 35.970001 18.779999 L 35.380001 18.389999 L 34.990002 18.389999 L 34.400002 18 L 34.009998 18 L 33.419998 17.610001 L 33.029999 17.610001 L 32.450001 17.209991 L 32.060001 17.209991 L 31.469999 16.820007 L 31.08 16.820007 L 30.299999 16.429993 L 30.299999 24.059998 L 32.639999 24.059998 L 32.639999 21.51001 L 33.029999 21.119995 L 35.57 21.119995 L 35.77 21.320007 L 35.77 24.059998 L 38.310001 24.059998 L 38.310001 21.320007 L 38.509998 21.119995 L 41.049999 21.119995 L 41.240002 21.320007 L 41.240002 35.389999 L 40.849998 35.980011 L 40.66 35.980011 L 37.139999 33.050003 L 36.939999 33.050003 L 33.82 30.309998 L 33.619999 30.309998 L 32.84 29.529999 L 32.639999 29.529999 L 31.860001 28.75 L 31.67 28.75 L 30.879999 27.959991 L 30.690001 27.959991 L 27.559999 25.230011 L 27.370001 25.230011 L 24.43 22.690002 L 24.24 22.690002 L 23.459999 21.910004 L 23.26 21.910004 L 22.280001 20.929993 L 22.09 20.929993 L 21.309999 20.149994 L 21.110001 20.149994 L 20.33 19.360001 L 20.129999 19.360001 L 19.35 18.580002 L 19.16 18.580002 L 15.83 15.850006 L 15.64 15.850006 L 14.66 15.059998 L 13.29 14.480011 L 12.9 14.669998 L 11.92 15.850006 L 11.53 16.630005 L 11.53 17.019989 L 12.12 18 L 13.49 19.169998 L 13.68 19.169998 L 14.66 20.149994 L 14.86 20.149994 L 15.83 21.119995 L 16.030001 21.119995 L 16.42 21.51001 L 16.219999 22.100006 L 14.66 23.660004 L 13.88 23.269989 L 12.71 22.300003 L 11.92 22.48999 L 11.92 22.690002 L 11.14 23.470001 L 10.95 24.059998 L 12.9 25.809998 L 12.9 26.209991 L 11.34 27.959991 L 10.95 27.959991 L 9.19 26.600006 L 8.8 26.600006 L 7.62 27.959991 L 7.62 28.550003 L 7.82 28.75 L 8.01 28.75 L 10.16 30.699997 L 10.36 30.699997 L 11.14 31.480011 L 11.34 31.480011 L 12.12 32.269989 L 12.31 32.269989 L 13.29 33.050003 L 13.68 31.679993 L 13.88 31.480011 L 13.88 31.089996 L 14.07 30.899994 L 14.07 30.51001 L 14.27 30.309998 L 14.27 29.919998 L 14.46 29.720001 L 14.46 29.330002 L 14.66 29.139999 L 14.66 28.75 L 14.86 28.550003 L 14.86 28.160004 L 15.05 27.959991 L 15.05 27.570007 L 15.44 26.790009 L 15.83 26.399994 L 16.809999 26.98999 L 17.4 27.570007 L 17.4 28.160004 L 17.200001 28.360001 L 17.200001 28.940002 L 17.01 29.139999 L 17.01 29.529999 L 16.809999 29.720001 L 16.809999 30.110001 L 16.219999 31.480011 L 16.219999 32.070007 L 16.030001 32.269989 L 15.64 33.830002 L 17.790001 32.850006 L 18.18 32.459991 L 19.549999 31.869995 L 19.940001 31.480011 L 21.110001 30.899994 L 21.889999 31.089996 L 23.059999 32.269989 L 21.5 33.440002 L 20.52 33.830002 L 20.129999 34.220001 L 18.18 35.199997 L 17.790001 35.589996 L 17.59 35.589996 L 17.200001 35.980011 L 17.200001 36.169998 L 19.35 38.130005 L 19.549999 38.130005 L 20.33 38.910004 L 20.52 38.910004 L 22.67 40.669998 L 22.870001 40.669998 L 23.85 39.5 L 24.040001 38.720001 L 22.280001 37.149994 L 22.280001 36.76001 L 23.059999 35.779999 L 23.059999 35.589996 L 24.040001 34.809998 L 24.43 35 L 26 36.570007 L 26.190001 36.570007 L 26.190001 36.369995 L 27.17 35.389999 L 27.559999 34.610001 L 27.370001 34.220001 L 26 33.050003 L 25.799999 32.459991 L 26.190001 31.679993 L 27.559999 30.51001 L 29.52 32.269989 L 29.709999 32.269989 L 32.639999 34.809998 L 32.84 34.809998 L 33.619999 35.589996 L 33.82 35.589996 L 34.790001 36.570007 L 34.990002 36.570007 L 35.77 37.350006 L 35.970001 37.350006 L 39.68 40.669998 L 36.360001 43.800003 L 36.16 43.800003 L 35.18 44.769989 L 34.990002 44.769989 L 34.209999 45.559998 L 34.009998 45.559998 L 31.860001 47.510002 L 31.67 47.510002 L 27.17 51.229996 L 24.82 48.68 L 24.040001 48.68 L 23.65 48.879997 L 22.870001 49.660004 L 22.67 50.050003 L 22.67 50.830002 L 24.040001 52.589996 L 24.43 53.380005 L 24.24 53.570007 L 23.65 53.570007 L 22.870001 53.179993 L 21.309999 52.009995 L 20.719999 51.809998 L 20.33 51.419998 L 19.16 50.830002 L 18.76 50.830002 L 17.98 50.440002 L 17.4 50.440002 L 17.200001 50.25 L 16.42 50.25 L 16.219999 50.050003 L 10.56 50.050003 L 10.36 50.25 L 9.77 50.25 L 8.6 50.830002 L 8.21 50.830002 L 5.28 52.589996 L 2.93 54.940002 L 2.93 55.130005 L 1.95 56.309998 L 0.98 58.259995 L 0.98 58.649994 L 0.59 59.429993 L 0.59 60.020004 L 0.39 60.220001 L 0.39 60.800003 L 0.2 61 L 0.2 62.169998 L 0 62.369995 L 0 64.710007 L 0.2 64.910004 L 0.2 66.279999 L 0.39 66.470001 L 0.39 67.25 L 0.59 67.449997 L 1.17 69.600006 L 2.15 71.550003 L 0 73.509995 L 0 74.289993 L 0.39 75.070007 L 1.56 76.240005 L 1.95 76.440002 L 2.54 76.440002 L 3.91 75.270004 L 4.69 74.880005 L 6.65 76.240005 L 9.58 77.809998 L 9.97 77.809998 L 10.75 78.199997 L 11.34 78.199997 L 11.53 78.389999 L 12.71 78.389999 L 12.9 78.589996 L 17.4 78.589996 L 17.59 78.389999 L 18.959999 78.199997 L 19.549999 77.809998 L 20.91 77.419998 L 22.870001 76.240005 L 25.219999 74.089996 L 25.219999 73.899994 L 26.389999 72.529999 L 27.559999 70.190002 L 27.559999 69.789993 L 27.950001 69.009995 L 27.950001 68.429993 L 28.15 68.229996 L 28.15 67.639999 L 28.34 67.449997 L 28.34 62.559998 L 28.15 62.369995 L 28.15 61.190002 L 27.950001 61 L 27.76 60.020004 L 27.17 59.039993 L 27.17 58.649994 L 26.780001 58.070007 L 26.58 56.889999 L 26.780001 56.699997 L 27.17 56.699997 L 28.540001 58.070007 L 28.540001 58.259995 L 29.52 59.039993 L 29.91 59.039993 L 30.690001 58.649994 L 31.67 57.479996 L 31.67 57.089996 L 29.91 54.740005 L 29.91 54.350006 L 30.879999 53.380005 L 31.08 53.380005 L 31.860001 52.589996 L 32.060001 52.589996 L 33.029999 51.619995 L 33.23 51.619995 L 34.009998 50.830002 L 34.209999 50.830002 L 36.16 49.080002 L 36.360001 49.080002 L 40.849998 45.360001 L 41.240002 45.75 L 41.240002 60.020004 L 41.049999 60.220001 L 39.09 60.220001 L 38.900002 60.410004 L 37.720001 60.410004 L 37.720001 63.149994 L 40.27 63.339996 L 40.459999 63.539993 L 40.849998 63.539993 L 41.049999 63.729996 L 41.049999 64.130005 L 40.459999 64.520004 L 37.720001 65.300003 L 35.77 66.279999 L 34.009998 67.639999 L 33.82 67.639999 L 31.469999 69.990005 L 31.469999 70.190002 L 30.879999 70.770004 L 30.690001 71.360001 L 30.299999 71.75 L 29.32 74.089996 L 29.32 74.679993 L 29.120001 74.880005 L 29.120001 75.460007 L 28.93 75.660004 L 28.93 76.639999 L 28.73 76.830002 L 28.73 79.960007 L 28.93 80.149994 L 28.93 81.130005 L 29.120001 81.330002 L 29.120001 81.910004 L 29.32 82.110001 L 29.709999 83.669998 L 30.49 85.240005 L 30.879999 85.630005 L 31.67 87 L 34.009998 89.339996 L 34.209999 89.339996 L 35.18 90.119995 L 35.77 90.320007 L 36.16 90.710007 L 36.939999 91.100006 L 37.330002 91.100006 L 37.919998 91.490005 L 38.310001 91.490005 L 38.900002 91.880005 L 40.07 92.080002 L 40.27 92.270004 L 40.849998 92.270004 L 41.240002 92.860001 L 41.240002 95.199997 L 41.630001 95.600006 L 42.419998 95.789993 L 42.610001 95.990005 L 43.98 95.990005 L 44.759998 95.600006 L 45.150002 95.199997 L 45.150002 93.050003 L 45.93 92.270004 L 46.330002 92.270004 L 46.52 92.080002 L 49.259998 91.300003 L 50.43 90.710007 L 50.82 90.320007 L 51.41 90.119995 L 52.779999 88.949997 L 52.970001 88.949997 L 54.93 87 L 56.68 84.259995 L 56.68 83.869995 L 57.27 82.699997 L 57.27 82.110001 L 57.470001 81.910004 L 57.470001 81.330002 L 57.66 81.130005 L 57.66 79.960007 L 57.860001 79.759995 L 57.860001 77.029999 L 57.66 76.830002 L 57.66 75.660004 L 57.470001 75.460007 L 57.27 74.089996 L 57.080002 73.899994 L 57.080002 73.509995 L 56.68 72.919998 L 56.490002 72.139999 L 56.099998 71.75 L 55.900002 71.160004 L 54.93 69.990005 L 54.93 69.789993 L 52.380001 67.25 L 52.189999 67.25 L 51.209999 66.470001 L 49.650002 65.690002 L 49.259998 65.690002 L 48.669998 65.300003 L 45.93 64.520004 L 45.349998 63.929993 L 45.540001 63.539993 L 45.93 63.539993 L 46.130001 63.339996 L 48.080002 63.339996 L 48.279999 63.149994 L 48.669998 63.149994 L 49.060001 62.759995 L 49.060001 62.369995 L 49.259998 62.169998 L 49.259998 61.389999 L 49.060001 61.190002 L 49.060001 60.800003 L 48.669998 60.410004 L 48.279999 60.220001 L 45.93 60.220001 L 45.349998 59.830002 L 45.349998 55.919998 L 45.150002 55.720001 L 45.150002 46.919998 L 45.349998 46.730003 L 45.349998 45.559998 L 45.540001 45.360001 L 46.52 46.139999 L 46.720001 46.139999 L 51.41 50.050003 L 51.599998 50.050003 L 52.580002 51.029999 L 52.779999 51.029999 L 53.560001 51.809998 L 53.75 51.809998 L 56.68 54.350006 L 56.68 54.740005 L 56.099998 55.330002 L 56.099998 55.529999 L 55.509998 56.110001 L 54.93 57.089996 L 55.119999 57.869995 L 55.900002 58.649994 L 56.68 59.039993 L 57.27 59.039993 L 58.049999 58.259995 L 58.049999 58.070007 L 59.029999 56.889999 L 59.419998 56.699997 L 59.810001 56.889999 L 59.810001 57.869995 L 58.639999 60.610001 L 58.639999 61.190002 L 58.439999 61.389999 L 58.439999 61.979996 L 58.25 62.169998 L 58.25 63.149994 L 58.049999 63.339996 L 58.049999 66.470001 L 58.25 66.669998 L 58.439999 68.619995 L 58.639999 68.820007 L 59.029999 70.380005 L 60.200001 72.529999 L 61.77 74.289993 L 61.77 74.490005 L 63.919998 76.440002 L 66.459999 77.809998 L 66.849998 77.809998 L 68.220001 78.389999 L 69.190002 78.389999 L 69.389999 78.589996 L 73.889999 78.589996 L 74.080002 78.389999 L 75.059998 78.389999 L 75.25 78.199997 L 76.43 78 L 77.010002 77.610001 L 77.400002 77.610001 L 78.580002 77.029999 L 78.970001 76.639999 L 79.550003 76.440002 L 81.699997 74.679993 L 81.900002 74.679993 L 83.660004 76.240005 L 84.050003 76.440002 L 84.639999 76.440002 L 86 75.270004 L 86 75.070007 L 86.400002 74.679993 L 86.589996 73.509995 L 84.639999 71.75 L 84.639999 70.970001 L 85.610001 69.009995 L 85.610001 68.619995 L 86 67.839996 L 86 67.25 L 86.199997 67.059998 L 86.199997 59.630005 L 84.830002 56.889999 L 84.440002 56.5 L 83.849998 55.330002 L 81.699997 52.979996 L 81.510002 52.979996 L 80.139999 51.809998 L 77.209999 50.440002 L 76.620003 50.440002 L 76.43 50.25 L 75.839996 50.25 L 75.650002 50.050003 L 74.279999 50.050003 L 74.080002 49.860001 L 71.739998 49.860001 L 71.540001 50.050003 L 70.370003 50.050003 L 70.169998 50.25 L 69.389999 50.25 L 69.190002 50.440002 L 68.610001 50.440002 L 68.410004 50.639999 L 67.440002 50.830002 L 66.650002 51.229996 L 66.260002 51.619995 L 65.68 51.809998 L 65.290001 52.199997 L 64.699997 52.399994 L 62.939999 53.770004 L 62.349998 53.770004 L 62.16 53.380005 L 62.740002 52.199997 L 64.110001 50.440002 L 64.110001 50.25 L 62.740002 48.879997 L 62.349998 48.68 L 61.77 48.68 L 61.380001 49.080002 L 61.18 49.080002 L 61.18 49.269997 L 60.400002 50.050003 L 59.810001 51.029999 L 59.419998 51.229996 L 54.93 47.510002 L 54.73 47.510002 L 53.950001 46.730003 L 53.75 46.730003 L 52.779999 45.75 L 52.580002 45.75 L 51.799999 44.970001 L 51.599998 44.970001 L 50.82 44.190002 L 50.630001 44.190002 L 49.650002 43.209991 L 49.450001 43.209991 L 48.669998 42.429993 L 48.48 42.429993 L 47.689999 41.649994 L 47.5 41.649994 L 46.720001 40.869995 L 46.720001 40.669998 L 47.689999 39.690002 L 47.889999 39.690002 L 50.040001 37.73999 L 50.23 37.73999 L 52.189999 35.980011 L 52.380001 35.980011 L 53.169998 35.199997 L 53.360001 35.199997 L 54.139999 34.419998 L 54.34 34.419998 L 58.84 30.699997 L 59.23 30.699997 L 60.990002 32.660004 L 58.84 34.610001 L 59.810001 35.779999 L 59.810001 35.980011 L 60.400002 36.570007 L 61.18 35.779999 L 61.380001 35.779999 L 62.549999 34.809998 L 64.309998 36.76001 L 64.309998 37.149994 L 62.549999 38.720001 L 62.349998 38.720001 L 62.349998 39.110001 L 63.720001 40.669998 L 63.720001 40.869995 L 64.110001 40.669998 L 65.089996 39.690002 L 65.290001 39.690002 L 67.239998 37.929993 L 67.440002 37.929993 L 69.389999 36.169998 L 69.589996 36.169998 L 69.589996 35.980011 L 68.800003 35.389999 L 66.07 34.019989 L 65.68 33.630005 L 64.309998 33.050003 L 63.919998 32.660004 L 63.720001 32.660004 L 63.529999 32.269989 L 65.089996 30.699997 L 66.260002 31.290009 L 66.650002 31.679993 L 68.019997 32.269989 L 68.410004 32.660004 L 69.779999 33.23999 L 70.169998 33.630005 L 70.949997 33.830002 L 70.760002 33.050003 L 70.559998 32.850006 L 70.559998 32.269989 L 70.169998 31.480011 L 70.169998 30.899994 L 69.980003 30.699997 L 69.980003 30.309998 L 69.389999 28.940002 L 69.389999 28.360001 L 69.190002 28.160004 L 69.190002 27.570007 L 70.559998 26.399994 L 70.760002 26.399994 L 71.339996 27.179993 L 71.339996 27.570007 L 71.739998 28.160004 L 72.910004 32.269989 L 73.300003 32.850006 L 73.889999 32.660004 L 74.470001 32.070007 L 75.449997 31.480011 L 76.43 30.51001 L 76.620003 30.51001 L 78.970001 28.160004 L 78.970001 27.959991 L 78.379997 27.380005 L 78.379997 27.179993 L 77.599998 26.600006 L 77.010002 26.790009 L 76.43 27.380005 L 75.449997 27.959991 L 75.059998 27.769989 L 73.489998 26.209991 L 73.489998 26.01001 L 74.470001 25.029999 L 74.669998 25.029999 L 75.650002 24.059998 L 75.650002 23.860001 L 74.080002 22.100006 L 72.910004 23.080002 L 71.739998 23.660004 L 70.949997 22.880005 L 70.370003 21.910004 L 70.370003 21.51001 L 71.93 19.949997 L 72.129997 19.949997 L 74.279999 18 L 74.470001 18 L 75.059998 17.019989 L 74.860001 16.23999 L 73.889999 14.869995 L 73.690002 14.869995 L 73.300003 14.480011 L 72.32 14.480011 L 68.800003 17.410004 L 68.610001 17.410004 L 67.629997 18.389999 L 67.440002 18.389999 L 66.650002 19.169998 L 66.459999 19.169998 L 65.68 19.949997 L 65.480003 19.949997 L 64.5 20.929993 L 64.309998 20.929993 L 63.529999 21.709991 L 63.330002 21.709991 L 62.349998 22.690002 L 62.16 22.690002 L 61.380001 23.470001 L 61.18 23.470001 L 60.200001 24.449997 L 60.009998 24.449997 L 59.23 25.230011 L 59.029999 25.230011 L 58.25 26.01001 L 58.049999 26.01001 L 57.080002 26.98999 L 56.880001 26.98999 L 56.099998 27.769989 L 55.900002 27.769989 L 55.119999 28.550003 L 54.93 28.550003 L 53.950001 29.529999 L 53.75 29.529999 L 47.110001 35 L 45.540001 35.980011 L 45.349998 35.779999 L 45.349998 33.830002 L 45.150002 33.630005 L 45.150002 0.399994 L 44.759998 0.399994 L 43.98 0.01001 Z M 9.77 53.570007 L 10.95 53.380005 L 11.14 53.179993 L 13.68 53.179993 L 13.88 53.380005 L 14.46 53.380005 L 15.64 53.960007 L 17.01 55.330002 L 17.59 56.699997 L 17.59 58.259995 L 17.4 58.460007 L 17.200001 59.429993 L 15.64 61.190002 L 14.27 61.779999 L 12.51 61.779999 L 10.56 60.800003 L 9.58 59.630005 L 8.99 58.070007 L 8.6 58.070007 L 6.84 59.630005 L 6.84 60.610001 L 7.43 61.779999 L 8.99 63.539993 L 10.56 64.520004 L 10.95 64.520004 L 11.73 64.910004 L 12.9 64.910004 L 13.49 65.300003 L 13.49 66.080002 L 13.29 66.279999 L 13.29 67.839996 L 13.49 68.039993 L 13.49 68.619995 L 13.68 68.820007 L 13.88 69.600006 L 15.44 71.550003 L 15.64 71.550003 L 16.42 72.339996 L 17.200001 72.529999 L 17.98 72.139999 L 19.549999 70.970001 L 19.549999 70.770004 L 18.370001 70.190002 L 17.01 68.820007 L 16.42 67.449997 L 16.42 65.490005 L 17.01 64.320007 L 18.18 63.149994 L 19.35 62.559998 L 19.940001 62.559998 L 20.129999 62.369995 L 21.5 62.369995 L 21.700001 62.559998 L 22.09 62.559998 L 22.48 62.759995 L 24.24 64.520004 L 24.82 65.690002 L 24.82 66.080002 L 25.02 66.279999 L 25.02 68.229996 L 24.82 68.429993 L 24.82 69.009995 L 24.629999 69.210007 L 24.43 69.990005 L 24.040001 70.380005 L 23.65 71.160004 L 21.309999 73.509995 L 18.959999 74.880005 L 18.57 74.880005 L 17.790001 75.270004 L 17.200001 75.270004 L 17.01 75.460007 L 15.64 75.460007 L 15.44 75.660004 L 13.88 75.660004 L 13.68 75.460007 L 12.51 75.460007 L 12.31 75.270004 L 11.14 75.070007 L 8.41 73.699997 L 7.43 72.919998 L 7.62 72.339996 L 8.01 72.139999 L 9.38 70.770004 L 9.38 70.380005 L 8.8 69.210007 L 7.82 68.229996 L 7.04 68.039993 L 6.84 67.839996 L 5.28 69.009995 L 4.69 69.210007 L 4.3 68.820007 L 3.91 68.039993 L 3.91 67.639999 L 3.52 66.860001 L 3.52 66.080002 L 3.32 65.889999 L 3.13 63.149994 L 3.32 62.949997 L 3.32 61.779999 L 3.52 61.580002 L 3.52 61 L 3.71 60.800003 L 3.91 59.830002 L 4.3 59.240005 L 4.3 58.850006 L 4.69 58.460007 L 4.89 57.869995 L 5.86 56.699997 L 5.86 56.5 L 7.23 55.130005 L 7.43 55.130005 L 8.6 54.160004 Z M 76.230003 53.380005 L 76.43 53.570007 L 77.800003 53.960007 L 78.970001 54.940002 L 79.160004 54.940002 L 81.510002 57.479996 L 82.879997 60.020004 L 82.879997 60.410004 L 83.07 60.610001 L 83.07 61.389999 L 83.269997 61.580002 L 83.269997 65.889999 L 83.07 66.080002 L 83.07 67.059998 L 82.879997 67.25 L 82.879997 67.639999 L 82.290001 68.619995 L 82.290001 69.009995 L 81.900002 69.399994 L 81.120003 69.009995 L 79.949997 68.039993 L 78.970001 68.039993 L 77.400002 69.789993 L 77.400002 70.770004 L 77.599998 71.160004 L 78.970001 72.529999 L 78.970001 72.919998 L 77.800003 73.899994 L 75.449997 75.070007 L 75.059998 75.070007 L 74.860001 75.270004 L 74.080002 75.270004 L 73.889999 75.460007 L 69.589996 75.460007 L 69.389999 75.270004 L 68.800003 75.270004 L 68.610001 75.070007 L 67.629997 74.880005 L 66.459999 74.289993 L 66.07 73.899994 L 65.480003 73.699997 L 64.699997 72.919998 L 64.5 72.919998 L 63.529999 71.940002 L 63.529999 71.75 L 62.549999 70.580002 L 61.959999 69.399994 L 61.959999 69.009995 L 61.77 68.820007 L 61.77 68.039993 L 61.57 67.839996 L 61.77 65.690002 L 62.740002 63.929993 L 63.529999 63.149994 L 64.5 62.559998 L 65.089996 62.559998 L 65.290001 62.369995 L 66.459999 62.369995 L 66.650002 62.559998 L 67.239998 62.559998 L 68.410004 63.149994 L 69.589996 64.320007 L 69.779999 65.100006 L 69.980003 65.300003 L 69.980003 66.080002 L 70.169998 66.279999 L 70.169998 66.669998 L 69.980003 66.860001 L 69.980003 68.039993 L 69.389999 69.210007 L 68.410004 70.190002 L 67.040001 70.770004 L 67.040001 70.970001 L 67.239998 70.970001 L 68.019997 71.75 L 69.389999 72.529999 L 69.779999 72.529999 L 70.760002 71.75 L 70.949997 71.75 L 72.32 70.190002 L 73.300003 68.229996 L 73.300003 65.690002 L 73.099998 65.490005 L 73.099998 65.100006 L 73.300003 64.910004 L 75.449997 64.710007 L 77.400002 63.729996 L 78.970001 62.169998 L 79.75 60.610001 L 79.75 59.830002 L 79.360001 59.429993 L 79.360001 59.240005 L 78.190002 58.259995 L 77.400002 58.070007 L 77.400002 58.649994 L 77.209999 58.850006 L 77.010002 59.630005 L 76.43 60.220001 L 76.43 60.410004 L 75.25 61.389999 L 74.470001 61.779999 L 73.690002 61.779999 L 73.489998 61.979996 L 72.32 61.779999 L 70.760002 61 L 69.779999 60.020004 L 69 58.649994 L 69 56.889999 L 69.980003 54.940002 L 70.760002 54.160004 L 72.129997 53.380005 L 72.519997 53.380005 L 72.709999 53.179993 L 75.449997 53.179993 L 75.650002 53.380005 Z M 33.23 73.119995 L 34.990002 71.360001 L 36.16 70.770004 L 36.75 70.770004 L 36.939999 70.580002 L 38.119999 70.580002 L 38.310001 70.770004 L 38.900002 70.770004 L 39.68 71.160004 L 41.049999 72.529999 L 41.630001 73.699997 L 41.630001 76.050003 L 41.240002 76.639999 L 41.240002 77.029999 L 40.66 77.610001 L 40.66 77.809998 L 40.07 78.389999 L 38.900002 78.979996 L 36.360001 78.979996 L 36.16 78.789993 L 35.380001 78.789993 L 34.990002 78.589996 L 34.990002 81.520004 L 35.77 81.720001 L 35.970001 81.910004 L 36.75 81.910004 L 36.939999 82.110001 L 39.290001 82.110001 L 39.48 81.910004 L 39.869999 81.910004 L 41.240002 81.330002 L 43.389999 79.570007 L 44.759998 80.940002 L 46.130001 81.720001 L 46.52 81.720001 L 46.720001 81.910004 L 47.5 81.910004 L 47.689999 82.110001 L 49.84 82.110001 L 50.040001 81.910004 L 50.630001 81.910004 L 51.41 81.330002 L 51.41 78.589996 L 50.630001 78.789993 L 50.43 78.979996 L 47.689999 78.979996 L 47.5 78.789993 L 46.720001 78.589996 L 45.540001 77.419998 L 45.150002 76.639999 L 45.150002 76.240005 L 44.959999 76.050003 L 44.959999 73.699997 L 45.540001 72.529999 L 47.299999 70.970001 L 47.689999 70.970001 L 47.889999 70.770004 L 48.669998 70.770004 L 48.869999 70.580002 L 51.02 70.970001 L 52.580002 71.940002 L 53.75 73.309998 L 54.34 74.679993 L 54.34 75.270004 L 54.529999 75.460007 L 54.73 78.979996 L 54.529999 79.179993 L 54.529999 80.740005 L 54.34 80.940002 L 54.34 81.520004 L 53.75 82.699997 L 53.75 83.089996 L 53.360001 83.479996 L 53.169998 84.059998 L 52.580002 84.649994 L 52.580002 84.850006 L 50.630001 86.800003 L 50.43 86.800003 L 49.259998 87.779999 L 47.299999 88.75 L 45.740002 89.149994 L 45.150002 88.360001 L 45.150002 87 L 44.959999 86.800003 L 44.959999 86.410004 L 43.779999 85.820007 L 42.610001 85.820007 L 41.439999 86.410004 L 41.439999 87 L 41.240002 87.190002 L 41.240002 88.559998 L 40.849998 89.149994 L 38.700001 88.559998 L 37.139999 87.779999 L 35.970001 86.800003 L 35.77 86.800003 L 33.82 84.649994 L 32.639999 82.5 L 32.639999 82.110001 L 32.060001 80.740005 L 32.060001 79.759995 L 31.860001 79.570007 L 31.860001 76.830002 L 32.060001 76.639999 L 32.060001 75.660004 L 32.25 75.460007 L 32.450001 74.490005 Z"/>
    <path id="path1" fill="#fc0101" fill-rule="evenodd" stroke="none" d="M 239.839996 14.089996 L 237.880005 13.889999 L 237.690002 13.699997 L 235.729996 13.699997 L 235.539993 13.5 L 230.059998 13.5 L 229.869995 13.699997 L 228.110001 13.699997 L 227.910004 13.889999 L 226.350006 14.089996 L 226.149994 14.279999 L 225.179993 14.480011 L 224.589996 14.869995 L 224.199997 14.869995 L 223.610001 15.26001 L 223.220001 15.26001 L 220.289993 17.019989 L 219.699997 17.610001 L 219.509995 17.610001 L 216.580002 20.730011 L 215.789993 22.300003 L 215.399994 22.690002 L 215.399994 23.080002 L 214.820007 24.059998 L 214.820007 24.449997 L 214.229996 25.809998 L 214.029999 27.380005 L 213.839996 27.570007 L 213.839996 28.550003 L 213.639999 28.75 L 213.639999 33.440002 L 213.839996 33.630005 L 213.839996 34.610001 L 214.029999 34.809998 L 214.029999 35.389999 L 214.229996 35.589996 L 214.619995 37.149994 L 215.789993 39.5 L 216.179993 39.889999 L 216.580002 40.669998 L 217.550003 41.649994 L 217.550003 41.839996 L 219.899994 43.98999 L 220.089996 43.98999 L 220.679993 44.580002 L 220.880005 44.580002 L 222.440002 45.75 L 223.809998 46.339996 L 224.199997 46.730003 L 224.589996 46.730003 L 226.740005 47.900002 L 227.130005 47.900002 L 229.089996 48.879997 L 230.449997 49.269997 L 231.429993 49.860001 L 231.820007 49.860001 L 232.410004 50.25 L 233.779999 50.639999 L 234.75 51.229996 L 235.139999 51.229996 L 238.270004 52.789993 L 238.660004 53.179993 L 239.25 53.380005 L 241.199997 55.130005 L 241.199997 55.330002 L 241.990005 56.309998 L 243.350006 59.240005 L 243.350006 62.169998 L 243.550003 62.369995 L 243.550003 63.539993 L 243.350006 63.729996 L 243.350006 67.449997 L 243.160004 67.639999 L 242.960007 68.820007 L 242.570007 69.399994 L 242.570007 69.789993 L 241.990005 70.970001 L 241.009995 72.139999 L 241.009995 72.339996 L 238.860001 74.289993 L 236.899994 75.270004 L 236.509995 75.270004 L 235.729996 75.660004 L 235.139999 75.660004 L 234.949997 75.850006 L 233.779999 75.850006 L 233.580002 76.050003 L 228.889999 76.050003 L 228.690002 75.850006 L 227.520004 75.850006 L 227.330002 75.660004 L 225.960007 75.460007 L 223.220001 74.289993 L 221.460007 72.919998 L 221.270004 72.919998 L 219.899994 71.550003 L 219.899994 71.360001 L 218.729996 69.990005 L 217.360001 67.25 L 217.360001 66.860001 L 217.160004 66.669998 L 217.160004 66.279999 L 216.580002 64.910004 L 216.380005 63.339996 L 216.179993 63.149994 L 215.990005 60.800003 L 215.789993 60.610001 L 215.789993 59.240005 L 215.600006 59.039993 L 213.059998 59.039993 L 213.059998 60.020004 L 213.25 60.220001 L 213.25 65.300003 L 213.449997 65.490005 L 213.449997 69.399994 L 213.639999 69.600006 L 213.639999 70.380005 L 213.839996 70.580002 L 214.029999 72.339996 L 214.820007 73.899994 L 214.820007 74.289993 L 215.399994 75.660004 L 215.789993 76.050003 L 216.179993 76.050003 L 216.770004 76.440002 L 217.160004 76.440002 L 217.360001 76.639999 L 217.75 76.639999 L 219.119995 77.220001 L 221.270004 77.610001 L 221.460007 77.809998 L 222.240005 77.809998 L 222.440002 78 L 223.220001 78 L 223.419998 78.199997 L 224.389999 78.199997 L 224.589996 78.389999 L 226.149994 78.389999 L 226.350006 78.589996 L 233.580002 78.589996 L 233.779999 78.389999 L 234.949997 78.389999 L 235.139999 78.199997 L 235.929993 78.199997 L 236.119995 78 L 237.490005 77.809998 L 237.690002 77.610001 L 238.660004 77.419998 L 239.639999 76.830002 L 240.029999 76.830002 L 240.809998 76.440002 L 241.199997 76.050003 L 241.789993 75.850006 L 242.960007 74.880005 L 243.160004 74.880005 L 244.720001 73.309998 L 244.919998 73.309998 L 244.919998 73.119995 L 246.289993 71.75 L 246.289993 71.550003 L 247.259995 70.380005 L 248.830002 67.059998 L 248.830002 66.470001 L 249.220001 65.690002 L 249.410004 64.130005 L 249.610001 63.929993 L 249.610001 62.949997 L 249.800003 62.759995 L 249.800003 61.389999 L 250 61.190002 L 250 57.869995 L 249.800003 57.679993 L 249.610001 55.330002 L 249.410004 55.130005 L 249.410004 54.550003 L 249.220001 54.350006 L 249.220001 53.770004 L 249.020004 53.570007 L 248.630005 52.009995 L 248.240005 51.419998 L 248.240005 51.029999 L 247.850006 50.25 L 247.460007 49.860001 L 247.259995 49.269997 L 246.289993 48.099998 L 246.289993 47.900002 L 243.160004 44.970001 L 242.960007 44.970001 L 241.990005 44.190002 L 241.009995 43.800003 L 240.619995 43.410004 L 234.949997 40.669998 L 234.360001 40.669998 L 234.169998 40.470001 L 233.190002 40.279999 L 232.600006 39.889999 L 231.630005 39.690002 L 231.039993 39.300003 L 229.669998 38.910004 L 228.690002 38.320007 L 228.300003 38.320007 L 227.330002 37.73999 L 226.940002 37.73999 L 224 36.169998 L 221.270004 33.630005 L 219.899994 31.089996 L 219.899994 30.51001 L 219.699997 30.309998 L 219.699997 25.029999 L 219.899994 24.839996 L 219.899994 23.860001 L 220.089996 23.660004 L 220.089996 23.080002 L 220.479996 22.48999 L 220.479996 22.100006 L 221.660004 20.149994 L 223.220001 18.580002 L 225.960007 17.019989 L 226.350006 17.019989 L 227.720001 16.429993 L 228.300003 16.429993 L 228.5 16.23999 L 229.279999 16.23999 L 229.479996 16.040009 L 232.800003 15.850006 L 232.990005 16.040009 L 234.360001 16.040009 L 234.559998 16.23999 L 235.339996 16.23999 L 235.539993 16.429993 L 237.100006 16.820007 L 239.440002 18.190002 L 241.399994 20.149994 L 241.399994 20.339996 L 242.570007 21.910004 L 243.160004 23.080002 L 243.160004 23.470001 L 243.550003 24.059998 L 243.550003 24.449997 L 244.139999 25.809998 L 244.330002 27.179993 L 244.529999 27.380005 L 244.529999 28.160004 L 244.720001 28.360001 L 244.720001 29.139999 L 244.919998 29.330002 L 245.110001 30.899994 L 247.649994 30.899994 L 247.649994 27.769989 L 247.460007 27.570007 L 247.460007 22.300003 L 247.259995 22.100006 L 247.259995 18.779999 L 247.070007 18.580002 L 247.070007 17.209991 L 246.869995 16.820007 L 244.919998 15.850006 L 244.529999 15.850006 L 243.940002 15.459991 L 243.550003 15.459991 L 243.350006 15.26001 L 242.960007 15.26001 L 242.770004 15.059998 L 242.380005 15.059998 L 242.179993 14.869995 L 241.789993 14.869995 L 241.589996 14.669998 L 241.199997 14.669998 Z M 102.419998 14.279999 L 102.419998 16.630005 L 109.07 16.630005 L 109.459999 17.019989 L 109.459999 59.240005 L 109.660004 59.429993 L 109.660004 62.169998 L 109.849998 62.369995 L 109.849998 63.539993 L 110.050003 63.729996 L 110.050003 64.520004 L 110.239998 64.710007 L 110.629997 66.860001 L 111.220001 68.039993 L 111.220001 68.429993 L 111.610001 69.009995 L 111.610001 69.399994 L 112 70.190002 L 112.389999 70.580002 L 112.589996 71.160004 L 113.57 72.339996 L 113.57 72.529999 L 115.519997 74.490005 L 115.720001 74.490005 L 116.300003 75.070007 L 117.470001 75.660004 L 117.870003 76.050003 L 118.650002 76.440002 L 119.040001 76.440002 L 120.019997 77.029999 L 120.410004 77.029999 L 121.769997 77.610001 L 122.360001 77.610001 L 122.559998 77.809998 L 123.139999 77.809998 L 123.339996 78 L 124.120003 78 L 124.32 78.199997 L 125.290001 78.199997 L 125.489998 78.389999 L 133.110001 78.389999 L 133.309998 78.199997 L 134.869995 78.199997 L 135.070007 78 L 136.039993 78 L 136.240005 77.809998 L 137.020004 77.809998 L 137.800003 77.419998 L 138.389999 77.419998 L 138.979996 77.029999 L 140.339996 76.639999 L 141.520004 76.050003 L 141.910004 75.660004 L 142.490005 75.460007 L 143.860001 74.289993 L 144.059998 74.289993 L 145.429993 72.919998 L 145.429993 72.729996 L 146.210007 71.940002 L 146.210007 71.75 L 146.990005 70.770004 L 148.360001 68.039993 L 148.360001 67.639999 L 148.550003 67.449997 L 148.550003 67.059998 L 149.139999 65.690002 L 149.339996 64.320007 L 149.529999 64.130005 L 149.529999 62.369995 L 149.729996 62.169998 L 149.729996 49.660004 L 149.919998 49.470001 L 149.919998 17.019989 L 150.309998 16.630005 L 156.369995 16.630005 L 156.369995 14.279999 L 139.759995 14.279999 L 139.759995 16.630005 L 146.399994 16.630005 L 146.600006 16.820007 L 146.600006 56.309998 L 146.399994 56.5 L 146.399994 60.800003 L 146.210007 61 L 146.210007 62.759995 L 146.009995 62.949997 L 146.009995 63.929993 L 145.820007 64.130005 L 145.820007 64.710007 L 145.619995 64.910004 L 145.619995 65.490005 L 145.429993 65.690002 L 145.229996 66.669998 L 143.669998 69.990005 L 142.300003 71.550003 L 142.300003 71.75 L 140.729996 73.119995 L 138.580002 74.289993 L 138.190002 74.289993 L 137.410004 74.679993 L 136.830002 74.679993 L 136.630005 74.880005 L 135.850006 74.880005 L 135.649994 75.070007 L 134.089996 75.070007 L 133.889999 75.270004 L 130.770004 75.270004 L 130.570007 75.070007 L 129.009995 75.070007 L 128.809998 74.880005 L 128.029999 74.880005 L 127.830002 74.679993 L 127.25 74.679993 L 127.050003 74.490005 L 126.080002 74.289993 L 125.489998 73.899994 L 125.099998 73.899994 L 122.949997 72.529999 L 121.190002 70.770004 L 121.190002 70.580002 L 120.410004 69.600006 L 119.040001 66.669998 L 118.839996 65.490005 L 118.650002 65.300003 L 118.650002 64.520004 L 118.449997 64.320007 L 118.449997 63.539993 L 118.260002 63.339996 L 118.260002 61.979996 L 118.059998 61.779999 L 118.059998 59.630005 L 117.870003 59.429993 L 117.870003 55.130005 L 117.669998 54.940002 L 117.669998 17.019989 L 117.870003 16.820007 L 124.120003 16.820007 L 124.32 16.630005 L 125.099998 16.630005 L 125.099998 14.279999 Z M 160.089996 14.279999 L 160.279999 14.669998 L 160.279999 16.630005 L 166.539993 16.630005 L 167.320007 17.019989 L 167.320007 75.070007 L 167.119995 75.270004 L 161.059998 75.270004 L 160.869995 75.460007 L 160.279999 75.460007 L 160.279999 77.220001 L 160.089996 77.610001 L 160.279999 77.809998 L 162.630005 77.809998 L 162.820007 77.610001 L 186.669998 77.610001 L 186.860001 77.419998 L 190.580002 77.419998 L 190.770004 77.220001 L 191.75 77.220001 L 191.949997 77.029999 L 192.529999 77.029999 L 192.729996 76.830002 L 193.320007 76.830002 L 193.509995 76.639999 L 195.070007 76.240005 L 198.199997 74.679993 L 198.789993 74.089996 L 199.770004 73.509995 L 201.720001 71.550003 L 201.720001 71.360001 L 203.089996 69.600006 L 204.070007 67.639999 L 204.070007 67.25 L 204.460007 66.470001 L 204.460007 65.889999 L 204.649994 65.690002 L 204.649994 65.100006 L 204.850006 64.910004 L 204.850006 63.729996 L 205.039993 63.539993 L 205.039993 57.279999 L 204.850006 57.089996 L 204.850006 55.919998 L 204.649994 55.720001 L 204.649994 55.130005 L 204.460007 54.940002 L 204.460007 54.350006 L 204.259995 54.160004 L 204.070007 53.179993 L 203.669998 52.589996 L 203.479996 51.809998 L 203.089996 51.419998 L 202.5 50.25 L 201.720001 49.470001 L 201.720001 49.269997 L 200.940002 48.489998 L 200.740005 48.489998 L 199.960007 47.709999 L 199.770004 47.709999 L 198.789993 46.919998 L 197.220001 46.139999 L 196.830002 46.139999 L 196.25 45.75 L 195.860001 45.75 L 194.490005 45.169998 L 193.899994 45.169998 L 193.710007 44.970001 L 193.119995 44.970001 L 192.919998 44.769989 L 191.949997 44.769989 L 191.75 44.580002 L 190.770004 44.580002 L 190.580002 44.380005 L 188.039993 44.190002 L 187.449997 43.800003 L 188.820007 43.209991 L 189.600006 43.209991 L 190.380005 42.820007 L 191.75 42.619995 L 195.070007 41.26001 L 195.470001 40.869995 L 196.050003 40.669998 L 196.440002 40.279999 L 197.220001 39.889999 L 198.009995 39.110001 L 198.199997 39.110001 L 199.369995 37.929993 L 199.369995 37.73999 L 200.160004 36.959991 L 200.350006 36.369995 L 200.740005 35.980011 L 201.720001 33.630005 L 201.720001 33.050003 L 201.919998 32.850006 L 201.919998 32.269989 L 202.110001 32.070007 L 202.110001 31.089996 L 202.309998 30.899994 L 202.309998 26.209991 L 202.110001 26.01001 L 202.110001 25.029999 L 201.919998 24.839996 L 201.720001 23.470001 L 201.520004 23.269989 L 201.330002 22.300003 L 200.350006 20.339996 L 199.369995 19.169998 L 199.369995 18.970001 L 198.009995 17.610001 L 197.809998 17.610001 L 196.639999 16.630005 L 194.289993 15.459991 L 193.899994 15.459991 L 193.119995 15.059998 L 192.529999 15.059998 L 192.339996 14.869995 L 191.75 14.869995 L 191.559998 14.669998 L 190.580002 14.669998 L 190.380005 14.480011 L 186.669998 14.480011 L 186.470001 14.279999 Z M 175.919998 16.820007 L 176.899994 16.820007 L 177.089996 16.630005 L 184.320007 16.630005 L 184.520004 16.820007 L 185.690002 16.820007 L 185.889999 17.019989 L 187.059998 17.209991 L 188.619995 18 L 189.800003 18.970001 L 189.990005 18.970001 L 191.559998 20.730011 L 192.729996 22.690002 L 192.729996 23.080002 L 193.119995 23.660004 L 193.119995 24.059998 L 193.509995 24.839996 L 193.509995 25.419998 L 193.710007 25.619995 L 193.710007 26.399994 L 193.899994 26.600006 L 193.899994 28.360001 L 194.100006 28.550003 L 194.100006 30.699997 L 193.899994 30.899994 L 193.899994 32.459991 L 193.710007 32.660004 L 193.710007 33.630005 L 193.509995 33.830002 L 193.509995 34.419998 L 193.320007 34.610001 L 192.919998 36.169998 L 192.139999 37.73999 L 191.160004 38.910004 L 191.160004 39.110001 L 188.820007 41.26001 L 186.860001 42.230011 L 186.470001 42.230011 L 186.279999 42.429993 L 185.300003 42.429993 L 185.110001 42.619995 L 183.539993 42.619995 L 183.350006 42.820007 L 180.410004 42.820007 L 180.220001 43.019989 L 176.309998 43.019989 L 175.720001 42.429993 L 175.720001 17.019989 Z M 175.919998 45.559998 L 185.5 45.559998 L 185.690002 45.75 L 186.860001 45.75 L 187.059998 45.949997 L 188.229996 46.139999 L 190.770004 47.510002 L 192.919998 49.470001 L 192.919998 49.660004 L 194.100006 51.029999 L 195.470001 53.770004 L 195.660004 54.940002 L 195.860001 55.130005 L 195.860001 56.110001 L 196.050003 56.309998 L 196.050003 57.869995 L 196.25 58.070007 L 196.25 62.949997 L 196.050003 63.149994 L 196.050003 64.520004 L 195.860001 64.710007 L 195.860001 65.300003 L 195.660004 65.490005 L 195.660004 66.080002 L 195.470001 66.279999 L 195.270004 67.25 L 194.289993 69.210007 L 193.320007 70.380005 L 193.320007 70.580002 L 190.770004 72.919998 L 188.229996 74.289993 L 187.839996 74.289993 L 186.470001 74.880005 L 185.690002 74.880005 L 185.5 75.070007 L 183.149994 75.070007 L 182.960007 75.270004 L 175.919998 75.270004 L 175.720001 75.070007 L 175.720001 45.75 Z"/>
</svg>
