<?xml version="1.0" encoding="UTF-8"?>
<!-- Generated by Pixelmator Pro 3.8 -->
<svg width="250" height="70" viewBox="0 0 250 70" xmlns="http://www.w3.org/2000/svg">
    <g id="Group">
        <path id="Path" fill="#e2001a" fill-rule="evenodd" stroke="none" d="M 45.4361 18.424103 L 45.558899 19.529297 L 45.313301 20.388901 L 44.944901 21.002899 L 43.471298 22.476501 L 34.752499 30.458496 L 26.033701 38.072098 L 16.2097 46.0541 L 7.4909 52.5625 L 5.2805 53.9133 L 4.9121 53.9133 L 4.1753 53.544899 L 5.0349 54.772903 L 6.0173 55.6325 L 6.6313 55.755302 L 7.2453 55.509697 L 9.3329 54.036102 L 12.0345 55.878098 L 14.4905 57.106102 L 17.192101 58.088501 L 20.5077 58.825302 L 24.928499 59.0709 L 27.6301 58.825302 L 28.244101 58.579697 L 29.472099 58.456902 L 33.033298 57.3517 L 36.7173 55.509697 L 39.910099 53.176498 L 42.3661 50.720497 L 43.7169 49.001297 L 45.067699 46.913696 L 46.2957 44.457703 L 47.032501 42.492897 L 48.0149 38.440498 L 48.260502 35.738899 L 48.0149 31.3181 L 47.032501 27.265701 L 46.2957 25.300903 L 45.4361 23.704498 L 46.2957 22.844894 L 46.7869 21.7397 L 46.664101 20.020493 Z M 39.664501 16.459305 L 38.190899 15.231293 L 35.8577 13.757706 L 33.892899 12.775299 L 31.3141 11.792892 L 28.9809 11.178894 L 26.5249 10.810501 L 21.6129 10.810501 L 18.1745 11.4245 L 14.2449 12.775299 L 11.4205 14.248901 L 8.1049 16.704895 L 5.1577 19.774902 L 3.0701 22.844894 L 1.9649 25.055298 L 0.9825 27.634094 L 0.3685 29.9673 L 0.0001 32.423302 L 0.0001 37.335297 L 0.3685 39.791298 L 0.9825 42.124496 L 1.9649 44.7033 L 2.9473 46.668098 L 4.4209 49.001297 L 5.4033 50.229301 L 16.946501 33.774101 L 25.174101 22.967697 L 25.2969 22.476501 L 24.8057 21.862503 L 21.490101 19.897705 L 20.7533 19.283707 L 20.630501 18.424103 L 21.244499 17.687302 L 22.963699 17.196106 L 27.998501 16.704895 L 32.9105 16.459305 Z"/>
        <path id="path1" fill="#000000" fill-rule="evenodd" stroke="none" d="M 232.214905 25.546494 L 224.969696 25.546494 L 224.969696 56.492104 L 226.074905 56.492104 L 227.302902 56.246498 L 229.144897 55.386902 L 231.109695 53.422096 L 231.723694 52.316902 L 232.214905 50.597702 Z M 175.235703 27.388504 L 173.025299 29.230499 L 171.306107 31.563705 L 169.955307 34.7565 L 169.218506 38.317703 L 169.095703 42.247299 L 169.464096 45.440102 L 170.446503 48.755699 L 171.920105 51.457298 L 173.884903 53.667702 L 175.726898 55.018501 L 178.060104 56.123703 L 181.252899 56.860497 L 184.568497 56.983299 L 188.006897 56.614899 L 190.831299 56.0009 L 193.655701 54.895699 L 193.901306 54.650101 L 193.901306 48.632896 L 190.954102 50.352097 L 188.375305 51.2117 L 185.550903 51.580101 L 182.358093 51.457298 L 180.270493 50.720497 L 179.165298 49.983704 L 178.428497 49.246902 L 177.323303 47.527702 L 176.463699 44.7033 L 176.586502 43.843697 L 176.954895 43.720901 L 181.498505 43.229698 L 183.094894 42.861298 L 188.620895 42.247299 L 190.2173 41.878899 L 194.883698 41.2649 L 194.883698 38.686096 L 194.392502 35.002098 L 193.655701 32.6689 L 192.427704 30.335693 L 191.813705 29.476105 L 190.340103 28.002502 L 189.480499 27.388504 L 187.638504 26.406097 L 185.059692 25.669296 L 184.200104 25.546494 L 179.656494 25.669296 L 177.446106 26.283295 Z M 175.972504 38.686096 L 176.095306 36.230103 L 176.709305 33.896896 L 177.323303 32.6689 L 177.814499 32.054901 L 179.410904 30.826904 L 181.007294 30.335693 L 183.586105 30.335693 L 184.936905 30.704102 L 186.042099 31.3181 L 187.147293 32.423302 L 187.884094 33.774101 L 188.498093 36.4757 L 188.498093 36.966904 L 188.252502 37.212502 L 182.849304 37.8265 L 182.112503 38.072098 L 176.463699 38.808899 Z M 169.095703 25.792099 L 167.376495 25.546494 L 161.236496 25.669296 L 157.920898 26.406097 L 156.447296 26.897293 L 154.359695 27.8797 L 154.359695 56.492104 L 156.201706 56.369301 L 158.412094 55.509697 L 160.131302 54.036102 L 161.359299 51.948502 L 161.727707 50.352097 L 161.850494 31.195297 L 162.710098 30.826904 L 163.938095 30.581299 L 166.516907 30.581299 L 167.867706 30.949707 L 169.218506 31.686493 Z M 121.3265 25.546494 L 114.081299 25.546494 L 114.081299 56.492104 L 115.063698 56.492104 L 116.291702 56.246498 L 118.010902 55.509697 L 118.870499 54.895699 L 120.344101 53.176498 L 121.203697 50.966103 L 121.3265 50.229301 Z M 86.819702 27.756897 L 86.819702 56.492104 L 94.187698 56.492104 L 94.187698 31.195297 L 94.433296 30.949707 L 96.520897 30.458496 L 99.836502 30.458496 L 101.678497 31.195297 L 102.783699 32.423302 L 103.274902 33.774101 L 103.274902 49.983704 L 103.5205 51.334503 L 104.011703 52.5625 L 104.625702 53.544899 L 106.222099 55.141296 L 107.204498 55.755302 L 108.432503 56.246498 L 109.6605 56.492104 L 110.642899 56.492104 L 110.642899 33.282898 L 109.906097 30.704102 L 108.678101 28.862106 L 107.327301 27.634094 L 105.608101 26.651703 L 103.397697 25.914902 L 101.064499 25.546494 L 96.275299 25.546494 L 94.064903 25.792099 L 89.398499 26.774506 Z M 243.880905 14.740097 L 242.407303 15.108505 L 240.933701 15.845306 L 238.968903 17.810104 L 238.232101 19.283707 L 237.863693 20.757294 L 237.740906 25.546494 L 234.670898 25.546494 L 234.670898 31.440903 L 237.863693 31.563705 L 237.863693 50.720497 L 238.477707 52.930901 L 239.091705 54.036102 L 239.828506 54.895699 L 241.670502 56.123703 L 244.249298 56.860497 L 246.828094 56.983299 L 247.810501 56.860497 L 249.898102 56.246498 L 249.898102 50.106499 L 248.547302 50.474899 L 246.582504 50.352097 L 245.7229 49.860901 L 245.231705 48.878502 L 245.354507 31.440903 L 249.898102 31.440903 L 249.898102 25.546494 L 245.231705 25.423706 L 245.231705 14.740097 Z M 226.688904 15.108505 L 225.215302 16.336502 L 224.601303 17.810104 L 224.724106 19.529297 L 225.338104 20.634506 L 226.197693 21.371307 L 227.671295 21.985306 L 229.513306 21.985306 L 230.986893 21.371307 L 232.092102 20.266098 L 232.583298 18.915298 L 232.460495 17.441696 L 231.846497 16.213699 L 230.495697 15.108505 L 229.2677 14.740097 L 227.916901 14.740097 Z M 221.408493 14.740097 L 220.303299 14.740097 L 218.706894 15.108505 L 217.110504 15.968094 L 215.391296 17.687302 L 214.654495 19.038101 L 214.286102 20.266098 L 214.040497 27.142899 L 212.444107 26.774506 L 209.742493 26.651703 L 207.409302 26.897293 L 204.707703 27.756897 L 202.742905 28.862106 L 200.409698 31.072495 L 198.936096 33.282898 L 198.322098 34.633698 L 197.462494 37.458099 L 196.971298 41.019302 L 197.094101 44.7033 L 197.708099 48.018898 L 198.690506 50.474899 L 200.409698 52.930901 L 201.883301 54.2817 L 202.988495 55.018501 L 205.076096 56.0009 L 207.409302 56.614899 L 210.233704 56.983299 L 214.900101 56.860497 L 221.408493 56.123703 Z M 210.970505 31.072495 L 212.566895 31.072495 L 214.1633 31.440903 L 214.1633 51.825699 L 213.794907 51.948502 L 210.110901 52.071297 L 208.391693 51.580101 L 207.163696 50.8433 L 205.935699 49.4925 L 205.444504 48.632896 L 204.830505 47.036499 L 204.462097 45.194504 L 204.339294 39.791298 L 204.707703 37.335297 L 205.444504 35.124901 L 205.935699 34.142502 L 206.795303 33.0373 L 208.146103 31.932098 L 209.251297 31.440903 Z M 116.414497 14.8629 L 115.186501 15.476898 L 114.204102 16.459305 L 113.712898 17.564499 L 113.835701 19.6521 L 114.326897 20.511703 L 114.940903 21.125702 L 116.291702 21.862503 L 118.502098 21.985306 L 119.361702 21.7397 L 120.221298 21.248505 L 121.080902 20.388901 L 121.449303 19.6521 L 121.694901 18.792496 L 121.694901 18.055695 L 121.449303 17.196106 L 120.835297 16.090897 L 119.9757 15.354095 L 119.238899 14.985703 L 118.2565 14.740097 Z M 61.5229 14.985703 L 59.680901 15.845306 L 57.9617 17.441696 L 56.979301 19.160904 L 56.488098 21.002899 L 56.488098 46.299698 L 57.224899 49.246902 L 58.330101 51.334503 L 60.1721 53.422096 L 62.3825 55.018501 L 64.4701 56.0009 L 66.680496 56.614899 L 69.382103 56.983299 L 72.206497 56.860497 L 75.7677 56.0009 L 77.855301 55.018501 L 79.328903 54.036102 L 80.802498 52.685303 L 82.398903 50.474899 L 83.381302 48.141701 L 83.749702 46.0541 L 83.749702 14.740097 L 81.784897 14.8629 L 80.679703 15.231293 L 79.574501 15.845306 L 78.100899 17.196106 L 76.872902 19.406494 L 76.627296 20.511703 L 76.627296 45.808502 L 76.504501 46.545303 L 75.522102 48.510101 L 74.416901 49.615303 L 72.574898 50.597702 L 70.9785 50.966103 L 69.013702 50.8433 L 66.680496 49.860901 L 65.206902 48.510101 L 64.224503 46.668098 L 64.1017 46.0541 L 64.1017 14.740097 L 62.7509 14.740097 Z M 140.8517 14.126099 L 136.676498 14.985703 L 133.974899 16.213699 L 130.904907 18.424103 L 129.799698 19.529297 L 127.957703 21.862503 L 125.992897 25.546494 L 124.7649 29.353302 L 124.150902 32.914497 L 124.150902 37.949303 L 125.133301 42.9841 L 126.1157 45.685699 L 127.957703 49.1241 L 129.554092 51.2117 L 131.2733 52.930901 L 134.097702 54.895699 L 136.185303 55.878098 L 137.658905 56.369301 L 140.114899 56.860497 L 141.588501 56.983299 L 145.026901 56.860497 L 147.7285 56.369301 L 149.324905 55.878098 L 150.921295 55.141296 L 151.903702 54.404503 L 151.903702 47.282097 L 151.044098 48.264503 L 149.938904 49.1241 L 148.096893 49.983704 L 145.763702 50.474899 L 141.956894 50.352097 L 140.606094 49.983704 L 138.886902 49.1241 L 137.658905 48.264503 L 136.0625 46.790901 L 133.974899 43.843697 L 132.6241 40.650902 L 131.887299 37.212502 L 131.887299 33.282898 L 132.132904 31.563705 L 132.869705 28.984894 L 133.729294 27.020096 L 134.957306 25.055298 L 135.939697 23.827301 L 137.904495 22.108093 L 140.114899 20.880096 L 142.325302 20.266098 L 143.307693 20.143295 L 146.009293 20.266098 L 148.956497 21.248505 L 150.798492 22.599304 L 151.903702 23.827301 L 151.780899 16.459305 L 148.956497 15.108505 L 146.623306 14.494507 L 144.167297 14.126099 Z"/>
        <path id="path2" fill="#ffffff" fill-rule="evenodd" stroke="none" d="M 45.067699 17.810104 L 44.453701 17.318893 L 43.594101 16.9505 L 40.892502 16.582108 L 29.963301 16.704895 L 23.823299 17.196106 L 22.2269 17.441696 L 21.244499 17.810104 L 20.7533 18.424103 L 20.876101 19.283707 L 24.8057 21.7397 L 25.2969 22.230896 L 25.2969 22.967697 L 17.0693 33.774101 L 6.7541 48.632896 L 4.0525 52.316902 L 4.1753 53.422096 L 4.9121 53.790497 L 5.6489 53.667702 L 8.3505 51.825699 L 19.1569 43.598099 L 29.472099 35.002098 L 38.559299 26.897293 L 44.822102 21.002899 L 45.4361 19.529297 L 45.313301 18.3013 Z"/>
    </g>
</svg>
