<?xml version="1.0" encoding="UTF-8"?>
<!-- Generated by Pixelmator Pro 3.8 -->
<svg width="250" height="50" viewBox="0 0 250 50" xmlns="http://www.w3.org/2000/svg">
    <g id="Group">
        <path id="Path" fill="#e2001a" fill-rule="evenodd" stroke="none" d="M 45.4361 8.424103 L 45.558899 9.529297 L 45.313301 10.388901 L 44.944901 11.002899 L 43.471298 12.476501 L 34.752499 20.458496 L 26.033701 28.072098 L 16.2097 36.0541 L 7.4909 42.5625 L 5.2805 43.9133 L 4.9121 43.9133 L 4.1753 43.544899 L 5.0349 44.772903 L 6.0173 45.6325 L 6.6313 45.755302 L 7.2453 45.509697 L 9.3329 44.036102 L 12.0345 45.878098 L 14.4905 47.106102 L 17.192101 48.088501 L 20.5077 48.825302 L 24.928499 49.0709 L 27.6301 48.825302 L 28.244101 48.579697 L 29.472099 48.456902 L 33.033298 47.3517 L 36.7173 45.509697 L 39.910099 43.176498 L 42.3661 40.720497 L 43.7169 39.001297 L 45.067699 36.913696 L 46.2957 34.457703 L 47.032501 32.492897 L 48.0149 28.440498 L 48.260502 25.738899 L 48.0149 21.3181 L 47.032501 17.265701 L 46.2957 15.300903 L 45.4361 13.704498 L 46.2957 12.844894 L 46.7869 11.7397 L 46.664101 10.020493 Z M 39.664501 6.459305 L 38.190899 5.231293 L 35.8577 3.757706 L 33.892899 2.775299 L 31.3141 1.792892 L 28.9809 1.178894 L 26.5249 0.810501 L 21.6129 0.810501 L 18.1745 1.4245 L 14.2449 2.775299 L 11.4205 4.248901 L 8.1049 6.704895 L 5.1577 9.774902 L 3.0701 12.844894 L 1.9649 15.055298 L 0.9825 17.634094 L 0.3685 19.9673 L 0.0001 22.423302 L 0.0001 27.335297 L 0.3685 29.791298 L 0.9825 32.124496 L 1.9649 34.7033 L 2.9473 36.668098 L 4.4209 39.001297 L 5.4033 40.229301 L 16.946501 23.774101 L 25.174101 12.967697 L 25.2969 12.476501 L 24.8057 11.862503 L 21.490101 9.897705 L 20.7533 9.283707 L 20.630501 8.424103 L 21.244499 7.687302 L 22.963699 7.196106 L 27.998501 6.704895 L 32.9105 6.459305 Z"/>
        <path id="path1" fill="#000000" fill-rule="evenodd" stroke="none" d="M 232.214905 15.546494 L 224.969696 15.546494 L 224.969696 46.492104 L 226.074905 46.492104 L 227.302902 46.246498 L 229.144897 45.386902 L 231.109695 43.422096 L 231.723694 42.316902 L 232.214905 40.597702 Z M 175.235703 17.388504 L 173.025299 19.230499 L 171.306107 21.563705 L 169.955307 24.7565 L 169.218506 28.317703 L 169.095703 32.247299 L 169.464096 35.440102 L 170.446503 38.755699 L 171.920105 41.457298 L 173.884903 43.667702 L 175.726898 45.018501 L 178.060104 46.123703 L 181.252899 46.860497 L 184.568497 46.983299 L 188.006897 46.614899 L 190.831299 46.0009 L 193.655701 44.895699 L 193.901306 44.650101 L 193.901306 38.632896 L 190.954102 40.352097 L 188.375305 41.2117 L 185.550903 41.580101 L 182.358093 41.457298 L 180.270493 40.720497 L 179.165298 39.983704 L 178.428497 39.246902 L 177.323303 37.527702 L 176.463699 34.7033 L 176.586502 33.843697 L 176.954895 33.720901 L 181.498505 33.229698 L 183.094894 32.861298 L 188.620895 32.247299 L 190.2173 31.878899 L 194.883698 31.2649 L 194.883698 28.686096 L 194.392502 25.002098 L 193.655701 22.6689 L 192.427704 20.335693 L 191.813705 19.476105 L 190.340103 18.002502 L 189.480499 17.388504 L 187.638504 16.406097 L 185.059692 15.669296 L 184.200104 15.546494 L 179.656494 15.669296 L 177.446106 16.283295 Z M 175.972504 28.686096 L 176.095306 26.230103 L 176.709305 23.896896 L 177.323303 22.6689 L 177.814499 22.054901 L 179.410904 20.826904 L 181.007294 20.335693 L 183.586105 20.335693 L 184.936905 20.704102 L 186.042099 21.3181 L 187.147293 22.423302 L 187.884094 23.774101 L 188.498093 26.4757 L 188.498093 26.966904 L 188.252502 27.212502 L 182.849304 27.8265 L 182.112503 28.072098 L 176.463699 28.808899 Z M 169.095703 15.792099 L 167.376495 15.546494 L 161.236496 15.669296 L 157.920898 16.406097 L 156.447296 16.897293 L 154.359695 17.8797 L 154.359695 46.492104 L 156.201706 46.369301 L 158.412094 45.509697 L 160.131302 44.036102 L 161.359299 41.948502 L 161.727707 40.352097 L 161.850494 21.195297 L 162.710098 20.826904 L 163.938095 20.581299 L 166.516907 20.581299 L 167.867706 20.949707 L 169.218506 21.686493 Z M 121.3265 15.546494 L 114.081299 15.546494 L 114.081299 46.492104 L 115.063698 46.492104 L 116.291702 46.246498 L 118.010902 45.509697 L 118.870499 44.895699 L 120.344101 43.176498 L 121.203697 40.966103 L 121.3265 40.229301 Z M 86.819702 17.756897 L 86.819702 46.492104 L 94.187698 46.492104 L 94.187698 21.195297 L 94.433296 20.949707 L 96.520897 20.458496 L 99.836502 20.458496 L 101.678497 21.195297 L 102.783699 22.423302 L 103.274902 23.774101 L 103.274902 39.983704 L 103.5205 41.334503 L 104.011703 42.5625 L 104.625702 43.544899 L 106.222099 45.141296 L 107.204498 45.755302 L 108.432503 46.246498 L 109.6605 46.492104 L 110.642899 46.492104 L 110.642899 23.282898 L 109.906097 20.704102 L 108.678101 18.862106 L 107.327301 17.634094 L 105.608101 16.651703 L 103.397697 15.914902 L 101.064499 15.546494 L 96.275299 15.546494 L 94.064903 15.792099 L 89.398499 16.774506 Z M 243.880905 4.740097 L 242.407303 5.108505 L 240.933701 5.845306 L 238.968903 7.810104 L 238.232101 9.283707 L 237.863693 10.757294 L 237.740906 15.546494 L 234.670898 15.546494 L 234.670898 21.440903 L 237.863693 21.563705 L 237.863693 40.720497 L 238.477707 42.930901 L 239.091705 44.036102 L 239.828506 44.895699 L 241.670502 46.123703 L 244.249298 46.860497 L 246.828094 46.983299 L 247.810501 46.860497 L 249.898102 46.246498 L 249.898102 40.106499 L 248.547302 40.474899 L 246.582504 40.352097 L 245.7229 39.860901 L 245.231705 38.878502 L 245.354507 21.440903 L 249.898102 21.440903 L 249.898102 15.546494 L 245.231705 15.423706 L 245.231705 4.740097 Z M 226.688904 5.108505 L 225.215302 6.336502 L 224.601303 7.810104 L 224.724106 9.529297 L 225.338104 10.634506 L 226.197693 11.371307 L 227.671295 11.985306 L 229.513306 11.985306 L 230.986893 11.371307 L 232.092102 10.266098 L 232.583298 8.915298 L 232.460495 7.441696 L 231.846497 6.213699 L 230.495697 5.108505 L 229.2677 4.740097 L 227.916901 4.740097 Z M 221.408493 4.740097 L 220.303299 4.740097 L 218.706894 5.108505 L 217.110504 5.968094 L 215.391296 7.687302 L 214.654495 9.038101 L 214.286102 10.266098 L 214.040497 17.142899 L 212.444107 16.774506 L 209.742493 16.651703 L 207.409302 16.897293 L 204.707703 17.756897 L 202.742905 18.862106 L 200.409698 21.072495 L 198.936096 23.282898 L 198.322098 24.633698 L 197.462494 27.458099 L 196.971298 31.019302 L 197.094101 34.7033 L 197.708099 38.018898 L 198.690506 40.474899 L 200.409698 42.930901 L 201.883301 44.2817 L 202.988495 45.018501 L 205.076096 46.0009 L 207.409302 46.614899 L 210.233704 46.983299 L 214.900101 46.860497 L 221.408493 46.123703 Z M 210.970505 21.072495 L 212.566895 21.072495 L 214.1633 21.440903 L 214.1633 41.825699 L 213.794907 41.948502 L 210.110901 42.071297 L 208.391693 41.580101 L 207.163696 40.8433 L 205.935699 39.4925 L 205.444504 38.632896 L 204.830505 37.036499 L 204.462097 35.194504 L 204.339294 29.791298 L 204.707703 27.335297 L 205.444504 25.124901 L 205.935699 24.142502 L 206.795303 23.0373 L 208.146103 21.932098 L 209.251297 21.440903 Z M 116.414497 4.8629 L 115.186501 5.476898 L 114.204102 6.459305 L 113.712898 7.564499 L 113.835701 9.6521 L 114.326897 10.511703 L 114.940903 11.125702 L 116.291702 11.862503 L 118.502098 11.985306 L 119.361702 11.7397 L 120.221298 11.248505 L 121.080902 10.388901 L 121.449303 9.6521 L 121.694901 8.792496 L 121.694901 8.055695 L 121.449303 7.196106 L 120.835297 6.090897 L 119.9757 5.354095 L 119.238899 4.985703 L 118.2565 4.740097 Z M 61.5229 4.985703 L 59.680901 5.845306 L 57.9617 7.441696 L 56.979301 9.160904 L 56.488098 11.002899 L 56.488098 36.299698 L 57.224899 39.246902 L 58.330101 41.334503 L 60.1721 43.422096 L 62.3825 45.018501 L 64.4701 46.0009 L 66.680496 46.614899 L 69.382103 46.983299 L 72.206497 46.860497 L 75.7677 46.0009 L 77.855301 45.018501 L 79.328903 44.036102 L 80.802498 42.685303 L 82.398903 40.474899 L 83.381302 38.141701 L 83.749702 36.0541 L 83.749702 4.740097 L 81.784897 4.8629 L 80.679703 5.231293 L 79.574501 5.845306 L 78.100899 7.196106 L 76.872902 9.406494 L 76.627296 10.511703 L 76.627296 35.808502 L 76.504501 36.545303 L 75.522102 38.510101 L 74.416901 39.615303 L 72.574898 40.597702 L 70.9785 40.966103 L 69.013702 40.8433 L 66.680496 39.860901 L 65.206902 38.510101 L 64.224503 36.668098 L 64.1017 36.0541 L 64.1017 4.740097 L 62.7509 4.740097 Z M 140.8517 4.126099 L 136.676498 4.985703 L 133.974899 6.213699 L 130.904907 8.424103 L 129.799698 9.529297 L 127.957703 11.862503 L 125.992897 15.546494 L 124.7649 19.353302 L 124.150902 22.914497 L 124.150902 27.949303 L 125.133301 32.9841 L 126.1157 35.685699 L 127.957703 39.1241 L 129.554092 41.2117 L 131.2733 42.930901 L 134.097702 44.895699 L 136.185303 45.878098 L 137.658905 46.369301 L 140.114899 46.860497 L 141.588501 46.983299 L 145.026901 46.860497 L 147.7285 46.369301 L 149.324905 45.878098 L 150.921295 45.141296 L 151.903702 44.404503 L 151.903702 37.282097 L 151.044098 38.264503 L 149.938904 39.1241 L 148.096893 39.983704 L 145.763702 40.474899 L 141.956894 40.352097 L 140.606094 39.983704 L 138.886902 39.1241 L 137.658905 38.264503 L 136.0625 36.790901 L 133.974899 33.843697 L 132.6241 30.650902 L 131.887299 27.212502 L 131.887299 23.282898 L 132.132904 21.563705 L 132.869705 18.984894 L 133.729294 17.020096 L 134.957306 15.055298 L 135.939697 13.827301 L 137.904495 12.108093 L 140.114899 10.880096 L 142.325302 10.266098 L 143.307693 10.143295 L 146.009293 10.266098 L 148.956497 11.248505 L 150.798492 12.599304 L 151.903702 13.827301 L 151.780899 6.459305 L 148.956497 5.108505 L 146.623306 4.494507 L 144.167297 4.126099 Z"/>
        <path id="path2" fill="#ffffff" fill-rule="evenodd" stroke="none" d="M 45.067699 7.810104 L 44.453701 7.318893 L 43.594101 6.9505 L 40.892502 6.582108 L 29.963301 6.704895 L 23.823299 7.196106 L 22.2269 7.441696 L 21.244499 7.810104 L 20.7533 8.424103 L 20.876101 9.283707 L 24.8057 11.7397 L 25.2969 12.230896 L 25.2969 12.967697 L 17.0693 23.774101 L 6.7541 38.632896 L 4.0525 42.316902 L 4.1753 43.422096 L 4.9121 43.790497 L 5.6489 43.667702 L 8.3505 41.825699 L 19.1569 33.598099 L 29.472099 25.002098 L 38.559299 16.897293 L 44.822102 11.002899 L 45.4361 9.529297 L 45.313301 8.3013 Z"/>
    </g>
</svg>
