<?xml version="1.0" encoding="UTF-8"?>
<svg xmlns="http://www.w3.org/2000/svg" viewBox="0 0 250 250" role="img" aria-label="UniCredit logo">
<title>UniCredit</title>
<g transform="translate(-0.7367 100.0737) scale(0.1228)">
<path fill="#e2001a" fill-rule="evenodd" d="M376 68L377 77L375 84L372 89L360 101L289 166L218 228L138 293L67 346L49 357L46 357L40 354L47 364L55 371L60 372L65 370L82 358L104 373L124 383L146 391L173 397L209 399L231 397L236 395L246 394L275 385L305 370L331 351L351 331L362 317L373 300L383 280L389 264L397 231L399 209L397 173L389 140L383 124L376 111L383 104L387 95L386 81ZM329 52L317 42L298 30L282 22L261 14L242 9L222 6L182 6L154 11L122 22L99 34L72 54L48 79L31 104L22 122L14 143L9 162L6 182L6 222L9 242L14 261L22 282L30 298L42 317L50 327L144 193L211 105L212 101L208 96L181 80L175 75L174 68L179 62L193 58L234 54L274 52Z"/>
<path fill="#000000" fill-rule="evenodd" d="M1897 126L1838 126L1838 378L1847 378L1857 376L1872 369L1888 353L1893 344L1897 330ZM1433 141L1415 156L1401 175L1390 201L1384 230L1383 262L1386 288L1394 315L1406 337L1422 355L1437 366L1456 375L1482 381L1509 382L1537 379L1560 374L1583 365L1585 363L1585 314L1561 328L1540 335L1517 338L1491 337L1474 331L1465 325L1459 319L1450 305L1443 282L1444 275L1447 274L1484 270L1497 267L1542 262L1555 259L1593 254L1593 233L1589 203L1583 184L1573 165L1568 158L1556 146L1549 141L1534 133L1513 127L1506 126L1469 127L1451 132ZM1439 233L1440 213L1445 194L1450 184L1454 179L1467 169L1480 165L1501 165L1512 168L1521 173L1530 182L1536 193L1541 215L1541 219L1539 221L1495 226L1489 228L1443 234ZM1383 128L1369 126L1319 127L1292 133L1280 137L1263 145L1263 378L1278 377L1296 370L1310 358L1320 341L1323 328L1324 172L1331 169L1341 167L1362 167L1373 170L1384 176ZM994 126L935 126L935 378L943 378L953 376L967 370L974 365L986 351L993 333L994 327ZM713 144L713 378L773 378L773 172L775 170L792 166L819 166L834 172L843 182L847 193L847 325L849 336L853 346L858 354L871 367L879 372L889 376L899 378L907 378L907 189L901 168L891 153L880 143L866 135L848 129L829 126L790 126L772 128L734 136ZM1992 38L1980 41L1968 47L1952 63L1946 75L1943 87L1942 126L1917 126L1917 174L1943 175L1943 331L1948 349L1953 358L1959 365L1974 375L1995 381L2016 382L2024 381L2041 376L2041 326L2030 329L2014 328L2007 324L2003 316L2004 174L2041 174L2041 126L2003 125L2003 38ZM1852 41L1840 51L1835 63L1836 77L1841 86L1848 92L1860 97L1875 97L1887 92L1896 83L1900 72L1899 60L1894 50L1883 41L1873 38L1862 38ZM1809 38L1800 38L1787 41L1774 48L1760 62L1754 73L1751 83L1749 139L1736 136L1714 135L1695 137L1673 144L1657 153L1638 171L1626 189L1621 200L1614 223L1610 252L1611 282L1616 309L1624 329L1638 349L1650 360L1659 366L1676 374L1695 379L1718 382L1756 381L1809 375ZM1724 171L1737 171L1750 174L1750 340L1747 341L1717 342L1703 338L1693 332L1683 321L1679 314L1674 301L1671 286L1670 242L1673 222L1679 204L1683 196L1690 187L1701 178L1710 174ZM954 39L944 44L936 52L932 61L933 78L937 85L942 90L953 96L971 97L978 95L985 91L992 84L995 78L997 71L997 65L995 58L990 49L983 43L977 40L969 38ZM507 40L492 47L478 60L470 74L466 89L466 295L472 319L481 336L496 353L514 366L531 374L549 379L571 382L594 381L623 374L640 366L652 358L664 347L677 329L685 310L688 293L688 38L672 39L663 42L654 47L642 58L632 76L630 85L630 291L629 297L621 313L612 322L597 330L584 333L568 332L549 324L537 313L529 298L528 293L528 38L517 38ZM1153 33L1119 40L1097 50L1072 68L1063 77L1048 96L1032 126L1022 157L1017 186L1017 227L1025 268L1033 290L1048 318L1061 335L1075 349L1098 365L1115 373L1127 377L1147 381L1159 382L1187 381L1209 377L1222 373L1235 367L1243 361L1243 303L1236 311L1227 318L1212 325L1193 329L1162 328L1151 325L1137 318L1127 311L1114 299L1097 275L1086 249L1080 221L1080 189L1082 175L1088 154L1095 138L1105 122L1113 112L1129 98L1147 88L1165 83L1173 82L1195 83L1219 91L1234 102L1243 112L1242 52L1219 41L1200 36L1180 33Z"/>
<path fill="#ffffff" fill-rule="evenodd" d="M373 63L368 59L361 56L339 53L250 54L200 58L187 60L179 63L175 68L176 75L208 95L212 99L212 105L145 193L61 314L39 344L40 353L46 356L52 355L74 340L162 273L246 203L320 137L371 89L376 77L375 67Z"/>
</g>
</svg>
