<?xml version="1.0" encoding="UTF-8"?>
<svg xmlns="http://www.w3.org/2000/svg" viewBox="0 0 250 250" role="img" aria-label="University of Chicago logo">
<title>University of Chicago</title>
<g transform="translate(-2.8409 53.8352) scale(0.2841)">
<path fill="#800000" fill-rule="evenodd" d="M419 240L419 243L427 244L431 248L432 254L432 320L431 326L426 330L419 331L419 334L456 333L456 331L447 329L443 322L443 251L446 245L456 243L455 240ZM295 240L295 243L304 245L307 251L307 324L303 329L296 331L296 334L332 333L332 331L322 329L319 325L319 289L373 289L373 325L370 329L361 332L362 334L397 334L397 331L390 330L385 325L385 249L389 244L393 244L396 240L362 243L369 244L373 249L372 282L319 281L319 248L323 244L330 243L330 240ZM833 238L816 243L800 256L792 270L789 291L792 305L798 316L805 324L812 329L827 335L846 336L866 329L877 320L887 302L889 280L884 263L872 248L853 239ZM834 242L850 244L856 247L866 257L870 264L875 284L874 304L868 318L859 327L844 332L833 331L822 326L811 314L804 294L804 273L807 262L817 249ZM693 250L682 263L676 282L677 300L685 316L694 325L702 330L718 335L739 336L764 331L761 324L761 305L764 300L770 299L770 296L733 297L734 299L745 300L749 303L750 322L749 326L745 330L729 332L710 326L700 317L694 307L690 292L691 271L696 259L704 250L710 246L723 242L741 243L748 246L755 253L758 261L762 262L759 241L741 238L725 238L707 242ZM617 243L615 253L588 323L583 329L574 331L574 334L603 331L596 330L594 326L602 301L605 297L632 297L635 300L643 328L641 330L636 330L633 332L634 334L668 334L668 331L659 329L654 322L626 239ZM619 256L623 263L631 290L629 292L608 292L606 290ZM496 246L481 260L474 277L473 294L477 308L481 315L495 328L514 335L535 336L556 331L562 317L562 311L559 311L556 318L547 327L538 331L519 331L504 324L496 316L490 305L487 291L487 280L489 269L493 260L505 248L523 242L538 243L548 248L554 255L557 263L560 263L558 242L537 238L521 238L507 241ZM202 251L192 263L186 281L188 303L197 319L208 328L227 335L248 336L269 331L274 320L275 311L272 311L268 319L260 327L251 331L232 331L217 324L209 316L203 305L200 293L200 278L203 266L208 257L218 248L230 243L245 242L254 244L264 251L269 263L273 263L271 242L250 238L234 238L217 242ZM77 225L79 226L78 227L82 228L85 226L82 224ZM114 202L112 203L115 210L116 205L119 204ZM104 201L103 203L105 209L110 209L110 203L108 201L108 204L105 206ZM43 202L44 208L46 209L47 206L45 205L50 203L51 208L52 202L54 204L53 207L56 207L54 200L48 202L45 200ZM45 201L46 203L44 205L43 203ZM100 199L98 200L100 205ZM60 199L58 201L60 204ZM72 192L76 196L74 191ZM104 193L106 198L110 196L112 199L115 199L117 197L116 191L107 196L106 192L109 192L108 190ZM114 192L116 194L113 197L112 194ZM41 191L41 195L43 197L53 196L51 189L45 196L42 193L46 191L46 189ZM103 190L96 189L94 191L93 188L85 190L84 195L86 197L86 209L89 207L90 209L95 208L96 206L95 202L92 200L88 207L86 205L87 197L93 197L94 191L96 190L98 194L96 197L102 194L99 192ZM87 195L88 193L92 195L89 197ZM86 191L88 189L93 191L90 193ZM60 188L62 195L59 193L60 196L62 195L64 197L63 201L65 207L75 206L72 200L69 201L67 206L63 196L66 194L69 197L71 195L69 191L70 189L66 192L64 190L66 188ZM57 187L54 190L55 196L57 196ZM112 180L110 184L115 188L116 186L114 180ZM46 178L42 181L43 186L49 187L49 178ZM47 179L49 181L47 186L44 185L43 182ZM106 177L103 180L106 187L107 185L105 181L109 179ZM51 179L54 185L55 180L61 185L72 184L72 178L70 177L66 179L67 182L65 184L61 181L63 177L60 177L58 180L56 178ZM95 176L93 176L94 178L92 181L91 177L86 177L91 186ZM98 175L99 177L96 180L101 184L99 183L98 178L100 175ZM857 167L862 170L862 201L857 204L857 206L873 204L867 200L868 187L877 187L882 191L880 179L878 184L867 183L867 170L869 168L879 169L882 174L884 174L884 166ZM735 167L742 172L751 190L751 201L745 204L746 206L762 206L762 204L756 200L756 190L765 173L772 168L772 166L760 166L763 171L755 185L747 171L750 166ZM663 166L663 168L668 170L668 201L663 204L663 206L679 204L674 202L673 199L673 173L675 168L679 167ZM581 166L582 169L585 170L584 203L580 204L581 206L596 204L591 202L592 188L595 188L607 204L611 206L618 206L618 204L614 203L602 187L609 180L608 170L601 166ZM592 168L599 169L603 174L603 181L599 185L591 184ZM538 166L543 170L543 200L537 204L538 206L567 206L569 202L567 197L562 203L551 203L548 199L548 188L550 186L557 186L560 191L562 191L562 179L560 179L557 184L550 184L548 182L548 170L550 168L561 169L565 175L565 166ZM487 167L493 171L506 206L509 206L523 172L530 167L517 166L520 171L509 195L501 178L499 168L502 166ZM462 166L462 168L467 170L466 203L462 204L463 206L478 204L473 202L473 170L478 166ZM407 166L407 168L410 168L413 171L413 200L409 206L421 203L417 202L416 200L417 176L439 201L446 205L445 176L446 170L451 167L436 167L442 170L442 195L418 167ZM355 167L361 171L361 197L363 201L370 206L385 205L391 198L393 170L398 166L384 166L384 168L389 170L389 194L386 200L381 203L374 203L367 196L366 170L371 168L371 166ZM292 166L297 170L297 201L291 204L292 206L321 206L324 199L322 196L316 203L305 203L302 197L302 188L304 186L311 186L314 191L316 191L316 179L314 179L311 184L304 184L302 182L302 170L304 168L315 169L319 175L319 166ZM236 167L241 170L240 203L238 206L252 206L251 203L247 202L247 188L249 186L267 186L269 188L268 203L264 204L265 206L280 204L275 202L275 170L279 168L279 166L264 166L269 170L269 182L267 184L249 184L247 182L247 170L252 167ZM819 165L810 169L806 173L802 183L803 193L807 200L814 205L830 206L841 198L844 191L844 180L841 173L836 168L829 165ZM818 168L827 168L831 170L837 179L837 195L830 203L827 204L818 203L812 197L809 190L810 176ZM648 166L634 166L628 173L630 182L640 189L645 195L645 200L640 204L635 204L630 200L628 195L626 196L627 203L631 206L643 206L650 199L650 192L648 188L633 176L633 172L636 168L643 168L649 174ZM691 164L689 171L691 174L695 169L705 169L704 203L699 204L700 206L716 204L711 202L712 168L723 170L724 174L726 174L727 164L724 166L694 166ZM189 165L187 173L189 174L193 169L202 168L204 170L204 201L198 204L199 206L215 204L209 200L209 170L211 168L220 169L223 174L225 174L225 164L223 166ZM10 165L10 267L16 290L24 305L38 320L48 327L65 335L76 338L94 335L113 326L133 308L142 293L148 274L149 165L111 162L45 162ZM35 289L38 294L36 298L33 293ZM129 288L129 293L125 299L125 291ZM117 280L120 284L116 285ZM45 278L47 281L46 284L43 280ZM132 276L129 284L131 285L125 291L110 294L94 304L102 305L109 303L104 308L85 311L93 315L97 312L104 314L98 320L92 320L86 316L83 316L87 325L86 327L81 328L78 325L82 324L79 316L73 322L67 323L56 313L62 312L68 317L72 318L77 313L74 311L65 310L70 306L73 306L78 310L74 305L69 304L61 308L56 308L52 306L47 298L54 302L64 299L75 302L69 298L52 299L48 296L53 293L57 294L33 287L37 285L34 281L36 272L39 276L39 281L41 284L42 281L46 285L49 285L47 281L48 273L53 285L56 287L55 279L57 277L62 282L61 287L78 299L64 287L64 277L62 273L64 272L69 277L73 288L78 293L76 279L80 270L82 275L82 284L86 277L88 281L88 287L84 293L84 296L92 279L94 283L91 291L94 287L95 290L92 293L92 296L101 276L103 284L105 285L96 298L98 298L110 287L114 278L115 285L111 291L118 288L128 276ZM64 233L65 229L67 231L75 231L77 233ZM114 223L124 227L124 229L129 231L139 243L137 244L130 238L143 252L143 256L137 253L128 241L139 260L140 279L138 281L136 277L132 258L128 250L134 272L127 274L126 265L123 258L124 269L117 261L124 270L123 277L112 265L124 279L121 283L109 272L113 278L110 282L106 278L110 283L110 286L104 291L103 289L108 285L107 283L103 282L102 275L99 276L98 282L95 286L91 275L93 269L92 254L90 249L97 242L96 240L99 240L99 246L103 245L107 237L105 235L103 237L97 235L101 233L101 229L104 225ZM54 223L57 226L57 233L59 234L59 237L54 237L52 239L53 247L63 247L60 243L62 237L71 246L71 255L69 259L72 274L71 279L68 274L60 271L63 276L62 281L58 275L52 280L60 267L55 273L50 275L49 273L55 263L50 271L47 271L46 275L41 280L40 276L48 264L40 274L37 271L44 260L36 271L35 269L37 263L34 271L32 271L34 274L33 281L35 284L31 284L31 259L21 282L21 272L29 255L21 263L16 263L29 250L24 253L16 252L27 246L32 240L26 243L18 242L42 228L39 227L40 224L43 226ZM83 221L92 225L89 227L93 232L91 234L93 239L90 244L88 244L89 249L87 249L92 258L90 264L89 262L91 266L91 276L89 280L86 275L84 278L80 267L74 285L73 274L75 272L73 273L71 271L73 264L72 266L70 264L70 259L74 253L72 254L71 250L82 240L79 242L79 239L74 237L79 234L83 236L71 228L68 229L68 226L71 223L73 225L74 222ZM32 201L36 202L35 207L30 206ZM124 207L125 199L137 200L139 203L130 207ZM22 199L27 199L29 201L29 206L27 208L22 208L20 206L20 201ZM124 190L125 183L136 183L139 186L128 191ZM31 183L36 184L35 189L30 188ZM22 181L27 181L29 183L29 188L27 190L22 190L20 188L20 183ZM81 173L92 170L111 174L122 173L122 217L93 212L86 213L81 216ZM78 173L78 216L65 212L49 216L38 216L39 173L49 174L63 170Z"/>
</g>
</svg>
