<?xml version="1.0" encoding="UTF-8"?>
<svg xmlns="http://www.w3.org/2000/svg" viewBox="0 0 250 250" role="img" aria-label="University of Oxford logo">
<title>University of Oxford</title>
<g transform="translate(-0.1956 88.126) scale(0.1956)">
<path fill="#002147" fill-rule="evenodd" d="M174 296L174 299L176 301L181 300L181 296L179 294L176 294ZM136 290L136 293L138 295L143 294L142 288L138 288ZM138 243L138 245L144 247L169 247L175 245L175 243L159 240L144 241ZM253 222L246 232L246 242L251 248L255 250L264 250L272 243L275 238L258 224ZM255 228L266 236L269 240L265 245L261 247L256 246L249 238L251 231ZM59 220L54 218L50 219L33 230L35 234L52 223L56 223L59 226L59 231L42 244L44 247L54 241L63 233L63 225ZM130 218L136 238L146 236L167 236L177 238L183 218L171 226L174 228L167 234L162 227L165 224L157 213L147 225L151 227L145 234L139 228L142 226ZM266 197L265 201L273 204L274 207L271 210L260 210L259 214L272 213L276 220L284 220L287 217L291 208ZM278 207L286 211L280 217L276 214ZM44 188L19 197L20 200L37 196L25 210L26 216L51 206L49 202L36 208L33 207L44 194ZM1135 174L1135 179L1151 183L1155 187L1155 299L1151 303L1135 307L1136 312L1225 310L1240 306L1248 302L1265 287L1275 267L1278 249L1278 238L1275 222L1271 211L1262 197L1255 190L1236 179L1219 175ZM1176 181L1212 181L1224 184L1233 189L1243 199L1248 207L1252 218L1255 235L1255 253L1253 266L1250 276L1244 287L1234 297L1227 301L1210 305L1178 305L1175 302ZM982 174L982 179L998 183L1001 186L1001 300L994 304L982 306L982 312L1043 311L1042 306L1026 303L1022 300L1023 250L1037 250L1043 253L1051 262L1081 305L1087 311L1124 311L1123 306L1107 303L1099 296L1062 246L1070 244L1080 238L1087 231L1092 221L1092 201L1089 194L1082 185L1071 178L1051 174ZM1022 181L1047 181L1058 186L1066 194L1070 204L1070 221L1065 233L1057 240L1041 244L1022 243ZM699 174L699 179L715 183L718 186L718 300L714 303L699 307L699 311L760 311L759 306L743 303L739 300L740 246L774 246L778 248L781 253L784 267L790 267L790 221L784 221L780 235L774 240L739 239L740 181L785 181L790 186L797 208L802 208L802 174ZM532 174L532 179L544 182L552 187L595 245L554 297L548 302L531 306L531 312L579 311L578 306L567 304L564 300L600 251L634 298L635 303L620 307L620 311L680 311L679 306L666 303L658 297L614 238L651 191L660 183L676 179L676 174L628 174L628 179L641 182L643 185L609 232L576 185L577 182L592 179L592 174ZM42 177L41 173L15 176L15 180ZM874 174L865 177L849 186L842 192L830 208L822 232L822 255L824 264L835 286L848 299L859 306L872 311L888 314L899 314L915 311L926 307L939 299L951 287L957 278L963 264L966 247L966 237L963 221L957 207L951 198L941 188L929 180L917 175L903 172L885 172ZM885 179L902 179L912 182L922 188L929 195L938 211L943 234L942 259L938 274L929 290L917 301L900 307L882 306L866 298L857 289L852 281L845 258L845 228L850 210L854 202L867 187L878 181ZM438 173L422 178L410 185L396 198L391 205L386 215L381 234L381 253L384 266L391 281L396 288L410 301L425 309L448 314L458 314L475 311L497 300L508 290L517 277L522 265L525 251L525 234L522 220L518 210L511 199L492 182L482 177L468 173ZM444 179L462 179L469 181L480 187L493 202L499 216L502 231L501 261L493 283L479 299L468 305L459 307L447 307L438 305L424 297L415 287L409 276L404 256L404 230L411 206L419 194L425 188L437 181ZM276 167L271 173L272 184L276 188L281 190L290 190L297 185L299 178L297 172L292 167L285 165ZM275 174L280 170L288 170L295 176L295 180L291 185L283 186L275 181ZM14 140L14 144L34 152L13 159L13 163L40 155L40 150ZM300 154L299 139L272 141L272 145L283 144L285 147L285 154L289 154L289 144L296 145L296 154ZM83 126L82 131L84 133L93 134L92 140L88 137L84 137L82 139L82 142L85 145L94 145L93 150L90 150L88 148L83 149L82 151L83 155L85 156L90 154L94 155L93 161L85 159L82 162L83 166L94 166L93 171L85 170L82 173L83 177L88 178L93 175L93 181L84 182L82 184L82 187L86 190L91 186L94 187L94 190L92 192L84 193L82 195L83 200L87 201L93 196L95 201L138 200L146 201L148 204L153 206L160 206L168 201L176 200L219 200L219 128L215 128L214 196L165 196L161 201L155 202L152 201L148 196L98 195L98 128L91 129L88 126ZM164 125L159 133L159 196L161 191L166 188L208 187L208 123L169 123ZM194 168L197 172L195 176ZM184 167L186 176L182 176ZM180 168L177 176L176 169ZM173 168L176 174L174 176L170 170ZM188 151L190 158L187 158L186 156ZM193 150L196 153L194 159L192 152ZM177 151L177 158L175 160ZM198 133L200 142L197 139L198 138L196 135ZM186 133L191 142L185 136ZM178 134L181 134L180 142ZM176 134L173 141L172 135ZM166 135L169 134L172 139L170 142ZM105 123L106 188L147 188L153 193L154 196L154 133L151 127L144 123ZM138 168L140 174L139 177L137 175L136 170ZM132 168L132 176L128 176ZM124 169L124 176L120 176ZM137 151L142 156L141 159L137 155ZM128 150L130 152L129 158L126 151ZM118 150L124 157L123 160L117 153ZM128 134L130 136L130 139L128 141ZM122 134L122 141L120 139ZM117 134L119 136L119 139L117 141ZM147 134L144 141L144 134ZM142 134L142 139L139 141L138 135ZM132 135L135 134L138 139L136 142ZM21 111L17 124L18 127L43 133L47 119L43 118L40 128L34 127L32 125L35 116L32 115L27 125L22 123L24 112ZM171 108L173 110L183 112L197 112L209 109L208 107L200 105L180 105ZM104 109L115 112L137 111L141 109L141 107L133 105L112 105L107 106ZM289 103L281 113L276 114L264 111L265 115L271 116L276 119L270 125L270 131L281 119L296 122L294 118L287 117L284 115L291 107ZM35 84L31 88L27 96L38 102L52 107L53 105L43 99L46 95L58 96L60 92L46 90L42 84ZM38 87L42 90L41 96L38 97L33 92ZM163 83L170 103L183 100L197 100L210 103L217 83L207 88L205 91L207 93L203 97L199 97L195 91L199 90L194 81L189 77L181 90L185 91L179 98L173 92L175 91L172 87L166 83ZM96 83L103 103L116 100L130 100L143 103L149 85L149 82L140 88L138 91L140 93L133 98L128 91L132 90L123 77L114 88L114 90L117 92L111 98L106 92L108 91L106 88ZM271 75L265 75L260 77L255 81L253 85L253 94L257 99L261 101L271 100L279 92L279 82L275 77ZM271 79L275 83L276 89L269 96L261 97L256 91L257 86L262 81L266 79ZM242 60L243 66L247 66L249 64L249 61L247 59ZM55 57L49 62L48 70L53 74L67 71L69 73L69 76L62 81L62 84L66 84L72 79L73 71L71 68L67 66L58 69L52 68L53 63L57 61L58 57ZM1102 50L1067 50L1068 115L1075 114L1076 84L1100 84L1100 78L1075 76L1076 56L1102 56ZM838 50L838 56L858 57L858 115L865 115L866 56L885 56L885 50ZM821 50L813 50L814 115L821 114ZM943 50L934 50L919 79L904 51L894 50L915 89L915 114L921 115L922 89ZM693 50L693 114L700 115L701 86L710 86L715 88L720 94L728 113L730 115L737 114L725 88L720 84L726 81L730 77L732 72L732 62L729 56L726 53L719 50ZM701 56L719 57L723 61L725 66L723 74L719 78L713 80L700 79ZM636 50L636 114L672 114L672 108L644 107L645 84L670 83L670 78L644 76L645 56L671 56L670 49ZM564 50L587 115L594 115L596 114L616 57L617 49L612 49L610 51L591 106L573 51L571 49ZM545 49L539 50L540 115L547 114L547 50ZM465 50L466 115L472 114L473 63L503 114L512 114L512 50L505 49L504 101L474 50ZM394 50L394 100L397 107L402 112L414 116L420 116L430 113L436 108L440 98L439 49L433 49L432 99L431 102L422 109L410 108L402 100L400 49ZM1014 48L1000 53L993 60L988 71L987 88L991 101L1000 111L1008 115L1019 116L1031 112L1039 105L1044 95L1046 79L1043 66L1039 59L1033 53L1024 49ZM1011 55L1021 55L1026 57L1035 67L1038 78L1037 91L1034 99L1029 105L1021 109L1012 109L1007 107L999 99L995 88L995 76L997 68L1005 58ZM776 48L765 49L759 52L753 61L753 70L755 74L763 81L778 88L784 96L782 104L775 109L766 109L753 105L752 110L759 114L767 116L773 116L783 113L789 107L791 102L791 92L787 85L782 81L768 75L760 67L761 60L768 55L778 55L788 59L790 56L789 53ZM70 43L68 45L83 65L88 64L74 45ZM235 37L223 31L211 51L211 55L213 56L218 48L221 46L229 50L230 47L224 44L222 41L226 36L235 41ZM100 25L83 34L84 37L91 34L101 53L104 54L106 53L96 34L97 31L102 29ZM155 24L153 26L154 31L158 31L160 27L159 25ZM191 19L183 25L181 29L181 39L183 43L187 46L196 47L200 45L204 40L206 30L204 24L201 21ZM192 23L198 24L201 27L202 32L200 38L195 43L190 43L185 38L185 31L187 27ZM131 16L127 17L124 29L115 20L111 22L122 33L127 45L130 44L128 30ZM164 2L131 4L101 12L73 26L52 42L31 65L14 94L5 120L1 145L1 170L7 202L14 221L31 250L53 274L68 285L75 299L87 309L101 313L113 312L117 310L132 314L134 318L129 329L131 331L137 331L140 334L140 339L137 342L132 342L128 339L128 351L132 358L139 365L156 374L171 367L176 363L184 352L185 339L180 342L176 342L172 338L172 335L175 331L182 331L184 329L180 317L205 311L228 300L261 273L282 250L294 231L303 211L309 190L312 168L311 137L304 107L291 79L272 53L250 33L219 15L192 6ZM140 316L155 318L168 317L176 318L177 320L177 326L171 328L168 332L168 340L172 345L180 349L176 356L162 367L153 368L147 365L133 351L133 346L135 347L141 345L145 338L143 330L135 325ZM179 265L176 270L175 278L173 280L161 277L149 272L148 270L154 266L166 266L175 264ZM136 265L139 264L146 266L143 269ZM76 261L80 268L79 282L83 291L93 300L108 307L97 308L91 306L77 294L72 281L72 271ZM83 274L85 269L101 281L108 282L110 280L110 275L108 273L88 263L98 256L107 255L117 259L147 276L177 286L196 289L218 289L232 286L237 287L221 299L197 309L176 313L147 313L123 308L95 296L86 287L83 279ZM78 258L87 249L100 244L108 244L118 247L130 257L124 257L109 251L100 251L90 255L84 261ZM150 53L172 54L189 58L207 66L223 77L237 91L248 107L256 125L261 151L261 164L258 183L248 208L237 224L224 237L207 249L189 257L163 262L141 261L136 259L134 255L125 246L117 242L110 240L94 241L76 224L65 208L56 187L52 166L52 150L56 128L66 105L75 92L90 77L106 66L124 58ZM68 35L80 27L98 18L122 10L140 7L180 8L210 16L233 27L255 43L279 69L287 81L296 99L305 128L307 141L306 181L300 206L290 229L272 255L249 277L235 282L215 285L189 284L179 281L180 272L187 262L209 253L224 243L237 231L251 212L257 200L263 181L265 169L265 146L261 126L257 115L251 103L237 84L224 72L209 62L196 56L174 50L139 50L112 58L102 63L84 76L67 95L55 117L50 133L48 144L49 177L54 195L65 217L75 230L89 243L73 255L68 252L72 259L69 265L67 279L59 273L41 255L31 242L19 221L9 192L5 163L8 127L16 101L29 76L41 60Z"/>
</g>
</svg>
