<?xml version="1.0" encoding="UTF-8"?>
<!-- Generated by Pixelmator Pro 3.8 -->
<svg width="250" height="74" viewBox="0 0 250 74" xmlns="http://www.w3.org/2000/svg">
    <g id="Group">
        <path id="Path" fill="#002147" fill-rule="evenodd" stroke="none" d="M 33.838799 58.023598 L 33.838799 58.610397 L 34.23 59.001602 L 35.208 58.806 L 35.208 58.023598 L 34.816799 57.632401 L 34.23 57.632401 Z M 26.406 56.849998 L 26.406 57.436798 L 26.797199 57.828003 L 27.7752 57.632401 L 27.579599 56.458801 L 26.797199 56.458801 Z M 26.797199 47.656799 L 26.797199 48.047997 L 27.9708 48.439201 L 32.860802 48.439201 L 34.034401 48.047997 L 34.034401 47.656799 L 30.9048 47.07 L 27.9708 47.265602 Z M 49.291199 43.549202 L 47.922001 45.505203 L 47.922001 47.461197 L 48.900002 48.634804 L 49.6824 49.026001 L 51.442799 49.026001 L 53.007599 47.656799 L 53.594398 46.678802 L 50.269199 43.940399 Z M 49.6824 44.722801 L 51.834 46.287598 L 52.420799 47.07 L 51.638401 48.047997 L 50.855999 48.439201 L 49.877998 48.243599 L 48.508801 46.678802 L 48.900002 45.309601 Z M 11.3448 43.157997 L 10.3668 42.7668 L 9.5844 42.962402 L 6.2592 45.113998 L 6.6504 45.8964 L 9.9756 43.744797 L 10.758 43.744797 L 11.3448 44.331596 L 11.3448 45.309601 L 8.0196 47.852402 L 8.4108 48.439201 L 10.3668 47.265602 L 12.1272 45.700798 L 12.1272 44.136002 Z M 25.232401 42.7668 L 26.406 46.678802 L 28.362 46.287598 L 32.469601 46.287598 L 34.425598 46.678802 L 35.599201 42.7668 L 33.251999 44.331596 L 33.838799 44.722801 L 32.469601 45.8964 L 31.4916 44.527199 L 32.0784 43.940399 L 30.513599 41.788803 L 28.5576 44.136002 L 29.34 44.527199 L 28.166401 45.8964 L 26.9928 44.722801 L 27.579599 44.331596 Z M 51.834 38.659203 L 51.638401 39.441597 L 53.203201 40.028397 L 53.3988 40.615196 L 52.812 41.202003 L 50.6604 41.202003 L 50.464802 41.984398 L 53.007599 41.788803 L 53.790001 43.157997 L 55.354801 43.157997 L 55.941601 42.571198 L 56.723999 40.810799 Z M 54.181198 40.615196 L 55.745998 41.397598 L 54.572399 42.571198 L 53.790001 41.984398 Z M 8.4108 36.898804 L 3.5208 38.659203 L 3.7164 39.246002 L 7.0416 38.4636 L 4.6944 41.202003 L 4.89 42.375603 L 9.78 40.419601 L 9.3888 39.637199 L 6.846 40.810799 L 6.2592 40.615196 L 8.4108 38.072403 Z M 221.810394 34.1604 L 221.810394 35.138397 L 224.940002 35.920799 L 225.722397 36.703201 L 225.722397 58.610397 L 224.940002 59.392799 L 221.810394 60.175201 L 222.005997 61.153198 L 239.414398 60.762001 L 242.348404 59.979599 L 243.913193 59.197197 L 247.238403 56.263199 L 249.194397 52.351196 L 249.781204 48.830399 L 249.781204 46.678802 L 249.194397 43.549202 L 248.412003 41.397598 L 246.651596 38.659203 L 245.282394 37.290001 L 241.565994 35.138397 L 238.240799 34.356003 Z M 229.830002 35.529602 L 236.871597 35.529602 L 239.218796 36.116402 L 240.979202 37.094398 L 242.935196 39.0504 L 243.913193 40.615196 L 244.695602 42.7668 L 245.282394 46.092003 L 245.282394 49.612801 L 244.891205 52.155602 L 244.304398 54.111603 L 243.130798 56.263199 L 241.174805 58.2192 L 239.805603 59.001602 L 236.480392 59.783997 L 230.221207 59.783997 L 229.634399 59.197197 Z M 191.883606 34.1604 L 191.883606 35.138397 L 195.013199 35.920799 L 195.600006 36.507599 L 195.600006 58.806 L 194.230804 59.588402 L 191.883606 59.979599 L 191.883606 61.153198 L 203.815201 60.957603 L 203.619598 59.979599 L 200.490005 59.392799 L 199.707596 58.806 L 199.903198 49.026001 L 202.641602 49.026001 L 203.815201 49.612801 L 205.380005 51.373199 L 211.248001 59.783997 L 212.4216 60.957603 L 219.658798 60.957603 L 219.463196 59.979599 L 216.333603 59.392799 L 214.768799 58.023598 L 207.531601 48.243599 L 209.096405 47.852402 L 211.052399 46.678802 L 212.4216 45.309601 L 213.399597 43.3536 L 213.399597 39.441597 L 212.812805 38.072403 L 211.443604 36.311996 L 209.292007 34.942802 L 205.380005 34.1604 Z M 199.707596 35.529602 L 204.597595 35.529602 L 206.749207 36.507599 L 208.313995 38.072403 L 209.096405 40.028397 L 209.096405 43.3536 L 208.118393 45.700798 L 206.553604 47.07 L 203.423996 47.852402 L 199.707596 47.656799 Z M 136.528793 34.1604 L 136.528793 35.138397 L 139.658401 35.920799 L 140.245193 36.507599 L 140.245193 58.806 L 139.462799 59.392799 L 136.528793 60.175201 L 136.528793 60.957603 L 148.460403 60.957603 L 148.264801 59.979599 L 145.135193 59.392799 L 144.352798 58.806 L 144.548401 48.243599 L 151.198807 48.243599 L 151.981201 48.634804 L 152.567993 49.612801 L 153.1548 52.351196 L 154.3284 52.351196 L 154.3284 43.3536 L 153.1548 43.3536 L 152.372406 46.092003 L 151.198807 47.07 L 144.352798 46.874397 L 144.548401 35.529602 L 153.350403 35.529602 L 154.3284 36.507599 L 155.697601 40.810799 L 156.675598 40.810799 L 156.675598 34.1604 Z M 103.863602 34.1604 L 103.863602 35.138397 L 106.2108 35.725197 L 107.775597 36.703201 L 116.186401 48.047997 L 108.166801 58.2192 L 106.993202 59.197197 L 103.667999 59.979599 L 103.667999 61.153198 L 113.056801 60.957603 L 112.861198 59.979599 L 110.709602 59.588402 L 110.122803 58.806 L 117.164398 49.221603 L 123.814796 58.414803 L 124.010399 59.392799 L 121.076401 60.175201 L 121.076401 60.957603 L 132.812393 60.957603 L 132.616806 59.979599 L 130.074005 59.392799 L 128.509201 58.2192 L 119.902802 46.678802 L 127.139999 37.485603 L 128.900406 35.920799 L 132.029999 35.138397 L 132.029999 34.1604 L 122.641197 34.1604 L 122.641197 35.138397 L 125.183998 35.725197 L 125.575203 36.311996 L 118.924797 45.505203 L 112.470001 36.311996 L 112.665604 35.725197 L 115.599602 35.138397 L 115.599602 34.1604 Z M 8.0196 34.7472 L 7.824 33.964798 L 2.7384 34.551598 L 2.7384 35.334 Z M 170.758804 34.1604 L 168.998398 34.7472 L 165.868805 36.507599 L 164.499603 37.681198 L 162.152405 40.810799 L 160.587601 45.505203 L 160.587601 50.003998 L 160.978806 51.764397 L 163.130402 56.067596 L 165.673203 58.610397 L 167.824799 59.979599 L 170.367599 60.957603 L 173.497192 61.544403 L 175.648804 61.544403 L 178.778397 60.957603 L 180.929993 60.175201 L 183.472794 58.610397 L 185.820007 56.263199 L 186.993607 54.5028 L 188.167206 51.764397 L 188.753998 48.439201 L 188.753998 46.4832 L 188.167206 43.3536 L 186.993607 40.615196 L 185.820007 38.854797 L 183.863998 36.898804 L 181.5168 35.334 L 179.169601 34.356003 L 176.431198 33.769196 L 172.9104 33.769196 Z M 172.9104 35.138397 L 176.235596 35.138397 L 178.191605 35.725197 L 180.147598 36.898804 L 181.5168 38.267998 L 183.277206 41.397598 L 184.255203 45.8964 L 184.059601 50.7864 L 183.277206 53.720398 L 181.5168 56.849998 L 179.169601 59.001602 L 175.844406 60.175201 L 172.323593 59.979599 L 169.194 58.414803 L 167.433594 56.654404 L 166.455597 55.0896 L 165.086395 50.590797 L 165.086395 44.722801 L 166.064407 41.202003 L 166.846802 39.637199 L 169.389603 36.703201 L 171.541199 35.529602 Z M 85.477203 33.964798 L 82.347603 34.942802 L 80.000397 36.311996 L 77.262001 38.854797 L 76.283997 40.223999 L 75.306 42.18 L 74.328003 45.8964 L 74.328003 49.612801 L 74.914803 52.155602 L 76.283997 55.0896 L 77.262001 56.458801 L 80.000397 59.001602 L 82.934402 60.566399 L 87.433197 61.544403 L 89.389198 61.544403 L 92.714401 60.957603 L 97.017601 58.806 L 99.169197 56.849998 L 100.929604 54.307198 L 101.9076 51.959999 L 102.4944 49.221603 L 102.4944 45.8964 L 101.9076 43.157997 L 101.125198 41.202003 L 99.755997 39.0504 L 96.039597 35.725197 L 94.083603 34.7472 L 91.3452 33.964798 Z M 86.650803 35.138397 L 90.1716 35.138397 L 91.540802 35.529602 L 93.692398 36.703201 L 96.235199 39.637199 L 97.408798 42.375603 L 97.995598 45.309601 L 97.800003 51.177597 L 96.235199 55.480797 L 93.496803 58.610397 L 91.3452 59.783997 L 89.584801 60.175201 L 87.237602 60.175201 L 85.477203 59.783997 L 82.7388 58.2192 L 80.978401 56.263199 L 79.804802 54.111603 L 78.826797 50.1996 L 78.826797 45.113998 L 80.195999 40.419601 L 81.760803 38.072403 L 82.934402 36.898804 L 85.281601 35.529602 Z M 53.790001 32.791199 L 52.812 33.964798 L 53.007599 36.116402 L 53.790001 36.898804 L 54.768002 37.290001 L 56.5284 37.290001 L 57.897598 36.311996 L 58.288799 34.942802 L 57.897598 33.769196 L 56.919601 32.791199 L 55.5504 32.399994 Z M 53.594398 34.1604 L 54.572399 33.378006 L 56.137199 33.378006 L 57.506401 34.551598 L 57.506401 35.334 L 56.723999 36.311996 L 55.159199 36.507599 L 53.594398 35.529602 Z M 2.5428 27.509995 L 2.5428 28.292404 L 6.4548 29.857193 L 2.3472 31.226395 L 2.3472 32.008804 L 7.6284 30.444 L 7.6284 29.466003 Z M 58.484402 30.248398 L 58.288799 27.314407 L 53.007599 27.705597 L 53.007599 28.488007 L 55.159199 28.292404 L 55.5504 28.879196 L 55.5504 30.248398 L 56.332802 30.248398 L 56.332802 28.292404 L 57.702 28.488007 L 57.702 30.248398 Z M 16.0392 24.771606 L 15.8436 25.749603 L 16.2348 26.140793 L 17.995199 26.336395 L 17.799601 27.509995 L 17.0172 26.923203 L 16.2348 26.923203 L 15.8436 27.314407 L 15.8436 27.901199 L 16.430401 28.488007 L 18.1908 28.488007 L 17.995199 29.466003 L 17.4084 29.466003 L 17.0172 29.074799 L 16.0392 29.270401 L 15.8436 29.661606 L 16.0392 30.444 L 16.430401 30.639603 L 17.4084 30.248398 L 18.1908 30.444 L 17.995199 31.617599 L 16.430401 31.226395 L 15.8436 31.813202 L 16.0392 32.595596 L 18.1908 32.595596 L 17.995199 33.573593 L 16.430401 33.378006 L 15.8436 33.964798 L 16.0392 34.7472 L 17.0172 34.942802 L 17.995199 34.356003 L 17.995199 35.529602 L 16.2348 35.725197 L 15.8436 36.116402 L 15.8436 36.703201 L 16.625999 37.290001 L 17.604 36.507599 L 18.1908 36.703201 L 18.1908 37.290001 L 17.799601 37.681198 L 16.2348 37.876801 L 15.8436 38.267998 L 16.0392 39.246002 L 16.8216 39.441597 L 17.995199 38.4636 L 18.3864 39.441597 L 26.797199 39.246002 L 28.362 39.441597 L 28.753201 40.028397 L 29.731199 40.419601 L 31.100401 40.419601 L 32.665199 39.441597 L 34.23 39.246002 L 42.6408 39.246002 L 42.6408 25.162796 L 41.858398 25.162796 L 41.6628 38.4636 L 32.0784 38.4636 L 31.296 39.441597 L 30.1224 39.637199 L 29.535601 39.441597 L 28.753201 38.4636 L 18.9732 38.267998 L 18.9732 25.162796 L 17.604 25.358398 L 17.0172 24.771606 Z M 31.882799 24.576004 L 30.9048 26.140793 L 30.9048 38.4636 L 31.296 37.485603 L 32.273998 36.898804 L 40.489201 36.703201 L 40.489201 24.184799 L 32.860802 24.184799 Z M 37.750801 32.986801 L 38.337601 33.769196 L 37.9464 34.551598 Z M 35.7948 32.791199 L 36.186001 34.551598 L 35.403599 34.551598 Z M 35.012402 32.986801 L 34.425598 34.551598 L 34.23 33.182404 Z M 33.6432 32.986801 L 34.23 34.1604 L 33.838799 34.551598 L 33.0564 33.378006 Z M 36.577202 29.661606 L 36.968399 31.030807 L 36.381599 31.030807 L 36.186001 30.639603 Z M 37.555199 29.466003 L 38.141998 30.052795 L 37.750801 31.226395 L 37.3596 29.857193 Z M 34.425598 29.661606 L 34.425598 31.030807 L 34.034401 31.421997 Z M 38.533199 26.140793 L 38.9244 27.901199 L 38.337601 27.314407 L 38.533199 27.118805 L 38.141998 26.531998 Z M 36.186001 26.140793 L 37.164001 27.901199 L 35.990398 26.7276 Z M 34.621201 26.336395 L 35.208 26.336395 L 35.012402 27.901199 Z M 34.23 26.336395 L 33.6432 27.705597 L 33.447601 26.531998 Z M 32.273998 26.531998 L 32.860802 26.336395 L 33.447601 27.314407 L 33.0564 27.901199 Z M 20.3424 24.184799 L 20.538 36.898804 L 28.5576 36.898804 L 29.731199 37.876801 L 29.9268 38.4636 L 29.9268 26.140793 L 29.34 24.967194 L 27.9708 24.184799 Z M 26.797199 32.986801 L 27.1884 34.1604 L 26.9928 34.7472 L 26.601601 34.356003 L 26.406 33.378006 Z M 25.6236 32.986801 L 25.6236 34.551598 L 24.8412 34.551598 Z M 24.0588 33.182404 L 24.0588 34.551598 L 23.2764 34.551598 Z M 26.601601 29.661606 L 27.579599 30.639603 L 27.384001 31.226395 L 26.601601 30.444 Z M 24.8412 29.466003 L 25.232401 29.857193 L 25.0368 31.030807 L 24.450001 29.661606 Z M 22.885201 29.466003 L 24.0588 30.835205 L 23.863199 31.421997 L 22.6896 30.052795 Z M 24.8412 26.336395 L 25.232401 26.7276 L 25.232401 27.314407 L 24.8412 27.705597 Z M 23.667601 26.336395 L 23.667601 27.705597 L 23.2764 27.314407 Z M 22.6896 26.336395 L 23.080799 26.7276 L 23.080799 27.314407 L 22.6896 27.705597 Z M 28.5576 26.336395 L 27.9708 27.705597 L 27.9708 26.336395 Z M 27.579599 26.336395 L 27.579599 27.314407 L 26.9928 27.705597 L 26.797199 26.531998 Z M 25.6236 26.531998 L 26.2104 26.336395 L 26.797199 27.314407 L 26.406 27.901199 Z M 3.912 21.837601 L 3.1296 24.380402 L 3.3252 24.967194 L 8.2152 26.140793 L 8.9976 23.402405 L 8.2152 23.206802 L 7.6284 25.162796 L 6.4548 24.967194 L 6.0636 24.576004 L 6.6504 22.815598 L 6.0636 22.619995 L 5.0856 24.576004 L 4.1076 24.184799 L 4.4988 22.033203 Z M 33.251999 21.250793 L 33.6432 21.641998 L 35.599201 22.033203 L 38.337601 22.033203 L 40.684799 21.446396 L 40.489201 21.055206 L 38.9244 20.664001 L 35.012402 20.664001 Z M 20.146799 21.446396 L 22.298401 22.033203 L 26.601601 21.837601 L 27.384001 21.446396 L 27.384001 21.055206 L 25.819201 20.664001 L 21.711599 20.664001 L 20.733601 20.859604 Z M 56.332802 20.272797 L 54.768002 22.228806 L 53.790001 22.424393 L 51.442799 21.837601 L 51.638401 22.619995 L 52.812 22.815598 L 53.790001 23.402405 L 52.616402 24.576004 L 52.616402 25.749603 L 54.768002 23.402405 L 57.702 23.989197 L 57.310799 23.206802 L 55.941601 23.0112 L 55.354801 22.619995 L 56.723999 21.055206 Z M 6.6504 16.556396 L 5.868 17.338806 L 5.0856 18.903595 L 7.2372 20.077194 L 9.9756 21.055206 L 10.1712 20.664001 L 8.2152 19.490402 L 8.802 18.707993 L 11.1492 18.903595 L 11.5404 18.121201 L 8.802 17.729996 L 8.0196 16.556396 Z M 7.2372 17.143204 L 8.0196 17.729996 L 7.824 18.903595 L 7.2372 19.099197 L 6.2592 18.121201 Z M 31.687201 16.360794 L 33.0564 20.272797 L 35.599201 19.686005 L 38.337601 19.686005 L 40.880402 20.272797 L 42.249599 16.360794 L 40.293598 17.338806 L 39.902401 17.925598 L 40.293598 18.316803 L 39.5112 19.099197 L 38.728802 19.099197 L 37.9464 17.925598 L 38.728802 17.729996 L 37.750801 15.969604 L 36.7728 15.187195 L 35.208 17.729996 L 35.990398 17.925598 L 34.816799 19.2948 L 33.6432 18.121201 L 34.034401 17.925598 L 33.447601 17.143204 L 32.273998 16.360794 Z M 18.582001 16.360794 L 19.9512 20.272797 L 22.493999 19.686005 L 25.232401 19.686005 L 27.7752 20.272797 L 28.948799 16.751999 L 28.948799 16.165207 L 27.1884 17.338806 L 26.797199 17.925598 L 27.1884 18.316803 L 25.819201 19.2948 L 24.8412 17.925598 L 25.6236 17.729996 L 23.863199 15.187195 L 22.1028 17.338806 L 22.1028 17.729996 L 22.6896 18.121201 L 21.516001 19.2948 L 20.538 18.121201 L 20.929199 17.925598 L 20.538 17.338806 Z M 52.812 14.796005 L 51.638401 14.796005 L 50.6604 15.187195 L 49.6824 15.969604 L 49.291199 16.751999 L 49.291199 18.512405 L 50.073601 19.490402 L 50.855999 19.881607 L 52.812 19.686005 L 54.376801 18.121201 L 54.376801 16.165207 L 53.594398 15.187195 Z M 52.812 15.5784 L 53.594398 16.360794 L 53.790001 17.534393 L 52.420799 18.903595 L 50.855999 19.099197 L 49.877998 17.925598 L 50.073601 16.947601 L 51.051601 15.969604 L 51.834 15.5784 Z M 47.139599 11.862 L 47.335201 13.035599 L 48.117599 13.035599 L 48.508801 12.644394 L 48.508801 12.057602 L 48.117599 11.666397 Z M 10.5624 11.275208 L 9.3888 12.253204 L 9.1932 13.817993 L 10.1712 14.600403 L 12.9096 14.013596 L 13.3008 14.4048 L 13.3008 14.991592 L 11.9316 15.969604 L 11.9316 16.556396 L 12.714 16.556396 L 13.8876 15.5784 L 14.0832 14.013596 L 13.692 13.426804 L 12.9096 13.035599 L 11.1492 13.622406 L 9.9756 13.426804 L 10.1712 12.448807 L 10.9536 12.057602 L 11.1492 11.275208 Z M 215.355606 9.906006 L 208.509598 9.906006 L 208.7052 22.619995 L 210.074402 22.424393 L 210.270004 16.556396 L 214.964401 16.556396 L 214.964401 15.382797 L 210.074402 14.991592 L 210.270004 11.079605 L 215.355606 11.079605 Z M 163.717194 9.906006 L 163.717194 11.079605 L 167.629196 11.275208 L 167.629196 22.619995 L 168.998398 22.619995 L 169.194 11.079605 L 172.9104 11.079605 L 172.9104 9.906006 Z M 160.391998 9.906006 L 158.827194 9.906006 L 159.022797 22.619995 L 160.391998 22.424393 Z M 184.255203 9.906006 L 182.494797 9.906006 L 179.560806 15.5784 L 176.626801 10.101593 L 174.670807 9.906006 L 178.778397 17.534393 L 178.778397 22.424393 L 179.951996 22.619995 L 180.147598 17.534393 Z M 135.355194 9.906006 L 135.355194 22.424393 L 136.724396 22.619995 L 136.919998 16.947601 L 138.680405 16.947601 L 139.658401 17.338806 L 140.636398 18.512405 L 142.201202 22.228806 L 142.592407 22.619995 L 143.961594 22.424393 L 141.614395 17.338806 L 140.636398 16.556396 L 141.809998 15.969604 L 142.592407 15.187195 L 142.983597 14.209198 L 142.983597 12.253204 L 142.396805 11.079605 L 141.809998 10.492798 L 140.440796 9.906006 Z M 136.919998 11.079605 L 140.440796 11.275208 L 141.223206 12.057602 L 141.614395 13.035599 L 141.223206 14.600403 L 140.440796 15.382797 L 139.267197 15.774002 L 136.724396 15.5784 Z M 124.206001 9.906006 L 124.206001 22.424393 L 131.247604 22.424393 L 131.247604 21.250793 L 125.770798 21.055206 L 125.9664 16.556396 L 130.8564 16.360794 L 130.8564 15.382797 L 125.770798 14.991592 L 125.9664 11.079605 L 131.052002 11.079605 L 130.8564 9.710403 Z M 110.122803 9.906006 L 114.621597 22.619995 L 115.990799 22.619995 L 116.382004 22.424393 L 120.293999 11.275208 L 120.489601 9.710403 L 119.511597 9.710403 L 119.120399 10.101593 L 115.403999 20.859604 L 111.883202 10.101593 L 111.491997 9.710403 Z M 106.406403 9.710403 L 105.232803 9.906006 L 105.428398 22.619995 L 106.7976 22.424393 L 106.7976 9.906006 Z M 90.7584 9.906006 L 90.954002 22.619995 L 92.127602 22.424393 L 92.323196 12.448807 L 98.1912 22.424393 L 99.951599 22.424393 L 99.951599 9.906006 L 98.582397 9.710403 L 98.386803 19.881607 L 92.518799 9.906006 Z M 76.870796 9.906006 L 76.870796 19.686005 L 77.457603 21.055206 L 78.4356 22.033203 L 80.782799 22.815598 L 81.956398 22.815598 L 83.912399 22.228806 L 85.085999 21.250793 L 85.868401 19.2948 L 85.672798 9.710403 L 84.499199 9.710403 L 84.303596 19.490402 L 84.108002 20.077194 L 82.347603 21.446396 L 80.000397 21.250793 L 78.4356 19.686005 L 78.044403 9.710403 Z M 198.142807 9.514801 L 195.404404 10.492798 L 194.035202 11.862 L 193.057205 14.013596 L 192.861603 17.338806 L 193.643997 19.881607 L 195.404404 21.837601 L 196.969193 22.619995 L 199.120804 22.815598 L 201.468002 22.033203 L 203.032806 20.664001 L 204.010803 18.707993 L 204.401993 15.5784 L 203.815201 13.035599 L 203.032806 11.666397 L 201.859207 10.492798 L 200.098801 9.710403 Z M 197.556 10.884003 L 199.511993 10.884003 L 200.490005 11.275208 L 202.250397 13.231201 L 202.837204 15.382797 L 202.641602 17.925598 L 202.054794 19.490402 L 201.076797 20.664001 L 199.511993 21.446396 L 197.751602 21.446396 L 196.773605 21.055206 L 195.208801 19.490402 L 194.426407 17.338806 L 194.426407 14.991592 L 194.817596 13.426804 L 196.382401 11.470795 Z M 151.589996 9.514801 L 149.4384 9.710403 L 148.264801 10.297195 L 147.091202 12.057602 L 147.091202 13.817993 L 147.482407 14.600403 L 149.047195 15.969604 L 151.981201 17.338806 L 153.1548 18.903595 L 152.763596 20.468399 L 151.394394 21.446396 L 149.634003 21.446396 L 147.091202 20.664001 L 146.895599 21.641998 L 148.264801 22.424393 L 149.829605 22.815598 L 151.003204 22.815598 L 152.959198 22.228806 L 154.132797 21.055206 L 154.524002 20.077194 L 154.524002 18.121201 L 153.741592 16.751999 L 152.763596 15.969604 L 150.025208 14.796005 L 148.460403 13.231201 L 148.656006 11.862 L 150.025208 10.884003 L 151.981201 10.884003 L 153.937195 11.666397 L 154.3284 11.079605 L 154.132797 10.492798 Z M 13.4964 8.536804 L 13.1052 8.927994 L 16.0392 12.839996 L 17.0172 12.644394 L 14.2788 8.927994 Z M 45.770401 7.363205 L 43.423199 6.189606 L 41.076 10.101593 L 41.076 10.884003 L 41.467201 11.079605 L 42.445202 9.514801 L 43.032001 9.123596 L 44.596802 9.906006 L 44.7924 9.319199 L 43.618801 8.732407 L 43.2276 8.145599 L 44.009998 7.167603 L 45.770401 8.145599 Z M 19.364401 5.016006 L 16.0392 6.776398 L 16.2348 7.363205 L 17.604 6.776398 L 19.559999 10.492798 L 20.146799 10.6884 L 20.538 10.492798 L 18.582001 6.776398 L 18.777599 6.189606 L 19.7556 5.798401 Z M 30.1224 4.820404 L 29.731199 5.211594 L 29.9268 6.189606 L 30.7092 6.189606 L 31.100401 5.407196 L 30.9048 5.016006 Z M 37.164001 3.842407 L 35.599201 5.016006 L 35.208 5.798401 L 35.208 7.754395 L 35.599201 8.536804 L 36.381599 9.123596 L 38.141998 9.319199 L 38.9244 8.927994 L 39.706799 7.949997 L 40.098 5.994003 L 39.706799 4.820404 L 39.119999 4.233597 Z M 37.3596 4.624802 L 38.533199 4.820404 L 39.119999 5.407196 L 39.315601 6.385193 L 38.9244 7.558807 L 37.9464 8.536804 L 36.968399 8.536804 L 35.990398 7.558807 L 35.990398 6.189606 L 36.381599 5.407196 Z M 25.427999 3.2556 L 24.645599 3.451202 L 24.0588 5.798401 L 22.298401 4.037994 L 21.516001 4.429199 L 23.667601 6.580795 L 24.645599 8.927994 L 25.232401 8.732407 L 24.8412 5.994003 Z M 31.882799 0.517197 L 25.427999 0.908401 L 19.559999 2.473206 L 14.0832 5.211594 L 9.9756 8.341202 L 5.868 12.839996 L 2.5428 18.512405 L 0.7824 23.598007 L 0 28.488007 L 0 33.378006 L 1.1736 39.637199 L 2.5428 43.3536 L 5.868 49.026001 L 10.1712 53.720398 L 13.1052 55.872002 L 14.4744 58.610397 L 16.8216 60.566399 L 19.559999 61.348801 L 21.9072 61.153198 L 22.6896 60.762001 L 25.6236 61.544403 L 26.014799 62.326797 L 25.0368 64.478401 L 25.427999 64.869598 L 26.601601 64.869598 L 27.1884 65.456398 L 27.1884 66.434402 L 26.601601 67.021202 L 25.6236 67.021202 L 24.8412 66.434402 L 24.8412 68.781601 L 25.6236 70.150803 L 26.9928 71.519997 L 30.318001 73.280403 L 33.251999 71.911201 L 34.23 71.128799 L 35.7948 68.977203 L 35.990398 66.434402 L 35.012402 67.021202 L 34.23 67.021202 L 33.447601 66.2388 L 33.447601 65.652 L 34.034401 64.869598 L 35.403599 64.869598 L 35.7948 64.478401 L 35.012402 62.131203 L 39.902401 60.957603 L 44.401199 58.806 L 50.855999 53.524803 L 54.9636 49.026001 L 57.310799 45.309601 L 59.071201 41.397598 L 60.244801 37.290001 L 60.8316 32.986801 L 60.636002 26.923203 L 59.2668 21.055206 L 56.723999 15.5784 L 53.007599 10.492798 L 48.704399 6.580795 L 42.6408 3.059998 L 37.3596 1.299606 Z M 27.1884 61.9356 L 30.1224 62.326797 L 32.665199 62.131203 L 34.23 62.326797 L 34.425598 62.718002 L 34.425598 63.891602 L 33.251999 64.282799 L 32.665199 65.065201 L 32.665199 66.629997 L 33.447601 67.608002 L 35.012402 68.390404 L 34.23 69.759598 L 31.4916 71.911201 L 29.731199 72.106796 L 28.5576 71.519997 L 25.819201 68.781601 L 25.819201 67.803596 L 26.2104 67.999199 L 27.384001 67.608002 L 28.166401 66.2388 L 27.7752 64.674004 L 26.2104 63.695999 Z M 34.816799 51.959999 L 34.23 52.938004 L 34.034401 54.5028 L 33.6432 54.893997 L 31.296 54.307198 L 28.948799 53.329201 L 28.753201 52.938004 L 29.9268 52.155602 L 32.273998 52.155602 L 34.034401 51.764397 Z M 26.406 51.959999 L 26.9928 51.764397 L 28.362 52.155602 L 27.7752 52.742401 Z M 14.67 51.177597 L 15.4524 52.546799 L 15.2568 55.285202 L 16.0392 57.045601 L 17.995199 58.806 L 20.929199 60.175201 L 18.777599 60.370796 L 17.604 59.979599 L 14.8656 57.632401 L 13.8876 55.0896 L 13.8876 53.133598 Z M 16.0392 53.720398 L 16.430401 52.742401 L 19.559999 55.0896 L 20.929199 55.285202 L 21.3204 54.893997 L 21.3204 53.916 L 20.929199 53.524803 L 17.0172 51.568802 L 18.9732 50.1996 L 20.733601 50.003998 L 22.6896 50.7864 L 28.5576 54.111603 L 34.425598 56.067596 L 38.141998 56.654404 L 42.445202 56.654404 L 45.183601 56.067596 L 46.161598 56.263199 L 43.032001 58.610397 L 38.337601 60.566399 L 34.23 61.348801 L 28.5576 61.348801 L 23.863199 60.370796 L 18.3864 58.023598 L 16.625999 56.263199 L 16.0392 54.698402 Z M 15.0612 50.590797 L 16.8216 48.830399 L 19.364401 47.852402 L 20.929199 47.852402 L 22.885201 48.439201 L 25.232401 50.395203 L 24.0588 50.395203 L 21.1248 49.221603 L 19.364401 49.221603 L 17.4084 50.003998 L 16.2348 51.177597 Z M 29.1444 10.492798 L 33.447601 10.6884 L 36.7728 11.470795 L 40.293598 13.035599 L 43.423199 15.187195 L 46.161598 17.925598 L 48.313202 21.055206 L 49.877998 24.576004 L 50.855999 29.661606 L 50.855999 32.204407 L 50.269199 35.920799 L 48.313202 40.810799 L 46.161598 43.940399 L 43.618801 46.4832 L 40.293598 48.830399 L 36.7728 50.395203 L 31.687201 51.373199 L 27.384001 51.177597 L 26.406 50.7864 L 26.014799 50.003998 L 24.2544 48.243599 L 22.6896 47.461197 L 21.3204 47.07 L 18.1908 47.265602 L 14.67 43.940399 L 12.5184 40.810799 L 10.758 36.703201 L 9.9756 32.595596 L 9.9756 29.466003 L 10.758 25.162796 L 12.714 20.664001 L 14.4744 18.121201 L 17.4084 15.187195 L 20.538 13.035599 L 24.0588 11.470795 Z M 13.1052 6.972 L 15.4524 5.407196 L 18.9732 3.646805 L 23.667601 2.082001 L 27.1884 1.495193 L 35.012402 1.690796 L 40.880402 3.2556 L 45.3792 5.407196 L 49.6824 8.536804 L 54.376801 13.622406 L 55.941601 15.969604 L 57.702 19.490402 L 59.462399 25.162796 L 59.8536 27.705597 L 59.658001 35.529602 L 58.484402 40.419601 L 56.5284 44.918404 L 53.007599 50.003998 L 48.508801 54.307198 L 45.770401 55.285202 L 41.858398 55.872002 L 36.7728 55.676399 L 34.816799 55.0896 L 35.012402 53.329201 L 36.381599 51.373199 L 40.684799 49.612801 L 43.618801 47.656799 L 46.161598 45.309601 L 48.900002 41.593201 L 50.073601 39.246002 L 51.2472 35.529602 L 51.638401 33.182404 L 51.638401 28.683594 L 50.855999 24.771606 L 50.073601 22.619995 L 48.900002 20.272797 L 46.161598 16.556396 L 43.618801 14.209198 L 40.684799 12.253204 L 38.141998 11.079605 L 33.838799 9.906006 L 26.9928 9.906006 L 21.711599 11.470795 L 19.7556 12.448807 L 16.2348 14.991592 L 12.9096 18.707993 L 10.5624 23.0112 L 9.5844 26.140793 L 9.1932 28.292404 L 9.3888 34.7472 L 10.3668 38.267998 L 12.5184 42.571198 L 14.4744 45.113998 L 17.212799 47.656799 L 14.0832 50.003998 L 13.1052 49.417198 L 13.8876 50.7864 L 13.3008 51.959999 L 12.9096 54.698402 L 11.3448 53.524803 L 7.824 50.003998 L 5.868 47.461197 L 3.5208 43.3536 L 1.5648 37.681198 L 0.7824 32.008804 L 1.3692 24.967194 L 2.934 19.881607 L 5.4768 14.991592 L 7.824 11.862 Z"/>
    </g>
</svg>
