<?xml version="1.0" encoding="UTF-8"?>
<!-- Generated by Pixelmator Pro 3.8 -->
<svg width="250" height="75" viewBox="0 0 250 75" xmlns="http://www.w3.org/2000/svg">
    <g id="Group">
        <path id="Path" fill="#002147" fill-rule="evenodd" stroke="none" d="M 33.838799 59.023598 L 33.838799 59.610397 L 34.23 60.001602 L 35.208 59.806 L 35.208 59.023598 L 34.816799 58.632401 L 34.23 58.632401 Z M 26.406 57.849998 L 26.406 58.436798 L 26.797199 58.828003 L 27.7752 58.632401 L 27.579599 57.458801 L 26.797199 57.458801 Z M 26.797199 48.656799 L 26.797199 49.047997 L 27.9708 49.439201 L 32.860802 49.439201 L 34.034401 49.047997 L 34.034401 48.656799 L 30.9048 48.07 L 27.9708 48.265602 Z M 49.291199 44.549202 L 47.922001 46.505203 L 47.922001 48.461197 L 48.900002 49.634804 L 49.6824 50.026001 L 51.442799 50.026001 L 53.007599 48.656799 L 53.594398 47.678802 L 50.269199 44.940399 Z M 49.6824 45.722801 L 51.834 47.287598 L 52.420799 48.07 L 51.638401 49.047997 L 50.855999 49.439201 L 49.877998 49.243599 L 48.508801 47.678802 L 48.900002 46.309601 Z M 11.3448 44.157997 L 10.3668 43.7668 L 9.5844 43.962402 L 6.2592 46.113998 L 6.6504 46.8964 L 9.9756 44.744797 L 10.758 44.744797 L 11.3448 45.331596 L 11.3448 46.309601 L 8.0196 48.852402 L 8.4108 49.439201 L 10.3668 48.265602 L 12.1272 46.700798 L 12.1272 45.136002 Z M 25.232401 43.7668 L 26.406 47.678802 L 28.362 47.287598 L 32.469601 47.287598 L 34.425598 47.678802 L 35.599201 43.7668 L 33.251999 45.331596 L 33.838799 45.722801 L 32.469601 46.8964 L 31.4916 45.527199 L 32.0784 44.940399 L 30.513599 42.788803 L 28.5576 45.136002 L 29.34 45.527199 L 28.166401 46.8964 L 26.9928 45.722801 L 27.579599 45.331596 Z M 51.834 39.659203 L 51.638401 40.441597 L 53.203201 41.028397 L 53.3988 41.615196 L 52.812 42.202003 L 50.6604 42.202003 L 50.464802 42.984398 L 53.007599 42.788803 L 53.790001 44.157997 L 55.354801 44.157997 L 55.941601 43.571198 L 56.723999 41.810799 Z M 54.181198 41.615196 L 55.745998 42.397598 L 54.572399 43.571198 L 53.790001 42.984398 Z M 8.4108 37.898804 L 3.5208 39.659203 L 3.7164 40.246002 L 7.0416 39.4636 L 4.6944 42.202003 L 4.89 43.375603 L 9.78 41.419601 L 9.3888 40.637199 L 6.846 41.810799 L 6.2592 41.615196 L 8.4108 39.072403 Z M 221.810394 35.1604 L 221.810394 36.138397 L 224.940002 36.920799 L 225.722397 37.703201 L 225.722397 59.610397 L 224.940002 60.392799 L 221.810394 61.175201 L 222.005997 62.153198 L 239.414398 61.762001 L 242.348404 60.979599 L 243.913193 60.197197 L 247.238403 57.263199 L 249.194397 53.351196 L 249.781204 49.830399 L 249.781204 47.678802 L 249.194397 44.549202 L 248.412003 42.397598 L 246.651596 39.659203 L 245.282394 38.290001 L 241.565994 36.138397 L 238.240799 35.356003 Z M 229.830002 36.529602 L 236.871597 36.529602 L 239.218796 37.116402 L 240.979202 38.094398 L 242.935196 40.0504 L 243.913193 41.615196 L 244.695602 43.7668 L 245.282394 47.092003 L 245.282394 50.612801 L 244.891205 53.155602 L 244.304398 55.111603 L 243.130798 57.263199 L 241.174805 59.2192 L 239.805603 60.001602 L 236.480392 60.783997 L 230.221207 60.783997 L 229.634399 60.197197 Z M 191.883606 35.1604 L 191.883606 36.138397 L 195.013199 36.920799 L 195.600006 37.507599 L 195.600006 59.806 L 194.230804 60.588402 L 191.883606 60.979599 L 191.883606 62.153198 L 203.815201 61.957603 L 203.619598 60.979599 L 200.490005 60.392799 L 199.707596 59.806 L 199.903198 50.026001 L 202.641602 50.026001 L 203.815201 50.612801 L 205.380005 52.373199 L 211.248001 60.783997 L 212.4216 61.957603 L 219.658798 61.957603 L 219.463196 60.979599 L 216.333603 60.392799 L 214.768799 59.023598 L 207.531601 49.243599 L 209.096405 48.852402 L 211.052399 47.678802 L 212.4216 46.309601 L 213.399597 44.3536 L 213.399597 40.441597 L 212.812805 39.072403 L 211.443604 37.311996 L 209.292007 35.942802 L 205.380005 35.1604 Z M 199.707596 36.529602 L 204.597595 36.529602 L 206.749207 37.507599 L 208.313995 39.072403 L 209.096405 41.028397 L 209.096405 44.3536 L 208.118393 46.700798 L 206.553604 48.07 L 203.423996 48.852402 L 199.707596 48.656799 Z M 136.528793 35.1604 L 136.528793 36.138397 L 139.658401 36.920799 L 140.245193 37.507599 L 140.245193 59.806 L 139.462799 60.392799 L 136.528793 61.175201 L 136.528793 61.957603 L 148.460403 61.957603 L 148.264801 60.979599 L 145.135193 60.392799 L 144.352798 59.806 L 144.548401 49.243599 L 151.198807 49.243599 L 151.981201 49.634804 L 152.567993 50.612801 L 153.1548 53.351196 L 154.3284 53.351196 L 154.3284 44.3536 L 153.1548 44.3536 L 152.372406 47.092003 L 151.198807 48.07 L 144.352798 47.874397 L 144.548401 36.529602 L 153.350403 36.529602 L 154.3284 37.507599 L 155.697601 41.810799 L 156.675598 41.810799 L 156.675598 35.1604 Z M 103.863602 35.1604 L 103.863602 36.138397 L 106.2108 36.725197 L 107.775597 37.703201 L 116.186401 49.047997 L 108.166801 59.2192 L 106.993202 60.197197 L 103.667999 60.979599 L 103.667999 62.153198 L 113.056801 61.957603 L 112.861198 60.979599 L 110.709602 60.588402 L 110.122803 59.806 L 117.164398 50.221603 L 123.814796 59.414803 L 124.010399 60.392799 L 121.076401 61.175201 L 121.076401 61.957603 L 132.812393 61.957603 L 132.616806 60.979599 L 130.074005 60.392799 L 128.509201 59.2192 L 119.902802 47.678802 L 127.139999 38.485603 L 128.900406 36.920799 L 132.029999 36.138397 L 132.029999 35.1604 L 122.641197 35.1604 L 122.641197 36.138397 L 125.183998 36.725197 L 125.575203 37.311996 L 118.924797 46.505203 L 112.470001 37.311996 L 112.665604 36.725197 L 115.599602 36.138397 L 115.599602 35.1604 Z M 8.0196 35.7472 L 7.824 34.964798 L 2.7384 35.551598 L 2.7384 36.334 Z M 170.758804 35.1604 L 168.998398 35.7472 L 165.868805 37.507599 L 164.499603 38.681198 L 162.152405 41.810799 L 160.587601 46.505203 L 160.587601 51.003998 L 160.978806 52.764397 L 163.130402 57.067596 L 165.673203 59.610397 L 167.824799 60.979599 L 170.367599 61.957603 L 173.497192 62.544403 L 175.648804 62.544403 L 178.778397 61.957603 L 180.929993 61.175201 L 183.472794 59.610397 L 185.820007 57.263199 L 186.993607 55.5028 L 188.167206 52.764397 L 188.753998 49.439201 L 188.753998 47.4832 L 188.167206 44.3536 L 186.993607 41.615196 L 185.820007 39.854797 L 183.863998 37.898804 L 181.5168 36.334 L 179.169601 35.356003 L 176.431198 34.769196 L 172.9104 34.769196 Z M 172.9104 36.138397 L 176.235596 36.138397 L 178.191605 36.725197 L 180.147598 37.898804 L 181.5168 39.267998 L 183.277206 42.397598 L 184.255203 46.8964 L 184.059601 51.7864 L 183.277206 54.720398 L 181.5168 57.849998 L 179.169601 60.001602 L 175.844406 61.175201 L 172.323593 60.979599 L 169.194 59.414803 L 167.433594 57.654404 L 166.455597 56.0896 L 165.086395 51.590797 L 165.086395 45.722801 L 166.064407 42.202003 L 166.846802 40.637199 L 169.389603 37.703201 L 171.541199 36.529602 Z M 85.477203 34.964798 L 82.347603 35.942802 L 80.000397 37.311996 L 77.262001 39.854797 L 76.283997 41.223999 L 75.306 43.18 L 74.328003 46.8964 L 74.328003 50.612801 L 74.914803 53.155602 L 76.283997 56.0896 L 77.262001 57.458801 L 80.000397 60.001602 L 82.934402 61.566399 L 87.433197 62.544403 L 89.389198 62.544403 L 92.714401 61.957603 L 97.017601 59.806 L 99.169197 57.849998 L 100.929604 55.307198 L 101.9076 52.959999 L 102.4944 50.221603 L 102.4944 46.8964 L 101.9076 44.157997 L 101.125198 42.202003 L 99.755997 40.0504 L 96.039597 36.725197 L 94.083603 35.7472 L 91.3452 34.964798 Z M 86.650803 36.138397 L 90.1716 36.138397 L 91.540802 36.529602 L 93.692398 37.703201 L 96.235199 40.637199 L 97.408798 43.375603 L 97.995598 46.309601 L 97.800003 52.177597 L 96.235199 56.480797 L 93.496803 59.610397 L 91.3452 60.783997 L 89.584801 61.175201 L 87.237602 61.175201 L 85.477203 60.783997 L 82.7388 59.2192 L 80.978401 57.263199 L 79.804802 55.111603 L 78.826797 51.1996 L 78.826797 46.113998 L 80.195999 41.419601 L 81.760803 39.072403 L 82.934402 37.898804 L 85.281601 36.529602 Z M 53.790001 33.791199 L 52.812 34.964798 L 53.007599 37.116402 L 53.790001 37.898804 L 54.768002 38.290001 L 56.5284 38.290001 L 57.897598 37.311996 L 58.288799 35.942802 L 57.897598 34.769196 L 56.919601 33.791199 L 55.5504 33.399994 Z M 53.594398 35.1604 L 54.572399 34.378006 L 56.137199 34.378006 L 57.506401 35.551598 L 57.506401 36.334 L 56.723999 37.311996 L 55.159199 37.507599 L 53.594398 36.529602 Z M 2.5428 28.509995 L 2.5428 29.292404 L 6.4548 30.857193 L 2.3472 32.226395 L 2.3472 33.008804 L 7.6284 31.444 L 7.6284 30.466003 Z M 58.484402 31.248398 L 58.288799 28.314407 L 53.007599 28.705597 L 53.007599 29.488007 L 55.159199 29.292404 L 55.5504 29.879196 L 55.5504 31.248398 L 56.332802 31.248398 L 56.332802 29.292404 L 57.702 29.488007 L 57.702 31.248398 Z M 16.0392 25.771606 L 15.8436 26.749603 L 16.2348 27.140793 L 17.995199 27.336395 L 17.799601 28.509995 L 17.0172 27.923203 L 16.2348 27.923203 L 15.8436 28.314407 L 15.8436 28.901199 L 16.430401 29.488007 L 18.1908 29.488007 L 17.995199 30.466003 L 17.4084 30.466003 L 17.0172 30.074799 L 16.0392 30.270401 L 15.8436 30.661606 L 16.0392 31.444 L 16.430401 31.639603 L 17.4084 31.248398 L 18.1908 31.444 L 17.995199 32.617599 L 16.430401 32.226395 L 15.8436 32.813202 L 16.0392 33.595596 L 18.1908 33.595596 L 17.995199 34.573593 L 16.430401 34.378006 L 15.8436 34.964798 L 16.0392 35.7472 L 17.0172 35.942802 L 17.995199 35.356003 L 17.995199 36.529602 L 16.2348 36.725197 L 15.8436 37.116402 L 15.8436 37.703201 L 16.625999 38.290001 L 17.604 37.507599 L 18.1908 37.703201 L 18.1908 38.290001 L 17.799601 38.681198 L 16.2348 38.876801 L 15.8436 39.267998 L 16.0392 40.246002 L 16.8216 40.441597 L 17.995199 39.4636 L 18.3864 40.441597 L 26.797199 40.246002 L 28.362 40.441597 L 28.753201 41.028397 L 29.731199 41.419601 L 31.100401 41.419601 L 32.665199 40.441597 L 34.23 40.246002 L 42.6408 40.246002 L 42.6408 26.162796 L 41.858398 26.162796 L 41.6628 39.4636 L 32.0784 39.4636 L 31.296 40.441597 L 30.1224 40.637199 L 29.535601 40.441597 L 28.753201 39.4636 L 18.9732 39.267998 L 18.9732 26.162796 L 17.604 26.358398 L 17.0172 25.771606 Z M 31.882799 25.576004 L 30.9048 27.140793 L 30.9048 39.4636 L 31.296 38.485603 L 32.273998 37.898804 L 40.489201 37.703201 L 40.489201 25.184799 L 32.860802 25.184799 Z M 37.750801 33.986801 L 38.337601 34.769196 L 37.9464 35.551598 Z M 35.7948 33.791199 L 36.186001 35.551598 L 35.403599 35.551598 Z M 35.012402 33.986801 L 34.425598 35.551598 L 34.23 34.182404 Z M 33.6432 33.986801 L 34.23 35.1604 L 33.838799 35.551598 L 33.0564 34.378006 Z M 36.577202 30.661606 L 36.968399 32.030807 L 36.381599 32.030807 L 36.186001 31.639603 Z M 37.555199 30.466003 L 38.141998 31.052795 L 37.750801 32.226395 L 37.3596 30.857193 Z M 34.425598 30.661606 L 34.425598 32.030807 L 34.034401 32.421997 Z M 38.533199 27.140793 L 38.9244 28.901199 L 38.337601 28.314407 L 38.533199 28.118805 L 38.141998 27.531998 Z M 36.186001 27.140793 L 37.164001 28.901199 L 35.990398 27.7276 Z M 34.621201 27.336395 L 35.208 27.336395 L 35.012402 28.901199 Z M 34.23 27.336395 L 33.6432 28.705597 L 33.447601 27.531998 Z M 32.273998 27.531998 L 32.860802 27.336395 L 33.447601 28.314407 L 33.0564 28.901199 Z M 20.3424 25.184799 L 20.538 37.898804 L 28.5576 37.898804 L 29.731199 38.876801 L 29.9268 39.4636 L 29.9268 27.140793 L 29.34 25.967194 L 27.9708 25.184799 Z M 26.797199 33.986801 L 27.1884 35.1604 L 26.9928 35.7472 L 26.601601 35.356003 L 26.406 34.378006 Z M 25.6236 33.986801 L 25.6236 35.551598 L 24.8412 35.551598 Z M 24.0588 34.182404 L 24.0588 35.551598 L 23.2764 35.551598 Z M 26.601601 30.661606 L 27.579599 31.639603 L 27.384001 32.226395 L 26.601601 31.444 Z M 24.8412 30.466003 L 25.232401 30.857193 L 25.0368 32.030807 L 24.450001 30.661606 Z M 22.885201 30.466003 L 24.0588 31.835205 L 23.863199 32.421997 L 22.6896 31.052795 Z M 24.8412 27.336395 L 25.232401 27.7276 L 25.232401 28.314407 L 24.8412 28.705597 Z M 23.667601 27.336395 L 23.667601 28.705597 L 23.2764 28.314407 Z M 22.6896 27.336395 L 23.080799 27.7276 L 23.080799 28.314407 L 22.6896 28.705597 Z M 28.5576 27.336395 L 27.9708 28.705597 L 27.9708 27.336395 Z M 27.579599 27.336395 L 27.579599 28.314407 L 26.9928 28.705597 L 26.797199 27.531998 Z M 25.6236 27.531998 L 26.2104 27.336395 L 26.797199 28.314407 L 26.406 28.901199 Z M 3.912 22.837601 L 3.1296 25.380402 L 3.3252 25.967194 L 8.2152 27.140793 L 8.9976 24.402405 L 8.2152 24.206802 L 7.6284 26.162796 L 6.4548 25.967194 L 6.0636 25.576004 L 6.6504 23.815598 L 6.0636 23.619995 L 5.0856 25.576004 L 4.1076 25.184799 L 4.4988 23.033203 Z M 33.251999 22.250793 L 33.6432 22.641998 L 35.599201 23.033203 L 38.337601 23.033203 L 40.684799 22.446396 L 40.489201 22.055206 L 38.9244 21.664001 L 35.012402 21.664001 Z M 20.146799 22.446396 L 22.298401 23.033203 L 26.601601 22.837601 L 27.384001 22.446396 L 27.384001 22.055206 L 25.819201 21.664001 L 21.711599 21.664001 L 20.733601 21.859604 Z M 56.332802 21.272797 L 54.768002 23.228806 L 53.790001 23.424393 L 51.442799 22.837601 L 51.638401 23.619995 L 52.812 23.815598 L 53.790001 24.402405 L 52.616402 25.576004 L 52.616402 26.749603 L 54.768002 24.402405 L 57.702 24.989197 L 57.310799 24.206802 L 55.941601 24.0112 L 55.354801 23.619995 L 56.723999 22.055206 Z M 6.6504 17.556396 L 5.868 18.338806 L 5.0856 19.903595 L 7.2372 21.077194 L 9.9756 22.055206 L 10.1712 21.664001 L 8.2152 20.490402 L 8.802 19.707993 L 11.1492 19.903595 L 11.5404 19.121201 L 8.802 18.729996 L 8.0196 17.556396 Z M 7.2372 18.143204 L 8.0196 18.729996 L 7.824 19.903595 L 7.2372 20.099197 L 6.2592 19.121201 Z M 31.687201 17.360794 L 33.0564 21.272797 L 35.599201 20.686005 L 38.337601 20.686005 L 40.880402 21.272797 L 42.249599 17.360794 L 40.293598 18.338806 L 39.902401 18.925598 L 40.293598 19.316803 L 39.5112 20.099197 L 38.728802 20.099197 L 37.9464 18.925598 L 38.728802 18.729996 L 37.750801 16.969604 L 36.7728 16.187195 L 35.208 18.729996 L 35.990398 18.925598 L 34.816799 20.2948 L 33.6432 19.121201 L 34.034401 18.925598 L 33.447601 18.143204 L 32.273998 17.360794 Z M 18.582001 17.360794 L 19.9512 21.272797 L 22.493999 20.686005 L 25.232401 20.686005 L 27.7752 21.272797 L 28.948799 17.751999 L 28.948799 17.165207 L 27.1884 18.338806 L 26.797199 18.925598 L 27.1884 19.316803 L 25.819201 20.2948 L 24.8412 18.925598 L 25.6236 18.729996 L 23.863199 16.187195 L 22.1028 18.338806 L 22.1028 18.729996 L 22.6896 19.121201 L 21.516001 20.2948 L 20.538 19.121201 L 20.929199 18.925598 L 20.538 18.338806 Z M 52.812 15.796005 L 51.638401 15.796005 L 50.6604 16.187195 L 49.6824 16.969604 L 49.291199 17.751999 L 49.291199 19.512405 L 50.073601 20.490402 L 50.855999 20.881607 L 52.812 20.686005 L 54.376801 19.121201 L 54.376801 17.165207 L 53.594398 16.187195 Z M 52.812 16.5784 L 53.594398 17.360794 L 53.790001 18.534393 L 52.420799 19.903595 L 50.855999 20.099197 L 49.877998 18.925598 L 50.073601 17.947601 L 51.051601 16.969604 L 51.834 16.5784 Z M 47.139599 12.862 L 47.335201 14.035599 L 48.117599 14.035599 L 48.508801 13.644394 L 48.508801 13.057602 L 48.117599 12.666397 Z M 10.5624 12.275208 L 9.3888 13.253204 L 9.1932 14.817993 L 10.1712 15.600403 L 12.9096 15.013596 L 13.3008 15.4048 L 13.3008 15.991592 L 11.9316 16.969604 L 11.9316 17.556396 L 12.714 17.556396 L 13.8876 16.5784 L 14.0832 15.013596 L 13.692 14.426804 L 12.9096 14.035599 L 11.1492 14.622406 L 9.9756 14.426804 L 10.1712 13.448807 L 10.9536 13.057602 L 11.1492 12.275208 Z M 215.355606 10.906006 L 208.509598 10.906006 L 208.7052 23.619995 L 210.074402 23.424393 L 210.270004 17.556396 L 214.964401 17.556396 L 214.964401 16.382797 L 210.074402 15.991592 L 210.270004 12.079605 L 215.355606 12.079605 Z M 163.717194 10.906006 L 163.717194 12.079605 L 167.629196 12.275208 L 167.629196 23.619995 L 168.998398 23.619995 L 169.194 12.079605 L 172.9104 12.079605 L 172.9104 10.906006 Z M 160.391998 10.906006 L 158.827194 10.906006 L 159.022797 23.619995 L 160.391998 23.424393 Z M 184.255203 10.906006 L 182.494797 10.906006 L 179.560806 16.5784 L 176.626801 11.101593 L 174.670807 10.906006 L 178.778397 18.534393 L 178.778397 23.424393 L 179.951996 23.619995 L 180.147598 18.534393 Z M 135.355194 10.906006 L 135.355194 23.424393 L 136.724396 23.619995 L 136.919998 17.947601 L 138.680405 17.947601 L 139.658401 18.338806 L 140.636398 19.512405 L 142.201202 23.228806 L 142.592407 23.619995 L 143.961594 23.424393 L 141.614395 18.338806 L 140.636398 17.556396 L 141.809998 16.969604 L 142.592407 16.187195 L 142.983597 15.209198 L 142.983597 13.253204 L 142.396805 12.079605 L 141.809998 11.492798 L 140.440796 10.906006 Z M 136.919998 12.079605 L 140.440796 12.275208 L 141.223206 13.057602 L 141.614395 14.035599 L 141.223206 15.600403 L 140.440796 16.382797 L 139.267197 16.774002 L 136.724396 16.5784 Z M 124.206001 10.906006 L 124.206001 23.424393 L 131.247604 23.424393 L 131.247604 22.250793 L 125.770798 22.055206 L 125.9664 17.556396 L 130.8564 17.360794 L 130.8564 16.382797 L 125.770798 15.991592 L 125.9664 12.079605 L 131.052002 12.079605 L 130.8564 10.710403 Z M 110.122803 10.906006 L 114.621597 23.619995 L 115.990799 23.619995 L 116.382004 23.424393 L 120.293999 12.275208 L 120.489601 10.710403 L 119.511597 10.710403 L 119.120399 11.101593 L 115.403999 21.859604 L 111.883202 11.101593 L 111.491997 10.710403 Z M 106.406403 10.710403 L 105.232803 10.906006 L 105.428398 23.619995 L 106.7976 23.424393 L 106.7976 10.906006 Z M 90.7584 10.906006 L 90.954002 23.619995 L 92.127602 23.424393 L 92.323196 13.448807 L 98.1912 23.424393 L 99.951599 23.424393 L 99.951599 10.906006 L 98.582397 10.710403 L 98.386803 20.881607 L 92.518799 10.906006 Z M 76.870796 10.906006 L 76.870796 20.686005 L 77.457603 22.055206 L 78.4356 23.033203 L 80.782799 23.815598 L 81.956398 23.815598 L 83.912399 23.228806 L 85.085999 22.250793 L 85.868401 20.2948 L 85.672798 10.710403 L 84.499199 10.710403 L 84.303596 20.490402 L 84.108002 21.077194 L 82.347603 22.446396 L 80.000397 22.250793 L 78.4356 20.686005 L 78.044403 10.710403 Z M 198.142807 10.514801 L 195.404404 11.492798 L 194.035202 12.862 L 193.057205 15.013596 L 192.861603 18.338806 L 193.643997 20.881607 L 195.404404 22.837601 L 196.969193 23.619995 L 199.120804 23.815598 L 201.468002 23.033203 L 203.032806 21.664001 L 204.010803 19.707993 L 204.401993 16.5784 L 203.815201 14.035599 L 203.032806 12.666397 L 201.859207 11.492798 L 200.098801 10.710403 Z M 197.556 11.884003 L 199.511993 11.884003 L 200.490005 12.275208 L 202.250397 14.231201 L 202.837204 16.382797 L 202.641602 18.925598 L 202.054794 20.490402 L 201.076797 21.664001 L 199.511993 22.446396 L 197.751602 22.446396 L 196.773605 22.055206 L 195.208801 20.490402 L 194.426407 18.338806 L 194.426407 15.991592 L 194.817596 14.426804 L 196.382401 12.470795 Z M 151.589996 10.514801 L 149.4384 10.710403 L 148.264801 11.297195 L 147.091202 13.057602 L 147.091202 14.817993 L 147.482407 15.600403 L 149.047195 16.969604 L 151.981201 18.338806 L 153.1548 19.903595 L 152.763596 21.468399 L 151.394394 22.446396 L 149.634003 22.446396 L 147.091202 21.664001 L 146.895599 22.641998 L 148.264801 23.424393 L 149.829605 23.815598 L 151.003204 23.815598 L 152.959198 23.228806 L 154.132797 22.055206 L 154.524002 21.077194 L 154.524002 19.121201 L 153.741592 17.751999 L 152.763596 16.969604 L 150.025208 15.796005 L 148.460403 14.231201 L 148.656006 12.862 L 150.025208 11.884003 L 151.981201 11.884003 L 153.937195 12.666397 L 154.3284 12.079605 L 154.132797 11.492798 Z M 13.4964 9.536804 L 13.1052 9.927994 L 16.0392 13.839996 L 17.0172 13.644394 L 14.2788 9.927994 Z M 45.770401 8.363205 L 43.423199 7.189606 L 41.076 11.101593 L 41.076 11.884003 L 41.467201 12.079605 L 42.445202 10.514801 L 43.032001 10.123596 L 44.596802 10.906006 L 44.7924 10.319199 L 43.618801 9.732407 L 43.2276 9.145599 L 44.009998 8.167603 L 45.770401 9.145599 Z M 19.364401 6.016006 L 16.0392 7.776398 L 16.2348 8.363205 L 17.604 7.776398 L 19.559999 11.492798 L 20.146799 11.6884 L 20.538 11.492798 L 18.582001 7.776398 L 18.777599 7.189606 L 19.7556 6.798401 Z M 30.1224 5.820404 L 29.731199 6.211594 L 29.9268 7.189606 L 30.7092 7.189606 L 31.100401 6.407196 L 30.9048 6.016006 Z M 37.164001 4.842407 L 35.599201 6.016006 L 35.208 6.798401 L 35.208 8.754395 L 35.599201 9.536804 L 36.381599 10.123596 L 38.141998 10.319199 L 38.9244 9.927994 L 39.706799 8.949997 L 40.098 6.994003 L 39.706799 5.820404 L 39.119999 5.233597 Z M 37.3596 5.624802 L 38.533199 5.820404 L 39.119999 6.407196 L 39.315601 7.385193 L 38.9244 8.558807 L 37.9464 9.536804 L 36.968399 9.536804 L 35.990398 8.558807 L 35.990398 7.189606 L 36.381599 6.407196 Z M 25.427999 4.2556 L 24.645599 4.451202 L 24.0588 6.798401 L 22.298401 5.037994 L 21.516001 5.429199 L 23.667601 7.580795 L 24.645599 9.927994 L 25.232401 9.732407 L 24.8412 6.994003 Z M 31.882799 1.517197 L 25.427999 1.908401 L 19.559999 3.473206 L 14.0832 6.211594 L 9.9756 9.341202 L 5.868 13.839996 L 2.5428 19.512405 L 0.7824 24.598007 L 0 29.488007 L 0 34.378006 L 1.1736 40.637199 L 2.5428 44.3536 L 5.868 50.026001 L 10.1712 54.720398 L 13.1052 56.872002 L 14.4744 59.610397 L 16.8216 61.566399 L 19.559999 62.348801 L 21.9072 62.153198 L 22.6896 61.762001 L 25.6236 62.544403 L 26.014799 63.326797 L 25.0368 65.478401 L 25.427999 65.869598 L 26.601601 65.869598 L 27.1884 66.456398 L 27.1884 67.434402 L 26.601601 68.021202 L 25.6236 68.021202 L 24.8412 67.434402 L 24.8412 69.781601 L 25.6236 71.150803 L 26.9928 72.519997 L 30.318001 74.280403 L 33.251999 72.911201 L 34.23 72.128799 L 35.7948 69.977203 L 35.990398 67.434402 L 35.012402 68.021202 L 34.23 68.021202 L 33.447601 67.2388 L 33.447601 66.652 L 34.034401 65.869598 L 35.403599 65.869598 L 35.7948 65.478401 L 35.012402 63.131203 L 39.902401 61.957603 L 44.401199 59.806 L 50.855999 54.524803 L 54.9636 50.026001 L 57.310799 46.309601 L 59.071201 42.397598 L 60.244801 38.290001 L 60.8316 33.986801 L 60.636002 27.923203 L 59.2668 22.055206 L 56.723999 16.5784 L 53.007599 11.492798 L 48.704399 7.580795 L 42.6408 4.059998 L 37.3596 2.299606 Z M 27.1884 62.9356 L 30.1224 63.326797 L 32.665199 63.131203 L 34.23 63.326797 L 34.425598 63.718002 L 34.425598 64.891602 L 33.251999 65.282799 L 32.665199 66.065201 L 32.665199 67.629997 L 33.447601 68.608002 L 35.012402 69.390404 L 34.23 70.759598 L 31.4916 72.911201 L 29.731199 73.106796 L 28.5576 72.519997 L 25.819201 69.781601 L 25.819201 68.803596 L 26.2104 68.999199 L 27.384001 68.608002 L 28.166401 67.2388 L 27.7752 65.674004 L 26.2104 64.695999 Z M 34.816799 52.959999 L 34.23 53.938004 L 34.034401 55.5028 L 33.6432 55.893997 L 31.296 55.307198 L 28.948799 54.329201 L 28.753201 53.938004 L 29.9268 53.155602 L 32.273998 53.155602 L 34.034401 52.764397 Z M 26.406 52.959999 L 26.9928 52.764397 L 28.362 53.155602 L 27.7752 53.742401 Z M 14.67 52.177597 L 15.4524 53.546799 L 15.2568 56.285202 L 16.0392 58.045601 L 17.995199 59.806 L 20.929199 61.175201 L 18.777599 61.370796 L 17.604 60.979599 L 14.8656 58.632401 L 13.8876 56.0896 L 13.8876 54.133598 Z M 16.0392 54.720398 L 16.430401 53.742401 L 19.559999 56.0896 L 20.929199 56.285202 L 21.3204 55.893997 L 21.3204 54.916 L 20.929199 54.524803 L 17.0172 52.568802 L 18.9732 51.1996 L 20.733601 51.003998 L 22.6896 51.7864 L 28.5576 55.111603 L 34.425598 57.067596 L 38.141998 57.654404 L 42.445202 57.654404 L 45.183601 57.067596 L 46.161598 57.263199 L 43.032001 59.610397 L 38.337601 61.566399 L 34.23 62.348801 L 28.5576 62.348801 L 23.863199 61.370796 L 18.3864 59.023598 L 16.625999 57.263199 L 16.0392 55.698402 Z M 15.0612 51.590797 L 16.8216 49.830399 L 19.364401 48.852402 L 20.929199 48.852402 L 22.885201 49.439201 L 25.232401 51.395203 L 24.0588 51.395203 L 21.1248 50.221603 L 19.364401 50.221603 L 17.4084 51.003998 L 16.2348 52.177597 Z M 29.1444 11.492798 L 33.447601 11.6884 L 36.7728 12.470795 L 40.293598 14.035599 L 43.423199 16.187195 L 46.161598 18.925598 L 48.313202 22.055206 L 49.877998 25.576004 L 50.855999 30.661606 L 50.855999 33.204407 L 50.269199 36.920799 L 48.313202 41.810799 L 46.161598 44.940399 L 43.618801 47.4832 L 40.293598 49.830399 L 36.7728 51.395203 L 31.687201 52.373199 L 27.384001 52.177597 L 26.406 51.7864 L 26.014799 51.003998 L 24.2544 49.243599 L 22.6896 48.461197 L 21.3204 48.07 L 18.1908 48.265602 L 14.67 44.940399 L 12.5184 41.810799 L 10.758 37.703201 L 9.9756 33.595596 L 9.9756 30.466003 L 10.758 26.162796 L 12.714 21.664001 L 14.4744 19.121201 L 17.4084 16.187195 L 20.538 14.035599 L 24.0588 12.470795 Z M 13.1052 7.972 L 15.4524 6.407196 L 18.9732 4.646805 L 23.667601 3.082001 L 27.1884 2.495193 L 35.012402 2.690796 L 40.880402 4.2556 L 45.3792 6.407196 L 49.6824 9.536804 L 54.376801 14.622406 L 55.941601 16.969604 L 57.702 20.490402 L 59.462399 26.162796 L 59.8536 28.705597 L 59.658001 36.529602 L 58.484402 41.419601 L 56.5284 45.918404 L 53.007599 51.003998 L 48.508801 55.307198 L 45.770401 56.285202 L 41.858398 56.872002 L 36.7728 56.676399 L 34.816799 56.0896 L 35.012402 54.329201 L 36.381599 52.373199 L 40.684799 50.612801 L 43.618801 48.656799 L 46.161598 46.309601 L 48.900002 42.593201 L 50.073601 40.246002 L 51.2472 36.529602 L 51.638401 34.182404 L 51.638401 29.683594 L 50.855999 25.771606 L 50.073601 23.619995 L 48.900002 21.272797 L 46.161598 17.556396 L 43.618801 15.209198 L 40.684799 13.253204 L 38.141998 12.079605 L 33.838799 10.906006 L 26.9928 10.906006 L 21.711599 12.470795 L 19.7556 13.448807 L 16.2348 15.991592 L 12.9096 19.707993 L 10.5624 24.0112 L 9.5844 27.140793 L 9.1932 29.292404 L 9.3888 35.7472 L 10.3668 39.267998 L 12.5184 43.571198 L 14.4744 46.113998 L 17.212799 48.656799 L 14.0832 51.003998 L 13.1052 50.417198 L 13.8876 51.7864 L 13.3008 52.959999 L 12.9096 55.698402 L 11.3448 54.524803 L 7.824 51.003998 L 5.868 48.461197 L 3.5208 44.3536 L 1.5648 38.681198 L 0.7824 33.008804 L 1.3692 25.967194 L 2.934 20.881607 L 5.4768 15.991592 L 7.824 12.862 Z"/>
    </g>
</svg>
