<?xml version="1.0" encoding="UTF-8"?>
<!-- Generated by Pixelmator Pro 3.8 -->
<svg width="250" height="75" viewBox="0 0 250 75" xmlns="http://www.w3.org/2000/svg">
    <g id="Group">
        <path id="Path" fill="#800000" fill-rule="evenodd" stroke="none" d="M 116.196999 35.019203 L 116.196999 35.871498 L 118.469803 36.155602 L 119.606201 37.292 L 119.890297 38.996597 L 119.890297 57.7472 L 119.606201 59.451797 L 118.185699 60.588203 L 116.196999 60.872299 L 116.196999 61.724602 L 126.708702 61.440498 L 126.708702 60.872299 L 124.151802 60.3041 L 123.015404 58.315399 L 123.015404 38.144302 L 123.867699 36.439697 L 126.708702 35.871498 L 126.424599 35.019203 Z M 80.968597 35.019203 L 80.968597 35.871498 L 83.525497 36.439697 L 84.3778 38.144302 L 84.3778 58.883598 L 83.241402 60.3041 L 81.252701 60.872299 L 81.252701 61.724602 L 91.480301 61.440498 L 91.480301 60.872299 L 88.639297 60.3041 L 87.787003 59.167702 L 87.787003 48.940102 L 103.128403 48.940102 L 103.128403 59.167702 L 102.2761 60.3041 L 99.7192 61.156403 L 100.003304 61.724602 L 109.9468 61.724602 L 109.9468 60.872299 L 107.958099 60.588203 L 106.537598 59.167702 L 106.537598 37.576103 L 107.674004 36.155602 L 108.810402 36.155602 L 109.662697 35.019203 L 100.003304 35.871498 L 101.991997 36.155602 L 103.128403 37.576103 L 102.844299 46.951401 L 87.787003 46.667297 L 87.787003 37.292 L 88.923401 36.155602 L 90.912102 35.871498 L 90.912102 35.019203 Z M 233.814407 34.451004 L 228.984695 35.871498 L 224.439102 39.564796 L 222.166306 43.542198 L 221.313995 49.508301 L 222.166306 53.485703 L 223.870895 56.610802 L 225.859604 58.883598 L 227.848297 60.3041 L 232.109802 62.008698 L 237.507706 62.292801 L 243.189697 60.3041 L 246.314804 57.7472 L 249.155807 52.6334 L 249.723999 46.383202 L 248.303497 41.553497 L 244.894302 37.292 L 239.496399 34.735107 Z M 234.098495 35.587402 L 238.644104 36.155602 L 240.348694 37.007896 L 243.189697 39.8489 L 244.326096 41.837601 L 245.746597 47.5196 L 245.462494 53.201599 L 243.757904 57.179001 L 241.201004 59.735901 L 236.939499 61.156403 L 233.814407 60.872299 L 230.689301 59.451797 L 227.564194 56.042603 L 225.5755 50.360603 L 225.5755 44.394501 L 226.427795 41.269402 L 229.268799 37.576103 Z M 194.040405 37.860199 L 190.915298 41.553497 L 189.210693 46.951401 L 189.494797 52.065201 L 191.767593 56.610802 L 194.324493 59.167702 L 196.597305 60.588203 L 201.142899 62.008698 L 207.108994 62.292801 L 214.211502 60.872299 L 213.359207 58.883598 L 213.359207 53.485703 L 214.211502 52.065201 L 215.916107 51.781097 L 215.916107 50.928802 L 205.404404 51.212898 L 205.688507 51.781097 L 208.813599 52.065201 L 209.949997 52.917503 L 210.2341 58.315399 L 209.949997 59.451797 L 208.813599 60.588203 L 204.268005 61.156403 L 198.870102 59.451797 L 196.029099 56.894897 L 194.324493 54.053902 L 193.188095 49.792397 L 193.472198 43.826302 L 194.8927 40.417099 L 197.165497 37.860199 L 198.870102 36.723801 L 202.5634 35.587402 L 207.6772 35.871498 L 209.665894 36.723801 L 211.654602 38.712502 L 212.506897 40.985298 L 213.643295 41.269402 L 212.791 35.303299 L 207.6772 34.451004 L 203.131607 34.451004 L 198.017807 35.587402 Z M 172.448807 35.871498 L 171.8806 38.712502 L 164.2099 58.599503 L 162.789398 60.3041 L 160.232498 60.872299 L 160.232498 61.724602 L 168.471405 60.872299 L 166.482697 60.588203 L 165.914505 59.451797 L 168.187302 52.349297 L 169.039597 51.212898 L 176.710297 51.212898 L 177.562607 52.065201 L 179.835403 60.019997 L 179.267197 60.588203 L 177.846695 60.588203 L 176.9944 61.156403 L 177.278503 61.724602 L 186.937897 61.724602 L 186.937897 60.872299 L 184.380997 60.3041 L 182.960495 58.315399 L 175.005707 34.735107 Z M 173.016998 39.564796 L 174.153397 41.553497 L 176.426193 49.224197 L 175.858002 49.792397 L 169.891907 49.792397 L 169.3237 49.224197 Z M 138.072693 36.723801 L 133.811203 40.701202 L 131.822495 45.530899 L 131.538406 50.360603 L 132.674805 54.337997 L 133.811203 56.326698 L 137.788605 60.019997 L 143.186493 62.008698 L 149.152603 62.292801 L 155.118698 60.872299 L 156.823303 56.894897 L 156.823303 55.1903 L 155.970993 55.1903 L 155.118698 57.179001 L 152.561798 59.735901 L 150.004898 60.872299 L 144.606995 60.872299 L 140.345505 58.883598 L 138.072693 56.610802 L 136.368103 53.485703 L 135.515793 49.508301 L 135.515793 46.383202 L 136.084 43.258102 L 137.220398 40.701202 L 140.629593 37.292 L 145.743393 35.587402 L 150.004898 35.871498 L 152.845901 37.292 L 154.550507 39.280701 L 155.402802 41.553497 L 156.255096 41.553497 L 155.686905 35.587402 L 149.720795 34.451004 L 145.175201 34.451004 L 141.1978 35.303299 Z M 54.547298 38.144302 L 51.706299 41.553497 L 50.001701 46.667297 L 50.569901 52.917503 L 53.126801 57.463097 L 56.2519 60.019997 L 61.649799 62.008698 L 67.615898 62.292801 L 73.582001 60.872299 L 75.002502 57.7472 L 75.286598 55.1903 L 74.434303 55.1903 L 73.297897 57.463097 L 71.025101 59.735901 L 68.468201 60.872299 L 63.070301 60.872299 L 58.8088 58.883598 L 56.535999 56.610802 L 54.831402 53.485703 L 53.979099 50.0765 L 53.979099 45.815002 L 54.831402 42.4058 L 56.2519 39.8489 L 59.092899 37.292 L 62.502102 35.871498 L 66.763603 35.587402 L 69.320503 36.155602 L 72.161499 38.144302 L 73.582001 41.553497 L 74.718399 41.553497 L 74.1502 35.587402 L 68.184097 34.451004 L 63.6385 34.451004 L 58.8088 35.587402 Z M 19.0348 30.757706 L 19.603001 31.041794 L 19.318899 31.325897 L 20.455299 31.610001 L 21.3076 31.041794 L 20.455299 30.473602 Z M 29.546499 24.223404 L 28.9783 24.507507 L 29.830601 26.496201 L 30.1147 25.075699 L 30.966999 24.791595 Z M 26.7055 23.939301 L 26.4214 24.507507 L 26.989599 26.212097 L 28.410101 26.212097 L 28.410101 24.507507 L 27.8419 23.939301 L 27.8419 24.791595 L 26.989599 25.359802 Z M 9.3754 24.223404 L 9.6595 25.927994 L 10.2277 26.212097 L 10.5118 25.359802 L 9.9436 25.075699 L 11.3641 24.507507 L 11.6482 25.927994 L 11.9323 24.223404 L 12.5005 24.791595 L 12.2164 25.643906 L 13.0687 25.643906 L 12.5005 23.655197 L 10.7959 24.223404 L 9.9436 23.655197 Z M 9.9436 23.939301 L 10.2277 24.507507 L 9.6595 25.075699 L 9.3754 24.507507 Z M 25.569099 23.371094 L 25.0009 23.655197 L 25.569099 25.075699 Z M 14.2051 23.371094 L 13.6369 23.939301 L 14.2051 24.791595 Z M 17.6143 21.382401 L 18.7507 22.518799 L 18.182501 21.098297 Z M 26.7055 21.666504 L 27.273701 23.087006 L 28.410101 22.518799 L 28.9783 23.371094 L 29.830601 23.371094 L 30.3988 22.802902 L 30.1147 21.098297 L 27.5578 22.518799 L 27.273701 21.382401 L 28.125999 21.382401 L 27.8419 20.814194 Z M 29.546499 21.382401 L 30.1147 21.950607 L 29.2624 22.802902 L 28.9783 21.950607 Z M 8.8072 21.098297 L 8.8072 22.234695 L 9.3754 22.802902 L 12.2164 22.518799 L 11.6482 20.530106 L 9.9436 22.518799 L 9.0913 21.666504 L 10.2277 21.098297 L 10.2277 20.530106 Z M 26.4214 20.814194 L 24.432699 20.530106 L 23.8645 21.098297 L 23.5804 20.246002 L 21.3076 20.814194 L 21.0235 22.234695 L 21.5917 22.802902 L 21.5917 26.212097 L 22.444 25.643906 L 22.7281 26.212097 L 24.1486 25.927994 L 24.432699 25.359802 L 24.1486 24.223404 L 23.296301 23.655197 L 22.159901 25.643906 L 21.5917 25.075699 L 21.875799 22.802902 L 23.5804 22.802902 L 23.8645 21.098297 L 24.432699 20.814194 L 25.0009 21.950607 L 24.432699 22.802902 L 26.1373 21.950607 L 25.285 21.382401 Z M 21.875799 22.234695 L 22.159901 21.666504 L 23.296301 22.234695 L 22.444 22.802902 Z M 21.5917 21.098297 L 22.159901 20.530106 L 23.5804 21.098297 L 22.7281 21.666504 Z M 14.2051 20.246002 L 14.7733 22.234695 L 13.921 21.666504 L 14.2051 22.518799 L 14.7733 22.234695 L 15.3415 22.802902 L 15.0574 23.939301 L 15.6256 25.643906 L 18.4666 25.359802 L 17.6143 23.655197 L 16.761999 23.939301 L 16.1938 25.359802 L 15.0574 22.518799 L 15.9097 21.950607 L 16.761999 22.802902 L 17.3302 22.234695 L 16.761999 21.098297 L 17.046101 20.530106 L 15.9097 21.382401 L 15.3415 20.814194 L 15.9097 20.246002 Z M 13.3528 19.961899 L 12.5005 20.814194 L 12.7846 22.518799 L 13.3528 22.518799 Z M 28.9783 17.973206 L 28.410101 19.109604 L 29.830601 20.246002 L 30.1147 19.677795 L 29.546499 17.973206 Z M 10.2277 17.404999 L 9.0913 18.257294 L 9.3754 19.677795 L 11.08 19.961899 L 11.08 17.404999 Z M 10.5118 17.689102 L 11.08 18.257294 L 10.5118 19.677795 L 9.6595 19.393707 L 9.3754 18.541397 Z M 27.273701 17.120895 L 26.4214 17.973206 L 27.273701 19.961899 L 27.5578 19.393707 L 26.989599 18.257294 L 28.125999 17.689102 Z M 11.6482 17.689102 L 12.5005 19.393707 L 12.7846 17.973206 L 14.4892 19.393707 L 17.6143 19.109604 L 17.6143 17.404999 L 17.046101 17.120895 L 15.9097 17.689102 L 16.1938 18.541397 L 15.6256 19.109604 L 14.4892 18.257294 L 15.0574 17.120895 L 14.2051 17.120895 L 13.6369 17.973206 L 13.0687 17.404999 Z M 24.1486 16.836807 L 23.5804 16.836807 L 23.8645 17.404999 L 23.296301 18.257294 L 23.012199 17.120895 L 21.5917 17.120895 L 23.012199 19.677795 Z M 25.0009 16.552704 L 25.285 17.120895 L 24.432699 17.973206 L 25.853201 19.109604 L 25.285 18.8255 L 25.0009 17.404999 L 25.569099 16.552704 Z M 240.632797 14.279907 L 242.053299 15.132202 L 242.053299 23.939301 L 240.632797 24.791595 L 240.632797 25.359802 L 245.178406 24.791595 L 243.473801 23.655197 L 243.757904 19.961899 L 246.314804 19.961899 L 247.735306 21.098297 L 247.167099 17.689102 L 246.598907 19.109604 L 243.473801 18.8255 L 243.473801 15.132202 L 244.042007 14.563995 L 246.882996 14.848099 L 247.735306 16.2686 L 248.303497 16.2686 L 248.303497 13.995804 Z M 205.972595 14.279907 L 207.961304 15.700394 L 210.518204 20.814194 L 210.518204 23.939301 L 208.813599 24.791595 L 209.097702 25.359802 L 213.643295 25.359802 L 213.643295 24.791595 L 211.938705 23.655197 L 211.938705 20.814194 L 214.495605 15.984497 L 216.484299 14.563995 L 216.484299 13.995804 L 213.075104 13.995804 L 213.927399 15.416306 L 211.654602 19.393707 L 209.381805 15.416306 L 210.2341 13.995804 Z M 185.517395 13.995804 L 185.517395 14.563995 L 186.937897 15.132202 L 186.937897 23.939301 L 185.517395 24.791595 L 185.517395 25.359802 L 190.063004 24.791595 L 188.642502 24.223404 L 188.358398 23.371094 L 188.358398 15.984497 L 188.926605 14.563995 L 190.063004 14.279907 Z M 162.221207 13.995804 L 162.505295 14.848099 L 163.357605 15.132202 L 163.073502 24.507507 L 161.937103 24.791595 L 162.221207 25.359802 L 166.482697 24.791595 L 165.062195 24.223404 L 165.346298 20.246002 L 166.198593 20.246002 L 169.607803 24.791595 L 170.744202 25.359802 L 172.732895 25.359802 L 172.732895 24.791595 L 171.596497 24.507507 L 168.187302 19.961899 L 170.175995 17.973206 L 169.891907 15.132202 L 167.903198 13.995804 Z M 165.346298 14.563995 L 167.335007 14.848099 L 168.471405 16.2686 L 168.471405 18.257294 L 167.335007 19.393707 L 165.062195 19.109604 Z M 150.004898 13.995804 L 151.4254 15.132202 L 151.4254 23.655197 L 149.720795 24.791595 L 150.004898 25.359802 L 158.243805 25.359802 L 158.811996 24.223404 L 158.243805 22.802902 L 156.823303 24.507507 L 153.698196 24.507507 L 152.845901 23.371094 L 152.845901 20.246002 L 153.414093 19.677795 L 155.402802 19.677795 L 156.255096 21.098297 L 156.823303 21.098297 L 156.823303 17.689102 L 156.255096 17.689102 L 155.402802 19.109604 L 153.414093 19.109604 L 152.845901 18.541397 L 152.845901 15.132202 L 153.414093 14.563995 L 156.5392 14.848099 L 157.675598 16.552704 L 157.675598 13.995804 Z M 135.515793 14.279907 L 137.220398 15.416306 L 140.913696 25.359802 L 141.766006 25.359802 L 145.743393 15.700394 L 147.732101 14.279907 L 144.038803 13.995804 L 144.891098 15.416306 L 141.766006 22.234695 L 139.493195 17.404999 L 138.925003 14.563995 L 139.777298 13.995804 Z M 128.4133 13.995804 L 128.4133 14.563995 L 129.833801 15.132202 L 129.549698 24.507507 L 128.4133 24.791595 L 128.697403 25.359802 L 132.958893 24.791595 L 131.538406 24.223404 L 131.538406 15.132202 L 132.958893 13.995804 Z M 112.787804 13.995804 L 112.787804 14.563995 L 113.640099 14.563995 L 114.492401 15.416306 L 114.492401 23.655197 L 113.356003 25.359802 L 116.765198 24.507507 L 115.628799 24.223404 L 115.344704 23.655197 L 115.628799 16.836807 L 121.878998 23.939301 L 123.867699 25.075699 L 123.583603 16.836807 L 123.867699 15.132202 L 125.2882 14.279907 L 121.026703 14.279907 L 122.7313 15.132202 L 122.7313 22.234695 L 115.912903 14.279907 Z M 98.014603 14.279907 L 99.7192 15.416306 L 99.7192 22.802902 L 100.287399 23.939301 L 102.2761 25.359802 L 106.537598 25.075699 L 108.242203 23.087006 L 108.810402 15.132202 L 110.230904 13.995804 L 106.253502 13.995804 L 106.253502 14.563995 L 107.674004 15.132202 L 107.674004 21.950607 L 106.821701 23.655197 L 105.401199 24.507507 L 103.412498 24.507507 L 101.423798 22.518799 L 101.139702 15.132202 L 102.560204 14.563995 L 102.560204 13.995804 Z M 80.116302 13.995804 L 81.536797 15.132202 L 81.536797 23.939301 L 79.832199 24.791595 L 80.116302 25.359802 L 88.355202 25.359802 L 89.207497 23.371094 L 88.639297 22.518799 L 86.9347 24.507507 L 83.809601 24.507507 L 82.957298 22.802902 L 82.957298 20.246002 L 83.525497 19.677795 L 85.514198 19.677795 L 86.366501 21.098297 L 86.9347 21.098297 L 86.9347 17.689102 L 86.366501 17.689102 L 85.514198 19.109604 L 83.525497 19.109604 L 82.957298 18.541397 L 82.957298 15.132202 L 83.525497 14.563995 L 86.650597 14.848099 L 87.787003 16.552704 L 87.787003 13.995804 Z M 64.206703 14.279907 L 65.627197 15.132202 L 65.343102 24.507507 L 64.774902 25.359802 L 68.752296 25.359802 L 68.468201 24.507507 L 67.331802 24.223404 L 67.331802 20.246002 L 67.900002 19.677795 L 73.013802 19.677795 L 73.582001 20.246002 L 73.297897 24.507507 L 72.161499 24.791595 L 72.445602 25.359802 L 76.7071 24.791595 L 75.286598 24.223404 L 75.286598 15.132202 L 76.422997 14.563995 L 76.422997 13.995804 L 72.161499 13.995804 L 73.582001 15.132202 L 73.582001 18.541397 L 73.013802 19.109604 L 67.900002 19.109604 L 67.331802 18.541397 L 67.331802 15.132202 L 68.752296 14.279907 Z M 229.837006 13.7117 L 227.280106 14.848099 L 226.143707 15.984497 L 225.007294 18.8255 L 225.291397 21.666504 L 226.427795 23.655197 L 228.416504 25.075699 L 232.962097 25.359802 L 236.087204 23.087006 L 236.939499 21.098297 L 236.939499 17.973206 L 236.087204 15.984497 L 234.666702 14.563995 L 232.677994 13.7117 Z M 229.552902 14.563995 L 232.109802 14.563995 L 233.246201 15.132202 L 234.950806 17.689102 L 234.950806 22.234695 L 232.962097 24.507507 L 232.109802 24.791595 L 229.552902 24.507507 L 227.848297 22.802902 L 226.996002 20.814194 L 227.280106 16.836807 Z M 181.255905 13.995804 L 177.278503 13.995804 L 175.573898 15.984497 L 176.142105 18.541397 L 178.983093 20.530106 L 180.403595 22.234695 L 180.403595 23.655197 L 178.983093 24.791595 L 177.562607 24.791595 L 176.142105 23.655197 L 175.573898 22.234695 L 175.005707 22.518799 L 175.289795 24.507507 L 176.426193 25.359802 L 179.835403 25.359802 L 181.824097 23.371094 L 181.824097 21.382401 L 181.255905 20.246002 L 176.9944 16.836807 L 176.9944 15.700394 L 177.846695 14.563995 L 179.835403 14.563995 L 181.539993 16.2686 Z M 193.472198 13.427597 L 192.904007 15.416306 L 193.472198 16.2686 L 194.608597 14.848099 L 197.4496 14.848099 L 197.165497 24.507507 L 195.744995 24.791595 L 196.029099 25.359802 L 200.574707 24.791595 L 199.154205 24.223404 L 199.438293 14.563995 L 202.5634 15.132202 L 202.847504 16.2686 L 203.415695 16.2686 L 203.699799 13.427597 L 202.847504 13.995804 L 194.324493 13.995804 Z M 50.854 13.7117 L 50.285801 15.984497 L 50.854 16.2686 L 51.990398 14.848099 L 54.547298 14.563995 L 55.115501 15.132202 L 55.115501 23.939301 L 53.4109 24.791595 L 53.695 25.359802 L 58.240601 24.791595 L 56.535999 23.655197 L 56.535999 15.132202 L 57.104198 14.563995 L 59.661098 14.848099 L 60.513401 16.2686 L 61.0816 16.2686 L 61.0816 13.427597 L 60.513401 13.995804 Z M 0.0001 13.7117 L 0.0001 42.689903 L 1.7047 49.224197 L 3.9775 53.485703 L 7.9549 57.7472 L 10.7959 59.735901 L 15.6256 62.008698 L 18.7507 62.861 L 23.8645 62.008698 L 29.2624 59.451797 L 34.944401 54.337997 L 37.501301 50.0765 L 39.205898 44.678596 L 39.490002 13.7117 L 28.694201 12.859406 L 9.9436 12.859406 Z M 7.1026 48.940102 L 7.9549 50.360603 L 7.3867 51.497002 L 6.5344 50.0765 Z M 33.807999 48.655998 L 33.807999 50.0765 L 32.6716 51.781097 L 32.6716 49.508301 Z M 30.3988 46.383202 L 31.251101 47.5196 L 30.1147 47.803703 Z M 9.9436 45.815002 L 10.5118 46.667297 L 10.2277 47.5196 L 9.3754 46.383202 Z M 34.660301 45.246803 L 33.807999 47.5196 L 34.376202 47.803703 L 32.6716 49.508301 L 28.410101 50.360603 L 23.8645 53.201599 L 26.1373 53.485703 L 28.125999 52.917503 L 26.7055 54.337997 L 21.3076 55.1903 L 23.5804 56.326698 L 24.716801 55.474403 L 26.7055 56.042603 L 25.0009 57.7472 L 23.296301 57.7472 L 21.5917 56.610802 L 20.739401 56.610802 L 21.875799 59.167702 L 21.5917 59.735901 L 20.1712 60.019997 L 19.318899 59.167702 L 20.455299 58.883598 L 19.603001 56.610802 L 17.898399 58.315399 L 16.1938 58.599503 L 13.0687 55.758499 L 14.7733 55.474403 L 16.4779 56.894897 L 17.6143 57.179001 L 19.0348 55.758499 L 18.182501 55.1903 L 15.6256 54.906197 L 17.046101 53.769798 L 17.898399 53.769798 L 19.318899 54.906197 L 18.182501 53.485703 L 16.761999 53.201599 L 14.4892 54.337997 L 13.0687 54.337997 L 11.9323 53.769798 L 10.5118 51.497002 L 12.5005 52.6334 L 15.3415 51.781097 L 18.4666 52.6334 L 16.761999 51.497002 L 11.9323 51.781097 L 10.7959 50.928802 L 12.2164 50.0765 L 13.3528 50.360603 L 6.5344 48.371902 L 7.6708 47.803703 L 6.8185 46.667297 L 7.3867 44.110397 L 8.239 45.246803 L 8.239 46.667297 L 8.8072 47.5196 L 9.0913 46.667297 L 10.2277 47.803703 L 11.08 47.803703 L 10.5118 46.667297 L 10.7959 44.394501 L 12.2164 47.803703 L 13.0687 48.371902 L 12.7846 46.099098 L 13.3528 45.530899 L 14.7733 46.951401 L 14.4892 48.371902 L 19.318899 51.781097 L 15.3415 48.371902 L 15.3415 45.530899 L 14.7733 44.394501 L 15.3415 44.110397 L 16.761999 45.530899 L 17.898399 48.655998 L 19.318899 50.0765 L 18.7507 46.099098 L 19.8871 43.542198 L 20.455299 44.9627 L 20.455299 47.5196 L 21.5917 45.530899 L 22.159901 46.667297 L 22.159901 48.371902 L 21.0235 50.0765 L 21.0235 50.928802 L 23.296301 46.099098 L 23.8645 47.235497 L 23.012199 49.508301 L 23.8645 48.371902 L 24.1486 49.224197 L 23.296301 50.0765 L 23.296301 50.928802 L 25.853201 45.246803 L 26.4214 47.5196 L 26.989599 47.803703 L 24.432699 51.497002 L 25.0009 51.497002 L 28.410101 48.371902 L 29.546499 45.815002 L 29.830601 47.803703 L 28.694201 49.508301 L 30.682899 48.655998 L 33.523899 45.246803 Z M 15.3415 33.030502 L 15.6256 31.894104 L 16.1938 32.462296 L 18.4666 32.462296 L 19.0348 33.030502 Z M 29.546499 30.189499 L 32.387501 31.325897 L 32.387501 31.894104 L 33.807999 32.462296 L 36.648998 35.871498 L 36.080799 36.155602 L 34.092098 34.451004 L 37.7854 38.428398 L 37.7854 39.564796 L 36.080799 38.712502 L 33.523899 35.303299 L 36.648998 40.701202 L 36.933102 46.099098 L 36.364899 46.667297 L 35.7967 45.530899 L 34.660301 40.133003 L 33.523899 37.860199 L 35.2285 44.110397 L 33.239799 44.678596 L 32.9557 42.121696 L 32.103401 40.133003 L 32.387501 43.258102 L 30.3988 40.985298 L 32.387501 43.542198 L 32.103401 45.530899 L 28.9783 42.121696 L 32.387501 46.099098 L 31.5352 47.235497 L 28.125999 44.110397 L 29.2624 45.815002 L 28.410101 46.951401 L 27.273701 45.815002 L 28.410101 47.235497 L 28.410101 48.087799 L 26.7055 49.508301 L 26.4214 48.940102 L 27.8419 47.803703 L 27.5578 47.235497 L 26.4214 46.951401 L 26.1373 44.9627 L 25.285 45.246803 L 25.0009 46.951401 L 24.1486 48.087799 L 23.012199 44.9627 L 23.5804 43.258102 L 23.296301 38.996597 L 22.7281 37.576103 L 24.716801 35.587402 L 24.432699 35.019203 L 25.285 35.019203 L 25.285 36.723801 L 26.4214 36.439697 L 27.5578 34.166901 L 26.989599 33.598694 L 26.4214 34.166901 L 24.716801 33.598694 L 25.853201 33.030502 L 25.853201 31.894104 L 26.7055 30.757706 Z M 12.5005 30.189499 L 13.3528 31.041794 L 13.3528 33.030502 L 13.921 33.314606 L 13.921 34.166901 L 12.5005 34.166901 L 11.9323 34.735107 L 12.2164 37.007896 L 15.0574 37.007896 L 14.2051 35.871498 L 14.7733 34.166901 L 17.3302 36.723801 L 17.3302 39.280701 L 16.761999 40.417099 L 17.6143 44.678596 L 17.3302 46.099098 L 16.4779 44.678596 L 14.2051 43.826302 L 15.0574 45.246803 L 14.7733 46.667297 L 13.6369 44.9627 L 11.9323 46.383202 L 14.2051 42.689903 L 12.7846 44.394501 L 11.3641 44.9627 L 11.08 44.394501 L 12.7846 41.553497 L 11.3641 43.826302 L 10.5118 43.826302 L 10.2277 44.9627 L 8.8072 46.383202 L 8.5231 45.246803 L 10.7959 41.837601 L 8.5231 44.678596 L 7.6708 43.826302 L 9.6595 40.701202 L 7.3867 43.826302 L 7.1026 43.258102 L 7.6708 41.553497 L 6.8185 43.826302 L 6.2503 43.826302 L 6.8185 44.678596 L 6.5344 46.667297 L 7.1026 47.5196 L 5.9662 47.5196 L 5.9662 40.417099 L 3.1252 46.951401 L 3.1252 44.110397 L 5.398 39.280701 L 3.1252 41.553497 L 1.7047 41.553497 L 5.398 37.860199 L 3.9775 38.712502 L 1.7047 38.428398 L 4.8298 36.723801 L 6.2503 35.019203 L 4.5457 35.871498 L 2.2729 35.587402 L 9.0913 31.610001 L 8.239 31.325897 L 8.5231 30.473602 L 9.3754 31.041794 Z M 20.739401 29.621307 L 23.296301 30.757706 L 22.444 31.325897 L 23.5804 32.746399 L 23.012199 33.314606 L 23.5804 34.735107 L 22.7281 36.155602 L 22.159901 36.155602 L 22.444 37.576103 L 21.875799 37.576103 L 23.296301 40.133003 L 22.7281 41.837601 L 22.444 41.269402 L 23.012199 42.4058 L 23.012199 45.246803 L 22.444 46.383202 L 21.5917 44.9627 L 21.0235 45.815002 L 19.8871 42.689903 L 18.182501 47.803703 L 17.898399 44.678596 L 18.4666 44.110397 L 17.898399 44.394501 L 17.3302 43.826302 L 17.898399 41.837601 L 17.6143 42.4058 L 17.046101 41.837601 L 17.046101 40.417099 L 18.182501 38.712502 L 17.6143 38.996597 L 17.3302 37.860199 L 20.455299 35.019203 L 19.603001 35.587402 L 19.603001 34.735107 L 18.182501 34.166901 L 19.603001 33.314606 L 20.739401 33.882797 L 17.3302 31.610001 L 16.4779 31.894104 L 16.4779 31.041794 L 17.3302 30.189499 L 17.898399 30.757706 L 18.182501 29.905396 Z M 6.2503 23.939301 L 7.3867 24.223404 L 7.1026 25.643906 L 5.6821 25.359802 Z M 32.387501 25.643906 L 32.6716 23.371094 L 36.080799 23.655197 L 36.648998 24.507507 L 34.092098 25.643906 Z M 3.4093 23.371094 L 4.8298 23.371094 L 5.398 23.939301 L 5.398 25.359802 L 4.8298 25.927994 L 3.4093 25.927994 L 2.8411 25.359802 L 2.8411 23.939301 Z M 32.387501 20.814194 L 32.6716 18.8255 L 35.7967 18.8255 L 36.648998 19.677795 L 33.523899 21.098297 Z M 5.9662 18.8255 L 7.3867 19.109604 L 7.1026 20.530106 L 5.6821 20.246002 Z M 3.4093 18.257294 L 4.8298 18.257294 L 5.398 18.8255 L 5.398 20.246002 L 4.8298 20.814194 L 3.4093 20.814194 L 2.8411 20.246002 L 2.8411 18.8255 Z M 20.1712 15.984497 L 23.296301 15.132202 L 28.694201 16.2686 L 31.8193 15.984497 L 31.8193 28.484894 L 23.5804 27.064407 L 21.5917 27.348495 L 20.1712 28.200806 Z M 19.318899 15.984497 L 19.318899 28.200806 L 15.6256 27.064407 L 11.08 28.200806 L 7.9549 28.200806 L 8.239 15.984497 L 11.08 16.2686 L 15.0574 15.132202 Z"/>
    </g>
</svg>
