<?xml version="1.0" encoding="UTF-8"?>
<!-- Generated by Pixelmator Pro 3.8 -->
<svg width="250" height="51" viewBox="0 0 250 51" xmlns="http://www.w3.org/2000/svg">
    <g id="Group">
        <path id="Path" fill="#800000" fill-rule="evenodd" stroke="none" d="M 116.196999 23.019203 L 116.196999 23.871498 L 118.469803 24.155602 L 119.606201 25.292 L 119.890297 26.996597 L 119.890297 45.7472 L 119.606201 47.451797 L 118.185699 48.588203 L 116.196999 48.872299 L 116.196999 49.724602 L 126.708702 49.440498 L 126.708702 48.872299 L 124.151802 48.3041 L 123.015404 46.315399 L 123.015404 26.144302 L 123.867699 24.439697 L 126.708702 23.871498 L 126.424599 23.019203 Z M 80.968597 23.019203 L 80.968597 23.871498 L 83.525497 24.439697 L 84.3778 26.144302 L 84.3778 46.883598 L 83.241402 48.3041 L 81.252701 48.872299 L 81.252701 49.724602 L 91.480301 49.440498 L 91.480301 48.872299 L 88.639297 48.3041 L 87.787003 47.167702 L 87.787003 36.940102 L 103.128403 36.940102 L 103.128403 47.167702 L 102.2761 48.3041 L 99.7192 49.156403 L 100.003304 49.724602 L 109.9468 49.724602 L 109.9468 48.872299 L 107.958099 48.588203 L 106.537598 47.167702 L 106.537598 25.576103 L 107.674004 24.155602 L 108.810402 24.155602 L 109.662697 23.019203 L 100.003304 23.871498 L 101.991997 24.155602 L 103.128403 25.576103 L 102.844299 34.951401 L 87.787003 34.667297 L 87.787003 25.292 L 88.923401 24.155602 L 90.912102 23.871498 L 90.912102 23.019203 Z M 233.814407 22.451004 L 228.984695 23.871498 L 224.439102 27.564796 L 222.166306 31.542198 L 221.313995 37.508301 L 222.166306 41.485703 L 223.870895 44.610802 L 225.859604 46.883598 L 227.848297 48.3041 L 232.109802 50.008698 L 237.507706 50.292801 L 243.189697 48.3041 L 246.314804 45.7472 L 249.155807 40.6334 L 249.723999 34.383202 L 248.303497 29.553497 L 244.894302 25.292 L 239.496399 22.735107 Z M 234.098495 23.587402 L 238.644104 24.155602 L 240.348694 25.007896 L 243.189697 27.8489 L 244.326096 29.837601 L 245.746597 35.5196 L 245.462494 41.201599 L 243.757904 45.179001 L 241.201004 47.735901 L 236.939499 49.156403 L 233.814407 48.872299 L 230.689301 47.451797 L 227.564194 44.042603 L 225.5755 38.360603 L 225.5755 32.394501 L 226.427795 29.269402 L 229.268799 25.576103 Z M 194.040405 25.860199 L 190.915298 29.553497 L 189.210693 34.951401 L 189.494797 40.065201 L 191.767593 44.610802 L 194.324493 47.167702 L 196.597305 48.588203 L 201.142899 50.008698 L 207.108994 50.292801 L 214.211502 48.872299 L 213.359207 46.883598 L 213.359207 41.485703 L 214.211502 40.065201 L 215.916107 39.781097 L 215.916107 38.928802 L 205.404404 39.212898 L 205.688507 39.781097 L 208.813599 40.065201 L 209.949997 40.917503 L 210.2341 46.315399 L 209.949997 47.451797 L 208.813599 48.588203 L 204.268005 49.156403 L 198.870102 47.451797 L 196.029099 44.894897 L 194.324493 42.053902 L 193.188095 37.792397 L 193.472198 31.826302 L 194.8927 28.417099 L 197.165497 25.860199 L 198.870102 24.723801 L 202.5634 23.587402 L 207.6772 23.871498 L 209.665894 24.723801 L 211.654602 26.712502 L 212.506897 28.985298 L 213.643295 29.269402 L 212.791 23.303299 L 207.6772 22.451004 L 203.131607 22.451004 L 198.017807 23.587402 Z M 172.448807 23.871498 L 171.8806 26.712502 L 164.2099 46.599503 L 162.789398 48.3041 L 160.232498 48.872299 L 160.232498 49.724602 L 168.471405 48.872299 L 166.482697 48.588203 L 165.914505 47.451797 L 168.187302 40.349297 L 169.039597 39.212898 L 176.710297 39.212898 L 177.562607 40.065201 L 179.835403 48.019997 L 179.267197 48.588203 L 177.846695 48.588203 L 176.9944 49.156403 L 177.278503 49.724602 L 186.937897 49.724602 L 186.937897 48.872299 L 184.380997 48.3041 L 182.960495 46.315399 L 175.005707 22.735107 Z M 173.016998 27.564796 L 174.153397 29.553497 L 176.426193 37.224197 L 175.858002 37.792397 L 169.891907 37.792397 L 169.3237 37.224197 Z M 138.072693 24.723801 L 133.811203 28.701202 L 131.822495 33.530899 L 131.538406 38.360603 L 132.674805 42.337997 L 133.811203 44.326698 L 137.788605 48.019997 L 143.186493 50.008698 L 149.152603 50.292801 L 155.118698 48.872299 L 156.823303 44.894897 L 156.823303 43.1903 L 155.970993 43.1903 L 155.118698 45.179001 L 152.561798 47.735901 L 150.004898 48.872299 L 144.606995 48.872299 L 140.345505 46.883598 L 138.072693 44.610802 L 136.368103 41.485703 L 135.515793 37.508301 L 135.515793 34.383202 L 136.084 31.258102 L 137.220398 28.701202 L 140.629593 25.292 L 145.743393 23.587402 L 150.004898 23.871498 L 152.845901 25.292 L 154.550507 27.280701 L 155.402802 29.553497 L 156.255096 29.553497 L 155.686905 23.587402 L 149.720795 22.451004 L 145.175201 22.451004 L 141.1978 23.303299 Z M 54.547298 26.144302 L 51.706299 29.553497 L 50.001701 34.667297 L 50.569901 40.917503 L 53.126801 45.463097 L 56.2519 48.019997 L 61.649799 50.008698 L 67.615898 50.292801 L 73.582001 48.872299 L 75.002502 45.7472 L 75.286598 43.1903 L 74.434303 43.1903 L 73.297897 45.463097 L 71.025101 47.735901 L 68.468201 48.872299 L 63.070301 48.872299 L 58.8088 46.883598 L 56.535999 44.610802 L 54.831402 41.485703 L 53.979099 38.0765 L 53.979099 33.815002 L 54.831402 30.4058 L 56.2519 27.8489 L 59.092899 25.292 L 62.502102 23.871498 L 66.763603 23.587402 L 69.320503 24.155602 L 72.161499 26.144302 L 73.582001 29.553497 L 74.718399 29.553497 L 74.1502 23.587402 L 68.184097 22.451004 L 63.6385 22.451004 L 58.8088 23.587402 Z M 19.0348 18.757706 L 19.603001 19.041794 L 19.318899 19.325897 L 20.455299 19.610001 L 21.3076 19.041794 L 20.455299 18.473602 Z M 29.546499 12.223404 L 28.9783 12.507507 L 29.830601 14.496201 L 30.1147 13.075699 L 30.966999 12.791595 Z M 26.7055 11.939301 L 26.4214 12.507507 L 26.989599 14.212097 L 28.410101 14.212097 L 28.410101 12.507507 L 27.8419 11.939301 L 27.8419 12.791595 L 26.989599 13.359802 Z M 9.3754 12.223404 L 9.6595 13.927994 L 10.2277 14.212097 L 10.5118 13.359802 L 9.9436 13.075699 L 11.3641 12.507507 L 11.6482 13.927994 L 11.9323 12.223404 L 12.5005 12.791595 L 12.2164 13.643906 L 13.0687 13.643906 L 12.5005 11.655197 L 10.7959 12.223404 L 9.9436 11.655197 Z M 9.9436 11.939301 L 10.2277 12.507507 L 9.6595 13.075699 L 9.3754 12.507507 Z M 25.569099 11.371094 L 25.0009 11.655197 L 25.569099 13.075699 Z M 14.2051 11.371094 L 13.6369 11.939301 L 14.2051 12.791595 Z M 17.6143 9.382401 L 18.7507 10.518799 L 18.182501 9.098297 Z M 26.7055 9.666504 L 27.273701 11.087006 L 28.410101 10.518799 L 28.9783 11.371094 L 29.830601 11.371094 L 30.3988 10.802902 L 30.1147 9.098297 L 27.5578 10.518799 L 27.273701 9.382401 L 28.125999 9.382401 L 27.8419 8.814194 Z M 29.546499 9.382401 L 30.1147 9.950607 L 29.2624 10.802902 L 28.9783 9.950607 Z M 8.8072 9.098297 L 8.8072 10.234695 L 9.3754 10.802902 L 12.2164 10.518799 L 11.6482 8.530106 L 9.9436 10.518799 L 9.0913 9.666504 L 10.2277 9.098297 L 10.2277 8.530106 Z M 26.4214 8.814194 L 24.432699 8.530106 L 23.8645 9.098297 L 23.5804 8.246002 L 21.3076 8.814194 L 21.0235 10.234695 L 21.5917 10.802902 L 21.5917 14.212097 L 22.444 13.643906 L 22.7281 14.212097 L 24.1486 13.927994 L 24.432699 13.359802 L 24.1486 12.223404 L 23.296301 11.655197 L 22.159901 13.643906 L 21.5917 13.075699 L 21.875799 10.802902 L 23.5804 10.802902 L 23.8645 9.098297 L 24.432699 8.814194 L 25.0009 9.950607 L 24.432699 10.802902 L 26.1373 9.950607 L 25.285 9.382401 Z M 21.875799 10.234695 L 22.159901 9.666504 L 23.296301 10.234695 L 22.444 10.802902 Z M 21.5917 9.098297 L 22.159901 8.530106 L 23.5804 9.098297 L 22.7281 9.666504 Z M 14.2051 8.246002 L 14.7733 10.234695 L 13.921 9.666504 L 14.2051 10.518799 L 14.7733 10.234695 L 15.3415 10.802902 L 15.0574 11.939301 L 15.6256 13.643906 L 18.4666 13.359802 L 17.6143 11.655197 L 16.761999 11.939301 L 16.1938 13.359802 L 15.0574 10.518799 L 15.9097 9.950607 L 16.761999 10.802902 L 17.3302 10.234695 L 16.761999 9.098297 L 17.046101 8.530106 L 15.9097 9.382401 L 15.3415 8.814194 L 15.9097 8.246002 Z M 13.3528 7.961899 L 12.5005 8.814194 L 12.7846 10.518799 L 13.3528 10.518799 Z M 28.9783 5.973206 L 28.410101 7.109604 L 29.830601 8.246002 L 30.1147 7.677795 L 29.546499 5.973206 Z M 10.2277 5.404999 L 9.0913 6.257294 L 9.3754 7.677795 L 11.08 7.961899 L 11.08 5.404999 Z M 10.5118 5.689102 L 11.08 6.257294 L 10.5118 7.677795 L 9.6595 7.393707 L 9.3754 6.541397 Z M 27.273701 5.120895 L 26.4214 5.973206 L 27.273701 7.961899 L 27.5578 7.393707 L 26.989599 6.257294 L 28.125999 5.689102 Z M 11.6482 5.689102 L 12.5005 7.393707 L 12.7846 5.973206 L 14.4892 7.393707 L 17.6143 7.109604 L 17.6143 5.404999 L 17.046101 5.120895 L 15.9097 5.689102 L 16.1938 6.541397 L 15.6256 7.109604 L 14.4892 6.257294 L 15.0574 5.120895 L 14.2051 5.120895 L 13.6369 5.973206 L 13.0687 5.404999 Z M 24.1486 4.836807 L 23.5804 4.836807 L 23.8645 5.404999 L 23.296301 6.257294 L 23.012199 5.120895 L 21.5917 5.120895 L 23.012199 7.677795 Z M 25.0009 4.552704 L 25.285 5.120895 L 24.432699 5.973206 L 25.853201 7.109604 L 25.285 6.8255 L 25.0009 5.404999 L 25.569099 4.552704 Z M 240.632797 2.279907 L 242.053299 3.132202 L 242.053299 11.939301 L 240.632797 12.791595 L 240.632797 13.359802 L 245.178406 12.791595 L 243.473801 11.655197 L 243.757904 7.961899 L 246.314804 7.961899 L 247.735306 9.098297 L 247.167099 5.689102 L 246.598907 7.109604 L 243.473801 6.8255 L 243.473801 3.132202 L 244.042007 2.563995 L 246.882996 2.848099 L 247.735306 4.2686 L 248.303497 4.2686 L 248.303497 1.995804 Z M 205.972595 2.279907 L 207.961304 3.700394 L 210.518204 8.814194 L 210.518204 11.939301 L 208.813599 12.791595 L 209.097702 13.359802 L 213.643295 13.359802 L 213.643295 12.791595 L 211.938705 11.655197 L 211.938705 8.814194 L 214.495605 3.984497 L 216.484299 2.563995 L 216.484299 1.995804 L 213.075104 1.995804 L 213.927399 3.416306 L 211.654602 7.393707 L 209.381805 3.416306 L 210.2341 1.995804 Z M 185.517395 1.995804 L 185.517395 2.563995 L 186.937897 3.132202 L 186.937897 11.939301 L 185.517395 12.791595 L 185.517395 13.359802 L 190.063004 12.791595 L 188.642502 12.223404 L 188.358398 11.371094 L 188.358398 3.984497 L 188.926605 2.563995 L 190.063004 2.279907 Z M 162.221207 1.995804 L 162.505295 2.848099 L 163.357605 3.132202 L 163.073502 12.507507 L 161.937103 12.791595 L 162.221207 13.359802 L 166.482697 12.791595 L 165.062195 12.223404 L 165.346298 8.246002 L 166.198593 8.246002 L 169.607803 12.791595 L 170.744202 13.359802 L 172.732895 13.359802 L 172.732895 12.791595 L 171.596497 12.507507 L 168.187302 7.961899 L 170.175995 5.973206 L 169.891907 3.132202 L 167.903198 1.995804 Z M 165.346298 2.563995 L 167.335007 2.848099 L 168.471405 4.2686 L 168.471405 6.257294 L 167.335007 7.393707 L 165.062195 7.109604 Z M 150.004898 1.995804 L 151.4254 3.132202 L 151.4254 11.655197 L 149.720795 12.791595 L 150.004898 13.359802 L 158.243805 13.359802 L 158.811996 12.223404 L 158.243805 10.802902 L 156.823303 12.507507 L 153.698196 12.507507 L 152.845901 11.371094 L 152.845901 8.246002 L 153.414093 7.677795 L 155.402802 7.677795 L 156.255096 9.098297 L 156.823303 9.098297 L 156.823303 5.689102 L 156.255096 5.689102 L 155.402802 7.109604 L 153.414093 7.109604 L 152.845901 6.541397 L 152.845901 3.132202 L 153.414093 2.563995 L 156.5392 2.848099 L 157.675598 4.552704 L 157.675598 1.995804 Z M 135.515793 2.279907 L 137.220398 3.416306 L 140.913696 13.359802 L 141.766006 13.359802 L 145.743393 3.700394 L 147.732101 2.279907 L 144.038803 1.995804 L 144.891098 3.416306 L 141.766006 10.234695 L 139.493195 5.404999 L 138.925003 2.563995 L 139.777298 1.995804 Z M 128.4133 1.995804 L 128.4133 2.563995 L 129.833801 3.132202 L 129.549698 12.507507 L 128.4133 12.791595 L 128.697403 13.359802 L 132.958893 12.791595 L 131.538406 12.223404 L 131.538406 3.132202 L 132.958893 1.995804 Z M 112.787804 1.995804 L 112.787804 2.563995 L 113.640099 2.563995 L 114.492401 3.416306 L 114.492401 11.655197 L 113.356003 13.359802 L 116.765198 12.507507 L 115.628799 12.223404 L 115.344704 11.655197 L 115.628799 4.836807 L 121.878998 11.939301 L 123.867699 13.075699 L 123.583603 4.836807 L 123.867699 3.132202 L 125.2882 2.279907 L 121.026703 2.279907 L 122.7313 3.132202 L 122.7313 10.234695 L 115.912903 2.279907 Z M 98.014603 2.279907 L 99.7192 3.416306 L 99.7192 10.802902 L 100.287399 11.939301 L 102.2761 13.359802 L 106.537598 13.075699 L 108.242203 11.087006 L 108.810402 3.132202 L 110.230904 1.995804 L 106.253502 1.995804 L 106.253502 2.563995 L 107.674004 3.132202 L 107.674004 9.950607 L 106.821701 11.655197 L 105.401199 12.507507 L 103.412498 12.507507 L 101.423798 10.518799 L 101.139702 3.132202 L 102.560204 2.563995 L 102.560204 1.995804 Z M 80.116302 1.995804 L 81.536797 3.132202 L 81.536797 11.939301 L 79.832199 12.791595 L 80.116302 13.359802 L 88.355202 13.359802 L 89.207497 11.371094 L 88.639297 10.518799 L 86.9347 12.507507 L 83.809601 12.507507 L 82.957298 10.802902 L 82.957298 8.246002 L 83.525497 7.677795 L 85.514198 7.677795 L 86.366501 9.098297 L 86.9347 9.098297 L 86.9347 5.689102 L 86.366501 5.689102 L 85.514198 7.109604 L 83.525497 7.109604 L 82.957298 6.541397 L 82.957298 3.132202 L 83.525497 2.563995 L 86.650597 2.848099 L 87.787003 4.552704 L 87.787003 1.995804 Z M 64.206703 2.279907 L 65.627197 3.132202 L 65.343102 12.507507 L 64.774902 13.359802 L 68.752296 13.359802 L 68.468201 12.507507 L 67.331802 12.223404 L 67.331802 8.246002 L 67.900002 7.677795 L 73.013802 7.677795 L 73.582001 8.246002 L 73.297897 12.507507 L 72.161499 12.791595 L 72.445602 13.359802 L 76.7071 12.791595 L 75.286598 12.223404 L 75.286598 3.132202 L 76.422997 2.563995 L 76.422997 1.995804 L 72.161499 1.995804 L 73.582001 3.132202 L 73.582001 6.541397 L 73.013802 7.109604 L 67.900002 7.109604 L 67.331802 6.541397 L 67.331802 3.132202 L 68.752296 2.279907 Z M 229.837006 1.7117 L 227.280106 2.848099 L 226.143707 3.984497 L 225.007294 6.8255 L 225.291397 9.666504 L 226.427795 11.655197 L 228.416504 13.075699 L 232.962097 13.359802 L 236.087204 11.087006 L 236.939499 9.098297 L 236.939499 5.973206 L 236.087204 3.984497 L 234.666702 2.563995 L 232.677994 1.7117 Z M 229.552902 2.563995 L 232.109802 2.563995 L 233.246201 3.132202 L 234.950806 5.689102 L 234.950806 10.234695 L 232.962097 12.507507 L 232.109802 12.791595 L 229.552902 12.507507 L 227.848297 10.802902 L 226.996002 8.814194 L 227.280106 4.836807 Z M 181.255905 1.995804 L 177.278503 1.995804 L 175.573898 3.984497 L 176.142105 6.541397 L 178.983093 8.530106 L 180.403595 10.234695 L 180.403595 11.655197 L 178.983093 12.791595 L 177.562607 12.791595 L 176.142105 11.655197 L 175.573898 10.234695 L 175.005707 10.518799 L 175.289795 12.507507 L 176.426193 13.359802 L 179.835403 13.359802 L 181.824097 11.371094 L 181.824097 9.382401 L 181.255905 8.246002 L 176.9944 4.836807 L 176.9944 3.700394 L 177.846695 2.563995 L 179.835403 2.563995 L 181.539993 4.2686 Z M 193.472198 1.427597 L 192.904007 3.416306 L 193.472198 4.2686 L 194.608597 2.848099 L 197.4496 2.848099 L 197.165497 12.507507 L 195.744995 12.791595 L 196.029099 13.359802 L 200.574707 12.791595 L 199.154205 12.223404 L 199.438293 2.563995 L 202.5634 3.132202 L 202.847504 4.2686 L 203.415695 4.2686 L 203.699799 1.427597 L 202.847504 1.995804 L 194.324493 1.995804 Z M 50.854 1.7117 L 50.285801 3.984497 L 50.854 4.2686 L 51.990398 2.848099 L 54.547298 2.563995 L 55.115501 3.132202 L 55.115501 11.939301 L 53.4109 12.791595 L 53.695 13.359802 L 58.240601 12.791595 L 56.535999 11.655197 L 56.535999 3.132202 L 57.104198 2.563995 L 59.661098 2.848099 L 60.513401 4.2686 L 61.0816 4.2686 L 61.0816 1.427597 L 60.513401 1.995804 Z M 0.0001 1.7117 L 0.0001 30.689903 L 1.7047 37.224197 L 3.9775 41.485703 L 7.9549 45.7472 L 10.7959 47.735901 L 15.6256 50.008698 L 18.7507 50.861 L 23.8645 50.008698 L 29.2624 47.451797 L 34.944401 42.337997 L 37.501301 38.0765 L 39.205898 32.678596 L 39.490002 1.7117 L 28.694201 0.859406 L 9.9436 0.859406 Z M 7.1026 36.940102 L 7.9549 38.360603 L 7.3867 39.497002 L 6.5344 38.0765 Z M 33.807999 36.655998 L 33.807999 38.0765 L 32.6716 39.781097 L 32.6716 37.508301 Z M 30.3988 34.383202 L 31.251101 35.5196 L 30.1147 35.803703 Z M 9.9436 33.815002 L 10.5118 34.667297 L 10.2277 35.5196 L 9.3754 34.383202 Z M 34.660301 33.246803 L 33.807999 35.5196 L 34.376202 35.803703 L 32.6716 37.508301 L 28.410101 38.360603 L 23.8645 41.201599 L 26.1373 41.485703 L 28.125999 40.917503 L 26.7055 42.337997 L 21.3076 43.1903 L 23.5804 44.326698 L 24.716801 43.474403 L 26.7055 44.042603 L 25.0009 45.7472 L 23.296301 45.7472 L 21.5917 44.610802 L 20.739401 44.610802 L 21.875799 47.167702 L 21.5917 47.735901 L 20.1712 48.019997 L 19.318899 47.167702 L 20.455299 46.883598 L 19.603001 44.610802 L 17.898399 46.315399 L 16.1938 46.599503 L 13.0687 43.758499 L 14.7733 43.474403 L 16.4779 44.894897 L 17.6143 45.179001 L 19.0348 43.758499 L 18.182501 43.1903 L 15.6256 42.906197 L 17.046101 41.769798 L 17.898399 41.769798 L 19.318899 42.906197 L 18.182501 41.485703 L 16.761999 41.201599 L 14.4892 42.337997 L 13.0687 42.337997 L 11.9323 41.769798 L 10.5118 39.497002 L 12.5005 40.6334 L 15.3415 39.781097 L 18.4666 40.6334 L 16.761999 39.497002 L 11.9323 39.781097 L 10.7959 38.928802 L 12.2164 38.0765 L 13.3528 38.360603 L 6.5344 36.371902 L 7.6708 35.803703 L 6.8185 34.667297 L 7.3867 32.110397 L 8.239 33.246803 L 8.239 34.667297 L 8.8072 35.5196 L 9.0913 34.667297 L 10.2277 35.803703 L 11.08 35.803703 L 10.5118 34.667297 L 10.7959 32.394501 L 12.2164 35.803703 L 13.0687 36.371902 L 12.7846 34.099098 L 13.3528 33.530899 L 14.7733 34.951401 L 14.4892 36.371902 L 19.318899 39.781097 L 15.3415 36.371902 L 15.3415 33.530899 L 14.7733 32.394501 L 15.3415 32.110397 L 16.761999 33.530899 L 17.898399 36.655998 L 19.318899 38.0765 L 18.7507 34.099098 L 19.8871 31.542198 L 20.455299 32.9627 L 20.455299 35.5196 L 21.5917 33.530899 L 22.159901 34.667297 L 22.159901 36.371902 L 21.0235 38.0765 L 21.0235 38.928802 L 23.296301 34.099098 L 23.8645 35.235497 L 23.012199 37.508301 L 23.8645 36.371902 L 24.1486 37.224197 L 23.296301 38.0765 L 23.296301 38.928802 L 25.853201 33.246803 L 26.4214 35.5196 L 26.989599 35.803703 L 24.432699 39.497002 L 25.0009 39.497002 L 28.410101 36.371902 L 29.546499 33.815002 L 29.830601 35.803703 L 28.694201 37.508301 L 30.682899 36.655998 L 33.523899 33.246803 Z M 15.3415 21.030502 L 15.6256 19.894104 L 16.1938 20.462296 L 18.4666 20.462296 L 19.0348 21.030502 Z M 29.546499 18.189499 L 32.387501 19.325897 L 32.387501 19.894104 L 33.807999 20.462296 L 36.648998 23.871498 L 36.080799 24.155602 L 34.092098 22.451004 L 37.7854 26.428398 L 37.7854 27.564796 L 36.080799 26.712502 L 33.523899 23.303299 L 36.648998 28.701202 L 36.933102 34.099098 L 36.364899 34.667297 L 35.7967 33.530899 L 34.660301 28.133003 L 33.523899 25.860199 L 35.2285 32.110397 L 33.239799 32.678596 L 32.9557 30.121696 L 32.103401 28.133003 L 32.387501 31.258102 L 30.3988 28.985298 L 32.387501 31.542198 L 32.103401 33.530899 L 28.9783 30.121696 L 32.387501 34.099098 L 31.5352 35.235497 L 28.125999 32.110397 L 29.2624 33.815002 L 28.410101 34.951401 L 27.273701 33.815002 L 28.410101 35.235497 L 28.410101 36.087799 L 26.7055 37.508301 L 26.4214 36.940102 L 27.8419 35.803703 L 27.5578 35.235497 L 26.4214 34.951401 L 26.1373 32.9627 L 25.285 33.246803 L 25.0009 34.951401 L 24.1486 36.087799 L 23.012199 32.9627 L 23.5804 31.258102 L 23.296301 26.996597 L 22.7281 25.576103 L 24.716801 23.587402 L 24.432699 23.019203 L 25.285 23.019203 L 25.285 24.723801 L 26.4214 24.439697 L 27.5578 22.166901 L 26.989599 21.598694 L 26.4214 22.166901 L 24.716801 21.598694 L 25.853201 21.030502 L 25.853201 19.894104 L 26.7055 18.757706 Z M 12.5005 18.189499 L 13.3528 19.041794 L 13.3528 21.030502 L 13.921 21.314606 L 13.921 22.166901 L 12.5005 22.166901 L 11.9323 22.735107 L 12.2164 25.007896 L 15.0574 25.007896 L 14.2051 23.871498 L 14.7733 22.166901 L 17.3302 24.723801 L 17.3302 27.280701 L 16.761999 28.417099 L 17.6143 32.678596 L 17.3302 34.099098 L 16.4779 32.678596 L 14.2051 31.826302 L 15.0574 33.246803 L 14.7733 34.667297 L 13.6369 32.9627 L 11.9323 34.383202 L 14.2051 30.689903 L 12.7846 32.394501 L 11.3641 32.9627 L 11.08 32.394501 L 12.7846 29.553497 L 11.3641 31.826302 L 10.5118 31.826302 L 10.2277 32.9627 L 8.8072 34.383202 L 8.5231 33.246803 L 10.7959 29.837601 L 8.5231 32.678596 L 7.6708 31.826302 L 9.6595 28.701202 L 7.3867 31.826302 L 7.1026 31.258102 L 7.6708 29.553497 L 6.8185 31.826302 L 6.2503 31.826302 L 6.8185 32.678596 L 6.5344 34.667297 L 7.1026 35.5196 L 5.9662 35.5196 L 5.9662 28.417099 L 3.1252 34.951401 L 3.1252 32.110397 L 5.398 27.280701 L 3.1252 29.553497 L 1.7047 29.553497 L 5.398 25.860199 L 3.9775 26.712502 L 1.7047 26.428398 L 4.8298 24.723801 L 6.2503 23.019203 L 4.5457 23.871498 L 2.2729 23.587402 L 9.0913 19.610001 L 8.239 19.325897 L 8.5231 18.473602 L 9.3754 19.041794 Z M 20.739401 17.621307 L 23.296301 18.757706 L 22.444 19.325897 L 23.5804 20.746399 L 23.012199 21.314606 L 23.5804 22.735107 L 22.7281 24.155602 L 22.159901 24.155602 L 22.444 25.576103 L 21.875799 25.576103 L 23.296301 28.133003 L 22.7281 29.837601 L 22.444 29.269402 L 23.012199 30.4058 L 23.012199 33.246803 L 22.444 34.383202 L 21.5917 32.9627 L 21.0235 33.815002 L 19.8871 30.689903 L 18.182501 35.803703 L 17.898399 32.678596 L 18.4666 32.110397 L 17.898399 32.394501 L 17.3302 31.826302 L 17.898399 29.837601 L 17.6143 30.4058 L 17.046101 29.837601 L 17.046101 28.417099 L 18.182501 26.712502 L 17.6143 26.996597 L 17.3302 25.860199 L 20.455299 23.019203 L 19.603001 23.587402 L 19.603001 22.735107 L 18.182501 22.166901 L 19.603001 21.314606 L 20.739401 21.882797 L 17.3302 19.610001 L 16.4779 19.894104 L 16.4779 19.041794 L 17.3302 18.189499 L 17.898399 18.757706 L 18.182501 17.905396 Z M 6.2503 11.939301 L 7.3867 12.223404 L 7.1026 13.643906 L 5.6821 13.359802 Z M 32.387501 13.643906 L 32.6716 11.371094 L 36.080799 11.655197 L 36.648998 12.507507 L 34.092098 13.643906 Z M 3.4093 11.371094 L 4.8298 11.371094 L 5.398 11.939301 L 5.398 13.359802 L 4.8298 13.927994 L 3.4093 13.927994 L 2.8411 13.359802 L 2.8411 11.939301 Z M 32.387501 8.814194 L 32.6716 6.8255 L 35.7967 6.8255 L 36.648998 7.677795 L 33.523899 9.098297 Z M 5.9662 6.8255 L 7.3867 7.109604 L 7.1026 8.530106 L 5.6821 8.246002 Z M 3.4093 6.257294 L 4.8298 6.257294 L 5.398 6.8255 L 5.398 8.246002 L 4.8298 8.814194 L 3.4093 8.814194 L 2.8411 8.246002 L 2.8411 6.8255 Z M 20.1712 3.984497 L 23.296301 3.132202 L 28.694201 4.2686 L 31.8193 3.984497 L 31.8193 16.484894 L 23.5804 15.064407 L 21.5917 15.348495 L 20.1712 16.200806 Z M 19.318899 3.984497 L 19.318899 16.200806 L 15.6256 15.064407 L 11.08 16.200806 L 7.9549 16.200806 L 8.239 3.984497 L 11.08 4.2686 L 15.0574 3.132202 Z"/>
    </g>
</svg>
