<?xml version="1.0" encoding="UTF-8"?>
<svg xmlns="http://www.w3.org/2000/svg" viewBox="0 0 250 250" role="img" aria-label="Vanguard logo">
  <title>Vanguard</title>
  <path fill="#96151D" fill-rule="evenodd" d="M0 98.617L0 98.984L1.224 99.596L2.081 100.575L3.306 103.024L12.61 128.979L13.59 130.815L15.426 133.264L17.507 134.978L18.609 135.59L24.608 137.794L36.974 101.8L37.953 98.494L27.424 98.617L27.547 98.861L28.893 99.596L29.628 100.453L30.118 101.677L30.118 103.391L23.017 126.041L22.772 126.286L13.222 98.617ZM236.778 98.617L224.412 99.106L224.412 99.351L225.514 99.718L226.004 100.208L226.738 102.167L226.738 112.206L226.616 112.329L224.045 110.982L221.719 110.37L219.76 110.247L217.924 110.492L216.21 110.982L213.639 112.329L211.068 114.655L209.966 116.246L208.986 118.328L208.129 121.633L207.884 124.571L208.252 127.632L209.109 130.203L210.455 132.652L212.292 134.733L214.74 136.57L217.067 137.549L218.903 137.916L221.474 137.916L223.188 137.549L225.759 132.897L223.066 132.774L221.107 131.795L219.882 130.448L219.025 128.857L218.291 126.041L218.291 121.756L218.658 119.919L219.393 118.205L220.862 116.614L221.596 116.246L223.678 116.124L224.902 116.614L225.881 117.593L226.494 118.817L226.738 119.797L226.738 137.549L239.226 137.549L239.226 137.304L238.247 137.059L237.39 136.202L236.778 134.243ZM244.491 98.617L242.409 99.351L241.185 100.453L240.573 101.432L240.206 102.534L240.206 104.371L240.695 105.84L241.92 107.309L243.879 108.288L245.593 108.411L246.694 108.166L247.674 107.676L249.143 106.33L249.878 104.738L250 102.902L249.51 101.31L247.919 99.474L246.694 98.861ZM244.613 99.229L246.205 99.351L247.674 100.086L248.776 101.31L249.388 103.024L249.265 104.616L248.531 106.085L247.307 107.187L245.715 107.799L244.491 107.799L242.654 107.064L241.43 105.84L240.818 104.371L240.818 102.657L241.43 101.188L243.022 99.718ZM243.266 100.698L243.266 106.452L244.001 106.33L244.123 103.759L245.837 103.881L246.327 104.616L246.572 106.452L247.307 106.452L246.939 104.126L246.694 103.759L246.205 103.514L246.694 103.269L247.184 102.534L247.184 101.677L246.939 101.188L245.96 100.698ZM244.001 101.432L245.715 101.31L246.205 101.555L246.45 101.922L246.327 102.779L245.715 103.146L244.123 103.146ZM207.517 110.492L206.66 110.247L204.579 110.247L202.62 110.859L201.641 111.472L200.294 112.818L199.682 113.798L199.559 110.492L187.439 110.982L187.439 111.227L188.296 111.472L189.03 112.206L189.643 113.798L189.52 133.631L187.316 133.631L185.602 133.264L184.133 132.162L183.399 130.938L183.031 128.367L183.031 119.797L182.664 117.471L182.174 116.001L181.44 114.655L179.726 112.818L178.257 111.961L175.93 111.104L172.625 110.492L167.605 110.492L162.831 111.349L160.749 117.838L163.075 116.858L165.646 116.124L166.993 115.879L169.809 115.879L171.156 116.246L172.502 117.226L172.992 118.205L172.87 119.185L171.768 120.409L170.788 120.899L163.198 122.613L160.627 123.592L159.158 124.571L157.566 126.408L156.709 128.489L156.587 130.815L157.076 132.407L157.933 133.876L159.28 135.223L161.729 136.57L165.891 137.549L171.523 137.549L173.604 133.386L170.666 133.509L168.83 132.774L167.728 131.55L167.36 130.448L167.36 129.346L167.728 128.367L169.074 127.02L170.666 126.286L173.237 125.673L173.359 130.326L173.972 132.897L175.073 134.733L176.298 135.835L177.767 136.692L181.072 137.549L202.008 137.549L202.008 137.304L201.028 137.059L200.171 136.202L199.559 134.121L199.559 121.143L200.049 119.552L200.539 118.817L202.13 117.471L204.579 116.858L207.517 117.103ZM32.076 129.469L32.199 131.183L32.811 132.897L33.546 133.999L35.504 135.713L37.218 136.57L40.524 137.427L47.013 137.549L49.094 133.386L46.156 133.509L44.564 132.897L43.462 131.917L42.973 130.815L42.85 129.469L43.34 128.244L44.564 127.02L47.013 126.041L48.727 125.673L48.849 129.958L49.339 132.529L49.829 133.631L50.686 134.856L51.787 135.835L53.012 136.57L54.726 137.182L56.562 137.549L77.253 137.549L77.253 137.304L76.518 137.059L75.661 136.325L74.927 134.366L74.927 119.919L75.416 118.45L76.641 117.103L77.987 116.491L79.701 116.491L80.803 116.981L81.538 117.715L82.027 118.817L82.15 119.674L82.15 137.549L94.148 137.549L94.148 137.304L93.413 137.059L92.434 136.08L91.822 134.121L91.822 118.572L91.21 115.634L89.985 113.553L88.516 112.206L86.435 111.104L83.864 110.492L82.395 110.37L79.824 110.737L76.763 112.084L75.049 113.43L74.927 110.492L62.684 110.982L62.806 111.227L63.663 111.472L64.398 112.206L65.01 113.798L64.887 133.631L62.806 133.631L61.092 133.264L59.378 131.795L58.888 130.815L58.643 129.836L58.399 118.572L57.786 116.246L56.685 114.287L55.215 112.818L53.746 111.961L51.42 111.104L48.237 110.492L43.095 110.492L39.177 111.104L38.32 111.472L36.239 117.838L38.932 116.736L42.483 115.879L45.421 115.879L47.135 116.491L48.115 117.348L48.482 118.083L48.359 119.185L47.747 120.042L46.278 120.899L44.687 121.388L42.116 121.756L38.688 122.613L35.504 123.959L34.525 124.694L33.056 126.408L32.321 128.122ZM95.984 117.103L95.495 119.062L95.495 121.143L96.107 123.347L97.331 125.429L99.29 127.387L101.126 128.612L102.718 129.346L99.657 130.081L98.8 130.571L98.433 131.183L98.555 133.019L98.923 134.121L99.902 135.713L101.126 136.814L102.595 137.427L108.595 137.549L111.9 138.161L112.757 138.651L113.737 139.63L114.471 141.222L114.471 142.691L114.226 143.67L113.124 145.14L111.9 145.874L110.186 146.364L107.125 146.486L104.799 145.874L103.942 145.384L103.085 144.65L102.351 143.426L102.228 142.201L102.595 141.099L103.452 140.242L104.31 139.875L102.84 139.63L99.412 139.63L97.698 139.998L96.229 140.61L95.372 141.222L94.393 142.324L93.781 143.793L93.781 145.507L94.27 146.731L95.25 147.955L96.964 149.18L99.045 150.159L102.718 151.139L106.146 151.506L110.186 151.506L114.594 151.016L117.165 150.404L119.858 149.302L121.694 148.078L122.796 146.976L123.653 145.752L124.51 143.181L124.51 140.242L124.143 138.896L123.531 137.671L121.817 135.713L119.613 134.366L116.92 133.509L115.206 133.264L107.37 133.264L106.146 132.897L105.534 132.04L105.656 131.428L106.636 130.815L108.472 130.693L111.533 130.081L115.695 128.734L117.899 127.51L119.613 125.918L120.47 124.694L121.327 122.368L121.45 120.654L121.205 119.185L120.593 117.593L119.001 115.389L119.123 115.267L126.347 115.389L126.469 130.326L126.959 132.285L128.061 134.243L130.142 136.08L131.611 136.814L133.815 137.427L137.243 137.549L140.426 136.57L141.895 135.713L143.364 134.488L143.487 137.549L155.852 137.549L155.852 137.304L154.873 137.059L154.016 136.202L153.404 134.243L153.404 110.492L141.161 110.982L141.161 111.227L142.14 111.472L142.875 112.206L143.487 113.798L143.487 127.877L143.242 128.979L142.63 130.203L141.405 131.305L140.548 131.55L138.834 131.55L137.733 131.06L136.876 130.081L136.386 128.857L136.263 110.37L108.105 110.37L104.677 110.737L102.351 111.349L99.412 112.818L97.698 114.287L96.719 115.634ZM107.86 115.512L108.839 115.512L110.186 116.124L111.166 117.226L111.655 118.695L111.778 120.776L111.288 123.225L110.186 124.694L109.207 125.184L107.738 125.184L106.268 124.449L105.534 123.592L104.922 122L104.922 119.185L105.289 117.715L106.146 116.369L107.003 115.757Z"/>
</svg>
