<?xml version="1.0" encoding="UTF-8"?>
<!-- Generated by Pixelmator Pro 3.8 -->
<svg width="250" height="54" viewBox="0 0 250 54" xmlns="http://www.w3.org/2000/svg">
    <path id="Path" fill="#96151d" fill-rule="evenodd" stroke="none" d="M 0 0.617004 L 0 0.984009 L 1.224 1.596008 L 2.081 2.574997 L 3.306 5.024002 L 12.61 30.979004 L 13.59 32.815002 L 15.426 35.264008 L 17.507 36.977997 L 18.608999 37.589996 L 24.608 39.794006 L 36.973999 3.800003 L 37.952999 0.494003 L 27.424 0.617004 L 27.547001 0.860992 L 28.893 1.596008 L 29.628 2.453003 L 30.118 3.677002 L 30.118 5.390991 L 23.017 28.041 L 22.771999 28.286003 L 13.222 0.617004 Z M 236.778 0.617004 L 224.412003 1.106003 L 224.412003 1.350998 L 225.514008 1.718002 L 226.003998 2.208008 L 226.738007 4.166992 L 226.738007 14.205994 L 226.615997 14.32901 L 224.044998 12.981995 L 221.718994 12.369995 L 219.759995 12.247009 L 217.923996 12.492004 L 216.210007 12.981995 L 213.639008 14.32901 L 211.067993 16.654999 L 209.966003 18.246002 L 208.985992 20.328003 L 208.128998 23.632996 L 207.884003 26.570999 L 208.251999 29.632004 L 209.108994 32.203003 L 210.455002 34.651993 L 212.292007 36.733002 L 214.740005 38.570007 L 217.067001 39.548996 L 218.903 39.916 L 221.473999 39.916 L 223.188004 39.548996 L 225.759003 34.897003 L 223.065994 34.774002 L 221.106995 33.794998 L 219.882004 32.447998 L 219.024994 30.856995 L 218.291 28.041 L 218.291 23.755997 L 218.658005 21.919006 L 219.393005 20.205002 L 220.862 18.613998 L 221.595993 18.246002 L 223.677994 18.123993 L 224.901993 18.613998 L 225.880997 19.593002 L 226.494003 20.817001 L 226.738007 21.796997 L 226.738007 39.548996 L 239.225998 39.548996 L 239.225998 39.304001 L 238.246994 39.059006 L 237.389999 38.201996 L 236.778 36.242996 Z M 244.490997 0.617004 L 242.408997 1.350998 L 241.184998 2.453003 L 240.572998 3.432007 L 240.205994 4.533997 L 240.205994 6.371002 L 240.695007 7.839996 L 241.919998 9.30899 L 243.878998 10.287994 L 245.593002 10.411011 L 246.694 10.166 L 247.673996 9.675995 L 249.143005 8.330002 L 249.878006 6.738007 L 250 4.902008 L 249.509995 3.309998 L 247.919006 1.473999 L 246.694 0.860992 Z M 244.613007 1.229004 L 246.205002 1.350998 L 247.673996 2.085999 L 248.776001 3.309998 L 249.388 5.024002 L 249.264999 6.615997 L 248.531006 8.084991 L 247.307007 9.186996 L 245.714996 9.799011 L 244.490997 9.799011 L 242.654007 9.063995 L 241.429993 7.839996 L 240.817993 6.371002 L 240.817993 4.656998 L 241.429993 3.188004 L 243.022003 1.718002 Z M 243.266006 2.697998 L 243.266006 8.451996 L 244.001007 8.330002 L 244.123001 5.759003 L 245.837006 5.880997 L 246.326996 6.615997 L 246.572006 8.451996 L 247.307007 8.451996 L 246.938995 6.126007 L 246.694 5.759003 L 246.205002 5.514008 L 246.694 5.268997 L 247.184006 4.533997 L 247.184006 3.677002 L 246.938995 3.188004 L 245.960007 2.697998 Z M 244.001007 3.432007 L 245.714996 3.309998 L 246.205002 3.554993 L 246.449997 3.921997 L 246.326996 4.778992 L 245.714996 5.145996 L 244.123001 5.145996 Z M 207.516998 12.492004 L 206.660004 12.247009 L 204.578995 12.247009 L 202.619995 12.859009 L 201.641006 13.472 L 200.294006 14.817993 L 199.682007 15.798004 L 199.559006 12.492004 L 187.438995 12.981995 L 187.438995 13.22699 L 188.296005 13.472 L 189.029999 14.205994 L 189.643005 15.798004 L 189.520004 35.630997 L 187.315994 35.630997 L 185.602005 35.264008 L 184.132996 34.162003 L 183.399002 32.938004 L 183.031006 30.367004 L 183.031006 21.796997 L 182.664001 19.471008 L 182.173996 18.001007 L 181.440002 16.654999 L 179.725998 14.817993 L 178.257004 13.960999 L 175.929993 13.104004 L 172.625 12.492004 L 167.604996 12.492004 L 162.830994 13.348999 L 160.748993 19.837997 L 163.074997 18.858002 L 165.645996 18.123993 L 166.992996 17.878998 L 169.809006 17.878998 L 171.156006 18.246002 L 172.501999 19.225998 L 172.992004 20.205002 L 172.869995 21.184998 L 171.768005 22.408997 L 170.787994 22.899002 L 163.197998 24.612999 L 160.626999 25.592003 L 159.158005 26.570999 L 157.565994 28.407997 L 156.709 30.488998 L 156.587006 32.815002 L 157.076004 34.406998 L 157.932999 35.876007 L 159.279999 37.223007 L 161.729004 38.570007 L 165.891006 39.548996 L 171.522995 39.548996 L 173.604004 35.386002 L 170.666 35.509003 L 168.830002 34.774002 L 167.727997 33.550003 L 167.360001 32.447998 L 167.360001 31.345993 L 167.727997 30.367004 L 169.074005 29.019997 L 170.666 28.286003 L 173.237 27.672997 L 173.358994 32.326004 L 173.972 34.897003 L 175.072998 36.733002 L 176.298004 37.835007 L 177.766998 38.692001 L 181.072006 39.548996 L 202.007996 39.548996 L 202.007996 39.304001 L 201.028 39.059006 L 200.171005 38.201996 L 199.559006 36.121002 L 199.559006 23.143005 L 200.048996 21.552002 L 200.539001 20.817001 L 202.130005 19.471008 L 204.578995 18.858002 L 207.516998 19.102997 Z M 32.076 31.468994 L 32.199001 33.182999 L 32.811001 34.897003 L 33.546001 35.998993 L 35.504002 37.712997 L 37.217999 38.570007 L 40.523998 39.427002 L 47.013 39.548996 L 49.094002 35.386002 L 46.155998 35.509003 L 44.563999 34.897003 L 43.462002 33.917007 L 42.973 32.815002 L 42.849998 31.468994 L 43.34 30.244003 L 44.563999 29.019997 L 47.013 28.041 L 48.727001 27.672997 L 48.848999 31.957993 L 49.339001 34.529007 L 49.828999 35.630997 L 50.686001 36.856003 L 51.786999 37.835007 L 53.012001 38.570007 L 54.726002 39.182007 L 56.562 39.548996 L 77.252998 39.548996 L 77.252998 39.304001 L 76.517998 39.059006 L 75.661003 38.324997 L 74.927002 36.365997 L 74.927002 21.919006 L 75.416 20.449997 L 76.640999 19.102997 L 77.987 18.490997 L 79.700996 18.490997 L 80.803001 18.981003 L 81.538002 19.714996 L 82.027 20.817001 L 82.150002 21.674011 L 82.150002 39.548996 L 94.148003 39.548996 L 94.148003 39.304001 L 93.413002 39.059006 L 92.433998 38.080002 L 91.821999 36.121002 L 91.821999 20.571991 L 91.209999 17.634003 L 89.985001 15.553009 L 88.515999 14.205994 L 86.434998 13.104004 L 83.863998 12.492004 L 82.394997 12.369995 L 79.823997 12.737 L 76.763 14.084 L 75.049004 15.429993 L 74.927002 12.492004 L 62.683998 12.981995 L 62.806 13.22699 L 63.662998 13.472 L 64.398003 14.205994 L 65.010002 15.798004 L 64.887001 35.630997 L 62.806 35.630997 L 61.091999 35.264008 L 59.377998 33.794998 L 58.888 32.815002 L 58.643002 31.835999 L 58.398998 20.571991 L 57.785999 18.246002 L 56.685001 16.287003 L 55.215 14.817993 L 53.745998 13.960999 L 51.419998 13.104004 L 48.237 12.492004 L 43.095001 12.492004 L 39.176998 13.104004 L 38.32 13.472 L 36.238998 19.837997 L 38.931999 18.735992 L 42.483002 17.878998 L 45.421001 17.878998 L 47.134998 18.490997 L 48.115002 19.347992 L 48.481998 20.083008 L 48.359001 21.184998 L 47.747002 22.041992 L 46.278 22.899002 L 44.687 23.388 L 42.116001 23.755997 L 38.688 24.612999 L 35.504002 25.959 L 34.525002 26.694 L 33.056 28.407997 L 32.320999 30.121994 Z M 95.984001 19.102997 L 95.495003 21.061996 L 95.495003 23.143005 L 96.107002 25.347 L 97.331001 27.429001 L 99.290001 29.387001 L 101.125999 30.612 L 102.718002 31.345993 L 99.656998 32.080994 L 98.800003 32.570999 L 98.432999 33.182999 L 98.555 35.018997 L 98.922997 36.121002 L 99.902 37.712997 L 101.125999 38.813995 L 102.595001 39.427002 L 108.595001 39.548996 L 111.900002 40.160995 L 112.757004 40.651001 L 113.737 41.630005 L 114.471001 43.222 L 114.471001 44.690994 L 114.225998 45.669998 L 113.124001 47.139999 L 111.900002 47.873993 L 110.185997 48.363998 L 107.125 48.485992 L 104.799004 47.873993 L 103.942001 47.384003 L 103.084999 46.649994 L 102.350998 45.425995 L 102.227997 44.201004 L 102.595001 43.098999 L 103.452003 42.242004 L 104.309998 41.875 L 102.839996 41.630005 L 99.412003 41.630005 L 97.697998 41.998001 L 96.228996 42.610001 L 95.372002 43.222 L 94.392998 44.324005 L 93.780998 45.792999 L 93.780998 47.507004 L 94.269997 48.731003 L 95.25 49.955002 L 96.963997 51.179993 L 99.044998 52.158997 L 102.718002 53.139008 L 106.146004 53.505997 L 110.185997 53.505997 L 114.594002 53.016006 L 117.165001 52.404007 L 119.858002 51.302002 L 121.694 50.078003 L 122.795998 48.975998 L 123.653 47.751999 L 124.510002 45.181 L 124.510002 42.242004 L 124.142998 40.895996 L 123.530998 39.671005 L 121.817001 37.712997 L 119.612999 36.365997 L 116.919998 35.509003 L 115.206001 35.264008 L 107.370003 35.264008 L 106.146004 34.897003 L 105.533997 34.039993 L 105.655998 33.427994 L 106.636002 32.815002 L 108.472 32.692993 L 111.532997 32.080994 L 115.695 30.733994 L 117.899002 29.510002 L 119.612999 27.917999 L 120.470001 26.694 L 121.327003 24.367996 L 121.449997 22.653992 L 121.205002 21.184998 L 120.593002 19.593002 L 119.000999 17.389008 L 119.123001 17.266998 L 126.347 17.389008 L 126.469002 32.326004 L 126.959 34.285004 L 128.061005 36.242996 L 130.141998 38.080002 L 131.610992 38.813995 L 133.815002 39.427002 L 137.242996 39.548996 L 140.425995 38.570007 L 141.895004 37.712997 L 143.363998 36.488007 L 143.487 39.548996 L 155.852005 39.548996 L 155.852005 39.304001 L 154.873001 39.059006 L 154.016006 38.201996 L 153.404007 36.242996 L 153.404007 12.492004 L 141.160995 12.981995 L 141.160995 13.22699 L 142.139999 13.472 L 142.875 14.205994 L 143.487 15.798004 L 143.487 29.876999 L 143.242004 30.979004 L 142.630005 32.203003 L 141.404999 33.304993 L 140.548004 33.550003 L 138.834 33.550003 L 137.733002 33.059998 L 136.876007 32.080994 L 136.386002 30.856995 L 136.263 12.369995 L 108.105003 12.369995 L 104.677002 12.737 L 102.350998 13.348999 L 99.412003 14.817993 L 97.697998 16.287003 L 96.719002 17.634003 Z M 107.860001 17.511993 L 108.838997 17.511993 L 110.185997 18.123993 L 111.166 19.225998 L 111.654999 20.695007 L 111.778 22.776001 L 111.288002 25.224998 L 110.185997 26.694 L 109.207001 27.183998 L 107.737999 27.183998 L 106.267998 26.448997 L 105.533997 25.592003 L 104.921997 24 L 104.921997 21.184998 L 105.289001 19.714996 L 106.146004 18.369003 L 107.002998 17.757004 Z"/>
</svg>
