<svg xmlns="http://www.w3.org/2000/svg" viewBox="0 0 250 250" role="img" aria-label="Instagram black logo">
<title>Instagram black</title>
<path fill="#000000" fill-rule="evenodd" clip-rule="evenodd" d="M125 0a125 125 0 1 0 0 250a125 125 0 1 0 0-250zM125.033 87.05C104.045 87.05 87.116 103.979 87.116 124.967C87.116 145.955 104.045 162.884 125.033 162.884C146.021 162.884 162.95 145.955 162.95 124.967C162.95 103.979 146.021 87.05 125.033 87.05ZM125.033 149.618C111.47 149.618 100.382 138.563 100.382 124.967C100.382 111.371 111.437 100.316 125.033 100.316C138.629 100.316 149.684 111.371 149.684 124.967C149.684 138.563 138.596 149.618 125.033 149.618H125.033ZM173.345 85.499C173.345 90.416 169.385 94.343 164.501 94.343C159.584 94.343 155.657 90.383 155.657 85.499C155.657 80.615 159.617 76.655 164.501 76.655C169.385 76.655 173.345 80.615 173.345 85.499ZM198.458 94.475C197.897 82.628 195.191 72.134 186.512 63.488C177.866 54.842 167.372 52.136 155.525 51.542C143.315 50.849 106.718 50.849 94.508 51.542C82.694 52.103 72.2 54.809 63.521 63.455C54.842 72.101 52.169 82.595 51.575 94.442C50.882 106.652 50.882 143.249 51.575 155.459C52.136 167.306 54.842 177.8 63.521 186.446C72.2 195.092 82.661 197.798 94.508 198.392C106.718 199.085 143.315 199.085 155.525 198.392C167.372 197.831 177.866 195.125 186.512 186.446C195.158 177.8 197.864 167.306 198.458 155.459C199.151 143.249 199.151 106.685 198.458 94.475L198.458 94.475ZM182.684 168.56C180.11 175.028 175.127 180.011 168.626 182.618C158.891 186.479 135.791 185.588 125.033 185.588C114.275 185.588 91.142 186.446 81.44 182.618C74.972 180.044 69.989 175.061 67.382 168.56C63.521 158.825 64.412 135.725 64.412 124.967C64.412 114.209 63.554 91.076 67.382 81.374C69.956 74.906 74.939 69.923 81.44 67.316C91.175 63.455 114.275 64.346 125.033 64.346C135.791 64.346 158.924 63.488 168.626 67.316C175.094 69.89 180.077 74.873 182.684 81.374C186.545 91.109 185.654 114.209 185.654 124.967C185.654 135.725 186.545 158.858 182.684 168.56Z"/>
</svg>
