<svg xmlns="http://www.w3.org/2000/svg" viewBox="0 0 250 250" role="img" aria-label="LinkedIn white logo">
<title>LinkedIn white</title>
<path fill="#ffffff" fill-rule="evenodd" clip-rule="evenodd" d="M125 0a125 125 0 1 0 0 250a125 125 0 1 0 0-250zM89.121 189.96H62.186V103.221H89.121V189.96ZM75.639 91.389C67.026 91.389 60.04 84.255 60.04 75.642C60.04 67.027 67.024 60.043 75.639 60.043C84.254 60.043 91.238 67.027 91.238 75.642C91.238 84.255 84.249 91.389 75.639 91.389ZM189.931 189.96H163.054V147.736C163.054 137.673 162.851 124.768 149.05 124.768C135.046 124.768 132.9 135.701 132.9 147.011V189.96H105.993V103.221H131.827V115.053H132.204C135.8 108.238 144.584 101.046 157.689 101.046C184.949 101.046 189.96 118.997 189.96 142.313V189.96H189.931Z"/>
</svg>
